  0
SECTION
  2
HEADER
  9
$ACADVER
  1
AC1009
  0
ENDSEC
  0
SECTION
  2
ENTITIES
  0
POLYLINE
  5
90
  8
Layer_0
  62
0
  70
1
  66
1
  10
0
  20
0
  30
0
  0
VERTEX
  5
90
  8
Layer_0
  10
169.15546
  20
155.6546
  0
VERTEX
  5
91
  8
Layer_0
  10
183.46658
  20
131.72241
  0
VERTEX
  5
92
  8
Layer_0
  10
169.22318
  20
108.37939
  0
VERTEX
  5
93
  8
Layer_0
  10
183.28537
  20
108.37939
  0
VERTEX
  5
94
  8
Layer_0
  10
190.85687
  20
120.66898
  0
VERTEX
  5
95
  8
Layer_0
  10
198.42841
  20
108.37939
  0
VERTEX
  5
96
  8
Layer_0
  10
212.49057
  20
108.37939
  0
VERTEX
  5
97
  8
Layer_0
  10
198.24716
  20
131.72241
  0
VERTEX
  5
98
  8
Layer_0
  10
212.55832
  20
155.6546
  0
VERTEX
  5
99
  8
Layer_0
  10
212.55832
  20
158.37939
  0
VERTEX
  5
9a
  8
Layer_0
  10
198.78262
  20
158.37939
  0
VERTEX
  5
9b
  8
Layer_0
  10
198.78262
  20
155.6546
  0
VERTEX
  5
9c
  8
Layer_0
  10
198.80154
  20
155.6546
  0
VERTEX
  5
9d
  8
Layer_0
  10
190.85687
  20
142.74524
  0
VERTEX
  5
9e
  8
Layer_0
  10
182.91226
  20
155.6546
  0
VERTEX
  5
9f
  8
Layer_0
  10
182.90582
  20
155.6546
  0
VERTEX
  5
a0
  8
Layer_0
  10
182.90582
  20
158.37939
  0
VERTEX
  5
a1
  8
Layer_0
  10
169.14764
  20
158.37939
  0
VERTEX
  5
a2
  8
Layer_0
  10
169.14764
  20
155.6546
  0
VERTEX
  5
a3
  8
Layer_0
  10
169.15546
  20
155.6546
  0
SEQEND
  0
POLYLINE
  5
a5
  8
Layer_0
  62
0
  70
1
  66
1
  10
0
  20
0
  30
0
  0
VERTEX
  5
a5
  8
Layer_0
  10
120.0368
  20
155.6546
  0
VERTEX
  5
a6
  8
Layer_0
  10
134.34789
  20
131.72241
  0
VERTEX
  5
a7
  8
Layer_0
  10
120.10448
  20
108.37941
  0
VERTEX
  5
a8
  8
Layer_0
  10
134.1667
  20
108.37941
  0
VERTEX
  5
a9
  8
Layer_0
  10
141.7382
  20
120.66899
  0
VERTEX
  5
aa
  8
Layer_0
  10
149.30975
  20
108.37941
  0
VERTEX
  5
ab
  8
Layer_0
  10
163.37192
  20
108.37939
  0
VERTEX
  5
ac
  8
Layer_0
  10
149.12851
  20
131.72241
  0
VERTEX
  5
ad
  8
Layer_0
  10
163.43967
  20
155.6546
  0
VERTEX
  5
ae
  8
Layer_0
  10
163.43967
  20
158.37939
  0
VERTEX
  5
af
  8
Layer_0
  10
149.66397
  20
158.37939
  0
VERTEX
  5
b0
  8
Layer_0
  10
149.66397
  20
155.6546
  0
VERTEX
  5
b1
  8
Layer_0
  10
149.68286
  20
155.6546
  0
VERTEX
  5
b2
  8
Layer_0
  10
141.73822
  20
142.74524
  0
VERTEX
  5
b3
  8
Layer_0
  10
133.79358
  20
155.6546
  0
VERTEX
  5
b4
  8
Layer_0
  10
133.78717
  20
155.6546
  0
VERTEX
  5
b5
  8
Layer_0
  10
133.78717
  20
158.37939
  0
VERTEX
  5
b6
  8
Layer_0
  10
120.02898
  20
158.37939
  0
VERTEX
  5
b7
  8
Layer_0
  10
120.02898
  20
155.6546
  0
VERTEX
  5
b8
  8
Layer_0
  10
120.0368
  20
155.6546
  0
SEQEND
  0
POLYLINE
  5
ba
  8
Layer_0
  62
0
  70
1
  66
1
  10
0
  20
0
  30
0
  0
VERTEX
  5
ba
  8
Layer_0
  10
70.918152
  20
155.6546
  0
VERTEX
  5
bb
  8
Layer_0
  10
85.229233
  20
131.72241
  0
VERTEX
  5
bc
  8
Layer_0
  10
70.985825
  20
108.37941
  0
VERTEX
  5
bd
  8
Layer_0
  10
85.04805
  20
108.37941
  0
VERTEX
  5
be
  8
Layer_0
  10
92.619537
  20
120.66899
  0
VERTEX
  5
bf
  8
Layer_0
  10
100.19107
  20
108.37941
  0
VERTEX
  5
c0
  8
Layer_0
  10
114.25325
  20
108.37941
  0
VERTEX
  5
c1
  8
Layer_0
  10
100.00984
  20
131.72241
  0
VERTEX
  5
c2
  8
Layer_0
  10
114.321
  20
155.6546
  0
VERTEX
  5
c3
  8
Layer_0
  10
114.321
  20
158.37939
  0
VERTEX
  5
c4
  8
Layer_0
  10
100.5453
  20
158.37939
  0
VERTEX
  5
c5
  8
Layer_0
  10
100.5453
  20
155.6546
  0
VERTEX
  5
c6
  8
Layer_0
  10
100.56421
  20
155.6546
  0
VERTEX
  5
c7
  8
Layer_0
  10
92.619553
  20
142.74524
  0
VERTEX
  5
c8
  8
Layer_0
  10
84.674927
  20
155.6546
  0
VERTEX
  5
c9
  8
Layer_0
  10
84.668503
  20
155.6546
  0
VERTEX
  5
ca
  8
Layer_0
  10
84.668503
  20
158.37939
  0
VERTEX
  5
cb
  8
Layer_0
  10
70.910309
  20
158.37939
  0
VERTEX
  5
cc
  8
Layer_0
  10
70.910309
  20
155.6546
  0
VERTEX
  5
cd
  8
Layer_0
  10
70.918152
  20
155.6546
  0
SEQEND
  0
POLYLINE
  5
cf
  8
Layer_0
  62
0
  70
1
  66
1
  10
0
  20
0
  30
0
  0
VERTEX
  5
cf
  8
Layer_0
  10
21.799484
  20
155.65463
  0
VERTEX
  5
d0
  8
Layer_0
  10
36.110565
  20
131.72244
  0
VERTEX
  5
d1
  8
Layer_0
  10
21.867172
  20
108.37941
  0
VERTEX
  5
d2
  8
Layer_0
  10
35.929382
  20
108.37941
  0
VERTEX
  5
d3
  8
Layer_0
  10
43.50087
  20
120.66899
  0
VERTEX
  5
d4
  8
Layer_0
  10
51.072388
  20
108.37941
  0
VERTEX
  5
d5
  8
Layer_0
  10
65.134583
  20
108.37941
  0
VERTEX
  5
d6
  8
Layer_0
  10
50.89119
  20
131.72244
  0
VERTEX
  5
d7
  8
Layer_0
  10
65.202332
  20
155.6546
  0
VERTEX
  5
d8
  8
Layer_0
  10
65.202332
  20
158.37939
  0
VERTEX
  5
d9
  8
Layer_0
  10
51.426651
  20
158.37943
  0
VERTEX
  5
da
  8
Layer_0
  10
51.426651
  20
155.65463
  0
VERTEX
  5
db
  8
Layer_0
  10
51.445541
  20
155.65463
  0
VERTEX
  5
dc
  8
Layer_0
  10
43.500885
  20
142.74527
  0
VERTEX
  5
dd
  8
Layer_0
  10
35.556259
  20
155.65463
  0
VERTEX
  5
de
  8
Layer_0
  10
35.54985
  20
155.65463
  0
VERTEX
  5
df
  8
Layer_0
  10
35.54985
  20
158.37943
  0
VERTEX
  5
e0
  8
Layer_0
  10
21.791656
  20
158.37943
  0
VERTEX
  5
e1
  8
Layer_0
  10
21.791656
  20
155.65463
  0
VERTEX
  5
e2
  8
Layer_0
  10
21.799484
  20
155.65463
  0
SEQEND
  0
POLYLINE
  5
e4
  8
Layer_0
  62
0
  70
1
  66
1
  10
0
  20
0
  30
0
  0
VERTEX
  5
e4
  8
Layer_0
  10
165.15549
  20
99.654572
  0
VERTEX
  5
e5
  8
Layer_0
  10
179.46658
  20
75.722382
  0
VERTEX
  5
e6
  8
Layer_0
  10
165.22318
  20
52.379364
  0
VERTEX
  5
e7
  8
Layer_0
  10
179.2854
  20
52.379349
  0
VERTEX
  5
e8
  8
Layer_0
  10
186.8569
  20
64.66893
  0
VERTEX
  5
e9
  8
Layer_0
  10
194.42841
  20
52.379349
  0
VERTEX
  5
ea
  8
Layer_0
  10
208.4906
  20
52.379349
  0
VERTEX
  5
eb
  8
Layer_0
  10
194.24719
  20
75.722382
  0
VERTEX
  5
ec
  8
Layer_0
  10
208.55833
  20
99.654572
  0
VERTEX
  5
ed
  8
Layer_0
  10
208.55833
  20
102.37936
  0
VERTEX
  5
ee
  8
Layer_0
  10
194.78265
  20
102.37936
  0
VERTEX
  5
ef
  8
Layer_0
  10
194.78265
  20
99.654572
  0
VERTEX
  5
f0
  8
Layer_0
  10
194.80156
  20
99.654572
  0
VERTEX
  5
f1
  8
Layer_0
  10
186.8569
  20
86.745209
  0
VERTEX
  5
f2
  8
Layer_0
  10
178.91226
  20
99.654572
  0
VERTEX
  5
f3
  8
Layer_0
  10
178.90585
  20
99.654572
  0
VERTEX
  5
f4
  8
Layer_0
  10
178.90585
  20
102.37936
  0
VERTEX
  5
f5
  8
Layer_0
  10
165.14764
  20
102.37936
  0
VERTEX
  5
f6
  8
Layer_0
  10
165.14764
  20
99.654572
  0
VERTEX
  5
f7
  8
Layer_0
  10
165.15549
  20
99.654572
  0
SEQEND
  0
POLYLINE
  5
f9
  8
Layer_0
  62
0
  70
1
  66
1
  10
0
  20
0
  30
0
  0
VERTEX
  5
f9
  8
Layer_0
  10
116.03682
  20
99.654572
  0
VERTEX
  5
fa
  8
Layer_0
  10
130.34793
  20
75.722382
  0
VERTEX
  5
fb
  8
Layer_0
  10
116.10452
  20
52.379364
  0
VERTEX
  5
fc
  8
Layer_0
  10
130.16673
  20
52.379364
  0
VERTEX
  5
fd
  8
Layer_0
  10
137.73822
  20
64.668945
  0
VERTEX
  5
fe
  8
Layer_0
  10
145.30975
  20
52.379364
  0
VERTEX
  5
ff
  8
Layer_0
  10
159.37195
  20
52.379364
  0
VERTEX
  5
100
  8
Layer_0
  10
145.12854
  20
75.722382
  0
VERTEX
  5
101
  8
Layer_0
  10
159.43967
  20
99.654572
  0
VERTEX
  5
102
  8
Layer_0
  10
159.43967
  20
102.37936
  0
VERTEX
  5
103
  8
Layer_0
  10
145.66397
  20
102.37936
  0
VERTEX
  5
104
  8
Layer_0
  10
145.66397
  20
99.654572
  0
VERTEX
  5
105
  8
Layer_0
  10
145.68289
  20
99.654572
  0
VERTEX
  5
106
  8
Layer_0
  10
137.73822
  20
86.745209
  0
VERTEX
  5
107
  8
Layer_0
  10
129.79361
  20
99.654572
  0
VERTEX
  5
108
  8
Layer_0
  10
129.78719
  20
99.654572
  0
VERTEX
  5
109
  8
Layer_0
  10
129.78719
  20
102.37936
  0
VERTEX
  5
10a
  8
Layer_0
  10
116.02899
  20
102.37936
  0
VERTEX
  5
10b
  8
Layer_0
  10
116.02899
  20
99.654572
  0
VERTEX
  5
10c
  8
Layer_0
  10
116.03682
  20
99.654572
  0
SEQEND
  0
POLYLINE
  5
10e
  8
Layer_0
  62
0
  70
1
  66
1
  10
0
  20
0
  30
0
  0
VERTEX
  5
10e
  8
Layer_0
  10
66.918159
  20
99.654572
  0
VERTEX
  5
10f
  8
Layer_0
  10
81.229256
  20
75.722382
  0
VERTEX
  5
110
  8
Layer_0
  10
66.985863
  20
52.379364
  0
VERTEX
  5
111
  8
Layer_0
  10
81.048073
  20
52.379364
  0
VERTEX
  5
112
  8
Layer_0
  10
88.619576
  20
64.668945
  0
VERTEX
  5
113
  8
Layer_0
  10
96.191093
  20
52.379364
  0
VERTEX
  5
114
  8
Layer_0
  10
110.25327
  20
52.379364
  0
VERTEX
  5
115
  8
Layer_0
  10
96.00988
  20
75.722382
  0
VERTEX
  5
116
  8
Layer_0
  10
110.32102
  20
99.654572
  0
VERTEX
  5
117
  8
Layer_0
  10
110.32102
  20
102.37936
  0
VERTEX
  5
118
  8
Layer_0
  10
96.545311
  20
102.37936
  0
VERTEX
  5
119
  8
Layer_0
  10
96.545311
  20
99.654572
  0
VERTEX
  5
11a
  8
Layer_0
  10
96.564232
  20
99.654572
  0
VERTEX
  5
11b
  8
Layer_0
  10
88.619576
  20
86.745209
  0
VERTEX
  5
11c
  8
Layer_0
  10
80.67495
  20
99.654572
  0
VERTEX
  5
11d
  8
Layer_0
  10
80.668526
  20
99.654572
  0
VERTEX
  5
11e
  8
Layer_0
  10
80.668526
  20
102.37936
  0
VERTEX
  5
11f
  8
Layer_0
  10
66.910332
  20
102.37936
  0
VERTEX
  5
120
  8
Layer_0
  10
66.910332
  20
99.654572
  0
VERTEX
  5
121
  8
Layer_0
  10
66.918159
  20
99.654572
  0
SEQEND
  0
POLYLINE
  5
123
  8
Layer_0
  62
0
  70
1
  66
1
  10
0
  20
0
  30
0
  0
VERTEX
  5
123
  8
Layer_0
  10
17.799511
  20
99.654572
  0
VERTEX
  5
124
  8
Layer_0
  10
32.110603
  20
75.722382
  0
VERTEX
  5
125
  8
Layer_0
  10
17.867191
  20
52.379364
  0
VERTEX
  5
126
  8
Layer_0
  10
31.929401
  20
52.379364
  0
VERTEX
  5
127
  8
Layer_0
  10
39.500908
  20
64.668945
  0
VERTEX
  5
128
  8
Layer_0
  10
47.072422
  20
52.379364
  0
VERTEX
  5
129
  8
Layer_0
  10
61.134621
  20
52.379364
  0
VERTEX
  5
12a
  8
Layer_0
  10
46.891228
  20
75.722382
  0
VERTEX
  5
12b
  8
Layer_0
  10
61.202339
  20
99.654572
  0
VERTEX
  5
12c
  8
Layer_0
  10
61.202339
  20
102.37936
  0
VERTEX
  5
12d
  8
Layer_0
  10
47.426662
  20
102.37936
  0
VERTEX
  5
12e
  8
Layer_0
  10
47.426662
  20
99.654572
  0
VERTEX
  5
12f
  8
Layer_0
  10
47.445568
  20
99.654572
  0
VERTEX
  5
130
  8
Layer_0
  10
39.500908
  20
86.745209
  0
VERTEX
  5
131
  8
Layer_0
  10
31.556286
  20
99.654572
  0
VERTEX
  5
132
  8
Layer_0
  10
31.549877
  20
99.654572
  0
VERTEX
  5
133
  8
Layer_0
  10
31.549877
  20
102.37936
  0
VERTEX
  5
134
  8
Layer_0
  10
17.791668
  20
102.37936
  0
VERTEX
  5
135
  8
Layer_0
  10
17.791668
  20
99.654572
  0
VERTEX
  5
136
  8
Layer_0
  10
17.799511
  20
99.654572
  0
SEQEND
  0
POLYLINE
  5
138
  8
Layer_0
  62
0
  70
1
  66
1
  10
0
  20
0
  30
0
  0
VERTEX
  5
138
  8
Layer_0
  10
10.957878
  20
-22.211456
  0
VERTEX
  5
139
  8
Layer_0
  10
10.932442
  20
-26.967285
  0
VERTEX
  5
13a
  8
Layer_0
  10
12.932442
  20
-26.9673
  0
VERTEX
  5
13b
  8
Layer_0
  10
12.932404
  20
-29.967316
  0
VERTEX
  5
13c
  8
Layer_0
  10
10.932404
  20
-29.9673
  0
VERTEX
  5
13d
  8
Layer_0
  10
10.931976
  20
-72.055939
  0
VERTEX
  5
13e
  8
Layer_0
  10
12.931976
  20
-72.055954
  0
VERTEX
  5
13f
  8
Layer_0
  10
12.931946
  20
-75.055984
  0
VERTEX
  5
140
  8
Layer_0
  10
10.931946
  20
-75.055969
  0
VERTEX
  5
141
  8
Layer_0
  10
10.931862
  20
-82.568268
  0
VERTEX
  5
142
  8
Layer_0
  10
50.931854
  20
-82.520477
  0
VERTEX
  5
143
  8
Layer_0
  10
50.931931
  20
-75.056396
  0
VERTEX
  5
144
  8
Layer_0
  10
52.931931
  20
-75.056427
  0
VERTEX
  5
145
  8
Layer_0
  10
52.931961
  20
-72.056396
  0
VERTEX
  5
146
  8
Layer_0
  10
50.931961
  20
-72.056366
  0
VERTEX
  5
147
  8
Layer_0
  10
50.932388
  20
-29.967743
  0
VERTEX
  5
148
  8
Layer_0
  10
52.932404
  20
-29.967758
  0
VERTEX
  5
149
  8
Layer_0
  10
52.932434
  20
-26.967743
  0
VERTEX
  5
14a
  8
Layer_0
  10
50.932419
  20
-26.967712
  0
VERTEX
  5
14b
  8
Layer_0
  10
50.869186
  20
-22.287842
  0
VERTEX
  5
14c
  8
Layer_0
  10
10.957878
  20
-22.211456
  0
SEQEND
  0
POLYLINE
  5
14e
  8
Layer_0
  62
0
  70
1
  66
1
  10
0
  20
0
  30
0
  0
VERTEX
  5
14e
  8
Layer_0
  10
51.940598
  20
-20.740784
  0
VERTEX
  5
14f
  8
Layer_0
  10
51.923752
  20
-14.205048
  0
VERTEX
  5
150
  8
Layer_0
  10
49.923752
  20
-14.205048
  0
VERTEX
  5
151
  8
Layer_0
  10
49.923752
  20
-11.205078
  0
VERTEX
  5
152
  8
Layer_0
  10
51.923752
  20
-11.205078
  0
VERTEX
  5
153
  8
Layer_0
  10
51.923729
  20
30.883575
  0
VERTEX
  5
154
  8
Layer_0
  10
49.923729
  20
30.883575
  0
VERTEX
  5
155
  8
Layer_0
  10
49.923729
  20
33.883636
  0
VERTEX
  5
156
  8
Layer_0
  10
51.923729
  20
33.883636
  0
VERTEX
  5
157
  8
Layer_0
  10
51.940575
  20
39.486145
  0
VERTEX
  5
158
  8
Layer_0
  10
11.923737
  20
39.96106
  0
VERTEX
  5
159
  8
Layer_0
  10
11.923737
  20
33.883636
  0
VERTEX
  5
15a
  8
Layer_0
  10
9.9237366
  20
33.883636
  0
VERTEX
  5
15b
  8
Layer_0
  10
9.9237366
  20
30.883575
  0
VERTEX
  5
15c
  8
Layer_0
  10
11.923737
  20
30.883575
  0
VERTEX
  5
15d
  8
Layer_0
  10
11.923767
  20
-11.205078
  0
VERTEX
  5
15e
  8
Layer_0
  10
9.9237518
  20
-11.205078
  0
VERTEX
  5
15f
  8
Layer_0
  10
9.9237518
  20
-14.205048
  0
VERTEX
  5
160
  8
Layer_0
  10
11.923767
  20
-14.205048
  0
VERTEX
  5
161
  8
Layer_0
  10
11.944641
  20
-20.726913
  0
VERTEX
  5
162
  8
Layer_0
  10
51.940598
  20
-20.740784
  0
SEQEND
  0
POLYLINE
  5
164
  8
Layer_0
  62
0
  70
1
  66
1
  10
0
  20
0
  30
0
  0
VERTEX
  5
164
  8
Layer_0
  10
77.164543
  20
-182.42377
  0
VERTEX
  5
165
  8
Layer_0
  10
77.164543
  20
-196.19946
  0
VERTEX
  5
166
  8
Layer_0
  10
75.664558
  20
-196.19946
  0
VERTEX
  5
167
  8
Layer_0
  10
75.664558
  20
-182.42377
  0
VERTEX
  5
168
  8
Layer_0
  10
77.164543
  20
-182.42377
  0
SEQEND
  0
POLYLINE
  5
16a
  8
Layer_0
  62
0
  70
1
  66
1
  10
0
  20
0
  30
0
  0
VERTEX
  5
16a
  8
Layer_0
  10
208.44574
  20
-168.78613
  0
VERTEX
  5
16b
  8
Layer_0
  10
208.44574
  20
-155.01047
  0
VERTEX
  5
16c
  8
Layer_0
  10
206.94574
  20
-155.01047
  0
VERTEX
  5
16d
  8
Layer_0
  10
206.94574
  20
-168.78613
  0
VERTEX
  5
16e
  8
Layer_0
  10
208.44574
  20
-168.78613
  0
SEQEND
  0
POLYLINE
  5
170
  8
Layer_0
  62
0
  70
1
  66
1
  10
0
  20
0
  30
0
  0
VERTEX
  5
170
  8
Layer_0
  10
164.68539
  20
-166.56439
  0
VERTEX
  5
171
  8
Layer_0
  10
164.68539
  20
-152.7887
  0
VERTEX
  5
172
  8
Layer_0
  10
163.18539
  20
-152.7887
  0
VERTEX
  5
173
  8
Layer_0
  10
163.18539
  20
-166.56439
  0
VERTEX
  5
174
  8
Layer_0
  10
164.68539
  20
-166.56439
  0
SEQEND
  0
POLYLINE
  5
176
  8
Layer_0
  62
0
  70
1
  66
1
  10
0
  20
0
  30
0
  0
VERTEX
  5
176
  8
Layer_0
  10
164.68539
  20
-196.1994
  0
VERTEX
  5
177
  8
Layer_0
  10
164.68539
  20
-182.42371
  0
VERTEX
  5
178
  8
Layer_0
  10
163.18539
  20
-182.42371
  0
VERTEX
  5
179
  8
Layer_0
  10
163.18539
  20
-196.1994
  0
VERTEX
  5
17a
  8
Layer_0
  10
164.68539
  20
-196.1994
  0
SEQEND
  0
POLYLINE
  5
17c
  8
Layer_0
  62
0
  70
1
  66
1
  10
0
  20
0
  30
0
  0
VERTEX
  5
17c
  8
Layer_0
  10
33.404205
  20
-155.01041
  0
VERTEX
  5
17d
  8
Layer_0
  10
33.404205
  20
-168.78607
  0
VERTEX
  5
17e
  8
Layer_0
  10
31.904205
  20
-168.78607
  0
VERTEX
  5
17f
  8
Layer_0
  10
31.904205
  20
-155.01041
  0
VERTEX
  5
180
  8
Layer_0
  10
33.404205
  20
-155.01041
  0
SEQEND
  0
POLYLINE
  5
182
  8
Layer_0
  62
0
  70
1
  66
1
  10
0
  20
0
  30
0
  0
VERTEX
  5
182
  8
Layer_0
  10
33.404205
  20
-125.37543
  0
VERTEX
  5
183
  8
Layer_0
  10
33.404205
  20
-139.15106
  0
VERTEX
  5
184
  8
Layer_0
  10
31.904205
  20
-139.15106
  0
VERTEX
  5
185
  8
Layer_0
  10
31.904205
  20
-125.37543
  0
VERTEX
  5
186
  8
Layer_0
  10
33.404205
  20
-125.37543
  0
SEQEND
  0
POLYLINE
  5
188
  8
Layer_0
  62
0
  70
1
  66
1
  10
0
  20
0
  30
0
  0
VERTEX
  5
188
  8
Layer_0
  10
55.284378
  20
-171.073
  0
VERTEX
  5
189
  8
Layer_0
  10
55.284378
  20
-184.849
  0
VERTEX
  5
18a
  8
Layer_0
  10
53.784378
  20
-184.849
  0
VERTEX
  5
18b
  8
Layer_0
  10
53.784378
  20
-171.073
  0
VERTEX
  5
18c
  8
Layer_0
  10
55.284378
  20
-171.073
  0
SEQEND
  0
POLYLINE
  5
18e
  8
Layer_0
  62
0
  70
1
  66
1
  10
0
  20
0
  30
0
  0
VERTEX
  5
18e
  8
Layer_0
  10
55.284378
  20
-141.43817
  0
VERTEX
  5
18f
  8
Layer_0
  10
55.284378
  20
-155.21384
  0
VERTEX
  5
190
  8
Layer_0
  10
53.784378
  20
-155.21384
  0
VERTEX
  5
191
  8
Layer_0
  10
53.784378
  20
-141.43817
  0
VERTEX
  5
192
  8
Layer_0
  10
55.284378
  20
-141.43817
  0
SEQEND
  0
POLYLINE
  5
194
  8
Layer_0
  62
0
  70
1
  66
1
  10
0
  20
0
  30
0
  0
VERTEX
  5
194
  8
Layer_0
  10
77.164543
  20
-152.7887
  0
VERTEX
  5
195
  8
Layer_0
  10
77.164543
  20
-166.56439
  0
VERTEX
  5
196
  8
Layer_0
  10
75.664558
  20
-166.56439
  0
VERTEX
  5
197
  8
Layer_0
  10
75.664558
  20
-152.7887
  0
VERTEX
  5
198
  8
Layer_0
  10
77.164543
  20
-152.7887
  0
SEQEND
  0
POLYLINE
  5
19a
  8
Layer_0
  62
0
  70
1
  66
1
  10
0
  20
0
  30
0
  0
VERTEX
  5
19a
  8
Layer_0
  10
99.044746
  20
-198.48648
  0
VERTEX
  5
19b
  8
Layer_0
  10
99.044746
  20
-212.26218
  0
VERTEX
  5
19c
  8
Layer_0
  10
97.544746
  20
-212.26218
  0
VERTEX
  5
19d
  8
Layer_0
  10
97.544746
  20
-198.48648
  0
VERTEX
  5
19e
  8
Layer_0
  10
99.044746
  20
-198.48648
  0
SEQEND
  0
POLYLINE
  5
1a0
  8
Layer_0
  62
0
  70
1
  66
1
  10
0
  20
0
  30
0
  0
VERTEX
  5
1a0
  8
Layer_0
  10
99.044746
  20
-168.8515
  0
VERTEX
  5
1a1
  8
Layer_0
  10
99.044746
  20
-182.62714
  0
VERTEX
  5
1a2
  8
Layer_0
  10
97.544746
  20
-182.62714
  0
VERTEX
  5
1a3
  8
Layer_0
  10
97.544746
  20
-168.8515
  0
VERTEX
  5
1a4
  8
Layer_0
  10
99.044746
  20
-168.8515
  0
SEQEND
  0
POLYLINE
  5
1a6
  8
Layer_0
  62
0
  70
1
  66
1
  10
0
  20
0
  30
0
  0
VERTEX
  5
1a6
  8
Layer_0
  10
142.80515
  20
-182.62714
  0
VERTEX
  5
1a7
  8
Layer_0
  10
142.80515
  20
-168.8515
  0
VERTEX
  5
1a8
  8
Layer_0
  10
141.30515
  20
-168.8515
  0
VERTEX
  5
1a9
  8
Layer_0
  10
141.30515
  20
-182.62714
  0
VERTEX
  5
1aa
  8
Layer_0
  10
142.80515
  20
-182.62714
  0
SEQEND
  0
POLYLINE
  5
1ac
  8
Layer_0
  62
0
  70
1
  66
1
  10
0
  20
0
  30
0
  0
VERTEX
  5
1ac
  8
Layer_0
  10
142.80515
  20
-212.26218
  0
VERTEX
  5
1ad
  8
Layer_0
  10
142.80515
  20
-198.48648
  0
VERTEX
  5
1ae
  8
Layer_0
  10
141.30515
  20
-198.48648
  0
VERTEX
  5
1af
  8
Layer_0
  10
141.30515
  20
-212.26218
  0
VERTEX
  5
1b0
  8
Layer_0
  10
142.80515
  20
-212.26218
  0
SEQEND
  0
POLYLINE
  5
1b2
  8
Layer_0
  62
0
  70
1
  66
1
  10
0
  20
0
  30
0
  0
VERTEX
  5
1b2
  8
Layer_0
  10
186.56557
  20
-155.21384
  0
VERTEX
  5
1b3
  8
Layer_0
  10
186.56557
  20
-141.43817
  0
VERTEX
  5
1b4
  8
Layer_0
  10
185.06555
  20
-141.43817
  0
VERTEX
  5
1b5
  8
Layer_0
  10
185.06555
  20
-155.21384
  0
VERTEX
  5
1b6
  8
Layer_0
  10
186.56557
  20
-155.21384
  0
SEQEND
  0
POLYLINE
  5
1b8
  8
Layer_0
  62
0
  70
1
  66
1
  10
0
  20
0
  30
0
  0
VERTEX
  5
1b8
  8
Layer_0
  10
186.56557
  20
-184.84885
  0
VERTEX
  5
1b9
  8
Layer_0
  10
186.56557
  20
-171.07318
  0
VERTEX
  5
1ba
  8
Layer_0
  10
185.06555
  20
-171.07318
  0
VERTEX
  5
1bb
  8
Layer_0
  10
185.06555
  20
-184.84885
  0
VERTEX
  5
1bc
  8
Layer_0
  10
186.56557
  20
-184.84885
  0
SEQEND
  0
POLYLINE
  5
1be
  8
Layer_0
  62
0
  70
1
  66
1
  10
0
  20
0
  30
0
  0
VERTEX
  5
1be
  8
Layer_0
  10
208.44574
  20
-139.15106
  0
VERTEX
  5
1bf
  8
Layer_0
  10
208.44574
  20
-125.37543
  0
VERTEX
  5
1c0
  8
Layer_0
  10
206.94574
  20
-125.37543
  0
VERTEX
  5
1c1
  8
Layer_0
  10
206.94574
  20
-139.15106
  0
VERTEX
  5
1c2
  8
Layer_0
  10
208.44574
  20
-139.15106
  0
SEQEND
  0
POLYLINE
  5
1c4
  8
Layer_0
  62
0
  70
1
  66
1
  10
0
  20
0
  30
0
  0
VERTEX
  5
1c4
  8
Layer_0
  10
120.12572
  20
-234.08075
  0
VERTEX
  5
1c5
  8
Layer_0
  10
122.68958
  20
-232.52289
  0
VERTEX
  5
1c6
  8
Layer_0
  10
121.69601
  20
-230.8877
  0
VERTEX
  5
1c7
  8
Layer_0
  10
171.64772
  20
-200.43967
  0
VERTEX
  5
1c8
  8
Layer_0
  10
172.68401
  20
-202.14517
  0
VERTEX
  5
1c9
  8
Layer_0
  10
175.24782
  20
-200.58734
  0
VERTEX
  5
1ca
  8
Layer_0
  10
174.20932
  20
-198.8783
  0
VERTEX
  5
1cb
  8
Layer_0
  10
225.77612
  20
-167.44577
  0
VERTEX
  5
1cc
  8
Layer_0
  10
225.77612
  20
-160.0329
  0
VERTEX
  5
1cd
  8
Layer_0
  10
227.77612
  20
-160.0329
  0
VERTEX
  5
1ce
  8
Layer_0
  10
227.77612
  20
-157.0329
  0
VERTEX
  5
1cf
  8
Layer_0
  10
225.77612
  20
-157.0329
  0
VERTEX
  5
1d0
  8
Layer_0
  10
225.77612
  20
-114.94421
  0
VERTEX
  5
1d1
  8
Layer_0
  10
227.77612
  20
-114.94421
  0
VERTEX
  5
1d2
  8
Layer_0
  10
227.77612
  20
-111.94424
  0
VERTEX
  5
1d3
  8
Layer_0
  10
225.77612
  20
-111.94424
  0
VERTEX
  5
1d4
  8
Layer_0
  10
225.77612
  20
-107.16016
  0
VERTEX
  5
1d5
  8
Layer_0
  10
225.28148
  20
-107.3537
  0
VERTEX
  5
1d6
  8
Layer_0
  10
175.30692
  20
-137.84711
  0
VERTEX
  5
1d7
  8
Layer_0
  10
174.27588
  20
-136.1503
  0
VERTEX
  5
1d8
  8
Layer_0
  10
171.71208
  20
-137.70816
  0
VERTEX
  5
1d9
  8
Layer_0
  10
172.746
  20
-139.40976
  0
VERTEX
  5
1da
  8
Layer_0
  10
122.66859
  20
-169.96591
  0
VERTEX
  5
1db
  8
Layer_0
  10
121.71764
  20
-168.40088
  0
VERTEX
  5
1dc
  8
Layer_0
  10
120.05009
  20
-169.41412
  0
VERTEX
  5
1dd
  8
Layer_0
  10
118.38258
  20
-168.40088
  0
VERTEX
  5
1de
  8
Layer_0
  10
117.45753
  20
-169.92331
  0
VERTEX
  5
1df
  8
Layer_0
  10
67.363373
  20
-139.35699
  0
VERTEX
  5
1e0
  8
Layer_0
  10
68.388153
  20
-137.67038
  0
VERTEX
  5
1e1
  8
Layer_0
  10
65.824341
  20
-136.11252
  0
VERTEX
  5
1e2
  8
Layer_0
  10
64.802444
  20
-137.79434
  0
VERTEX
  5
1e3
  8
Layer_0
  10
14.844604
  20
-107.31113
  0
VERTEX
  5
1e4
  8
Layer_0
  10
14.573837
  20
-107.31189
  0
VERTEX
  5
1e5
  8
Layer_0
  10
14.573837
  20
-112.88531
  0
VERTEX
  5
1e6
  8
Layer_0
  10
12.573837
  20
-112.88531
  0
VERTEX
  5
1e7
  8
Layer_0
  10
12.573837
  20
-115.88531
  0
VERTEX
  5
1e8
  8
Layer_0
  10
14.573837
  20
-115.88531
  0
VERTEX
  5
1e9
  8
Layer_0
  10
14.573837
  20
-157.97397
  0
VERTEX
  5
1ea
  8
Layer_0
  10
12.573837
  20
-157.97397
  0
VERTEX
  5
1eb
  8
Layer_0
  10
12.573837
  20
-160.974
  0
VERTEX
  5
1ec
  8
Layer_0
  10
14.573837
  20
-160.974
  0
VERTEX
  5
1ed
  8
Layer_0
  10
14.573837
  20
-167.53882
  0
VERTEX
  5
1ee
  8
Layer_0
  10
65.962784
  20
-198.81036
  0
VERTEX
  5
1ef
  8
Layer_0
  10
64.929169
  20
-200.51138
  0
VERTEX
  5
1f0
  8
Layer_0
  10
67.493027
  20
-202.06921
  0
VERTEX
  5
1f1
  8
Layer_0
  10
68.525558
  20
-200.36987
  0
VERTEX
  5
1f2
  8
Layer_0
  10
118.49992
  20
-230.78067
  0
VERTEX
  5
1f3
  8
Layer_0
  10
117.48745
  20
-232.44696
  0
VERTEX
  5
1f4
  8
Layer_0
  10
120.05125
  20
-234.00479
  0
VERTEX
  5
1f5
  8
Layer_0
  10
120.06544
  20
-233.98145
  0
VERTEX
  5
1f6
  8
Layer_0
  10
120.12572
  20
-234.08075
  0
SEQEND
  0
POLYLINE
  5
1f8
  8
Layer_0
  62
0
  70
1
  66
1
  10
0
  20
0
  30
0
  0
VERTEX
  5
1f8
  8
Layer_0
  10
120.01841
  20
-171.48593
  0
VERTEX
  5
1f9
  8
Layer_0
  10
120.05009
  20
-171.43378
  0
VERTEX
  5
1fa
  8
Layer_0
  10
120.10767
  20
-171.52853
  0
VERTEX
  5
1fb
  8
Layer_0
  10
120.09795
  20
-171.53442
  0
VERTEX
  5
1fc
  8
Layer_0
  10
120.01841
  20
-171.48593
  0
SEQEND
  0
POLYLINE
  5
1fe
  8
Layer_0
  62
0
  70
1
  66
1
  10
0
  20
0
  30
0
  0
VERTEX
  5
1fe
  8
Layer_0
  10
139.65741
  20
39.671249
  0
VERTEX
  5
1ff
  8
Layer_0
  10
101.6837
  20
39.493118
  0
VERTEX
  5
200
  8
Layer_0
  10
99.625618
  20
39.425034
  0
VERTEX
  5
201
  8
Layer_0
  10
99.69767
  20
36.507248
  0
VERTEX
  5
202
  8
Layer_0
  10
99.959793
  20
-21.992157
  0
VERTEX
  5
203
  8
Layer_0
  10
101.97208
  20
-21.982727
  0
VERTEX
  5
204
  8
Layer_0
  10
101.98616
  20
-24.982681
  0
VERTEX
  5
205
  8
Layer_0
  10
99.973228
  20
-24.992126
  0
VERTEX
  5
206
  8
Layer_0
  10
100.23545
  20
-83.51506
  0
VERTEX
  5
207
  8
Layer_0
  10
102.2607
  20
-83.505554
  0
VERTEX
  5
208
  8
Layer_0
  10
102.27477
  20
-86.505524
  0
VERTEX
  5
209
  8
Layer_0
  10
106.90125
  20
-86.483826
  0
VERTEX
  5
20a
  8
Layer_0
  10
106.91064
  20
-88.483826
  0
VERTEX
  5
20b
  8
Layer_0
  10
109.91061
  20
-88.469757
  0
VERTEX
  5
20c
  8
Layer_0
  10
109.90124
  20
-86.469757
  0
VERTEX
  5
20d
  8
Layer_0
  10
131.69739
  20
-86.367493
  0
VERTEX
  5
20e
  8
Layer_0
  10
131.70676
  20
-88.367493
  0
VERTEX
  5
20f
  8
Layer_0
  10
134.70676
  20
-88.353455
  0
VERTEX
  5
210
  8
Layer_0
  10
134.69737
  20
-86.353455
  0
VERTEX
  5
211
  8
Layer_0
  10
140.24899
  20
-86.321472
  0
VERTEX
  5
212
  8
Layer_0
  10
140.23277
  20
-84.540619
  0
VERTEX
  5
213
  8
Layer_0
  10
142.2388
  20
-84.53212
  0
VERTEX
  5
214
  8
Layer_0
  10
142.23439
  20
-83.318039
  0
VERTEX
  5
215
  8
Layer_0
  10
140.23441
  20
-83.327423
  0
VERTEX
  5
216
  8
Layer_0
  10
139.95987
  20
-24.804581
  0
VERTEX
  5
217
  8
Layer_0
  10
141.95985
  20
-24.795197
  0
VERTEX
  5
218
  8
Layer_0
  10
141.94579
  20
-21.795197
  0
VERTEX
  5
219
  8
Layer_0
  10
139.9458
  20
-21.804581
  0
VERTEX
  5
21a
  8
Layer_0
  10
139.67137
  20
36.694763
  0
VERTEX
  5
21b
  8
Layer_0
  10
141.67136
  20
36.704147
  0
VERTEX
  5
21c
  8
Layer_0
  10
141.65729
  20
39.704147
  0
VERTEX
  5
21d
  8
Layer_0
  10
139.6573
  20
39.694763
  0
VERTEX
  5
21e
  8
Layer_0
  10
139.65741
  20
39.671249
  0
SEQEND
  0
POLYLINE
  5
220
  8
Layer_0
  62
0
  70
1
  66
1
  10
0
  20
0
  30
0
  0
VERTEX
  5
220
  8
Layer_0
  10
9.5738068
  20
-170.95557
  0
VERTEX
  5
221
  8
Layer_0
  10
120.098
  20
-238.39505
  0
VERTEX
  5
222
  8
Layer_0
  10
230.77617
  20
-170.86154
  0
VERTEX
  5
223
  8
Layer_0
  10
230.77617
  20
-242.97171
  0
VERTEX
  5
224
  8
Layer_0
  10
120.18964
  20
-310.37946
  0
VERTEX
  5
225
  8
Layer_0
  10
9.5738068
  20
-243.06696
  0
VERTEX
  5
226
  8
Layer_0
  10
9.5738068
  20
-170.95557
  0
SEQEND
  0
POLYLINE
  5
228
  8
Layer_0
  62
0
  70
1
  66
1
  10
0
  20
0
  30
0
  0
VERTEX
  5
228
  8
Layer_0
  10
226.84465
  20
-232.75079
  0
VERTEX
  5
229
  8
Layer_0
  10
226.84465
  20
-229.75076
  0
VERTEX
  5
22a
  8
Layer_0
  10
228.84465
  20
-229.75076
  0
VERTEX
  5
22b
  8
Layer_0
  10
228.84465
  20
-232.75079
  0
VERTEX
  5
22c
  8
Layer_0
  10
226.84465
  20
-232.75079
  0
SEQEND
  0
POLYLINE
  5
22e
  8
Layer_0
  62
0
  70
1
  66
1
  10
0
  20
0
  30
0
  0
VERTEX
  5
22e
  8
Layer_0
  10
226.84465
  20
-187.66211
  0
VERTEX
  5
22f
  8
Layer_0
  10
226.84465
  20
-184.66211
  0
VERTEX
  5
230
  8
Layer_0
  10
228.84465
  20
-184.66211
  0
VERTEX
  5
231
  8
Layer_0
  10
228.84465
  20
-187.66211
  0
VERTEX
  5
232
  8
Layer_0
  10
226.84465
  20
-187.66211
  0
SEQEND
  0
POLYLINE
  5
234
  8
Layer_0
  62
0
  70
1
  66
1
  10
0
  20
0
  30
0
  0
VERTEX
  5
234
  8
Layer_0
  10
171.70836
  20
-209.26587
  0
VERTEX
  5
235
  8
Layer_0
  10
174.27217
  20
-207.70807
  0
VERTEX
  5
236
  8
Layer_0
  10
175.31071
  20
-209.41727
  0
VERTEX
  5
237
  8
Layer_0
  10
172.7469
  20
-210.9751
  0
VERTEX
  5
238
  8
Layer_0
  10
171.70836
  20
-209.26587
  0
SEQEND
  0
POLYLINE
  5
23a
  8
Layer_0
  62
0
  70
1
  66
1
  10
0
  20
0
  30
0
  0
VERTEX
  5
23a
  8
Layer_0
  10
119.15008
  20
-241.20145
  0
VERTEX
  5
23b
  8
Layer_0
  10
121.7139
  20
-239.64362
  0
VERTEX
  5
23c
  8
Layer_0
  10
122.75247
  20
-241.35281
  0
VERTEX
  5
23d
  8
Layer_0
  10
120.18866
  20
-242.91064
  0
VERTEX
  5
23e
  8
Layer_0
  10
119.15008
  20
-241.20145
  0
SEQEND
  0
POLYLINE
  5
240
  8
Layer_0
  62
0
  70
1
  66
1
  10
0
  20
0
  30
0
  0
VERTEX
  5
240
  8
Layer_0
  10
224.28668
  20
-177.31815
  0
VERTEX
  5
241
  8
Layer_0
  10
226.85049
  20
-175.76028
  0
VERTEX
  5
242
  8
Layer_0
  10
227.88905
  20
-177.46954
  0
VERTEX
  5
243
  8
Layer_0
  10
225.32523
  20
-179.02734
  0
VERTEX
  5
244
  8
Layer_0
  10
224.28668
  20
-177.31815
  0
SEQEND
  0
POLYLINE
  5
246
  8
Layer_0
  62
0
  70
1
  66
1
  10
0
  20
0
  30
0
  0
VERTEX
  5
246
  8
Layer_0
  10
172.16168
  20
-273.91827
  0
VERTEX
  5
247
  8
Layer_0
  10
174.72552
  20
-272.36041
  0
VERTEX
  5
248
  8
Layer_0
  10
175.76407
  20
-274.06964
  0
VERTEX
  5
249
  8
Layer_0
  10
173.20026
  20
-275.62747
  0
VERTEX
  5
24a
  8
Layer_0
  10
172.16168
  20
-273.91827
  0
SEQEND
  0
POLYLINE
  5
24c
  8
Layer_0
  62
0
  70
1
  66
1
  10
0
  20
0
  30
0
  0
VERTEX
  5
24c
  8
Layer_0
  10
119.60343
  20
-305.85382
  0
VERTEX
  5
24d
  8
Layer_0
  10
122.16724
  20
-304.29599
  0
VERTEX
  5
24e
  8
Layer_0
  10
123.20583
  20
-306.00519
  0
VERTEX
  5
24f
  8
Layer_0
  10
120.64201
  20
-307.56302
  0
VERTEX
  5
250
  8
Layer_0
  10
119.60343
  20
-305.85382
  0
SEQEND
  0
POLYLINE
  5
252
  8
Layer_0
  62
0
  70
1
  66
1
  10
0
  20
0
  30
0
  0
VERTEX
  5
252
  8
Layer_0
  10
224.74004
  20
-241.97049
  0
VERTEX
  5
253
  8
Layer_0
  10
227.30385
  20
-240.41266
  0
VERTEX
  5
254
  8
Layer_0
  10
228.34238
  20
-242.12189
  0
VERTEX
  5
255
  8
Layer_0
  10
225.77856
  20
-243.67969
  0
VERTEX
  5
256
  8
Layer_0
  10
224.74004
  20
-241.97049
  0
SEQEND
  0
POLYLINE
  5
258
  8
Layer_0
  62
0
  70
1
  66
1
  10
0
  20
0
  30
0
  0
VERTEX
  5
258
  8
Layer_0
  10
13.505447
  20
-232.84476
  0
VERTEX
  5
259
  8
Layer_0
  10
13.505447
  20
-229.84479
  0
VERTEX
  5
25a
  8
Layer_0
  10
11.505447
  20
-229.84479
  0
VERTEX
  5
25b
  8
Layer_0
  10
11.505447
  20
-232.84476
  0
VERTEX
  5
25c
  8
Layer_0
  10
13.505447
  20
-232.84476
  0
SEQEND
  0
POLYLINE
  5
25e
  8
Layer_0
  62
0
  70
1
  66
1
  10
0
  20
0
  30
0
  0
VERTEX
  5
25e
  8
Layer_0
  10
13.505447
  20
-187.7561
  0
VERTEX
  5
25f
  8
Layer_0
  10
13.505447
  20
-184.7561
  0
VERTEX
  5
260
  8
Layer_0
  10
11.505447
  20
-184.7561
  0
VERTEX
  5
261
  8
Layer_0
  10
11.505447
  20
-187.7561
  0
VERTEX
  5
262
  8
Layer_0
  10
13.505447
  20
-187.7561
  0
SEQEND
  0
POLYLINE
  5
264
  8
Layer_0
  62
0
  70
1
  66
1
  10
0
  20
0
  30
0
  0
VERTEX
  5
264
  8
Layer_0
  10
68.641769
  20
-209.35989
  0
VERTEX
  5
265
  8
Layer_0
  10
66.077911
  20
-207.80206
  0
VERTEX
  5
266
  8
Layer_0
  10
65.039383
  20
-209.51129
  0
VERTEX
  5
267
  8
Layer_0
  10
67.603195
  20
-211.06909
  0
VERTEX
  5
268
  8
Layer_0
  10
68.641769
  20
-209.35989
  0
SEQEND
  0
POLYLINE
  5
26a
  8
Layer_0
  62
0
  70
1
  66
1
  10
0
  20
0
  30
0
  0
VERTEX
  5
26a
  8
Layer_0
  10
121.20001
  20
-241.29547
  0
VERTEX
  5
26b
  8
Layer_0
  10
118.63619
  20
-239.73761
  0
VERTEX
  5
26c
  8
Layer_0
  10
117.59761
  20
-241.44684
  0
VERTEX
  5
26d
  8
Layer_0
  10
120.16142
  20
-243.00467
  0
VERTEX
  5
26e
  8
Layer_0
  10
121.20001
  20
-241.29547
  0
SEQEND
  0
POLYLINE
  5
270
  8
Layer_0
  62
0
  70
1
  66
1
  10
0
  20
0
  30
0
  0
VERTEX
  5
270
  8
Layer_0
  10
16.063416
  20
-177.41211
  0
VERTEX
  5
271
  8
Layer_0
  10
13.499603
  20
-175.85431
  0
VERTEX
  5
272
  8
Layer_0
  10
12.46106
  20
-177.56348
  0
VERTEX
  5
273
  8
Layer_0
  10
15.024872
  20
-179.12134
  0
VERTEX
  5
274
  8
Layer_0
  10
16.063416
  20
-177.41211
  0
SEQEND
  0
POLYLINE
  5
276
  8
Layer_0
  62
0
  70
1
  66
1
  10
0
  20
0
  30
0
  0
VERTEX
  5
276
  8
Layer_0
  10
65.624588
  20
-272.45441
  0
VERTEX
  5
277
  8
Layer_0
  10
64.585999
  20
-274.16364
  0
VERTEX
  5
278
  8
Layer_0
  10
67.149811
  20
-275.72144
  0
VERTEX
  5
279
  8
Layer_0
  10
68.1884
  20
-274.01224
  0
VERTEX
  5
27a
  8
Layer_0
  10
65.624588
  20
-272.45441
  0
SEQEND
  0
POLYLINE
  5
27c
  8
Layer_0
  62
0
  70
1
  66
1
  10
0
  20
0
  30
0
  0
VERTEX
  5
27c
  8
Layer_0
  10
120.74665
  20
-305.94781
  0
VERTEX
  5
27d
  8
Layer_0
  10
118.18284
  20
-304.38995
  0
VERTEX
  5
27e
  8
Layer_0
  10
117.14426
  20
-306.09918
  0
VERTEX
  5
27f
  8
Layer_0
  10
119.70811
  20
-307.65701
  0
VERTEX
  5
280
  8
Layer_0
  10
120.74665
  20
-305.94781
  0
SEQEND
  0
POLYLINE
  5
282
  8
Layer_0
  62
0
  70
1
  66
1
  10
0
  20
0
  30
0
  0
VERTEX
  5
282
  8
Layer_0
  10
13.046249
  20
-240.50665
  0
VERTEX
  5
283
  8
Layer_0
  10
12.007706
  20
-242.21582
  0
VERTEX
  5
284
  8
Layer_0
  10
14.571518
  20
-243.77368
  0
VERTEX
  5
285
  8
Layer_0
  10
15.610062
  20
-242.06445
  0
VERTEX
  5
286
  8
Layer_0
  10
13.046249
  20
-240.50665
  0
SEQEND
  0
POLYLINE
  5
288
  8
Layer_0
  62
0
  70
1
  66
1
  10
0
  20
0
  30
0
  0
VERTEX
  5
288
  8
Layer_0
  10
56.25679
  20
40.277328
  0
VERTEX
  5
289
  8
Layer_0
  10
56.219879
  20
38.616104
  0
VERTEX
  5
28a
  8
Layer_0
  10
56.199051
  20
37.124268
  0
VERTEX
  5
28b
  8
Layer_0
  10
56.187149
  20
34.124313
  0
VERTEX
  5
28c
  8
Layer_0
  10
54.187119
  20
34.132248
  0
VERTEX
  5
28d
  8
Layer_0
  10
53.954865
  20
-24.367264
  0
VERTEX
  5
28e
  8
Layer_0
  10
55.954895
  20
-24.375214
  0
VERTEX
  5
28f
  8
Layer_0
  10
55.942978
  20
-27.375214
  0
VERTEX
  5
290
  8
Layer_0
  10
53.942947
  20
-27.367264
  0
VERTEX
  5
291
  8
Layer_0
  10
53.710602
  20
-85.890289
  0
VERTEX
  5
292
  8
Layer_0
  10
53.656357
  20
-88.898804
  0
VERTEX
  5
293
  8
Layer_0
  10
55.698822
  20
-88.874725
  0
VERTEX
  5
294
  8
Layer_0
  10
92.781998
  20
-89.021973
  0
VERTEX
  5
295
  8
Layer_0
  10
92.781906
  20
-89.045441
  0
VERTEX
  5
296
  8
Layer_0
  10
95.69841
  20
-89.057007
  0
VERTEX
  5
297
  8
Layer_0
  10
95.710312
  20
-86.057037
  0
VERTEX
  5
298
  8
Layer_0
  10
93.710327
  20
-86.049103
  0
VERTEX
  5
299
  8
Layer_0
  10
93.942673
  20
-27.526077
  0
VERTEX
  5
29a
  8
Layer_0
  10
95.942657
  20
-27.534012
  0
VERTEX
  5
29b
  8
Layer_0
  10
95.954575
  20
-24.534012
  0
VERTEX
  5
29c
  8
Layer_0
  10
93.95459
  20
-24.526077
  0
VERTEX
  5
29d
  8
Layer_0
  10
94.186844
  20
33.97345
  0
VERTEX
  5
29e
  8
Layer_0
  10
96.186829
  20
33.9655
  0
VERTEX
  5
29f
  8
Layer_0
  10
96.208023
  20
35.444366
  0
VERTEX
  5
2a0
  8
Layer_0
  10
94.103729
  20
35.314529
  0
VERTEX
  5
2a1
  8
Layer_0
  10
94.210663
  20
39.97345
  0
VERTEX
  5
2a2
  8
Layer_0
  10
56.25679
  20
40.277328
  0
SEQEND
  0
POLYLINE
  5
2a4
  8
Layer_0
  62
0
  70
1
  66
1
  10
0
  20
0
  30
0
  0
VERTEX
  5
2a4
  8
Layer_0
  10
63.296692
  20
36.072617
  0
VERTEX
  5
2a5
  8
Layer_0
  10
60.296738
  20
36.084518
  0
VERTEX
  5
2a6
  8
Layer_0
  10
60.304672
  20
38.084503
  0
VERTEX
  5
2a7
  8
Layer_0
  10
63.304626
  20
38.072601
  0
VERTEX
  5
2a8
  8
Layer_0
  10
63.296692
  20
36.072617
  0
SEQEND
  0
POLYLINE
  5
2aa
  8
Layer_0
  62
0
  70
1
  66
1
  10
0
  20
0
  30
0
  0
VERTEX
  5
2aa
  8
Layer_0
  10
88.092941
  20
35.974167
  0
VERTEX
  5
2ab
  8
Layer_0
  10
85.092941
  20
35.986084
  0
VERTEX
  5
2ac
  8
Layer_0
  10
85.100876
  20
37.986069
  0
VERTEX
  5
2ad
  8
Layer_0
  10
88.100876
  20
37.974152
  0
VERTEX
  5
2ae
  8
Layer_0
  10
88.092941
  20
35.974167
  0
SEQEND
  0
POLYLINE
  5
2b0
  8
Layer_0
  62
0
  70
1
  66
1
  10
0
  20
0
  30
0
  0
VERTEX
  5
2b0
  8
Layer_0
  10
232.42606
  20
38.432907
  0
VERTEX
  5
2b1
  8
Layer_0
  10
194.45317
  20
38.738525
  0
VERTEX
  5
2b2
  8
Layer_0
  10
192.43571
  20
38.71254
  0
VERTEX
  5
2b3
  8
Layer_0
  10
192.42926
  20
35.778198
  0
VERTEX
  5
2b4
  8
Layer_0
  10
191.94615
  20
-22.719772
  0
VERTEX
  5
2b5
  8
Layer_0
  10
193.9584
  20
-22.735962
  0
VERTEX
  5
2b6
  8
Layer_0
  10
193.93427
  20
-25.735855
  0
VERTEX
  5
2b7
  8
Layer_0
  10
191.92137
  20
-25.71965
  0
VERTEX
  5
2b8
  8
Layer_0
  10
191.4381
  20
-84.24115
  0
VERTEX
  5
2b9
  8
Layer_0
  10
193.46326
  20
-84.257446
  0
VERTEX
  5
2ba
  8
Layer_0
  10
193.43912
  20
-87.257355
  0
VERTEX
  5
2bb
  8
Layer_0
  10
198.06549
  20
-87.294586
  0
VERTEX
  5
2bc
  8
Layer_0
  10
198.04941
  20
-89.294556
  0
VERTEX
  5
2bd
  8
Layer_0
  10
201.04933
  20
-89.318665
  0
VERTEX
  5
2be
  8
Layer_0
  10
201.06543
  20
-87.318726
  0
VERTEX
  5
2bf
  8
Layer_0
  10
222.86108
  20
-87.494141
  0
VERTEX
  5
2c0
  8
Layer_0
  10
222.845
  20
-89.49411
  0
VERTEX
  5
2c1
  8
Layer_0
  10
225.84491
  20
-89.51825
  0
VERTEX
  5
2c2
  8
Layer_0
  10
225.86102
  20
-87.518311
  0
VERTEX
  5
2c3
  8
Layer_0
  10
231.41199
  20
-87.562988
  0
VERTEX
  5
2c4
  8
Layer_0
  10
231.43199
  20
-86.135651
  0
VERTEX
  5
2c5
  8
Layer_0
  10
233.39857
  20
-86.15802
  0
VERTEX
  5
2c6
  8
Layer_0
  10
233.4361
  20
-84.579163
  0
VERTEX
  5
2c7
  8
Layer_0
  10
231.43613
  20
-84.563049
  0
VERTEX
  5
2c8
  8
Layer_0
  10
231.90714
  20
-26.041504
  0
VERTEX
  5
2c9
  8
Layer_0
  10
233.90709
  20
-26.057602
  0
VERTEX
  5
2ca
  8
Layer_0
  10
233.93124
  20
-23.057678
  0
VERTEX
  5
2cb
  8
Layer_0
  10
231.93127
  20
-23.04158
  0
VERTEX
  5
2cc
  8
Layer_0
  10
232.4021
  20
35.456482
  0
VERTEX
  5
2cd
  8
Layer_0
  10
234.40204
  20
35.440384
  0
VERTEX
  5
2ce
  8
Layer_0
  10
234.42618
  20
38.440323
  0
VERTEX
  5
2cf
  8
Layer_0
  10
232.42624
  20
38.456421
  0
VERTEX
  5
2d0
  8
Layer_0
  10
232.42606
  20
38.432907
  0
SEQEND
  0
POLYLINE
  5
2d2
  8
Layer_0
  62
0
  70
1
  66
1
  10
0
  20
0
  30
0
  0
VERTEX
  5
2d2
  8
Layer_0
  10
219.50076
  20
26.082916
  0
VERTEX
  5
2d3
  8
Layer_0
  10
219.49004
  20
26.349655
  0
VERTEX
  5
2d4
  8
Layer_0
  10
219.45255
  20
26.597137
  0
VERTEX
  5
2d5
  8
Layer_0
  10
219.38831
  20
26.825348
  0
VERTEX
  5
2d6
  8
Layer_0
  10
219.29736
  20
27.034241
  0
VERTEX
  5
2d7
  8
Layer_0
  10
219.17392
  20
27.222412
  0
VERTEX
  5
2d8
  8
Layer_0
  10
219.01215
  20
27.387833
  0
VERTEX
  5
2d9
  8
Layer_0
  10
218.81204
  20
27.530563
  0
VERTEX
  5
2da
  8
Layer_0
  10
218.57358
  20
27.650665
  0
VERTEX
  5
2db
  8
Layer_0
  10
218.28883
  20
27.746414
  0
VERTEX
  5
2dc
  8
Layer_0
  10
217.94983
  20
27.816101
  0
VERTEX
  5
2dd
  8
Layer_0
  10
217.55647
  20
27.859741
  0
VERTEX
  5
2de
  8
Layer_0
  10
217.10876
  20
27.877304
  0
VERTEX
  5
2df
  8
Layer_0
  10
208.70589
  20
27.95813
  0
VERTEX
  5
2e0
  8
Layer_0
  10
208.70029
  20
27.377167
  0
VERTEX
  5
2e1
  8
Layer_0
  10
217.06082
  20
27.296753
  0
VERTEX
  5
2e2
  8
Layer_0
  10
217.43932
  20
27.283798
  0
VERTEX
  5
2e3
  8
Layer_0
  10
217.76715
  20
27.252731
  0
VERTEX
  5
2e4
  8
Layer_0
  10
218.04436
  20
27.203552
  0
VERTEX
  5
2e5
  8
Layer_0
  10
218.27097
  20
27.136261
  0
VERTEX
  5
2e6
  8
Layer_0
  10
218.45605
  20
27.052109
  0
VERTEX
  5
2e7
  8
Layer_0
  10
218.60919
  20
26.952332
  0
VERTEX
  5
2e8
  8
Layer_0
  10
218.73033
  20
26.836914
  0
VERTEX
  5
2e9
  8
Layer_0
  10
218.81946
  20
26.705841
  0
VERTEX
  5
2ea
  8
Layer_0
  10
218.93877
  20
26.405411
  0
VERTEX
  5
2eb
  8
Layer_0
  10
219.00444
  20
26.059296
  0
VERTEX
  5
2ec
  8
Layer_0
  10
219.09546
  20
25.20813
  0
VERTEX
  5
2ed
  8
Layer_0
  10
219.49231
  20
25.204315
  0
VERTEX
  5
2ee
  8
Layer_0
  10
219.50076
  20
26.082916
  0
SEQEND
  0
POLYLINE
  5
2f0
  8
Layer_0
  62
0
  70
1
  66
1
  10
0
  20
0
  30
0
  0
VERTEX
  5
2f0
  8
Layer_0
  10
219.38315
  20
13.854095
  0
VERTEX
  5
2f1
  8
Layer_0
  10
219.37149
  20
14.16156
  0
VERTEX
  5
2f2
  8
Layer_0
  10
219.3304
  20
14.446274
  0
VERTEX
  5
2f3
  8
Layer_0
  10
219.25983
  20
14.708206
  0
VERTEX
  5
2f4
  8
Layer_0
  10
219.15971
  20
14.947357
  0
VERTEX
  5
2f5
  8
Layer_0
  10
219.02768
  20
15.160843
  0
VERTEX
  5
2f6
  8
Layer_0
  10
218.86075
  20
15.345367
  0
VERTEX
  5
2f7
  8
Layer_0
  10
218.659
  20
15.500961
  0
VERTEX
  5
2f8
  8
Layer_0
  10
218.42242
  20
15.627655
  0
VERTEX
  5
2f9
  8
Layer_0
  10
218.14969
  20
15.726425
  0
VERTEX
  5
2fa
  8
Layer_0
  10
217.83942
  20
15.79805
  0
VERTEX
  5
2fb
  8
Layer_0
  10
217.49167
  20
15.842529
  0
VERTEX
  5
2fc
  8
Layer_0
  10
217.10651
  20
15.859955
  0
VERTEX
  5
2fd
  8
Layer_0
  10
212.35934
  20
15.863083
  0
VERTEX
  5
2fe
  8
Layer_0
  10
212.37108
  20
17.081696
  0
VERTEX
  5
2ff
  8
Layer_0
  10
212.00244
  20
17.085236
  0
VERTEX
  5
300
  8
Layer_0
  10
211.8634
  20
15.882141
  0
VERTEX
  5
301
  8
Layer_0
  10
209.75079
  20
15.774811
  0
VERTEX
  5
302
  8
Layer_0
  10
209.7467
  20
15.349701
  0
VERTEX
  5
303
  8
Layer_0
  10
211.85809
  20
15.329407
  0
VERTEX
  5
304
  8
Layer_0
  10
211.83519
  20
12.948761
  0
VERTEX
  5
305
  8
Layer_0
  10
212.33127
  20
12.94397
  0
VERTEX
  5
306
  8
Layer_0
  10
212.35417
  20
15.324615
  0
VERTEX
  5
307
  8
Layer_0
  10
217.08682
  20
15.279099
  0
VERTEX
  5
308
  8
Layer_0
  10
217.36932
  20
15.268402
  0
VERTEX
  5
309
  8
Layer_0
  10
217.62155
  20
15.242065
  0
VERTEX
  5
30a
  8
Layer_0
  10
217.84344
  20
15.200104
  0
VERTEX
  5
30b
  8
Layer_0
  10
218.03502
  20
15.142517
  0
VERTEX
  5
30c
  8
Layer_0
  10
218.20049
  20
15.071777
  0
VERTEX
  5
30d
  8
Layer_0
  10
218.34367
  20
14.990677
  0
VERTEX
  5
30e
  8
Layer_0
  10
218.4646
  20
14.89917
  0
VERTEX
  5
30f
  8
Layer_0
  10
218.56329
  20
14.797211
  0
VERTEX
  5
310
  8
Layer_0
  10
218.71184
  20
14.577988
  0
VERTEX
  5
311
  8
Layer_0
  10
218.80701
  20
14.348541
  0
VERTEX
  5
312
  8
Layer_0
  10
218.86145
  20
14.123062
  0
VERTEX
  5
313
  8
Layer_0
  10
218.88763
  20
13.915558
  0
VERTEX
  5
314
  8
Layer_0
  10
218.96387
  20
12.99353
  0
VERTEX
  5
315
  8
Layer_0
  10
219.37482
  20
12.989578
  0
VERTEX
  5
316
  8
Layer_0
  10
219.38315
  20
13.854095
  0
SEQEND
  0
POLYLINE
  5
318
  8
Layer_0
  62
0
  70
1
  66
1
  10
0
  20
0
  30
0
  0
VERTEX
  5
318
  8
Layer_0
  10
219.297
  20
4.8986511
  0
VERTEX
  5
319
  8
Layer_0
  10
219.28534
  20
5.2061157
  0
VERTEX
  5
31a
  8
Layer_0
  10
219.24426
  20
5.4908295
  0
VERTEX
  5
31b
  8
Layer_0
  10
219.17368
  20
5.7527618
  0
VERTEX
  5
31c
  8
Layer_0
  10
219.07358
  20
5.9919128
  0
VERTEX
  5
31d
  8
Layer_0
  10
218.94153
  20
6.2053833
  0
VERTEX
  5
31e
  8
Layer_0
  10
218.7746
  20
6.3898926
  0
VERTEX
  5
31f
  8
Layer_0
  10
218.57285
  20
6.5455017
  0
VERTEX
  5
320
  8
Layer_0
  10
218.33627
  20
6.6722107
  0
VERTEX
  5
321
  8
Layer_0
  10
218.06354
  20
6.7709808
  0
VERTEX
  5
322
  8
Layer_0
  10
217.75328
  20
6.8425903
  0
VERTEX
  5
323
  8
Layer_0
  10
217.40555
  20
6.887085
  0
VERTEX
  5
324
  8
Layer_0
  10
217.02037
  20
6.90448
  0
VERTEX
  5
325
  8
Layer_0
  10
212.27321
  20
6.9075928
  0
VERTEX
  5
326
  8
Layer_0
  10
212.28493
  20
8.1262512
  0
VERTEX
  5
327
  8
Layer_0
  10
211.91629
  20
8.1297913
  0
VERTEX
  5
328
  8
Layer_0
  10
211.77725
  20
6.9266968
  0
VERTEX
  5
329
  8
Layer_0
  10
209.66464
  20
6.8193359
  0
VERTEX
  5
32a
  8
Layer_0
  10
209.66055
  20
6.3942566
  0
VERTEX
  5
32b
  8
Layer_0
  10
211.77194
  20
6.3739471
  0
VERTEX
  5
32c
  8
Layer_0
  10
211.74904
  20
3.9933167
  0
VERTEX
  5
32d
  8
Layer_0
  10
212.24512
  20
3.9885254
  0
VERTEX
  5
32e
  8
Layer_0
  10
212.26804
  20
6.3691711
  0
VERTEX
  5
32f
  8
Layer_0
  10
217.00067
  20
6.3236389
  0
VERTEX
  5
330
  8
Layer_0
  10
217.28317
  20
6.3129578
  0
VERTEX
  5
331
  8
Layer_0
  10
217.5354
  20
6.2866058
  0
VERTEX
  5
332
  8
Layer_0
  10
217.75729
  20
6.2446289
  0
VERTEX
  5
333
  8
Layer_0
  10
217.94887
  20
6.187027
  0
VERTEX
  5
334
  8
Layer_0
  10
218.11433
  20
6.1163025
  0
VERTEX
  5
335
  8
Layer_0
  10
218.25752
  20
6.035202
  0
VERTEX
  5
336
  8
Layer_0
  10
218.37845
  20
5.9436798
  0
VERTEX
  5
337
  8
Layer_0
  10
218.47714
  20
5.8417511
  0
VERTEX
  5
338
  8
Layer_0
  10
218.62569
  20
5.6224976
  0
VERTEX
  5
339
  8
Layer_0
  10
218.72087
  20
5.3930511
  0
VERTEX
  5
33a
  8
Layer_0
  10
218.7753
  20
5.167572
  0
VERTEX
  5
33b
  8
Layer_0
  10
218.80148
  20
4.9600677
  0
VERTEX
  5
33c
  8
Layer_0
  10
218.87772
  20
4.0380859
  0
VERTEX
  5
33d
  8
Layer_0
  10
219.28867
  20
4.0341339
  0
VERTEX
  5
33e
  8
Layer_0
  10
219.297
  20
4.8986511
  0
SEQEND
  0
POLYLINE
  5
340
  8
Layer_0
  62
0
  70
1
  66
1
  10
0
  20
0
  30
0
  0
VERTEX
  5
340
  8
Layer_0
  10
219.27069
  20
2.1637268
  0
VERTEX
  5
341
  8
Layer_0
  10
208.45876
  20
2.2677307
  0
VERTEX
  5
342
  8
Layer_0
  10
208.45317
  20
1.6867371
  0
VERTEX
  5
343
  8
Layer_0
  10
212.59088
  20
1.6469269
  0
VERTEX
  5
344
  8
Layer_0
  10
212.39584
  20
1.3401794
  0
VERTEX
  5
345
  8
Layer_0
  10
212.21283
  20
1.0111389
  0
VERTEX
  5
346
  8
Layer_0
  10
212.04193
  20
0.65979004
  0
VERTEX
  5
347
  8
Layer_0
  10
211.88324
  20
0.28611755
  0
VERTEX
  5
348
  8
Layer_0
  10
211.74945
  20
-0.10263062
  0
VERTEX
  5
349
  8
Layer_0
  10
211.65273
  20
-0.49977112
  0
VERTEX
  5
34a
  8
Layer_0
  10
211.59305
  20
-0.90531921
  0
VERTEX
  5
34b
  8
Layer_0
  10
211.57047
  20
-1.3192596
  0
VERTEX
  5
34c
  8
Layer_0
  10
211.5882
  20
-1.6865997
  0
VERTEX
  5
34d
  8
Layer_0
  10
211.64871
  20
-2.0233002
  0
VERTEX
  5
34e
  8
Layer_0
  10
211.75204
  20
-2.3294067
  0
VERTEX
  5
34f
  8
Layer_0
  10
211.89816
  20
-2.6049194
  0
VERTEX
  5
350
  8
Layer_0
  10
212.07957
  20
-2.8493652
  0
VERTEX
  5
351
  8
Layer_0
  10
212.28877
  20
-3.0621948
  0
VERTEX
  5
352
  8
Layer_0
  10
212.52573
  20
-3.2433929
  0
VERTEX
  5
353
  8
Layer_0
  10
212.79044
  20
-3.3930054
  0
VERTEX
  5
354
  8
Layer_0
  10
213.07498
  20
-3.5103912
  0
VERTEX
  5
355
  8
Layer_0
  10
213.37137
  20
-3.5951843
  0
VERTEX
  5
356
  8
Layer_0
  10
213.67957
  20
-3.6473389
  0
VERTEX
  5
357
  8
Layer_0
  10
213.99953
  20
-3.6668091
  0
VERTEX
  5
358
  8
Layer_0
  10
219.21411
  20
-3.7169495
  0
VERTEX
  5
359
  8
Layer_0
  10
219.2197
  20
-3.1359863
  0
VERTEX
  5
35a
  8
Layer_0
  10
214.04747
  20
-3.0862427
  0
VERTEX
  5
35b
  8
Layer_0
  10
213.78412
  20
-3.0699768
  0
VERTEX
  5
35c
  8
Layer_0
  10
213.53256
  20
-3.0263672
  0
VERTEX
  5
35d
  8
Layer_0
  10
213.29272
  20
-2.9554138
  0
VERTEX
  5
35e
  8
Layer_0
  10
213.06468
  20
-2.8571472
  0
VERTEX
  5
35f
  8
Layer_0
  10
212.85388
  20
-2.7332458
  0
VERTEX
  5
360
  8
Layer_0
  10
212.66533
  20
-2.5857239
  0
VERTEX
  5
361
  8
Layer_0
  10
212.49908
  20
-2.4145203
  0
VERTEX
  5
362
  8
Layer_0
  10
212.35524
  20
-2.2196655
  0
VERTEX
  5
363
  8
Layer_0
  10
212.23972
  20
-2.0014954
  0
VERTEX
  5
364
  8
Layer_0
  10
212.15794
  20
-1.7606812
  0
VERTEX
  5
365
  8
Layer_0
  10
212.10997
  20
-1.4971619
  0
VERTEX
  5
366
  8
Layer_0
  10
212.09587
  20
-1.2109985
  0
VERTEX
  5
367
  8
Layer_0
  10
212.12759
  20
-0.66021729
  0
VERTEX
  5
368
  8
Layer_0
  10
212.21199
  20
-0.17041016
  0
VERTEX
  5
369
  8
Layer_0
  10
212.34219
  20
0.28184509
  0
VERTEX
  5
36a
  8
Layer_0
  10
212.51097
  20
0.71951294
  0
VERTEX
  5
36b
  8
Layer_0
  10
212.72096
  20
1.1656952
  0
VERTEX
  5
36c
  8
Layer_0
  10
212.97363
  20
1.6432495
  0
VERTEX
  5
36d
  8
Layer_0
  10
219.26509
  20
1.5827332
  0
VERTEX
  5
36e
  8
Layer_0
  10
219.27069
  20
2.1637268
  0
SEQEND
  0
POLYLINE
  5
370
  8
Layer_0
  62
0
  70
1
  66
1
  10
0
  20
0
  30
0
  0
VERTEX
  5
370
  8
Layer_0
  10
219.11707
  20
-13.806152
  0
VERTEX
  5
371
  8
Layer_0
  10
211.57852
  20
-13.733627
  0
VERTEX
  5
372
  8
Layer_0
  10
211.57443
  20
-14.158737
  0
VERTEX
  5
373
  8
Layer_0
  10
212.97571
  20
-14.328125
  0
VERTEX
  5
374
  8
Layer_0
  10
212.6617
  20
-14.616425
  0
VERTEX
  5
375
  8
Layer_0
  10
212.37672
  20
-14.921021
  0
VERTEX
  5
376
  8
Layer_0
  10
212.12079
  20
-15.241898
  0
VERTEX
  5
377
  8
Layer_0
  10
211.89391
  20
-15.579025
  0
VERTEX
  5
378
  8
Layer_0
  10
211.70755
  20
-15.936707
  0
VERTEX
  5
379
  8
Layer_0
  10
211.57315
  20
-16.319794
  0
VERTEX
  5
37a
  8
Layer_0
  10
211.49075
  20
-16.728271
  0
VERTEX
  5
37b
  8
Layer_0
  10
211.46043
  20
-17.162079
  0
VERTEX
  5
37c
  8
Layer_0
  10
211.46384
  20
-17.367523
  0
VERTEX
  5
37d
  8
Layer_0
  10
211.47797
  20
-17.55896
  0
VERTEX
  5
37e
  8
Layer_0
  10
211.50284
  20
-17.736237
  0
VERTEX
  5
37f
  8
Layer_0
  10
211.53844
  20
-17.89978
  0
VERTEX
  5
380
  8
Layer_0
  10
212.11926
  20
-17.905365
  0
VERTEX
  5
381
  8
Layer_0
  10
212.09451
  20
-17.738434
  0
VERTEX
  5
382
  8
Layer_0
  10
212.07306
  20
-17.550568
  0
VERTEX
  5
383
  8
Layer_0
  10
212.05923
  20
-17.344833
  0
VERTEX
  5
384
  8
Layer_0
  10
212.05614
  20
-17.125259
  0
VERTEX
  5
385
  8
Layer_0
  10
212.06815
  20
-16.843185
  0
VERTEX
  5
386
  8
Layer_0
  10
212.0986
  20
-16.578217
  0
VERTEX
  5
387
  8
Layer_0
  10
212.14752
  20
-16.330307
  0
VERTEX
  5
388
  8
Layer_0
  10
212.21484
  20
-16.099411
  0
VERTEX
  5
389
  8
Layer_0
  10
212.40494
  20
-15.660049
  0
VERTEX
  5
38a
  8
Layer_0
  10
212.66934
  20
-15.232132
  0
VERTEX
  5
38b
  8
Layer_0
  10
213.00302
  20
-14.796036
  0
VERTEX
  5
38c
  8
Layer_0
  10
213.40083
  20
-14.332214
  0
VERTEX
  5
38d
  8
Layer_0
  10
219.11148
  20
-14.387146
  0
VERTEX
  5
38e
  8
Layer_0
  10
219.11707
  20
-13.806152
  0
SEQEND
  0
POLYLINE
  5
390
  8
Layer_0
  62
0
  70
1
  66
1
  10
0
  20
0
  30
0
  0
VERTEX
  5
390
  8
Layer_0
  10
218.74277
  20
-52.717392
  0
VERTEX
  5
391
  8
Layer_0
  10
218.73204
  20
-52.450668
  0
VERTEX
  5
392
  8
Layer_0
  10
218.69453
  20
-52.203186
  0
VERTEX
  5
393
  8
Layer_0
  10
218.63028
  20
-51.974976
  0
VERTEX
  5
394
  8
Layer_0
  10
218.53934
  20
-51.766098
  0
VERTEX
  5
395
  8
Layer_0
  10
218.41589
  20
-51.577927
  0
VERTEX
  5
396
  8
Layer_0
  10
218.25412
  20
-51.412506
  0
VERTEX
  5
397
  8
Layer_0
  10
218.05402
  20
-51.269775
  0
VERTEX
  5
398
  8
Layer_0
  10
217.81555
  20
-51.149689
  0
VERTEX
  5
399
  8
Layer_0
  10
217.53084
  20
-51.053925
  0
VERTEX
  5
39a
  8
Layer_0
  10
217.1918
  20
-50.984222
  0
VERTEX
  5
39b
  8
Layer_0
  10
216.79846
  20
-50.940582
  0
VERTEX
  5
39c
  8
Layer_0
  10
216.35075
  20
-50.923004
  0
VERTEX
  5
39d
  8
Layer_0
  10
207.94788
  20
-50.842163
  0
VERTEX
  5
39e
  8
Layer_0
  10
207.94228
  20
-51.423172
  0
VERTEX
  5
39f
  8
Layer_0
  10
216.3028
  20
-51.503586
  0
VERTEX
  5
3a0
  8
Layer_0
  10
216.68129
  20
-51.516541
  0
VERTEX
  5
3a1
  8
Layer_0
  10
217.00912
  20
-51.547592
  0
VERTEX
  5
3a2
  8
Layer_0
  10
217.28633
  20
-51.596771
  0
VERTEX
  5
3a3
  8
Layer_0
  10
217.51295
  20
-51.664078
  0
VERTEX
  5
3a4
  8
Layer_0
  10
217.69806
  20
-51.748215
  0
VERTEX
  5
3a5
  8
Layer_0
  10
217.85118
  20
-51.847992
  0
VERTEX
  5
3a6
  8
Layer_0
  10
217.97231
  20
-51.963394
  0
VERTEX
  5
3a7
  8
Layer_0
  10
218.06143
  20
-52.094467
  0
VERTEX
  5
3a8
  8
Layer_0
  10
218.18076
  20
-52.394897
  0
VERTEX
  5
3a9
  8
Layer_0
  10
218.24643
  20
-52.741043
  0
VERTEX
  5
3aa
  8
Layer_0
  10
218.33746
  20
-53.592194
  0
VERTEX
  5
3ab
  8
Layer_0
  10
218.73431
  20
-53.596008
  0
VERTEX
  5
3ac
  8
Layer_0
  10
218.74277
  20
-52.717392
  0
SEQEND
  0
POLYLINE
  5
3ae
  8
Layer_0
  62
0
  70
1
  66
1
  10
0
  20
0
  30
0
  0
VERTEX
  5
3ae
  8
Layer_0
  10
209.69357
  20
-54.996887
  0
VERTEX
  5
3af
  8
Layer_0
  10
209.68283
  20
-54.916199
  0
VERTEX
  5
3b0
  8
Layer_0
  10
209.64886
  20
-54.858307
  0
VERTEX
  5
3b1
  8
Layer_0
  10
209.59161
  20
-54.823242
  0
VERTEX
  5
3b2
  8
Layer_0
  10
209.51105
  20
-54.810974
  0
VERTEX
  5
3b3
  8
Layer_0
  10
208.56163
  20
-54.801834
  0
VERTEX
  5
3b4
  8
Layer_0
  10
208.48099
  20
-54.812561
  0
VERTEX
  5
3b5
  8
Layer_0
  10
208.42303
  20
-54.846527
  0
VERTEX
  5
3b6
  8
Layer_0
  10
208.38786
  20
-54.903748
  0
VERTEX
  5
3b7
  8
Layer_0
  10
208.37555
  20
-54.984222
  0
VERTEX
  5
3b8
  8
Layer_0
  10
208.37213
  20
-55.338531
  0
VERTEX
  5
3b9
  8
Layer_0
  10
208.38574
  20
-55.413055
  0
VERTEX
  5
3ba
  8
Layer_0
  10
208.42773
  20
-55.466522
  0
VERTEX
  5
3bb
  8
Layer_0
  10
208.4877
  20
-55.499023
  0
VERTEX
  5
3bc
  8
Layer_0
  10
208.55481
  20
-55.510284
  0
VERTEX
  5
3bd
  8
Layer_0
  10
209.50424
  20
-55.519424
  0
VERTEX
  5
3be
  8
Layer_0
  10
209.58502
  20
-55.509583
  0
VERTEX
  5
3bf
  8
Layer_0
  10
209.64291
  20
-55.478256
  0
VERTEX
  5
3c0
  8
Layer_0
  10
209.67793
  20
-55.425476
  0
VERTEX
  5
3c1
  8
Layer_0
  10
209.69016
  20
-55.351196
  0
VERTEX
  5
3c2
  8
Layer_0
  10
209.69357
  20
-54.996887
  0
SEQEND
  0
POLYLINE
  5
3c4
  8
Layer_0
  62
0
  70
1
  66
1
  10
0
  20
0
  30
0
  0
VERTEX
  5
3c4
  8
Layer_0
  10
218.72122
  20
-54.956253
  0
VERTEX
  5
3c5
  8
Layer_0
  10
211.18268
  20
-54.883743
  0
VERTEX
  5
3c6
  8
Layer_0
  10
211.17709
  20
-55.464737
  0
VERTEX
  5
3c7
  8
Layer_0
  10
218.71564
  20
-55.537262
  0
VERTEX
  5
3c8
  8
Layer_0
  10
218.72122
  20
-54.956253
  0
SEQEND
  0
POLYLINE
  5
3ca
  8
Layer_0
  62
0
  70
1
  66
1
  10
0
  20
0
  30
0
  0
VERTEX
  5
3ca
  8
Layer_0
  10
218.61407
  20
-66.09375
  0
VERTEX
  5
3cb
  8
Layer_0
  10
207.80215
  20
-65.989746
  0
VERTEX
  5
3cc
  8
Layer_0
  10
207.79657
  20
-66.570709
  0
VERTEX
  5
3cd
  8
Layer_0
  10
211.93428
  20
-66.610504
  0
VERTEX
  5
3ce
  8
Layer_0
  10
211.73923
  20
-66.917267
  0
VERTEX
  5
3cf
  8
Layer_0
  10
211.55621
  20
-67.246292
  0
VERTEX
  5
3d0
  8
Layer_0
  10
211.38531
  20
-67.597641
  0
VERTEX
  5
3d1
  8
Layer_0
  10
211.22664
  20
-67.971298
  0
VERTEX
  5
3d2
  8
Layer_0
  10
211.09285
  20
-68.360077
  0
VERTEX
  5
3d3
  8
Layer_0
  10
210.99611
  20
-68.757217
  0
VERTEX
  5
3d4
  8
Layer_0
  10
210.93643
  20
-69.16275
  0
VERTEX
  5
3d5
  8
Layer_0
  10
210.91386
  20
-69.576721
  0
VERTEX
  5
3d6
  8
Layer_0
  10
210.93159
  20
-69.944031
  0
VERTEX
  5
3d7
  8
Layer_0
  10
210.99211
  20
-70.280731
  0
VERTEX
  5
3d8
  8
Layer_0
  10
211.09544
  20
-70.586823
  0
VERTEX
  5
3d9
  8
Layer_0
  10
211.24156
  20
-70.86235
  0
VERTEX
  5
3da
  8
Layer_0
  10
211.42297
  20
-71.106781
  0
VERTEX
  5
3db
  8
Layer_0
  10
211.63219
  20
-71.319611
  0
VERTEX
  5
3dc
  8
Layer_0
  10
211.86914
  20
-71.500824
  0
VERTEX
  5
3dd
  8
Layer_0
  10
212.13385
  20
-71.650436
  0
VERTEX
  5
3de
  8
Layer_0
  10
212.4184
  20
-71.767838
  0
VERTEX
  5
3df
  8
Layer_0
  10
212.71478
  20
-71.852631
  0
VERTEX
  5
3e0
  8
Layer_0
  10
213.02298
  20
-71.904785
  0
VERTEX
  5
3e1
  8
Layer_0
  10
213.34293
  20
-71.924255
  0
VERTEX
  5
3e2
  8
Layer_0
  10
218.55753
  20
-71.974426
  0
VERTEX
  5
3e3
  8
Layer_0
  10
218.56311
  20
-71.393417
  0
VERTEX
  5
3e4
  8
Layer_0
  10
213.39087
  20
-71.343674
  0
VERTEX
  5
3e5
  8
Layer_0
  10
213.12753
  20
-71.327423
  0
VERTEX
  5
3e6
  8
Layer_0
  10
212.87598
  20
-71.283813
  0
VERTEX
  5
3e7
  8
Layer_0
  10
212.63614
  20
-71.21286
  0
VERTEX
  5
3e8
  8
Layer_0
  10
212.40808
  20
-71.114563
  0
VERTEX
  5
3e9
  8
Layer_0
  10
212.1973
  20
-70.990692
  0
VERTEX
  5
3ea
  8
Layer_0
  10
212.00874
  20
-70.84314
  0
VERTEX
  5
3eb
  8
Layer_0
  10
211.8425
  20
-70.671967
  0
VERTEX
  5
3ec
  8
Layer_0
  10
211.69864
  20
-70.477081
  0
VERTEX
  5
3ed
  8
Layer_0
  10
211.5831
  20
-70.258926
  0
VERTEX
  5
3ee
  8
Layer_0
  10
211.50133
  20
-70.018112
  0
VERTEX
  5
3ef
  8
Layer_0
  10
211.45337
  20
-69.754608
  0
VERTEX
  5
3f0
  8
Layer_0
  10
211.43927
  20
-69.46843
  0
VERTEX
  5
3f1
  8
Layer_0
  10
211.47101
  20
-68.917664
  0
VERTEX
  5
3f2
  8
Layer_0
  10
211.55539
  20
-68.427887
  0
VERTEX
  5
3f3
  8
Layer_0
  10
211.68561
  20
-67.975586
  0
VERTEX
  5
3f4
  8
Layer_0
  10
211.85437
  20
-67.537918
  0
VERTEX
  5
3f5
  8
Layer_0
  10
212.06438
  20
-67.091736
  0
VERTEX
  5
3f6
  8
Layer_0
  10
212.31703
  20
-66.614182
  0
VERTEX
  5
3f7
  8
Layer_0
  10
218.60849
  20
-66.674713
  0
VERTEX
  5
3f8
  8
Layer_0
  10
218.61407
  20
-66.09375
  0
SEQEND
  0
POLYLINE
  5
3fa
  8
Layer_0
  62
0
  70
1
  66
1
  10
0
  20
0
  30
0
  0
VERTEX
  5
3fa
  8
Layer_0
  10
218.51239
  20
-76.664871
  0
VERTEX
  5
3fb
  8
Layer_0
  10
218.50073
  20
-76.357422
  0
VERTEX
  5
3fc
  8
Layer_0
  10
218.45966
  20
-76.072693
  0
VERTEX
  5
3fd
  8
Layer_0
  10
218.38907
  20
-75.810745
  0
VERTEX
  5
3fe
  8
Layer_0
  10
218.28897
  20
-75.571609
  0
VERTEX
  5
3ff
  8
Layer_0
  10
218.15694
  20
-75.358139
  0
VERTEX
  5
400
  8
Layer_0
  10
217.99002
  20
-75.173615
  0
VERTEX
  5
401
  8
Layer_0
  10
217.78827
  20
-75.018021
  0
VERTEX
  5
402
  8
Layer_0
  10
217.5517
  20
-74.891312
  0
VERTEX
  5
403
  8
Layer_0
  10
217.27896
  20
-74.792526
  0
VERTEX
  5
404
  8
Layer_0
  10
216.96869
  20
-74.720917
  0
VERTEX
  5
405
  8
Layer_0
  10
216.62094
  20
-74.676422
  0
VERTEX
  5
406
  8
Layer_0
  10
216.23578
  20
-74.659012
  0
VERTEX
  5
407
  8
Layer_0
  10
211.48862
  20
-74.655869
  0
VERTEX
  5
408
  8
Layer_0
  10
211.50034
  20
-73.437241
  0
VERTEX
  5
409
  8
Layer_0
  10
211.1317
  20
-73.433701
  0
VERTEX
  5
40a
  8
Layer_0
  10
210.99266
  20
-74.636826
  0
VERTEX
  5
40b
  8
Layer_0
  10
208.88005
  20
-74.744141
  0
VERTEX
  5
40c
  8
Layer_0
  10
208.87596
  20
-75.16925
  0
VERTEX
  5
40d
  8
Layer_0
  10
210.98735
  20
-75.18956
  0
VERTEX
  5
40e
  8
Layer_0
  10
210.96445
  20
-77.570175
  0
VERTEX
  5
40f
  8
Layer_0
  10
211.46054
  20
-77.574951
  0
VERTEX
  5
410
  8
Layer_0
  10
211.48343
  20
-75.194336
  0
VERTEX
  5
411
  8
Layer_0
  10
216.21608
  20
-75.239853
  0
VERTEX
  5
412
  8
Layer_0
  10
216.49858
  20
-75.250549
  0
VERTEX
  5
413
  8
Layer_0
  10
216.75079
  20
-75.276901
  0
VERTEX
  5
414
  8
Layer_0
  10
216.97272
  20
-75.318878
  0
VERTEX
  5
415
  8
Layer_0
  10
217.16428
  20
-75.376465
  0
VERTEX
  5
416
  8
Layer_0
  10
217.32974
  20
-75.447174
  0
VERTEX
  5
417
  8
Layer_0
  10
217.47293
  20
-75.52829
  0
VERTEX
  5
418
  8
Layer_0
  10
217.59386
  20
-75.619812
  0
VERTEX
  5
419
  8
Layer_0
  10
217.69254
  20
-75.721771
  0
VERTEX
  5
41a
  8
Layer_0
  10
217.84109
  20
-75.940994
  0
VERTEX
  5
41b
  8
Layer_0
  10
217.93628
  20
-76.170441
  0
VERTEX
  5
41c
  8
Layer_0
  10
217.99069
  20
-76.39592
  0
VERTEX
  5
41d
  8
Layer_0
  10
218.01688
  20
-76.603424
  0
VERTEX
  5
41e
  8
Layer_0
  10
218.09311
  20
-77.525406
  0
VERTEX
  5
41f
  8
Layer_0
  10
218.50409
  20
-77.529358
  0
VERTEX
  5
420
  8
Layer_0
  10
218.51239
  20
-76.664871
  0
SEQEND
  0
POLYLINE
  5
422
  8
Layer_0
  62
0
  70
1
  66
1
  10
0
  20
0
  30
0
  0
VERTEX
  5
422
  8
Layer_0
  10
212.29768
  20
21.06781
  0
VERTEX
  5
423
  8
Layer_0
  10
212.30783
  20
20.706024
  0
VERTEX
  5
424
  8
Layer_0
  10
212.33829
  20
20.380005
  0
VERTEX
  5
425
  8
Layer_0
  10
212.38934
  20
20.09024
  0
VERTEX
  5
426
  8
Layer_0
  10
212.4613
  20
19.837219
  0
VERTEX
  5
427
  8
Layer_0
  10
212.56319
  20
19.608643
  0
VERTEX
  5
428
  8
Layer_0
  10
212.69632
  20
19.413452
  0
VERTEX
  5
429
  8
Layer_0
  10
212.86079
  20
19.251587
  0
VERTEX
  5
42a
  8
Layer_0
  10
213.05667
  20
19.122971
  0
VERTEX
  5
42b
  8
Layer_0
  10
213.28958
  20
19.024658
  0
VERTEX
  5
42c
  8
Layer_0
  10
213.56519
  20
18.953369
  0
VERTEX
  5
42d
  8
Layer_0
  10
213.88358
  20
18.909134
  0
VERTEX
  5
42e
  8
Layer_0
  10
214.24478
  20
18.891922
  0
VERTEX
  5
42f
  8
Layer_0
  10
214.57809
  20
18.911743
  0
VERTEX
  5
430
  8
Layer_0
  10
214.85512
  20
18.978149
  0
VERTEX
  5
431
  8
Layer_0
  10
215.07581
  20
19.091171
  0
VERTEX
  5
432
  8
Layer_0
  10
215.24011
  20
19.250793
  0
VERTEX
  5
433
  8
Layer_0
  10
215.36008
  20
19.457779
  0
VERTEX
  5
434
  8
Layer_0
  10
215.44672
  20
19.712906
  0
VERTEX
  5
435
  8
Layer_0
  10
215.50011
  20
20.01619
  0
VERTEX
  5
436
  8
Layer_0
  10
215.52029
  20
20.36763
  0
VERTEX
  5
437
  8
Layer_0
  10
215.52673
  20
21.036743
  0
VERTEX
  5
438
  8
Layer_0
  10
215.96594
  20
21.032532
  0
VERTEX
  5
439
  8
Layer_0
  10
215.95923
  20
20.335007
  0
VERTEX
  5
43a
  8
Layer_0
  10
215.94574
  20
20.034454
  0
VERTEX
  5
43b
  8
Layer_0
  10
215.91124
  20
19.756256
  0
VERTEX
  5
43c
  8
Layer_0
  10
215.8557
  20
19.500366
  0
VERTEX
  5
43d
  8
Layer_0
  10
215.7791
  20
19.266815
  0
VERTEX
  5
43e
  8
Layer_0
  10
215.67908
  20
19.057404
  0
VERTEX
  5
43f
  8
Layer_0
  10
215.55374
  20
18.873962
  0
VERTEX
  5
440
  8
Layer_0
  10
215.40305
  20
18.716431
  0
VERTEX
  5
441
  8
Layer_0
  10
215.22682
  20
18.584778
  0
VERTEX
  5
442
  8
Layer_0
  10
215.02351
  20
18.481354
  0
VERTEX
  5
443
  8
Layer_0
  10
214.79114
  20
18.408264
  0
VERTEX
  5
444
  8
Layer_0
  10
214.5298
  20
18.36557
  0
VERTEX
  5
445
  8
Layer_0
  10
214.23959
  20
18.353287
  0
VERTEX
  5
446
  8
Layer_0
  10
213.79739
  20
18.376602
  0
VERTEX
  5
447
  8
Layer_0
  10
213.40605
  20
18.437515
  0
VERTEX
  5
448
  8
Layer_0
  10
213.06561
  20
18.536026
  0
VERTEX
  5
449
  8
Layer_0
  10
212.77603
  20
18.672119
  0
VERTEX
  5
44a
  8
Layer_0
  10
212.53137
  20
18.845947
  0
VERTEX
  5
44b
  8
Layer_0
  10
212.32614
  20
19.057404
  0
VERTEX
  5
44c
  8
Layer_0
  10
212.16031
  20
19.306519
  0
VERTEX
  5
44d
  8
Layer_0
  10
212.03378
  20
19.593262
  0
VERTEX
  5
44e
  8
Layer_0
  10
211.94412
  20
19.906586
  0
VERTEX
  5
44f
  8
Layer_0
  10
211.88052
  20
20.257858
  0
VERTEX
  5
450
  8
Layer_0
  10
211.84268
  20
20.646576
  0
VERTEX
  5
451
  8
Layer_0
  10
211.83031
  20
21.072296
  0
VERTEX
  5
452
  8
Layer_0
  10
212.29768
  20
21.06781
  0
SEQEND
  0
POLYLINE
  5
454
  8
Layer_0
  62
0
  70
1
  66
1
  10
0
  20
0
  30
0
  0
VERTEX
  5
454
  8
Layer_0
  10
218.76578
  20
22.59668
  0
VERTEX
  5
455
  8
Layer_0
  10
218.59293
  20
22.849945
  0
VERTEX
  5
456
  8
Layer_0
  10
218.3735
  20
23.061157
  0
VERTEX
  5
457
  8
Layer_0
  10
218.1076
  20
23.230255
  0
VERTEX
  5
458
  8
Layer_0
  10
217.79535
  20
23.357269
  0
VERTEX
  5
459
  8
Layer_0
  10
217.43095
  20
23.450638
  0
VERTEX
  5
45a
  8
Layer_0
  10
217.00864
  20
23.51886
  0
VERTEX
  5
45b
  8
Layer_0
  10
216.52844
  20
23.561966
  0
VERTEX
  5
45c
  8
Layer_0
  10
215.99045
  20
23.579956
  0
VERTEX
  5
45d
  8
Layer_0
  10
215.97142
  20
21.601715
  0
VERTEX
  5
45e
  8
Layer_0
  10
215.5322
  20
21.605927
  0
VERTEX
  5
45f
  8
Layer_0
  10
215.55124
  20
23.584183
  0
VERTEX
  5
460
  8
Layer_0
  10
214.9493
  20
23.576691
  0
VERTEX
  5
461
  8
Layer_0
  10
214.41882
  20
23.541946
  0
VERTEX
  5
462
  8
Layer_0
  10
213.9599
  20
23.47995
  0
VERTEX
  5
463
  8
Layer_0
  10
213.57248
  20
23.390656
  0
VERTEX
  5
464
  8
Layer_0
  10
213.24701
  20
23.266754
  0
VERTEX
  5
465
  8
Layer_0
  10
212.97435
  20
23.100677
  0
VERTEX
  5
466
  8
Layer_0
  10
212.75452
  20
22.892426
  0
VERTEX
  5
467
  8
Layer_0
  10
212.58751
  20
22.641983
  0
VERTEX
  5
468
  8
Layer_0
  10
212.49498
  20
22.432022
  0
VERTEX
  5
469
  8
Layer_0
  10
212.42047
  20
22.194183
  0
VERTEX
  5
46a
  8
Layer_0
  10
212.36371
  20
21.928925
  0
VERTEX
  5
46b
  8
Layer_0
  10
212.32436
  20
21.63678
  0
VERTEX
  5
46c
  8
Layer_0
  10
211.85374
  20
21.641327
  0
VERTEX
  5
46d
  8
Layer_0
  10
211.90019
  20
22.012451
  0
VERTEX
  5
46e
  8
Layer_0
  10
211.97092
  20
22.351013
  0
VERTEX
  5
46f
  8
Layer_0
  10
212.06616
  20
22.656708
  0
VERTEX
  5
470
  8
Layer_0
  10
212.18616
  20
22.92923
  0
VERTEX
  5
471
  8
Layer_0
  10
212.38977
  20
23.240448
  0
VERTEX
  5
472
  8
Layer_0
  10
212.6541
  20
23.504089
  0
VERTEX
  5
473
  8
Layer_0
  10
212.9791
  20
23.720184
  0
VERTEX
  5
474
  8
Layer_0
  10
213.36469
  20
23.888748
  0
VERTEX
  5
475
  8
Layer_0
  10
213.82156
  20
24.014496
  0
VERTEX
  5
476
  8
Layer_0
  10
214.36049
  20
24.102295
  0
VERTEX
  5
477
  8
Layer_0
  10
214.9814
  20
24.152115
  0
VERTEX
  5
478
  8
Layer_0
  10
215.68427
  20
24.16394
  0
VERTEX
  5
479
  8
Layer_0
  10
216.37544
  20
24.140503
  0
VERTEX
  5
47a
  8
Layer_0
  10
216.98917
  20
24.084152
  0
VERTEX
  5
47b
  8
Layer_0
  10
217.52544
  20
23.994873
  0
VERTEX
  5
47c
  8
Layer_0
  10
217.98425
  20
23.872574
  0
VERTEX
  5
47d
  8
Layer_0
  10
218.37474
  20
23.709488
  0
VERTEX
  5
47e
  8
Layer_0
  10
218.70538
  20
23.497314
  0
VERTEX
  5
47f
  8
Layer_0
  10
218.9761
  20
23.236069
  0
VERTEX
  5
480
  8
Layer_0
  10
219.18686
  20
22.925781
  0
VERTEX
  5
481
  8
Layer_0
  10
219.34473
  20
22.561096
  0
VERTEX
  5
482
  8
Layer_0
  10
219.45584
  20
22.136642
  0
VERTEX
  5
483
  8
Layer_0
  10
219.52025
  20
21.652374
  0
VERTEX
  5
484
  8
Layer_0
  10
219.53802
  20
21.108307
  0
VERTEX
  5
485
  8
Layer_0
  10
219.52402
  20
20.394714
  0
VERTEX
  5
486
  8
Layer_0
  10
219.49677
  20
19.755417
  0
VERTEX
  5
487
  8
Layer_0
  10
219.45505
  20
19.130493
  0
VERTEX
  5
488
  8
Layer_0
  10
219.39922
  20
18.459564
  0
VERTEX
  5
489
  8
Layer_0
  10
219.03058
  20
18.463104
  0
VERTEX
  5
48a
  8
Layer_0
  10
219.05511
  20
21.013916
  0
VERTEX
  5
48b
  8
Layer_0
  10
219.0408
  20
21.500793
  0
VERTEX
  5
48c
  8
Layer_0
  10
218.98785
  20
21.926895
  0
VERTEX
  5
48d
  8
Layer_0
  10
218.89621
  20
22.292206
  0
VERTEX
  5
48e
  8
Layer_0
  10
218.76578
  20
22.59668
  0
SEQEND
  0
POLYLINE
  5
490
  8
Layer_0
  62
0
  70
1
  66
1
  10
0
  20
0
  30
0
  0
VERTEX
  5
490
  8
Layer_0
  10
212.01125
  20
-8.977356
  0
VERTEX
  5
491
  8
Layer_0
  10
212.02472
  20
-9.3101807
  0
VERTEX
  5
492
  8
Layer_0
  10
212.05588
  20
-9.611908
  0
VERTEX
  5
493
  8
Layer_0
  10
212.10518
  20
-9.8816528
  0
VERTEX
  5
494
  8
Layer_0
  10
212.17314
  20
-10.118546
  0
VERTEX
  5
495
  8
Layer_0
  10
212.27502
  20
-10.347137
  0
VERTEX
  5
496
  8
Layer_0
  10
212.40816
  20
-10.542328
  0
VERTEX
  5
497
  8
Layer_0
  10
212.57263
  20
-10.704193
  0
VERTEX
  5
498
  8
Layer_0
  10
212.76852
  20
-10.832794
  0
VERTEX
  5
499
  8
Layer_0
  10
213.00143
  20
-10.931137
  0
VERTEX
  5
49a
  8
Layer_0
  10
213.27704
  20
-11.002441
  0
VERTEX
  5
49b
  8
Layer_0
  10
213.59543
  20
-11.046677
  0
VERTEX
  5
49c
  8
Layer_0
  10
213.95662
  20
-11.063873
  0
VERTEX
  5
49d
  8
Layer_0
  10
214.28995
  20
-11.044052
  0
VERTEX
  5
49e
  8
Layer_0
  10
214.56696
  20
-10.977631
  0
VERTEX
  5
49f
  8
Layer_0
  10
214.78763
  20
-10.864609
  0
VERTEX
  5
4a0
  8
Layer_0
  10
214.95195
  20
-10.704987
  0
VERTEX
  5
4a1
  8
Layer_0
  10
215.07193
  20
-10.498001
  0
VERTEX
  5
4a2
  8
Layer_0
  10
215.15857
  20
-10.242874
  0
VERTEX
  5
4a3
  8
Layer_0
  10
215.21194
  20
-9.9395905
  0
VERTEX
  5
4a4
  8
Layer_0
  10
215.23213
  20
-9.5881348
  0
VERTEX
  5
4a5
  8
Layer_0
  10
215.2377
  20
-9.0083923
  0
VERTEX
  5
4a6
  8
Layer_0
  10
215.67693
  20
-9.012619
  0
VERTEX
  5
4a7
  8
Layer_0
  10
215.67108
  20
-9.6207886
  0
VERTEX
  5
4a8
  8
Layer_0
  10
215.65759
  20
-9.9213257
  0
VERTEX
  5
4a9
  8
Layer_0
  10
215.62309
  20
-10.199539
  0
VERTEX
  5
4aa
  8
Layer_0
  10
215.56755
  20
-10.455414
  0
VERTEX
  5
4ab
  8
Layer_0
  10
215.49094
  20
-10.688965
  0
VERTEX
  5
4ac
  8
Layer_0
  10
215.39091
  20
-10.898392
  0
VERTEX
  5
4ad
  8
Layer_0
  10
215.26559
  20
-11.081833
  0
VERTEX
  5
4ae
  8
Layer_0
  10
215.1149
  20
-11.239349
  0
VERTEX
  5
4af
  8
Layer_0
  10
214.93867
  20
-11.370972
  0
VERTEX
  5
4b0
  8
Layer_0
  10
214.73537
  20
-11.474426
  0
VERTEX
  5
4b1
  8
Layer_0
  10
214.50299
  20
-11.547516
  0
VERTEX
  5
4b2
  8
Layer_0
  10
214.24165
  20
-11.590225
  0
VERTEX
  5
4b3
  8
Layer_0
  10
213.95145
  20
-11.602509
  0
VERTEX
  5
4b4
  8
Layer_0
  10
213.50925
  20
-11.579193
  0
VERTEX
  5
4b5
  8
Layer_0
  10
213.1179
  20
-11.51828
  0
VERTEX
  5
4b6
  8
Layer_0
  10
212.77747
  20
-11.419769
  0
VERTEX
  5
4b7
  8
Layer_0
  10
212.48787
  20
-11.283691
  0
VERTEX
  5
4b8
  8
Layer_0
  10
212.24323
  20
-11.109863
  0
VERTEX
  5
4b9
  8
Layer_0
  10
212.03799
  20
-10.898376
  0
VERTEX
  5
4ba
  8
Layer_0
  10
211.87216
  20
-10.649246
  0
VERTEX
  5
4bb
  8
Layer_0
  10
211.74564
  20
-10.362518
  0
VERTEX
  5
4bc
  8
Layer_0
  10
211.6602
  20
-10.066025
  0
VERTEX
  5
4bd
  8
Layer_0
  10
211.5985
  20
-9.7350159
  0
VERTEX
  5
4be
  8
Layer_0
  10
211.55997
  20
-9.3703308
  0
VERTEX
  5
4bf
  8
Layer_0
  10
211.54405
  20
-8.9728699
  0
VERTEX
  5
4c0
  8
Layer_0
  10
212.01125
  20
-8.977356
  0
SEQEND
  0
POLYLINE
  5
4c2
  8
Layer_0
  62
0
  70
1
  66
1
  10
0
  20
0
  30
0
  0
VERTEX
  5
4c2
  8
Layer_0
  10
218.47762
  20
-7.3591003
  0
VERTEX
  5
4c3
  8
Layer_0
  10
218.30476
  20
-7.105835
  0
VERTEX
  5
4c4
  8
Layer_0
  10
218.08533
  20
-6.8946228
  0
VERTEX
  5
4c5
  8
Layer_0
  10
217.81944
  20
-6.7255249
  0
VERTEX
  5
4c6
  8
Layer_0
  10
217.5072
  20
-6.5985107
  0
VERTEX
  5
4c7
  8
Layer_0
  10
217.14281
  20
-6.5051575
  0
VERTEX
  5
4c8
  8
Layer_0
  10
216.72047
  20
-6.4369354
  0
VERTEX
  5
4c9
  8
Layer_0
  10
216.24028
  20
-6.3938293
  0
VERTEX
  5
4ca
  8
Layer_0
  10
215.7023
  20
-6.375824
  0
VERTEX
  5
4cb
  8
Layer_0
  10
215.6824
  20
-8.4434509
  0
VERTEX
  5
4cc
  8
Layer_0
  10
215.24318
  20
-8.439209
  0
VERTEX
  5
4cd
  8
Layer_0
  10
215.26308
  20
-6.3716125
  0
VERTEX
  5
4ce
  8
Layer_0
  10
214.66113
  20
-6.3791046
  0
VERTEX
  5
4cf
  8
Layer_0
  10
214.13068
  20
-6.4138336
  0
VERTEX
  5
4d0
  8
Layer_0
  10
213.67175
  20
-6.4758301
  0
VERTEX
  5
4d1
  8
Layer_0
  10
213.28433
  20
-6.5651398
  0
VERTEX
  5
4d2
  8
Layer_0
  10
212.95885
  20
-6.6890411
  0
VERTEX
  5
4d3
  8
Layer_0
  10
212.68619
  20
-6.8551178
  0
VERTEX
  5
4d4
  8
Layer_0
  10
212.46635
  20
-7.0633545
  0
VERTEX
  5
4d5
  8
Layer_0
  10
212.29935
  20
-7.3137817
  0
VERTEX
  5
4d6
  8
Layer_0
  10
212.20074
  20
-7.539917
  0
VERTEX
  5
4d7
  8
Layer_0
  10
212.1228
  20
-7.7979889
  0
VERTEX
  5
4d8
  8
Layer_0
  10
212.06525
  20
-8.0875854
  0
VERTEX
  5
4d9
  8
Layer_0
  10
212.02783
  20
-8.4082947
  0
VERTEX
  5
4da
  8
Layer_0
  10
211.56116
  20
-8.4038086
  0
VERTEX
  5
4db
  8
Layer_0
  10
211.60477
  20
-8.0051117
  0
VERTEX
  5
4dc
  8
Layer_0
  10
211.67499
  20
-7.6420288
  0
VERTEX
  5
4dd
  8
Layer_0
  10
211.77251
  20
-7.3155518
  0
VERTEX
  5
4de
  8
Layer_0
  10
211.89799
  20
-7.0265503
  0
VERTEX
  5
4df
  8
Layer_0
  10
212.10161
  20
-6.715332
  0
VERTEX
  5
4e0
  8
Layer_0
  10
212.36594
  20
-6.4517059
  0
VERTEX
  5
4e1
  8
Layer_0
  10
212.69095
  20
-6.2356262
  0
VERTEX
  5
4e2
  8
Layer_0
  10
213.07652
  20
-6.0670471
  0
VERTEX
  5
4e3
  8
Layer_0
  10
213.53342
  20
-5.9412842
  0
VERTEX
  5
4e4
  8
Layer_0
  10
214.07233
  20
-5.8535004
  0
VERTEX
  5
4e5
  8
Layer_0
  10
214.69325
  20
-5.8036804
  0
VERTEX
  5
4e6
  8
Layer_0
  10
215.39612
  20
-5.7918396
  0
VERTEX
  5
4e7
  8
Layer_0
  10
216.0873
  20
-5.8152924
  0
VERTEX
  5
4e8
  8
Layer_0
  10
216.70102
  20
-5.8716431
  0
VERTEX
  5
4e9
  8
Layer_0
  10
217.23729
  20
-5.9609375
  0
VERTEX
  5
4ea
  8
Layer_0
  10
217.69609
  20
-6.0832214
  0
VERTEX
  5
4eb
  8
Layer_0
  10
218.08658
  20
-6.2463074
  0
VERTEX
  5
4ec
  8
Layer_0
  10
218.41721
  20
-6.4584656
  0
VERTEX
  5
4ed
  8
Layer_0
  10
218.68794
  20
-6.7197113
  0
VERTEX
  5
4ee
  8
Layer_0
  10
218.89871
  20
-7.030014
  0
VERTEX
  5
4ef
  8
Layer_0
  10
219.05658
  20
-7.3946838
  0
VERTEX
  5
4f0
  8
Layer_0
  10
219.16769
  20
-7.8191528
  0
VERTEX
  5
4f1
  8
Layer_0
  10
219.23209
  20
-8.3034058
  0
VERTEX
  5
4f2
  8
Layer_0
  10
219.24986
  20
-8.8474579
  0
VERTEX
  5
4f3
  8
Layer_0
  10
219.23587
  20
-9.5610657
  0
VERTEX
  5
4f4
  8
Layer_0
  10
219.20862
  20
-10.200378
  0
VERTEX
  5
4f5
  8
Layer_0
  10
219.1669
  20
-10.825317
  0
VERTEX
  5
4f6
  8
Layer_0
  10
219.11105
  20
-11.496231
  0
VERTEX
  5
4f7
  8
Layer_0
  10
218.74243
  20
-11.492676
  0
VERTEX
  5
4f8
  8
Layer_0
  10
218.76697
  20
-8.941864
  0
VERTEX
  5
4f9
  8
Layer_0
  10
218.75264
  20
-8.4549866
  0
VERTEX
  5
4fa
  8
Layer_0
  10
218.69968
  20
-8.0288849
  0
VERTEX
  5
4fb
  8
Layer_0
  10
218.60803
  20
-7.6635742
  0
VERTEX
  5
4fc
  8
Layer_0
  10
218.47762
  20
-7.3591003
  0
SEQEND
  0
POLYLINE
  5
4fe
  8
Layer_0
  62
0
  70
1
  66
1
  10
0
  20
0
  30
0
  0
VERTEX
  5
4fe
  8
Layer_0
  10
218.4743
  20
-33.779602
  0
VERTEX
  5
4ff
  8
Layer_0
  10
218.39816
  20
-33.341263
  0
VERTEX
  5
500
  8
Layer_0
  10
218.27405
  20
-32.929703
  0
VERTEX
  5
501
  8
Layer_0
  10
218.03036
  20
-32.317902
  0
VERTEX
  5
502
  8
Layer_0
  10
217.78226
  20
-31.762909
  0
VERTEX
  5
503
  8
Layer_0
  10
212.56766
  20
-31.712738
  0
VERTEX
  5
504
  8
Layer_0
  10
212.25507
  20
-32.352722
  0
VERTEX
  5
505
  8
Layer_0
  10
212.01006
  20
-32.947311
  0
VERTEX
  5
506
  8
Layer_0
  10
211.90244
  20
-33.313766
  0
VERTEX
  5
507
  8
Layer_0
  10
211.83223
  20
-33.715714
  0
VERTEX
  5
508
  8
Layer_0
  10
211.37378
  20
-33.711304
  0
VERTEX
  5
509
  8
Layer_0
  10
211.45389
  20
-33.388046
  0
VERTEX
  5
50a
  8
Layer_0
  10
211.56258
  20
-33.049301
  0
VERTEX
  5
50b
  8
Layer_0
  10
211.84938
  20
-32.346954
  0
VERTEX
  5
50c
  8
Layer_0
  10
212.18492
  20
-31.709061
  0
VERTEX
  5
50d
  8
Layer_0
  10
208.13229
  20
-31.670074
  0
VERTEX
  5
50e
  8
Layer_0
  10
208.13788
  20
-31.089081
  0
VERTEX
  5
50f
  8
Layer_0
  10
218.9498
  20
-31.193085
  0
VERTEX
  5
510
  8
Layer_0
  10
218.94559
  20
-31.632309
  0
VERTEX
  5
511
  8
Layer_0
  10
218.15085
  20
-31.766449
  0
VERTEX
  5
512
  8
Layer_0
  10
218.3371
  20
-32.095932
  0
VERTEX
  5
513
  8
Layer_0
  10
218.5336
  20
-32.485703
  0
VERTEX
  5
514
  8
Layer_0
  10
218.71898
  20
-32.926804
  0
VERTEX
  5
515
  8
Layer_0
  10
218.87164
  20
-33.410202
  0
VERTEX
  5
516
  8
Layer_0
  10
218.91299
  20
-33.595566
  0
VERTEX
  5
517
  8
Layer_0
  10
218.94507
  20
-33.784134
  0
VERTEX
  5
518
  8
Layer_0
  10
218.4743
  20
-33.779602
  0
SEQEND
  0
POLYLINE
  5
51a
  8
Layer_0
  62
0
  70
1
  66
1
  10
0
  20
0
  30
0
  0
VERTEX
  5
51a
  8
Layer_0
  10
212.8588
  20
-36.796082
  0
VERTEX
  5
51b
  8
Layer_0
  10
212.46559
  20
-36.615143
  0
VERTEX
  5
51c
  8
Layer_0
  10
212.1329
  20
-36.399323
  0
VERTEX
  5
51d
  8
Layer_0
  10
211.86078
  20
-36.148682
  0
VERTEX
  5
51e
  8
Layer_0
  10
211.64917
  20
-35.863174
  0
VERTEX
  5
51f
  8
Layer_0
  10
211.49101
  20
-35.543213
  0
VERTEX
  5
520
  8
Layer_0
  10
211.37921
  20
-35.189178
  0
VERTEX
  5
521
  8
Layer_0
  10
211.3138
  20
-34.801102
  0
VERTEX
  5
522
  8
Layer_0
  10
211.29482
  20
-34.379013
  0
VERTEX
  5
523
  8
Layer_0
  10
211.30096
  20
-34.279846
  0
VERTEX
  5
524
  8
Layer_0
  10
211.79187
  20
-34.284561
  0
VERTEX
  5
525
  8
Layer_0
  10
211.80554
  20
-34.61322
  0
VERTEX
  5
526
  8
Layer_0
  10
211.85309
  20
-34.919189
  0
VERTEX
  5
527
  8
Layer_0
  10
211.93445
  20
-35.202515
  0
VERTEX
  5
528
  8
Layer_0
  10
212.04956
  20
-35.463257
  0
VERTEX
  5
529
  8
Layer_0
  10
212.21088
  20
-35.699463
  0
VERTEX
  5
52a
  8
Layer_0
  10
212.42987
  20
-35.909698
  0
VERTEX
  5
52b
  8
Layer_0
  10
212.7066
  20
-36.093948
  0
VERTEX
  5
52c
  8
Layer_0
  10
213.04112
  20
-36.252289
  0
VERTEX
  5
52d
  8
Layer_0
  10
213.44614
  20
-36.380096
  0
VERTEX
  5
52e
  8
Layer_0
  10
213.93381
  20
-36.473343
  0
VERTEX
  5
52f
  8
Layer_0
  10
214.50409
  20
-36.531998
  0
VERTEX
  5
530
  8
Layer_0
  10
215.15701
  20
-36.556
  0
VERTEX
  5
531
  8
Layer_0
  10
215.66853
  20
-36.545853
  0
VERTEX
  5
532
  8
Layer_0
  10
216.14058
  20
-36.505188
  0
VERTEX
  5
533
  8
Layer_0
  10
216.57304
  20
-36.434036
  0
VERTEX
  5
534
  8
Layer_0
  10
216.96585
  20
-36.332413
  0
VERTEX
  5
535
  8
Layer_0
  10
217.31708
  20
-36.199341
  0
VERTEX
  5
536
  8
Layer_0
  10
217.62428
  20
-36.034027
  0
VERTEX
  5
537
  8
Layer_0
  10
217.8875
  20
-35.836395
  0
VERTEX
  5
538
  8
Layer_0
  10
218.10669
  20
-35.606445
  0
VERTEX
  5
539
  8
Layer_0
  10
218.27971
  20
-35.343231
  0
VERTEX
  5
53a
  8
Layer_0
  10
218.40433
  20
-35.045975
  0
VERTEX
  5
53b
  8
Layer_0
  10
218.48059
  20
-34.71463
  0
VERTEX
  5
53c
  8
Layer_0
  10
218.50845
  20
-34.349167
  0
VERTEX
  5
53d
  8
Layer_0
  10
218.99706
  20
-34.353867
  0
VERTEX
  5
53e
  8
Layer_0
  10
219.00064
  20
-34.410431
  0
VERTEX
  5
53f
  8
Layer_0
  10
219.00342
  20
-34.467285
  0
VERTEX
  5
540
  8
Layer_0
  10
218.96835
  20
-34.937622
  0
VERTEX
  5
541
  8
Layer_0
  10
218.87265
  20
-35.356949
  0
VERTEX
  5
542
  8
Layer_0
  10
218.71632
  20
-35.725281
  0
VERTEX
  5
543
  8
Layer_0
  10
218.49939
  20
-36.042603
  0
VERTEX
  5
544
  8
Layer_0
  10
218.22928
  20
-36.314026
  0
VERTEX
  5
545
  8
Layer_0
  10
217.91347
  20
-36.545227
  0
VERTEX
  5
546
  8
Layer_0
  10
217.55199
  20
-36.736176
  0
VERTEX
  5
547
  8
Layer_0
  10
217.14487
  20
-36.886932
  0
VERTEX
  5
548
  8
Layer_0
  10
216.6987
  20
-37.000366
  0
VERTEX
  5
549
  8
Layer_0
  10
216.22006
  20
-37.079926
  0
VERTEX
  5
54a
  8
Layer_0
  10
215.70901
  20
-37.125534
  0
VERTEX
  5
54b
  8
Layer_0
  10
215.16557
  20
-37.137146
  0
VERTEX
  5
54c
  8
Layer_0
  10
214.47412
  20
-37.11055
  0
VERTEX
  5
54d
  8
Layer_0
  10
213.85912
  20
-37.044846
  0
VERTEX
  5
54e
  8
Layer_0
  10
213.32065
  20
-36.940018
  0
VERTEX
  5
54f
  8
Layer_0
  10
212.8588
  20
-36.796082
  0
SEQEND
  0
POLYLINE
  5
551
  8
Layer_0
  62
0
  70
1
  66
1
  10
0
  20
0
  30
0
  0
VERTEX
  5
551
  8
Layer_0
  10
211.69174
  20
-42.192215
  0
VERTEX
  5
552
  8
Layer_0
  10
211.70522
  20
-42.525024
  0
VERTEX
  5
553
  8
Layer_0
  10
211.73636
  20
-42.826767
  0
VERTEX
  5
554
  8
Layer_0
  10
211.78568
  20
-43.096527
  0
VERTEX
  5
555
  8
Layer_0
  10
211.85364
  20
-43.333435
  0
VERTEX
  5
556
  8
Layer_0
  10
211.95552
  20
-43.562012
  0
VERTEX
  5
557
  8
Layer_0
  10
212.08865
  20
-43.757202
  0
VERTEX
  5
558
  8
Layer_0
  10
212.25313
  20
-43.919083
  0
VERTEX
  5
559
  8
Layer_0
  10
212.44901
  20
-44.047684
  0
VERTEX
  5
55a
  8
Layer_0
  10
212.68192
  20
-44.145996
  0
VERTEX
  5
55b
  8
Layer_0
  10
212.95752
  20
-44.217285
  0
VERTEX
  5
55c
  8
Layer_0
  10
213.27591
  20
-44.26152
  0
VERTEX
  5
55d
  8
Layer_0
  10
213.63712
  20
-44.278732
  0
VERTEX
  5
55e
  8
Layer_0
  10
213.97043
  20
-44.258911
  0
VERTEX
  5
55f
  8
Layer_0
  10
214.24745
  20
-44.192474
  0
VERTEX
  5
560
  8
Layer_0
  10
214.46814
  20
-44.079453
  0
VERTEX
  5
561
  8
Layer_0
  10
214.63245
  20
-43.91983
  0
VERTEX
  5
562
  8
Layer_0
  10
214.75241
  20
-43.712845
  0
VERTEX
  5
563
  8
Layer_0
  10
214.83905
  20
-43.457733
  0
VERTEX
  5
564
  8
Layer_0
  10
214.89244
  20
-43.154465
  0
VERTEX
  5
565
  8
Layer_0
  10
214.91263
  20
-42.803009
  0
VERTEX
  5
566
  8
Layer_0
  10
214.9182
  20
-42.223251
  0
VERTEX
  5
567
  8
Layer_0
  10
215.35742
  20
-42.227478
  0
VERTEX
  5
568
  8
Layer_0
  10
215.35156
  20
-42.835632
  0
VERTEX
  5
569
  8
Layer_0
  10
215.33807
  20
-43.1362
  0
VERTEX
  5
56a
  8
Layer_0
  10
215.30357
  20
-43.414398
  0
VERTEX
  5
56b
  8
Layer_0
  10
215.24803
  20
-43.670258
  0
VERTEX
  5
56c
  8
Layer_0
  10
215.17142
  20
-43.903824
  0
VERTEX
  5
56d
  8
Layer_0
  10
215.0714
  20
-44.113235
  0
VERTEX
  5
56e
  8
Layer_0
  10
214.94608
  20
-44.296692
  0
VERTEX
  5
56f
  8
Layer_0
  10
214.79538
  20
-44.454224
  0
VERTEX
  5
570
  8
Layer_0
  10
214.61916
  20
-44.585861
  0
VERTEX
  5
571
  8
Layer_0
  10
214.41585
  20
-44.689285
  0
VERTEX
  5
572
  8
Layer_0
  10
214.18347
  20
-44.76236
  0
VERTEX
  5
573
  8
Layer_0
  10
213.92213
  20
-44.805069
  0
VERTEX
  5
574
  8
Layer_0
  10
213.63193
  20
-44.817352
  0
VERTEX
  5
575
  8
Layer_0
  10
213.18973
  20
-44.794052
  0
VERTEX
  5
576
  8
Layer_0
  10
212.79839
  20
-44.733124
  0
VERTEX
  5
577
  8
Layer_0
  10
212.45795
  20
-44.634613
  0
VERTEX
  5
578
  8
Layer_0
  10
212.16837
  20
-44.498535
  0
VERTEX
  5
579
  8
Layer_0
  10
211.92371
  20
-44.324707
  0
VERTEX
  5
57a
  8
Layer_0
  10
211.71848
  20
-44.113251
  0
VERTEX
  5
57b
  8
Layer_0
  10
211.55264
  20
-43.86412
  0
VERTEX
  5
57c
  8
Layer_0
  10
211.42612
  20
-43.577377
  0
VERTEX
  5
57d
  8
Layer_0
  10
211.34068
  20
-43.280869
  0
VERTEX
  5
57e
  8
Layer_0
  10
211.27899
  20
-42.94986
  0
VERTEX
  5
57f
  8
Layer_0
  10
211.24046
  20
-42.585175
  0
VERTEX
  5
580
  8
Layer_0
  10
211.22455
  20
-42.187714
  0
VERTEX
  5
581
  8
Layer_0
  10
211.69174
  20
-42.192215
  0
SEQEND
  0
POLYLINE
  5
583
  8
Layer_0
  62
0
  70
1
  66
1
  10
0
  20
0
  30
0
  0
VERTEX
  5
583
  8
Layer_0
  10
218.15811
  20
-40.573944
  0
VERTEX
  5
584
  8
Layer_0
  10
217.98526
  20
-40.320694
  0
VERTEX
  5
585
  8
Layer_0
  10
217.76584
  20
-40.109497
  0
VERTEX
  5
586
  8
Layer_0
  10
217.49994
  20
-39.940384
  0
VERTEX
  5
587
  8
Layer_0
  10
217.18768
  20
-39.813385
  0
VERTEX
  5
588
  8
Layer_0
  10
216.82329
  20
-39.720016
  0
VERTEX
  5
589
  8
Layer_0
  10
216.40097
  20
-39.651794
  0
VERTEX
  5
58a
  8
Layer_0
  10
215.92078
  20
-39.608688
  0
VERTEX
  5
58b
  8
Layer_0
  10
215.38278
  20
-39.590683
  0
VERTEX
  5
58c
  8
Layer_0
  10
215.3629
  20
-41.658295
  0
VERTEX
  5
58d
  8
Layer_0
  10
214.92368
  20
-41.654068
  0
VERTEX
  5
58e
  8
Layer_0
  10
214.94357
  20
-39.586456
  0
VERTEX
  5
58f
  8
Layer_0
  10
214.34163
  20
-39.593948
  0
VERTEX
  5
590
  8
Layer_0
  10
213.81116
  20
-39.628693
  0
VERTEX
  5
591
  8
Layer_0
  10
213.35223
  20
-39.690704
  0
VERTEX
  5
592
  8
Layer_0
  10
212.96481
  20
-39.779999
  0
VERTEX
  5
593
  8
Layer_0
  10
212.63934
  20
-39.9039
  0
VERTEX
  5
594
  8
Layer_0
  10
212.36668
  20
-40.069977
  0
VERTEX
  5
595
  8
Layer_0
  10
212.14685
  20
-40.278229
  0
VERTEX
  5
596
  8
Layer_0
  10
211.97984
  20
-40.528656
  0
VERTEX
  5
597
  8
Layer_0
  10
211.88126
  20
-40.754791
  0
VERTEX
  5
598
  8
Layer_0
  10
211.8033
  20
-41.012863
  0
VERTEX
  5
599
  8
Layer_0
  10
211.74576
  20
-41.30246
  0
VERTEX
  5
59a
  8
Layer_0
  10
211.70833
  20
-41.623138
  0
VERTEX
  5
59b
  8
Layer_0
  10
211.24165
  20
-41.618652
  0
VERTEX
  5
59c
  8
Layer_0
  10
211.28526
  20
-41.219955
  0
VERTEX
  5
59d
  8
Layer_0
  10
211.35548
  20
-40.856888
  0
VERTEX
  5
59e
  8
Layer_0
  10
211.453
  20
-40.530396
  0
VERTEX
  5
59f
  8
Layer_0
  10
211.57849
  20
-40.241409
  0
VERTEX
  5
5a0
  8
Layer_0
  10
211.7821
  20
-39.930206
  0
VERTEX
  5
5a1
  8
Layer_0
  10
212.04643
  20
-39.666565
  0
VERTEX
  5
5a2
  8
Layer_0
  10
212.37143
  20
-39.45047
  0
VERTEX
  5
5a3
  8
Layer_0
  10
212.75702
  20
-39.281891
  0
VERTEX
  5
5a4
  8
Layer_0
  10
213.2139
  20
-39.156158
  0
VERTEX
  5
5a5
  8
Layer_0
  10
213.75282
  20
-39.068359
  0
VERTEX
  5
5a6
  8
Layer_0
  10
214.37373
  20
-39.018524
  0
VERTEX
  5
5a7
  8
Layer_0
  10
215.0766
  20
-39.006683
  0
VERTEX
  5
5a8
  8
Layer_0
  10
215.76778
  20
-39.030151
  0
VERTEX
  5
5a9
  8
Layer_0
  10
216.3815
  20
-39.086487
  0
VERTEX
  5
5aa
  8
Layer_0
  10
216.91777
  20
-39.175781
  0
VERTEX
  5
5ab
  8
Layer_0
  10
217.37659
  20
-39.29808
  0
VERTEX
  5
5ac
  8
Layer_0
  10
217.76707
  20
-39.461166
  0
VERTEX
  5
5ad
  8
Layer_0
  10
218.09772
  20
-39.67334
  0
VERTEX
  5
5ae
  8
Layer_0
  10
218.36844
  20
-39.93457
  0
VERTEX
  5
5af
  8
Layer_0
  10
218.57919
  20
-40.244858
  0
VERTEX
  5
5b0
  8
Layer_0
  10
218.73706
  20
-40.609558
  0
VERTEX
  5
5b1
  8
Layer_0
  10
218.84818
  20
-41.034012
  0
VERTEX
  5
5b2
  8
Layer_0
  10
218.91258
  20
-41.51828
  0
VERTEX
  5
5b3
  8
Layer_0
  10
218.93036
  20
-42.062347
  0
VERTEX
  5
5b4
  8
Layer_0
  10
218.91635
  20
-42.775909
  0
VERTEX
  5
5b5
  8
Layer_0
  10
218.8891
  20
-43.415222
  0
VERTEX
  5
5b6
  8
Layer_0
  10
218.84738
  20
-44.040161
  0
VERTEX
  5
5b7
  8
Layer_0
  10
218.79155
  20
-44.71109
  0
VERTEX
  5
5b8
  8
Layer_0
  10
218.42291
  20
-44.707535
  0
VERTEX
  5
5b9
  8
Layer_0
  10
218.44745
  20
-42.156738
  0
VERTEX
  5
5ba
  8
Layer_0
  10
218.43314
  20
-41.669861
  0
VERTEX
  5
5bb
  8
Layer_0
  10
218.38019
  20
-41.243744
  0
VERTEX
  5
5bc
  8
Layer_0
  10
218.28854
  20
-40.878418
  0
VERTEX
  5
5bd
  8
Layer_0
  10
218.15811
  20
-40.573944
  0
SEQEND
  0
POLYLINE
  5
5bf
  8
Layer_0
  62
0
  70
1
  66
1
  10
0
  20
0
  30
0
  0
VERTEX
  5
5bf
  8
Layer_0
  10
221.65836
  20
-60.46759
  0
VERTEX
  5
5c0
  8
Layer_0
  10
221.66379
  20
-59.901978
  0
VERTEX
  5
5c1
  8
Layer_0
  10
221.64722
  20
-59.463745
  0
VERTEX
  5
5c2
  8
Layer_0
  10
221.58861
  20
-59.070343
  0
VERTEX
  5
5c3
  8
Layer_0
  10
221.48796
  20
-58.721771
  0
VERTEX
  5
5c4
  8
Layer_0
  10
221.34526
  20
-58.417969
  0
VERTEX
  5
5c5
  8
Layer_0
  10
221.14957
  20
-58.171036
  0
VERTEX
  5
5c6
  8
Layer_0
  10
220.8904
  20
-57.993607
  0
VERTEX
  5
5c7
  8
Layer_0
  10
220.56769
  20
-57.88559
  0
VERTEX
  5
5c8
  8
Layer_0
  10
220.18143
  20
-57.846924
  0
VERTEX
  5
5c9
  8
Layer_0
  10
219.78458
  20
-57.843094
  0
VERTEX
  5
5ca
  8
Layer_0
  10
219.51427
  20
-57.858658
  0
VERTEX
  5
5cb
  8
Layer_0
  10
219.27023
  20
-57.910767
  0
VERTEX
  5
5cc
  8
Layer_0
  10
219.05246
  20
-57.999481
  0
VERTEX
  5
5cd
  8
Layer_0
  10
218.86096
  20
-58.124817
  0
VERTEX
  5
5ce
  8
Layer_0
  10
218.69467
  20
-58.277664
  0
VERTEX
  5
5cf
  8
Layer_0
  10
218.5531
  20
-58.449432
  0
VERTEX
  5
5d0
  8
Layer_0
  10
218.43613
  20
-58.640076
  0
VERTEX
  5
5d1
  8
Layer_0
  10
218.34375
  20
-58.849548
  0
VERTEX
  5
5d2
  8
Layer_0
  10
218.27332
  20
-59.072083
  0
VERTEX
  5
5d3
  8
Layer_0
  10
218.22234
  20
-59.30188
  0
VERTEX
  5
5d4
  8
Layer_0
  10
218.19078
  20
-59.538986
  0
VERTEX
  5
5d5
  8
Layer_0
  10
218.17868
  20
-59.783371
  0
VERTEX
  5
5d6
  8
Layer_0
  10
218.17242
  20
-60.434067
  0
VERTEX
  5
5d7
  8
Layer_0
  10
217.6908
  20
-60.429428
  0
VERTEX
  5
5d8
  8
Layer_0
  10
217.70197
  20
-59.268539
  0
VERTEX
  5
5d9
  8
Layer_0
  10
217.69235
  20
-59.120575
  0
VERTEX
  5
5da
  8
Layer_0
  10
217.66058
  20
-58.974121
  0
VERTEX
  5
5db
  8
Layer_0
  10
217.60666
  20
-58.829193
  0
VERTEX
  5
5dc
  8
Layer_0
  10
217.5305
  20
-58.685837
  0
VERTEX
  5
5dd
  8
Layer_0
  10
217.42935
  20
-58.560852
  0
VERTEX
  5
5de
  8
Layer_0
  10
217.30048
  20
-58.471069
  0
VERTEX
  5
5df
  8
Layer_0
  10
217.1438
  20
-58.416458
  0
VERTEX
  5
5e0
  8
Layer_0
  10
216.95929
  20
-58.396973
  0
VERTEX
  5
5e1
  8
Layer_0
  10
216.71063
  20
-58.41983
  0
VERTEX
  5
5e2
  8
Layer_0
  10
216.50308
  20
-58.493591
  0
VERTEX
  5
5e3
  8
Layer_0
  10
216.33664
  20
-58.618225
  0
VERTEX
  5
5e4
  8
Layer_0
  10
216.21132
  20
-58.793732
  0
VERTEX
  5
5e5
  8
Layer_0
  10
216.1194
  20
-59.014709
  0
VERTEX
  5
5e6
  8
Layer_0
  10
216.0527
  20
-59.275787
  0
VERTEX
  5
5e7
  8
Layer_0
  10
216.01128
  20
-59.576965
  0
VERTEX
  5
5e8
  8
Layer_0
  10
215.99515
  20
-59.918259
  0
VERTEX
  5
5e9
  8
Layer_0
  10
215.99039
  20
-60.413071
  0
VERTEX
  5
5ea
  8
Layer_0
  10
215.50844
  20
-60.408447
  0
VERTEX
  5
5eb
  8
Layer_0
  10
215.51129
  20
-60.112045
  0
VERTEX
  5
5ec
  8
Layer_0
  10
215.48598
  20
-59.708298
  0
VERTEX
  5
5ed
  8
Layer_0
  10
215.40181
  20
-59.347366
  0
VERTEX
  5
5ee
  8
Layer_0
  10
215.25877
  20
-59.029312
  0
VERTEX
  5
5ef
  8
Layer_0
  10
215.05682
  20
-58.754181
  0
VERTEX
  5
5f0
  8
Layer_0
  10
214.78972
  20
-58.531525
  0
VERTEX
  5
5f1
  8
Layer_0
  10
214.45117
  20
-58.371078
  0
VERTEX
  5
5f2
  8
Layer_0
  10
214.04118
  20
-58.272842
  0
VERTEX
  5
5f3
  8
Layer_0
  10
213.55969
  20
-58.236771
  0
VERTEX
  5
5f4
  8
Layer_0
  10
213.30046
  20
-58.243011
  0
VERTEX
  5
5f5
  8
Layer_0
  10
213.0612
  20
-58.266937
  0
VERTEX
  5
5f6
  8
Layer_0
  10
212.84192
  20
-58.308533
  0
VERTEX
  5
5f7
  8
Layer_0
  10
212.64264
  20
-58.367813
  0
VERTEX
  5
5f8
  8
Layer_0
  10
212.46329
  20
-58.444794
  0
VERTEX
  5
5f9
  8
Layer_0
  10
212.30392
  20
-58.539459
  0
VERTEX
  5
5fa
  8
Layer_0
  10
212.16452
  20
-58.651825
  0
VERTEX
  5
5fb
  8
Layer_0
  10
212.04507
  20
-58.781906
  0
VERTEX
  5
5fc
  8
Layer_0
  10
211.85309
  20
-59.085159
  0
VERTEX
  5
5fd
  8
Layer_0
  10
211.71455
  20
-59.439438
  0
VERTEX
  5
5fe
  8
Layer_0
  10
211.62952
  20
-59.844742
  0
VERTEX
  5
5ff
  8
Layer_0
  10
211.59808
  20
-60.301071
  0
VERTEX
  5
600
  8
Layer_0
  10
211.59741
  20
-60.370819
  0
VERTEX
  5
601
  8
Layer_0
  10
211.10435
  20
-60.366074
  0
VERTEX
  5
602
  8
Layer_0
  10
211.12543
  20
-60.0065
  0
VERTEX
  5
603
  8
Layer_0
  10
211.17165
  20
-59.663818
  0
VERTEX
  5
604
  8
Layer_0
  10
211.24344
  20
-59.338303
  0
VERTEX
  5
605
  8
Layer_0
  10
211.34123
  20
-59.030243
  0
VERTEX
  5
606
  8
Layer_0
  10
211.47652
  20
-58.732574
  0
VERTEX
  5
607
  8
Layer_0
  10
211.64951
  20
-58.468079
  0
VERTEX
  5
608
  8
Layer_0
  10
211.86024
  20
-58.236725
  0
VERTEX
  5
609
  8
Layer_0
  10
212.10875
  20
-58.038513
  0
VERTEX
  5
60a
  8
Layer_0
  10
212.39868
  20
-57.880005
  0
VERTEX
  5
60b
  8
Layer_0
  10
212.73328
  20
-57.768097
  0
VERTEX
  5
60c
  8
Layer_0
  10
213.11252
  20
-57.702698
  0
VERTEX
  5
60d
  8
Layer_0
  10
213.53642
  20
-57.683762
  0
VERTEX
  5
60e
  8
Layer_0
  10
213.95262
  20
-57.71788
  0
VERTEX
  5
60f
  8
Layer_0
  10
214.37859
  20
-57.812302
  0
VERTEX
  5
610
  8
Layer_0
  10
214.59009
  20
-57.88652
  0
VERTEX
  5
611
  8
Layer_0
  10
214.79327
  20
-57.984604
  0
VERTEX
  5
612
  8
Layer_0
  10
214.98822
  20
-58.106537
  0
VERTEX
  5
613
  8
Layer_0
  10
215.17502
  20
-58.252319
  0
VERTEX
  5
614
  8
Layer_0
  10
215.34692
  20
-58.426544
  0
VERTEX
  5
615
  8
Layer_0
  10
215.49722
  20
-58.634308
  0
VERTEX
  5
616
  8
Layer_0
  10
215.62595
  20
-58.875595
  0
VERTEX
  5
617
  8
Layer_0
  10
215.73314
  20
-59.15036
  0
VERTEX
  5
618
  8
Layer_0
  10
215.80424
  20
-58.856934
  0
VERTEX
  5
619
  8
Layer_0
  10
215.89795
  20
-58.599243
  0
VERTEX
  5
61a
  8
Layer_0
  10
216.01431
  20
-58.377213
  0
VERTEX
  5
61b
  8
Layer_0
  10
216.15338
  20
-58.190765
  0
VERTEX
  5
61c
  8
Layer_0
  10
216.31958
  20
-58.043579
  0
VERTEX
  5
61d
  8
Layer_0
  10
216.51724
  20
-57.939209
  0
VERTEX
  5
61e
  8
Layer_0
  10
216.74635
  20
-57.87767
  0
VERTEX
  5
61f
  8
Layer_0
  10
217.00687
  20
-57.858917
  0
VERTEX
  5
620
  8
Layer_0
  10
217.2684
  20
-57.887543
  0
VERTEX
  5
621
  8
Layer_0
  10
217.50015
  20
-57.968109
  0
VERTEX
  5
622
  8
Layer_0
  10
217.70215
  20
-58.100708
  0
VERTEX
  5
623
  8
Layer_0
  10
217.87442
  20
-58.28537
  0
VERTEX
  5
624
  8
Layer_0
  10
217.97247
  20
-58.441757
  0
VERTEX
  5
625
  8
Layer_0
  10
218.05078
  20
-58.612335
  0
VERTEX
  5
626
  8
Layer_0
  10
218.06282
  20
-58.577591
  0
VERTEX
  5
627
  8
Layer_0
  10
218.18579
  20
-58.313934
  0
VERTEX
  5
628
  8
Layer_0
  10
218.33698
  20
-58.073578
  0
VERTEX
  5
629
  8
Layer_0
  10
218.51624
  20
-57.856552
  0
VERTEX
  5
62a
  8
Layer_0
  10
218.72343
  20
-57.662872
  0
VERTEX
  5
62b
  8
Layer_0
  10
218.95972
  20
-57.50386
  0
VERTEX
  5
62c
  8
Layer_0
  10
219.22571
  20
-57.391266
  0
VERTEX
  5
62d
  8
Layer_0
  10
219.52135
  20
-57.325073
  0
VERTEX
  5
62e
  8
Layer_0
  10
219.84657
  20
-57.305191
  0
VERTEX
  5
62f
  8
Layer_0
  10
220.24344
  20
-57.309006
  0
VERTEX
  5
630
  8
Layer_0
  10
220.55492
  20
-57.331924
  0
VERTEX
  5
631
  8
Layer_0
  10
220.83771
  20
-57.39444
  0
VERTEX
  5
632
  8
Layer_0
  10
221.09183
  20
-57.496521
  0
VERTEX
  5
633
  8
Layer_0
  10
221.31728
  20
-57.638199
  0
VERTEX
  5
634
  8
Layer_0
  10
221.51428
  20
-57.814575
  0
VERTEX
  5
635
  8
Layer_0
  10
221.68359
  20
-58.020737
  0
VERTEX
  5
636
  8
Layer_0
  10
221.82526
  20
-58.25679
  0
VERTEX
  5
637
  8
Layer_0
  10
221.93924
  20
-58.522751
  0
VERTEX
  5
638
  8
Layer_0
  10
222.02628
  20
-58.814545
  0
VERTEX
  5
639
  8
Layer_0
  10
222.08755
  20
-59.128265
  0
VERTEX
  5
63a
  8
Layer_0
  10
222.12296
  20
-59.463882
  0
VERTEX
  5
63b
  8
Layer_0
  10
222.13243
  20
-59.821396
  0
VERTEX
  5
63c
  8
Layer_0
  10
222.12617
  20
-60.472107
  0
VERTEX
  5
63d
  8
Layer_0
  10
221.65836
  20
-60.46759
  0
SEQEND
  0
POLYLINE
  5
63f
  8
Layer_0
  62
0
  70
1
  66
1
  10
0
  20
0
  30
0
  0
VERTEX
  5
63f
  8
Layer_0
  10
211.09619
  20
-60.935242
  0
VERTEX
  5
640
  8
Layer_0
  10
211.59193
  20
-60.940002
  0
VERTEX
  5
641
  8
Layer_0
  10
211.59032
  20
-61.108765
  0
VERTEX
  5
642
  8
Layer_0
  10
211.59956
  20
-61.390442
  0
VERTEX
  5
643
  8
Layer_0
  10
211.6329
  20
-61.654709
  0
VERTEX
  5
644
  8
Layer_0
  10
211.6904
  20
-61.90152
  0
VERTEX
  5
645
  8
Layer_0
  10
211.77205
  20
-62.130814
  0
VERTEX
  5
646
  8
Layer_0
  10
211.88249
  20
-62.340424
  0
VERTEX
  5
647
  8
Layer_0
  10
212.02682
  20
-62.528259
  0
VERTEX
  5
648
  8
Layer_0
  10
212.20502
  20
-62.694305
  0
VERTEX
  5
649
  8
Layer_0
  10
212.41705
  20
-62.838638
  0
VERTEX
  5
64a
  8
Layer_0
  10
212.66524
  20
-62.955688
  0
VERTEX
  5
64b
  8
Layer_0
  10
212.95181
  20
-63.04039
  0
VERTEX
  5
64c
  8
Layer_0
  10
213.27682
  20
-63.092697
  0
VERTEX
  5
64d
  8
Layer_0
  10
213.64024
  20
-63.112595
  0
VERTEX
  5
64e
  8
Layer_0
  10
213.87108
  20
-63.104187
  0
VERTEX
  5
64f
  8
Layer_0
  10
214.09592
  20
-63.074463
  0
VERTEX
  5
650
  8
Layer_0
  10
214.31474
  20
-63.023392
  0
VERTEX
  5
651
  8
Layer_0
  10
214.52759
  20
-62.950943
  0
VERTEX
  5
652
  8
Layer_0
  10
214.72829
  20
-62.849686
  0
VERTEX
  5
653
  8
Layer_0
  10
214.91075
  20
-62.711929
  0
VERTEX
  5
654
  8
Layer_0
  10
215.07495
  20
-62.53772
  0
VERTEX
  5
655
  8
Layer_0
  10
215.2209
  20
-62.327133
  0
VERTEX
  5
656
  8
Layer_0
  10
215.34114
  20
-62.071808
  0
VERTEX
  5
657
  8
Layer_0
  10
215.42819
  20
-61.763916
  0
VERTEX
  5
658
  8
Layer_0
  10
215.48207
  20
-61.403473
  0
VERTEX
  5
659
  8
Layer_0
  10
215.50284
  20
-60.990509
  0
VERTEX
  5
65a
  8
Layer_0
  10
215.50296
  20
-60.977631
  0
VERTEX
  5
65b
  8
Layer_0
  10
215.98491
  20
-60.982269
  0
VERTEX
  5
65c
  8
Layer_0
  10
215.98424
  20
-61.051788
  0
VERTEX
  5
65d
  8
Layer_0
  10
215.95789
  20
-61.533844
  0
VERTEX
  5
65e
  8
Layer_0
  10
215.88869
  20
-61.959656
  0
VERTEX
  5
65f
  8
Layer_0
  10
215.77661
  20
-62.329254
  0
VERTEX
  5
660
  8
Layer_0
  10
215.62169
  20
-62.642624
  0
VERTEX
  5
661
  8
Layer_0
  10
215.43445
  20
-62.906586
  0
VERTEX
  5
662
  8
Layer_0
  10
215.22549
  20
-63.127808
  0
VERTEX
  5
663
  8
Layer_0
  10
214.99481
  20
-63.306305
  0
VERTEX
  5
664
  8
Layer_0
  10
214.74234
  20
-63.442062
  0
VERTEX
  5
665
  8
Layer_0
  10
214.47755
  20
-63.541794
  0
VERTEX
  5
666
  8
Layer_0
  10
214.20941
  20
-63.612274
  0
VERTEX
  5
667
  8
Layer_0
  10
213.93796
  20
-63.653473
  0
VERTEX
  5
668
  8
Layer_0
  10
213.66318
  20
-63.665436
  0
VERTEX
  5
669
  8
Layer_0
  10
213.30826
  20
-63.64917
  0
VERTEX
  5
66a
  8
Layer_0
  10
212.99425
  20
-63.607605
  0
VERTEX
  5
66b
  8
Layer_0
  10
212.72118
  20
-63.540756
  0
VERTEX
  5
66c
  8
Layer_0
  10
212.48904
  20
-63.448624
  0
VERTEX
  5
66d
  8
Layer_0
  10
212.29123
  20
-63.339035
  0
VERTEX
  5
66e
  8
Layer_0
  10
212.12097
  20
-63.220032
  0
VERTEX
  5
66f
  8
Layer_0
  10
211.97836
  20
-63.091583
  0
VERTEX
  5
670
  8
Layer_0
  10
211.86334
  20
-62.95372
  0
VERTEX
  5
671
  8
Layer_0
  10
211.68341
  20
-62.686188
  0
VERTEX
  5
672
  8
Layer_0
  10
211.5491
  20
-62.454773
  0
VERTEX
  5
673
  8
Layer_0
  10
211.41641
  20
-64.465866
  0
VERTEX
  5
674
  8
Layer_0
  10
211.06226
  20
-64.462463
  0
VERTEX
  5
675
  8
Layer_0
  10
211.09619
  20
-60.935242
  0
SEQEND
  0
POLYLINE
  5
677
  8
Layer_0
  62
0
  70
1
  66
1
  10
0
  20
0
  30
0
  0
VERTEX
  5
677
  8
Layer_0
  10
217.8885
  20
-63.443878
  0
VERTEX
  5
678
  8
Layer_0
  10
217.7923
  20
-63.143982
  0
VERTEX
  5
679
  8
Layer_0
  10
217.7247
  20
-62.806274
  0
VERTEX
  5
67a
  8
Layer_0
  10
217.68576
  20
-62.430801
  0
VERTEX
  5
67b
  8
Layer_0
  10
217.67552
  20
-62.017563
  0
VERTEX
  5
67c
  8
Layer_0
  10
217.68533
  20
-60.998627
  0
VERTEX
  5
67d
  8
Layer_0
  10
218.16695
  20
-61.00325
  0
VERTEX
  5
67e
  8
Layer_0
  10
218.15768
  20
-61.965546
  0
VERTEX
  5
67f
  8
Layer_0
  10
218.16597
  20
-62.346024
  0
VERTEX
  5
680
  8
Layer_0
  10
218.19865
  20
-62.679794
  0
VERTEX
  5
681
  8
Layer_0
  10
218.25575
  20
-62.966888
  0
VERTEX
  5
682
  8
Layer_0
  10
218.33728
  20
-63.207382
  0
VERTEX
  5
683
  8
Layer_0
  10
218.44028
  20
-63.408463
  0
VERTEX
  5
684
  8
Layer_0
  10
218.56216
  20
-63.577881
  0
VERTEX
  5
685
  8
Layer_0
  10
218.70294
  20
-63.715637
  0
VERTEX
  5
686
  8
Layer_0
  10
218.86264
  20
-63.821747
  0
VERTEX
  5
687
  8
Layer_0
  10
219.03992
  20
-63.900909
  0
VERTEX
  5
688
  8
Layer_0
  10
219.23338
  20
-63.958099
  0
VERTEX
  5
689
  8
Layer_0
  10
219.44301
  20
-63.993317
  0
VERTEX
  5
68a
  8
Layer_0
  10
219.66876
  20
-64.006561
  0
VERTEX
  5
68b
  8
Layer_0
  10
219.99467
  20
-64.009689
  0
VERTEX
  5
68c
  8
Layer_0
  10
220.38556
  20
-63.9767
  0
VERTEX
  5
68d
  8
Layer_0
  10
220.72218
  20
-63.869675
  0
VERTEX
  5
68e
  8
Layer_0
  10
221.00461
  20
-63.688614
  0
VERTEX
  5
68f
  8
Layer_0
  10
221.23291
  20
-63.433502
  0
VERTEX
  5
690
  8
Layer_0
  10
221.40964
  20
-63.11322
  0
VERTEX
  5
691
  8
Layer_0
  10
221.53729
  20
-62.736664
  0
VERTEX
  5
692
  8
Layer_0
  10
221.61588
  20
-62.303879
  0
VERTEX
  5
693
  8
Layer_0
  10
221.64539
  20
-61.814941
  0
VERTEX
  5
694
  8
Layer_0
  10
221.65286
  20
-61.036789
  0
VERTEX
  5
695
  8
Layer_0
  10
222.1207
  20
-61.04129
  0
VERTEX
  5
696
  8
Layer_0
  10
222.11295
  20
-61.847687
  0
VERTEX
  5
697
  8
Layer_0
  10
222.10109
  20
-62.170624
  0
VERTEX
  5
698
  8
Layer_0
  10
222.07191
  20
-62.47348
  0
VERTEX
  5
699
  8
Layer_0
  10
222.02544
  20
-62.756226
  0
VERTEX
  5
69a
  8
Layer_0
  10
221.96167
  20
-63.018921
  0
VERTEX
  5
69b
  8
Layer_0
  10
221.8806
  20
-63.261475
  0
VERTEX
  5
69c
  8
Layer_0
  10
221.78224
  20
-63.483963
  0
VERTEX
  5
69d
  8
Layer_0
  10
221.6666
  20
-63.68634
  0
VERTEX
  5
69e
  8
Layer_0
  10
221.53366
  20
-63.868607
  0
VERTEX
  5
69f
  8
Layer_0
  10
221.38531
  20
-64.029907
  0
VERTEX
  5
6a0
  8
Layer_0
  10
221.22372
  20
-64.169418
  0
VERTEX
  5
6a1
  8
Layer_0
  10
221.04886
  20
-64.287125
  0
VERTEX
  5
6a2
  8
Layer_0
  10
220.86072
  20
-64.382996
  0
VERTEX
  5
6a3
  8
Layer_0
  10
220.6593
  20
-64.457062
  0
VERTEX
  5
6a4
  8
Layer_0
  10
220.44461
  20
-64.509277
  0
VERTEX
  5
6a5
  8
Layer_0
  10
220.21661
  20
-64.539673
  0
VERTEX
  5
6a6
  8
Layer_0
  10
219.97534
  20
-64.548203
  0
VERTEX
  5
6a7
  8
Layer_0
  10
219.60675
  20
-64.544647
  0
VERTEX
  5
6a8
  8
Layer_0
  10
219.30093
  20
-64.525299
  0
VERTEX
  5
6a9
  8
Layer_0
  10
219.02115
  20
-64.473419
  0
VERTEX
  5
6aa
  8
Layer_0
  10
218.76738
  20
-64.389038
  0
VERTEX
  5
6ab
  8
Layer_0
  10
218.53964
  20
-64.272186
  0
VERTEX
  5
6ac
  8
Layer_0
  10
218.33772
  20
-64.120453
  0
VERTEX
  5
6ad
  8
Layer_0
  10
218.16193
  20
-63.931824
  0
VERTEX
  5
6ae
  8
Layer_0
  10
218.01221
  20
-63.706329
  0
VERTEX
  5
6af
  8
Layer_0
  10
217.8885
  20
-63.443878
  0
SEQEND
  0
POLYLINE
  5
6b1
  8
Layer_0
  62
0
  70
1
  66
1
  10
0
  20
0
  30
0
  0
VERTEX
  5
6b1
  8
Layer_0
  10
211.88135
  20
-22.417953
  0
VERTEX
  5
6b2
  8
Layer_0
  10
211.89407
  20
-22.757568
  0
VERTEX
  5
6b3
  8
Layer_0
  10
211.92505
  20
-23.065063
  0
VERTEX
  5
6b4
  8
Layer_0
  10
211.97476
  20
-23.3396
  0
VERTEX
  5
6b5
  8
Layer_0
  10
212.04364
  20
-23.580353
  0
VERTEX
  5
6b6
  8
Layer_0
  10
212.14552
  20
-23.808914
  0
VERTEX
  5
6b7
  8
Layer_0
  10
212.27867
  20
-24.004089
  0
VERTEX
  5
6b8
  8
Layer_0
  10
212.44315
  20
-24.16597
  0
VERTEX
  5
6b9
  8
Layer_0
  10
212.63902
  20
-24.294586
  0
VERTEX
  5
6ba
  8
Layer_0
  10
212.87192
  20
-24.392914
  0
VERTEX
  5
6bb
  8
Layer_0
  10
213.14754
  20
-24.464203
  0
VERTEX
  5
6bc
  8
Layer_0
  10
213.46591
  20
-24.508438
  0
VERTEX
  5
6bd
  8
Layer_0
  10
213.82713
  20
-24.525635
  0
VERTEX
  5
6be
  8
Layer_0
  10
214.16043
  20
-24.505814
  0
VERTEX
  5
6bf
  8
Layer_0
  10
214.43745
  20
-24.439392
  0
VERTEX
  5
6c0
  8
Layer_0
  10
214.65814
  20
-24.32637
  0
VERTEX
  5
6c1
  8
Layer_0
  10
214.82245
  20
-24.166748
  0
VERTEX
  5
6c2
  8
Layer_0
  10
214.94241
  20
-23.959763
  0
VERTEX
  5
6c3
  8
Layer_0
  10
215.02905
  20
-23.704651
  0
VERTEX
  5
6c4
  8
Layer_0
  10
215.08244
  20
-23.401367
  0
VERTEX
  5
6c5
  8
Layer_0
  10
215.10263
  20
-23.049927
  0
VERTEX
  5
6c6
  8
Layer_0
  10
215.10841
  20
-22.449005
  0
VERTEX
  5
6c7
  8
Layer_0
  10
215.54764
  20
-22.453217
  0
VERTEX
  5
6c8
  8
Layer_0
  10
215.54158
  20
-23.08255
  0
VERTEX
  5
6c9
  8
Layer_0
  10
215.52808
  20
-23.383087
  0
VERTEX
  5
6ca
  8
Layer_0
  10
215.49359
  20
-23.661301
  0
VERTEX
  5
6cb
  8
Layer_0
  10
215.43805
  20
-23.917175
  0
VERTEX
  5
6cc
  8
Layer_0
  10
215.36143
  20
-24.150726
  0
VERTEX
  5
6cd
  8
Layer_0
  10
215.26143
  20
-24.360153
  0
VERTEX
  5
6ce
  8
Layer_0
  10
215.13611
  20
-24.54361
  0
VERTEX
  5
6cf
  8
Layer_0
  10
214.98538
  20
-24.701126
  0
VERTEX
  5
6d0
  8
Layer_0
  10
214.80917
  20
-24.832764
  0
VERTEX
  5
6d1
  8
Layer_0
  10
214.60588
  20
-24.936188
  0
VERTEX
  5
6d2
  8
Layer_0
  10
214.3735
  20
-25.009277
  0
VERTEX
  5
6d3
  8
Layer_0
  10
214.11217
  20
-25.051987
  0
VERTEX
  5
6d4
  8
Layer_0
  10
213.82195
  20
-25.06427
  0
VERTEX
  5
6d5
  8
Layer_0
  10
213.37973
  20
-25.04097
  0
VERTEX
  5
6d6
  8
Layer_0
  10
212.9884
  20
-24.980042
  0
VERTEX
  5
6d7
  8
Layer_0
  10
212.64795
  20
-24.881531
  0
VERTEX
  5
6d8
  8
Layer_0
  10
212.35838
  20
-24.745453
  0
VERTEX
  5
6d9
  8
Layer_0
  10
212.11372
  20
-24.571625
  0
VERTEX
  5
6da
  8
Layer_0
  10
211.90851
  20
-24.360138
  0
VERTEX
  5
6db
  8
Layer_0
  10
211.74268
  20
-24.111023
  0
VERTEX
  5
6dc
  8
Layer_0
  10
211.61613
  20
-23.82428
  0
VERTEX
  5
6dd
  8
Layer_0
  10
211.52972
  20
-23.523773
  0
VERTEX
  5
6de
  8
Layer_0
  10
211.46761
  20
-23.187943
  0
VERTEX
  5
6df
  8
Layer_0
  10
211.42924
  20
-22.817566
  0
VERTEX
  5
6e0
  8
Layer_0
  10
211.41409
  20
-22.413452
  0
VERTEX
  5
6e1
  8
Layer_0
  10
211.88135
  20
-22.417953
  0
SEQEND
  0
POLYLINE
  5
6e3
  8
Layer_0
  62
0
  70
1
  66
1
  10
0
  20
0
  30
0
  0
VERTEX
  5
6e3
  8
Layer_0
  10
218.34811
  20
-20.820862
  0
VERTEX
  5
6e4
  8
Layer_0
  10
218.17526
  20
-20.567596
  0
VERTEX
  5
6e5
  8
Layer_0
  10
217.95584
  20
-20.3564
  0
VERTEX
  5
6e6
  8
Layer_0
  10
217.68994
  20
-20.187286
  0
VERTEX
  5
6e7
  8
Layer_0
  10
217.3777
  20
-20.060287
  0
VERTEX
  5
6e8
  8
Layer_0
  10
217.01331
  20
-19.966919
  0
VERTEX
  5
6e9
  8
Layer_0
  10
216.59097
  20
-19.898712
  0
VERTEX
  5
6ea
  8
Layer_0
  10
216.11078
  20
-19.855591
  0
VERTEX
  5
6eb
  8
Layer_0
  10
215.5728
  20
-19.837601
  0
VERTEX
  5
6ec
  8
Layer_0
  10
215.55312
  20
-21.884003
  0
VERTEX
  5
6ed
  8
Layer_0
  10
215.11389
  20
-21.879791
  0
VERTEX
  5
6ee
  8
Layer_0
  10
215.13358
  20
-19.833374
  0
VERTEX
  5
6ef
  8
Layer_0
  10
214.53165
  20
-19.840866
  0
VERTEX
  5
6f0
  8
Layer_0
  10
214.00119
  20
-19.87561
  0
VERTEX
  5
6f1
  8
Layer_0
  10
213.54224
  20
-19.937622
  0
VERTEX
  5
6f2
  8
Layer_0
  10
213.15483
  20
-20.026901
  0
VERTEX
  5
6f3
  8
Layer_0
  10
212.82935
  20
-20.150818
  0
VERTEX
  5
6f4
  8
Layer_0
  10
212.5567
  20
-20.316895
  0
VERTEX
  5
6f5
  8
Layer_0
  10
212.33687
  20
-20.525146
  0
VERTEX
  5
6f6
  8
Layer_0
  10
212.16986
  20
-20.775574
  0
VERTEX
  5
6f7
  8
Layer_0
  10
212.07248
  20
-20.997925
  0
VERTEX
  5
6f8
  8
Layer_0
  10
211.99503
  20
-21.251053
  0
VERTEX
  5
6f9
  8
Layer_0
  10
211.93736
  20
-21.534775
  0
VERTEX
  5
6fa
  8
Layer_0
  10
211.89932
  20
-21.848862
  0
VERTEX
  5
6fb
  8
Layer_0
  10
211.43272
  20
-21.844376
  0
VERTEX
  5
6fc
  8
Layer_0
  10
211.47705
  20
-21.452271
  0
VERTEX
  5
6fd
  8
Layer_0
  10
211.54739
  20
-21.095016
  0
VERTEX
  5
6fe
  8
Layer_0
  10
211.64435
  20
-20.773438
  0
VERTEX
  5
6ff
  8
Layer_0
  10
211.76851
  20
-20.488327
  0
VERTEX
  5
700
  8
Layer_0
  10
211.97212
  20
-20.177124
  0
VERTEX
  5
701
  8
Layer_0
  10
212.23645
  20
-19.913483
  0
VERTEX
  5
702
  8
Layer_0
  10
212.56146
  20
-19.697388
  0
VERTEX
  5
703
  8
Layer_0
  10
212.94704
  20
-19.528809
  0
VERTEX
  5
704
  8
Layer_0
  10
213.40392
  20
-19.403076
  0
VERTEX
  5
705
  8
Layer_0
  10
213.94283
  20
-19.315277
  0
VERTEX
  5
706
  8
Layer_0
  10
214.56375
  20
-19.265442
  0
VERTEX
  5
707
  8
Layer_0
  10
215.26662
  20
-19.253601
  0
VERTEX
  5
708
  8
Layer_0
  10
215.95779
  20
-19.277054
  0
VERTEX
  5
709
  8
Layer_0
  10
216.57152
  20
-19.333405
  0
VERTEX
  5
70a
  8
Layer_0
  10
217.10779
  20
-19.422699
  0
VERTEX
  5
70b
  8
Layer_0
  10
217.5666
  20
-19.544983
  0
VERTEX
  5
70c
  8
Layer_0
  10
217.95708
  20
-19.708069
  0
VERTEX
  5
70d
  8
Layer_0
  10
218.28772
  20
-19.920227
  0
VERTEX
  5
70e
  8
Layer_0
  10
218.55844
  20
-20.181473
  0
VERTEX
  5
70f
  8
Layer_0
  10
218.7692
  20
-20.491776
  0
VERTEX
  5
710
  8
Layer_0
  10
218.92708
  20
-20.856476
  0
VERTEX
  5
711
  8
Layer_0
  10
219.03818
  20
-21.28093
  0
VERTEX
  5
712
  8
Layer_0
  10
219.10258
  20
-21.765182
  0
VERTEX
  5
713
  8
Layer_0
  10
219.12036
  20
-22.30925
  0
VERTEX
  5
714
  8
Layer_0
  10
219.10635
  20
-23.022827
  0
VERTEX
  5
715
  8
Layer_0
  10
219.07912
  20
-23.66214
  0
VERTEX
  5
716
  8
Layer_0
  10
219.03741
  20
-24.287079
  0
VERTEX
  5
717
  8
Layer_0
  10
218.98157
  20
-24.957993
  0
VERTEX
  5
718
  8
Layer_0
  10
218.61293
  20
-24.954453
  0
VERTEX
  5
719
  8
Layer_0
  10
218.63748
  20
-22.403641
  0
VERTEX
  5
71a
  8
Layer_0
  10
218.62315
  20
-21.916779
  0
VERTEX
  5
71b
  8
Layer_0
  10
218.57019
  20
-21.490662
  0
VERTEX
  5
71c
  8
Layer_0
  10
218.47855
  20
-21.125336
  0
VERTEX
  5
71d
  8
Layer_0
  10
218.34811
  20
-20.820862
  0
SEQEND
  0
POLYLINE
  5
71f
  8
Layer_0
  62
0
  70
1
  66
1
  10
0
  20
0
  30
0
  0
VERTEX
  5
71f
  8
Layer_0
  10
189.06244
  20
-88.848816
  0
VERTEX
  5
720
  8
Layer_0
  10
189.05638
  20
-85.848755
  0
VERTEX
  5
721
  8
Layer_0
  10
187.05637
  20
-85.852783
  0
VERTEX
  5
722
  8
Layer_0
  10
187.05031
  20
-82.852814
  0
VERTEX
  5
723
  8
Layer_0
  10
189.05032
  20
-82.84877
  0
VERTEX
  5
724
  8
Layer_0
  10
188.93219
  20
-24.348907
  0
VERTEX
  5
725
  8
Layer_0
  10
186.93217
  20
-24.352951
  0
VERTEX
  5
726
  8
Layer_0
  10
186.92612
  20
-21.352936
  0
VERTEX
  5
727
  8
Layer_0
  10
188.92613
  20
-21.348892
  0
VERTEX
  5
728
  8
Layer_0
  10
188.80794
  20
37.174469
  0
VERTEX
  5
729
  8
Layer_0
  10
188.77226
  20
40.149872
  0
VERTEX
  5
72a
  8
Layer_0
  10
186.80191
  20
40.146942
  0
VERTEX
  5
72b
  8
Layer_0
  10
149.71849
  20
40.072052
  0
VERTEX
  5
72c
  8
Layer_0
  10
149.71844
  20
40.095551
  0
VERTEX
  5
72d
  8
Layer_0
  10
146.80196
  20
40.089661
  0
VERTEX
  5
72e
  8
Layer_0
  10
146.80801
  20
37.089661
  0
VERTEX
  5
72f
  8
Layer_0
  10
148.80801
  20
37.093689
  0
VERTEX
  5
730
  8
Layer_0
  10
148.92621
  20
-21.429672
  0
VERTEX
  5
731
  8
Layer_0
  10
146.92621
  20
-21.433716
  0
VERTEX
  5
732
  8
Layer_0
  10
146.93227
  20
-24.433731
  0
VERTEX
  5
733
  8
Layer_0
  10
148.93227
  20
-24.429688
  0
VERTEX
  5
734
  8
Layer_0
  10
149.0504
  20
-82.92955
  0
VERTEX
  5
735
  8
Layer_0
  10
147.0504
  20
-82.933594
  0
VERTEX
  5
736
  8
Layer_0
  10
147.02144
  20
-84.578064
  0
VERTEX
  5
737
  8
Layer_0
  10
149.08051
  20
-84.626953
  0
VERTEX
  5
738
  8
Layer_0
  10
149.06252
  20
-88.929596
  0
VERTEX
  5
739
  8
Layer_0
  10
189.06244
  20
-88.848816
  0
SEQEND
  0
POLYLINE
  5
73b
  8
Layer_0
  62
0
  70
1
  66
1
  10
0
  20
0
  30
0
  0
VERTEX
  5
73b
  8
Layer_0
  10
179.95253
  20
-84.843658
  0
VERTEX
  5
73c
  8
Layer_0
  10
182.95251
  20
-84.837601
  0
VERTEX
  5
73d
  8
Layer_0
  10
182.95654
  20
-86.837585
  0
VERTEX
  5
73e
  8
Layer_0
  10
179.95656
  20
-86.843658
  0
VERTEX
  5
73f
  8
Layer_0
  10
179.95253
  20
-84.843658
  0
SEQEND
  0
POLYLINE
  5
741
  8
Layer_0
  62
0
  70
1
  66
1
  10
0
  20
0
  30
0
  0
VERTEX
  5
741
  8
Layer_0
  10
155.15617
  20
-84.893738
  0
VERTEX
  5
742
  8
Layer_0
  10
158.15616
  20
-84.88768
  0
VERTEX
  5
743
  8
Layer_0
  10
158.16019
  20
-86.887665
  0
VERTEX
  5
744
  8
Layer_0
  10
155.1602
  20
-86.893738
  0
VERTEX
  5
745
  8
Layer_0
  10
155.15617
  20
-84.893738
  0
SEQEND
  0
ENDSEC
  0
EOF
