  0
SECTION
  2
HEADER
  9
$ACADVER
  1
AC1009
  0
ENDSEC
  0
SECTION
  2
ENTITIES
  0
POLYLINE
  5
90
  8
Layer_0
  62
0
  70
1
  66
1
  10
0
  20
0
  30
0
  0
VERTEX
  5
90
  8
Layer_0
  10
-162.21783
  20
-62.275208
  0
VERTEX
  5
91
  8
Layer_0
  10
-176.52893
  20
-38.343002
  0
VERTEX
  5
92
  8
Layer_0
  10
-162.28552
  20
-14.999985
  0
VERTEX
  5
93
  8
Layer_0
  10
-176.34775
  20
-14.999985
  0
VERTEX
  5
94
  8
Layer_0
  10
-183.91924
  20
-27.289566
  0
VERTEX
  5
95
  8
Layer_0
  10
-191.49077
  20
-14.999985
  0
VERTEX
  5
96
  8
Layer_0
  10
-205.55295
  20
-14.999985
  0
VERTEX
  5
97
  8
Layer_0
  10
-191.30954
  20
-38.343002
  0
VERTEX
  5
98
  8
Layer_0
  10
-205.62068
  20
-62.275208
  0
VERTEX
  5
99
  8
Layer_0
  10
-205.62068
  20
-65
  0
VERTEX
  5
9a
  8
Layer_0
  10
-191.845
  20
-65
  0
VERTEX
  5
9b
  8
Layer_0
  10
-191.845
  20
-62.275208
  0
VERTEX
  5
9c
  8
Layer_0
  10
-191.86391
  20
-62.275208
  0
VERTEX
  5
9d
  8
Layer_0
  10
-183.91924
  20
-49.365845
  0
VERTEX
  5
9e
  8
Layer_0
  10
-175.97461
  20
-62.275208
  0
VERTEX
  5
9f
  8
Layer_0
  10
-175.9682
  20
-62.275208
  0
VERTEX
  5
a0
  8
Layer_0
  10
-175.9682
  20
-65
  0
VERTEX
  5
a1
  8
Layer_0
  10
-162.21001
  20
-65
  0
VERTEX
  5
a2
  8
Layer_0
  10
-162.21001
  20
-62.275208
  0
VERTEX
  5
a3
  8
Layer_0
  10
-162.21783
  20
-62.275208
  0
SEQEND
  0
POLYLINE
  5
a5
  8
Layer_0
  62
0
  70
1
  66
1
  10
0
  20
0
  30
0
  0
VERTEX
  5
a5
  8
Layer_0
  10
-113.09918
  20
-62.275208
  0
VERTEX
  5
a6
  8
Layer_0
  10
-127.41028
  20
-38.343002
  0
VERTEX
  5
a7
  8
Layer_0
  10
-113.16687
  20
-14.999985
  0
VERTEX
  5
a8
  8
Layer_0
  10
-127.22909
  20
-14.999985
  0
VERTEX
  5
a9
  8
Layer_0
  10
-134.80058
  20
-27.289566
  0
VERTEX
  5
aa
  8
Layer_0
  10
-142.3721
  20
-14.999985
  0
VERTEX
  5
ab
  8
Layer_0
  10
-156.4343
  20
-14.999985
  0
VERTEX
  5
ac
  8
Layer_0
  10
-142.19089
  20
-38.343002
  0
VERTEX
  5
ad
  8
Layer_0
  10
-156.50201
  20
-62.275208
  0
VERTEX
  5
ae
  8
Layer_0
  10
-156.50201
  20
-65
  0
VERTEX
  5
af
  8
Layer_0
  10
-142.72633
  20
-65
  0
VERTEX
  5
b0
  8
Layer_0
  10
-142.72633
  20
-62.275208
  0
VERTEX
  5
b1
  8
Layer_0
  10
-142.74524
  20
-62.275208
  0
VERTEX
  5
b2
  8
Layer_0
  10
-134.80058
  20
-49.365845
  0
VERTEX
  5
b3
  8
Layer_0
  10
-126.85596
  20
-62.275208
  0
VERTEX
  5
b4
  8
Layer_0
  10
-126.84953
  20
-62.275208
  0
VERTEX
  5
b5
  8
Layer_0
  10
-126.84953
  20
-65
  0
VERTEX
  5
b6
  8
Layer_0
  10
-113.09134
  20
-65
  0
VERTEX
  5
b7
  8
Layer_0
  10
-113.09134
  20
-62.275208
  0
VERTEX
  5
b8
  8
Layer_0
  10
-113.09918
  20
-62.275208
  0
SEQEND
  0
POLYLINE
  5
ba
  8
Layer_0
  62
0
  70
1
  66
1
  10
0
  20
0
  30
0
  0
VERTEX
  5
ba
  8
Layer_0
  10
-63.980515
  20
-62.275208
  0
VERTEX
  5
bb
  8
Layer_0
  10
-78.291611
  20
-38.343002
  0
VERTEX
  5
bc
  8
Layer_0
  10
-64.048203
  20
-14.999985
  0
VERTEX
  5
bd
  8
Layer_0
  10
-78.110428
  20
-14.999985
  0
VERTEX
  5
be
  8
Layer_0
  10
-85.681915
  20
-27.289566
  0
VERTEX
  5
bf
  8
Layer_0
  10
-93.253448
  20
-14.999985
  0
VERTEX
  5
c0
  8
Layer_0
  10
-107.31563
  20
-14.999985
  0
VERTEX
  5
c1
  8
Layer_0
  10
-93.07222
  20
-38.343002
  0
VERTEX
  5
c2
  8
Layer_0
  10
-107.38336
  20
-62.275208
  0
VERTEX
  5
c3
  8
Layer_0
  10
-107.38336
  20
-65
  0
VERTEX
  5
c4
  8
Layer_0
  10
-93.607681
  20
-65
  0
VERTEX
  5
c5
  8
Layer_0
  10
-93.607681
  20
-62.275208
  0
VERTEX
  5
c6
  8
Layer_0
  10
-93.626587
  20
-62.275208
  0
VERTEX
  5
c7
  8
Layer_0
  10
-85.681915
  20
-49.365845
  0
VERTEX
  5
c8
  8
Layer_0
  10
-77.737289
  20
-62.275208
  0
VERTEX
  5
c9
  8
Layer_0
  10
-77.730881
  20
-62.275208
  0
VERTEX
  5
ca
  8
Layer_0
  10
-77.730881
  20
-65
  0
VERTEX
  5
cb
  8
Layer_0
  10
-63.972687
  20
-65
  0
VERTEX
  5
cc
  8
Layer_0
  10
-63.972687
  20
-62.275208
  0
VERTEX
  5
cd
  8
Layer_0
  10
-63.980515
  20
-62.275208
  0
SEQEND
  0
POLYLINE
  5
cf
  8
Layer_0
  62
0
  70
1
  66
1
  10
0
  20
0
  30
0
  0
VERTEX
  5
cf
  8
Layer_0
  10
-14.861847
  20
-62.275208
  0
VERTEX
  5
d0
  8
Layer_0
  10
-29.172943
  20
-38.343002
  0
VERTEX
  5
d1
  8
Layer_0
  10
-14.92955
  20
-14.999985
  0
VERTEX
  5
d2
  8
Layer_0
  10
-28.99176
  20
-14.999985
  0
VERTEX
  5
d3
  8
Layer_0
  10
-36.563263
  20
-27.289566
  0
VERTEX
  5
d4
  8
Layer_0
  10
-44.134781
  20
-14.999985
  0
VERTEX
  5
d5
  8
Layer_0
  10
-58.196976
  20
-14.999985
  0
VERTEX
  5
d6
  8
Layer_0
  10
-43.953598
  20
-38.343002
  0
VERTEX
  5
d7
  8
Layer_0
  10
-58.264694
  20
-62.275208
  0
VERTEX
  5
d8
  8
Layer_0
  10
-58.264694
  20
-65
  0
VERTEX
  5
d9
  8
Layer_0
  10
-44.489044
  20
-65
  0
VERTEX
  5
da
  8
Layer_0
  10
-44.489044
  20
-62.275208
  0
VERTEX
  5
db
  8
Layer_0
  10
-44.507935
  20
-62.275208
  0
VERTEX
  5
dc
  8
Layer_0
  10
-36.563263
  20
-49.365845
  0
VERTEX
  5
dd
  8
Layer_0
  10
-28.618637
  20
-62.275208
  0
VERTEX
  5
de
  8
Layer_0
  10
-28.612213
  20
-62.275208
  0
VERTEX
  5
df
  8
Layer_0
  10
-28.612213
  20
-65
  0
VERTEX
  5
e0
  8
Layer_0
  10
-14.854004
  20
-65
  0
VERTEX
  5
e1
  8
Layer_0
  10
-14.854004
  20
-62.275208
  0
VERTEX
  5
e2
  8
Layer_0
  10
-14.861847
  20
-62.275208
  0
SEQEND
  0
POLYLINE
  5
e4
  8
Layer_0
  62
0
  70
1
  66
1
  10
0
  20
0
  30
0
  0
VERTEX
  5
e4
  8
Layer_0
  10
34.256805
  20
-62.275208
  0
VERTEX
  5
e5
  8
Layer_0
  10
19.94574
  20
-38.343002
  0
VERTEX
  5
e6
  8
Layer_0
  10
34.189117
  20
-14.999985
  0
VERTEX
  5
e7
  8
Layer_0
  10
20.126892
  20
-14.999985
  0
VERTEX
  5
e8
  8
Layer_0
  10
12.55542
  20
-27.289566
  0
VERTEX
  5
e9
  8
Layer_0
  10
4.9838867
  20
-14.999985
  0
VERTEX
  5
ea
  8
Layer_0
  10
-9.0783081
  20
-14.999985
  0
VERTEX
  5
eb
  8
Layer_0
  10
5.1651001
  20
-38.343002
  0
VERTEX
  5
ec
  8
Layer_0
  10
-9.1460419
  20
-62.275208
  0
VERTEX
  5
ed
  8
Layer_0
  10
-9.1460419
  20
-65
  0
VERTEX
  5
ee
  8
Layer_0
  10
4.6296387
  20
-65
  0
VERTEX
  5
ef
  8
Layer_0
  10
4.6296387
  20
-62.275208
  0
VERTEX
  5
f0
  8
Layer_0
  10
4.610733
  20
-62.275208
  0
VERTEX
  5
f1
  8
Layer_0
  10
12.55542
  20
-49.365845
  0
VERTEX
  5
f2
  8
Layer_0
  10
20.500031
  20
-62.275208
  0
VERTEX
  5
f3
  8
Layer_0
  10
20.50647
  20
-62.275208
  0
VERTEX
  5
f4
  8
Layer_0
  10
20.50647
  20
-65
  0
VERTEX
  5
f5
  8
Layer_0
  10
34.264618
  20
-65
  0
VERTEX
  5
f6
  8
Layer_0
  10
34.264618
  20
-62.275208
  0
VERTEX
  5
f7
  8
Layer_0
  10
34.256805
  20
-62.275208
  0
SEQEND
  0
POLYLINE
  5
f9
  8
Layer_0
  62
0
  70
1
  66
1
  10
0
  20
0
  30
0
  0
VERTEX
  5
f9
  8
Layer_0
  10
83.375488
  20
-62.275208
  0
VERTEX
  5
fa
  8
Layer_0
  10
69.064362
  20
-38.343002
  0
VERTEX
  5
fb
  8
Layer_0
  10
83.30777
  20
-14.999985
  0
VERTEX
  5
fc
  8
Layer_0
  10
69.245544
  20
-14.999985
  0
VERTEX
  5
fd
  8
Layer_0
  10
61.674072
  20
-27.289566
  0
VERTEX
  5
fe
  8
Layer_0
  10
54.102539
  20
-14.999985
  0
VERTEX
  5
ff
  8
Layer_0
  10
40.040344
  20
-14.999985
  0
VERTEX
  5
100
  8
Layer_0
  10
54.283752
  20
-38.343002
  0
VERTEX
  5
101
  8
Layer_0
  10
39.972626
  20
-62.275208
  0
VERTEX
  5
102
  8
Layer_0
  10
39.972626
  20
-65
  0
VERTEX
  5
103
  8
Layer_0
  10
53.748291
  20
-65
  0
VERTEX
  5
104
  8
Layer_0
  10
53.748291
  20
-62.275208
  0
VERTEX
  5
105
  8
Layer_0
  10
53.729401
  20
-62.275208
  0
VERTEX
  5
106
  8
Layer_0
  10
61.674072
  20
-49.365845
  0
VERTEX
  5
107
  8
Layer_0
  10
69.618683
  20
-62.275208
  0
VERTEX
  5
108
  8
Layer_0
  10
69.625122
  20
-62.275208
  0
VERTEX
  5
109
  8
Layer_0
  10
69.625122
  20
-65
  0
VERTEX
  5
10a
  8
Layer_0
  10
83.383301
  20
-65
  0
VERTEX
  5
10b
  8
Layer_0
  10
83.383301
  20
-62.275208
  0
VERTEX
  5
10c
  8
Layer_0
  10
83.375488
  20
-62.275208
  0
SEQEND
  0
POLYLINE
  5
10e
  8
Layer_0
  62
0
  70
1
  66
1
  10
0
  20
0
  30
0
  0
VERTEX
  5
10e
  8
Layer_0
  10
132.49411
  20
-62.275208
  0
VERTEX
  5
10f
  8
Layer_0
  10
118.18301
  20
-38.343002
  0
VERTEX
  5
110
  8
Layer_0
  10
132.42642
  20
-14.999985
  0
VERTEX
  5
111
  8
Layer_0
  10
118.36423
  20
-14.999985
  0
VERTEX
  5
112
  8
Layer_0
  10
110.79272
  20
-27.289566
  0
VERTEX
  5
113
  8
Layer_0
  10
103.22119
  20
-14.999985
  0
VERTEX
  5
114
  8
Layer_0
  10
89.159027
  20
-14.999985
  0
VERTEX
  5
115
  8
Layer_0
  10
103.40244
  20
-38.343002
  0
VERTEX
  5
116
  8
Layer_0
  10
89.091278
  20
-62.275208
  0
VERTEX
  5
117
  8
Layer_0
  10
89.091278
  20
-65
  0
VERTEX
  5
118
  8
Layer_0
  10
102.86697
  20
-65
  0
VERTEX
  5
119
  8
Layer_0
  10
102.86697
  20
-62.275208
  0
VERTEX
  5
11a
  8
Layer_0
  10
102.84805
  20
-62.275208
  0
VERTEX
  5
11b
  8
Layer_0
  10
110.79272
  20
-49.365845
  0
VERTEX
  5
11c
  8
Layer_0
  10
118.73734
  20
-62.275208
  0
VERTEX
  5
11d
  8
Layer_0
  10
118.74377
  20
-62.275208
  0
VERTEX
  5
11e
  8
Layer_0
  10
118.74377
  20
-65
  0
VERTEX
  5
11f
  8
Layer_0
  10
132.50195
  20
-65
  0
VERTEX
  5
120
  8
Layer_0
  10
132.50195
  20
-62.275208
  0
VERTEX
  5
121
  8
Layer_0
  10
132.49411
  20
-62.275208
  0
SEQEND
  0
POLYLINE
  5
123
  8
Layer_0
  62
0
  70
1
  66
1
  10
0
  20
0
  30
0
  0
VERTEX
  5
123
  8
Layer_0
  10
181.61279
  20
-62.275208
  0
VERTEX
  5
124
  8
Layer_0
  10
167.3017
  20
-38.343002
  0
VERTEX
  5
125
  8
Layer_0
  10
181.5451
  20
-14.999985
  0
VERTEX
  5
126
  8
Layer_0
  10
167.48285
  20
-14.999985
  0
VERTEX
  5
127
  8
Layer_0
  10
159.91141
  20
-27.289566
  0
VERTEX
  5
128
  8
Layer_0
  10
152.33984
  20
-14.999985
  0
VERTEX
  5
129
  8
Layer_0
  10
138.27768
  20
-14.999985
  0
VERTEX
  5
12a
  8
Layer_0
  10
152.52106
  20
-38.343002
  0
VERTEX
  5
12b
  8
Layer_0
  10
138.20993
  20
-62.275208
  0
VERTEX
  5
12c
  8
Layer_0
  10
138.20993
  20
-65
  0
VERTEX
  5
12d
  8
Layer_0
  10
151.98563
  20
-65
  0
VERTEX
  5
12e
  8
Layer_0
  10
151.98563
  20
-62.275208
  0
VERTEX
  5
12f
  8
Layer_0
  10
151.96671
  20
-62.275208
  0
VERTEX
  5
130
  8
Layer_0
  10
159.91141
  20
-49.365845
  0
VERTEX
  5
131
  8
Layer_0
  10
167.85602
  20
-62.275208
  0
VERTEX
  5
132
  8
Layer_0
  10
167.86243
  20
-62.275208
  0
VERTEX
  5
133
  8
Layer_0
  10
167.86243
  20
-65
  0
VERTEX
  5
134
  8
Layer_0
  10
181.62064
  20
-65
  0
VERTEX
  5
135
  8
Layer_0
  10
181.62064
  20
-62.275208
  0
VERTEX
  5
136
  8
Layer_0
  10
181.61279
  20
-62.275208
  0
SEQEND
  0
POLYLINE
  5
138
  8
Layer_0
  62
0
  70
1
  66
1
  10
0
  20
0
  30
0
  0
VERTEX
  5
138
  8
Layer_0
  10
58.432571
  20
38.896255
  0
VERTEX
  5
139
  8
Layer_0
  10
72.208267
  20
38.896255
  0
VERTEX
  5
13a
  8
Layer_0
  10
72.208267
  20
36.896255
  0
VERTEX
  5
13b
  8
Layer_0
  10
58.432571
  20
36.896255
  0
VERTEX
  5
13c
  8
Layer_0
  10
58.432571
  20
38.896255
  0
SEQEND
  0
POLYLINE
  5
13e
  8
Layer_0
  62
0
  70
1
  66
1
  10
0
  20
0
  30
0
  0
VERTEX
  5
13e
  8
Layer_0
  10
28.797592
  20
38.896255
  0
VERTEX
  5
13f
  8
Layer_0
  10
42.573227
  20
38.896255
  0
VERTEX
  5
140
  8
Layer_0
  10
42.573227
  20
36.896255
  0
VERTEX
  5
141
  8
Layer_0
  10
28.797592
  20
36.896255
  0
VERTEX
  5
142
  8
Layer_0
  10
28.797592
  20
38.896255
  0
SEQEND
  0
POLYLINE
  5
144
  8
Layer_0
  62
0
  70
1
  66
1
  10
0
  20
0
  30
0
  0
VERTEX
  5
144
  8
Layer_0
  10
74.495361
  20
60.776474
  0
VERTEX
  5
145
  8
Layer_0
  10
88.270996
  20
60.776474
  0
VERTEX
  5
146
  8
Layer_0
  10
88.270996
  20
58.776443
  0
VERTEX
  5
147
  8
Layer_0
  10
74.495361
  20
58.776443
  0
VERTEX
  5
148
  8
Layer_0
  10
74.495361
  20
60.776474
  0
SEQEND
  0
POLYLINE
  5
14a
  8
Layer_0
  62
0
  70
1
  66
1
  10
0
  20
0
  30
0
  0
VERTEX
  5
14a
  8
Layer_0
  10
44.860321
  20
60.776474
  0
VERTEX
  5
14b
  8
Layer_0
  10
58.636017
  20
60.776474
  0
VERTEX
  5
14c
  8
Layer_0
  10
58.636017
  20
58.776443
  0
VERTEX
  5
14d
  8
Layer_0
  10
44.860321
  20
58.776443
  0
VERTEX
  5
14e
  8
Layer_0
  10
44.860321
  20
60.776474
  0
SEQEND
  0
POLYLINE
  5
150
  8
Layer_0
  62
0
  70
1
  66
1
  10
0
  20
0
  30
0
  0
VERTEX
  5
150
  8
Layer_0
  10
85.845886
  20
82.656662
  0
VERTEX
  5
151
  8
Layer_0
  10
99.621552
  20
82.656662
  0
VERTEX
  5
152
  8
Layer_0
  10
99.621552
  20
80.656631
  0
VERTEX
  5
153
  8
Layer_0
  10
85.845886
  20
80.656631
  0
VERTEX
  5
154
  8
Layer_0
  10
85.845886
  20
82.656662
  0
SEQEND
  0
POLYLINE
  5
156
  8
Layer_0
  62
0
  70
1
  66
1
  10
0
  20
0
  30
0
  0
VERTEX
  5
156
  8
Layer_0
  10
56.210876
  20
82.656662
  0
VERTEX
  5
157
  8
Layer_0
  10
69.986572
  20
82.656662
  0
VERTEX
  5
158
  8
Layer_0
  10
69.986572
  20
80.656631
  0
VERTEX
  5
159
  8
Layer_0
  10
56.210876
  20
80.656631
  0
VERTEX
  5
15a
  8
Layer_0
  10
56.210876
  20
82.656662
  0
SEQEND
  0
POLYLINE
  5
15c
  8
Layer_0
  62
0
  70
1
  66
1
  10
0
  20
0
  30
0
  0
VERTEX
  5
15c
  8
Layer_0
  10
101.90866
  20
104.53682
  0
VERTEX
  5
15d
  8
Layer_0
  10
115.68433
  20
104.53682
  0
VERTEX
  5
15e
  8
Layer_0
  10
115.68433
  20
102.53682
  0
VERTEX
  5
15f
  8
Layer_0
  10
101.90866
  20
102.53682
  0
VERTEX
  5
160
  8
Layer_0
  10
101.90866
  20
104.53682
  0
SEQEND
  0
POLYLINE
  5
162
  8
Layer_0
  62
0
  70
1
  66
1
  10
0
  20
0
  30
0
  0
VERTEX
  5
162
  8
Layer_0
  10
72.273651
  20
104.53682
  0
VERTEX
  5
163
  8
Layer_0
  10
86.049316
  20
104.53682
  0
VERTEX
  5
164
  8
Layer_0
  10
86.049316
  20
102.53682
  0
VERTEX
  5
165
  8
Layer_0
  10
72.273651
  20
102.53682
  0
VERTEX
  5
166
  8
Layer_0
  10
72.273651
  20
104.53682
  0
SEQEND
  0
POLYLINE
  5
168
  8
Layer_0
  62
0
  70
1
  66
1
  10
0
  20
0
  30
0
  0
VERTEX
  5
168
  8
Layer_0
  10
86.049316
  20
148.29723
  0
VERTEX
  5
169
  8
Layer_0
  10
72.273651
  20
148.29723
  0
VERTEX
  5
16a
  8
Layer_0
  10
72.273651
  20
146.29723
  0
VERTEX
  5
16b
  8
Layer_0
  10
86.049316
  20
146.29723
  0
VERTEX
  5
16c
  8
Layer_0
  10
86.049316
  20
148.29723
  0
SEQEND
  0
POLYLINE
  5
16e
  8
Layer_0
  62
0
  70
1
  66
1
  10
0
  20
0
  30
0
  0
VERTEX
  5
16e
  8
Layer_0
  10
115.68433
  20
148.29723
  0
VERTEX
  5
16f
  8
Layer_0
  10
101.90866
  20
148.29723
  0
VERTEX
  5
170
  8
Layer_0
  10
101.90866
  20
146.29723
  0
VERTEX
  5
171
  8
Layer_0
  10
115.68433
  20
146.29723
  0
VERTEX
  5
172
  8
Layer_0
  10
115.68433
  20
148.29723
  0
SEQEND
  0
POLYLINE
  5
174
  8
Layer_0
  62
0
  70
1
  66
1
  10
0
  20
0
  30
0
  0
VERTEX
  5
174
  8
Layer_0
  10
69.986572
  20
170.17741
  0
VERTEX
  5
175
  8
Layer_0
  10
56.210876
  20
170.17741
  0
VERTEX
  5
176
  8
Layer_0
  10
56.210876
  20
168.17741
  0
VERTEX
  5
177
  8
Layer_0
  10
69.986572
  20
168.17741
  0
VERTEX
  5
178
  8
Layer_0
  10
69.986572
  20
170.17741
  0
SEQEND
  0
POLYLINE
  5
17a
  8
Layer_0
  62
0
  70
1
  66
1
  10
0
  20
0
  30
0
  0
VERTEX
  5
17a
  8
Layer_0
  10
99.621552
  20
170.17741
  0
VERTEX
  5
17b
  8
Layer_0
  10
85.845886
  20
170.17741
  0
VERTEX
  5
17c
  8
Layer_0
  10
85.845886
  20
168.17741
  0
VERTEX
  5
17d
  8
Layer_0
  10
99.621552
  20
168.17741
  0
VERTEX
  5
17e
  8
Layer_0
  10
99.621552
  20
170.17741
  0
SEQEND
  0
POLYLINE
  5
180
  8
Layer_0
  62
0
  70
1
  66
1
  10
0
  20
0
  30
0
  0
VERTEX
  5
180
  8
Layer_0
  10
58.636017
  20
192.0576
  0
VERTEX
  5
181
  8
Layer_0
  10
44.860321
  20
192.0576
  0
VERTEX
  5
182
  8
Layer_0
  10
44.860321
  20
190.0576
  0
VERTEX
  5
183
  8
Layer_0
  10
58.636017
  20
190.0576
  0
VERTEX
  5
184
  8
Layer_0
  10
58.636017
  20
192.0576
  0
SEQEND
  0
POLYLINE
  5
186
  8
Layer_0
  62
0
  70
1
  66
1
  10
0
  20
0
  30
0
  0
VERTEX
  5
186
  8
Layer_0
  10
88.270996
  20
192.0576
  0
VERTEX
  5
187
  8
Layer_0
  10
74.495361
  20
192.0576
  0
VERTEX
  5
188
  8
Layer_0
  10
74.495361
  20
190.0576
  0
VERTEX
  5
189
  8
Layer_0
  10
88.270996
  20
190.0576
  0
VERTEX
  5
18a
  8
Layer_0
  10
88.270996
  20
192.0576
  0
SEQEND
  0
POLYLINE
  5
18c
  8
Layer_0
  62
0
  70
1
  66
1
  10
0
  20
0
  30
0
  0
VERTEX
  5
18c
  8
Layer_0
  10
42.573227
  20
213.93782
  0
VERTEX
  5
18d
  8
Layer_0
  10
28.797592
  20
213.93782
  0
VERTEX
  5
18e
  8
Layer_0
  10
28.797592
  20
211.93779
  0
VERTEX
  5
18f
  8
Layer_0
  10
42.573227
  20
211.93779
  0
VERTEX
  5
190
  8
Layer_0
  10
42.573227
  20
213.93782
  0
SEQEND
  0
POLYLINE
  5
192
  8
Layer_0
  62
0
  70
1
  66
1
  10
0
  20
0
  30
0
  0
VERTEX
  5
192
  8
Layer_0
  10
72.208267
  20
213.93782
  0
VERTEX
  5
193
  8
Layer_0
  10
58.432571
  20
213.93782
  0
VERTEX
  5
194
  8
Layer_0
  10
58.432571
  20
211.93779
  0
VERTEX
  5
195
  8
Layer_0
  10
72.208267
  20
211.93779
  0
VERTEX
  5
196
  8
Layer_0
  10
72.208267
  20
213.93782
  0
SEQEND
  0
POLYLINE
  5
198
  8
Layer_0
  62
0
  70
1
  66
1
  10
0
  20
0
  30
0
  0
VERTEX
  5
198
  8
Layer_0
  10
137.5029
  20
125.36781
  0
VERTEX
  5
199
  8
Layer_0
  10
135.94507
  20
127.93166
  0
VERTEX
  5
19a
  8
Layer_0
  10
134.30988
  20
126.93806
  0
VERTEX
  5
19b
  8
Layer_0
  10
103.86185
  20
176.88982
  0
VERTEX
  5
19c
  8
Layer_0
  10
105.56735
  20
177.9261
  0
VERTEX
  5
19d
  8
Layer_0
  10
104.00952
  20
180.48988
  0
VERTEX
  5
19e
  8
Layer_0
  10
102.30045
  20
179.4514
  0
VERTEX
  5
19f
  8
Layer_0
  10
70.86795
  20
231.0182
  0
VERTEX
  5
1a0
  8
Layer_0
  10
63.455078
  20
231.0182
  0
VERTEX
  5
1a1
  8
Layer_0
  10
63.455078
  20
233.0182
  0
VERTEX
  5
1a2
  8
Layer_0
  10
60.455078
  20
233.0182
  0
VERTEX
  5
1a3
  8
Layer_0
  10
60.455078
  20
231.0182
  0
VERTEX
  5
1a4
  8
Layer_0
  10
18.366394
  20
231.0182
  0
VERTEX
  5
1a5
  8
Layer_0
  10
18.366394
  20
233.0182
  0
VERTEX
  5
1a6
  8
Layer_0
  10
15.366409
  20
233.0182
  0
VERTEX
  5
1a7
  8
Layer_0
  10
15.366409
  20
231.0182
  0
VERTEX
  5
1a8
  8
Layer_0
  10
10.582321
  20
231.0182
  0
VERTEX
  5
1a9
  8
Layer_0
  10
10.775848
  20
230.52357
  0
VERTEX
  5
1aa
  8
Layer_0
  10
41.269302
  20
180.54897
  0
VERTEX
  5
1ab
  8
Layer_0
  10
39.572464
  20
179.51793
  0
VERTEX
  5
1ac
  8
Layer_0
  10
41.130341
  20
176.95415
  0
VERTEX
  5
1ad
  8
Layer_0
  10
42.831909
  20
177.98805
  0
VERTEX
  5
1ae
  8
Layer_0
  10
73.388077
  20
127.91066
  0
VERTEX
  5
1af
  8
Layer_0
  10
71.823059
  20
126.95973
  0
VERTEX
  5
1b0
  8
Layer_0
  10
72.836304
  20
125.29219
  0
VERTEX
  5
1b1
  8
Layer_0
  10
71.823059
  20
123.62468
  0
VERTEX
  5
1b2
  8
Layer_0
  10
73.345474
  20
122.69963
  0
VERTEX
  5
1b3
  8
Layer_0
  10
42.779144
  20
72.605453
  0
VERTEX
  5
1b4
  8
Layer_0
  10
41.092545
  20
73.630234
  0
VERTEX
  5
1b5
  8
Layer_0
  10
39.534683
  20
71.066422
  0
VERTEX
  5
1b6
  8
Layer_0
  10
41.216507
  20
70.04451
  0
VERTEX
  5
1b7
  8
Layer_0
  10
10.733307
  20
20.086685
  0
VERTEX
  5
1b8
  8
Layer_0
  10
10.734039
  20
19.815903
  0
VERTEX
  5
1b9
  8
Layer_0
  10
16.30748
  20
19.815903
  0
VERTEX
  5
1ba
  8
Layer_0
  10
16.30748
  20
17.815933
  0
VERTEX
  5
1bb
  8
Layer_0
  10
19.307495
  20
17.815933
  0
VERTEX
  5
1bc
  8
Layer_0
  10
19.307495
  20
19.815903
  0
VERTEX
  5
1bd
  8
Layer_0
  10
61.396149
  20
19.815903
  0
VERTEX
  5
1be
  8
Layer_0
  10
61.396149
  20
17.815933
  0
VERTEX
  5
1bf
  8
Layer_0
  10
64.396164
  20
17.815933
  0
VERTEX
  5
1c0
  8
Layer_0
  10
64.396164
  20
19.815903
  0
VERTEX
  5
1c1
  8
Layer_0
  10
70.960968
  20
19.815903
  0
VERTEX
  5
1c2
  8
Layer_0
  10
102.23254
  20
71.204849
  0
VERTEX
  5
1c3
  8
Layer_0
  10
103.93356
  20
70.171249
  0
VERTEX
  5
1c4
  8
Layer_0
  10
105.49139
  20
72.735092
  0
VERTEX
  5
1c5
  8
Layer_0
  10
103.79205
  20
73.767624
  0
VERTEX
  5
1c6
  8
Layer_0
  10
134.20285
  20
123.74199
  0
VERTEX
  5
1c7
  8
Layer_0
  10
135.86914
  20
122.72954
  0
VERTEX
  5
1c8
  8
Layer_0
  10
137.42697
  20
125.29335
  0
VERTEX
  5
1c9
  8
Layer_0
  10
137.40363
  20
125.30751
  0
VERTEX
  5
1ca
  8
Layer_0
  10
137.5029
  20
125.36781
  0
SEQEND
  0
POLYLINE
  5
1cc
  8
Layer_0
  62
0
  70
1
  66
1
  10
0
  20
0
  30
0
  0
VERTEX
  5
1cc
  8
Layer_0
  10
74.908096
  20
125.26048
  0
VERTEX
  5
1cd
  8
Layer_0
  10
74.855972
  20
125.29219
  0
VERTEX
  5
1ce
  8
Layer_0
  10
74.950714
  20
125.34975
  0
VERTEX
  5
1cf
  8
Layer_0
  10
74.956604
  20
125.34001
  0
VERTEX
  5
1d0
  8
Layer_0
  10
74.908096
  20
125.26048
  0
SEQEND
  0
POLYLINE
  5
1d2
  8
Layer_0
  62
0
  70
1
  66
1
  10
0
  20
0
  30
0
  0
VERTEX
  5
1d2
  8
Layer_0
  10
188.08475
  20
16.109665
  0
VERTEX
  5
1d3
  8
Layer_0
  10
220.51056
  20
-3.6539459
  0
VERTEX
  5
1d4
  8
Layer_0
  10
222.05969
  20
-1.1122894
  0
VERTEX
  5
1d5
  8
Layer_0
  10
223.76747
  20
-2.1531982
  0
VERTEX
  5
1d6
  8
Layer_0
  10
254.22429
  20
47.793076
  0
VERTEX
  5
1d7
  8
Layer_0
  10
252.50598
  20
48.840408
  0
VERTEX
  5
1d8
  8
Layer_0
  10
254.06732
  20
51.402054
  0
VERTEX
  5
1d9
  8
Layer_0
  10
255.78616
  20
50.354401
  0
VERTEX
  5
1da
  8
Layer_0
  10
286.25519
  20
100.32079
  0
VERTEX
  5
1db
  8
Layer_0
  10
284.52585
  20
101.37485
  0
VERTEX
  5
1dc
  8
Layer_0
  10
286.08719
  20
103.93654
  0
VERTEX
  5
1dd
  8
Layer_0
  10
282.97162
  20
105.80479
  0
VERTEX
  5
1de
  8
Layer_0
  10
284.02612
  20
107.53497
  0
VERTEX
  5
1df
  8
Layer_0
  10
279.75885
  20
110.13988
  0
VERTEX
  5
1e0
  8
Layer_0
  10
278.71448
  20
108.42622
  0
VERTEX
  5
1e1
  8
Layer_0
  10
261.80862
  20
118.72079
  0
VERTEX
  5
1e2
  8
Layer_0
  10
262.85556
  20
120.43849
  0
VERTEX
  5
1e3
  8
Layer_0
  10
258.57703
  20
123.05985
  0
VERTEX
  5
1e4
  8
Layer_0
  10
257.54001
  20
121.33611
  0
VERTEX
  5
1e5
  8
Layer_0
  10
253.66138
  20
123.70014
  0
VERTEX
  5
1e6
  8
Layer_0
  10
251.95358
  20
124.74104
  0
VERTEX
  5
1e7
  8
Layer_0
  10
250.39224
  20
122.17935
  0
VERTEX
  5
1e8
  8
Layer_0
  10
252.10002
  20
121.13844
  0
VERTEX
  5
1e9
  8
Layer_0
  10
221.64151
  20
71.165695
  0
VERTEX
  5
1ea
  8
Layer_0
  10
219.93373
  20
72.206589
  0
VERTEX
  5
1eb
  8
Layer_0
  10
218.37238
  20
69.644913
  0
VERTEX
  5
1ec
  8
Layer_0
  10
220.08015
  20
68.604004
  0
VERTEX
  5
1ed
  8
Layer_0
  10
189.63388
  20
18.651306
  0
VERTEX
  5
1ee
  8
Layer_0
  10
187.92609
  20
19.692215
  0
VERTEX
  5
1ef
  8
Layer_0
  10
186.36473
  20
17.130508
  0
VERTEX
  5
1f0
  8
Layer_0
  10
188.07251
  20
16.089615
  0
VERTEX
  5
1f1
  8
Layer_0
  10
188.08475
  20
16.109665
  0
SEQEND
  0
POLYLINE
  5
1f3
  8
Layer_0
  62
0
  70
1
  66
1
  10
0
  20
0
  30
0
  0
VERTEX
  5
1f3
  8
Layer_0
  10
242.7233
  20
231.46028
  0
VERTEX
  5
1f4
  8
Layer_0
  10
237.72336
  20
231.46028
  0
VERTEX
  5
1f5
  8
Layer_0
  10
237.72336
  20
233.46031
  0
VERTEX
  5
1f6
  8
Layer_0
  10
242.7233
  20
233.46031
  0
VERTEX
  5
1f7
  8
Layer_0
  10
242.7233
  20
231.46028
  0
SEQEND
  0
POLYLINE
  5
1f9
  8
Layer_0
  62
0
  70
1
  66
1
  10
0
  20
0
  30
0
  0
VERTEX
  5
1f9
  8
Layer_0
  10
197.63464
  20
231.46028
  0
VERTEX
  5
1fa
  8
Layer_0
  10
192.63467
  20
231.46028
  0
VERTEX
  5
1fb
  8
Layer_0
  10
192.63467
  20
233.46031
  0
VERTEX
  5
1fc
  8
Layer_0
  10
197.63464
  20
233.46031
  0
VERTEX
  5
1fd
  8
Layer_0
  10
197.63464
  20
231.46028
  0
SEQEND
  0
POLYLINE
  5
1ff
  8
Layer_0
  62
0
  70
1
  66
1
  10
0
  20
0
  30
0
  0
VERTEX
  5
1ff
  8
Layer_0
  10
218.2384
  20
176.32405
  0
VERTEX
  5
200
  8
Layer_0
  10
216.68057
  20
178.88783
  0
VERTEX
  5
201
  8
Layer_0
  10
218.38983
  20
179.92635
  0
VERTEX
  5
202
  8
Layer_0
  10
219.94766
  20
177.36256
  0
VERTEX
  5
203
  8
Layer_0
  10
218.2384
  20
176.32405
  0
SEQEND
  0
POLYLINE
  5
205
  8
Layer_0
  62
0
  70
1
  66
1
  10
0
  20
0
  30
0
  0
VERTEX
  5
205
  8
Layer_0
  10
250.17398
  20
123.76573
  0
VERTEX
  5
206
  8
Layer_0
  10
248.61615
  20
126.32954
  0
VERTEX
  5
207
  8
Layer_0
  10
250.32538
  20
127.36812
  0
VERTEX
  5
208
  8
Layer_0
  10
251.88321
  20
124.80431
  0
VERTEX
  5
209
  8
Layer_0
  10
250.17398
  20
123.76573
  0
SEQEND
  0
POLYLINE
  5
20b
  8
Layer_0
  62
0
  70
1
  66
1
  10
0
  20
0
  30
0
  0
VERTEX
  5
20b
  8
Layer_0
  10
186.29071
  20
228.90236
  0
VERTEX
  5
20c
  8
Layer_0
  10
184.73285
  20
231.46614
  0
VERTEX
  5
20d
  8
Layer_0
  10
186.44208
  20
232.50468
  0
VERTEX
  5
20e
  8
Layer_0
  10
187.99991
  20
229.94087
  0
VERTEX
  5
20f
  8
Layer_0
  10
186.29071
  20
228.90236
  0
SEQEND
  0
POLYLINE
  5
211
  8
Layer_0
  62
0
  70
1
  66
1
  10
0
  20
0
  30
0
  0
VERTEX
  5
211
  8
Layer_0
  10
282.89081
  20
176.77733
  0
VERTEX
  5
212
  8
Layer_0
  10
281.33298
  20
179.34117
  0
VERTEX
  5
213
  8
Layer_0
  10
283.04221
  20
180.37975
  0
VERTEX
  5
214
  8
Layer_0
  10
284.60004
  20
177.81593
  0
VERTEX
  5
215
  8
Layer_0
  10
282.89081
  20
176.77733
  0
SEQEND
  0
POLYLINE
  5
217
  8
Layer_0
  62
0
  70
1
  66
1
  10
0
  20
0
  30
0
  0
VERTEX
  5
217
  8
Layer_0
  10
314.82635
  20
124.2191
  0
VERTEX
  5
218
  8
Layer_0
  10
313.26852
  20
126.78291
  0
VERTEX
  5
219
  8
Layer_0
  10
314.97778
  20
127.82149
  0
VERTEX
  5
21a
  8
Layer_0
  10
316.53561
  20
125.25768
  0
VERTEX
  5
21b
  8
Layer_0
  10
314.82635
  20
124.2191
  0
SEQEND
  0
POLYLINE
  5
21d
  8
Layer_0
  62
0
  70
1
  66
1
  10
0
  20
0
  30
0
  0
VERTEX
  5
21d
  8
Layer_0
  10
250.94305
  20
229.3557
  0
VERTEX
  5
21e
  8
Layer_0
  10
249.38522
  20
231.91951
  0
VERTEX
  5
21f
  8
Layer_0
  10
251.09442
  20
232.95805
  0
VERTEX
  5
220
  8
Layer_0
  10
252.65225
  20
230.39424
  0
VERTEX
  5
221
  8
Layer_0
  10
250.94305
  20
229.3557
  0
SEQEND
  0
POLYLINE
  5
223
  8
Layer_0
  62
0
  70
1
  66
1
  10
0
  20
0
  30
0
  0
VERTEX
  5
223
  8
Layer_0
  10
242.81732
  20
18.121094
  0
VERTEX
  5
224
  8
Layer_0
  10
237.81732
  20
18.121094
  0
VERTEX
  5
225
  8
Layer_0
  10
237.81732
  20
16.121109
  0
VERTEX
  5
226
  8
Layer_0
  10
242.81732
  20
16.121109
  0
VERTEX
  5
227
  8
Layer_0
  10
242.81732
  20
18.121094
  0
SEQEND
  0
POLYLINE
  5
229
  8
Layer_0
  62
0
  70
1
  66
1
  10
0
  20
0
  30
0
  0
VERTEX
  5
229
  8
Layer_0
  10
197.72864
  20
18.121094
  0
VERTEX
  5
22a
  8
Layer_0
  10
192.72864
  20
18.121094
  0
VERTEX
  5
22b
  8
Layer_0
  10
192.72864
  20
16.121109
  0
VERTEX
  5
22c
  8
Layer_0
  10
197.72864
  20
16.121109
  0
VERTEX
  5
22d
  8
Layer_0
  10
197.72864
  20
18.121094
  0
SEQEND
  0
POLYLINE
  5
22f
  8
Layer_0
  62
0
  70
1
  66
1
  10
0
  20
0
  30
0
  0
VERTEX
  5
22f
  8
Layer_0
  10
218.33246
  20
73.257431
  0
VERTEX
  5
230
  8
Layer_0
  10
216.77463
  20
70.693588
  0
VERTEX
  5
231
  8
Layer_0
  10
218.48383
  20
69.655045
  0
VERTEX
  5
232
  8
Layer_0
  10
220.04166
  20
72.218826
  0
VERTEX
  5
233
  8
Layer_0
  10
218.33246
  20
73.257431
  0
SEQEND
  0
POLYLINE
  5
235
  8
Layer_0
  62
0
  70
1
  66
1
  10
0
  20
0
  30
0
  0
VERTEX
  5
235
  8
Layer_0
  10
250.26804
  20
125.81566
  0
VERTEX
  5
236
  8
Layer_0
  10
248.71021
  20
123.25185
  0
VERTEX
  5
237
  8
Layer_0
  10
250.4194
  20
122.21327
  0
VERTEX
  5
238
  8
Layer_0
  10
251.97723
  20
124.77708
  0
VERTEX
  5
239
  8
Layer_0
  10
250.26804
  20
125.81566
  0
SEQEND
  0
POLYLINE
  5
23b
  8
Layer_0
  62
0
  70
1
  66
1
  10
0
  20
0
  30
0
  0
VERTEX
  5
23b
  8
Layer_0
  10
186.38467
  20
20.679062
  0
VERTEX
  5
23c
  8
Layer_0
  10
184.82684
  20
18.115234
  0
VERTEX
  5
23d
  8
Layer_0
  10
186.53607
  20
17.076721
  0
VERTEX
  5
23e
  8
Layer_0
  10
188.0939
  20
19.640518
  0
VERTEX
  5
23f
  8
Layer_0
  10
186.38467
  20
20.679062
  0
SEQEND
  0
POLYLINE
  5
241
  8
Layer_0
  62
0
  70
1
  66
1
  10
0
  20
0
  30
0
  0
VERTEX
  5
241
  8
Layer_0
  10
281.42697
  20
70.24025
  0
VERTEX
  5
242
  8
Layer_0
  10
283.13617
  20
69.201675
  0
VERTEX
  5
243
  8
Layer_0
  10
284.694
  20
71.765488
  0
VERTEX
  5
244
  8
Layer_0
  10
282.9848
  20
72.804062
  0
VERTEX
  5
245
  8
Layer_0
  10
281.42697
  20
70.24025
  0
SEQEND
  0
POLYLINE
  5
247
  8
Layer_0
  62
0
  70
1
  66
1
  10
0
  20
0
  30
0
  0
VERTEX
  5
247
  8
Layer_0
  10
314.92038
  20
125.36229
  0
VERTEX
  5
248
  8
Layer_0
  10
313.36255
  20
122.79851
  0
VERTEX
  5
249
  8
Layer_0
  10
315.07175
  20
121.7599
  0
VERTEX
  5
24a
  8
Layer_0
  10
316.62958
  20
124.32378
  0
VERTEX
  5
24b
  8
Layer_0
  10
314.92038
  20
125.36229
  0
SEQEND
  0
POLYLINE
  5
24d
  8
Layer_0
  62
0
  70
1
  66
1
  10
0
  20
0
  30
0
  0
VERTEX
  5
24d
  8
Layer_0
  10
249.47919
  20
17.66188
  0
VERTEX
  5
24e
  8
Layer_0
  10
251.18842
  20
16.623367
  0
VERTEX
  5
24f
  8
Layer_0
  10
252.74625
  20
19.187149
  0
VERTEX
  5
250
  8
Layer_0
  10
251.03702
  20
20.225693
  0
VERTEX
  5
251
  8
Layer_0
  10
249.47919
  20
17.66188
  0
SEQEND
  0
POLYLINE
  5
253
  8
Layer_0
  62
0
  70
1
  66
1
  10
0
  20
0
  30
0
  0
VERTEX
  5
253
  8
Layer_0
  10
179.92813
  20
14.189468
  0
VERTEX
  5
254
  8
Layer_0
  10
247.36761
  20
124.71367
  0
VERTEX
  5
255
  8
Layer_0
  10
179.83408
  20
235.39183
  0
VERTEX
  5
256
  8
Layer_0
  10
251.94427
  20
235.39183
  0
VERTEX
  5
257
  8
Layer_0
  10
319.35202
  20
124.80531
  0
VERTEX
  5
258
  8
Layer_0
  10
252.03955
  20
14.189468
  0
VERTEX
  5
259
  8
Layer_0
  10
179.92813
  20
14.189468
  0
SEQEND
  0
POLYLINE
  5
25b
  8
Layer_0
  62
0
  70
1
  66
1
  10
0
  20
0
  30
0
  0
VERTEX
  5
25b
  8
Layer_0
  10
-134.02115
  20
17.561356
  0
VERTEX
  5
25c
  8
Layer_0
  10
-125.69563
  20
17.561356
  0
VERTEX
  5
25d
  8
Layer_0
  10
-125.69563
  20
19.561356
  0
VERTEX
  5
25e
  8
Layer_0
  10
-122.74179
  20
19.561356
  0
VERTEX
  5
25f
  8
Layer_0
  10
-122.74179
  20
17.561356
  0
VERTEX
  5
260
  8
Layer_0
  10
-80.616875
  20
17.538193
  0
VERTEX
  5
261
  8
Layer_0
  10
-80.616875
  20
19.561386
  0
VERTEX
  5
262
  8
Layer_0
  10
-77.593391
  20
19.561386
  0
VERTEX
  5
263
  8
Layer_0
  10
-77.593391
  20
17.561401
  0
VERTEX
  5
264
  8
Layer_0
  10
-70.021225
  20
17.561401
  0
VERTEX
  5
265
  8
Layer_0
  10
-70.021225
  20
57.561386
  0
VERTEX
  5
266
  8
Layer_0
  10
-77.362465
  20
57.566483
  0
VERTEX
  5
267
  8
Layer_0
  10
-77.372589
  20
59.576889
  0
VERTEX
  5
268
  8
Layer_0
  10
-82.290031
  20
59.566452
  0
VERTEX
  5
269
  8
Layer_0
  10
-82.290031
  20
57.571793
  0
VERTEX
  5
26a
  8
Layer_0
  10
-122.41212
  20
57.587448
  0
VERTEX
  5
26b
  8
Layer_0
  10
-122.41212
  20
59.587448
  0
VERTEX
  5
26c
  8
Layer_0
  10
-127.41116
  20
59.592239
  0
VERTEX
  5
26d
  8
Layer_0
  10
-127.41116
  20
57.561356
  0
VERTEX
  5
26e
  8
Layer_0
  10
-134.02122
  20
57.561356
  0
VERTEX
  5
26f
  8
Layer_0
  10
-134.02115
  20
17.561356
  0
SEQEND
  0
POLYLINE
  5
271
  8
Layer_0
  62
0
  70
1
  66
1
  10
0
  20
0
  30
0
  0
VERTEX
  5
271
  8
Layer_0
  10
-70.021156
  20
17.561356
  0
VERTEX
  5
272
  8
Layer_0
  10
-61.695602
  20
17.561356
  0
VERTEX
  5
273
  8
Layer_0
  10
-61.695602
  20
19.561356
  0
VERTEX
  5
274
  8
Layer_0
  10
-58.741798
  20
19.561356
  0
VERTEX
  5
275
  8
Layer_0
  10
-58.741798
  20
17.561356
  0
VERTEX
  5
276
  8
Layer_0
  10
-16.616882
  20
17.538193
  0
VERTEX
  5
277
  8
Layer_0
  10
-16.616882
  20
19.561386
  0
VERTEX
  5
278
  8
Layer_0
  10
-13.593369
  20
19.561386
  0
VERTEX
  5
279
  8
Layer_0
  10
-13.593369
  20
17.561401
  0
VERTEX
  5
27a
  8
Layer_0
  10
-6.0211945
  20
17.561401
  0
VERTEX
  5
27b
  8
Layer_0
  10
-6.0211945
  20
57.561386
  0
VERTEX
  5
27c
  8
Layer_0
  10
-13.362473
  20
57.566483
  0
VERTEX
  5
27d
  8
Layer_0
  10
-13.372604
  20
59.576889
  0
VERTEX
  5
27e
  8
Layer_0
  10
-18.290039
  20
59.566452
  0
VERTEX
  5
27f
  8
Layer_0
  10
-18.290039
  20
57.571793
  0
VERTEX
  5
280
  8
Layer_0
  10
-58.412125
  20
57.587448
  0
VERTEX
  5
281
  8
Layer_0
  10
-58.412125
  20
59.587448
  0
VERTEX
  5
282
  8
Layer_0
  10
-63.411163
  20
59.592239
  0
VERTEX
  5
283
  8
Layer_0
  10
-63.411163
  20
57.561356
  0
VERTEX
  5
284
  8
Layer_0
  10
-70.021225
  20
57.561356
  0
VERTEX
  5
285
  8
Layer_0
  10
-70.021156
  20
17.561356
  0
SEQEND
  0
POLYLINE
  5
287
  8
Layer_0
  62
0
  70
1
  66
1
  10
0
  20
0
  30
0
  0
VERTEX
  5
287
  8
Layer_0
  10
343.39825
  20
142.77103
  0
VERTEX
  5
288
  8
Layer_0
  10
347.66681
  20
145.37479
  0
VERTEX
  5
289
  8
Layer_0
  10
348.70831
  20
143.66739
  0
VERTEX
  5
28a
  8
Layer_0
  10
344.43976
  20
141.0636
  0
VERTEX
  5
28b
  8
Layer_0
  10
343.39825
  20
142.77103
  0
SEQEND
  0
POLYLINE
  5
28d
  8
Layer_0
  62
0
  70
1
  66
1
  10
0
  20
0
  30
0
  0
VERTEX
  5
28d
  8
Layer_0
  10
322.22937
  20
129.85818
  0
VERTEX
  5
28e
  8
Layer_0
  10
326.49792
  20
132.46198
  0
VERTEX
  5
28f
  8
Layer_0
  10
327.53943
  20
130.75456
  0
VERTEX
  5
290
  8
Layer_0
  10
323.27087
  20
128.15077
  0
VERTEX
  5
291
  8
Layer_0
  10
322.22937
  20
129.85818
  0
SEQEND
  0
POLYLINE
  5
293
  8
Layer_0
  62
0
  70
1
  66
1
  10
0
  20
0
  30
0
  0
VERTEX
  5
293
  8
Layer_0
  10
352.39609
  20
143.54663
  0
VERTEX
  5
294
  8
Layer_0
  10
349.28555
  20
148.67743
  0
VERTEX
  5
295
  8
Layer_0
  10
350.99295
  20
149.71893
  0
VERTEX
  5
296
  8
Layer_0
  10
320.52887
  20
199.66077
  0
VERTEX
  5
297
  8
Layer_0
  10
318.82147
  20
198.61926
  0
VERTEX
  5
298
  8
Layer_0
  10
317.25919
  20
201.1804
  0
VERTEX
  5
299
  8
Layer_0
  10
318.96658
  20
202.22191
  0
VERTEX
  5
29a
  8
Layer_0
  10
288.49026
  20
252.18381
  0
VERTEX
  5
29b
  8
Layer_0
  10
286.78284
  20
251.1423
  0
VERTEX
  5
29c
  8
Layer_0
  10
285.23282
  20
253.68338
  0
VERTEX
  5
29d
  8
Layer_0
  10
253.57437
  20
234.37198
  0
VERTEX
  5
29e
  8
Layer_0
  10
253.56213
  20
234.39204
  0
VERTEX
  5
29f
  8
Layer_0
  10
251.0723
  20
232.87326
  0
VERTEX
  5
2a0
  8
Layer_0
  10
252.63457
  20
230.31213
  0
VERTEX
  5
2a1
  8
Layer_0
  10
254.34198
  20
231.35364
  0
VERTEX
  5
2a2
  8
Layer_0
  10
284.8183
  20
181.39175
  0
VERTEX
  5
2a3
  8
Layer_0
  10
283.1109
  20
180.35025
  0
VERTEX
  5
2a4
  8
Layer_0
  10
284.67316
  20
177.78909
  0
VERTEX
  5
2a5
  8
Layer_0
  10
286.38058
  20
178.8306
  0
VERTEX
  5
2a6
  8
Layer_0
  10
316.84467
  20
128.88878
  0
VERTEX
  5
2a7
  8
Layer_0
  10
315.13727
  20
127.84727
  0
VERTEX
  5
2a8
  8
Layer_0
  10
316.69952
  20
125.28616
  0
VERTEX
  5
2a9
  8
Layer_0
  10
318.40692
  20
126.32767
  0
VERTEX
  5
2aa
  8
Layer_0
  10
319.96921
  20
123.76651
  0
VERTEX
  5
2ab
  8
Layer_0
  10
352.39609
  20
143.54663
  0
SEQEND
  0
POLYLINE
  5
2ad
  8
Layer_0
  62
0
  70
1
  66
1
  10
0
  20
0
  30
0
  0
VERTEX
  5
2ad
  8
Layer_0
  10
253.01852
  20
15.576767
  0
VERTEX
  5
2ae
  8
Layer_0
  10
285.49991
  20
-4.0953674
  0
VERTEX
  5
2af
  8
Layer_0
  10
287.04187
  20
-1.5493774
  0
VERTEX
  5
2b0
  8
Layer_0
  10
288.75256
  20
-2.5854645
  0
VERTEX
  5
2b1
  8
Layer_0
  10
319.06848
  20
47.446457
  0
VERTEX
  5
2b2
  8
Layer_0
  10
317.34723
  20
48.488907
  0
VERTEX
  5
2b3
  8
Layer_0
  10
318.90137
  20
51.054977
  0
VERTEX
  5
2b4
  8
Layer_0
  10
320.62314
  20
50.012192
  0
VERTEX
  5
2b5
  8
Layer_0
  10
350.95123
  20
100.06424
  0
VERTEX
  5
2b6
  8
Layer_0
  10
349.2189
  20
101.11341
  0
VERTEX
  5
2b7
  8
Layer_0
  10
350.77304
  20
103.6795
  0
VERTEX
  5
2b8
  8
Layer_0
  10
347.65216
  20
105.539
  0
VERTEX
  5
2b9
  8
Layer_0
  10
348.70181
  20
107.27214
  0
VERTEX
  5
2ba
  8
Layer_0
  10
344.42722
  20
109.86497
  0
VERTEX
  5
2bb
  8
Layer_0
  10
343.3877
  20
108.14842
  0
VERTEX
  5
2bc
  8
Layer_0
  10
326.45288
  20
118.39526
  0
VERTEX
  5
2bd
  8
Layer_0
  10
327.495
  20
120.11591
  0
VERTEX
  5
2be
  8
Layer_0
  10
323.20905
  20
122.72522
  0
VERTEX
  5
2bf
  8
Layer_0
  10
322.17688
  20
120.99858
  0
VERTEX
  5
2c0
  8
Layer_0
  10
318.29166
  20
123.35164
  0
VERTEX
  5
2c1
  8
Layer_0
  10
316.5809
  20
124.38774
  0
VERTEX
  5
2c2
  8
Layer_0
  10
315.02679
  20
121.82166
  0
VERTEX
  5
2c3
  8
Layer_0
  10
316.73752
  20
120.78555
  0
VERTEX
  5
2c4
  8
Layer_0
  10
286.41998
  20
70.727158
  0
VERTEX
  5
2c5
  8
Layer_0
  10
284.70923
  20
71.76326
  0
VERTEX
  5
2c6
  8
Layer_0
  10
283.15509
  20
69.197159
  0
VERTEX
  5
2c7
  8
Layer_0
  10
284.86584
  20
68.161057
  0
VERTEX
  5
2c8
  8
Layer_0
  10
254.56049
  20
18.122757
  0
VERTEX
  5
2c9
  8
Layer_0
  10
252.84973
  20
19.158859
  0
VERTEX
  5
2ca
  8
Layer_0
  10
251.29559
  20
16.592773
  0
VERTEX
  5
2cb
  8
Layer_0
  10
253.00635
  20
15.556686
  0
VERTEX
  5
2cc
  8
Layer_0
  10
253.01852
  20
15.576767
  0
SEQEND
  0
POLYLINE
  5
2ce
  8
Layer_0
  62
0
  70
1
  66
1
  10
0
  20
0
  30
0
  0
VERTEX
  5
2ce
  8
Layer_0
  10
325.68564
  20
105.98253
  0
VERTEX
  5
2cf
  8
Layer_0
  10
325.83511
  20
106.2037
  0
VERTEX
  5
2d0
  8
Layer_0
  10
325.99725
  20
106.39441
  0
VERTEX
  5
2d1
  8
Layer_0
  10
326.17197
  20
106.55466
  0
VERTEX
  5
2d2
  8
Layer_0
  10
326.35922
  20
106.68443
  0
VERTEX
  5
2d3
  8
Layer_0
  10
326.5632
  20
106.77946
  0
VERTEX
  5
2d4
  8
Layer_0
  10
326.78784
  20
106.83498
  0
VERTEX
  5
2d5
  8
Layer_0
  10
327.03311
  20
106.85104
  0
VERTEX
  5
2d6
  8
Layer_0
  10
327.29907
  20
106.8277
  0
VERTEX
  5
2d7
  8
Layer_0
  10
327.59158
  20
106.75928
  0
VERTEX
  5
2d8
  8
Layer_0
  10
327.91653
  20
106.64012
  0
VERTEX
  5
2d9
  8
Layer_0
  10
328.27399
  20
106.47022
  0
VERTEX
  5
2da
  8
Layer_0
  10
328.66394
  20
106.24957
  0
VERTEX
  5
2db
  8
Layer_0
  10
335.85172
  20
101.89634
  0
VERTEX
  5
2dc
  8
Layer_0
  10
335.55072
  20
101.39938
  0
VERTEX
  5
2dd
  8
Layer_0
  10
328.3992
  20
105.73067
  0
VERTEX
  5
2de
  8
Layer_0
  10
328.07053
  20
105.91885
  0
VERTEX
  5
2df
  8
Layer_0
  10
327.77539
  20
106.06496
  0
VERTEX
  5
2e0
  8
Layer_0
  10
327.51379
  20
106.16901
  0
VERTEX
  5
2e1
  8
Layer_0
  10
327.28568
  20
106.23106
  0
VERTEX
  5
2e2
  8
Layer_0
  10
327.08401
  20
106.2569
  0
VERTEX
  5
2e3
  8
Layer_0
  10
326.90131
  20
106.25265
  0
VERTEX
  5
2e4
  8
Layer_0
  10
326.73758
  20
106.21825
  0
VERTEX
  5
2e5
  8
Layer_0
  10
326.59277
  20
106.15367
  0
VERTEX
  5
2e6
  8
Layer_0
  10
326.33322
  20
105.96102
  0
VERTEX
  5
2e7
  8
Layer_0
  10
326.09525
  20
105.70125
  0
VERTEX
  5
2e8
  8
Layer_0
  10
325.56992
  20
105.02536
  0
VERTEX
  5
2e9
  8
Layer_0
  10
325.23044
  20
105.23096
  0
VERTEX
  5
2ea
  8
Layer_0
  10
325.68564
  20
105.98253
  0
SEQEND
  0
POLYLINE
  5
2ec
  8
Layer_0
  62
0
  70
1
  66
1
  10
0
  20
0
  30
0
  0
VERTEX
  5
2ec
  8
Layer_0
  10
319.35031
  20
95.522049
  0
VERTEX
  5
2ed
  8
Layer_0
  10
319.52206
  20
95.777359
  0
VERTEX
  5
2ee
  8
Layer_0
  10
319.70682
  20
95.997833
  0
VERTEX
  5
2ef
  8
Layer_0
  10
319.90466
  20
96.183441
  0
VERTEX
  5
2f0
  8
Layer_0
  10
320.1156
  20
96.334122
  0
VERTEX
  5
2f1
  8
Layer_0
  10
320.34021
  20
96.446152
  0
VERTEX
  5
2f2
  8
Layer_0
  10
320.57928
  20
96.515221
  0
VERTEX
  5
2f3
  8
Layer_0
  10
320.83273
  20
96.541351
  0
VERTEX
  5
2f4
  8
Layer_0
  10
321.10056
  20
96.524597
  0
VERTEX
  5
2f5
  8
Layer_0
  10
321.38446
  20
96.465073
  0
VERTEX
  5
2f6
  8
Layer_0
  10
321.68597
  20
96.362701
  0
VERTEX
  5
2f7
  8
Layer_0
  10
322.00507
  20
96.217529
  0
VERTEX
  5
2f8
  8
Layer_0
  10
322.34177
  20
96.029648
  0
VERTEX
  5
2f9
  8
Layer_0
  10
326.38007
  20
93.534134
  0
VERTEX
  5
2fa
  8
Layer_0
  10
327.01141
  20
94.576523
  0
VERTEX
  5
2fb
  8
Layer_0
  10
327.32672
  20
94.385551
  0
VERTEX
  5
2fc
  8
Layer_0
  10
326.81183
  20
93.289337
  0
VERTEX
  5
2fd
  8
Layer_0
  10
328.55179
  20
92.086334
  0
VERTEX
  5
2fe
  8
Layer_0
  10
328.33154
  20
91.722687
  0
VERTEX
  5
2ff
  8
Layer_0
  10
326.52548
  20
92.816528
  0
VERTEX
  5
300
  8
Layer_0
  10
325.29218
  20
90.780136
  0
VERTEX
  5
301
  8
Layer_0
  10
324.8678
  20
91.03714
  0
VERTEX
  5
302
  8
Layer_0
  10
326.10114
  20
93.073532
  0
VERTEX
  5
303
  8
Layer_0
  10
322.05286
  20
95.525345
  0
VERTEX
  5
304
  8
Layer_0
  10
321.80701
  20
95.664925
  0
VERTEX
  5
305
  8
Layer_0
  10
321.57867
  20
95.775253
  0
VERTEX
  5
306
  8
Layer_0
  10
321.36786
  20
95.856354
  0
VERTEX
  5
307
  8
Layer_0
  10
321.17468
  20
95.908203
  0
VERTEX
  5
308
  8
Layer_0
  10
320.99677
  20
95.935135
  0
VERTEX
  5
309
  8
Layer_0
  10
320.83234
  20
95.941513
  0
VERTEX
  5
30a
  8
Layer_0
  10
320.68137
  20
95.927322
  0
VERTEX
  5
30b
  8
Layer_0
  10
320.54376
  20
95.892563
  0
VERTEX
  5
30c
  8
Layer_0
  10
320.30206
  20
95.784309
  0
VERTEX
  5
30d
  8
Layer_0
  10
320.1004
  20
95.639313
  0
VERTEX
  5
30e
  8
Layer_0
  10
319.93546
  20
95.476212
  0
VERTEX
  5
30f
  8
Layer_0
  10
319.80402
  20
95.313538
  0
VERTEX
  5
310
  8
Layer_0
  10
319.25397
  20
94.569641
  0
VERTEX
  5
311
  8
Layer_0
  10
318.90244
  20
94.782547
  0
VERTEX
  5
312
  8
Layer_0
  10
319.35031
  20
95.522049
  0
SEQEND
  0
POLYLINE
  5
314
  8
Layer_0
  62
0
  70
1
  66
1
  10
0
  20
0
  30
0
  0
VERTEX
  5
314
  8
Layer_0
  10
314.71082
  20
87.861603
  0
VERTEX
  5
315
  8
Layer_0
  10
314.88254
  20
88.116913
  0
VERTEX
  5
316
  8
Layer_0
  10
315.06729
  20
88.337387
  0
VERTEX
  5
317
  8
Layer_0
  10
315.26517
  20
88.522995
  0
VERTEX
  5
318
  8
Layer_0
  10
315.4761
  20
88.673676
  0
VERTEX
  5
319
  8
Layer_0
  10
315.70071
  20
88.785706
  0
VERTEX
  5
31a
  8
Layer_0
  10
315.93976
  20
88.854767
  0
VERTEX
  5
31b
  8
Layer_0
  10
316.19321
  20
88.880898
  0
VERTEX
  5
31c
  8
Layer_0
  10
316.46106
  20
88.864151
  0
VERTEX
  5
31d
  8
Layer_0
  10
316.74493
  20
88.804619
  0
VERTEX
  5
31e
  8
Layer_0
  10
317.04645
  20
88.702232
  0
VERTEX
  5
31f
  8
Layer_0
  10
317.36554
  20
88.557053
  0
VERTEX
  5
320
  8
Layer_0
  10
317.70224
  20
88.369171
  0
VERTEX
  5
321
  8
Layer_0
  10
321.74057
  20
85.873657
  0
VERTEX
  5
322
  8
Layer_0
  10
322.37189
  20
86.916077
  0
VERTEX
  5
323
  8
Layer_0
  10
322.68723
  20
86.725098
  0
VERTEX
  5
324
  8
Layer_0
  10
322.17233
  20
85.628883
  0
VERTEX
  5
325
  8
Layer_0
  10
323.91226
  20
84.425842
  0
VERTEX
  5
326
  8
Layer_0
  10
323.69205
  20
84.062241
  0
VERTEX
  5
327
  8
Layer_0
  10
321.88599
  20
85.156075
  0
VERTEX
  5
328
  8
Layer_0
  10
320.65265
  20
83.119682
  0
VERTEX
  5
329
  8
Layer_0
  10
320.2283
  20
83.376694
  0
VERTEX
  5
32a
  8
Layer_0
  10
321.46161
  20
85.413086
  0
VERTEX
  5
32b
  8
Layer_0
  10
317.41336
  20
87.864899
  0
VERTEX
  5
32c
  8
Layer_0
  10
317.16748
  20
88.004478
  0
VERTEX
  5
32d
  8
Layer_0
  10
316.93915
  20
88.114807
  0
VERTEX
  5
32e
  8
Layer_0
  10
316.72836
  20
88.195892
  0
VERTEX
  5
32f
  8
Layer_0
  10
316.53516
  20
88.247719
  0
VERTEX
  5
330
  8
Layer_0
  10
316.35724
  20
88.274666
  0
VERTEX
  5
331
  8
Layer_0
  10
316.19281
  20
88.281044
  0
VERTEX
  5
332
  8
Layer_0
  10
316.04184
  20
88.266853
  0
VERTEX
  5
333
  8
Layer_0
  10
315.90427
  20
88.232109
  0
VERTEX
  5
334
  8
Layer_0
  10
315.66254
  20
88.12384
  0
VERTEX
  5
335
  8
Layer_0
  10
315.46088
  20
87.978836
  0
VERTEX
  5
336
  8
Layer_0
  10
315.29593
  20
87.815735
  0
VERTEX
  5
337
  8
Layer_0
  10
315.16449
  20
87.653061
  0
VERTEX
  5
338
  8
Layer_0
  10
314.61447
  20
86.909187
  0
VERTEX
  5
339
  8
Layer_0
  10
314.26294
  20
87.122086
  0
VERTEX
  5
33a
  8
Layer_0
  10
314.71082
  20
87.861603
  0
SEQEND
  0
POLYLINE
  5
33c
  8
Layer_0
  62
0
  70
1
  66
1
  10
0
  20
0
  30
0
  0
VERTEX
  5
33c
  8
Layer_0
  10
313.29395
  20
85.522148
  0
VERTEX
  5
33d
  8
Layer_0
  10
322.54242
  20
79.920868
  0
VERTEX
  5
33e
  8
Layer_0
  10
322.24142
  20
79.423882
  0
VERTEX
  5
33f
  8
Layer_0
  10
318.70203
  20
81.56749
  0
VERTEX
  5
340
  8
Layer_0
  10
318.70645
  20
81.20401
  0
VERTEX
  5
341
  8
Layer_0
  10
318.68893
  20
80.827911
  0
VERTEX
  5
342
  8
Layer_0
  10
318.64938
  20
80.439209
  0
VERTEX
  5
343
  8
Layer_0
  10
318.58765
  20
80.037964
  0
VERTEX
  5
344
  8
Layer_0
  10
318.49683
  20
79.636993
  0
VERTEX
  5
345
  8
Layer_0
  10
318.37009
  20
79.24839
  0
VERTEX
  5
346
  8
Layer_0
  10
318.20743
  20
78.872147
  0
VERTEX
  5
347
  8
Layer_0
  10
318.00879
  20
78.50827
  0
VERTEX
  5
348
  8
Layer_0
  10
317.80042
  20
78.205238
  0
VERTEX
  5
349
  8
Layer_0
  10
317.57178
  20
77.950775
  0
VERTEX
  5
34a
  8
Layer_0
  10
317.32285
  20
77.744858
  0
VERTEX
  5
34b
  8
Layer_0
  10
317.05359
  20
77.587463
  0
VERTEX
  5
34c
  8
Layer_0
  10
316.77069
  20
77.475075
  0
VERTEX
  5
34d
  8
Layer_0
  10
316.4808
  20
77.404205
  0
VERTEX
  5
34e
  8
Layer_0
  10
316.18393
  20
77.374817
  0
VERTEX
  5
34f
  8
Layer_0
  10
315.8801
  20
77.386902
  0
VERTEX
  5
350
  8
Layer_0
  10
315.57639
  20
77.436806
  0
VERTEX
  5
351
  8
Layer_0
  10
315.27972
  20
77.520691
  0
VERTEX
  5
352
  8
Layer_0
  10
314.9902
  20
77.638542
  0
VERTEX
  5
353
  8
Layer_0
  10
314.70792
  20
77.790352
  0
VERTEX
  5
354
  8
Layer_0
  10
310.24738
  20
80.491852
  0
VERTEX
  5
355
  8
Layer_0
  10
310.54834
  20
80.9888
  0
VERTEX
  5
356
  8
Layer_0
  10
314.97266
  20
78.309242
  0
VERTEX
  5
357
  8
Layer_0
  10
315.20514
  20
78.184494
  0
VERTEX
  5
358
  8
Layer_0
  10
315.44202
  20
78.089188
  0
VERTEX
  5
359
  8
Layer_0
  10
315.68326
  20
78.023323
  0
VERTEX
  5
35a
  8
Layer_0
  10
315.92892
  20
77.98687
  0
VERTEX
  5
35b
  8
Layer_0
  10
316.17334
  20
77.981285
  0
VERTEX
  5
35c
  8
Layer_0
  10
316.41132
  20
78.007515
  0
VERTEX
  5
35d
  8
Layer_0
  10
316.64276
  20
78.065598
  0
VERTEX
  5
35e
  8
Layer_0
  10
316.86765
  20
78.155594
  0
VERTEX
  5
35f
  8
Layer_0
  10
317.08069
  20
78.280312
  0
VERTEX
  5
360
  8
Layer_0
  10
317.27698
  20
78.44207
  0
VERTEX
  5
361
  8
Layer_0
  10
317.45642
  20
78.640892
  0
VERTEX
  5
362
  8
Layer_0
  10
317.61902
  20
78.876816
  0
VERTEX
  5
363
  8
Layer_0
  10
317.88184
  20
79.361862
  0
VERTEX
  5
364
  8
Layer_0
  10
318.06784
  20
79.822762
  0
VERTEX
  5
365
  8
Layer_0
  10
318.19516
  20
80.275848
  0
VERTEX
  5
366
  8
Layer_0
  10
318.28195
  20
80.736847
  0
VERTEX
  5
367
  8
Layer_0
  10
318.3382
  20
81.226753
  0
VERTEX
  5
368
  8
Layer_0
  10
318.37463
  20
81.765762
  0
VERTEX
  5
369
  8
Layer_0
  10
312.99295
  20
85.025162
  0
VERTEX
  5
36a
  8
Layer_0
  10
313.29395
  20
85.522148
  0
SEQEND
  0
POLYLINE
  5
36c
  8
Layer_0
  62
0
  70
1
  66
1
  10
0
  20
0
  30
0
  0
VERTEX
  5
36c
  8
Layer_0
  10
305.02051
  20
71.861588
  0
VERTEX
  5
36d
  8
Layer_0
  10
311.46896
  20
67.956131
  0
VERTEX
  5
36e
  8
Layer_0
  10
311.24872
  20
67.592499
  0
VERTEX
  5
36f
  8
Layer_0
  10
309.96802
  20
68.185898
  0
VERTEX
  5
370
  8
Layer_0
  10
310.08331
  20
67.775482
  0
VERTEX
  5
371
  8
Layer_0
  10
310.16534
  20
67.366501
  0
VERTEX
  5
372
  8
Layer_0
  10
310.21408
  20
66.958984
  0
VERTEX
  5
373
  8
Layer_0
  10
310.22964
  20
66.552902
  0
VERTEX
  5
374
  8
Layer_0
  10
310.19989
  20
66.150681
  0
VERTEX
  5
375
  8
Layer_0
  10
310.11255
  20
65.754211
  0
VERTEX
  5
376
  8
Layer_0
  10
309.96768
  20
65.363525
  0
VERTEX
  5
377
  8
Layer_0
  10
309.76517
  20
64.978683
  0
VERTEX
  5
378
  8
Layer_0
  10
309.65414
  20
64.805779
  0
VERTEX
  5
379
  8
Layer_0
  10
309.54141
  20
64.650421
  0
VERTEX
  5
37a
  8
Layer_0
  10
309.42697
  20
64.512772
  0
VERTEX
  5
37b
  8
Layer_0
  10
309.31064
  20
64.392441
  0
VERTEX
  5
37c
  8
Layer_0
  10
308.81378
  20
64.693344
  0
VERTEX
  5
37d
  8
Layer_0
  10
308.9227
  20
64.822281
  0
VERTEX
  5
37e
  8
Layer_0
  10
309.03979
  20
64.970718
  0
VERTEX
  5
37f
  8
Layer_0
  10
309.15979
  20
65.13839
  0
VERTEX
  5
380
  8
Layer_0
  10
309.27802
  20
65.323471
  0
VERTEX
  5
381
  8
Layer_0
  10
309.41623
  20
65.569656
  0
VERTEX
  5
382
  8
Layer_0
  10
309.52975
  20
65.810989
  0
VERTEX
  5
383
  8
Layer_0
  10
309.61865
  20
66.047523
  0
VERTEX
  5
384
  8
Layer_0
  10
309.68289
  20
66.279297
  0
VERTEX
  5
385
  8
Layer_0
  10
309.75244
  20
66.75293
  0
VERTEX
  5
386
  8
Layer_0
  10
309.75281
  20
67.255951
  0
VERTEX
  5
387
  8
Layer_0
  10
309.69858
  20
67.802399
  0
VERTEX
  5
388
  8
Layer_0
  10
309.6044
  20
68.406113
  0
VERTEX
  5
389
  8
Layer_0
  10
304.71951
  20
71.364609
  0
VERTEX
  5
38a
  8
Layer_0
  10
305.02051
  20
71.861588
  0
SEQEND
  0
POLYLINE
  5
38c
  8
Layer_0
  62
0
  70
1
  66
1
  10
0
  20
0
  30
0
  0
VERTEX
  5
38c
  8
Layer_0
  10
284.86197
  20
38.577087
  0
VERTEX
  5
38d
  8
Layer_0
  10
285.01144
  20
38.798233
  0
VERTEX
  5
38e
  8
Layer_0
  10
285.17358
  20
38.988953
  0
VERTEX
  5
38f
  8
Layer_0
  10
285.3483
  20
39.1492
  0
VERTEX
  5
390
  8
Layer_0
  10
285.53555
  20
39.278961
  0
VERTEX
  5
391
  8
Layer_0
  10
285.73953
  20
39.373993
  0
VERTEX
  5
392
  8
Layer_0
  10
285.96417
  20
39.429535
  0
VERTEX
  5
393
  8
Layer_0
  10
286.20944
  20
39.445587
  0
VERTEX
  5
394
  8
Layer_0
  10
286.47537
  20
39.422226
  0
VERTEX
  5
395
  8
Layer_0
  10
286.76794
  20
39.353851
  0
VERTEX
  5
396
  8
Layer_0
  10
287.0929
  20
39.23468
  0
VERTEX
  5
397
  8
Layer_0
  10
287.45032
  20
39.064789
  0
VERTEX
  5
398
  8
Layer_0
  10
287.84027
  20
38.844131
  0
VERTEX
  5
399
  8
Layer_0
  10
295.02805
  20
34.490891
  0
VERTEX
  5
39a
  8
Layer_0
  10
294.72705
  20
33.993912
  0
VERTEX
  5
39b
  8
Layer_0
  10
287.5755
  20
38.325211
  0
VERTEX
  5
39c
  8
Layer_0
  10
287.24686
  20
38.513382
  0
VERTEX
  5
39d
  8
Layer_0
  10
286.95172
  20
38.6595
  0
VERTEX
  5
39e
  8
Layer_0
  10
286.69012
  20
38.763565
  0
VERTEX
  5
39f
  8
Layer_0
  10
286.46201
  20
38.825592
  0
VERTEX
  5
3a0
  8
Layer_0
  10
286.26035
  20
38.85144
  0
VERTEX
  5
3a1
  8
Layer_0
  10
286.07764
  20
38.847198
  0
VERTEX
  5
3a2
  8
Layer_0
  10
285.91391
  20
38.812805
  0
VERTEX
  5
3a3
  8
Layer_0
  10
285.76913
  20
38.74823
  0
VERTEX
  5
3a4
  8
Layer_0
  10
285.50958
  20
38.555573
  0
VERTEX
  5
3a5
  8
Layer_0
  10
285.27158
  20
38.295776
  0
VERTEX
  5
3a6
  8
Layer_0
  10
284.74628
  20
37.619919
  0
VERTEX
  5
3a7
  8
Layer_0
  10
284.4068
  20
37.825516
  0
VERTEX
  5
3a8
  8
Layer_0
  10
284.86197
  20
38.577087
  0
SEQEND
  0
POLYLINE
  5
3aa
  8
Layer_0
  62
0
  70
1
  66
1
  10
0
  20
0
  30
0
  0
VERTEX
  5
3aa
  8
Layer_0
  10
291.35724
  20
31.876678
  0
VERTEX
  5
3ab
  8
Layer_0
  10
291.40881
  20
31.939636
  0
VERTEX
  5
3ac
  8
Layer_0
  10
291.46814
  20
31.970978
  0
VERTEX
  5
3ad
  8
Layer_0
  10
291.53528
  20
31.970673
  0
VERTEX
  5
3ae
  8
Layer_0
  10
291.61026
  20
31.938705
  0
VERTEX
  5
3af
  8
Layer_0
  10
292.42239
  20
31.446854
  0
VERTEX
  5
3b0
  8
Layer_0
  10
292.48535
  20
31.395279
  0
VERTEX
  5
3b1
  8
Layer_0
  10
292.51672
  20
31.335907
  0
VERTEX
  5
3b2
  8
Layer_0
  10
292.51651
  20
31.268768
  0
VERTEX
  5
3b3
  8
Layer_0
  10
292.48468
  20
31.193863
  0
VERTEX
  5
3b4
  8
Layer_0
  10
292.30109
  20
30.890762
  0
VERTEX
  5
3b5
  8
Layer_0
  10
292.25027
  20
30.834564
  0
VERTEX
  5
3b6
  8
Layer_0
  10
292.18646
  20
30.811203
  0
VERTEX
  5
3b7
  8
Layer_0
  10
292.11835
  20
30.815094
  0
VERTEX
  5
3b8
  8
Layer_0
  10
292.05536
  20
30.840836
  0
VERTEX
  5
3b9
  8
Layer_0
  10
291.24323
  20
31.332687
  0
VERTEX
  5
3ba
  8
Layer_0
  10
291.17972
  20
31.383575
  0
VERTEX
  5
3bb
  8
Layer_0
  10
291.14697
  20
31.440674
  0
VERTEX
  5
3bc
  8
Layer_0
  10
291.14496
  20
31.503998
  0
VERTEX
  5
3bd
  8
Layer_0
  10
291.17368
  20
31.573593
  0
VERTEX
  5
3be
  8
Layer_0
  10
291.35724
  20
31.876678
  0
SEQEND
  0
POLYLINE
  5
3c0
  8
Layer_0
  62
0
  70
1
  66
1
  10
0
  20
0
  30
0
  0
VERTEX
  5
3c0
  8
Layer_0
  10
283.70209
  20
36.661972
  0
VERTEX
  5
3c1
  8
Layer_0
  10
290.15054
  20
32.756516
  0
VERTEX
  5
3c2
  8
Layer_0
  10
289.84955
  20
32.259537
  0
VERTEX
  5
3c3
  8
Layer_0
  10
283.40109
  20
36.164993
  0
VERTEX
  5
3c4
  8
Layer_0
  10
283.70209
  20
36.661972
  0
SEQEND
  0
POLYLINE
  5
3c6
  8
Layer_0
  62
0
  70
1
  66
1
  10
0
  20
0
  30
0
  0
VERTEX
  5
3c6
  8
Layer_0
  10
277.41409
  20
26.279648
  0
VERTEX
  5
3c7
  8
Layer_0
  10
286.66257
  20
20.67836
  0
VERTEX
  5
3c8
  8
Layer_0
  10
286.3616
  20
20.181396
  0
VERTEX
  5
3c9
  8
Layer_0
  10
282.8222
  20
22.324997
  0
VERTEX
  5
3ca
  8
Layer_0
  10
282.82663
  20
21.961533
  0
VERTEX
  5
3cb
  8
Layer_0
  10
282.80911
  20
21.585434
  0
VERTEX
  5
3cc
  8
Layer_0
  10
282.76956
  20
21.196747
  0
VERTEX
  5
3cd
  8
Layer_0
  10
282.70782
  20
20.795486
  0
VERTEX
  5
3ce
  8
Layer_0
  10
282.617
  20
20.394501
  0
VERTEX
  5
3cf
  8
Layer_0
  10
282.49026
  20
20.00589
  0
VERTEX
  5
3d0
  8
Layer_0
  10
282.32761
  20
19.629654
  0
VERTEX
  5
3d1
  8
Layer_0
  10
282.12897
  20
19.265762
  0
VERTEX
  5
3d2
  8
Layer_0
  10
281.92059
  20
18.962723
  0
VERTEX
  5
3d3
  8
Layer_0
  10
281.69196
  20
18.708282
  0
VERTEX
  5
3d4
  8
Layer_0
  10
281.44302
  20
18.50238
  0
VERTEX
  5
3d5
  8
Layer_0
  10
281.17377
  20
18.344986
  0
VERTEX
  5
3d6
  8
Layer_0
  10
280.89087
  20
18.232574
  0
VERTEX
  5
3d7
  8
Layer_0
  10
280.60095
  20
18.161713
  0
VERTEX
  5
3d8
  8
Layer_0
  10
280.30408
  20
18.132339
  0
VERTEX
  5
3d9
  8
Layer_0
  10
280.00027
  20
18.144424
  0
VERTEX
  5
3da
  8
Layer_0
  10
279.69656
  20
18.194321
  0
VERTEX
  5
3db
  8
Layer_0
  10
279.3999
  20
18.278198
  0
VERTEX
  5
3dc
  8
Layer_0
  10
279.11038
  20
18.396042
  0
VERTEX
  5
3dd
  8
Layer_0
  10
278.82806
  20
18.547836
  0
VERTEX
  5
3de
  8
Layer_0
  10
274.36752
  20
21.249344
  0
VERTEX
  5
3df
  8
Layer_0
  10
274.66852
  20
21.746323
  0
VERTEX
  5
3e0
  8
Layer_0
  10
279.09283
  20
19.066757
  0
VERTEX
  5
3e1
  8
Layer_0
  10
279.32532
  20
18.942017
  0
VERTEX
  5
3e2
  8
Layer_0
  10
279.56219
  20
18.84671
  0
VERTEX
  5
3e3
  8
Layer_0
  10
279.80344
  20
18.780853
  0
VERTEX
  5
3e4
  8
Layer_0
  10
280.0491
  20
18.7444
  0
VERTEX
  5
3e5
  8
Layer_0
  10
280.29352
  20
18.738815
  0
VERTEX
  5
3e6
  8
Layer_0
  10
280.53149
  20
18.765045
  0
VERTEX
  5
3e7
  8
Layer_0
  10
280.76294
  20
18.823135
  0
VERTEX
  5
3e8
  8
Layer_0
  10
280.98785
  20
18.913116
  0
VERTEX
  5
3e9
  8
Layer_0
  10
281.20087
  20
19.037827
  0
VERTEX
  5
3ea
  8
Layer_0
  10
281.39716
  20
19.199585
  0
VERTEX
  5
3eb
  8
Layer_0
  10
281.5766
  20
19.398407
  0
VERTEX
  5
3ec
  8
Layer_0
  10
281.7392
  20
19.634338
  0
VERTEX
  5
3ed
  8
Layer_0
  10
282.00201
  20
20.119354
  0
VERTEX
  5
3ee
  8
Layer_0
  10
282.18802
  20
20.580246
  0
VERTEX
  5
3ef
  8
Layer_0
  10
282.31534
  20
21.033356
  0
VERTEX
  5
3f0
  8
Layer_0
  10
282.40213
  20
21.494354
  0
VERTEX
  5
3f1
  8
Layer_0
  10
282.45837
  20
21.984268
  0
VERTEX
  5
3f2
  8
Layer_0
  10
282.49481
  20
22.523285
  0
VERTEX
  5
3f3
  8
Layer_0
  10
277.11313
  20
25.782669
  0
VERTEX
  5
3f4
  8
Layer_0
  10
277.41409
  20
26.279648
  0
SEQEND
  0
POLYLINE
  5
3f6
  8
Layer_0
  62
0
  70
1
  66
1
  10
0
  20
0
  30
0
  0
VERTEX
  5
3f6
  8
Layer_0
  10
271.93756
  20
17.237137
  0
VERTEX
  5
3f7
  8
Layer_0
  10
272.10928
  20
17.492462
  0
VERTEX
  5
3f8
  8
Layer_0
  10
272.29407
  20
17.712952
  0
VERTEX
  5
3f9
  8
Layer_0
  10
272.49194
  20
17.898544
  0
VERTEX
  5
3fa
  8
Layer_0
  10
272.70288
  20
18.049225
  0
VERTEX
  5
3fb
  8
Layer_0
  10
272.92749
  20
18.161255
  0
VERTEX
  5
3fc
  8
Layer_0
  10
273.16653
  20
18.230316
  0
VERTEX
  5
3fd
  8
Layer_0
  10
273.41995
  20
18.25647
  0
VERTEX
  5
3fe
  8
Layer_0
  10
273.68781
  20
18.2397
  0
VERTEX
  5
3ff
  8
Layer_0
  10
273.97174
  20
18.180176
  0
VERTEX
  5
400
  8
Layer_0
  10
274.27325
  20
18.077789
  0
VERTEX
  5
401
  8
Layer_0
  10
274.59235
  20
17.932617
  0
VERTEX
  5
402
  8
Layer_0
  10
274.92902
  20
17.744736
  0
VERTEX
  5
403
  8
Layer_0
  10
278.96735
  20
15.249237
  0
VERTEX
  5
404
  8
Layer_0
  10
279.59869
  20
16.291656
  0
VERTEX
  5
405
  8
Layer_0
  10
279.914
  20
16.100677
  0
VERTEX
  5
406
  8
Layer_0
  10
279.39911
  20
15.004425
  0
VERTEX
  5
407
  8
Layer_0
  10
281.13907
  20
13.801437
  0
VERTEX
  5
408
  8
Layer_0
  10
280.91882
  20
13.43779
  0
VERTEX
  5
409
  8
Layer_0
  10
279.11276
  20
14.531616
  0
VERTEX
  5
40a
  8
Layer_0
  10
277.87946
  20
12.495255
  0
VERTEX
  5
40b
  8
Layer_0
  10
277.45508
  20
12.752274
  0
VERTEX
  5
40c
  8
Layer_0
  10
278.68839
  20
14.788635
  0
VERTEX
  5
40d
  8
Layer_0
  10
274.64014
  20
17.240433
  0
VERTEX
  5
40e
  8
Layer_0
  10
274.39429
  20
17.380005
  0
VERTEX
  5
40f
  8
Layer_0
  10
274.16595
  20
17.490356
  0
VERTEX
  5
410
  8
Layer_0
  10
273.95514
  20
17.571442
  0
VERTEX
  5
411
  8
Layer_0
  10
273.76193
  20
17.623291
  0
VERTEX
  5
412
  8
Layer_0
  10
273.58405
  20
17.650238
  0
VERTEX
  5
413
  8
Layer_0
  10
273.41959
  20
17.656601
  0
VERTEX
  5
414
  8
Layer_0
  10
273.26862
  20
17.64241
  0
VERTEX
  5
415
  8
Layer_0
  10
273.13104
  20
17.607651
  0
VERTEX
  5
416
  8
Layer_0
  10
272.88934
  20
17.49942
  0
VERTEX
  5
417
  8
Layer_0
  10
272.68765
  20
17.354416
  0
VERTEX
  5
418
  8
Layer_0
  10
272.52271
  20
17.191315
  0
VERTEX
  5
419
  8
Layer_0
  10
272.39127
  20
17.028641
  0
VERTEX
  5
41a
  8
Layer_0
  10
271.84125
  20
16.284775
  0
VERTEX
  5
41b
  8
Layer_0
  10
271.48972
  20
16.497665
  0
VERTEX
  5
41c
  8
Layer_0
  10
271.93756
  20
17.237137
  0
SEQEND
  0
POLYLINE
  5
41e
  8
Layer_0
  62
0
  70
1
  66
1
  10
0
  20
0
  30
0
  0
VERTEX
  5
41e
  8
Layer_0
  10
329.17151
  20
97.927414
  0
VERTEX
  5
41f
  8
Layer_0
  10
328.97247
  20
97.625137
  0
VERTEX
  5
420
  8
Layer_0
  10
328.77499
  20
97.363937
  0
VERTEX
  5
421
  8
Layer_0
  10
328.57907
  20
97.144394
  0
VERTEX
  5
422
  8
Layer_0
  10
328.38477
  20
96.967102
  0
VERTEX
  5
423
  8
Layer_0
  10
328.17786
  20
96.82637
  0
VERTEX
  5
424
  8
Layer_0
  10
327.96191
  20
96.730461
  0
VERTEX
  5
425
  8
Layer_0
  10
327.73688
  20
96.679367
  0
VERTEX
  5
426
  8
Layer_0
  10
327.50262
  20
96.67308
  0
VERTEX
  5
427
  8
Layer_0
  10
327.25284
  20
96.712044
  0
VERTEX
  5
428
  8
Layer_0
  10
326.98096
  20
96.796463
  0
VERTEX
  5
429
  8
Layer_0
  10
326.68695
  20
96.926392
  0
VERTEX
  5
42a
  8
Layer_0
  10
326.37076
  20
97.101852
  0
VERTEX
  5
42b
  8
Layer_0
  10
326.09778
  20
97.294113
  0
VERTEX
  5
42c
  8
Layer_0
  10
325.89716
  20
97.496368
  0
VERTEX
  5
42d
  8
Layer_0
  10
325.76898
  20
97.708611
  0
VERTEX
  5
42e
  8
Layer_0
  10
325.71323
  20
97.930817
  0
VERTEX
  5
42f
  8
Layer_0
  10
325.72015
  20
98.169952
  0
VERTEX
  5
430
  8
Layer_0
  10
325.78076
  20
98.43248
  0
VERTEX
  5
431
  8
Layer_0
  10
325.89496
  20
98.71846
  0
VERTEX
  5
432
  8
Layer_0
  10
326.06274
  20
99.027924
  0
VERTEX
  5
433
  8
Layer_0
  10
326.40936
  20
99.600281
  0
VERTEX
  5
434
  8
Layer_0
  10
326.03366
  20
99.827827
  0
VERTEX
  5
435
  8
Layer_0
  10
325.6723
  20
99.231171
  0
VERTEX
  5
436
  8
Layer_0
  10
325.52563
  20
98.968513
  0
VERTEX
  5
437
  8
Layer_0
  10
325.40857
  20
98.713791
  0
VERTEX
  5
438
  8
Layer_0
  10
325.32114
  20
98.46698
  0
VERTEX
  5
439
  8
Layer_0
  10
325.26337
  20
98.228065
  0
VERTEX
  5
43a
  8
Layer_0
  10
325.23819
  20
97.997345
  0
VERTEX
  5
43b
  8
Layer_0
  10
325.24823
  20
97.775406
  0
VERTEX
  5
43c
  8
Layer_0
  10
325.29349
  20
97.562149
  0
VERTEX
  5
43d
  8
Layer_0
  10
325.37405
  20
97.357483
  0
VERTEX
  5
43e
  8
Layer_0
  10
325.49249
  20
97.162537
  0
VERTEX
  5
43f
  8
Layer_0
  10
325.65167
  20
96.978104
  0
VERTEX
  5
440
  8
Layer_0
  10
325.85141
  20
96.804276
  0
VERTEX
  5
441
  8
Layer_0
  10
326.09171
  20
96.641106
  0
VERTEX
  5
442
  8
Layer_0
  10
326.48001
  20
96.428207
  0
VERTEX
  5
443
  8
Layer_0
  10
326.84482
  20
96.274071
  0
VERTEX
  5
444
  8
Layer_0
  10
327.18616
  20
96.178673
  0
VERTEX
  5
445
  8
Layer_0
  10
327.50403
  20
96.142006
  0
VERTEX
  5
446
  8
Layer_0
  10
327.80353
  20
96.161072
  0
VERTEX
  5
447
  8
Layer_0
  10
328.08932
  20
96.232903
  0
VERTEX
  5
448
  8
Layer_0
  10
328.36145
  20
96.357468
  0
VERTEX
  5
449
  8
Layer_0
  10
328.6199
  20
96.534714
  0
VERTEX
  5
44a
  8
Layer_0
  10
328.86102
  20
96.753967
  0
VERTEX
  5
44b
  8
Layer_0
  10
329.09998
  20
97.01918
  0
VERTEX
  5
44c
  8
Layer_0
  10
329.33673
  20
97.329803
  0
VERTEX
  5
44d
  8
Layer_0
  10
329.57129
  20
97.685295
  0
VERTEX
  5
44e
  8
Layer_0
  10
329.17151
  20
97.927414
  0
SEQEND
  0
POLYLINE
  5
450
  8
Layer_0
  62
0
  70
1
  66
1
  10
0
  20
0
  30
0
  0
VERTEX
  5
450
  8
Layer_0
  10
324.47601
  20
102.63128
  0
VERTEX
  5
451
  8
Layer_0
  10
324.75629
  20
102.75568
  0
VERTEX
  5
452
  8
Layer_0
  10
325.05402
  20
102.81979
  0
VERTEX
  5
453
  8
Layer_0
  10
325.36908
  20
102.82367
  0
VERTEX
  5
454
  8
Layer_0
  10
325.70145
  20
102.76734
  0
VERTEX
  5
455
  8
Layer_0
  10
326.06042
  20
102.65498
  0
VERTEX
  5
456
  8
Layer_0
  10
326.45544
  20
102.49074
  0
VERTEX
  5
457
  8
Layer_0
  10
326.88647
  20
102.2747
  0
VERTEX
  5
458
  8
Layer_0
  10
327.35339
  20
102.00689
  0
VERTEX
  5
459
  8
Layer_0
  10
326.32855
  20
100.3147
  0
VERTEX
  5
45a
  8
Layer_0
  10
326.70425
  20
100.08716
  0
VERTEX
  5
45b
  8
Layer_0
  10
327.72913
  20
101.77934
  0
VERTEX
  5
45c
  8
Layer_0
  10
328.23706
  20
101.45621
  0
VERTEX
  5
45d
  8
Layer_0
  10
328.6698
  20
101.14751
  0
VERTEX
  5
45e
  8
Layer_0
  10
329.02747
  20
100.85327
  0
VERTEX
  5
45f
  8
Layer_0
  10
329.30988
  20
100.57348
  0
VERTEX
  5
460
  8
Layer_0
  10
329.52142
  20
100.29684
  0
VERTEX
  5
461
  8
Layer_0
  10
329.66589
  20
100.01213
  0
VERTEX
  5
462
  8
Layer_0
  10
329.74323
  20
99.71936
  0
VERTEX
  5
463
  8
Layer_0
  10
329.75342
  20
99.418518
  0
VERTEX
  5
464
  8
Layer_0
  10
329.72162
  20
99.191284
  0
VERTEX
  5
465
  8
Layer_0
  10
329.65979
  20
98.949829
  0
VERTEX
  5
466
  8
Layer_0
  10
329.56848
  20
98.694412
  0
VERTEX
  5
467
  8
Layer_0
  10
329.44824
  20
98.425278
  0
VERTEX
  5
468
  8
Layer_0
  10
329.8508
  20
98.181473
  0
VERTEX
  5
469
  8
Layer_0
  10
330.00665
  20
98.5215
  0
VERTEX
  5
46a
  8
Layer_0
  10
330.12463
  20
98.846611
  0
VERTEX
  5
46b
  8
Layer_0
  10
330.20453
  20
99.156677
  0
VERTEX
  5
46c
  8
Layer_0
  10
330.24591
  20
99.451569
  0
VERTEX
  5
46d
  8
Layer_0
  10
330.23654
  20
99.823349
  0
VERTEX
  5
46e
  8
Layer_0
  10
330.15048
  20
100.18663
  0
VERTEX
  5
46f
  8
Layer_0
  10
329.98785
  20
100.54141
  0
VERTEX
  5
470
  8
Layer_0
  10
329.74869
  20
100.88766
  0
VERTEX
  5
471
  8
Layer_0
  10
329.42636
  20
101.23503
  0
VERTEX
  5
472
  8
Layer_0
  10
329.01428
  20
101.59328
  0
VERTEX
  5
473
  8
Layer_0
  10
328.51251
  20
101.9624
  0
VERTEX
  5
474
  8
Layer_0
  10
327.92108
  20
102.34236
  0
VERTEX
  5
475
  8
Layer_0
  10
327.32101
  20
102.68615
  0
VERTEX
  5
476
  8
Layer_0
  10
326.76947
  20
102.9612
  0
VERTEX
  5
477
  8
Layer_0
  10
326.26648
  20
103.16748
  0
VERTEX
  5
478
  8
Layer_0
  10
325.81198
  20
103.30495
  0
VERTEX
  5
479
  8
Layer_0
  10
325.3941
  20
103.37175
  0
VERTEX
  5
47a
  8
Layer_0
  10
325.00131
  20
103.36533
  0
VERTEX
  5
47b
  8
Layer_0
  10
324.63364
  20
103.28566
  0
VERTEX
  5
47c
  8
Layer_0
  10
324.29114
  20
103.13272
  0
VERTEX
  5
47d
  8
Layer_0
  10
323.965
  20
102.90569
  0
VERTEX
  5
47e
  8
Layer_0
  10
323.64713
  20
102.60323
  0
VERTEX
  5
47f
  8
Layer_0
  10
323.33752
  20
102.22533
  0
VERTEX
  5
480
  8
Layer_0
  10
323.0361
  20
101.77205
  0
VERTEX
  5
481
  8
Layer_0
  10
322.67249
  20
101.15791
  0
VERTEX
  5
482
  8
Layer_0
  10
322.35922
  20
100.59994
  0
VERTEX
  5
483
  8
Layer_0
  10
322.06586
  20
100.04659
  0
VERTEX
  5
484
  8
Layer_0
  10
321.76025
  20
99.446686
  0
VERTEX
  5
485
  8
Layer_0
  10
322.07556
  20
99.255707
  0
VERTEX
  5
486
  8
Layer_0
  10
323.39706
  20
101.43767
  0
VERTEX
  5
487
  8
Layer_0
  10
323.66544
  20
101.84413
  0
VERTEX
  5
488
  8
Layer_0
  10
323.93469
  20
102.1786
  0
VERTEX
  5
489
  8
Layer_0
  10
324.2049
  20
102.441
  0
VERTEX
  5
48a
  8
Layer_0
  10
324.47601
  20
102.63128
  0
SEQEND
  0
POLYLINE
  5
48c
  8
Layer_0
  62
0
  70
1
  66
1
  10
0
  20
0
  30
0
  0
VERTEX
  5
48c
  8
Layer_0
  10
313.60394
  20
72.228271
  0
VERTEX
  5
48d
  8
Layer_0
  10
313.41733
  20
71.952362
  0
VERTEX
  5
48e
  8
Layer_0
  10
313.23206
  20
71.712189
  0
VERTEX
  5
48f
  8
Layer_0
  10
313.04819
  20
71.508751
  0
VERTEX
  5
490
  8
Layer_0
  10
312.86575
  20
71.343063
  0
VERTEX
  5
491
  8
Layer_0
  10
312.65881
  20
71.202332
  0
VERTEX
  5
492
  8
Layer_0
  10
312.44287
  20
71.106415
  0
VERTEX
  5
493
  8
Layer_0
  10
312.21783
  20
71.055321
  0
VERTEX
  5
494
  8
Layer_0
  10
311.98361
  20
71.049042
  0
VERTEX
  5
495
  8
Layer_0
  10
311.7338
  20
71.08799
  0
VERTEX
  5
496
  8
Layer_0
  10
311.46191
  20
71.172409
  0
VERTEX
  5
497
  8
Layer_0
  10
311.16791
  20
71.30233
  0
VERTEX
  5
498
  8
Layer_0
  10
310.85172
  20
71.477798
  0
VERTEX
  5
499
  8
Layer_0
  10
310.57874
  20
71.670059
  0
VERTEX
  5
49a
  8
Layer_0
  10
310.37811
  20
71.872314
  0
VERTEX
  5
49b
  8
Layer_0
  10
310.24994
  20
72.084549
  0
VERTEX
  5
49c
  8
Layer_0
  10
310.19421
  20
72.306747
  0
VERTEX
  5
49d
  8
Layer_0
  10
310.20111
  20
72.545891
  0
VERTEX
  5
49e
  8
Layer_0
  10
310.26172
  20
72.808434
  0
VERTEX
  5
49f
  8
Layer_0
  10
310.37592
  20
73.094421
  0
VERTEX
  5
4a0
  8
Layer_0
  10
310.5437
  20
73.4039
  0
VERTEX
  5
4a1
  8
Layer_0
  10
310.84406
  20
73.899796
  0
VERTEX
  5
4a2
  8
Layer_0
  10
310.46832
  20
74.127335
  0
VERTEX
  5
4a3
  8
Layer_0
  10
310.15326
  20
73.607132
  0
VERTEX
  5
4a4
  8
Layer_0
  10
310.00659
  20
73.344467
  0
VERTEX
  5
4a5
  8
Layer_0
  10
309.88953
  20
73.089737
  0
VERTEX
  5
4a6
  8
Layer_0
  10
309.80209
  20
72.842926
  0
VERTEX
  5
4a7
  8
Layer_0
  10
309.74432
  20
72.604004
  0
VERTEX
  5
4a8
  8
Layer_0
  10
309.71915
  20
72.373291
  0
VERTEX
  5
4a9
  8
Layer_0
  10
309.72919
  20
72.151352
  0
VERTEX
  5
4aa
  8
Layer_0
  10
309.77448
  20
71.938103
  0
VERTEX
  5
4ab
  8
Layer_0
  10
309.85504
  20
71.733444
  0
VERTEX
  5
4ac
  8
Layer_0
  10
309.97345
  20
71.538498
  0
VERTEX
  5
4ad
  8
Layer_0
  10
310.13263
  20
71.354065
  0
VERTEX
  5
4ae
  8
Layer_0
  10
310.33237
  20
71.180222
  0
VERTEX
  5
4af
  8
Layer_0
  10
310.57266
  20
71.017044
  0
VERTEX
  5
4b0
  8
Layer_0
  10
310.96097
  20
70.804153
  0
VERTEX
  5
4b1
  8
Layer_0
  10
311.32578
  20
70.650024
  0
VERTEX
  5
4b2
  8
Layer_0
  10
311.66711
  20
70.554634
  0
VERTEX
  5
4b3
  8
Layer_0
  10
311.98499
  20
70.51796
  0
VERTEX
  5
4b4
  8
Layer_0
  10
312.28452
  20
70.537025
  0
VERTEX
  5
4b5
  8
Layer_0
  10
312.57031
  20
70.608864
  0
VERTEX
  5
4b6
  8
Layer_0
  10
312.84241
  20
70.733421
  0
VERTEX
  5
4b7
  8
Layer_0
  10
313.10086
  20
70.91066
  0
VERTEX
  5
4b8
  8
Layer_0
  10
313.32956
  20
71.117828
  0
VERTEX
  5
4b9
  8
Layer_0
  10
313.55621
  20
71.366821
  0
VERTEX
  5
4ba
  8
Layer_0
  10
313.78088
  20
71.656631
  0
VERTEX
  5
4bb
  8
Layer_0
  10
314.0036
  20
71.986221
  0
VERTEX
  5
4bc
  8
Layer_0
  10
313.60394
  20
72.228271
  0
SEQEND
  0
POLYLINE
  5
4be
  8
Layer_0
  62
0
  70
1
  66
1
  10
0
  20
0
  30
0
  0
VERTEX
  5
4be
  8
Layer_0
  10
308.95697
  20
77.007217
  0
VERTEX
  5
4bf
  8
Layer_0
  10
309.23724
  20
77.131638
  0
VERTEX
  5
4c0
  8
Layer_0
  10
309.53497
  20
77.195755
  0
VERTEX
  5
4c1
  8
Layer_0
  10
309.85004
  20
77.199615
  0
VERTEX
  5
4c2
  8
Layer_0
  10
310.1824
  20
77.14328
  0
VERTEX
  5
4c3
  8
Layer_0
  10
310.54138
  20
77.030914
  0
VERTEX
  5
4c4
  8
Layer_0
  10
310.9364
  20
76.866684
  0
VERTEX
  5
4c5
  8
Layer_0
  10
311.36743
  20
76.650642
  0
VERTEX
  5
4c6
  8
Layer_0
  10
311.83435
  20
76.382835
  0
VERTEX
  5
4c7
  8
Layer_0
  10
310.76321
  20
74.614212
  0
VERTEX
  5
4c8
  8
Layer_0
  10
311.13892
  20
74.386673
  0
VERTEX
  5
4c9
  8
Layer_0
  10
312.21008
  20
76.155289
  0
VERTEX
  5
4ca
  8
Layer_0
  10
312.71802
  20
75.832153
  0
VERTEX
  5
4cb
  8
Layer_0
  10
313.15076
  20
75.523468
  0
VERTEX
  5
4cc
  8
Layer_0
  10
313.50842
  20
75.229233
  0
VERTEX
  5
4cd
  8
Layer_0
  10
313.79083
  20
74.949417
  0
VERTEX
  5
4ce
  8
Layer_0
  10
314.00238
  20
74.672775
  0
VERTEX
  5
4cf
  8
Layer_0
  10
314.14685
  20
74.388077
  0
VERTEX
  5
4d0
  8
Layer_0
  10
314.22418
  20
74.095314
  0
VERTEX
  5
4d1
  8
Layer_0
  10
314.23441
  20
73.794479
  0
VERTEX
  5
4d2
  8
Layer_0
  10
314.19925
  20
73.550293
  0
VERTEX
  5
4d3
  8
Layer_0
  10
314.12973
  20
73.289833
  0
VERTEX
  5
4d4
  8
Layer_0
  10
314.02628
  20
73.013298
  0
VERTEX
  5
4d5
  8
Layer_0
  10
313.88931
  20
72.720901
  0
VERTEX
  5
4d6
  8
Layer_0
  10
314.28851
  20
72.479141
  0
VERTEX
  5
4d7
  8
Layer_0
  10
314.46124
  20
72.841125
  0
VERTEX
  5
4d8
  8
Layer_0
  10
314.59259
  20
73.186798
  0
VERTEX
  5
4d9
  8
Layer_0
  10
314.68149
  20
73.515739
  0
VERTEX
  5
4da
  8
Layer_0
  10
314.72687
  20
73.827515
  0
VERTEX
  5
4db
  8
Layer_0
  10
314.7175
  20
74.19931
  0
VERTEX
  5
4dc
  8
Layer_0
  10
314.63144
  20
74.562592
  0
VERTEX
  5
4dd
  8
Layer_0
  10
314.46881
  20
74.917358
  0
VERTEX
  5
4de
  8
Layer_0
  10
314.22964
  20
75.263611
  0
VERTEX
  5
4df
  8
Layer_0
  10
313.90732
  20
75.610985
  0
VERTEX
  5
4e0
  8
Layer_0
  10
313.49524
  20
75.969238
  0
VERTEX
  5
4e1
  8
Layer_0
  10
312.99347
  20
76.338348
  0
VERTEX
  5
4e2
  8
Layer_0
  10
312.40204
  20
76.718307
  0
VERTEX
  5
4e3
  8
Layer_0
  10
311.80197
  20
77.062088
  0
VERTEX
  5
4e4
  8
Layer_0
  10
311.25043
  20
77.337143
  0
VERTEX
  5
4e5
  8
Layer_0
  10
310.74744
  20
77.543427
  0
VERTEX
  5
4e6
  8
Layer_0
  10
310.29294
  20
77.680893
  0
VERTEX
  5
4e7
  8
Layer_0
  10
309.87506
  20
77.747696
  0
VERTEX
  5
4e8
  8
Layer_0
  10
309.48227
  20
77.74128
  0
VERTEX
  5
4e9
  8
Layer_0
  10
309.11459
  20
77.661606
  0
VERTEX
  5
4ea
  8
Layer_0
  10
308.77209
  20
77.508667
  0
VERTEX
  5
4eb
  8
Layer_0
  10
308.44595
  20
77.281647
  0
VERTEX
  5
4ec
  8
Layer_0
  10
308.12808
  20
76.979187
  0
VERTEX
  5
4ed
  8
Layer_0
  10
307.81848
  20
76.601295
  0
VERTEX
  5
4ee
  8
Layer_0
  10
307.51709
  20
76.148026
  0
VERTEX
  5
4ef
  8
Layer_0
  10
307.15344
  20
75.533844
  0
VERTEX
  5
4f0
  8
Layer_0
  10
306.84018
  20
74.975876
  0
VERTEX
  5
4f1
  8
Layer_0
  10
306.54681
  20
74.422516
  0
VERTEX
  5
4f2
  8
Layer_0
  10
306.24121
  20
73.822632
  0
VERTEX
  5
4f3
  8
Layer_0
  10
306.55652
  20
73.631653
  0
VERTEX
  5
4f4
  8
Layer_0
  10
307.87802
  20
75.813614
  0
VERTEX
  5
4f5
  8
Layer_0
  10
308.14642
  20
76.220093
  0
VERTEX
  5
4f6
  8
Layer_0
  10
308.41565
  20
76.55455
  0
VERTEX
  5
4f7
  8
Layer_0
  10
308.68585
  20
76.816948
  0
VERTEX
  5
4f8
  8
Layer_0
  10
308.95697
  20
77.007217
  0
SEQEND
  0
POLYLINE
  5
4fa
  8
Layer_0
  62
0
  70
1
  66
1
  10
0
  20
0
  30
0
  0
VERTEX
  5
4fa
  8
Layer_0
  10
295.05615
  20
54.539261
  0
VERTEX
  5
4fb
  8
Layer_0
  10
295.35156
  20
54.871918
  0
VERTEX
  5
4fc
  8
Layer_0
  10
295.67371
  20
55.15657
  0
VERTEX
  5
4fd
  8
Layer_0
  10
296.20288
  20
55.548569
  0
VERTEX
  5
4fe
  8
Layer_0
  10
296.70587
  20
55.889923
  0
VERTEX
  5
4ff
  8
Layer_0
  10
301.16644
  20
53.188431
  0
VERTEX
  5
500
  8
Layer_0
  10
301.09549
  20
52.479729
  0
VERTEX
  5
501
  8
Layer_0
  10
300.99091
  20
51.8452
  0
VERTEX
  5
502
  8
Layer_0
  10
300.88959
  20
51.476959
  0
VERTEX
  5
503
  8
Layer_0
  10
300.73776
  20
51.098221
  0
VERTEX
  5
504
  8
Layer_0
  10
301.12991
  20
50.860733
  0
VERTEX
  5
505
  8
Layer_0
  10
301.23193
  20
51.177757
  0
VERTEX
  5
506
  8
Layer_0
  10
301.31775
  20
51.522995
  0
VERTEX
  5
507
  8
Layer_0
  10
301.44342
  20
52.271141
  0
VERTEX
  5
508
  8
Layer_0
  10
301.49384
  20
52.990143
  0
VERTEX
  5
509
  8
Layer_0
  10
304.96045
  20
50.89061
  0
VERTEX
  5
50a
  8
Layer_0
  10
305.26144
  20
51.387619
  0
VERTEX
  5
50b
  8
Layer_0
  10
296.01294
  20
56.988892
  0
VERTEX
  5
50c
  8
Layer_0
  10
295.7854
  20
56.613174
  0
VERTEX
  5
50d
  8
Layer_0
  10
296.39059
  20
56.080887
  0
VERTEX
  5
50e
  8
Layer_0
  10
296.05884
  20
55.89872
  0
VERTEX
  5
50f
  8
Layer_0
  10
295.68661
  20
55.670715
  0
VERTEX
  5
510
  8
Layer_0
  10
295.29688
  20
55.393181
  0
VERTEX
  5
511
  8
Layer_0
  10
294.91266
  20
55.062469
  0
VERTEX
  5
512
  8
Layer_0
  10
294.77997
  20
54.926605
  0
VERTEX
  5
513
  8
Layer_0
  10
294.65347
  20
54.783127
  0
VERTEX
  5
514
  8
Layer_0
  10
295.05615
  20
54.539261
  0
SEQEND
  0
POLYLINE
  5
516
  8
Layer_0
  62
0
  70
1
  66
1
  10
0
  20
0
  30
0
  0
VERTEX
  5
516
  8
Layer_0
  10
298.2438
  20
49.019089
  0
VERTEX
  5
517
  8
Layer_0
  10
298.67337
  20
48.966049
  0
VERTEX
  5
518
  8
Layer_0
  10
299.06982
  20
48.974495
  0
VERTEX
  5
519
  8
Layer_0
  10
299.43314
  20
49.044434
  0
VERTEX
  5
51a
  8
Layer_0
  10
299.76331
  20
49.175842
  0
VERTEX
  5
51b
  8
Layer_0
  10
300.06616
  20
49.364685
  0
VERTEX
  5
51c
  8
Layer_0
  10
300.34753
  20
49.606888
  0
VERTEX
  5
51d
  8
Layer_0
  10
300.60739
  20
49.902466
  0
VERTEX
  5
51e
  8
Layer_0
  10
300.84567
  20
50.251389
  0
VERTEX
  5
51f
  8
Layer_0
  10
300.89264
  20
50.338959
  0
VERTEX
  5
520
  8
Layer_0
  10
300.47275
  20
50.593262
  0
VERTEX
  5
521
  8
Layer_0
  10
300.28815
  20
50.320992
  0
VERTEX
  5
522
  8
Layer_0
  10
300.08667
  20
50.085846
  0
VERTEX
  5
523
  8
Layer_0
  10
299.86841
  20
49.887749
  0
VERTEX
  5
524
  8
Layer_0
  10
299.6333
  20
49.726608
  0
VERTEX
  5
525
  8
Layer_0
  10
299.37186
  20
49.610641
  0
VERTEX
  5
526
  8
Layer_0
  10
299.07501
  20
49.547119
  0
VERTEX
  5
527
  8
Layer_0
  10
298.74271
  20
49.536057
  0
VERTEX
  5
528
  8
Layer_0
  10
298.37491
  20
49.577469
  0
VERTEX
  5
529
  8
Layer_0
  10
297.96326
  20
49.681923
  0
VERTEX
  5
52a
  8
Layer_0
  10
297.49954
  20
49.859253
  0
VERTEX
  5
52b
  8
Layer_0
  10
296.98376
  20
50.109505
  0
VERTEX
  5
52c
  8
Layer_0
  10
296.41589
  20
50.432693
  0
VERTEX
  5
52d
  8
Layer_0
  10
295.98627
  20
50.71051
  0
VERTEX
  5
52e
  8
Layer_0
  10
295.60629
  20
50.9935
  0
VERTEX
  5
52f
  8
Layer_0
  10
295.27597
  20
51.281593
  0
VERTEX
  5
530
  8
Layer_0
  10
294.99542
  20
51.574707
  0
VERTEX
  5
531
  8
Layer_0
  10
294.76682
  20
51.872681
  0
VERTEX
  5
532
  8
Layer_0
  10
294.59259
  20
52.174927
  0
VERTEX
  5
533
  8
Layer_0
  10
294.47278
  20
52.481476
  0
VERTEX
  5
534
  8
Layer_0
  10
294.40738
  20
52.792374
  0
VERTEX
  5
535
  8
Layer_0
  10
294.39874
  20
53.107208
  0
VERTEX
  5
536
  8
Layer_0
  10
294.44922
  20
53.425575
  0
VERTEX
  5
537
  8
Layer_0
  10
294.55875
  20
53.747475
  0
VERTEX
  5
538
  8
Layer_0
  10
294.72739
  20
54.072906
  0
VERTEX
  5
539
  8
Layer_0
  10
294.30945
  20
54.326035
  0
VERTEX
  5
53a
  8
Layer_0
  10
294.27661
  20
54.279808
  0
VERTEX
  5
53b
  8
Layer_0
  10
294.24435
  20
54.232941
  0
VERTEX
  5
53c
  8
Layer_0
  10
294.02667
  20
53.814545
  0
VERTEX
  5
53d
  8
Layer_0
  10
293.88736
  20
53.407608
  0
VERTEX
  5
53e
  8
Layer_0
  10
293.82645
  20
53.012138
  0
VERTEX
  5
53f
  8
Layer_0
  10
293.84393
  20
52.628159
  0
VERTEX
  5
540
  8
Layer_0
  10
293.93079
  20
52.255196
  0
VERTEX
  5
541
  8
Layer_0
  10
294.07764
  20
51.892403
  0
VERTEX
  5
542
  8
Layer_0
  10
294.28455
  20
51.539787
  0
VERTEX
  5
543
  8
Layer_0
  10
294.55139
  20
51.197372
  0
VERTEX
  5
544
  8
Layer_0
  10
294.87109
  20
50.866127
  0
VERTEX
  5
545
  8
Layer_0
  10
295.23624
  20
50.546616
  0
VERTEX
  5
546
  8
Layer_0
  10
295.64679
  20
50.238892
  0
VERTEX
  5
547
  8
Layer_0
  10
296.10278
  20
49.943024
  0
VERTEX
  5
548
  8
Layer_0
  10
296.70471
  20
49.601746
  0
VERTEX
  5
549
  8
Layer_0
  10
297.26227
  20
49.333969
  0
VERTEX
  5
54a
  8
Layer_0
  10
297.77533
  20
49.139732
  0
VERTEX
  5
54b
  8
Layer_0
  10
298.2438
  20
49.019089
  0
SEQEND
  0
POLYLINE
  5
54d
  8
Layer_0
  62
0
  70
1
  66
1
  10
0
  20
0
  30
0
  0
VERTEX
  5
54d
  8
Layer_0
  10
296.39651
  20
43.816437
  0
VERTEX
  5
54e
  8
Layer_0
  10
296.20993
  20
43.540527
  0
VERTEX
  5
54f
  8
Layer_0
  10
296.02463
  20
43.300346
  0
VERTEX
  5
550
  8
Layer_0
  10
295.84073
  20
43.096901
  0
VERTEX
  5
551
  8
Layer_0
  10
295.65829
  20
42.931198
  0
VERTEX
  5
552
  8
Layer_0
  10
295.45135
  20
42.790466
  0
VERTEX
  5
553
  8
Layer_0
  10
295.23541
  20
42.69455
  0
VERTEX
  5
554
  8
Layer_0
  10
295.01038
  20
42.643456
  0
VERTEX
  5
555
  8
Layer_0
  10
294.77615
  20
42.637177
  0
VERTEX
  5
556
  8
Layer_0
  10
294.52634
  20
42.67614
  0
VERTEX
  5
557
  8
Layer_0
  10
294.25446
  20
42.760567
  0
VERTEX
  5
558
  8
Layer_0
  10
293.96045
  20
42.890495
  0
VERTEX
  5
559
  8
Layer_0
  10
293.64429
  20
43.065964
  0
VERTEX
  5
55a
  8
Layer_0
  10
293.37128
  20
43.258224
  0
VERTEX
  5
55b
  8
Layer_0
  10
293.17065
  20
43.46048
  0
VERTEX
  5
55c
  8
Layer_0
  10
293.04248
  20
43.672714
  0
VERTEX
  5
55d
  8
Layer_0
  10
292.98676
  20
43.894913
  0
VERTEX
  5
55e
  8
Layer_0
  10
292.99365
  20
44.134056
  0
VERTEX
  5
55f
  8
Layer_0
  10
293.05426
  20
44.396591
  0
VERTEX
  5
560
  8
Layer_0
  10
293.16846
  20
44.682571
  0
VERTEX
  5
561
  8
Layer_0
  10
293.33624
  20
44.992035
  0
VERTEX
  5
562
  8
Layer_0
  10
293.6366
  20
45.487961
  0
VERTEX
  5
563
  8
Layer_0
  10
293.26089
  20
45.7155
  0
VERTEX
  5
564
  8
Layer_0
  10
292.94583
  20
45.195282
  0
VERTEX
  5
565
  8
Layer_0
  10
292.79913
  20
44.932617
  0
VERTEX
  5
566
  8
Layer_0
  10
292.68207
  20
44.677887
  0
VERTEX
  5
567
  8
Layer_0
  10
292.59464
  20
44.431076
  0
VERTEX
  5
568
  8
Layer_0
  10
292.5369
  20
44.192169
  0
VERTEX
  5
569
  8
Layer_0
  10
292.51175
  20
43.961456
  0
VERTEX
  5
56a
  8
Layer_0
  10
292.52179
  20
43.73951
  0
VERTEX
  5
56b
  8
Layer_0
  10
292.56705
  20
43.526253
  0
VERTEX
  5
56c
  8
Layer_0
  10
292.64758
  20
43.321579
  0
VERTEX
  5
56d
  8
Layer_0
  10
292.76599
  20
43.126648
  0
VERTEX
  5
56e
  8
Layer_0
  10
292.92517
  20
42.942215
  0
VERTEX
  5
56f
  8
Layer_0
  10
293.12494
  20
42.768379
  0
VERTEX
  5
570
  8
Layer_0
  10
293.36523
  20
42.605209
  0
VERTEX
  5
571
  8
Layer_0
  10
293.75354
  20
42.392319
  0
VERTEX
  5
572
  8
Layer_0
  10
294.11835
  20
42.238182
  0
VERTEX
  5
573
  8
Layer_0
  10
294.45966
  20
42.142784
  0
VERTEX
  5
574
  8
Layer_0
  10
294.77753
  20
42.106125
  0
VERTEX
  5
575
  8
Layer_0
  10
295.07706
  20
42.125168
  0
VERTEX
  5
576
  8
Layer_0
  10
295.36285
  20
42.196999
  0
VERTEX
  5
577
  8
Layer_0
  10
295.63495
  20
42.321564
  0
VERTEX
  5
578
  8
Layer_0
  10
295.89343
  20
42.498825
  0
VERTEX
  5
579
  8
Layer_0
  10
296.1221
  20
42.705994
  0
VERTEX
  5
57a
  8
Layer_0
  10
296.34875
  20
42.954987
  0
VERTEX
  5
57b
  8
Layer_0
  10
296.57343
  20
43.244797
  0
VERTEX
  5
57c
  8
Layer_0
  10
296.79614
  20
43.574402
  0
VERTEX
  5
57d
  8
Layer_0
  10
296.39651
  20
43.816437
  0
SEQEND
  0
POLYLINE
  5
57f
  8
Layer_0
  62
0
  70
1
  66
1
  10
0
  20
0
  30
0
  0
VERTEX
  5
57f
  8
Layer_0
  10
291.74954
  20
48.595383
  0
VERTEX
  5
580
  8
Layer_0
  10
292.02979
  20
48.71978
  0
VERTEX
  5
581
  8
Layer_0
  10
292.32751
  20
48.783897
  0
VERTEX
  5
582
  8
Layer_0
  10
292.64264
  20
48.787773
  0
VERTEX
  5
583
  8
Layer_0
  10
292.97498
  20
48.731445
  0
VERTEX
  5
584
  8
Layer_0
  10
293.33395
  20
48.61908
  0
VERTEX
  5
585
  8
Layer_0
  10
293.72897
  20
48.454849
  0
VERTEX
  5
586
  8
Layer_0
  10
294.15997
  20
48.2388
  0
VERTEX
  5
587
  8
Layer_0
  10
294.62692
  20
47.970993
  0
VERTEX
  5
588
  8
Layer_0
  10
293.55576
  20
46.202377
  0
VERTEX
  5
589
  8
Layer_0
  10
293.93149
  20
45.974838
  0
VERTEX
  5
58a
  8
Layer_0
  10
295.00262
  20
47.743454
  0
VERTEX
  5
58b
  8
Layer_0
  10
295.51056
  20
47.420319
  0
VERTEX
  5
58c
  8
Layer_0
  10
295.9433
  20
47.111626
  0
VERTEX
  5
58d
  8
Layer_0
  10
296.30096
  20
46.817383
  0
VERTEX
  5
58e
  8
Layer_0
  10
296.58337
  20
46.537582
  0
VERTEX
  5
58f
  8
Layer_0
  10
296.79492
  20
46.260941
  0
VERTEX
  5
590
  8
Layer_0
  10
296.93939
  20
45.976234
  0
VERTEX
  5
591
  8
Layer_0
  10
297.01672
  20
45.683456
  0
VERTEX
  5
592
  8
Layer_0
  10
297.02695
  20
45.382614
  0
VERTEX
  5
593
  8
Layer_0
  10
296.99179
  20
45.138443
  0
VERTEX
  5
594
  8
Layer_0
  10
296.92227
  20
44.877975
  0
VERTEX
  5
595
  8
Layer_0
  10
296.81885
  20
44.60144
  0
VERTEX
  5
596
  8
Layer_0
  10
296.68188
  20
44.309067
  0
VERTEX
  5
597
  8
Layer_0
  10
297.08105
  20
44.067307
  0
VERTEX
  5
598
  8
Layer_0
  10
297.25378
  20
44.429291
  0
VERTEX
  5
599
  8
Layer_0
  10
297.38513
  20
44.774963
  0
VERTEX
  5
59a
  8
Layer_0
  10
297.47403
  20
45.103897
  0
VERTEX
  5
59b
  8
Layer_0
  10
297.51941
  20
45.415665
  0
VERTEX
  5
59c
  8
Layer_0
  10
297.51004
  20
45.787445
  0
VERTEX
  5
59d
  8
Layer_0
  10
297.42401
  20
46.150734
  0
VERTEX
  5
59e
  8
Layer_0
  10
297.26135
  20
46.505508
  0
VERTEX
  5
59f
  8
Layer_0
  10
297.02222
  20
46.851761
  0
VERTEX
  5
5a0
  8
Layer_0
  10
296.69986
  20
47.199127
  0
VERTEX
  5
5a1
  8
Layer_0
  10
296.28778
  20
47.557388
  0
VERTEX
  5
5a2
  8
Layer_0
  10
295.78601
  20
47.926514
  0
VERTEX
  5
5a3
  8
Layer_0
  10
295.19458
  20
48.306473
  0
VERTEX
  5
5a4
  8
Layer_0
  10
294.59451
  20
48.650261
  0
VERTEX
  5
5a5
  8
Layer_0
  10
294.043
  20
48.925308
  0
VERTEX
  5
5a6
  8
Layer_0
  10
293.54001
  20
49.131584
  0
VERTEX
  5
5a7
  8
Layer_0
  10
293.08551
  20
49.269043
  0
VERTEX
  5
5a8
  8
Layer_0
  10
292.66763
  20
49.335854
  0
VERTEX
  5
5a9
  8
Layer_0
  10
292.27484
  20
49.329437
  0
VERTEX
  5
5aa
  8
Layer_0
  10
291.90717
  20
49.249771
  0
VERTEX
  5
5ab
  8
Layer_0
  10
291.56467
  20
49.096832
  0
VERTEX
  5
5ac
  8
Layer_0
  10
291.23849
  20
48.869797
  0
VERTEX
  5
5ad
  8
Layer_0
  10
290.92065
  20
48.567322
  0
VERTEX
  5
5ae
  8
Layer_0
  10
290.61105
  20
48.189438
  0
VERTEX
  5
5af
  8
Layer_0
  10
290.30963
  20
47.736145
  0
VERTEX
  5
5b0
  8
Layer_0
  10
289.94601
  20
47.122002
  0
VERTEX
  5
5b1
  8
Layer_0
  10
289.63275
  20
46.564041
  0
VERTEX
  5
5b2
  8
Layer_0
  10
289.33936
  20
46.010681
  0
VERTEX
  5
5b3
  8
Layer_0
  10
289.03375
  20
45.410797
  0
VERTEX
  5
5b4
  8
Layer_0
  10
289.34909
  20
45.219818
  0
VERTEX
  5
5b5
  8
Layer_0
  10
290.67056
  20
47.401764
  0
VERTEX
  5
5b6
  8
Layer_0
  10
290.93896
  20
47.808235
  0
VERTEX
  5
5b7
  8
Layer_0
  10
291.20825
  20
48.1427
  0
VERTEX
  5
5b8
  8
Layer_0
  10
291.47842
  20
48.405106
  0
VERTEX
  5
5b9
  8
Layer_0
  10
291.74954
  20
48.595383
  0
SEQEND
  0
POLYLINE
  5
5bb
  8
Layer_0
  62
0
  70
1
  66
1
  10
0
  20
0
  30
0
  0
VERTEX
  5
5bb
  8
Layer_0
  10
278.28314
  20
33.486313
  0
VERTEX
  5
5bc
  8
Layer_0
  10
278.57617
  20
33.970139
  0
VERTEX
  5
5bd
  8
Layer_0
  10
278.82089
  20
34.334076
  0
VERTEX
  5
5be
  8
Layer_0
  10
279.07776
  20
34.637741
  0
VERTEX
  5
5bf
  8
Layer_0
  10
279.34677
  20
34.881195
  0
VERTEX
  5
5c0
  8
Layer_0
  10
279.62799
  20
35.064453
  0
VERTEX
  5
5c1
  8
Layer_0
  10
279.92435
  20
35.171417
  0
VERTEX
  5
5c2
  8
Layer_0
  10
280.2381
  20
35.185898
  0
VERTEX
  5
5c3
  8
Layer_0
  10
280.56934
  20
35.107941
  0
VERTEX
  5
5c4
  8
Layer_0
  10
280.91815
  20
34.937561
  0
VERTEX
  5
5c5
  8
Layer_0
  10
281.25763
  20
34.731949
  0
VERTEX
  5
5c6
  8
Layer_0
  10
281.47928
  20
34.576492
  0
VERTEX
  5
5c7
  8
Layer_0
  10
281.65936
  20
34.403732
  0
VERTEX
  5
5c8
  8
Layer_0
  10
281.79785
  20
34.213684
  0
VERTEX
  5
5c9
  8
Layer_0
  10
281.89474
  20
34.006348
  0
VERTEX
  5
5ca
  8
Layer_0
  10
281.95572
  20
33.788864
  0
VERTEX
  5
5cb
  8
Layer_0
  10
281.98572
  20
33.568298
  0
VERTEX
  5
5cc
  8
Layer_0
  10
281.98486
  20
33.344635
  0
VERTEX
  5
5cd
  8
Layer_0
  10
281.95319
  20
33.117905
  0
VERTEX
  5
5ce
  8
Layer_0
  10
281.89597
  20
32.891617
  0
VERTEX
  5
5cf
  8
Layer_0
  10
281.81839
  20
32.669373
  0
VERTEX
  5
5d0
  8
Layer_0
  10
281.72043
  20
32.451172
  0
VERTEX
  5
5d1
  8
Layer_0
  10
281.60211
  20
32.236984
  0
VERTEX
  5
5d2
  8
Layer_0
  10
281.26501
  20
31.680374
  0
VERTEX
  5
5d3
  8
Layer_0
  10
281.67697
  20
31.430878
  0
VERTEX
  5
5d4
  8
Layer_0
  10
282.27838
  20
32.423904
  0
VERTEX
  5
5d5
  8
Layer_0
  10
282.36444
  20
32.544662
  0
VERTEX
  5
5d6
  8
Layer_0
  10
282.46851
  20
32.652481
  0
VERTEX
  5
5d7
  8
Layer_0
  10
282.59064
  20
32.747345
  0
VERTEX
  5
5d8
  8
Layer_0
  10
282.73083
  20
32.829163
  0
VERTEX
  5
5d9
  8
Layer_0
  10
282.8826
  20
32.882202
  0
VERTEX
  5
5da
  8
Layer_0
  10
283.03946
  20
32.890717
  0
VERTEX
  5
5db
  8
Layer_0
  10
283.20145
  20
32.854721
  0
VERTEX
  5
5dc
  8
Layer_0
  10
283.36859
  20
32.774185
  0
VERTEX
  5
5dd
  8
Layer_0
  10
283.56799
  20
32.623901
  0
VERTEX
  5
5de
  8
Layer_0
  10
283.70566
  20
32.451965
  0
VERTEX
  5
5df
  8
Layer_0
  10
283.78162
  20
32.258392
  0
VERTEX
  5
5e0
  8
Layer_0
  10
283.79581
  20
32.043198
  0
VERTEX
  5
5e1
  8
Layer_0
  10
283.75769
  20
31.806915
  0
VERTEX
  5
5e2
  8
Layer_0
  10
283.677
  20
31.54982
  0
VERTEX
  5
5e3
  8
Layer_0
  10
283.55374
  20
31.271912
  0
VERTEX
  5
5e4
  8
Layer_0
  10
283.38785
  20
30.973221
  0
VERTEX
  5
5e5
  8
Layer_0
  10
283.1315
  20
30.549942
  0
VERTEX
  5
5e6
  8
Layer_0
  10
283.54376
  20
30.300278
  0
VERTEX
  5
5e7
  8
Layer_0
  10
283.6973
  20
30.553802
  0
VERTEX
  5
5e8
  8
Layer_0
  10
283.93134
  20
30.88382
  0
VERTEX
  5
5e9
  8
Layer_0
  10
284.19281
  20
31.146439
  0
VERTEX
  5
5ea
  8
Layer_0
  10
284.48181
  20
31.341614
  0
VERTEX
  5
5eb
  8
Layer_0
  10
284.79831
  20
31.469284
  0
VERTEX
  5
5ec
  8
Layer_0
  10
285.14264
  20
31.518066
  0
VERTEX
  5
5ed
  8
Layer_0
  10
285.51492
  20
31.476349
  0
VERTEX
  5
5ee
  8
Layer_0
  10
285.91528
  20
31.344131
  0
VERTEX
  5
5ef
  8
Layer_0
  10
286.34369
  20
31.121384
  0
VERTEX
  5
5f0
  8
Layer_0
  10
286.56079
  20
30.97966
  0
VERTEX
  5
5f1
  8
Layer_0
  10
286.75165
  20
30.83342
  0
VERTEX
  5
5f2
  8
Layer_0
  10
286.9162
  20
30.682663
  0
VERTEX
  5
5f3
  8
Layer_0
  10
287.0545
  20
30.527374
  0
VERTEX
  5
5f4
  8
Layer_0
  10
287.1665
  20
30.367538
  0
VERTEX
  5
5f5
  8
Layer_0
  10
287.2522
  20
30.203186
  0
VERTEX
  5
5f6
  8
Layer_0
  10
287.31158
  20
30.034271
  0
VERTEX
  5
5f7
  8
Layer_0
  10
287.34473
  20
29.860794
  0
VERTEX
  5
5f8
  8
Layer_0
  10
287.34839
  20
29.501907
  0
VERTEX
  5
5f9
  8
Layer_0
  10
287.27975
  20
29.127747
  0
VERTEX
  5
5fa
  8
Layer_0
  10
287.13876
  20
28.738358
  0
VERTEX
  5
5fb
  8
Layer_0
  10
286.92535
  20
28.333755
  0
VERTEX
  5
5fc
  8
Layer_0
  10
286.88925
  20
28.274094
  0
VERTEX
  5
5fd
  8
Layer_0
  10
287.311
  20
28.018661
  0
VERTEX
  5
5fe
  8
Layer_0
  10
287.4823
  20
28.335495
  0
VERTEX
  5
5ff
  8
Layer_0
  10
287.62335
  20
28.651199
  0
VERTEX
  5
600
  8
Layer_0
  10
287.73358
  20
28.96579
  0
VERTEX
  5
601
  8
Layer_0
  10
287.81256
  20
29.279205
  0
VERTEX
  5
602
  8
Layer_0
  10
287.85413
  20
29.603516
  0
VERTEX
  5
603
  8
Layer_0
  10
287.84625
  20
29.919479
  0
VERTEX
  5
604
  8
Layer_0
  10
287.78882
  20
30.227112
  0
VERTEX
  5
605
  8
Layer_0
  10
287.68179
  20
30.526428
  0
VERTEX
  5
606
  8
Layer_0
  10
287.51865
  20
30.813782
  0
VERTEX
  5
607
  8
Layer_0
  10
287.29306
  20
31.085022
  0
VERTEX
  5
608
  8
Layer_0
  10
287.005
  20
31.340225
  0
VERTEX
  5
609
  8
Layer_0
  10
286.65448
  20
31.579407
  0
VERTEX
  5
60a
  8
Layer_0
  10
286.28259
  20
31.769409
  0
VERTEX
  5
60b
  8
Layer_0
  10
285.87073
  20
31.913269
  0
VERTEX
  5
60c
  8
Layer_0
  10
285.65182
  20
31.961472
  0
VERTEX
  5
60d
  8
Layer_0
  10
285.42743
  20
31.984985
  0
VERTEX
  5
60e
  8
Layer_0
  10
285.19748
  20
31.983887
  0
VERTEX
  5
60f
  8
Layer_0
  10
284.96194
  20
31.958237
  0
VERTEX
  5
610
  8
Layer_0
  10
284.72406
  20
31.900543
  0
VERTEX
  5
611
  8
Layer_0
  10
284.48691
  20
31.802979
  0
VERTEX
  5
612
  8
Layer_0
  10
284.25049
  20
31.665543
  0
VERTEX
  5
613
  8
Layer_0
  10
284.01474
  20
31.488312
  0
VERTEX
  5
614
  8
Layer_0
  10
284.10867
  20
31.775238
  0
VERTEX
  5
615
  8
Layer_0
  10
284.16461
  20
32.043655
  0
VERTEX
  5
616
  8
Layer_0
  10
284.1825
  20
32.293701
  0
VERTEX
  5
617
  8
Layer_0
  10
284.16238
  20
32.525421
  0
VERTEX
  5
618
  8
Layer_0
  10
284.09851
  20
32.738037
  0
VERTEX
  5
619
  8
Layer_0
  10
283.98535
  20
32.930786
  0
VERTEX
  5
61a
  8
Layer_0
  10
283.82294
  20
33.103699
  0
VERTEX
  5
61b
  8
Layer_0
  10
283.61127
  20
33.256744
  0
VERTEX
  5
61c
  8
Layer_0
  10
283.37381
  20
33.370056
  0
VERTEX
  5
61d
  8
Layer_0
  10
283.13434
  20
33.423492
  0
VERTEX
  5
61e
  8
Layer_0
  10
282.89282
  20
33.417038
  0
VERTEX
  5
61f
  8
Layer_0
  10
282.64914
  20
33.350662
  0
VERTEX
  5
620
  8
Layer_0
  10
282.48346
  20
33.269287
  0
VERTEX
  5
621
  8
Layer_0
  10
282.32712
  20
33.165436
  0
VERTEX
  5
622
  8
Layer_0
  10
282.33517
  20
33.201309
  0
VERTEX
  5
623
  8
Layer_0
  10
282.36932
  20
33.490234
  0
VERTEX
  5
624
  8
Layer_0
  10
282.36725
  20
33.77417
  0
VERTEX
  5
625
  8
Layer_0
  10
282.32904
  20
34.05304
  0
VERTEX
  5
626
  8
Layer_0
  10
282.25479
  20
34.326767
  0
VERTEX
  5
627
  8
Layer_0
  10
282.13754
  20
34.586334
  0
VERTEX
  5
628
  8
Layer_0
  10
281.97061
  20
34.822052
  0
VERTEX
  5
629
  8
Layer_0
  10
281.75406
  20
35.033936
  0
VERTEX
  5
62a
  8
Layer_0
  10
281.48798
  20
35.221985
  0
VERTEX
  5
62b
  8
Layer_0
  10
281.1485
  20
35.427597
  0
VERTEX
  5
62c
  8
Layer_0
  10
280.87158
  20
35.572021
  0
VERTEX
  5
62d
  8
Layer_0
  10
280.59821
  20
35.667664
  0
VERTEX
  5
62e
  8
Layer_0
  10
280.32843
  20
35.7146
  0
VERTEX
  5
62f
  8
Layer_0
  10
280.06213
  20
35.712769
  0
VERTEX
  5
630
  8
Layer_0
  10
279.80179
  20
35.666473
  0
VERTEX
  5
631
  8
Layer_0
  10
279.54932
  20
35.580261
  0
VERTEX
  5
632
  8
Layer_0
  10
279.30463
  20
35.454086
  0
VERTEX
  5
633
  8
Layer_0
  10
279.06778
  20
35.287918
  0
VERTEX
  5
634
  8
Layer_0
  10
278.84021
  20
35.085617
  0
VERTEX
  5
635
  8
Layer_0
  10
278.62302
  20
34.851089
  0
VERTEX
  5
636
  8
Layer_0
  10
278.41629
  20
34.58432
  0
VERTEX
  5
637
  8
Layer_0
  10
278.22009
  20
34.285294
  0
VERTEX
  5
638
  8
Layer_0
  10
277.88297
  20
33.728683
  0
VERTEX
  5
639
  8
Layer_0
  10
278.28314
  20
33.486313
  0
SEQEND
  0
POLYLINE
  5
63b
  8
Layer_0
  62
0
  70
1
  66
1
  10
0
  20
0
  30
0
  0
VERTEX
  5
63b
  8
Layer_0
  10
286.52145
  20
26.709854
  0
VERTEX
  5
63c
  8
Layer_0
  10
286.09741
  20
26.966675
  0
VERTEX
  5
63d
  8
Layer_0
  10
286.00998
  20
26.822311
  0
VERTEX
  5
63e
  8
Layer_0
  10
285.85385
  20
26.587646
  0
VERTEX
  5
63f
  8
Layer_0
  10
285.68643
  20
26.380493
  0
VERTEX
  5
640
  8
Layer_0
  10
285.50769
  20
26.200867
  0
VERTEX
  5
641
  8
Layer_0
  10
285.31757
  20
26.048859
  0
VERTEX
  5
642
  8
Layer_0
  10
285.11337
  20
25.928741
  0
VERTEX
  5
643
  8
Layer_0
  10
284.89178
  20
25.844986
  0
VERTEX
  5
644
  8
Layer_0
  10
284.65289
  20
25.797562
  0
VERTEX
  5
645
  8
Layer_0
  10
284.39664
  20
25.786423
  0
VERTEX
  5
646
  8
Layer_0
  10
284.12399
  20
25.817474
  0
VERTEX
  5
647
  8
Layer_0
  10
283.83572
  20
25.896271
  0
VERTEX
  5
648
  8
Layer_0
  10
283.53183
  20
26.022827
  0
VERTEX
  5
649
  8
Layer_0
  10
283.21234
  20
26.197159
  0
VERTEX
  5
64a
  8
Layer_0
  10
283.02051
  20
26.32579
  0
VERTEX
  5
64b
  8
Layer_0
  10
282.84497
  20
26.469376
  0
VERTEX
  5
64c
  8
Layer_0
  10
282.68576
  20
26.62796
  0
VERTEX
  5
64d
  8
Layer_0
  10
282.54288
  20
26.801559
  0
VERTEX
  5
64e
  8
Layer_0
  10
282.42554
  20
26.993286
  0
VERTEX
  5
64f
  8
Layer_0
  10
282.34283
  20
27.206451
  0
VERTEX
  5
650
  8
Layer_0
  10
282.29486
  20
27.440979
  0
VERTEX
  5
651
  8
Layer_0
  10
282.28159
  20
27.696869
  0
VERTEX
  5
652
  8
Layer_0
  10
282.31372
  20
27.977264
  0
VERTEX
  5
653
  8
Layer_0
  10
282.40173
  20
28.284882
  0
VERTEX
  5
654
  8
Layer_0
  10
282.54559
  20
28.619751
  0
VERTEX
  5
655
  8
Layer_0
  10
282.74524
  20
28.981827
  0
VERTEX
  5
656
  8
Layer_0
  10
282.75192
  20
28.992844
  0
VERTEX
  5
657
  8
Layer_0
  10
282.33966
  20
29.242523
  0
VERTEX
  5
658
  8
Layer_0
  10
282.30365
  20
29.183044
  0
VERTEX
  5
659
  8
Layer_0
  10
282.07233
  20
28.759277
  0
VERTEX
  5
65a
  8
Layer_0
  10
281.9071
  20
28.360779
  0
VERTEX
  5
65b
  8
Layer_0
  10
281.80792
  20
27.987518
  0
VERTEX
  5
65c
  8
Layer_0
  10
281.77478
  20
27.639511
  0
VERTEX
  5
65d
  8
Layer_0
  10
281.79507
  20
27.316513
  0
VERTEX
  5
65e
  8
Layer_0
  10
281.85632
  20
27.018448
  0
VERTEX
  5
65f
  8
Layer_0
  10
281.95859
  20
26.74527
  0
VERTEX
  5
660
  8
Layer_0
  10
282.10184
  20
26.496964
  0
VERTEX
  5
661
  8
Layer_0
  10
282.27454
  20
26.272812
  0
VERTEX
  5
662
  8
Layer_0
  10
282.46539
  20
26.071793
  0
VERTEX
  5
663
  8
Layer_0
  10
282.67456
  20
25.893906
  0
VERTEX
  5
664
  8
Layer_0
  10
282.90192
  20
25.739136
  0
VERTEX
  5
665
  8
Layer_0
  10
283.21228
  20
25.566193
  0
VERTEX
  5
666
  8
Layer_0
  10
283.50116
  20
25.436279
  0
VERTEX
  5
667
  8
Layer_0
  10
283.76852
  20
25.349426
  0
VERTEX
  5
668
  8
Layer_0
  10
284.0144
  20
25.305588
  0
VERTEX
  5
669
  8
Layer_0
  10
284.2403
  20
25.294678
  0
VERTEX
  5
66a
  8
Layer_0
  10
284.44769
  20
25.306305
  0
VERTEX
  5
66b
  8
Layer_0
  10
284.63657
  20
25.340469
  0
VERTEX
  5
66c
  8
Layer_0
  10
284.80692
  20
25.397186
  0
VERTEX
  5
66d
  8
Layer_0
  10
285.10068
  20
25.529968
  0
VERTEX
  5
66e
  8
Layer_0
  10
285.33667
  20
25.656067
  0
VERTEX
  5
66f
  8
Layer_0
  10
284.3912
  20
23.876144
  0
VERTEX
  5
670
  8
Layer_0
  10
284.69412
  20
23.692673
  0
VERTEX
  5
671
  8
Layer_0
  10
286.52145
  20
26.709854
  0
SEQEND
  0
POLYLINE
  5
673
  8
Layer_0
  62
0
  70
1
  66
1
  10
0
  20
0
  30
0
  0
VERTEX
  5
673
  8
Layer_0
  10
279.42557
  20
28.151093
  0
VERTEX
  5
674
  8
Layer_0
  10
279.66522
  20
28.355499
  0
VERTEX
  5
675
  8
Layer_0
  10
279.90039
  20
28.607056
  0
VERTEX
  5
676
  8
Layer_0
  10
280.13107
  20
28.905823
  0
VERTEX
  5
677
  8
Layer_0
  10
280.35724
  20
29.251846
  0
VERTEX
  5
678
  8
Layer_0
  10
280.88513
  20
30.123459
  0
VERTEX
  5
679
  8
Layer_0
  10
280.47318
  20
30.372955
  0
VERTEX
  5
67a
  8
Layer_0
  10
279.97464
  20
29.549789
  0
VERTEX
  5
67b
  8
Layer_0
  10
279.76736
  20
29.230621
  0
VERTEX
  5
67c
  8
Layer_0
  10
279.5639
  20
28.96402
  0
VERTEX
  5
67d
  8
Layer_0
  10
279.36426
  20
28.749924
  0
VERTEX
  5
67e
  8
Layer_0
  10
279.1684
  20
28.588333
  0
VERTEX
  5
67f
  8
Layer_0
  10
278.97501
  20
28.471558
  0
VERTEX
  5
680
  8
Layer_0
  10
278.78223
  20
28.391632
  0
VERTEX
  5
681
  8
Layer_0
  10
278.59003
  20
28.348572
  0
VERTEX
  5
682
  8
Layer_0
  10
278.39838
  20
28.342392
  0
VERTEX
  5
683
  8
Layer_0
  10
278.20599
  20
28.368378
  0
VERTEX
  5
684
  8
Layer_0
  10
278.01138
  20
28.421555
  0
VERTEX
  5
685
  8
Layer_0
  10
277.81458
  20
28.501923
  0
VERTEX
  5
686
  8
Layer_0
  10
277.61566
  20
28.609451
  0
VERTEX
  5
687
  8
Layer_0
  10
277.33685
  20
28.778305
  0
VERTEX
  5
688
  8
Layer_0
  10
277.02182
  20
29.01207
  0
VERTEX
  5
689
  8
Layer_0
  10
276.7919
  20
29.280212
  0
VERTEX
  5
68a
  8
Layer_0
  10
276.64703
  20
29.582794
  0
VERTEX
  5
68b
  8
Layer_0
  10
276.58716
  20
29.919876
  0
VERTEX
  5
68c
  8
Layer_0
  10
276.60547
  20
30.285202
  0
VERTEX
  5
68d
  8
Layer_0
  10
276.69507
  20
30.672577
  0
VERTEX
  5
68e
  8
Layer_0
  10
276.85599
  20
31.08194
  0
VERTEX
  5
68f
  8
Layer_0
  10
277.0882
  20
31.513245
  0
VERTEX
  5
690
  8
Layer_0
  10
277.49133
  20
32.178894
  0
VERTEX
  5
691
  8
Layer_0
  10
277.09113
  20
32.421265
  0
VERTEX
  5
692
  8
Layer_0
  10
276.67337
  20
31.731461
  0
VERTEX
  5
693
  8
Layer_0
  10
276.51349
  20
31.450607
  0
VERTEX
  5
694
  8
Layer_0
  10
276.37891
  20
31.177734
  0
VERTEX
  5
695
  8
Layer_0
  10
276.26965
  20
30.912842
  0
VERTEX
  5
696
  8
Layer_0
  10
276.18567
  20
30.655914
  0
VERTEX
  5
697
  8
Layer_0
  10
276.12695
  20
30.406982
  0
VERTEX
  5
698
  8
Layer_0
  10
276.09351
  20
30.166046
  0
VERTEX
  5
699
  8
Layer_0
  10
276.08533
  20
29.933121
  0
VERTEX
  5
69a
  8
Layer_0
  10
276.10245
  20
29.708176
  0
VERTEX
  5
69b
  8
Layer_0
  10
276.14368
  20
29.49292
  0
VERTEX
  5
69c
  8
Layer_0
  10
276.2077
  20
29.289276
  0
VERTEX
  5
69d
  8
Layer_0
  10
276.29443
  20
29.097168
  0
VERTEX
  5
69e
  8
Layer_0
  10
276.40399
  20
28.916626
  0
VERTEX
  5
69f
  8
Layer_0
  10
276.53625
  20
28.74765
  0
VERTEX
  5
6a0
  8
Layer_0
  10
276.69135
  20
28.590271
  0
VERTEX
  5
6a1
  8
Layer_0
  10
276.8692
  20
28.444458
  0
VERTEX
  5
6a2
  8
Layer_0
  10
277.06989
  20
28.310242
  0
VERTEX
  5
6a3
  8
Layer_0
  10
277.38519
  20
28.119278
  0
VERTEX
  5
6a4
  8
Layer_0
  10
277.6554
  20
27.974792
  0
VERTEX
  5
6a5
  8
Layer_0
  10
277.92065
  20
27.871674
  0
VERTEX
  5
6a6
  8
Layer_0
  10
278.18085
  20
27.809891
  0
VERTEX
  5
6a7
  8
Layer_0
  10
278.436
  20
27.789383
  0
VERTEX
  5
6a8
  8
Layer_0
  10
278.68756
  20
27.812164
  0
VERTEX
  5
6a9
  8
Layer_0
  10
278.93628
  20
27.880035
  0
VERTEX
  5
6aa
  8
Layer_0
  10
279.18225
  20
27.993011
  0
VERTEX
  5
6ab
  8
Layer_0
  10
279.42557
  20
28.151093
  0
SEQEND
  0
POLYLINE
  5
6ad
  8
Layer_0
  62
0
  70
1
  66
1
  10
0
  20
0
  30
0
  0
VERTEX
  5
6ad
  8
Layer_0
  10
306.64139
  20
60.730927
  0
VERTEX
  5
6ae
  8
Layer_0
  10
306.45187
  20
60.448845
  0
VERTEX
  5
6af
  8
Layer_0
  10
306.26367
  20
60.203674
  0
VERTEX
  5
6b0
  8
Layer_0
  10
306.07693
  20
59.996384
  0
VERTEX
  5
6b1
  8
Layer_0
  10
305.89166
  20
59.827911
  0
VERTEX
  5
6b2
  8
Layer_0
  10
305.68475
  20
59.68718
  0
VERTEX
  5
6b3
  8
Layer_0
  10
305.46881
  20
59.59127
  0
VERTEX
  5
6b4
  8
Layer_0
  10
305.24377
  20
59.540176
  0
VERTEX
  5
6b5
  8
Layer_0
  10
305.00952
  20
59.53389
  0
VERTEX
  5
6b6
  8
Layer_0
  10
304.75974
  20
59.572853
  0
VERTEX
  5
6b7
  8
Layer_0
  10
304.48785
  20
59.65728
  0
VERTEX
  5
6b8
  8
Layer_0
  10
304.19385
  20
59.787209
  0
VERTEX
  5
6b9
  8
Layer_0
  10
303.87766
  20
59.962662
  0
VERTEX
  5
6ba
  8
Layer_0
  10
303.60468
  20
60.154922
  0
VERTEX
  5
6bb
  8
Layer_0
  10
303.40405
  20
60.357185
  0
VERTEX
  5
6bc
  8
Layer_0
  10
303.27588
  20
60.569427
  0
VERTEX
  5
6bd
  8
Layer_0
  10
303.22012
  20
60.791626
  0
VERTEX
  5
6be
  8
Layer_0
  10
303.22705
  20
61.030762
  0
VERTEX
  5
6bf
  8
Layer_0
  10
303.28766
  20
61.293289
  0
VERTEX
  5
6c0
  8
Layer_0
  10
303.40186
  20
61.579269
  0
VERTEX
  5
6c1
  8
Layer_0
  10
303.56964
  20
61.888733
  0
VERTEX
  5
6c2
  8
Layer_0
  10
303.88095
  20
62.402771
  0
VERTEX
  5
6c3
  8
Layer_0
  10
303.50525
  20
62.63031
  0
VERTEX
  5
6c4
  8
Layer_0
  10
303.1792
  20
62.09198
  0
VERTEX
  5
6c5
  8
Layer_0
  10
303.03253
  20
61.829323
  0
VERTEX
  5
6c6
  8
Layer_0
  10
302.91547
  20
61.5746
  0
VERTEX
  5
6c7
  8
Layer_0
  10
302.82803
  20
61.327789
  0
VERTEX
  5
6c8
  8
Layer_0
  10
302.77026
  20
61.088882
  0
VERTEX
  5
6c9
  8
Layer_0
  10
302.74509
  20
60.858154
  0
VERTEX
  5
6ca
  8
Layer_0
  10
302.75513
  20
60.636215
  0
VERTEX
  5
6cb
  8
Layer_0
  10
302.80038
  20
60.422951
  0
VERTEX
  5
6cc
  8
Layer_0
  10
302.88095
  20
60.218277
  0
VERTEX
  5
6cd
  8
Layer_0
  10
302.99939
  20
60.023346
  0
VERTEX
  5
6ce
  8
Layer_0
  10
303.15857
  20
59.838913
  0
VERTEX
  5
6cf
  8
Layer_0
  10
303.35831
  20
59.665077
  0
VERTEX
  5
6d0
  8
Layer_0
  10
303.5986
  20
59.501907
  0
VERTEX
  5
6d1
  8
Layer_0
  10
303.98691
  20
59.289017
  0
VERTEX
  5
6d2
  8
Layer_0
  10
304.35172
  20
59.13488
  0
VERTEX
  5
6d3
  8
Layer_0
  10
304.69305
  20
59.039482
  0
VERTEX
  5
6d4
  8
Layer_0
  10
305.01093
  20
59.002823
  0
VERTEX
  5
6d5
  8
Layer_0
  10
305.31042
  20
59.021889
  0
VERTEX
  5
6d6
  8
Layer_0
  10
305.59622
  20
59.093719
  0
VERTEX
  5
6d7
  8
Layer_0
  10
305.86835
  20
59.218285
  0
VERTEX
  5
6d8
  8
Layer_0
  10
306.1268
  20
59.395523
  0
VERTEX
  5
6d9
  8
Layer_0
  10
306.35843
  20
59.605576
  0
VERTEX
  5
6da
  8
Layer_0
  10
306.58801
  20
59.858459
  0
VERTEX
  5
6db
  8
Layer_0
  10
306.81555
  20
60.153198
  0
VERTEX
  5
6dc
  8
Layer_0
  10
307.04108
  20
60.488846
  0
VERTEX
  5
6dd
  8
Layer_0
  10
306.64139
  20
60.730927
  0
SEQEND
  0
POLYLINE
  5
6df
  8
Layer_0
  62
0
  70
1
  66
1
  10
0
  20
0
  30
0
  0
VERTEX
  5
6df
  8
Layer_0
  10
301.98291
  20
65.492096
  0
VERTEX
  5
6e0
  8
Layer_0
  10
302.26318
  20
65.616493
  0
VERTEX
  5
6e1
  8
Layer_0
  10
302.56091
  20
65.680611
  0
VERTEX
  5
6e2
  8
Layer_0
  10
302.87598
  20
65.684486
  0
VERTEX
  5
6e3
  8
Layer_0
  10
303.20834
  20
65.628159
  0
VERTEX
  5
6e4
  8
Layer_0
  10
303.56732
  20
65.515785
  0
VERTEX
  5
6e5
  8
Layer_0
  10
303.96234
  20
65.351547
  0
VERTEX
  5
6e6
  8
Layer_0
  10
304.39337
  20
65.135498
  0
VERTEX
  5
6e7
  8
Layer_0
  10
304.86029
  20
64.867691
  0
VERTEX
  5
6e8
  8
Layer_0
  10
303.80011
  20
63.117203
  0
VERTEX
  5
6e9
  8
Layer_0
  10
304.17584
  20
62.889664
  0
VERTEX
  5
6ea
  8
Layer_0
  10
305.23599
  20
64.640152
  0
VERTEX
  5
6eb
  8
Layer_0
  10
305.7439
  20
64.317017
  0
VERTEX
  5
6ec
  8
Layer_0
  10
306.1767
  20
64.008324
  0
VERTEX
  5
6ed
  8
Layer_0
  10
306.53436
  20
63.714081
  0
VERTEX
  5
6ee
  8
Layer_0
  10
306.81677
  20
63.43428
  0
VERTEX
  5
6ef
  8
Layer_0
  10
307.02832
  20
63.157654
  0
VERTEX
  5
6f0
  8
Layer_0
  10
307.17279
  20
62.87294
  0
VERTEX
  5
6f1
  8
Layer_0
  10
307.25012
  20
62.58017
  0
VERTEX
  5
6f2
  8
Layer_0
  10
307.26031
  20
62.279327
  0
VERTEX
  5
6f3
  8
Layer_0
  10
307.2261
  20
62.039024
  0
VERTEX
  5
6f4
  8
Layer_0
  10
307.15875
  20
61.783012
  0
VERTEX
  5
6f5
  8
Layer_0
  10
307.0585
  20
61.511398
  0
VERTEX
  5
6f6
  8
Layer_0
  10
306.92557
  20
61.224304
  0
VERTEX
  5
6f7
  8
Layer_0
  10
307.32468
  20
60.98259
  0
VERTEX
  5
6f8
  8
Layer_0
  10
307.49335
  20
61.339333
  0
VERTEX
  5
6f9
  8
Layer_0
  10
307.62152
  20
61.68013
  0
VERTEX
  5
6fa
  8
Layer_0
  10
307.70834
  20
62.004608
  0
VERTEX
  5
6fb
  8
Layer_0
  10
307.75281
  20
62.312378
  0
VERTEX
  5
6fc
  8
Layer_0
  10
307.74344
  20
62.684158
  0
VERTEX
  5
6fd
  8
Layer_0
  10
307.65738
  20
63.047447
  0
VERTEX
  5
6fe
  8
Layer_0
  10
307.49475
  20
63.402222
  0
VERTEX
  5
6ff
  8
Layer_0
  10
307.25558
  20
63.748489
  0
VERTEX
  5
700
  8
Layer_0
  10
306.93326
  20
64.09584
  0
VERTEX
  5
701
  8
Layer_0
  10
306.52118
  20
64.454086
  0
VERTEX
  5
702
  8
Layer_0
  10
306.01941
  20
64.823212
  0
VERTEX
  5
703
  8
Layer_0
  10
305.42795
  20
65.203171
  0
VERTEX
  5
704
  8
Layer_0
  10
304.82788
  20
65.546959
  0
VERTEX
  5
705
  8
Layer_0
  10
304.27637
  20
65.822006
  0
VERTEX
  5
706
  8
Layer_0
  10
303.77338
  20
66.02829
  0
VERTEX
  5
707
  8
Layer_0
  10
303.31888
  20
66.165756
  0
VERTEX
  5
708
  8
Layer_0
  10
302.901
  20
66.232559
  0
VERTEX
  5
709
  8
Layer_0
  10
302.50821
  20
66.226143
  0
VERTEX
  5
70a
  8
Layer_0
  10
302.14053
  20
66.146469
  0
VERTEX
  5
70b
  8
Layer_0
  10
301.79803
  20
65.99353
  0
VERTEX
  5
70c
  8
Layer_0
  10
301.47189
  20
65.766495
  0
VERTEX
  5
70d
  8
Layer_0
  10
301.15402
  20
65.464035
  0
VERTEX
  5
70e
  8
Layer_0
  10
300.84442
  20
65.086143
  0
VERTEX
  5
70f
  8
Layer_0
  10
300.543
  20
64.632858
  0
VERTEX
  5
710
  8
Layer_0
  10
300.17938
  20
64.018715
  0
VERTEX
  5
711
  8
Layer_0
  10
299.86612
  20
63.460739
  0
VERTEX
  5
712
  8
Layer_0
  10
299.57272
  20
62.907379
  0
VERTEX
  5
713
  8
Layer_0
  10
299.26715
  20
62.307495
  0
VERTEX
  5
714
  8
Layer_0
  10
299.58246
  20
62.116516
  0
VERTEX
  5
715
  8
Layer_0
  10
300.90396
  20
64.298477
  0
VERTEX
  5
716
  8
Layer_0
  10
301.17233
  20
64.704941
  0
VERTEX
  5
717
  8
Layer_0
  10
301.44159
  20
65.039406
  0
VERTEX
  5
718
  8
Layer_0
  10
301.71179
  20
65.301819
  0
VERTEX
  5
719
  8
Layer_0
  10
301.98291
  20
65.492096
  0
SEQEND
  0
POLYLINE
  5
71b
  8
Layer_0
  62
0
  70
1
  66
1
  10
0
  20
0
  30
0
  0
VERTEX
  5
71b
  8
Layer_0
  10
278.71338
  20
142.42419
  0
VERTEX
  5
71c
  8
Layer_0
  10
282.97943
  20
145.03198
  0
VERTEX
  5
71d
  8
Layer_0
  10
284.02255
  20
143.32556
  0
VERTEX
  5
71e
  8
Layer_0
  10
279.7565
  20
140.71777
  0
VERTEX
  5
71f
  8
Layer_0
  10
278.71338
  20
142.42419
  0
SEQEND
  0
POLYLINE
  5
721
  8
Layer_0
  62
0
  70
1
  66
1
  10
0
  20
0
  30
0
  0
VERTEX
  5
721
  8
Layer_0
  10
257.55673
  20
129.49133
  0
VERTEX
  5
722
  8
Layer_0
  10
261.82278
  20
132.09915
  0
VERTEX
  5
723
  8
Layer_0
  10
262.86591
  20
130.39272
  0
VERTEX
  5
724
  8
Layer_0
  10
258.59985
  20
127.7849
  0
VERTEX
  5
725
  8
Layer_0
  10
257.55673
  20
129.49133
  0
SEQEND
  0
POLYLINE
  5
727
  8
Layer_0
  62
0
  70
1
  66
1
  10
0
  20
0
  30
0
  0
VERTEX
  5
727
  8
Layer_0
  10
287.71045
  20
143.20828
  0
VERTEX
  5
728
  8
Layer_0
  10
284.59509
  20
148.33618
  0
VERTEX
  5
729
  8
Layer_0
  10
286.30151
  20
149.3793
  0
VERTEX
  5
72a
  8
Layer_0
  10
255.79016
  20
199.29228
  0
VERTEX
  5
72b
  8
Layer_0
  10
254.08374
  20
198.24915
  0
VERTEX
  5
72c
  8
Layer_0
  10
252.51904
  20
200.80881
  0
VERTEX
  5
72d
  8
Layer_0
  10
254.22546
  20
201.85194
  0
VERTEX
  5
72e
  8
Layer_0
  10
223.70187
  20
251.78497
  0
VERTEX
  5
72f
  8
Layer_0
  10
221.99545
  20
250.74184
  0
VERTEX
  5
730
  8
Layer_0
  10
220.44301
  20
253.28145
  0
VERTEX
  5
731
  8
Layer_0
  10
188.80286
  20
233.94012
  0
VERTEX
  5
732
  8
Layer_0
  10
188.7906
  20
233.96017
  0
VERTEX
  5
733
  8
Layer_0
  10
186.30223
  20
232.43906
  0
VERTEX
  5
734
  8
Layer_0
  10
187.86693
  20
229.87939
  0
VERTEX
  5
735
  8
Layer_0
  10
189.57335
  20
230.92252
  0
VERTEX
  5
736
  8
Layer_0
  10
220.09694
  20
180.9895
  0
VERTEX
  5
737
  8
Layer_0
  10
218.39052
  20
179.94638
  0
VERTEX
  5
738
  8
Layer_0
  10
219.95522
  20
177.38672
  0
VERTEX
  5
739
  8
Layer_0
  10
221.66164
  20
178.42984
  0
VERTEX
  5
73a
  8
Layer_0
  10
252.17297
  20
128.51685
  0
VERTEX
  5
73b
  8
Layer_0
  10
250.46655
  20
127.47373
  0
VERTEX
  5
73c
  8
Layer_0
  10
252.03123
  20
124.9141
  0
VERTEX
  5
73d
  8
Layer_0
  10
253.73766
  20
125.95722
  0
VERTEX
  5
73e
  8
Layer_0
  10
255.30237
  20
123.39753
  0
VERTEX
  5
73f
  8
Layer_0
  10
287.71045
  20
143.20828
  0
SEQEND
  0
ENDSEC
  0
EOF
