  0
SECTION
  2
HEADER
  9
$ACADVER
  1
AC1009
  0
ENDSEC
  0
SECTION
  2
ENTITIES
  0
POLYLINE
  5
90
  8
Layer_0
  62
0
  70
1
  66
1
  10
0
  20
0
  30
0
  0
VERTEX
  5
90
  8
Layer_0
  10
169.15515
  20
155.65439
  0
VERTEX
  5
91
  8
Layer_0
  10
183.46628
  20
131.7222
  0
VERTEX
  5
92
  8
Layer_0
  10
169.22287
  20
108.37918
  0
VERTEX
  5
93
  8
Layer_0
  10
183.28506
  20
108.37918
  0
VERTEX
  5
94
  8
Layer_0
  10
190.85657
  20
120.66876
  0
VERTEX
  5
95
  8
Layer_0
  10
198.4281
  20
108.37918
  0
VERTEX
  5
96
  8
Layer_0
  10
212.49026
  20
108.37918
  0
VERTEX
  5
97
  8
Layer_0
  10
198.24686
  20
131.7222
  0
VERTEX
  5
98
  8
Layer_0
  10
212.55801
  20
155.65439
  0
VERTEX
  5
99
  8
Layer_0
  10
212.55801
  20
158.37918
  0
VERTEX
  5
9a
  8
Layer_0
  10
198.78232
  20
158.37918
  0
VERTEX
  5
9b
  8
Layer_0
  10
198.78232
  20
155.65439
  0
VERTEX
  5
9c
  8
Layer_0
  10
198.80124
  20
155.65439
  0
VERTEX
  5
9d
  8
Layer_0
  10
190.85657
  20
142.74503
  0
VERTEX
  5
9e
  8
Layer_0
  10
182.91196
  20
155.65439
  0
VERTEX
  5
9f
  8
Layer_0
  10
182.90552
  20
155.65439
  0
VERTEX
  5
a0
  8
Layer_0
  10
182.90552
  20
158.37918
  0
VERTEX
  5
a1
  8
Layer_0
  10
169.14734
  20
158.37918
  0
VERTEX
  5
a2
  8
Layer_0
  10
169.14734
  20
155.65439
  0
VERTEX
  5
a3
  8
Layer_0
  10
169.15515
  20
155.65439
  0
SEQEND
  0
POLYLINE
  5
a5
  8
Layer_0
  62
0
  70
1
  66
1
  10
0
  20
0
  30
0
  0
VERTEX
  5
a5
  8
Layer_0
  10
120.0365
  20
155.65439
  0
VERTEX
  5
a6
  8
Layer_0
  10
134.34758
  20
131.7222
  0
VERTEX
  5
a7
  8
Layer_0
  10
120.10417
  20
108.3792
  0
VERTEX
  5
a8
  8
Layer_0
  10
134.1664
  20
108.3792
  0
VERTEX
  5
a9
  8
Layer_0
  10
141.7379
  20
120.66878
  0
VERTEX
  5
aa
  8
Layer_0
  10
149.30945
  20
108.3792
  0
VERTEX
  5
ab
  8
Layer_0
  10
163.37161
  20
108.37918
  0
VERTEX
  5
ac
  8
Layer_0
  10
149.1282
  20
131.7222
  0
VERTEX
  5
ad
  8
Layer_0
  10
163.43936
  20
155.65439
  0
VERTEX
  5
ae
  8
Layer_0
  10
163.43936
  20
158.37918
  0
VERTEX
  5
af
  8
Layer_0
  10
149.66367
  20
158.37918
  0
VERTEX
  5
b0
  8
Layer_0
  10
149.66367
  20
155.65439
  0
VERTEX
  5
b1
  8
Layer_0
  10
149.68256
  20
155.65439
  0
VERTEX
  5
b2
  8
Layer_0
  10
141.73792
  20
142.74503
  0
VERTEX
  5
b3
  8
Layer_0
  10
133.79327
  20
155.65439
  0
VERTEX
  5
b4
  8
Layer_0
  10
133.78687
  20
155.65439
  0
VERTEX
  5
b5
  8
Layer_0
  10
133.78687
  20
158.37918
  0
VERTEX
  5
b6
  8
Layer_0
  10
120.02867
  20
158.37918
  0
VERTEX
  5
b7
  8
Layer_0
  10
120.02867
  20
155.65439
  0
VERTEX
  5
b8
  8
Layer_0
  10
120.0365
  20
155.65439
  0
SEQEND
  0
POLYLINE
  5
ba
  8
Layer_0
  62
0
  70
1
  66
1
  10
0
  20
0
  30
0
  0
VERTEX
  5
ba
  8
Layer_0
  10
70.917847
  20
155.65439
  0
VERTEX
  5
bb
  8
Layer_0
  10
85.228928
  20
131.7222
  0
VERTEX
  5
bc
  8
Layer_0
  10
70.985519
  20
108.3792
  0
VERTEX
  5
bd
  8
Layer_0
  10
85.047745
  20
108.3792
  0
VERTEX
  5
be
  8
Layer_0
  10
92.619232
  20
120.66878
  0
VERTEX
  5
bf
  8
Layer_0
  10
100.19077
  20
108.3792
  0
VERTEX
  5
c0
  8
Layer_0
  10
114.25294
  20
108.3792
  0
VERTEX
  5
c1
  8
Layer_0
  10
100.00954
  20
131.7222
  0
VERTEX
  5
c2
  8
Layer_0
  10
114.32069
  20
155.65439
  0
VERTEX
  5
c3
  8
Layer_0
  10
114.32069
  20
158.37918
  0
VERTEX
  5
c4
  8
Layer_0
  10
100.545
  20
158.37918
  0
VERTEX
  5
c5
  8
Layer_0
  10
100.545
  20
155.65439
  0
VERTEX
  5
c6
  8
Layer_0
  10
100.5639
  20
155.65439
  0
VERTEX
  5
c7
  8
Layer_0
  10
92.619247
  20
142.74503
  0
VERTEX
  5
c8
  8
Layer_0
  10
84.674622
  20
155.65439
  0
VERTEX
  5
c9
  8
Layer_0
  10
84.668198
  20
155.65439
  0
VERTEX
  5
ca
  8
Layer_0
  10
84.668198
  20
158.37918
  0
VERTEX
  5
cb
  8
Layer_0
  10
70.910004
  20
158.37918
  0
VERTEX
  5
cc
  8
Layer_0
  10
70.910004
  20
155.65439
  0
VERTEX
  5
cd
  8
Layer_0
  10
70.917847
  20
155.65439
  0
SEQEND
  0
POLYLINE
  5
cf
  8
Layer_0
  62
0
  70
1
  66
1
  10
0
  20
0
  30
0
  0
VERTEX
  5
cf
  8
Layer_0
  10
21.799179
  20
155.65442
  0
VERTEX
  5
d0
  8
Layer_0
  10
36.11026
  20
131.72223
  0
VERTEX
  5
d1
  8
Layer_0
  10
21.866867
  20
108.3792
  0
VERTEX
  5
d2
  8
Layer_0
  10
35.929077
  20
108.3792
  0
VERTEX
  5
d3
  8
Layer_0
  10
43.500565
  20
120.66878
  0
VERTEX
  5
d4
  8
Layer_0
  10
51.072083
  20
108.3792
  0
VERTEX
  5
d5
  8
Layer_0
  10
65.134277
  20
108.3792
  0
VERTEX
  5
d6
  8
Layer_0
  10
50.890884
  20
131.72223
  0
VERTEX
  5
d7
  8
Layer_0
  10
65.202026
  20
155.65439
  0
VERTEX
  5
d8
  8
Layer_0
  10
65.202026
  20
158.37918
  0
VERTEX
  5
d9
  8
Layer_0
  10
51.426346
  20
158.37921
  0
VERTEX
  5
da
  8
Layer_0
  10
51.426346
  20
155.65442
  0
VERTEX
  5
db
  8
Layer_0
  10
51.445236
  20
155.65442
  0
VERTEX
  5
dc
  8
Layer_0
  10
43.50058
  20
142.74506
  0
VERTEX
  5
dd
  8
Layer_0
  10
35.555954
  20
155.65442
  0
VERTEX
  5
de
  8
Layer_0
  10
35.549545
  20
155.65442
  0
VERTEX
  5
df
  8
Layer_0
  10
35.549545
  20
158.37921
  0
VERTEX
  5
e0
  8
Layer_0
  10
21.791351
  20
158.37921
  0
VERTEX
  5
e1
  8
Layer_0
  10
21.791351
  20
155.65442
  0
VERTEX
  5
e2
  8
Layer_0
  10
21.799179
  20
155.65442
  0
SEQEND
  0
POLYLINE
  5
e4
  8
Layer_0
  62
0
  70
1
  66
1
  10
0
  20
0
  30
0
  0
VERTEX
  5
e4
  8
Layer_0
  10
165.15552
  20
99.654419
  0
VERTEX
  5
e5
  8
Layer_0
  10
179.46661
  20
75.722229
  0
VERTEX
  5
e6
  8
Layer_0
  10
165.22321
  20
52.379211
  0
VERTEX
  5
e7
  8
Layer_0
  10
179.28543
  20
52.379196
  0
VERTEX
  5
e8
  8
Layer_0
  10
186.85693
  20
64.668777
  0
VERTEX
  5
e9
  8
Layer_0
  10
194.42844
  20
52.379196
  0
VERTEX
  5
ea
  8
Layer_0
  10
208.49063
  20
52.379196
  0
VERTEX
  5
eb
  8
Layer_0
  10
194.24722
  20
75.722229
  0
VERTEX
  5
ec
  8
Layer_0
  10
208.55836
  20
99.654419
  0
VERTEX
  5
ed
  8
Layer_0
  10
208.55836
  20
102.37921
  0
VERTEX
  5
ee
  8
Layer_0
  10
194.78268
  20
102.37921
  0
VERTEX
  5
ef
  8
Layer_0
  10
194.78268
  20
99.654419
  0
VERTEX
  5
f0
  8
Layer_0
  10
194.80159
  20
99.654419
  0
VERTEX
  5
f1
  8
Layer_0
  10
186.85693
  20
86.745056
  0
VERTEX
  5
f2
  8
Layer_0
  10
178.91229
  20
99.654419
  0
VERTEX
  5
f3
  8
Layer_0
  10
178.90588
  20
99.654419
  0
VERTEX
  5
f4
  8
Layer_0
  10
178.90588
  20
102.37921
  0
VERTEX
  5
f5
  8
Layer_0
  10
165.14767
  20
102.37921
  0
VERTEX
  5
f6
  8
Layer_0
  10
165.14767
  20
99.654419
  0
VERTEX
  5
f7
  8
Layer_0
  10
165.15552
  20
99.654419
  0
SEQEND
  0
POLYLINE
  5
f9
  8
Layer_0
  62
0
  70
1
  66
1
  10
0
  20
0
  30
0
  0
VERTEX
  5
f9
  8
Layer_0
  10
116.03685
  20
99.654419
  0
VERTEX
  5
fa
  8
Layer_0
  10
130.34796
  20
75.722229
  0
VERTEX
  5
fb
  8
Layer_0
  10
116.10455
  20
52.379211
  0
VERTEX
  5
fc
  8
Layer_0
  10
130.16676
  20
52.379211
  0
VERTEX
  5
fd
  8
Layer_0
  10
137.73825
  20
64.668793
  0
VERTEX
  5
fe
  8
Layer_0
  10
145.30978
  20
52.379211
  0
VERTEX
  5
ff
  8
Layer_0
  10
159.37198
  20
52.379211
  0
VERTEX
  5
100
  8
Layer_0
  10
145.12857
  20
75.722229
  0
VERTEX
  5
101
  8
Layer_0
  10
159.4397
  20
99.654419
  0
VERTEX
  5
102
  8
Layer_0
  10
159.4397
  20
102.37921
  0
VERTEX
  5
103
  8
Layer_0
  10
145.664
  20
102.37921
  0
VERTEX
  5
104
  8
Layer_0
  10
145.664
  20
99.654419
  0
VERTEX
  5
105
  8
Layer_0
  10
145.68292
  20
99.654419
  0
VERTEX
  5
106
  8
Layer_0
  10
137.73825
  20
86.745056
  0
VERTEX
  5
107
  8
Layer_0
  10
129.79364
  20
99.654419
  0
VERTEX
  5
108
  8
Layer_0
  10
129.78722
  20
99.654419
  0
VERTEX
  5
109
  8
Layer_0
  10
129.78722
  20
102.37921
  0
VERTEX
  5
10a
  8
Layer_0
  10
116.02902
  20
102.37921
  0
VERTEX
  5
10b
  8
Layer_0
  10
116.02902
  20
99.654419
  0
VERTEX
  5
10c
  8
Layer_0
  10
116.03685
  20
99.654419
  0
SEQEND
  0
POLYLINE
  5
10e
  8
Layer_0
  62
0
  70
1
  66
1
  10
0
  20
0
  30
0
  0
VERTEX
  5
10e
  8
Layer_0
  10
66.91819
  20
99.654419
  0
VERTEX
  5
10f
  8
Layer_0
  10
81.229286
  20
75.722229
  0
VERTEX
  5
110
  8
Layer_0
  10
66.985893
  20
52.379211
  0
VERTEX
  5
111
  8
Layer_0
  10
81.048103
  20
52.379211
  0
VERTEX
  5
112
  8
Layer_0
  10
88.619606
  20
64.668793
  0
VERTEX
  5
113
  8
Layer_0
  10
96.191124
  20
52.379211
  0
VERTEX
  5
114
  8
Layer_0
  10
110.2533
  20
52.379211
  0
VERTEX
  5
115
  8
Layer_0
  10
96.009911
  20
75.722229
  0
VERTEX
  5
116
  8
Layer_0
  10
110.32105
  20
99.654419
  0
VERTEX
  5
117
  8
Layer_0
  10
110.32105
  20
102.37921
  0
VERTEX
  5
118
  8
Layer_0
  10
96.545341
  20
102.37921
  0
VERTEX
  5
119
  8
Layer_0
  10
96.545341
  20
99.654419
  0
VERTEX
  5
11a
  8
Layer_0
  10
96.564262
  20
99.654419
  0
VERTEX
  5
11b
  8
Layer_0
  10
88.619606
  20
86.745056
  0
VERTEX
  5
11c
  8
Layer_0
  10
80.67498
  20
99.654419
  0
VERTEX
  5
11d
  8
Layer_0
  10
80.668556
  20
99.654419
  0
VERTEX
  5
11e
  8
Layer_0
  10
80.668556
  20
102.37921
  0
VERTEX
  5
11f
  8
Layer_0
  10
66.910362
  20
102.37921
  0
VERTEX
  5
120
  8
Layer_0
  10
66.910362
  20
99.654419
  0
VERTEX
  5
121
  8
Layer_0
  10
66.91819
  20
99.654419
  0
SEQEND
  0
POLYLINE
  5
123
  8
Layer_0
  62
0
  70
1
  66
1
  10
0
  20
0
  30
0
  0
VERTEX
  5
123
  8
Layer_0
  10
17.799541
  20
99.654419
  0
VERTEX
  5
124
  8
Layer_0
  10
32.110634
  20
75.722229
  0
VERTEX
  5
125
  8
Layer_0
  10
17.867222
  20
52.379211
  0
VERTEX
  5
126
  8
Layer_0
  10
31.929432
  20
52.379211
  0
VERTEX
  5
127
  8
Layer_0
  10
39.500938
  20
64.668793
  0
VERTEX
  5
128
  8
Layer_0
  10
47.072453
  20
52.379211
  0
VERTEX
  5
129
  8
Layer_0
  10
61.134651
  20
52.379211
  0
VERTEX
  5
12a
  8
Layer_0
  10
46.891258
  20
75.722229
  0
VERTEX
  5
12b
  8
Layer_0
  10
61.20237
  20
99.654419
  0
VERTEX
  5
12c
  8
Layer_0
  10
61.20237
  20
102.37921
  0
VERTEX
  5
12d
  8
Layer_0
  10
47.426693
  20
102.37921
  0
VERTEX
  5
12e
  8
Layer_0
  10
47.426693
  20
99.654419
  0
VERTEX
  5
12f
  8
Layer_0
  10
47.445599
  20
99.654419
  0
VERTEX
  5
130
  8
Layer_0
  10
39.500938
  20
86.745056
  0
VERTEX
  5
131
  8
Layer_0
  10
31.556316
  20
99.654419
  0
VERTEX
  5
132
  8
Layer_0
  10
31.549908
  20
99.654419
  0
VERTEX
  5
133
  8
Layer_0
  10
31.549908
  20
102.37921
  0
VERTEX
  5
134
  8
Layer_0
  10
17.791698
  20
102.37921
  0
VERTEX
  5
135
  8
Layer_0
  10
17.791698
  20
99.654419
  0
VERTEX
  5
136
  8
Layer_0
  10
17.799541
  20
99.654419
  0
SEQEND
  0
POLYLINE
  5
138
  8
Layer_0
  62
0
  70
1
  66
1
  10
0
  20
0
  30
0
  0
VERTEX
  5
138
  8
Layer_0
  10
10.957909
  20
-22.211487
  0
VERTEX
  5
139
  8
Layer_0
  10
10.932472
  20
-26.967316
  0
VERTEX
  5
13a
  8
Layer_0
  10
12.932472
  20
-26.967331
  0
VERTEX
  5
13b
  8
Layer_0
  10
12.932434
  20
-29.967346
  0
VERTEX
  5
13c
  8
Layer_0
  10
10.932434
  20
-29.967331
  0
VERTEX
  5
13d
  8
Layer_0
  10
10.932007
  20
-72.055969
  0
VERTEX
  5
13e
  8
Layer_0
  10
12.932007
  20
-72.055984
  0
VERTEX
  5
13f
  8
Layer_0
  10
12.931976
  20
-75.056015
  0
VERTEX
  5
140
  8
Layer_0
  10
10.931976
  20
-75.056
  0
VERTEX
  5
141
  8
Layer_0
  10
10.931892
  20
-82.568298
  0
VERTEX
  5
142
  8
Layer_0
  10
50.931885
  20
-82.520508
  0
VERTEX
  5
143
  8
Layer_0
  10
50.931961
  20
-75.056427
  0
VERTEX
  5
144
  8
Layer_0
  10
52.931961
  20
-75.056458
  0
VERTEX
  5
145
  8
Layer_0
  10
52.931992
  20
-72.056427
  0
VERTEX
  5
146
  8
Layer_0
  10
50.931992
  20
-72.056396
  0
VERTEX
  5
147
  8
Layer_0
  10
50.932419
  20
-29.967773
  0
VERTEX
  5
148
  8
Layer_0
  10
52.932434
  20
-29.967789
  0
VERTEX
  5
149
  8
Layer_0
  10
52.932465
  20
-26.967773
  0
VERTEX
  5
14a
  8
Layer_0
  10
50.932449
  20
-26.967743
  0
VERTEX
  5
14b
  8
Layer_0
  10
50.869217
  20
-22.287872
  0
VERTEX
  5
14c
  8
Layer_0
  10
10.957909
  20
-22.211487
  0
SEQEND
  0
POLYLINE
  5
14e
  8
Layer_0
  62
0
  70
1
  66
1
  10
0
  20
0
  30
0
  0
VERTEX
  5
14e
  8
Layer_0
  10
51.940903
  20
-20.740555
  0
VERTEX
  5
14f
  8
Layer_0
  10
51.924057
  20
-14.204819
  0
VERTEX
  5
150
  8
Layer_0
  10
49.924057
  20
-14.204819
  0
VERTEX
  5
151
  8
Layer_0
  10
49.924057
  20
-11.204849
  0
VERTEX
  5
152
  8
Layer_0
  10
51.924057
  20
-11.204849
  0
VERTEX
  5
153
  8
Layer_0
  10
51.924034
  20
30.88382
  0
VERTEX
  5
154
  8
Layer_0
  10
49.924034
  20
30.88382
  0
VERTEX
  5
155
  8
Layer_0
  10
49.924034
  20
33.883881
  0
VERTEX
  5
156
  8
Layer_0
  10
51.924034
  20
33.883881
  0
VERTEX
  5
157
  8
Layer_0
  10
51.94088
  20
39.486359
  0
VERTEX
  5
158
  8
Layer_0
  10
11.924042
  20
39.961288
  0
VERTEX
  5
159
  8
Layer_0
  10
11.924042
  20
33.883881
  0
VERTEX
  5
15a
  8
Layer_0
  10
9.9240417
  20
33.883881
  0
VERTEX
  5
15b
  8
Layer_0
  10
9.9240417
  20
30.88382
  0
VERTEX
  5
15c
  8
Layer_0
  10
11.924042
  20
30.88382
  0
VERTEX
  5
15d
  8
Layer_0
  10
11.924072
  20
-11.204849
  0
VERTEX
  5
15e
  8
Layer_0
  10
9.924057
  20
-11.204834
  0
VERTEX
  5
15f
  8
Layer_0
  10
9.924057
  20
-14.204819
  0
VERTEX
  5
160
  8
Layer_0
  10
11.924072
  20
-14.204819
  0
VERTEX
  5
161
  8
Layer_0
  10
11.944946
  20
-20.726685
  0
VERTEX
  5
162
  8
Layer_0
  10
51.940903
  20
-20.740555
  0
SEQEND
  0
POLYLINE
  5
164
  8
Layer_0
  62
0
  70
1
  66
1
  10
0
  20
0
  30
0
  0
VERTEX
  5
164
  8
Layer_0
  10
77.164177
  20
-182.42371
  0
VERTEX
  5
165
  8
Layer_0
  10
77.164177
  20
-196.1994
  0
VERTEX
  5
166
  8
Layer_0
  10
75.664185
  20
-196.1994
  0
VERTEX
  5
167
  8
Layer_0
  10
75.664185
  20
-182.42371
  0
VERTEX
  5
168
  8
Layer_0
  10
77.164177
  20
-182.42371
  0
SEQEND
  0
POLYLINE
  5
16a
  8
Layer_0
  62
0
  70
1
  66
1
  10
0
  20
0
  30
0
  0
VERTEX
  5
16a
  8
Layer_0
  10
208.44534
  20
-168.78607
  0
VERTEX
  5
16b
  8
Layer_0
  10
208.44534
  20
-155.01041
  0
VERTEX
  5
16c
  8
Layer_0
  10
206.94534
  20
-155.01041
  0
VERTEX
  5
16d
  8
Layer_0
  10
206.94534
  20
-168.78607
  0
VERTEX
  5
16e
  8
Layer_0
  10
208.44534
  20
-168.78607
  0
SEQEND
  0
POLYLINE
  5
170
  8
Layer_0
  62
0
  70
1
  66
1
  10
0
  20
0
  30
0
  0
VERTEX
  5
170
  8
Layer_0
  10
164.68509
  20
-166.56433
  0
VERTEX
  5
171
  8
Layer_0
  10
164.68509
  20
-152.78864
  0
VERTEX
  5
172
  8
Layer_0
  10
163.18509
  20
-152.78864
  0
VERTEX
  5
173
  8
Layer_0
  10
163.18509
  20
-166.56433
  0
VERTEX
  5
174
  8
Layer_0
  10
164.68509
  20
-166.56433
  0
SEQEND
  0
POLYLINE
  5
176
  8
Layer_0
  62
0
  70
1
  66
1
  10
0
  20
0
  30
0
  0
VERTEX
  5
176
  8
Layer_0
  10
164.68509
  20
-196.19934
  0
VERTEX
  5
177
  8
Layer_0
  10
164.68509
  20
-182.42365
  0
VERTEX
  5
178
  8
Layer_0
  10
163.18509
  20
-182.42365
  0
VERTEX
  5
179
  8
Layer_0
  10
163.18509
  20
-196.19934
  0
VERTEX
  5
17a
  8
Layer_0
  10
164.68509
  20
-196.19934
  0
SEQEND
  0
POLYLINE
  5
17c
  8
Layer_0
  62
0
  70
1
  66
1
  10
0
  20
0
  30
0
  0
VERTEX
  5
17c
  8
Layer_0
  10
33.404175
  20
-155.01035
  0
VERTEX
  5
17d
  8
Layer_0
  10
33.404175
  20
-168.78601
  0
VERTEX
  5
17e
  8
Layer_0
  10
31.904175
  20
-168.78601
  0
VERTEX
  5
17f
  8
Layer_0
  10
31.904175
  20
-155.01035
  0
VERTEX
  5
180
  8
Layer_0
  10
33.404175
  20
-155.01035
  0
SEQEND
  0
POLYLINE
  5
182
  8
Layer_0
  62
0
  70
1
  66
1
  10
0
  20
0
  30
0
  0
VERTEX
  5
182
  8
Layer_0
  10
33.404175
  20
-125.37537
  0
VERTEX
  5
183
  8
Layer_0
  10
33.404175
  20
-139.151
  0
VERTEX
  5
184
  8
Layer_0
  10
31.904175
  20
-139.151
  0
VERTEX
  5
185
  8
Layer_0
  10
31.904175
  20
-125.37537
  0
VERTEX
  5
186
  8
Layer_0
  10
33.404175
  20
-125.37537
  0
SEQEND
  0
POLYLINE
  5
188
  8
Layer_0
  62
0
  70
1
  66
1
  10
0
  20
0
  30
0
  0
VERTEX
  5
188
  8
Layer_0
  10
55.284317
  20
-171.07242
  0
VERTEX
  5
189
  8
Layer_0
  10
55.284317
  20
-184.84851
  0
VERTEX
  5
18a
  8
Layer_0
  10
53.784317
  20
-184.84851
  0
VERTEX
  5
18b
  8
Layer_0
  10
53.784317
  20
-171.07242
  0
VERTEX
  5
18c
  8
Layer_0
  10
55.284317
  20
-171.07242
  0
SEQEND
  0
POLYLINE
  5
18e
  8
Layer_0
  62
0
  70
1
  66
1
  10
0
  20
0
  30
0
  0
VERTEX
  5
18e
  8
Layer_0
  10
55.284317
  20
-141.43811
  0
VERTEX
  5
18f
  8
Layer_0
  10
55.284317
  20
-155.21378
  0
VERTEX
  5
190
  8
Layer_0
  10
53.784317
  20
-155.21378
  0
VERTEX
  5
191
  8
Layer_0
  10
53.784317
  20
-141.43811
  0
VERTEX
  5
192
  8
Layer_0
  10
55.284317
  20
-141.43811
  0
SEQEND
  0
POLYLINE
  5
194
  8
Layer_0
  62
0
  70
1
  66
1
  10
0
  20
0
  30
0
  0
VERTEX
  5
194
  8
Layer_0
  10
77.164177
  20
-152.78864
  0
VERTEX
  5
195
  8
Layer_0
  10
77.164177
  20
-166.56433
  0
VERTEX
  5
196
  8
Layer_0
  10
75.664185
  20
-166.56433
  0
VERTEX
  5
197
  8
Layer_0
  10
75.664185
  20
-152.78864
  0
VERTEX
  5
198
  8
Layer_0
  10
77.164177
  20
-152.78864
  0
SEQEND
  0
POLYLINE
  5
19a
  8
Layer_0
  62
0
  70
1
  66
1
  10
0
  20
0
  30
0
  0
VERTEX
  5
19a
  8
Layer_0
  10
99.044594
  20
-198.48642
  0
VERTEX
  5
19b
  8
Layer_0
  10
99.044594
  20
-212.26212
  0
VERTEX
  5
19c
  8
Layer_0
  10
97.544594
  20
-212.26212
  0
VERTEX
  5
19d
  8
Layer_0
  10
97.544594
  20
-198.48642
  0
VERTEX
  5
19e
  8
Layer_0
  10
99.044594
  20
-198.48642
  0
SEQEND
  0
POLYLINE
  5
1a0
  8
Layer_0
  62
0
  70
1
  66
1
  10
0
  20
0
  30
0
  0
VERTEX
  5
1a0
  8
Layer_0
  10
99.044594
  20
-168.85144
  0
VERTEX
  5
1a1
  8
Layer_0
  10
99.044594
  20
-182.62708
  0
VERTEX
  5
1a2
  8
Layer_0
  10
97.544594
  20
-182.62708
  0
VERTEX
  5
1a3
  8
Layer_0
  10
97.544594
  20
-168.85144
  0
VERTEX
  5
1a4
  8
Layer_0
  10
99.044594
  20
-168.85144
  0
SEQEND
  0
POLYLINE
  5
1a6
  8
Layer_0
  62
0
  70
1
  66
1
  10
0
  20
0
  30
0
  0
VERTEX
  5
1a6
  8
Layer_0
  10
142.8049
  20
-182.62708
  0
VERTEX
  5
1a7
  8
Layer_0
  10
142.8049
  20
-168.85144
  0
VERTEX
  5
1a8
  8
Layer_0
  10
141.3049
  20
-168.85144
  0
VERTEX
  5
1a9
  8
Layer_0
  10
141.3049
  20
-182.62708
  0
VERTEX
  5
1aa
  8
Layer_0
  10
142.8049
  20
-182.62708
  0
SEQEND
  0
POLYLINE
  5
1ac
  8
Layer_0
  62
0
  70
1
  66
1
  10
0
  20
0
  30
0
  0
VERTEX
  5
1ac
  8
Layer_0
  10
142.8049
  20
-212.26212
  0
VERTEX
  5
1ad
  8
Layer_0
  10
142.8049
  20
-198.48642
  0
VERTEX
  5
1ae
  8
Layer_0
  10
141.3049
  20
-198.48642
  0
VERTEX
  5
1af
  8
Layer_0
  10
141.3049
  20
-212.26212
  0
VERTEX
  5
1b0
  8
Layer_0
  10
142.8049
  20
-212.26212
  0
SEQEND
  0
POLYLINE
  5
1b2
  8
Layer_0
  62
0
  70
1
  66
1
  10
0
  20
0
  30
0
  0
VERTEX
  5
1b2
  8
Layer_0
  10
186.5652
  20
-155.21378
  0
VERTEX
  5
1b3
  8
Layer_0
  10
186.5652
  20
-141.43811
  0
VERTEX
  5
1b4
  8
Layer_0
  10
185.06519
  20
-141.43811
  0
VERTEX
  5
1b5
  8
Layer_0
  10
185.06519
  20
-155.21378
  0
VERTEX
  5
1b6
  8
Layer_0
  10
186.5652
  20
-155.21378
  0
SEQEND
  0
POLYLINE
  5
1b8
  8
Layer_0
  62
0
  70
1
  66
1
  10
0
  20
0
  30
0
  0
VERTEX
  5
1b8
  8
Layer_0
  10
186.5652
  20
-184.84879
  0
VERTEX
  5
1b9
  8
Layer_0
  10
186.5652
  20
-171.07312
  0
VERTEX
  5
1ba
  8
Layer_0
  10
185.06519
  20
-171.07312
  0
VERTEX
  5
1bb
  8
Layer_0
  10
185.06519
  20
-184.84879
  0
VERTEX
  5
1bc
  8
Layer_0
  10
186.5652
  20
-184.84879
  0
SEQEND
  0
POLYLINE
  5
1be
  8
Layer_0
  62
0
  70
1
  66
1
  10
0
  20
0
  30
0
  0
VERTEX
  5
1be
  8
Layer_0
  10
208.44635
  20
-139.151
  0
VERTEX
  5
1bf
  8
Layer_0
  10
208.44635
  20
-125.37537
  0
VERTEX
  5
1c0
  8
Layer_0
  10
206.94635
  20
-125.37537
  0
VERTEX
  5
1c1
  8
Layer_0
  10
206.94635
  20
-139.151
  0
VERTEX
  5
1c2
  8
Layer_0
  10
208.44635
  20
-139.151
  0
SEQEND
  0
POLYLINE
  5
1c4
  8
Layer_0
  62
0
  70
1
  66
1
  10
0
  20
0
  30
0
  0
VERTEX
  5
1c4
  8
Layer_0
  10
120.12579
  20
-234.08069
  0
VERTEX
  5
1c5
  8
Layer_0
  10
122.68964
  20
-232.52283
  0
VERTEX
  5
1c6
  8
Layer_0
  10
121.69607
  20
-230.88763
  0
VERTEX
  5
1c7
  8
Layer_0
  10
171.64778
  20
-200.43961
  0
VERTEX
  5
1c8
  8
Layer_0
  10
172.68407
  20
-202.14511
  0
VERTEX
  5
1c9
  8
Layer_0
  10
175.24788
  20
-200.58728
  0
VERTEX
  5
1ca
  8
Layer_0
  10
174.20938
  20
-198.87823
  0
VERTEX
  5
1cb
  8
Layer_0
  10
225.77618
  20
-167.44571
  0
VERTEX
  5
1cc
  8
Layer_0
  10
225.77618
  20
-160.03284
  0
VERTEX
  5
1cd
  8
Layer_0
  10
227.77618
  20
-160.03284
  0
VERTEX
  5
1ce
  8
Layer_0
  10
227.77618
  20
-157.03284
  0
VERTEX
  5
1cf
  8
Layer_0
  10
225.77618
  20
-157.03284
  0
VERTEX
  5
1d0
  8
Layer_0
  10
225.77618
  20
-114.94415
  0
VERTEX
  5
1d1
  8
Layer_0
  10
227.77618
  20
-114.94415
  0
VERTEX
  5
1d2
  8
Layer_0
  10
227.77618
  20
-111.94418
  0
VERTEX
  5
1d3
  8
Layer_0
  10
225.77618
  20
-111.94418
  0
VERTEX
  5
1d4
  8
Layer_0
  10
225.77618
  20
-107.1601
  0
VERTEX
  5
1d5
  8
Layer_0
  10
225.28154
  20
-107.35364
  0
VERTEX
  5
1d6
  8
Layer_0
  10
175.30698
  20
-137.84705
  0
VERTEX
  5
1d7
  8
Layer_0
  10
174.27594
  20
-136.15024
  0
VERTEX
  5
1d8
  8
Layer_0
  10
171.71214
  20
-137.7081
  0
VERTEX
  5
1d9
  8
Layer_0
  10
172.74606
  20
-139.4097
  0
VERTEX
  5
1da
  8
Layer_0
  10
122.66865
  20
-169.96585
  0
VERTEX
  5
1db
  8
Layer_0
  10
121.7177
  20
-168.40082
  0
VERTEX
  5
1dc
  8
Layer_0
  10
120.05015
  20
-169.41406
  0
VERTEX
  5
1dd
  8
Layer_0
  10
118.38264
  20
-168.40082
  0
VERTEX
  5
1de
  8
Layer_0
  10
117.45759
  20
-169.92325
  0
VERTEX
  5
1df
  8
Layer_0
  10
67.363434
  20
-139.35693
  0
VERTEX
  5
1e0
  8
Layer_0
  10
68.388214
  20
-137.67032
  0
VERTEX
  5
1e1
  8
Layer_0
  10
65.824402
  20
-136.11246
  0
VERTEX
  5
1e2
  8
Layer_0
  10
64.802505
  20
-137.79428
  0
VERTEX
  5
1e3
  8
Layer_0
  10
14.844666
  20
-107.31107
  0
VERTEX
  5
1e4
  8
Layer_0
  10
14.573898
  20
-107.31183
  0
VERTEX
  5
1e5
  8
Layer_0
  10
14.573898
  20
-112.88525
  0
VERTEX
  5
1e6
  8
Layer_0
  10
12.573898
  20
-112.88525
  0
VERTEX
  5
1e7
  8
Layer_0
  10
12.573898
  20
-115.88525
  0
VERTEX
  5
1e8
  8
Layer_0
  10
14.573898
  20
-115.88525
  0
VERTEX
  5
1e9
  8
Layer_0
  10
14.573898
  20
-157.97391
  0
VERTEX
  5
1ea
  8
Layer_0
  10
12.573898
  20
-157.97391
  0
VERTEX
  5
1eb
  8
Layer_0
  10
12.573898
  20
-160.97394
  0
VERTEX
  5
1ec
  8
Layer_0
  10
14.573898
  20
-160.97394
  0
VERTEX
  5
1ed
  8
Layer_0
  10
14.573898
  20
-167.53876
  0
VERTEX
  5
1ee
  8
Layer_0
  10
65.962845
  20
-198.8103
  0
VERTEX
  5
1ef
  8
Layer_0
  10
64.92923
  20
-200.51132
  0
VERTEX
  5
1f0
  8
Layer_0
  10
67.493088
  20
-202.06915
  0
VERTEX
  5
1f1
  8
Layer_0
  10
68.52562
  20
-200.36981
  0
VERTEX
  5
1f2
  8
Layer_0
  10
118.49998
  20
-230.78061
  0
VERTEX
  5
1f3
  8
Layer_0
  10
117.48751
  20
-232.4469
  0
VERTEX
  5
1f4
  8
Layer_0
  10
120.05132
  20
-234.00473
  0
VERTEX
  5
1f5
  8
Layer_0
  10
120.0655
  20
-233.98138
  0
VERTEX
  5
1f6
  8
Layer_0
  10
120.12579
  20
-234.08069
  0
SEQEND
  0
POLYLINE
  5
1f8
  8
Layer_0
  62
0
  70
1
  66
1
  10
0
  20
0
  30
0
  0
VERTEX
  5
1f8
  8
Layer_0
  10
120.01847
  20
-171.48587
  0
VERTEX
  5
1f9
  8
Layer_0
  10
120.05015
  20
-171.43372
  0
VERTEX
  5
1fa
  8
Layer_0
  10
120.10773
  20
-171.52847
  0
VERTEX
  5
1fb
  8
Layer_0
  10
120.09801
  20
-171.53436
  0
VERTEX
  5
1fc
  8
Layer_0
  10
120.01847
  20
-171.48587
  0
SEQEND
  0
POLYLINE
  5
1fe
  8
Layer_0
  62
0
  70
1
  66
1
  10
0
  20
0
  30
0
  0
VERTEX
  5
1fe
  8
Layer_0
  10
139.65736
  20
39.67131
  0
VERTEX
  5
1ff
  8
Layer_0
  10
101.68366
  20
39.493164
  0
VERTEX
  5
200
  8
Layer_0
  10
99.62558
  20
39.425095
  0
VERTEX
  5
201
  8
Layer_0
  10
99.697632
  20
36.507309
  0
VERTEX
  5
202
  8
Layer_0
  10
99.959755
  20
-21.992081
  0
VERTEX
  5
203
  8
Layer_0
  10
101.97205
  20
-21.982651
  0
VERTEX
  5
204
  8
Layer_0
  10
101.98612
  20
-24.982605
  0
VERTEX
  5
205
  8
Layer_0
  10
99.97319
  20
-24.99205
  0
VERTEX
  5
206
  8
Layer_0
  10
100.23541
  20
-83.514954
  0
VERTEX
  5
207
  8
Layer_0
  10
102.26066
  20
-83.505463
  0
VERTEX
  5
208
  8
Layer_0
  10
102.27473
  20
-86.505432
  0
VERTEX
  5
209
  8
Layer_0
  10
106.90121
  20
-86.483734
  0
VERTEX
  5
20a
  8
Layer_0
  10
106.91059
  20
-88.483734
  0
VERTEX
  5
20b
  8
Layer_0
  10
109.91058
  20
-88.469666
  0
VERTEX
  5
20c
  8
Layer_0
  10
109.90119
  20
-86.469666
  0
VERTEX
  5
20d
  8
Layer_0
  10
131.69733
  20
-86.367432
  0
VERTEX
  5
20e
  8
Layer_0
  10
131.70671
  20
-88.367401
  0
VERTEX
  5
20f
  8
Layer_0
  10
134.7067
  20
-88.353333
  0
VERTEX
  5
210
  8
Layer_0
  10
134.69733
  20
-86.353333
  0
VERTEX
  5
211
  8
Layer_0
  10
140.24895
  20
-86.32135
  0
VERTEX
  5
212
  8
Layer_0
  10
140.23273
  20
-84.540527
  0
VERTEX
  5
213
  8
Layer_0
  10
142.23875
  20
-84.532013
  0
VERTEX
  5
214
  8
Layer_0
  10
142.23434
  20
-83.317932
  0
VERTEX
  5
215
  8
Layer_0
  10
140.23436
  20
-83.327316
  0
VERTEX
  5
216
  8
Layer_0
  10
139.95982
  20
-24.804504
  0
VERTEX
  5
217
  8
Layer_0
  10
141.95981
  20
-24.79512
  0
VERTEX
  5
218
  8
Layer_0
  10
141.94574
  20
-21.79512
  0
VERTEX
  5
219
  8
Layer_0
  10
139.94576
  20
-21.804504
  0
VERTEX
  5
21a
  8
Layer_0
  10
139.67133
  20
36.694824
  0
VERTEX
  5
21b
  8
Layer_0
  10
141.67131
  20
36.704208
  0
VERTEX
  5
21c
  8
Layer_0
  10
141.65724
  20
39.704208
  0
VERTEX
  5
21d
  8
Layer_0
  10
139.65726
  20
39.694824
  0
VERTEX
  5
21e
  8
Layer_0
  10
139.65736
  20
39.67131
  0
SEQEND
  0
POLYLINE
  5
220
  8
Layer_0
  62
0
  70
1
  66
1
  10
0
  20
0
  30
0
  0
VERTEX
  5
220
  8
Layer_0
  10
9.573349
  20
-170.95599
  0
VERTEX
  5
221
  8
Layer_0
  10
120.09754
  20
-238.39548
  0
VERTEX
  5
222
  8
Layer_0
  10
230.77571
  20
-170.86197
  0
VERTEX
  5
223
  8
Layer_0
  10
230.77571
  20
-242.97214
  0
VERTEX
  5
224
  8
Layer_0
  10
120.18918
  20
-310.37988
  0
VERTEX
  5
225
  8
Layer_0
  10
9.573349
  20
-243.06738
  0
VERTEX
  5
226
  8
Layer_0
  10
9.573349
  20
-170.95599
  0
SEQEND
  0
POLYLINE
  5
228
  8
Layer_0
  62
0
  70
1
  66
1
  10
0
  20
0
  30
0
  0
VERTEX
  5
228
  8
Layer_0
  10
226.84419
  20
-232.75122
  0
VERTEX
  5
229
  8
Layer_0
  10
226.84419
  20
-229.75119
  0
VERTEX
  5
22a
  8
Layer_0
  10
228.84419
  20
-229.75119
  0
VERTEX
  5
22b
  8
Layer_0
  10
228.84419
  20
-232.75122
  0
VERTEX
  5
22c
  8
Layer_0
  10
226.84419
  20
-232.75122
  0
SEQEND
  0
POLYLINE
  5
22e
  8
Layer_0
  62
0
  70
1
  66
1
  10
0
  20
0
  30
0
  0
VERTEX
  5
22e
  8
Layer_0
  10
226.84419
  20
-187.66254
  0
VERTEX
  5
22f
  8
Layer_0
  10
226.84419
  20
-184.66254
  0
VERTEX
  5
230
  8
Layer_0
  10
228.84419
  20
-184.66254
  0
VERTEX
  5
231
  8
Layer_0
  10
228.84419
  20
-187.66254
  0
VERTEX
  5
232
  8
Layer_0
  10
226.84419
  20
-187.66254
  0
SEQEND
  0
POLYLINE
  5
234
  8
Layer_0
  62
0
  70
1
  66
1
  10
0
  20
0
  30
0
  0
VERTEX
  5
234
  8
Layer_0
  10
171.7079
  20
-209.2663
  0
VERTEX
  5
235
  8
Layer_0
  10
174.27171
  20
-207.7085
  0
VERTEX
  5
236
  8
Layer_0
  10
175.31026
  20
-209.41769
  0
VERTEX
  5
237
  8
Layer_0
  10
172.74644
  20
-210.97552
  0
VERTEX
  5
238
  8
Layer_0
  10
171.7079
  20
-209.2663
  0
SEQEND
  0
POLYLINE
  5
23a
  8
Layer_0
  62
0
  70
1
  66
1
  10
0
  20
0
  30
0
  0
VERTEX
  5
23a
  8
Layer_0
  10
119.14962
  20
-241.20187
  0
VERTEX
  5
23b
  8
Layer_0
  10
121.71344
  20
-239.64404
  0
VERTEX
  5
23c
  8
Layer_0
  10
122.75201
  20
-241.35324
  0
VERTEX
  5
23d
  8
Layer_0
  10
120.1882
  20
-242.91107
  0
VERTEX
  5
23e
  8
Layer_0
  10
119.14962
  20
-241.20187
  0
SEQEND
  0
POLYLINE
  5
240
  8
Layer_0
  62
0
  70
1
  66
1
  10
0
  20
0
  30
0
  0
VERTEX
  5
240
  8
Layer_0
  10
224.28622
  20
-177.31857
  0
VERTEX
  5
241
  8
Layer_0
  10
226.85004
  20
-175.76071
  0
VERTEX
  5
242
  8
Layer_0
  10
227.8886
  20
-177.46997
  0
VERTEX
  5
243
  8
Layer_0
  10
225.32477
  20
-179.02777
  0
VERTEX
  5
244
  8
Layer_0
  10
224.28622
  20
-177.31857
  0
SEQEND
  0
POLYLINE
  5
246
  8
Layer_0
  62
0
  70
1
  66
1
  10
0
  20
0
  30
0
  0
VERTEX
  5
246
  8
Layer_0
  10
172.16122
  20
-273.9187
  0
VERTEX
  5
247
  8
Layer_0
  10
174.72507
  20
-272.36084
  0
VERTEX
  5
248
  8
Layer_0
  10
175.76361
  20
-274.07007
  0
VERTEX
  5
249
  8
Layer_0
  10
173.1998
  20
-275.6279
  0
VERTEX
  5
24a
  8
Layer_0
  10
172.16122
  20
-273.9187
  0
SEQEND
  0
POLYLINE
  5
24c
  8
Layer_0
  62
0
  70
1
  66
1
  10
0
  20
0
  30
0
  0
VERTEX
  5
24c
  8
Layer_0
  10
119.60297
  20
-305.85425
  0
VERTEX
  5
24d
  8
Layer_0
  10
122.16678
  20
-304.29642
  0
VERTEX
  5
24e
  8
Layer_0
  10
123.20537
  20
-306.00562
  0
VERTEX
  5
24f
  8
Layer_0
  10
120.64155
  20
-307.56345
  0
VERTEX
  5
250
  8
Layer_0
  10
119.60297
  20
-305.85425
  0
SEQEND
  0
POLYLINE
  5
252
  8
Layer_0
  62
0
  70
1
  66
1
  10
0
  20
0
  30
0
  0
VERTEX
  5
252
  8
Layer_0
  10
224.73958
  20
-241.97092
  0
VERTEX
  5
253
  8
Layer_0
  10
227.30339
  20
-240.41309
  0
VERTEX
  5
254
  8
Layer_0
  10
228.34192
  20
-242.12231
  0
VERTEX
  5
255
  8
Layer_0
  10
225.77811
  20
-243.68011
  0
VERTEX
  5
256
  8
Layer_0
  10
224.73958
  20
-241.97092
  0
SEQEND
  0
POLYLINE
  5
258
  8
Layer_0
  62
0
  70
1
  66
1
  10
0
  20
0
  30
0
  0
VERTEX
  5
258
  8
Layer_0
  10
13.50499
  20
-232.84518
  0
VERTEX
  5
259
  8
Layer_0
  10
13.50499
  20
-229.84521
  0
VERTEX
  5
25a
  8
Layer_0
  10
11.50499
  20
-229.84521
  0
VERTEX
  5
25b
  8
Layer_0
  10
11.50499
  20
-232.84518
  0
VERTEX
  5
25c
  8
Layer_0
  10
13.50499
  20
-232.84518
  0
SEQEND
  0
POLYLINE
  5
25e
  8
Layer_0
  62
0
  70
1
  66
1
  10
0
  20
0
  30
0
  0
VERTEX
  5
25e
  8
Layer_0
  10
13.50499
  20
-187.75653
  0
VERTEX
  5
25f
  8
Layer_0
  10
13.50499
  20
-184.75653
  0
VERTEX
  5
260
  8
Layer_0
  10
11.50499
  20
-184.75653
  0
VERTEX
  5
261
  8
Layer_0
  10
11.50499
  20
-187.75653
  0
VERTEX
  5
262
  8
Layer_0
  10
13.50499
  20
-187.75653
  0
SEQEND
  0
POLYLINE
  5
264
  8
Layer_0
  62
0
  70
1
  66
1
  10
0
  20
0
  30
0
  0
VERTEX
  5
264
  8
Layer_0
  10
68.641312
  20
-209.36032
  0
VERTEX
  5
265
  8
Layer_0
  10
66.077454
  20
-207.80249
  0
VERTEX
  5
266
  8
Layer_0
  10
65.038925
  20
-209.51172
  0
VERTEX
  5
267
  8
Layer_0
  10
67.602737
  20
-211.06952
  0
VERTEX
  5
268
  8
Layer_0
  10
68.641312
  20
-209.36032
  0
SEQEND
  0
POLYLINE
  5
26a
  8
Layer_0
  62
0
  70
1
  66
1
  10
0
  20
0
  30
0
  0
VERTEX
  5
26a
  8
Layer_0
  10
121.19955
  20
-241.2959
  0
VERTEX
  5
26b
  8
Layer_0
  10
118.63573
  20
-239.73804
  0
VERTEX
  5
26c
  8
Layer_0
  10
117.59715
  20
-241.44727
  0
VERTEX
  5
26d
  8
Layer_0
  10
120.16096
  20
-243.0051
  0
VERTEX
  5
26e
  8
Layer_0
  10
121.19955
  20
-241.2959
  0
SEQEND
  0
POLYLINE
  5
270
  8
Layer_0
  62
0
  70
1
  66
1
  10
0
  20
0
  30
0
  0
VERTEX
  5
270
  8
Layer_0
  10
16.062958
  20
-177.41254
  0
VERTEX
  5
271
  8
Layer_0
  10
13.499146
  20
-175.85474
  0
VERTEX
  5
272
  8
Layer_0
  10
12.460602
  20
-177.5639
  0
VERTEX
  5
273
  8
Layer_0
  10
15.024414
  20
-179.12177
  0
VERTEX
  5
274
  8
Layer_0
  10
16.062958
  20
-177.41254
  0
SEQEND
  0
POLYLINE
  5
276
  8
Layer_0
  62
0
  70
1
  66
1
  10
0
  20
0
  30
0
  0
VERTEX
  5
276
  8
Layer_0
  10
65.62413
  20
-272.45483
  0
VERTEX
  5
277
  8
Layer_0
  10
64.585541
  20
-274.16406
  0
VERTEX
  5
278
  8
Layer_0
  10
67.149353
  20
-275.72186
  0
VERTEX
  5
279
  8
Layer_0
  10
68.187943
  20
-274.01266
  0
VERTEX
  5
27a
  8
Layer_0
  10
65.62413
  20
-272.45483
  0
SEQEND
  0
POLYLINE
  5
27c
  8
Layer_0
  62
0
  70
1
  66
1
  10
0
  20
0
  30
0
  0
VERTEX
  5
27c
  8
Layer_0
  10
120.74619
  20
-305.94824
  0
VERTEX
  5
27d
  8
Layer_0
  10
118.18238
  20
-304.39038
  0
VERTEX
  5
27e
  8
Layer_0
  10
117.1438
  20
-306.09961
  0
VERTEX
  5
27f
  8
Layer_0
  10
119.70765
  20
-307.65744
  0
VERTEX
  5
280
  8
Layer_0
  10
120.74619
  20
-305.94824
  0
SEQEND
  0
POLYLINE
  5
282
  8
Layer_0
  62
0
  70
1
  66
1
  10
0
  20
0
  30
0
  0
VERTEX
  5
282
  8
Layer_0
  10
13.045792
  20
-240.50708
  0
VERTEX
  5
283
  8
Layer_0
  10
12.007248
  20
-242.21625
  0
VERTEX
  5
284
  8
Layer_0
  10
14.57106
  20
-243.77411
  0
VERTEX
  5
285
  8
Layer_0
  10
15.609604
  20
-242.06488
  0
VERTEX
  5
286
  8
Layer_0
  10
13.045792
  20
-240.50708
  0
SEQEND
  0
POLYLINE
  5
288
  8
Layer_0
  62
0
  70
1
  66
1
  10
0
  20
0
  30
0
  0
VERTEX
  5
288
  8
Layer_0
  10
56.256531
  20
40.276627
  0
VERTEX
  5
289
  8
Layer_0
  10
56.219635
  20
38.615402
  0
VERTEX
  5
28a
  8
Layer_0
  10
56.198807
  20
37.123566
  0
VERTEX
  5
28b
  8
Layer_0
  10
56.18689
  20
34.123611
  0
VERTEX
  5
28c
  8
Layer_0
  10
54.186874
  20
34.131546
  0
VERTEX
  5
28d
  8
Layer_0
  10
53.954651
  20
-24.36792
  0
VERTEX
  5
28e
  8
Layer_0
  10
55.954666
  20
-24.375854
  0
VERTEX
  5
28f
  8
Layer_0
  10
55.942749
  20
-27.375854
  0
VERTEX
  5
290
  8
Layer_0
  10
53.942734
  20
-27.36792
  0
VERTEX
  5
291
  8
Layer_0
  10
53.710403
  20
-85.8909
  0
VERTEX
  5
292
  8
Layer_0
  10
53.656143
  20
-88.899414
  0
VERTEX
  5
293
  8
Layer_0
  10
55.698608
  20
-88.875336
  0
VERTEX
  5
294
  8
Layer_0
  10
92.781769
  20
-89.022552
  0
VERTEX
  5
295
  8
Layer_0
  10
92.781677
  20
-89.046051
  0
VERTEX
  5
296
  8
Layer_0
  10
95.698166
  20
-89.057617
  0
VERTEX
  5
297
  8
Layer_0
  10
95.710068
  20
-86.057617
  0
VERTEX
  5
298
  8
Layer_0
  10
93.710083
  20
-86.049683
  0
VERTEX
  5
299
  8
Layer_0
  10
93.942413
  20
-27.526703
  0
VERTEX
  5
29a
  8
Layer_0
  10
95.942398
  20
-27.534653
  0
VERTEX
  5
29b
  8
Layer_0
  10
95.954315
  20
-24.534653
  0
VERTEX
  5
29c
  8
Layer_0
  10
93.95433
  20
-24.526718
  0
VERTEX
  5
29d
  8
Layer_0
  10
94.186554
  20
33.972748
  0
VERTEX
  5
29e
  8
Layer_0
  10
96.186539
  20
33.964813
  0
VERTEX
  5
29f
  8
Layer_0
  10
96.207733
  20
35.443665
  0
VERTEX
  5
2a0
  8
Layer_0
  10
94.103439
  20
35.313843
  0
VERTEX
  5
2a1
  8
Layer_0
  10
94.210373
  20
39.972748
  0
VERTEX
  5
2a2
  8
Layer_0
  10
56.256531
  20
40.276627
  0
SEQEND
  0
POLYLINE
  5
2a4
  8
Layer_0
  62
0
  70
1
  66
1
  10
0
  20
0
  30
0
  0
VERTEX
  5
2a4
  8
Layer_0
  10
63.296463
  20
36.071915
  0
VERTEX
  5
2a5
  8
Layer_0
  10
60.296494
  20
36.083832
  0
VERTEX
  5
2a6
  8
Layer_0
  10
60.304428
  20
38.083801
  0
VERTEX
  5
2a7
  8
Layer_0
  10
63.304398
  20
38.071899
  0
VERTEX
  5
2a8
  8
Layer_0
  10
63.296463
  20
36.071915
  0
SEQEND
  0
POLYLINE
  5
2aa
  8
Layer_0
  62
0
  70
1
  66
1
  10
0
  20
0
  30
0
  0
VERTEX
  5
2aa
  8
Layer_0
  10
88.092682
  20
35.97348
  0
VERTEX
  5
2ab
  8
Layer_0
  10
85.092682
  20
35.985382
  0
VERTEX
  5
2ac
  8
Layer_0
  10
85.100616
  20
37.985367
  0
VERTEX
  5
2ad
  8
Layer_0
  10
88.100616
  20
37.973465
  0
VERTEX
  5
2ae
  8
Layer_0
  10
88.092682
  20
35.97348
  0
SEQEND
  0
POLYLINE
  5
2b0
  8
Layer_0
  62
0
  70
1
  66
1
  10
0
  20
0
  30
0
  0
VERTEX
  5
2b0
  8
Layer_0
  10
232.42639
  20
38.433609
  0
VERTEX
  5
2b1
  8
Layer_0
  10
194.45352
  20
38.739212
  0
VERTEX
  5
2b2
  8
Layer_0
  10
192.43607
  20
38.713226
  0
VERTEX
  5
2b3
  8
Layer_0
  10
192.42963
  20
35.778885
  0
VERTEX
  5
2b4
  8
Layer_0
  10
191.94653
  20
-22.719055
  0
VERTEX
  5
2b5
  8
Layer_0
  10
193.95879
  20
-22.73526
  0
VERTEX
  5
2b6
  8
Layer_0
  10
193.93465
  20
-25.735138
  0
VERTEX
  5
2b7
  8
Layer_0
  10
191.92175
  20
-25.718948
  0
VERTEX
  5
2b8
  8
Layer_0
  10
191.43851
  20
-84.240417
  0
VERTEX
  5
2b9
  8
Layer_0
  10
193.46368
  20
-84.256714
  0
VERTEX
  5
2ba
  8
Layer_0
  10
193.43953
  20
-87.256622
  0
VERTEX
  5
2bb
  8
Layer_0
  10
198.06592
  20
-87.293854
  0
VERTEX
  5
2bc
  8
Layer_0
  10
198.04982
  20
-89.293823
  0
VERTEX
  5
2bd
  8
Layer_0
  10
201.04974
  20
-89.317963
  0
VERTEX
  5
2be
  8
Layer_0
  10
201.06584
  20
-87.317993
  0
VERTEX
  5
2bf
  8
Layer_0
  10
222.8615
  20
-87.493408
  0
VERTEX
  5
2c0
  8
Layer_0
  10
222.8454
  20
-89.493347
  0
VERTEX
  5
2c1
  8
Layer_0
  10
225.84532
  20
-89.517517
  0
VERTEX
  5
2c2
  8
Layer_0
  10
225.86142
  20
-87.517548
  0
VERTEX
  5
2c3
  8
Layer_0
  10
231.4124
  20
-87.562225
  0
VERTEX
  5
2c4
  8
Layer_0
  10
231.4324
  20
-86.134918
  0
VERTEX
  5
2c5
  8
Layer_0
  10
233.39899
  20
-86.157288
  0
VERTEX
  5
2c6
  8
Layer_0
  10
233.43649
  20
-84.5784
  0
VERTEX
  5
2c7
  8
Layer_0
  10
231.43654
  20
-84.562302
  0
VERTEX
  5
2c8
  8
Layer_0
  10
231.9075
  20
-26.040771
  0
VERTEX
  5
2c9
  8
Layer_0
  10
233.90746
  20
-26.05687
  0
VERTEX
  5
2ca
  8
Layer_0
  10
233.93159
  20
-23.056946
  0
VERTEX
  5
2cb
  8
Layer_0
  10
231.93164
  20
-23.040848
  0
VERTEX
  5
2cc
  8
Layer_0
  10
232.40244
  20
35.457199
  0
VERTEX
  5
2cd
  8
Layer_0
  10
234.40237
  20
35.441101
  0
VERTEX
  5
2ce
  8
Layer_0
  10
234.42651
  20
38.44104
  0
VERTEX
  5
2cf
  8
Layer_0
  10
232.42657
  20
38.457123
  0
VERTEX
  5
2d0
  8
Layer_0
  10
232.42639
  20
38.433609
  0
SEQEND
  0
POLYLINE
  5
2d2
  8
Layer_0
  62
0
  70
1
  66
1
  10
0
  20
0
  30
0
  0
VERTEX
  5
2d2
  8
Layer_0
  10
219.50064
  20
26.082916
  0
VERTEX
  5
2d3
  8
Layer_0
  10
219.48991
  20
26.34967
  0
VERTEX
  5
2d4
  8
Layer_0
  10
219.45242
  20
26.597168
  0
VERTEX
  5
2d5
  8
Layer_0
  10
219.38818
  20
26.825378
  0
VERTEX
  5
2d6
  8
Layer_0
  10
219.29724
  20
27.034256
  0
VERTEX
  5
2d7
  8
Layer_0
  10
219.1738
  20
27.222412
  0
VERTEX
  5
2d8
  8
Layer_0
  10
219.01202
  20
27.387833
  0
VERTEX
  5
2d9
  8
Layer_0
  10
218.81192
  20
27.530563
  0
VERTEX
  5
2da
  8
Layer_0
  10
218.57346
  20
27.650665
  0
VERTEX
  5
2db
  8
Layer_0
  10
218.28871
  20
27.746414
  0
VERTEX
  5
2dc
  8
Layer_0
  10
217.94969
  20
27.816101
  0
VERTEX
  5
2dd
  8
Layer_0
  10
217.55634
  20
27.859741
  0
VERTEX
  5
2de
  8
Layer_0
  10
217.10864
  20
27.877319
  0
VERTEX
  5
2df
  8
Layer_0
  10
208.70575
  20
27.95813
  0
VERTEX
  5
2e0
  8
Layer_0
  10
208.70016
  20
27.377167
  0
VERTEX
  5
2e1
  8
Layer_0
  10
217.06068
  20
27.296753
  0
VERTEX
  5
2e2
  8
Layer_0
  10
217.43918
  20
27.283798
  0
VERTEX
  5
2e3
  8
Layer_0
  10
217.76701
  20
27.252731
  0
VERTEX
  5
2e4
  8
Layer_0
  10
218.04424
  20
27.203552
  0
VERTEX
  5
2e5
  8
Layer_0
  10
218.27084
  20
27.136276
  0
VERTEX
  5
2e6
  8
Layer_0
  10
218.45593
  20
27.052124
  0
VERTEX
  5
2e7
  8
Layer_0
  10
218.60907
  20
26.952362
  0
VERTEX
  5
2e8
  8
Layer_0
  10
218.73021
  20
26.836945
  0
VERTEX
  5
2e9
  8
Layer_0
  10
218.81932
  20
26.705841
  0
VERTEX
  5
2ea
  8
Layer_0
  10
218.93864
  20
26.405411
  0
VERTEX
  5
2eb
  8
Layer_0
  10
219.00432
  20
26.059296
  0
VERTEX
  5
2ec
  8
Layer_0
  10
219.09534
  20
25.20813
  0
VERTEX
  5
2ed
  8
Layer_0
  10
219.49219
  20
25.204315
  0
VERTEX
  5
2ee
  8
Layer_0
  10
219.50064
  20
26.082916
  0
SEQEND
  0
POLYLINE
  5
2f0
  8
Layer_0
  62
0
  70
1
  66
1
  10
0
  20
0
  30
0
  0
VERTEX
  5
2f0
  8
Layer_0
  10
219.38303
  20
13.854095
  0
VERTEX
  5
2f1
  8
Layer_0
  10
219.37137
  20
14.16156
  0
VERTEX
  5
2f2
  8
Layer_0
  10
219.33026
  20
14.446289
  0
VERTEX
  5
2f3
  8
Layer_0
  10
219.25967
  20
14.708237
  0
VERTEX
  5
2f4
  8
Layer_0
  10
219.15958
  20
14.947372
  0
VERTEX
  5
2f5
  8
Layer_0
  10
219.02754
  20
15.160843
  0
VERTEX
  5
2f6
  8
Layer_0
  10
218.86063
  20
15.345367
  0
VERTEX
  5
2f7
  8
Layer_0
  10
218.65887
  20
15.500961
  0
VERTEX
  5
2f8
  8
Layer_0
  10
218.4223
  20
15.627655
  0
VERTEX
  5
2f9
  8
Layer_0
  10
218.14957
  20
15.72644
  0
VERTEX
  5
2fa
  8
Layer_0
  10
217.83929
  20
15.798065
  0
VERTEX
  5
2fb
  8
Layer_0
  10
217.49155
  20
15.84256
  0
VERTEX
  5
2fc
  8
Layer_0
  10
217.10638
  20
15.85997
  0
VERTEX
  5
2fd
  8
Layer_0
  10
212.35922
  20
15.863083
  0
VERTEX
  5
2fe
  8
Layer_0
  10
212.37094
  20
17.081696
  0
VERTEX
  5
2ff
  8
Layer_0
  10
212.00232
  20
17.085251
  0
VERTEX
  5
300
  8
Layer_0
  10
211.86328
  20
15.882141
  0
VERTEX
  5
301
  8
Layer_0
  10
209.75066
  20
15.774811
  0
VERTEX
  5
302
  8
Layer_0
  10
209.74657
  20
15.349701
  0
VERTEX
  5
303
  8
Layer_0
  10
211.85797
  20
15.329407
  0
VERTEX
  5
304
  8
Layer_0
  10
211.83507
  20
12.948761
  0
VERTEX
  5
305
  8
Layer_0
  10
212.33115
  20
12.943985
  0
VERTEX
  5
306
  8
Layer_0
  10
212.35405
  20
15.324631
  0
VERTEX
  5
307
  8
Layer_0
  10
217.0867
  20
15.279114
  0
VERTEX
  5
308
  8
Layer_0
  10
217.3692
  20
15.268433
  0
VERTEX
  5
309
  8
Layer_0
  10
217.62143
  20
15.242081
  0
VERTEX
  5
30a
  8
Layer_0
  10
217.84332
  20
15.200104
  0
VERTEX
  5
30b
  8
Layer_0
  10
218.0349
  20
15.142517
  0
VERTEX
  5
30c
  8
Layer_0
  10
218.20036
  20
15.071777
  0
VERTEX
  5
30d
  8
Layer_0
  10
218.34355
  20
14.990677
  0
VERTEX
  5
30e
  8
Layer_0
  10
218.46448
  20
14.89917
  0
VERTEX
  5
30f
  8
Layer_0
  10
218.56316
  20
14.797211
  0
VERTEX
  5
310
  8
Layer_0
  10
218.7117
  20
14.577988
  0
VERTEX
  5
311
  8
Layer_0
  10
218.80688
  20
14.348541
  0
VERTEX
  5
312
  8
Layer_0
  10
218.86133
  20
14.123062
  0
VERTEX
  5
313
  8
Layer_0
  10
218.88751
  20
13.915558
  0
VERTEX
  5
314
  8
Layer_0
  10
218.96373
  20
12.99353
  0
VERTEX
  5
315
  8
Layer_0
  10
219.37469
  20
12.989578
  0
VERTEX
  5
316
  8
Layer_0
  10
219.38303
  20
13.854095
  0
SEQEND
  0
POLYLINE
  5
318
  8
Layer_0
  62
0
  70
1
  66
1
  10
0
  20
0
  30
0
  0
VERTEX
  5
318
  8
Layer_0
  10
219.29688
  20
4.8986511
  0
VERTEX
  5
319
  8
Layer_0
  10
219.28522
  20
5.2061157
  0
VERTEX
  5
31a
  8
Layer_0
  10
219.24413
  20
5.4908295
  0
VERTEX
  5
31b
  8
Layer_0
  10
219.17355
  20
5.7527618
  0
VERTEX
  5
31c
  8
Layer_0
  10
219.07344
  20
5.9919128
  0
VERTEX
  5
31d
  8
Layer_0
  10
218.94141
  20
6.2053986
  0
VERTEX
  5
31e
  8
Layer_0
  10
218.77448
  20
6.3899231
  0
VERTEX
  5
31f
  8
Layer_0
  10
218.57272
  20
6.5455017
  0
VERTEX
  5
320
  8
Layer_0
  10
218.33615
  20
6.6722107
  0
VERTEX
  5
321
  8
Layer_0
  10
218.06342
  20
6.7709808
  0
VERTEX
  5
322
  8
Layer_0
  10
217.75314
  20
6.8425903
  0
VERTEX
  5
323
  8
Layer_0
  10
217.4054
  20
6.887085
  0
VERTEX
  5
324
  8
Layer_0
  10
217.02023
  20
6.90448
  0
VERTEX
  5
325
  8
Layer_0
  10
212.27309
  20
6.907608
  0
VERTEX
  5
326
  8
Layer_0
  10
212.28481
  20
8.1262512
  0
VERTEX
  5
327
  8
Layer_0
  10
211.91617
  20
8.1297913
  0
VERTEX
  5
328
  8
Layer_0
  10
211.77713
  20
6.9266968
  0
VERTEX
  5
329
  8
Layer_0
  10
209.66452
  20
6.8193359
  0
VERTEX
  5
32a
  8
Layer_0
  10
209.66043
  20
6.3942566
  0
VERTEX
  5
32b
  8
Layer_0
  10
211.77182
  20
6.3739471
  0
VERTEX
  5
32c
  8
Layer_0
  10
211.74892
  20
3.9933167
  0
VERTEX
  5
32d
  8
Layer_0
  10
212.245
  20
3.9885406
  0
VERTEX
  5
32e
  8
Layer_0
  10
212.2679
  20
6.3691711
  0
VERTEX
  5
32f
  8
Layer_0
  10
217.00055
  20
6.3236542
  0
VERTEX
  5
330
  8
Layer_0
  10
217.28305
  20
6.3129578
  0
VERTEX
  5
331
  8
Layer_0
  10
217.53528
  20
6.2866211
  0
VERTEX
  5
332
  8
Layer_0
  10
217.75717
  20
6.2446594
  0
VERTEX
  5
333
  8
Layer_0
  10
217.94875
  20
6.1870422
  0
VERTEX
  5
334
  8
Layer_0
  10
218.11421
  20
6.1163025
  0
VERTEX
  5
335
  8
Layer_0
  10
218.2574
  20
6.0352173
  0
VERTEX
  5
336
  8
Layer_0
  10
218.37833
  20
5.9436951
  0
VERTEX
  5
337
  8
Layer_0
  10
218.47702
  20
5.8417664
  0
VERTEX
  5
338
  8
Layer_0
  10
218.62556
  20
5.6224976
  0
VERTEX
  5
339
  8
Layer_0
  10
218.72075
  20
5.3930664
  0
VERTEX
  5
33a
  8
Layer_0
  10
218.77518
  20
5.167572
  0
VERTEX
  5
33b
  8
Layer_0
  10
218.80136
  20
4.9600677
  0
VERTEX
  5
33c
  8
Layer_0
  10
218.87759
  20
4.0380859
  0
VERTEX
  5
33d
  8
Layer_0
  10
219.28856
  20
4.0341492
  0
VERTEX
  5
33e
  8
Layer_0
  10
219.29688
  20
4.8986511
  0
SEQEND
  0
POLYLINE
  5
340
  8
Layer_0
  62
0
  70
1
  66
1
  10
0
  20
0
  30
0
  0
VERTEX
  5
340
  8
Layer_0
  10
219.27057
  20
2.1637268
  0
VERTEX
  5
341
  8
Layer_0
  10
208.45863
  20
2.2677307
  0
VERTEX
  5
342
  8
Layer_0
  10
208.45305
  20
1.6867371
  0
VERTEX
  5
343
  8
Layer_0
  10
212.59076
  20
1.6469421
  0
VERTEX
  5
344
  8
Layer_0
  10
212.39572
  20
1.3401794
  0
VERTEX
  5
345
  8
Layer_0
  10
212.21271
  20
1.0111542
  0
VERTEX
  5
346
  8
Layer_0
  10
212.04181
  20
0.6598053
  0
VERTEX
  5
347
  8
Layer_0
  10
211.88312
  20
0.28613281
  0
VERTEX
  5
348
  8
Layer_0
  10
211.74933
  20
-0.10263062
  0
VERTEX
  5
349
  8
Layer_0
  10
211.6526
  20
-0.49977112
  0
VERTEX
  5
34a
  8
Layer_0
  10
211.59293
  20
-0.90530396
  0
VERTEX
  5
34b
  8
Layer_0
  10
211.57034
  20
-1.3192444
  0
VERTEX
  5
34c
  8
Layer_0
  10
211.58807
  20
-1.6865845
  0
VERTEX
  5
34d
  8
Layer_0
  10
211.64859
  20
-2.0232849
  0
VERTEX
  5
34e
  8
Layer_0
  10
211.75192
  20
-2.3293915
  0
VERTEX
  5
34f
  8
Layer_0
  10
211.89804
  20
-2.6049194
  0
VERTEX
  5
350
  8
Layer_0
  10
212.07945
  20
-2.84935
  0
VERTEX
  5
351
  8
Layer_0
  10
212.28865
  20
-3.0621796
  0
VERTEX
  5
352
  8
Layer_0
  10
212.5256
  20
-3.2433929
  0
VERTEX
  5
353
  8
Layer_0
  10
212.79031
  20
-3.3930054
  0
VERTEX
  5
354
  8
Layer_0
  10
213.07486
  20
-3.5104065
  0
VERTEX
  5
355
  8
Layer_0
  10
213.37125
  20
-3.5951843
  0
VERTEX
  5
356
  8
Layer_0
  10
213.67944
  20
-3.6473236
  0
VERTEX
  5
357
  8
Layer_0
  10
213.9994
  20
-3.6667938
  0
VERTEX
  5
358
  8
Layer_0
  10
219.21399
  20
-3.7169495
  0
VERTEX
  5
359
  8
Layer_0
  10
219.21957
  20
-3.1359863
  0
VERTEX
  5
35a
  8
Layer_0
  10
214.04735
  20
-3.0862427
  0
VERTEX
  5
35b
  8
Layer_0
  10
213.784
  20
-3.0699768
  0
VERTEX
  5
35c
  8
Layer_0
  10
213.53244
  20
-3.0263672
  0
VERTEX
  5
35d
  8
Layer_0
  10
213.2926
  20
-2.9554138
  0
VERTEX
  5
35e
  8
Layer_0
  10
213.06456
  20
-2.857132
  0
VERTEX
  5
35f
  8
Layer_0
  10
212.85376
  20
-2.7332458
  0
VERTEX
  5
360
  8
Layer_0
  10
212.66521
  20
-2.5857239
  0
VERTEX
  5
361
  8
Layer_0
  10
212.49896
  20
-2.4145203
  0
VERTEX
  5
362
  8
Layer_0
  10
212.35512
  20
-2.2196655
  0
VERTEX
  5
363
  8
Layer_0
  10
212.23959
  20
-2.0014954
  0
VERTEX
  5
364
  8
Layer_0
  10
212.15782
  20
-1.7606812
  0
VERTEX
  5
365
  8
Layer_0
  10
212.10985
  20
-1.4971619
  0
VERTEX
  5
366
  8
Layer_0
  10
212.09575
  20
-1.2109985
  0
VERTEX
  5
367
  8
Layer_0
  10
212.12747
  20
-0.66020203
  0
VERTEX
  5
368
  8
Layer_0
  10
212.21187
  20
-0.17041016
  0
VERTEX
  5
369
  8
Layer_0
  10
212.34207
  20
0.28184509
  0
VERTEX
  5
36a
  8
Layer_0
  10
212.51085
  20
0.71951294
  0
VERTEX
  5
36b
  8
Layer_0
  10
212.72084
  20
1.1657104
  0
VERTEX
  5
36c
  8
Layer_0
  10
212.97351
  20
1.6432495
  0
VERTEX
  5
36d
  8
Layer_0
  10
219.26498
  20
1.5827332
  0
VERTEX
  5
36e
  8
Layer_0
  10
219.27057
  20
2.1637268
  0
SEQEND
  0
POLYLINE
  5
370
  8
Layer_0
  62
0
  70
1
  66
1
  10
0
  20
0
  30
0
  0
VERTEX
  5
370
  8
Layer_0
  10
219.11694
  20
-13.806137
  0
VERTEX
  5
371
  8
Layer_0
  10
211.5784
  20
-13.733627
  0
VERTEX
  5
372
  8
Layer_0
  10
211.57431
  20
-14.158737
  0
VERTEX
  5
373
  8
Layer_0
  10
212.97559
  20
-14.328125
  0
VERTEX
  5
374
  8
Layer_0
  10
212.66158
  20
-14.616425
  0
VERTEX
  5
375
  8
Layer_0
  10
212.3766
  20
-14.921021
  0
VERTEX
  5
376
  8
Layer_0
  10
212.12067
  20
-15.241898
  0
VERTEX
  5
377
  8
Layer_0
  10
211.89378
  20
-15.57901
  0
VERTEX
  5
378
  8
Layer_0
  10
211.70743
  20
-15.936707
  0
VERTEX
  5
379
  8
Layer_0
  10
211.57303
  20
-16.319794
  0
VERTEX
  5
37a
  8
Layer_0
  10
211.49066
  20
-16.728271
  0
VERTEX
  5
37b
  8
Layer_0
  10
211.46033
  20
-17.162079
  0
VERTEX
  5
37c
  8
Layer_0
  10
211.46371
  20
-17.367523
  0
VERTEX
  5
37d
  8
Layer_0
  10
211.47784
  20
-17.55896
  0
VERTEX
  5
37e
  8
Layer_0
  10
211.50273
  20
-17.736237
  0
VERTEX
  5
37f
  8
Layer_0
  10
211.53833
  20
-17.89978
  0
VERTEX
  5
380
  8
Layer_0
  10
212.11914
  20
-17.905365
  0
VERTEX
  5
381
  8
Layer_0
  10
212.09439
  20
-17.738419
  0
VERTEX
  5
382
  8
Layer_0
  10
212.07295
  20
-17.550568
  0
VERTEX
  5
383
  8
Layer_0
  10
212.05911
  20
-17.344833
  0
VERTEX
  5
384
  8
Layer_0
  10
212.05602
  20
-17.125259
  0
VERTEX
  5
385
  8
Layer_0
  10
212.06802
  20
-16.843185
  0
VERTEX
  5
386
  8
Layer_0
  10
212.09848
  20
-16.578217
  0
VERTEX
  5
387
  8
Layer_0
  10
212.1474
  20
-16.330307
  0
VERTEX
  5
388
  8
Layer_0
  10
212.21472
  20
-16.099411
  0
VERTEX
  5
389
  8
Layer_0
  10
212.40482
  20
-15.660049
  0
VERTEX
  5
38a
  8
Layer_0
  10
212.66922
  20
-15.232132
  0
VERTEX
  5
38b
  8
Layer_0
  10
213.0029
  20
-14.796021
  0
VERTEX
  5
38c
  8
Layer_0
  10
213.40071
  20
-14.332214
  0
VERTEX
  5
38d
  8
Layer_0
  10
219.11136
  20
-14.387146
  0
VERTEX
  5
38e
  8
Layer_0
  10
219.11694
  20
-13.806137
  0
SEQEND
  0
POLYLINE
  5
390
  8
Layer_0
  62
0
  70
1
  66
1
  10
0
  20
0
  30
0
  0
VERTEX
  5
390
  8
Layer_0
  10
218.74265
  20
-52.717392
  0
VERTEX
  5
391
  8
Layer_0
  10
218.73192
  20
-52.450668
  0
VERTEX
  5
392
  8
Layer_0
  10
218.69441
  20
-52.203186
  0
VERTEX
  5
393
  8
Layer_0
  10
218.63017
  20
-51.974976
  0
VERTEX
  5
394
  8
Layer_0
  10
218.53925
  20
-51.766098
  0
VERTEX
  5
395
  8
Layer_0
  10
218.4158
  20
-51.577911
  0
VERTEX
  5
396
  8
Layer_0
  10
218.25401
  20
-51.412491
  0
VERTEX
  5
397
  8
Layer_0
  10
218.05389
  20
-51.269775
  0
VERTEX
  5
398
  8
Layer_0
  10
217.81544
  20
-51.149689
  0
VERTEX
  5
399
  8
Layer_0
  10
217.53072
  20
-51.053925
  0
VERTEX
  5
39a
  8
Layer_0
  10
217.19168
  20
-50.984222
  0
VERTEX
  5
39b
  8
Layer_0
  10
216.79834
  20
-50.940582
  0
VERTEX
  5
39c
  8
Layer_0
  10
216.35065
  20
-50.923004
  0
VERTEX
  5
39d
  8
Layer_0
  10
207.94775
  20
-50.842163
  0
VERTEX
  5
39e
  8
Layer_0
  10
207.94217
  20
-51.423172
  0
VERTEX
  5
39f
  8
Layer_0
  10
216.30269
  20
-51.503586
  0
VERTEX
  5
3a0
  8
Layer_0
  10
216.68118
  20
-51.516541
  0
VERTEX
  5
3a1
  8
Layer_0
  10
217.00902
  20
-51.547592
  0
VERTEX
  5
3a2
  8
Layer_0
  10
217.28624
  20
-51.596771
  0
VERTEX
  5
3a3
  8
Layer_0
  10
217.51285
  20
-51.664078
  0
VERTEX
  5
3a4
  8
Layer_0
  10
217.69794
  20
-51.748215
  0
VERTEX
  5
3a5
  8
Layer_0
  10
217.85107
  20
-51.847992
  0
VERTEX
  5
3a6
  8
Layer_0
  10
217.97221
  20
-51.963394
  0
VERTEX
  5
3a7
  8
Layer_0
  10
218.06133
  20
-52.094452
  0
VERTEX
  5
3a8
  8
Layer_0
  10
218.18065
  20
-52.394897
  0
VERTEX
  5
3a9
  8
Layer_0
  10
218.24631
  20
-52.741043
  0
VERTEX
  5
3aa
  8
Layer_0
  10
218.33734
  20
-53.592194
  0
VERTEX
  5
3ab
  8
Layer_0
  10
218.73419
  20
-53.596008
  0
VERTEX
  5
3ac
  8
Layer_0
  10
218.74265
  20
-52.717392
  0
SEQEND
  0
POLYLINE
  5
3ae
  8
Layer_0
  62
0
  70
1
  66
1
  10
0
  20
0
  30
0
  0
VERTEX
  5
3ae
  8
Layer_0
  10
209.69345
  20
-54.996887
  0
VERTEX
  5
3af
  8
Layer_0
  10
209.68274
  20
-54.916199
  0
VERTEX
  5
3b0
  8
Layer_0
  10
209.64877
  20
-54.858337
  0
VERTEX
  5
3b1
  8
Layer_0
  10
209.59152
  20
-54.823257
  0
VERTEX
  5
3b2
  8
Layer_0
  10
209.51096
  20
-54.810974
  0
VERTEX
  5
3b3
  8
Layer_0
  10
208.56152
  20
-54.801834
  0
VERTEX
  5
3b4
  8
Layer_0
  10
208.48087
  20
-54.812561
  0
VERTEX
  5
3b5
  8
Layer_0
  10
208.42293
  20
-54.846527
  0
VERTEX
  5
3b6
  8
Layer_0
  10
208.38776
  20
-54.903748
  0
VERTEX
  5
3b7
  8
Layer_0
  10
208.37543
  20
-54.984222
  0
VERTEX
  5
3b8
  8
Layer_0
  10
208.37202
  20
-55.338531
  0
VERTEX
  5
3b9
  8
Layer_0
  10
208.38565
  20
-55.413055
  0
VERTEX
  5
3ba
  8
Layer_0
  10
208.42764
  20
-55.466522
  0
VERTEX
  5
3bb
  8
Layer_0
  10
208.48759
  20
-55.499023
  0
VERTEX
  5
3bc
  8
Layer_0
  10
208.55472
  20
-55.510284
  0
VERTEX
  5
3bd
  8
Layer_0
  10
209.50414
  20
-55.519424
  0
VERTEX
  5
3be
  8
Layer_0
  10
209.5849
  20
-55.509583
  0
VERTEX
  5
3bf
  8
Layer_0
  10
209.64279
  20
-55.478256
  0
VERTEX
  5
3c0
  8
Layer_0
  10
209.67783
  20
-55.425476
  0
VERTEX
  5
3c1
  8
Layer_0
  10
209.69005
  20
-55.351196
  0
VERTEX
  5
3c2
  8
Layer_0
  10
209.69345
  20
-54.996887
  0
SEQEND
  0
POLYLINE
  5
3c4
  8
Layer_0
  62
0
  70
1
  66
1
  10
0
  20
0
  30
0
  0
VERTEX
  5
3c4
  8
Layer_0
  10
218.72112
  20
-54.956253
  0
VERTEX
  5
3c5
  8
Layer_0
  10
211.18257
  20
-54.883743
  0
VERTEX
  5
3c6
  8
Layer_0
  10
211.17697
  20
-55.464737
  0
VERTEX
  5
3c7
  8
Layer_0
  10
218.71552
  20
-55.537247
  0
VERTEX
  5
3c8
  8
Layer_0
  10
218.72112
  20
-54.956253
  0
SEQEND
  0
POLYLINE
  5
3ca
  8
Layer_0
  62
0
  70
1
  66
1
  10
0
  20
0
  30
0
  0
VERTEX
  5
3ca
  8
Layer_0
  10
218.61398
  20
-66.09375
  0
VERTEX
  5
3cb
  8
Layer_0
  10
207.80205
  20
-65.989746
  0
VERTEX
  5
3cc
  8
Layer_0
  10
207.79646
  20
-66.570709
  0
VERTEX
  5
3cd
  8
Layer_0
  10
211.93417
  20
-66.610504
  0
VERTEX
  5
3ce
  8
Layer_0
  10
211.73914
  20
-66.917267
  0
VERTEX
  5
3cf
  8
Layer_0
  10
211.55612
  20
-67.246292
  0
VERTEX
  5
3d0
  8
Layer_0
  10
211.38522
  20
-67.597641
  0
VERTEX
  5
3d1
  8
Layer_0
  10
211.22653
  20
-67.971298
  0
VERTEX
  5
3d2
  8
Layer_0
  10
211.09274
  20
-68.360077
  0
VERTEX
  5
3d3
  8
Layer_0
  10
210.99602
  20
-68.757217
  0
VERTEX
  5
3d4
  8
Layer_0
  10
210.93634
  20
-69.162766
  0
VERTEX
  5
3d5
  8
Layer_0
  10
210.91376
  20
-69.576721
  0
VERTEX
  5
3d6
  8
Layer_0
  10
210.93149
  20
-69.944031
  0
VERTEX
  5
3d7
  8
Layer_0
  10
210.992
  20
-70.280731
  0
VERTEX
  5
3d8
  8
Layer_0
  10
211.09534
  20
-70.586823
  0
VERTEX
  5
3d9
  8
Layer_0
  10
211.24146
  20
-70.86235
  0
VERTEX
  5
3da
  8
Layer_0
  10
211.42287
  20
-71.106781
  0
VERTEX
  5
3db
  8
Layer_0
  10
211.63206
  20
-71.319611
  0
VERTEX
  5
3dc
  8
Layer_0
  10
211.86903
  20
-71.500824
  0
VERTEX
  5
3dd
  8
Layer_0
  10
212.13374
  20
-71.650436
  0
VERTEX
  5
3de
  8
Layer_0
  10
212.41827
  20
-71.767838
  0
VERTEX
  5
3df
  8
Layer_0
  10
212.71469
  20
-71.852631
  0
VERTEX
  5
3e0
  8
Layer_0
  10
213.02289
  20
-71.904785
  0
VERTEX
  5
3e1
  8
Layer_0
  10
213.34282
  20
-71.924255
  0
VERTEX
  5
3e2
  8
Layer_0
  10
218.5574
  20
-71.974426
  0
VERTEX
  5
3e3
  8
Layer_0
  10
218.563
  20
-71.393417
  0
VERTEX
  5
3e4
  8
Layer_0
  10
213.39078
  20
-71.343674
  0
VERTEX
  5
3e5
  8
Layer_0
  10
213.12741
  20
-71.327423
  0
VERTEX
  5
3e6
  8
Layer_0
  10
212.87585
  20
-71.283813
  0
VERTEX
  5
3e7
  8
Layer_0
  10
212.63605
  20
-71.21286
  0
VERTEX
  5
3e8
  8
Layer_0
  10
212.40799
  20
-71.114563
  0
VERTEX
  5
3e9
  8
Layer_0
  10
212.19719
  20
-70.990692
  0
VERTEX
  5
3ea
  8
Layer_0
  10
212.00864
  20
-70.84314
  0
VERTEX
  5
3eb
  8
Layer_0
  10
211.84238
  20
-70.671967
  0
VERTEX
  5
3ec
  8
Layer_0
  10
211.69853
  20
-70.477081
  0
VERTEX
  5
3ed
  8
Layer_0
  10
211.58301
  20
-70.258926
  0
VERTEX
  5
3ee
  8
Layer_0
  10
211.50124
  20
-70.018112
  0
VERTEX
  5
3ef
  8
Layer_0
  10
211.45326
  20
-69.754608
  0
VERTEX
  5
3f0
  8
Layer_0
  10
211.43916
  20
-69.46843
  0
VERTEX
  5
3f1
  8
Layer_0
  10
211.47092
  20
-68.917664
  0
VERTEX
  5
3f2
  8
Layer_0
  10
211.5553
  20
-68.427887
  0
VERTEX
  5
3f3
  8
Layer_0
  10
211.68549
  20
-67.975586
  0
VERTEX
  5
3f4
  8
Layer_0
  10
211.85426
  20
-67.537918
  0
VERTEX
  5
3f5
  8
Layer_0
  10
212.06427
  20
-67.091736
  0
VERTEX
  5
3f6
  8
Layer_0
  10
212.31693
  20
-66.614182
  0
VERTEX
  5
3f7
  8
Layer_0
  10
218.6084
  20
-66.674713
  0
VERTEX
  5
3f8
  8
Layer_0
  10
218.61398
  20
-66.09375
  0
SEQEND
  0
POLYLINE
  5
3fa
  8
Layer_0
  62
0
  70
1
  66
1
  10
0
  20
0
  30
0
  0
VERTEX
  5
3fa
  8
Layer_0
  10
218.5123
  20
-76.664871
  0
VERTEX
  5
3fb
  8
Layer_0
  10
218.50064
  20
-76.357422
  0
VERTEX
  5
3fc
  8
Layer_0
  10
218.45955
  20
-76.072693
  0
VERTEX
  5
3fd
  8
Layer_0
  10
218.38898
  20
-75.810745
  0
VERTEX
  5
3fe
  8
Layer_0
  10
218.28886
  20
-75.571609
  0
VERTEX
  5
3ff
  8
Layer_0
  10
218.15683
  20
-75.358139
  0
VERTEX
  5
400
  8
Layer_0
  10
217.9899
  20
-75.173615
  0
VERTEX
  5
401
  8
Layer_0
  10
217.78815
  20
-75.018021
  0
VERTEX
  5
402
  8
Layer_0
  10
217.55159
  20
-74.891312
  0
VERTEX
  5
403
  8
Layer_0
  10
217.27885
  20
-74.792526
  0
VERTEX
  5
404
  8
Layer_0
  10
216.96858
  20
-74.720917
  0
VERTEX
  5
405
  8
Layer_0
  10
216.62085
  20
-74.676422
  0
VERTEX
  5
406
  8
Layer_0
  10
216.23567
  20
-74.659012
  0
VERTEX
  5
407
  8
Layer_0
  10
211.48851
  20
-74.655884
  0
VERTEX
  5
408
  8
Layer_0
  10
211.50023
  20
-73.437241
  0
VERTEX
  5
409
  8
Layer_0
  10
211.13159
  20
-73.433701
  0
VERTEX
  5
40a
  8
Layer_0
  10
210.99255
  20
-74.636826
  0
VERTEX
  5
40b
  8
Layer_0
  10
208.87994
  20
-74.744141
  0
VERTEX
  5
40c
  8
Layer_0
  10
208.87585
  20
-75.16925
  0
VERTEX
  5
40d
  8
Layer_0
  10
210.98724
  20
-75.18956
  0
VERTEX
  5
40e
  8
Layer_0
  10
210.96434
  20
-77.570175
  0
VERTEX
  5
40f
  8
Layer_0
  10
211.46043
  20
-77.574951
  0
VERTEX
  5
410
  8
Layer_0
  10
211.48334
  20
-75.194336
  0
VERTEX
  5
411
  8
Layer_0
  10
216.21597
  20
-75.239853
  0
VERTEX
  5
412
  8
Layer_0
  10
216.49847
  20
-75.250549
  0
VERTEX
  5
413
  8
Layer_0
  10
216.7507
  20
-75.276901
  0
VERTEX
  5
414
  8
Layer_0
  10
216.9726
  20
-75.318878
  0
VERTEX
  5
415
  8
Layer_0
  10
217.16417
  20
-75.376465
  0
VERTEX
  5
416
  8
Layer_0
  10
217.32964
  20
-75.447174
  0
VERTEX
  5
417
  8
Layer_0
  10
217.47282
  20
-75.52829
  0
VERTEX
  5
418
  8
Layer_0
  10
217.59375
  20
-75.619812
  0
VERTEX
  5
419
  8
Layer_0
  10
217.69244
  20
-75.721771
  0
VERTEX
  5
41a
  8
Layer_0
  10
217.84099
  20
-75.940994
  0
VERTEX
  5
41b
  8
Layer_0
  10
217.93617
  20
-76.170441
  0
VERTEX
  5
41c
  8
Layer_0
  10
217.9906
  20
-76.39592
  0
VERTEX
  5
41d
  8
Layer_0
  10
218.01678
  20
-76.603424
  0
VERTEX
  5
41e
  8
Layer_0
  10
218.09302
  20
-77.525406
  0
VERTEX
  5
41f
  8
Layer_0
  10
218.50398
  20
-77.529358
  0
VERTEX
  5
420
  8
Layer_0
  10
218.5123
  20
-76.664871
  0
SEQEND
  0
POLYLINE
  5
422
  8
Layer_0
  62
0
  70
1
  66
1
  10
0
  20
0
  30
0
  0
VERTEX
  5
422
  8
Layer_0
  10
212.29756
  20
21.06781
  0
VERTEX
  5
423
  8
Layer_0
  10
212.30771
  20
20.706024
  0
VERTEX
  5
424
  8
Layer_0
  10
212.33817
  20
20.380005
  0
VERTEX
  5
425
  8
Layer_0
  10
212.38922
  20
20.09024
  0
VERTEX
  5
426
  8
Layer_0
  10
212.46117
  20
19.837219
  0
VERTEX
  5
427
  8
Layer_0
  10
212.56305
  20
19.608643
  0
VERTEX
  5
428
  8
Layer_0
  10
212.6962
  20
19.413452
  0
VERTEX
  5
429
  8
Layer_0
  10
212.86067
  20
19.251587
  0
VERTEX
  5
42a
  8
Layer_0
  10
213.05655
  20
19.122971
  0
VERTEX
  5
42b
  8
Layer_0
  10
213.28946
  20
19.024658
  0
VERTEX
  5
42c
  8
Layer_0
  10
213.56506
  20
18.953369
  0
VERTEX
  5
42d
  8
Layer_0
  10
213.88345
  20
18.909134
  0
VERTEX
  5
42e
  8
Layer_0
  10
214.24466
  20
18.891937
  0
VERTEX
  5
42f
  8
Layer_0
  10
214.57797
  20
18.911758
  0
VERTEX
  5
430
  8
Layer_0
  10
214.85498
  20
18.978165
  0
VERTEX
  5
431
  8
Layer_0
  10
215.07565
  20
19.091171
  0
VERTEX
  5
432
  8
Layer_0
  10
215.23999
  20
19.250809
  0
VERTEX
  5
433
  8
Layer_0
  10
215.35995
  20
19.457794
  0
VERTEX
  5
434
  8
Layer_0
  10
215.44659
  20
19.712921
  0
VERTEX
  5
435
  8
Layer_0
  10
215.49998
  20
20.01619
  0
VERTEX
  5
436
  8
Layer_0
  10
215.52017
  20
20.367645
  0
VERTEX
  5
437
  8
Layer_0
  10
215.5266
  20
21.036758
  0
VERTEX
  5
438
  8
Layer_0
  10
215.96582
  20
21.032532
  0
VERTEX
  5
439
  8
Layer_0
  10
215.95911
  20
20.335022
  0
VERTEX
  5
43a
  8
Layer_0
  10
215.94562
  20
20.034485
  0
VERTEX
  5
43b
  8
Layer_0
  10
215.91112
  20
19.756271
  0
VERTEX
  5
43c
  8
Layer_0
  10
215.85558
  20
19.500397
  0
VERTEX
  5
43d
  8
Layer_0
  10
215.77896
  20
19.26683
  0
VERTEX
  5
43e
  8
Layer_0
  10
215.67894
  20
19.057404
  0
VERTEX
  5
43f
  8
Layer_0
  10
215.55362
  20
18.873962
  0
VERTEX
  5
440
  8
Layer_0
  10
215.40292
  20
18.716431
  0
VERTEX
  5
441
  8
Layer_0
  10
215.2267
  20
18.584793
  0
VERTEX
  5
442
  8
Layer_0
  10
215.02339
  20
18.481369
  0
VERTEX
  5
443
  8
Layer_0
  10
214.79102
  20
18.408295
  0
VERTEX
  5
444
  8
Layer_0
  10
214.52968
  20
18.365585
  0
VERTEX
  5
445
  8
Layer_0
  10
214.23947
  20
18.353302
  0
VERTEX
  5
446
  8
Layer_0
  10
213.79727
  20
18.376602
  0
VERTEX
  5
447
  8
Layer_0
  10
213.40593
  20
18.437515
  0
VERTEX
  5
448
  8
Layer_0
  10
213.06549
  20
18.536026
  0
VERTEX
  5
449
  8
Layer_0
  10
212.77591
  20
18.672119
  0
VERTEX
  5
44a
  8
Layer_0
  10
212.53125
  20
18.845947
  0
VERTEX
  5
44b
  8
Layer_0
  10
212.32602
  20
19.057404
  0
VERTEX
  5
44c
  8
Layer_0
  10
212.16019
  20
19.306534
  0
VERTEX
  5
44d
  8
Layer_0
  10
212.03366
  20
19.593277
  0
VERTEX
  5
44e
  8
Layer_0
  10
211.944
  20
19.906586
  0
VERTEX
  5
44f
  8
Layer_0
  10
211.8804
  20
20.257858
  0
VERTEX
  5
450
  8
Layer_0
  10
211.84256
  20
20.646591
  0
VERTEX
  5
451
  8
Layer_0
  10
211.83018
  20
21.072311
  0
VERTEX
  5
452
  8
Layer_0
  10
212.29756
  20
21.06781
  0
SEQEND
  0
POLYLINE
  5
454
  8
Layer_0
  62
0
  70
1
  66
1
  10
0
  20
0
  30
0
  0
VERTEX
  5
454
  8
Layer_0
  10
218.76566
  20
22.596695
  0
VERTEX
  5
455
  8
Layer_0
  10
218.5928
  20
22.84996
  0
VERTEX
  5
456
  8
Layer_0
  10
218.37337
  20
23.061157
  0
VERTEX
  5
457
  8
Layer_0
  10
218.10748
  20
23.230255
  0
VERTEX
  5
458
  8
Layer_0
  10
217.79523
  20
23.357269
  0
VERTEX
  5
459
  8
Layer_0
  10
217.43083
  20
23.450638
  0
VERTEX
  5
45a
  8
Layer_0
  10
217.00851
  20
23.51886
  0
VERTEX
  5
45b
  8
Layer_0
  10
216.52832
  20
23.561966
  0
VERTEX
  5
45c
  8
Layer_0
  10
215.99033
  20
23.579956
  0
VERTEX
  5
45d
  8
Layer_0
  10
215.9713
  20
21.601715
  0
VERTEX
  5
45e
  8
Layer_0
  10
215.53207
  20
21.605927
  0
VERTEX
  5
45f
  8
Layer_0
  10
215.5511
  20
23.584183
  0
VERTEX
  5
460
  8
Layer_0
  10
214.94917
  20
23.576691
  0
VERTEX
  5
461
  8
Layer_0
  10
214.4187
  20
23.541946
  0
VERTEX
  5
462
  8
Layer_0
  10
213.95978
  20
23.47995
  0
VERTEX
  5
463
  8
Layer_0
  10
213.57236
  20
23.390656
  0
VERTEX
  5
464
  8
Layer_0
  10
213.24689
  20
23.266754
  0
VERTEX
  5
465
  8
Layer_0
  10
212.97423
  20
23.100677
  0
VERTEX
  5
466
  8
Layer_0
  10
212.75439
  20
22.892426
  0
VERTEX
  5
467
  8
Layer_0
  10
212.58739
  20
22.641968
  0
VERTEX
  5
468
  8
Layer_0
  10
212.49486
  20
22.432022
  0
VERTEX
  5
469
  8
Layer_0
  10
212.42035
  20
22.194183
  0
VERTEX
  5
46a
  8
Layer_0
  10
212.36359
  20
21.928925
  0
VERTEX
  5
46b
  8
Layer_0
  10
212.32423
  20
21.63678
  0
VERTEX
  5
46c
  8
Layer_0
  10
211.85362
  20
21.641312
  0
VERTEX
  5
46d
  8
Layer_0
  10
211.90005
  20
22.012451
  0
VERTEX
  5
46e
  8
Layer_0
  10
211.97079
  20
22.351013
  0
VERTEX
  5
46f
  8
Layer_0
  10
212.06604
  20
22.656708
  0
VERTEX
  5
470
  8
Layer_0
  10
212.18604
  20
22.92923
  0
VERTEX
  5
471
  8
Layer_0
  10
212.38965
  20
23.240448
  0
VERTEX
  5
472
  8
Layer_0
  10
212.65398
  20
23.504089
  0
VERTEX
  5
473
  8
Layer_0
  10
212.97897
  20
23.720184
  0
VERTEX
  5
474
  8
Layer_0
  10
213.36456
  20
23.888763
  0
VERTEX
  5
475
  8
Layer_0
  10
213.82144
  20
24.014496
  0
VERTEX
  5
476
  8
Layer_0
  10
214.36037
  20
24.102295
  0
VERTEX
  5
477
  8
Layer_0
  10
214.98128
  20
24.15213
  0
VERTEX
  5
478
  8
Layer_0
  10
215.68414
  20
24.163956
  0
VERTEX
  5
479
  8
Layer_0
  10
216.37532
  20
24.140503
  0
VERTEX
  5
47a
  8
Layer_0
  10
216.98904
  20
24.084152
  0
VERTEX
  5
47b
  8
Layer_0
  10
217.52531
  20
23.994873
  0
VERTEX
  5
47c
  8
Layer_0
  10
217.98413
  20
23.872589
  0
VERTEX
  5
47d
  8
Layer_0
  10
218.37462
  20
23.709503
  0
VERTEX
  5
47e
  8
Layer_0
  10
218.70526
  20
23.497314
  0
VERTEX
  5
47f
  8
Layer_0
  10
218.97598
  20
23.236069
  0
VERTEX
  5
480
  8
Layer_0
  10
219.18674
  20
22.925781
  0
VERTEX
  5
481
  8
Layer_0
  10
219.3446
  20
22.561096
  0
VERTEX
  5
482
  8
Layer_0
  10
219.45572
  20
22.136642
  0
VERTEX
  5
483
  8
Layer_0
  10
219.52011
  20
21.652374
  0
VERTEX
  5
484
  8
Layer_0
  10
219.53789
  20
21.108307
  0
VERTEX
  5
485
  8
Layer_0
  10
219.5239
  20
20.39473
  0
VERTEX
  5
486
  8
Layer_0
  10
219.49664
  20
19.755417
  0
VERTEX
  5
487
  8
Layer_0
  10
219.45493
  20
19.130493
  0
VERTEX
  5
488
  8
Layer_0
  10
219.39909
  20
18.459564
  0
VERTEX
  5
489
  8
Layer_0
  10
219.03046
  20
18.463104
  0
VERTEX
  5
48a
  8
Layer_0
  10
219.05499
  20
21.013916
  0
VERTEX
  5
48b
  8
Layer_0
  10
219.04068
  20
21.500793
  0
VERTEX
  5
48c
  8
Layer_0
  10
218.98773
  20
21.92691
  0
VERTEX
  5
48d
  8
Layer_0
  10
218.89607
  20
22.292221
  0
VERTEX
  5
48e
  8
Layer_0
  10
218.76566
  20
22.596695
  0
SEQEND
  0
POLYLINE
  5
490
  8
Layer_0
  62
0
  70
1
  66
1
  10
0
  20
0
  30
0
  0
VERTEX
  5
490
  8
Layer_0
  10
212.01112
  20
-8.977356
  0
VERTEX
  5
491
  8
Layer_0
  10
212.0246
  20
-9.3101807
  0
VERTEX
  5
492
  8
Layer_0
  10
212.05576
  20
-9.611908
  0
VERTEX
  5
493
  8
Layer_0
  10
212.10506
  20
-9.8816528
  0
VERTEX
  5
494
  8
Layer_0
  10
212.17302
  20
-10.118546
  0
VERTEX
  5
495
  8
Layer_0
  10
212.2749
  20
-10.347137
  0
VERTEX
  5
496
  8
Layer_0
  10
212.40804
  20
-10.542328
  0
VERTEX
  5
497
  8
Layer_0
  10
212.57251
  20
-10.704193
  0
VERTEX
  5
498
  8
Layer_0
  10
212.7684
  20
-10.832794
  0
VERTEX
  5
499
  8
Layer_0
  10
213.00131
  20
-10.931137
  0
VERTEX
  5
49a
  8
Layer_0
  10
213.27692
  20
-11.002441
  0
VERTEX
  5
49b
  8
Layer_0
  10
213.59531
  20
-11.046677
  0
VERTEX
  5
49c
  8
Layer_0
  10
213.95651
  20
-11.063873
  0
VERTEX
  5
49d
  8
Layer_0
  10
214.28983
  20
-11.044052
  0
VERTEX
  5
49e
  8
Layer_0
  10
214.56683
  20
-10.977631
  0
VERTEX
  5
49f
  8
Layer_0
  10
214.78751
  20
-10.864609
  0
VERTEX
  5
4a0
  8
Layer_0
  10
214.95183
  20
-10.704987
  0
VERTEX
  5
4a1
  8
Layer_0
  10
215.07181
  20
-10.498001
  0
VERTEX
  5
4a2
  8
Layer_0
  10
215.15845
  20
-10.242874
  0
VERTEX
  5
4a3
  8
Layer_0
  10
215.21182
  20
-9.9395905
  0
VERTEX
  5
4a4
  8
Layer_0
  10
215.23201
  20
-9.5881195
  0
VERTEX
  5
4a5
  8
Layer_0
  10
215.23759
  20
-9.0083923
  0
VERTEX
  5
4a6
  8
Layer_0
  10
215.67682
  20
-9.012619
  0
VERTEX
  5
4a7
  8
Layer_0
  10
215.67096
  20
-9.6207733
  0
VERTEX
  5
4a8
  8
Layer_0
  10
215.65747
  20
-9.9213257
  0
VERTEX
  5
4a9
  8
Layer_0
  10
215.62297
  20
-10.199524
  0
VERTEX
  5
4aa
  8
Layer_0
  10
215.56743
  20
-10.455414
  0
VERTEX
  5
4ab
  8
Layer_0
  10
215.49081
  20
-10.688965
  0
VERTEX
  5
4ac
  8
Layer_0
  10
215.39079
  20
-10.898392
  0
VERTEX
  5
4ad
  8
Layer_0
  10
215.26547
  20
-11.081833
  0
VERTEX
  5
4ae
  8
Layer_0
  10
215.11478
  20
-11.239349
  0
VERTEX
  5
4af
  8
Layer_0
  10
214.93855
  20
-11.370972
  0
VERTEX
  5
4b0
  8
Layer_0
  10
214.73524
  20
-11.474396
  0
VERTEX
  5
4b1
  8
Layer_0
  10
214.50287
  20
-11.547501
  0
VERTEX
  5
4b2
  8
Layer_0
  10
214.24153
  20
-11.59021
  0
VERTEX
  5
4b3
  8
Layer_0
  10
213.95132
  20
-11.602509
  0
VERTEX
  5
4b4
  8
Layer_0
  10
213.50912
  20
-11.579193
  0
VERTEX
  5
4b5
  8
Layer_0
  10
213.11778
  20
-11.51828
  0
VERTEX
  5
4b6
  8
Layer_0
  10
212.77734
  20
-11.419769
  0
VERTEX
  5
4b7
  8
Layer_0
  10
212.48776
  20
-11.283691
  0
VERTEX
  5
4b8
  8
Layer_0
  10
212.2431
  20
-11.109863
  0
VERTEX
  5
4b9
  8
Layer_0
  10
212.03787
  20
-10.898376
  0
VERTEX
  5
4ba
  8
Layer_0
  10
211.87204
  20
-10.649246
  0
VERTEX
  5
4bb
  8
Layer_0
  10
211.74551
  20
-10.362518
  0
VERTEX
  5
4bc
  8
Layer_0
  10
211.66008
  20
-10.06601
  0
VERTEX
  5
4bd
  8
Layer_0
  10
211.59837
  20
-9.7349854
  0
VERTEX
  5
4be
  8
Layer_0
  10
211.55984
  20
-9.3703308
  0
VERTEX
  5
4bf
  8
Layer_0
  10
211.54393
  20
-8.9728699
  0
VERTEX
  5
4c0
  8
Layer_0
  10
212.01112
  20
-8.977356
  0
SEQEND
  0
POLYLINE
  5
4c2
  8
Layer_0
  62
0
  70
1
  66
1
  10
0
  20
0
  30
0
  0
VERTEX
  5
4c2
  8
Layer_0
  10
218.47749
  20
-7.3591003
  0
VERTEX
  5
4c3
  8
Layer_0
  10
218.30464
  20
-7.105835
  0
VERTEX
  5
4c4
  8
Layer_0
  10
218.08521
  20
-6.8946228
  0
VERTEX
  5
4c5
  8
Layer_0
  10
217.81932
  20
-6.7255249
  0
VERTEX
  5
4c6
  8
Layer_0
  10
217.50708
  20
-6.5985107
  0
VERTEX
  5
4c7
  8
Layer_0
  10
217.14268
  20
-6.5051575
  0
VERTEX
  5
4c8
  8
Layer_0
  10
216.72035
  20
-6.4369354
  0
VERTEX
  5
4c9
  8
Layer_0
  10
216.24016
  20
-6.3938293
  0
VERTEX
  5
4ca
  8
Layer_0
  10
215.70218
  20
-6.375824
  0
VERTEX
  5
4cb
  8
Layer_0
  10
215.68228
  20
-8.4434357
  0
VERTEX
  5
4cc
  8
Layer_0
  10
215.24307
  20
-8.439209
  0
VERTEX
  5
4cd
  8
Layer_0
  10
215.26295
  20
-6.3716125
  0
VERTEX
  5
4ce
  8
Layer_0
  10
214.66101
  20
-6.3791046
  0
VERTEX
  5
4cf
  8
Layer_0
  10
214.13055
  20
-6.4138336
  0
VERTEX
  5
4d0
  8
Layer_0
  10
213.67163
  20
-6.4758301
  0
VERTEX
  5
4d1
  8
Layer_0
  10
213.28421
  20
-6.5651245
  0
VERTEX
  5
4d2
  8
Layer_0
  10
212.95872
  20
-6.6890259
  0
VERTEX
  5
4d3
  8
Layer_0
  10
212.68607
  20
-6.8551178
  0
VERTEX
  5
4d4
  8
Layer_0
  10
212.46623
  20
-7.0633545
  0
VERTEX
  5
4d5
  8
Layer_0
  10
212.29922
  20
-7.3137817
  0
VERTEX
  5
4d6
  8
Layer_0
  10
212.20062
  20
-7.539917
  0
VERTEX
  5
4d7
  8
Layer_0
  10
212.12268
  20
-7.7979889
  0
VERTEX
  5
4d8
  8
Layer_0
  10
212.06512
  20
-8.0875854
  0
VERTEX
  5
4d9
  8
Layer_0
  10
212.02771
  20
-8.4082947
  0
VERTEX
  5
4da
  8
Layer_0
  10
211.56105
  20
-8.4037933
  0
VERTEX
  5
4db
  8
Layer_0
  10
211.60466
  20
-8.0050964
  0
VERTEX
  5
4dc
  8
Layer_0
  10
211.67488
  20
-7.6420288
  0
VERTEX
  5
4dd
  8
Layer_0
  10
211.7724
  20
-7.3155518
  0
VERTEX
  5
4de
  8
Layer_0
  10
211.89789
  20
-7.0265503
  0
VERTEX
  5
4df
  8
Layer_0
  10
212.10149
  20
-6.715332
  0
VERTEX
  5
4e0
  8
Layer_0
  10
212.36581
  20
-6.4517059
  0
VERTEX
  5
4e1
  8
Layer_0
  10
212.69083
  20
-6.2356262
  0
VERTEX
  5
4e2
  8
Layer_0
  10
213.07642
  20
-6.0670319
  0
VERTEX
  5
4e3
  8
Layer_0
  10
213.53329
  20
-5.9412842
  0
VERTEX
  5
4e4
  8
Layer_0
  10
214.0722
  20
-5.8534851
  0
VERTEX
  5
4e5
  8
Layer_0
  10
214.69313
  20
-5.8036652
  0
VERTEX
  5
4e6
  8
Layer_0
  10
215.396
  20
-5.7918396
  0
VERTEX
  5
4e7
  8
Layer_0
  10
216.08717
  20
-5.8152771
  0
VERTEX
  5
4e8
  8
Layer_0
  10
216.7009
  20
-5.8716431
  0
VERTEX
  5
4e9
  8
Layer_0
  10
217.23717
  20
-5.9609375
  0
VERTEX
  5
4ea
  8
Layer_0
  10
217.69598
  20
-6.0832214
  0
VERTEX
  5
4eb
  8
Layer_0
  10
218.08646
  20
-6.2463074
  0
VERTEX
  5
4ec
  8
Layer_0
  10
218.4171
  20
-6.4584656
  0
VERTEX
  5
4ed
  8
Layer_0
  10
218.68782
  20
-6.7197113
  0
VERTEX
  5
4ee
  8
Layer_0
  10
218.89857
  20
-7.0299988
  0
VERTEX
  5
4ef
  8
Layer_0
  10
219.05646
  20
-7.3946838
  0
VERTEX
  5
4f0
  8
Layer_0
  10
219.16757
  20
-7.8191528
  0
VERTEX
  5
4f1
  8
Layer_0
  10
219.23196
  20
-8.3034058
  0
VERTEX
  5
4f2
  8
Layer_0
  10
219.24973
  20
-8.8474579
  0
VERTEX
  5
4f3
  8
Layer_0
  10
219.23573
  20
-9.5610657
  0
VERTEX
  5
4f4
  8
Layer_0
  10
219.2085
  20
-10.200378
  0
VERTEX
  5
4f5
  8
Layer_0
  10
219.16678
  20
-10.825317
  0
VERTEX
  5
4f6
  8
Layer_0
  10
219.11093
  20
-11.496231
  0
VERTEX
  5
4f7
  8
Layer_0
  10
218.74231
  20
-11.492676
  0
VERTEX
  5
4f8
  8
Layer_0
  10
218.76685
  20
-8.941864
  0
VERTEX
  5
4f9
  8
Layer_0
  10
218.75253
  20
-8.4549866
  0
VERTEX
  5
4fa
  8
Layer_0
  10
218.69957
  20
-8.0288849
  0
VERTEX
  5
4fb
  8
Layer_0
  10
218.60791
  20
-7.6635742
  0
VERTEX
  5
4fc
  8
Layer_0
  10
218.47749
  20
-7.3591003
  0
SEQEND
  0
POLYLINE
  5
4fe
  8
Layer_0
  62
0
  70
1
  66
1
  10
0
  20
0
  30
0
  0
VERTEX
  5
4fe
  8
Layer_0
  10
218.47418
  20
-33.779602
  0
VERTEX
  5
4ff
  8
Layer_0
  10
218.39804
  20
-33.341248
  0
VERTEX
  5
500
  8
Layer_0
  10
218.27393
  20
-32.929688
  0
VERTEX
  5
501
  8
Layer_0
  10
218.03024
  20
-32.317902
  0
VERTEX
  5
502
  8
Layer_0
  10
217.78214
  20
-31.762909
  0
VERTEX
  5
503
  8
Layer_0
  10
212.56755
  20
-31.712738
  0
VERTEX
  5
504
  8
Layer_0
  10
212.25494
  20
-32.352722
  0
VERTEX
  5
505
  8
Layer_0
  10
212.00993
  20
-32.947311
  0
VERTEX
  5
506
  8
Layer_0
  10
211.90231
  20
-33.313766
  0
VERTEX
  5
507
  8
Layer_0
  10
211.83212
  20
-33.715714
  0
VERTEX
  5
508
  8
Layer_0
  10
211.37366
  20
-33.711304
  0
VERTEX
  5
509
  8
Layer_0
  10
211.45377
  20
-33.388046
  0
VERTEX
  5
50a
  8
Layer_0
  10
211.56245
  20
-33.049301
  0
VERTEX
  5
50b
  8
Layer_0
  10
211.84927
  20
-32.346954
  0
VERTEX
  5
50c
  8
Layer_0
  10
212.18481
  20
-31.709061
  0
VERTEX
  5
50d
  8
Layer_0
  10
208.13217
  20
-31.670074
  0
VERTEX
  5
50e
  8
Layer_0
  10
208.13777
  20
-31.089081
  0
VERTEX
  5
50f
  8
Layer_0
  10
218.94971
  20
-31.193085
  0
VERTEX
  5
510
  8
Layer_0
  10
218.94547
  20
-31.632294
  0
VERTEX
  5
511
  8
Layer_0
  10
218.15074
  20
-31.766449
  0
VERTEX
  5
512
  8
Layer_0
  10
218.33698
  20
-32.095932
  0
VERTEX
  5
513
  8
Layer_0
  10
218.53348
  20
-32.485703
  0
VERTEX
  5
514
  8
Layer_0
  10
218.71887
  20
-32.926788
  0
VERTEX
  5
515
  8
Layer_0
  10
218.87154
  20
-33.410202
  0
VERTEX
  5
516
  8
Layer_0
  10
218.91287
  20
-33.595551
  0
VERTEX
  5
517
  8
Layer_0
  10
218.94495
  20
-33.784119
  0
VERTEX
  5
518
  8
Layer_0
  10
218.47418
  20
-33.779602
  0
SEQEND
  0
POLYLINE
  5
51a
  8
Layer_0
  62
0
  70
1
  66
1
  10
0
  20
0
  30
0
  0
VERTEX
  5
51a
  8
Layer_0
  10
212.85867
  20
-36.796097
  0
VERTEX
  5
51b
  8
Layer_0
  10
212.46547
  20
-36.615143
  0
VERTEX
  5
51c
  8
Layer_0
  10
212.13278
  20
-36.399323
  0
VERTEX
  5
51d
  8
Layer_0
  10
211.86066
  20
-36.148682
  0
VERTEX
  5
51e
  8
Layer_0
  10
211.64906
  20
-35.863174
  0
VERTEX
  5
51f
  8
Layer_0
  10
211.49089
  20
-35.543213
  0
VERTEX
  5
520
  8
Layer_0
  10
211.3791
  20
-35.189178
  0
VERTEX
  5
521
  8
Layer_0
  10
211.31371
  20
-34.801102
  0
VERTEX
  5
522
  8
Layer_0
  10
211.29471
  20
-34.379013
  0
VERTEX
  5
523
  8
Layer_0
  10
211.30084
  20
-34.279846
  0
VERTEX
  5
524
  8
Layer_0
  10
211.79175
  20
-34.284561
  0
VERTEX
  5
525
  8
Layer_0
  10
211.80542
  20
-34.61322
  0
VERTEX
  5
526
  8
Layer_0
  10
211.85298
  20
-34.919205
  0
VERTEX
  5
527
  8
Layer_0
  10
211.93436
  20
-35.20253
  0
VERTEX
  5
528
  8
Layer_0
  10
212.04945
  20
-35.463257
  0
VERTEX
  5
529
  8
Layer_0
  10
212.21077
  20
-35.699463
  0
VERTEX
  5
52a
  8
Layer_0
  10
212.42975
  20
-35.909698
  0
VERTEX
  5
52b
  8
Layer_0
  10
212.70648
  20
-36.093964
  0
VERTEX
  5
52c
  8
Layer_0
  10
213.04102
  20
-36.252289
  0
VERTEX
  5
52d
  8
Layer_0
  10
213.44604
  20
-36.380096
  0
VERTEX
  5
52e
  8
Layer_0
  10
213.9337
  20
-36.473328
  0
VERTEX
  5
52f
  8
Layer_0
  10
214.50398
  20
-36.531982
  0
VERTEX
  5
530
  8
Layer_0
  10
215.15691
  20
-36.556
  0
VERTEX
  5
531
  8
Layer_0
  10
215.66843
  20
-36.545853
  0
VERTEX
  5
532
  8
Layer_0
  10
216.14047
  20
-36.505188
  0
VERTEX
  5
533
  8
Layer_0
  10
216.57294
  20
-36.434036
  0
VERTEX
  5
534
  8
Layer_0
  10
216.96574
  20
-36.332413
  0
VERTEX
  5
535
  8
Layer_0
  10
217.31697
  20
-36.199341
  0
VERTEX
  5
536
  8
Layer_0
  10
217.62418
  20
-36.034012
  0
VERTEX
  5
537
  8
Layer_0
  10
217.88737
  20
-35.836395
  0
VERTEX
  5
538
  8
Layer_0
  10
218.10657
  20
-35.60643
  0
VERTEX
  5
539
  8
Layer_0
  10
218.27959
  20
-35.343231
  0
VERTEX
  5
53a
  8
Layer_0
  10
218.40421
  20
-35.045975
  0
VERTEX
  5
53b
  8
Layer_0
  10
218.48047
  20
-34.71463
  0
VERTEX
  5
53c
  8
Layer_0
  10
218.50833
  20
-34.349167
  0
VERTEX
  5
53d
  8
Layer_0
  10
218.99695
  20
-34.353867
  0
VERTEX
  5
53e
  8
Layer_0
  10
219.00052
  20
-34.410431
  0
VERTEX
  5
53f
  8
Layer_0
  10
219.0033
  20
-34.467285
  0
VERTEX
  5
540
  8
Layer_0
  10
218.96823
  20
-34.937622
  0
VERTEX
  5
541
  8
Layer_0
  10
218.87253
  20
-35.356949
  0
VERTEX
  5
542
  8
Layer_0
  10
218.7162
  20
-35.725281
  0
VERTEX
  5
543
  8
Layer_0
  10
218.49927
  20
-36.042603
  0
VERTEX
  5
544
  8
Layer_0
  10
218.22916
  20
-36.314026
  0
VERTEX
  5
545
  8
Layer_0
  10
217.91336
  20
-36.545227
  0
VERTEX
  5
546
  8
Layer_0
  10
217.55188
  20
-36.736176
  0
VERTEX
  5
547
  8
Layer_0
  10
217.14474
  20
-36.886932
  0
VERTEX
  5
548
  8
Layer_0
  10
216.69858
  20
-37.000366
  0
VERTEX
  5
549
  8
Layer_0
  10
216.21994
  20
-37.07991
  0
VERTEX
  5
54a
  8
Layer_0
  10
215.70889
  20
-37.125504
  0
VERTEX
  5
54b
  8
Layer_0
  10
215.16547
  20
-37.137131
  0
VERTEX
  5
54c
  8
Layer_0
  10
214.47403
  20
-37.11055
  0
VERTEX
  5
54d
  8
Layer_0
  10
213.85901
  20
-37.044846
  0
VERTEX
  5
54e
  8
Layer_0
  10
213.32053
  20
-36.940018
  0
VERTEX
  5
54f
  8
Layer_0
  10
212.85867
  20
-36.796097
  0
SEQEND
  0
POLYLINE
  5
551
  8
Layer_0
  62
0
  70
1
  66
1
  10
0
  20
0
  30
0
  0
VERTEX
  5
551
  8
Layer_0
  10
211.69162
  20
-42.192215
  0
VERTEX
  5
552
  8
Layer_0
  10
211.70509
  20
-42.525024
  0
VERTEX
  5
553
  8
Layer_0
  10
211.73624
  20
-42.826767
  0
VERTEX
  5
554
  8
Layer_0
  10
211.78555
  20
-43.096527
  0
VERTEX
  5
555
  8
Layer_0
  10
211.85352
  20
-43.333435
  0
VERTEX
  5
556
  8
Layer_0
  10
211.9554
  20
-43.562012
  0
VERTEX
  5
557
  8
Layer_0
  10
212.08855
  20
-43.757202
  0
VERTEX
  5
558
  8
Layer_0
  10
212.25302
  20
-43.919083
  0
VERTEX
  5
559
  8
Layer_0
  10
212.4489
  20
-44.047684
  0
VERTEX
  5
55a
  8
Layer_0
  10
212.68179
  20
-44.145996
  0
VERTEX
  5
55b
  8
Layer_0
  10
212.95741
  20
-44.217285
  0
VERTEX
  5
55c
  8
Layer_0
  10
213.27579
  20
-44.26152
  0
VERTEX
  5
55d
  8
Layer_0
  10
213.63701
  20
-44.278732
  0
VERTEX
  5
55e
  8
Layer_0
  10
213.97031
  20
-44.258911
  0
VERTEX
  5
55f
  8
Layer_0
  10
214.24733
  20
-44.192474
  0
VERTEX
  5
560
  8
Layer_0
  10
214.46802
  20
-44.079453
  0
VERTEX
  5
561
  8
Layer_0
  10
214.63232
  20
-43.91983
  0
VERTEX
  5
562
  8
Layer_0
  10
214.75229
  20
-43.712845
  0
VERTEX
  5
563
  8
Layer_0
  10
214.83893
  20
-43.457733
  0
VERTEX
  5
564
  8
Layer_0
  10
214.89232
  20
-43.154449
  0
VERTEX
  5
565
  8
Layer_0
  10
214.91251
  20
-42.803009
  0
VERTEX
  5
566
  8
Layer_0
  10
214.91809
  20
-42.223251
  0
VERTEX
  5
567
  8
Layer_0
  10
215.35732
  20
-42.227478
  0
VERTEX
  5
568
  8
Layer_0
  10
215.35146
  20
-42.835632
  0
VERTEX
  5
569
  8
Layer_0
  10
215.33795
  20
-43.1362
  0
VERTEX
  5
56a
  8
Layer_0
  10
215.30347
  20
-43.414398
  0
VERTEX
  5
56b
  8
Layer_0
  10
215.24792
  20
-43.670258
  0
VERTEX
  5
56c
  8
Layer_0
  10
215.17131
  20
-43.903824
  0
VERTEX
  5
56d
  8
Layer_0
  10
215.0713
  20
-44.113235
  0
VERTEX
  5
56e
  8
Layer_0
  10
214.94598
  20
-44.296692
  0
VERTEX
  5
56f
  8
Layer_0
  10
214.79526
  20
-44.454224
  0
VERTEX
  5
570
  8
Layer_0
  10
214.61905
  20
-44.585861
  0
VERTEX
  5
571
  8
Layer_0
  10
214.41576
  20
-44.689285
  0
VERTEX
  5
572
  8
Layer_0
  10
214.18338
  20
-44.76236
  0
VERTEX
  5
573
  8
Layer_0
  10
213.92204
  20
-44.805069
  0
VERTEX
  5
574
  8
Layer_0
  10
213.63182
  20
-44.817352
  0
VERTEX
  5
575
  8
Layer_0
  10
213.18961
  20
-44.794052
  0
VERTEX
  5
576
  8
Layer_0
  10
212.79828
  20
-44.733124
  0
VERTEX
  5
577
  8
Layer_0
  10
212.45782
  20
-44.634613
  0
VERTEX
  5
578
  8
Layer_0
  10
212.16826
  20
-44.498535
  0
VERTEX
  5
579
  8
Layer_0
  10
211.9236
  20
-44.324707
  0
VERTEX
  5
57a
  8
Layer_0
  10
211.71838
  20
-44.113251
  0
VERTEX
  5
57b
  8
Layer_0
  10
211.55255
  20
-43.86412
  0
VERTEX
  5
57c
  8
Layer_0
  10
211.42601
  20
-43.577377
  0
VERTEX
  5
57d
  8
Layer_0
  10
211.34058
  20
-43.280869
  0
VERTEX
  5
57e
  8
Layer_0
  10
211.27887
  20
-42.94986
  0
VERTEX
  5
57f
  8
Layer_0
  10
211.24034
  20
-42.585175
  0
VERTEX
  5
580
  8
Layer_0
  10
211.22443
  20
-42.187714
  0
VERTEX
  5
581
  8
Layer_0
  10
211.69162
  20
-42.192215
  0
SEQEND
  0
POLYLINE
  5
583
  8
Layer_0
  62
0
  70
1
  66
1
  10
0
  20
0
  30
0
  0
VERTEX
  5
583
  8
Layer_0
  10
218.15799
  20
-40.573944
  0
VERTEX
  5
584
  8
Layer_0
  10
217.98514
  20
-40.320694
  0
VERTEX
  5
585
  8
Layer_0
  10
217.76572
  20
-40.109497
  0
VERTEX
  5
586
  8
Layer_0
  10
217.49982
  20
-39.940384
  0
VERTEX
  5
587
  8
Layer_0
  10
217.18758
  20
-39.813385
  0
VERTEX
  5
588
  8
Layer_0
  10
216.82318
  20
-39.720016
  0
VERTEX
  5
589
  8
Layer_0
  10
216.40085
  20
-39.651794
  0
VERTEX
  5
58a
  8
Layer_0
  10
215.92065
  20
-39.608688
  0
VERTEX
  5
58b
  8
Layer_0
  10
215.38268
  20
-39.590683
  0
VERTEX
  5
58c
  8
Layer_0
  10
215.36279
  20
-41.658295
  0
VERTEX
  5
58d
  8
Layer_0
  10
214.92357
  20
-41.654068
  0
VERTEX
  5
58e
  8
Layer_0
  10
214.94345
  20
-39.586456
  0
VERTEX
  5
58f
  8
Layer_0
  10
214.34152
  20
-39.593948
  0
VERTEX
  5
590
  8
Layer_0
  10
213.81107
  20
-39.628693
  0
VERTEX
  5
591
  8
Layer_0
  10
213.35211
  20
-39.690704
  0
VERTEX
  5
592
  8
Layer_0
  10
212.96471
  20
-39.779999
  0
VERTEX
  5
593
  8
Layer_0
  10
212.63922
  20
-39.9039
  0
VERTEX
  5
594
  8
Layer_0
  10
212.36658
  20
-40.069977
  0
VERTEX
  5
595
  8
Layer_0
  10
212.14674
  20
-40.278229
  0
VERTEX
  5
596
  8
Layer_0
  10
211.97974
  20
-40.528656
  0
VERTEX
  5
597
  8
Layer_0
  10
211.88113
  20
-40.754791
  0
VERTEX
  5
598
  8
Layer_0
  10
211.80319
  20
-41.012863
  0
VERTEX
  5
599
  8
Layer_0
  10
211.74564
  20
-41.30246
  0
VERTEX
  5
59a
  8
Layer_0
  10
211.70822
  20
-41.623138
  0
VERTEX
  5
59b
  8
Layer_0
  10
211.24155
  20
-41.618652
  0
VERTEX
  5
59c
  8
Layer_0
  10
211.28516
  20
-41.219955
  0
VERTEX
  5
59d
  8
Layer_0
  10
211.35536
  20
-40.856888
  0
VERTEX
  5
59e
  8
Layer_0
  10
211.45288
  20
-40.530396
  0
VERTEX
  5
59f
  8
Layer_0
  10
211.57838
  20
-40.241409
  0
VERTEX
  5
5a0
  8
Layer_0
  10
211.782
  20
-39.930206
  0
VERTEX
  5
5a1
  8
Layer_0
  10
212.04633
  20
-39.666565
  0
VERTEX
  5
5a2
  8
Layer_0
  10
212.37131
  20
-39.45047
  0
VERTEX
  5
5a3
  8
Layer_0
  10
212.7569
  20
-39.281891
  0
VERTEX
  5
5a4
  8
Layer_0
  10
213.21378
  20
-39.156158
  0
VERTEX
  5
5a5
  8
Layer_0
  10
213.7527
  20
-39.068359
  0
VERTEX
  5
5a6
  8
Layer_0
  10
214.37363
  20
-39.018524
  0
VERTEX
  5
5a7
  8
Layer_0
  10
215.07649
  20
-39.006683
  0
VERTEX
  5
5a8
  8
Layer_0
  10
215.76767
  20
-39.030151
  0
VERTEX
  5
5a9
  8
Layer_0
  10
216.38139
  20
-39.086487
  0
VERTEX
  5
5aa
  8
Layer_0
  10
216.91766
  20
-39.175781
  0
VERTEX
  5
5ab
  8
Layer_0
  10
217.37648
  20
-39.298065
  0
VERTEX
  5
5ac
  8
Layer_0
  10
217.76697
  20
-39.461151
  0
VERTEX
  5
5ad
  8
Layer_0
  10
218.0976
  20
-39.67334
  0
VERTEX
  5
5ae
  8
Layer_0
  10
218.36833
  20
-39.93457
  0
VERTEX
  5
5af
  8
Layer_0
  10
218.57907
  20
-40.244858
  0
VERTEX
  5
5b0
  8
Layer_0
  10
218.73695
  20
-40.609558
  0
VERTEX
  5
5b1
  8
Layer_0
  10
218.84805
  20
-41.034012
  0
VERTEX
  5
5b2
  8
Layer_0
  10
218.91246
  20
-41.51828
  0
VERTEX
  5
5b3
  8
Layer_0
  10
218.93024
  20
-42.062347
  0
VERTEX
  5
5b4
  8
Layer_0
  10
218.91623
  20
-42.775909
  0
VERTEX
  5
5b5
  8
Layer_0
  10
218.88899
  20
-43.415222
  0
VERTEX
  5
5b6
  8
Layer_0
  10
218.84729
  20
-44.040161
  0
VERTEX
  5
5b7
  8
Layer_0
  10
218.79144
  20
-44.711075
  0
VERTEX
  5
5b8
  8
Layer_0
  10
218.42281
  20
-44.707535
  0
VERTEX
  5
5b9
  8
Layer_0
  10
218.44734
  20
-42.156723
  0
VERTEX
  5
5ba
  8
Layer_0
  10
218.43301
  20
-41.669861
  0
VERTEX
  5
5bb
  8
Layer_0
  10
218.38007
  20
-41.243744
  0
VERTEX
  5
5bc
  8
Layer_0
  10
218.28842
  20
-40.878418
  0
VERTEX
  5
5bd
  8
Layer_0
  10
218.15799
  20
-40.573944
  0
SEQEND
  0
POLYLINE
  5
5bf
  8
Layer_0
  62
0
  70
1
  66
1
  10
0
  20
0
  30
0
  0
VERTEX
  5
5bf
  8
Layer_0
  10
221.65825
  20
-60.46759
  0
VERTEX
  5
5c0
  8
Layer_0
  10
221.6637
  20
-59.901978
  0
VERTEX
  5
5c1
  8
Layer_0
  10
221.64709
  20
-59.463745
  0
VERTEX
  5
5c2
  8
Layer_0
  10
221.58849
  20
-59.070343
  0
VERTEX
  5
5c3
  8
Layer_0
  10
221.48784
  20
-58.721771
  0
VERTEX
  5
5c4
  8
Layer_0
  10
221.34515
  20
-58.417969
  0
VERTEX
  5
5c5
  8
Layer_0
  10
221.14948
  20
-58.171036
  0
VERTEX
  5
5c6
  8
Layer_0
  10
220.89029
  20
-57.993607
  0
VERTEX
  5
5c7
  8
Layer_0
  10
220.56758
  20
-57.88559
  0
VERTEX
  5
5c8
  8
Layer_0
  10
220.18132
  20
-57.846909
  0
VERTEX
  5
5c9
  8
Layer_0
  10
219.78445
  20
-57.843094
  0
VERTEX
  5
5ca
  8
Layer_0
  10
219.51416
  20
-57.858658
  0
VERTEX
  5
5cb
  8
Layer_0
  10
219.27014
  20
-57.910767
  0
VERTEX
  5
5cc
  8
Layer_0
  10
219.05237
  20
-57.999481
  0
VERTEX
  5
5cd
  8
Layer_0
  10
218.86086
  20
-58.124817
  0
VERTEX
  5
5ce
  8
Layer_0
  10
218.69458
  20
-58.277664
  0
VERTEX
  5
5cf
  8
Layer_0
  10
218.55298
  20
-58.449432
  0
VERTEX
  5
5d0
  8
Layer_0
  10
218.436
  20
-58.640076
  0
VERTEX
  5
5d1
  8
Layer_0
  10
218.34363
  20
-58.849548
  0
VERTEX
  5
5d2
  8
Layer_0
  10
218.27319
  20
-59.072083
  0
VERTEX
  5
5d3
  8
Layer_0
  10
218.22223
  20
-59.30188
  0
VERTEX
  5
5d4
  8
Layer_0
  10
218.19067
  20
-59.538986
  0
VERTEX
  5
5d5
  8
Layer_0
  10
218.17857
  20
-59.783371
  0
VERTEX
  5
5d6
  8
Layer_0
  10
218.17232
  20
-60.434067
  0
VERTEX
  5
5d7
  8
Layer_0
  10
217.6907
  20
-60.429428
  0
VERTEX
  5
5d8
  8
Layer_0
  10
217.70186
  20
-59.268539
  0
VERTEX
  5
5d9
  8
Layer_0
  10
217.69223
  20
-59.120575
  0
VERTEX
  5
5da
  8
Layer_0
  10
217.66049
  20
-58.974121
  0
VERTEX
  5
5db
  8
Layer_0
  10
217.60655
  20
-58.829193
  0
VERTEX
  5
5dc
  8
Layer_0
  10
217.5304
  20
-58.685837
  0
VERTEX
  5
5dd
  8
Layer_0
  10
217.42926
  20
-58.560852
  0
VERTEX
  5
5de
  8
Layer_0
  10
217.30038
  20
-58.471069
  0
VERTEX
  5
5df
  8
Layer_0
  10
217.14368
  20
-58.416458
  0
VERTEX
  5
5e0
  8
Layer_0
  10
216.95918
  20
-58.396973
  0
VERTEX
  5
5e1
  8
Layer_0
  10
216.71054
  20
-58.41983
  0
VERTEX
  5
5e2
  8
Layer_0
  10
216.50299
  20
-58.493591
  0
VERTEX
  5
5e3
  8
Layer_0
  10
216.33653
  20
-58.618225
  0
VERTEX
  5
5e4
  8
Layer_0
  10
216.21121
  20
-58.793732
  0
VERTEX
  5
5e5
  8
Layer_0
  10
216.11929
  20
-59.014709
  0
VERTEX
  5
5e6
  8
Layer_0
  10
216.05261
  20
-59.275787
  0
VERTEX
  5
5e7
  8
Layer_0
  10
216.01117
  20
-59.576965
  0
VERTEX
  5
5e8
  8
Layer_0
  10
215.99504
  20
-59.918259
  0
VERTEX
  5
5e9
  8
Layer_0
  10
215.99028
  20
-60.413071
  0
VERTEX
  5
5ea
  8
Layer_0
  10
215.50833
  20
-60.408432
  0
VERTEX
  5
5eb
  8
Layer_0
  10
215.51118
  20
-60.112045
  0
VERTEX
  5
5ec
  8
Layer_0
  10
215.48587
  20
-59.708298
  0
VERTEX
  5
5ed
  8
Layer_0
  10
215.4017
  20
-59.347366
  0
VERTEX
  5
5ee
  8
Layer_0
  10
215.25867
  20
-59.029312
  0
VERTEX
  5
5ef
  8
Layer_0
  10
215.05673
  20
-58.754181
  0
VERTEX
  5
5f0
  8
Layer_0
  10
214.78961
  20
-58.531525
  0
VERTEX
  5
5f1
  8
Layer_0
  10
214.45108
  20
-58.371078
  0
VERTEX
  5
5f2
  8
Layer_0
  10
214.04108
  20
-58.272842
  0
VERTEX
  5
5f3
  8
Layer_0
  10
213.55957
  20
-58.236771
  0
VERTEX
  5
5f4
  8
Layer_0
  10
213.30035
  20
-58.243011
  0
VERTEX
  5
5f5
  8
Layer_0
  10
213.0611
  20
-58.266937
  0
VERTEX
  5
5f6
  8
Layer_0
  10
212.84183
  20
-58.308533
  0
VERTEX
  5
5f7
  8
Layer_0
  10
212.64253
  20
-58.367813
  0
VERTEX
  5
5f8
  8
Layer_0
  10
212.4632
  20
-58.444794
  0
VERTEX
  5
5f9
  8
Layer_0
  10
212.30383
  20
-58.539459
  0
VERTEX
  5
5fa
  8
Layer_0
  10
212.16443
  20
-58.651825
  0
VERTEX
  5
5fb
  8
Layer_0
  10
212.04498
  20
-58.781906
  0
VERTEX
  5
5fc
  8
Layer_0
  10
211.853
  20
-59.085159
  0
VERTEX
  5
5fd
  8
Layer_0
  10
211.71445
  20
-59.439438
  0
VERTEX
  5
5fe
  8
Layer_0
  10
211.62943
  20
-59.844742
  0
VERTEX
  5
5ff
  8
Layer_0
  10
211.59798
  20
-60.301071
  0
VERTEX
  5
600
  8
Layer_0
  10
211.59731
  20
-60.370819
  0
VERTEX
  5
601
  8
Layer_0
  10
211.10425
  20
-60.366074
  0
VERTEX
  5
602
  8
Layer_0
  10
211.12532
  20
-60.0065
  0
VERTEX
  5
603
  8
Layer_0
  10
211.17154
  20
-59.663818
  0
VERTEX
  5
604
  8
Layer_0
  10
211.24332
  20
-59.338303
  0
VERTEX
  5
605
  8
Layer_0
  10
211.34113
  20
-59.030243
  0
VERTEX
  5
606
  8
Layer_0
  10
211.47643
  20
-58.732574
  0
VERTEX
  5
607
  8
Layer_0
  10
211.64941
  20
-58.468079
  0
VERTEX
  5
608
  8
Layer_0
  10
211.86014
  20
-58.236725
  0
VERTEX
  5
609
  8
Layer_0
  10
212.10864
  20
-58.038513
  0
VERTEX
  5
60a
  8
Layer_0
  10
212.39859
  20
-57.880005
  0
VERTEX
  5
60b
  8
Layer_0
  10
212.73317
  20
-57.768097
  0
VERTEX
  5
60c
  8
Layer_0
  10
213.11243
  20
-57.702698
  0
VERTEX
  5
60d
  8
Layer_0
  10
213.53632
  20
-57.683762
  0
VERTEX
  5
60e
  8
Layer_0
  10
213.95251
  20
-57.71788
  0
VERTEX
  5
60f
  8
Layer_0
  10
214.37848
  20
-57.812302
  0
VERTEX
  5
610
  8
Layer_0
  10
214.58998
  20
-57.88652
  0
VERTEX
  5
611
  8
Layer_0
  10
214.79317
  20
-57.984604
  0
VERTEX
  5
612
  8
Layer_0
  10
214.98813
  20
-58.106537
  0
VERTEX
  5
613
  8
Layer_0
  10
215.17491
  20
-58.252319
  0
VERTEX
  5
614
  8
Layer_0
  10
215.34682
  20
-58.426544
  0
VERTEX
  5
615
  8
Layer_0
  10
215.49712
  20
-58.634308
  0
VERTEX
  5
616
  8
Layer_0
  10
215.62584
  20
-58.875595
  0
VERTEX
  5
617
  8
Layer_0
  10
215.73303
  20
-59.15036
  0
VERTEX
  5
618
  8
Layer_0
  10
215.80414
  20
-58.856934
  0
VERTEX
  5
619
  8
Layer_0
  10
215.89783
  20
-58.599243
  0
VERTEX
  5
61a
  8
Layer_0
  10
216.01419
  20
-58.377213
  0
VERTEX
  5
61b
  8
Layer_0
  10
216.15326
  20
-58.190765
  0
VERTEX
  5
61c
  8
Layer_0
  10
216.31947
  20
-58.043579
  0
VERTEX
  5
61d
  8
Layer_0
  10
216.51715
  20
-57.939209
  0
VERTEX
  5
61e
  8
Layer_0
  10
216.74626
  20
-57.87767
  0
VERTEX
  5
61f
  8
Layer_0
  10
217.00676
  20
-57.858917
  0
VERTEX
  5
620
  8
Layer_0
  10
217.26831
  20
-57.887543
  0
VERTEX
  5
621
  8
Layer_0
  10
217.50006
  20
-57.968109
  0
VERTEX
  5
622
  8
Layer_0
  10
217.70206
  20
-58.100708
  0
VERTEX
  5
623
  8
Layer_0
  10
217.87431
  20
-58.285355
  0
VERTEX
  5
624
  8
Layer_0
  10
217.97235
  20
-58.441757
  0
VERTEX
  5
625
  8
Layer_0
  10
218.05066
  20
-58.612335
  0
VERTEX
  5
626
  8
Layer_0
  10
218.06271
  20
-58.577591
  0
VERTEX
  5
627
  8
Layer_0
  10
218.1857
  20
-58.313934
  0
VERTEX
  5
628
  8
Layer_0
  10
218.33688
  20
-58.073578
  0
VERTEX
  5
629
  8
Layer_0
  10
218.51614
  20
-57.856552
  0
VERTEX
  5
62a
  8
Layer_0
  10
218.72333
  20
-57.662872
  0
VERTEX
  5
62b
  8
Layer_0
  10
218.95959
  20
-57.50386
  0
VERTEX
  5
62c
  8
Layer_0
  10
219.22559
  20
-57.391266
  0
VERTEX
  5
62d
  8
Layer_0
  10
219.52124
  20
-57.325073
  0
VERTEX
  5
62e
  8
Layer_0
  10
219.84647
  20
-57.305191
  0
VERTEX
  5
62f
  8
Layer_0
  10
220.24332
  20
-57.309006
  0
VERTEX
  5
630
  8
Layer_0
  10
220.55479
  20
-57.331924
  0
VERTEX
  5
631
  8
Layer_0
  10
220.8376
  20
-57.39444
  0
VERTEX
  5
632
  8
Layer_0
  10
221.09172
  20
-57.496521
  0
VERTEX
  5
633
  8
Layer_0
  10
221.31717
  20
-57.638199
  0
VERTEX
  5
634
  8
Layer_0
  10
221.51418
  20
-57.814575
  0
VERTEX
  5
635
  8
Layer_0
  10
221.6835
  20
-58.020737
  0
VERTEX
  5
636
  8
Layer_0
  10
221.82516
  20
-58.25679
  0
VERTEX
  5
637
  8
Layer_0
  10
221.93915
  20
-58.522736
  0
VERTEX
  5
638
  8
Layer_0
  10
222.02618
  20
-58.814514
  0
VERTEX
  5
639
  8
Layer_0
  10
222.08745
  20
-59.12825
  0
VERTEX
  5
63a
  8
Layer_0
  10
222.12286
  20
-59.463882
  0
VERTEX
  5
63b
  8
Layer_0
  10
222.13232
  20
-59.821396
  0
VERTEX
  5
63c
  8
Layer_0
  10
222.12607
  20
-60.472092
  0
VERTEX
  5
63d
  8
Layer_0
  10
221.65825
  20
-60.46759
  0
SEQEND
  0
POLYLINE
  5
63f
  8
Layer_0
  62
0
  70
1
  66
1
  10
0
  20
0
  30
0
  0
VERTEX
  5
63f
  8
Layer_0
  10
211.09608
  20
-60.935242
  0
VERTEX
  5
640
  8
Layer_0
  10
211.59183
  20
-60.940002
  0
VERTEX
  5
641
  8
Layer_0
  10
211.59021
  20
-61.108765
  0
VERTEX
  5
642
  8
Layer_0
  10
211.59946
  20
-61.390442
  0
VERTEX
  5
643
  8
Layer_0
  10
211.63281
  20
-61.654709
  0
VERTEX
  5
644
  8
Layer_0
  10
211.69029
  20
-61.90152
  0
VERTEX
  5
645
  8
Layer_0
  10
211.77194
  20
-62.130814
  0
VERTEX
  5
646
  8
Layer_0
  10
211.88239
  20
-62.340424
  0
VERTEX
  5
647
  8
Layer_0
  10
212.02673
  20
-62.528259
  0
VERTEX
  5
648
  8
Layer_0
  10
212.20493
  20
-62.694305
  0
VERTEX
  5
649
  8
Layer_0
  10
212.41696
  20
-62.838638
  0
VERTEX
  5
64a
  8
Layer_0
  10
212.66515
  20
-62.955688
  0
VERTEX
  5
64b
  8
Layer_0
  10
212.95172
  20
-63.04039
  0
VERTEX
  5
64c
  8
Layer_0
  10
213.27673
  20
-63.092697
  0
VERTEX
  5
64d
  8
Layer_0
  10
213.64014
  20
-63.112595
  0
VERTEX
  5
64e
  8
Layer_0
  10
213.87096
  20
-63.104187
  0
VERTEX
  5
64f
  8
Layer_0
  10
214.09579
  20
-63.074463
  0
VERTEX
  5
650
  8
Layer_0
  10
214.31464
  20
-63.023392
  0
VERTEX
  5
651
  8
Layer_0
  10
214.5275
  20
-62.950943
  0
VERTEX
  5
652
  8
Layer_0
  10
214.7282
  20
-62.849686
  0
VERTEX
  5
653
  8
Layer_0
  10
214.91064
  20
-62.711929
  0
VERTEX
  5
654
  8
Layer_0
  10
215.07483
  20
-62.53772
  0
VERTEX
  5
655
  8
Layer_0
  10
215.22079
  20
-62.327133
  0
VERTEX
  5
656
  8
Layer_0
  10
215.34103
  20
-62.071808
  0
VERTEX
  5
657
  8
Layer_0
  10
215.42807
  20
-61.763916
  0
VERTEX
  5
658
  8
Layer_0
  10
215.48195
  20
-61.403473
  0
VERTEX
  5
659
  8
Layer_0
  10
215.50273
  20
-60.990509
  0
VERTEX
  5
65a
  8
Layer_0
  10
215.50287
  20
-60.977631
  0
VERTEX
  5
65b
  8
Layer_0
  10
215.9848
  20
-60.982269
  0
VERTEX
  5
65c
  8
Layer_0
  10
215.98413
  20
-61.051788
  0
VERTEX
  5
65d
  8
Layer_0
  10
215.95779
  20
-61.533844
  0
VERTEX
  5
65e
  8
Layer_0
  10
215.88858
  20
-61.959656
  0
VERTEX
  5
65f
  8
Layer_0
  10
215.77652
  20
-62.329254
  0
VERTEX
  5
660
  8
Layer_0
  10
215.62158
  20
-62.642624
  0
VERTEX
  5
661
  8
Layer_0
  10
215.43434
  20
-62.906586
  0
VERTEX
  5
662
  8
Layer_0
  10
215.2254
  20
-63.127808
  0
VERTEX
  5
663
  8
Layer_0
  10
214.99471
  20
-63.306305
  0
VERTEX
  5
664
  8
Layer_0
  10
214.74225
  20
-63.442062
  0
VERTEX
  5
665
  8
Layer_0
  10
214.47745
  20
-63.541794
  0
VERTEX
  5
666
  8
Layer_0
  10
214.20932
  20
-63.612274
  0
VERTEX
  5
667
  8
Layer_0
  10
213.93787
  20
-63.653473
  0
VERTEX
  5
668
  8
Layer_0
  10
213.66309
  20
-63.665436
  0
VERTEX
  5
669
  8
Layer_0
  10
213.30814
  20
-63.64917
  0
VERTEX
  5
66a
  8
Layer_0
  10
212.99414
  20
-63.607605
  0
VERTEX
  5
66b
  8
Layer_0
  10
212.72107
  20
-63.540756
  0
VERTEX
  5
66c
  8
Layer_0
  10
212.48895
  20
-63.448624
  0
VERTEX
  5
66d
  8
Layer_0
  10
212.29111
  20
-63.339035
  0
VERTEX
  5
66e
  8
Layer_0
  10
212.12088
  20
-63.220032
  0
VERTEX
  5
66f
  8
Layer_0
  10
211.97827
  20
-63.091583
  0
VERTEX
  5
670
  8
Layer_0
  10
211.86324
  20
-62.95372
  0
VERTEX
  5
671
  8
Layer_0
  10
211.6833
  20
-62.686188
  0
VERTEX
  5
672
  8
Layer_0
  10
211.549
  20
-62.454773
  0
VERTEX
  5
673
  8
Layer_0
  10
211.41629
  20
-64.465866
  0
VERTEX
  5
674
  8
Layer_0
  10
211.06216
  20
-64.462463
  0
VERTEX
  5
675
  8
Layer_0
  10
211.09608
  20
-60.935242
  0
SEQEND
  0
POLYLINE
  5
677
  8
Layer_0
  62
0
  70
1
  66
1
  10
0
  20
0
  30
0
  0
VERTEX
  5
677
  8
Layer_0
  10
217.8884
  20
-63.443878
  0
VERTEX
  5
678
  8
Layer_0
  10
217.79221
  20
-63.143982
  0
VERTEX
  5
679
  8
Layer_0
  10
217.72461
  20
-62.806274
  0
VERTEX
  5
67a
  8
Layer_0
  10
217.68564
  20
-62.430801
  0
VERTEX
  5
67b
  8
Layer_0
  10
217.67542
  20
-62.017563
  0
VERTEX
  5
67c
  8
Layer_0
  10
217.68523
  20
-60.998611
  0
VERTEX
  5
67d
  8
Layer_0
  10
218.16684
  20
-61.00325
  0
VERTEX
  5
67e
  8
Layer_0
  10
218.15759
  20
-61.965546
  0
VERTEX
  5
67f
  8
Layer_0
  10
218.16588
  20
-62.346024
  0
VERTEX
  5
680
  8
Layer_0
  10
218.19855
  20
-62.679794
  0
VERTEX
  5
681
  8
Layer_0
  10
218.25563
  20
-62.966888
  0
VERTEX
  5
682
  8
Layer_0
  10
218.33717
  20
-63.207382
  0
VERTEX
  5
683
  8
Layer_0
  10
218.44016
  20
-63.408463
  0
VERTEX
  5
684
  8
Layer_0
  10
218.56204
  20
-63.577881
  0
VERTEX
  5
685
  8
Layer_0
  10
218.70282
  20
-63.715637
  0
VERTEX
  5
686
  8
Layer_0
  10
218.86253
  20
-63.821747
  0
VERTEX
  5
687
  8
Layer_0
  10
219.03979
  20
-63.900909
  0
VERTEX
  5
688
  8
Layer_0
  10
219.23328
  20
-63.958099
  0
VERTEX
  5
689
  8
Layer_0
  10
219.4429
  20
-63.993317
  0
VERTEX
  5
68a
  8
Layer_0
  10
219.66866
  20
-64.006561
  0
VERTEX
  5
68b
  8
Layer_0
  10
219.99457
  20
-64.009689
  0
VERTEX
  5
68c
  8
Layer_0
  10
220.38547
  20
-63.9767
  0
VERTEX
  5
68d
  8
Layer_0
  10
220.72209
  20
-63.869675
  0
VERTEX
  5
68e
  8
Layer_0
  10
221.00452
  20
-63.688614
  0
VERTEX
  5
68f
  8
Layer_0
  10
221.23282
  20
-63.433502
  0
VERTEX
  5
690
  8
Layer_0
  10
221.40955
  20
-63.11322
  0
VERTEX
  5
691
  8
Layer_0
  10
221.5372
  20
-62.736664
  0
VERTEX
  5
692
  8
Layer_0
  10
221.61578
  20
-62.303879
  0
VERTEX
  5
693
  8
Layer_0
  10
221.64529
  20
-61.814941
  0
VERTEX
  5
694
  8
Layer_0
  10
221.65277
  20
-61.036789
  0
VERTEX
  5
695
  8
Layer_0
  10
222.12061
  20
-61.04129
  0
VERTEX
  5
696
  8
Layer_0
  10
222.11284
  20
-61.847687
  0
VERTEX
  5
697
  8
Layer_0
  10
222.101
  20
-62.170624
  0
VERTEX
  5
698
  8
Layer_0
  10
222.07182
  20
-62.47348
  0
VERTEX
  5
699
  8
Layer_0
  10
222.02534
  20
-62.756226
  0
VERTEX
  5
69a
  8
Layer_0
  10
221.96156
  20
-63.018921
  0
VERTEX
  5
69b
  8
Layer_0
  10
221.88048
  20
-63.261475
  0
VERTEX
  5
69c
  8
Layer_0
  10
221.78212
  20
-63.483963
  0
VERTEX
  5
69d
  8
Layer_0
  10
221.66647
  20
-63.68634
  0
VERTEX
  5
69e
  8
Layer_0
  10
221.53354
  20
-63.868607
  0
VERTEX
  5
69f
  8
Layer_0
  10
221.38521
  20
-64.029907
  0
VERTEX
  5
6a0
  8
Layer_0
  10
221.2236
  20
-64.169418
  0
VERTEX
  5
6a1
  8
Layer_0
  10
221.04874
  20
-64.287125
  0
VERTEX
  5
6a2
  8
Layer_0
  10
220.8606
  20
-64.382996
  0
VERTEX
  5
6a3
  8
Layer_0
  10
220.65918
  20
-64.457062
  0
VERTEX
  5
6a4
  8
Layer_0
  10
220.44449
  20
-64.509277
  0
VERTEX
  5
6a5
  8
Layer_0
  10
220.21652
  20
-64.539673
  0
VERTEX
  5
6a6
  8
Layer_0
  10
219.97525
  20
-64.548203
  0
VERTEX
  5
6a7
  8
Layer_0
  10
219.60666
  20
-64.544647
  0
VERTEX
  5
6a8
  8
Layer_0
  10
219.30084
  20
-64.525299
  0
VERTEX
  5
6a9
  8
Layer_0
  10
219.02104
  20
-64.473419
  0
VERTEX
  5
6aa
  8
Layer_0
  10
218.76727
  20
-64.389038
  0
VERTEX
  5
6ab
  8
Layer_0
  10
218.53952
  20
-64.272186
  0
VERTEX
  5
6ac
  8
Layer_0
  10
218.33762
  20
-64.120453
  0
VERTEX
  5
6ad
  8
Layer_0
  10
218.16183
  20
-63.931824
  0
VERTEX
  5
6ae
  8
Layer_0
  10
218.01212
  20
-63.706329
  0
VERTEX
  5
6af
  8
Layer_0
  10
217.8884
  20
-63.443878
  0
SEQEND
  0
POLYLINE
  5
6b1
  8
Layer_0
  62
0
  70
1
  66
1
  10
0
  20
0
  30
0
  0
VERTEX
  5
6b1
  8
Layer_0
  10
211.88124
  20
-22.417953
  0
VERTEX
  5
6b2
  8
Layer_0
  10
211.89398
  20
-22.757568
  0
VERTEX
  5
6b3
  8
Layer_0
  10
211.92496
  20
-23.065063
  0
VERTEX
  5
6b4
  8
Layer_0
  10
211.97467
  20
-23.3396
  0
VERTEX
  5
6b5
  8
Layer_0
  10
212.04353
  20
-23.580353
  0
VERTEX
  5
6b6
  8
Layer_0
  10
212.14542
  20
-23.808914
  0
VERTEX
  5
6b7
  8
Layer_0
  10
212.27855
  20
-24.004089
  0
VERTEX
  5
6b8
  8
Layer_0
  10
212.44302
  20
-24.16597
  0
VERTEX
  5
6b9
  8
Layer_0
  10
212.6389
  20
-24.294586
  0
VERTEX
  5
6ba
  8
Layer_0
  10
212.87183
  20
-24.392914
  0
VERTEX
  5
6bb
  8
Layer_0
  10
213.14743
  20
-24.464203
  0
VERTEX
  5
6bc
  8
Layer_0
  10
213.46582
  20
-24.508438
  0
VERTEX
  5
6bd
  8
Layer_0
  10
213.82701
  20
-24.525635
  0
VERTEX
  5
6be
  8
Layer_0
  10
214.16034
  20
-24.505814
  0
VERTEX
  5
6bf
  8
Layer_0
  10
214.43735
  20
-24.439392
  0
VERTEX
  5
6c0
  8
Layer_0
  10
214.65802
  20
-24.32637
  0
VERTEX
  5
6c1
  8
Layer_0
  10
214.82234
  20
-24.166748
  0
VERTEX
  5
6c2
  8
Layer_0
  10
214.94232
  20
-23.959763
  0
VERTEX
  5
6c3
  8
Layer_0
  10
215.02896
  20
-23.704651
  0
VERTEX
  5
6c4
  8
Layer_0
  10
215.08234
  20
-23.401367
  0
VERTEX
  5
6c5
  8
Layer_0
  10
215.10252
  20
-23.049927
  0
VERTEX
  5
6c6
  8
Layer_0
  10
215.10831
  20
-22.44899
  0
VERTEX
  5
6c7
  8
Layer_0
  10
215.54752
  20
-22.453217
  0
VERTEX
  5
6c8
  8
Layer_0
  10
215.54147
  20
-23.08255
  0
VERTEX
  5
6c9
  8
Layer_0
  10
215.52798
  20
-23.383087
  0
VERTEX
  5
6ca
  8
Layer_0
  10
215.49348
  20
-23.661301
  0
VERTEX
  5
6cb
  8
Layer_0
  10
215.43794
  20
-23.917175
  0
VERTEX
  5
6cc
  8
Layer_0
  10
215.36133
  20
-24.150726
  0
VERTEX
  5
6cd
  8
Layer_0
  10
215.26131
  20
-24.360153
  0
VERTEX
  5
6ce
  8
Layer_0
  10
215.13599
  20
-24.54361
  0
VERTEX
  5
6cf
  8
Layer_0
  10
214.98526
  20
-24.701126
  0
VERTEX
  5
6d0
  8
Layer_0
  10
214.80905
  20
-24.832764
  0
VERTEX
  5
6d1
  8
Layer_0
  10
214.60576
  20
-24.936188
  0
VERTEX
  5
6d2
  8
Layer_0
  10
214.37338
  20
-25.009277
  0
VERTEX
  5
6d3
  8
Layer_0
  10
214.11205
  20
-25.051987
  0
VERTEX
  5
6d4
  8
Layer_0
  10
213.82184
  20
-25.06427
  0
VERTEX
  5
6d5
  8
Layer_0
  10
213.37964
  20
-25.04097
  0
VERTEX
  5
6d6
  8
Layer_0
  10
212.9883
  20
-24.980042
  0
VERTEX
  5
6d7
  8
Layer_0
  10
212.64786
  20
-24.881531
  0
VERTEX
  5
6d8
  8
Layer_0
  10
212.35826
  20
-24.745453
  0
VERTEX
  5
6d9
  8
Layer_0
  10
212.1136
  20
-24.571625
  0
VERTEX
  5
6da
  8
Layer_0
  10
211.90839
  20
-24.360138
  0
VERTEX
  5
6db
  8
Layer_0
  10
211.74255
  20
-24.111023
  0
VERTEX
  5
6dc
  8
Layer_0
  10
211.61603
  20
-23.82428
  0
VERTEX
  5
6dd
  8
Layer_0
  10
211.52963
  20
-23.523773
  0
VERTEX
  5
6de
  8
Layer_0
  10
211.4675
  20
-23.187943
  0
VERTEX
  5
6df
  8
Layer_0
  10
211.42912
  20
-22.817566
  0
VERTEX
  5
6e0
  8
Layer_0
  10
211.41397
  20
-22.413452
  0
VERTEX
  5
6e1
  8
Layer_0
  10
211.88124
  20
-22.417953
  0
SEQEND
  0
POLYLINE
  5
6e3
  8
Layer_0
  62
0
  70
1
  66
1
  10
0
  20
0
  30
0
  0
VERTEX
  5
6e3
  8
Layer_0
  10
218.34801
  20
-20.820862
  0
VERTEX
  5
6e4
  8
Layer_0
  10
218.17516
  20
-20.567596
  0
VERTEX
  5
6e5
  8
Layer_0
  10
217.95572
  20
-20.3564
  0
VERTEX
  5
6e6
  8
Layer_0
  10
217.68983
  20
-20.187286
  0
VERTEX
  5
6e7
  8
Layer_0
  10
217.37759
  20
-20.060287
  0
VERTEX
  5
6e8
  8
Layer_0
  10
217.01318
  20
-19.966919
  0
VERTEX
  5
6e9
  8
Layer_0
  10
216.59085
  20
-19.898697
  0
VERTEX
  5
6ea
  8
Layer_0
  10
216.11066
  20
-19.855591
  0
VERTEX
  5
6eb
  8
Layer_0
  10
215.57268
  20
-19.837585
  0
VERTEX
  5
6ec
  8
Layer_0
  10
215.55299
  20
-21.884003
  0
VERTEX
  5
6ed
  8
Layer_0
  10
215.11377
  20
-21.879791
  0
VERTEX
  5
6ee
  8
Layer_0
  10
215.13345
  20
-19.833374
  0
VERTEX
  5
6ef
  8
Layer_0
  10
214.53152
  20
-19.840866
  0
VERTEX
  5
6f0
  8
Layer_0
  10
214.00107
  20
-19.87561
  0
VERTEX
  5
6f1
  8
Layer_0
  10
213.54214
  20
-19.937622
  0
VERTEX
  5
6f2
  8
Layer_0
  10
213.15472
  20
-20.026901
  0
VERTEX
  5
6f3
  8
Layer_0
  10
212.82924
  20
-20.150818
  0
VERTEX
  5
6f4
  8
Layer_0
  10
212.55658
  20
-20.316895
  0
VERTEX
  5
6f5
  8
Layer_0
  10
212.33675
  20
-20.525146
  0
VERTEX
  5
6f6
  8
Layer_0
  10
212.16974
  20
-20.775574
  0
VERTEX
  5
6f7
  8
Layer_0
  10
212.07237
  20
-20.997925
  0
VERTEX
  5
6f8
  8
Layer_0
  10
211.99493
  20
-21.251053
  0
VERTEX
  5
6f9
  8
Layer_0
  10
211.93726
  20
-21.534775
  0
VERTEX
  5
6fa
  8
Layer_0
  10
211.8992
  20
-21.848862
  0
VERTEX
  5
6fb
  8
Layer_0
  10
211.4326
  20
-21.844376
  0
VERTEX
  5
6fc
  8
Layer_0
  10
211.47693
  20
-21.452271
  0
VERTEX
  5
6fd
  8
Layer_0
  10
211.54727
  20
-21.095001
  0
VERTEX
  5
6fe
  8
Layer_0
  10
211.64423
  20
-20.773407
  0
VERTEX
  5
6ff
  8
Layer_0
  10
211.76839
  20
-20.488312
  0
VERTEX
  5
700
  8
Layer_0
  10
211.972
  20
-20.177124
  0
VERTEX
  5
701
  8
Layer_0
  10
212.23633
  20
-19.913483
  0
VERTEX
  5
702
  8
Layer_0
  10
212.56134
  20
-19.697388
  0
VERTEX
  5
703
  8
Layer_0
  10
212.94691
  20
-19.528809
  0
VERTEX
  5
704
  8
Layer_0
  10
213.40379
  20
-19.403076
  0
VERTEX
  5
705
  8
Layer_0
  10
213.9427
  20
-19.315277
  0
VERTEX
  5
706
  8
Layer_0
  10
214.56363
  20
-19.265442
  0
VERTEX
  5
707
  8
Layer_0
  10
215.26649
  20
-19.253601
  0
VERTEX
  5
708
  8
Layer_0
  10
215.95767
  20
-19.277039
  0
VERTEX
  5
709
  8
Layer_0
  10
216.57141
  20
-19.333405
  0
VERTEX
  5
70a
  8
Layer_0
  10
217.10768
  20
-19.422699
  0
VERTEX
  5
70b
  8
Layer_0
  10
217.56648
  20
-19.544983
  0
VERTEX
  5
70c
  8
Layer_0
  10
217.95697
  20
-19.708069
  0
VERTEX
  5
70d
  8
Layer_0
  10
218.2876
  20
-19.920227
  0
VERTEX
  5
70e
  8
Layer_0
  10
218.55833
  20
-20.181473
  0
VERTEX
  5
70f
  8
Layer_0
  10
218.76909
  20
-20.491776
  0
VERTEX
  5
710
  8
Layer_0
  10
218.92697
  20
-20.856476
  0
VERTEX
  5
711
  8
Layer_0
  10
219.03809
  20
-21.28093
  0
VERTEX
  5
712
  8
Layer_0
  10
219.10248
  20
-21.765182
  0
VERTEX
  5
713
  8
Layer_0
  10
219.12024
  20
-22.30925
  0
VERTEX
  5
714
  8
Layer_0
  10
219.10623
  20
-23.022827
  0
VERTEX
  5
715
  8
Layer_0
  10
219.07901
  20
-23.66214
  0
VERTEX
  5
716
  8
Layer_0
  10
219.03729
  20
-24.287079
  0
VERTEX
  5
717
  8
Layer_0
  10
218.98145
  20
-24.957993
  0
VERTEX
  5
718
  8
Layer_0
  10
218.61282
  20
-24.954437
  0
VERTEX
  5
719
  8
Layer_0
  10
218.63736
  20
-22.403641
  0
VERTEX
  5
71a
  8
Layer_0
  10
218.62303
  20
-21.916779
  0
VERTEX
  5
71b
  8
Layer_0
  10
218.57007
  20
-21.490662
  0
VERTEX
  5
71c
  8
Layer_0
  10
218.47842
  20
-21.125336
  0
VERTEX
  5
71d
  8
Layer_0
  10
218.34801
  20
-20.820862
  0
SEQEND
  0
POLYLINE
  5
71f
  8
Layer_0
  62
0
  70
1
  66
1
  10
0
  20
0
  30
0
  0
VERTEX
  5
71f
  8
Layer_0
  10
189.06261
  20
-88.849152
  0
VERTEX
  5
720
  8
Layer_0
  10
189.05655
  20
-85.849091
  0
VERTEX
  5
721
  8
Layer_0
  10
187.05653
  20
-85.853134
  0
VERTEX
  5
722
  8
Layer_0
  10
187.05048
  20
-82.853149
  0
VERTEX
  5
723
  8
Layer_0
  10
189.05049
  20
-82.849106
  0
VERTEX
  5
724
  8
Layer_0
  10
188.93236
  20
-24.349243
  0
VERTEX
  5
725
  8
Layer_0
  10
186.93234
  20
-24.353287
  0
VERTEX
  5
726
  8
Layer_0
  10
186.92628
  20
-21.353271
  0
VERTEX
  5
727
  8
Layer_0
  10
188.9263
  20
-21.349228
  0
VERTEX
  5
728
  8
Layer_0
  10
188.80811
  20
37.174133
  0
VERTEX
  5
729
  8
Layer_0
  10
188.77242
  20
40.149536
  0
VERTEX
  5
72a
  8
Layer_0
  10
186.80208
  20
40.146622
  0
VERTEX
  5
72b
  8
Layer_0
  10
149.71864
  20
40.071732
  0
VERTEX
  5
72c
  8
Layer_0
  10
149.7186
  20
40.095215
  0
VERTEX
  5
72d
  8
Layer_0
  10
146.80212
  20
40.089325
  0
VERTEX
  5
72e
  8
Layer_0
  10
146.80818
  20
37.089325
  0
VERTEX
  5
72f
  8
Layer_0
  10
148.80817
  20
37.093369
  0
VERTEX
  5
730
  8
Layer_0
  10
148.92636
  20
-21.430008
  0
VERTEX
  5
731
  8
Layer_0
  10
146.92638
  20
-21.434052
  0
VERTEX
  5
732
  8
Layer_0
  10
146.93243
  20
-24.434067
  0
VERTEX
  5
733
  8
Layer_0
  10
148.93242
  20
-24.430023
  0
VERTEX
  5
734
  8
Layer_0
  10
149.05055
  20
-82.929886
  0
VERTEX
  5
735
  8
Layer_0
  10
147.05057
  20
-82.933929
  0
VERTEX
  5
736
  8
Layer_0
  10
147.02161
  20
-84.578415
  0
VERTEX
  5
737
  8
Layer_0
  10
149.08066
  20
-84.627304
  0
VERTEX
  5
738
  8
Layer_0
  10
149.06267
  20
-88.929932
  0
VERTEX
  5
739
  8
Layer_0
  10
189.06261
  20
-88.849152
  0
SEQEND
  0
POLYLINE
  5
73b
  8
Layer_0
  62
0
  70
1
  66
1
  10
0
  20
0
  30
0
  0
VERTEX
  5
73b
  8
Layer_0
  10
179.9527
  20
-84.844009
  0
VERTEX
  5
73c
  8
Layer_0
  10
182.95268
  20
-84.837952
  0
VERTEX
  5
73d
  8
Layer_0
  10
182.95671
  20
-86.837952
  0
VERTEX
  5
73e
  8
Layer_0
  10
179.95673
  20
-86.843994
  0
VERTEX
  5
73f
  8
Layer_0
  10
179.9527
  20
-84.844009
  0
SEQEND
  0
POLYLINE
  5
741
  8
Layer_0
  62
0
  70
1
  66
1
  10
0
  20
0
  30
0
  0
VERTEX
  5
741
  8
Layer_0
  10
155.15634
  20
-84.894073
  0
VERTEX
  5
742
  8
Layer_0
  10
158.15631
  20
-84.888031
  0
VERTEX
  5
743
  8
Layer_0
  10
158.16034
  20
-86.888031
  0
VERTEX
  5
744
  8
Layer_0
  10
155.16037
  20
-86.894073
  0
VERTEX
  5
745
  8
Layer_0
  10
155.15634
  20
-84.894073
  0
SEQEND
  0
ENDSEC
  0
EOF
