  0
SECTION
  2
HEADER
  9
$ACADVER
  1
AC1009
  0
ENDSEC
  0
SECTION
  2
ENTITIES
  0
POLYLINE
  5
90
  8
Layer_0
  62
0
  70
1
  66
1
  10
0
  20
0
  30
0
  0
VERTEX
  5
90
  8
Layer_0
  10
16.362411
  20
-217.27484
  0
VERTEX
  5
91
  8
Layer_0
  10
2.0513153
  20
-193.34265
  0
VERTEX
  5
92
  8
Layer_0
  10
16.294716
  20
-169.99963
  0
VERTEX
  5
93
  8
Layer_0
  10
2.2324982
  20
-169.99963
  0
VERTEX
  5
94
  8
Layer_0
  10
-5.3389931
  20
-182.28918
  0
VERTEX
  5
95
  8
Layer_0
  10
-12.910526
  20
-169.99963
  0
VERTEX
  5
96
  8
Layer_0
  10
-26.972706
  20
-169.99963
  0
VERTEX
  5
97
  8
Layer_0
  10
-12.729301
  20
-193.34265
  0
VERTEX
  5
98
  8
Layer_0
  10
-27.04044
  20
-217.27484
  0
VERTEX
  5
99
  8
Layer_0
  10
-27.04044
  20
-219.99963
  0
VERTEX
  5
9a
  8
Layer_0
  10
-13.264748
  20
-219.99963
  0
VERTEX
  5
9b
  8
Layer_0
  10
-13.264748
  20
-217.27484
  0
VERTEX
  5
9c
  8
Layer_0
  10
-13.283661
  20
-217.27484
  0
VERTEX
  5
9d
  8
Layer_0
  10
-5.3389931
  20
-204.36548
  0
VERTEX
  5
9e
  8
Layer_0
  10
2.605629
  20
-217.27484
  0
VERTEX
  5
9f
  8
Layer_0
  10
2.6120453
  20
-217.27484
  0
VERTEX
  5
a0
  8
Layer_0
  10
2.6120453
  20
-219.99963
  0
VERTEX
  5
a1
  8
Layer_0
  10
16.370239
  20
-219.99963
  0
VERTEX
  5
a2
  8
Layer_0
  10
16.370239
  20
-217.27484
  0
VERTEX
  5
a3
  8
Layer_0
  10
16.362411
  20
-217.27484
  0
SEQEND
  0
POLYLINE
  5
a5
  8
Layer_0
  62
0
  70
1
  66
1
  10
0
  20
0
  30
0
  0
VERTEX
  5
a5
  8
Layer_0
  10
65.481064
  20
-217.27484
  0
VERTEX
  5
a6
  8
Layer_0
  10
51.16996
  20
-193.34265
  0
VERTEX
  5
a7
  8
Layer_0
  10
65.413376
  20
-169.99963
  0
VERTEX
  5
a8
  8
Layer_0
  10
51.351151
  20
-169.99963
  0
VERTEX
  5
a9
  8
Layer_0
  10
43.779663
  20
-182.28918
  0
VERTEX
  5
aa
  8
Layer_0
  10
36.20813
  20
-169.99963
  0
VERTEX
  5
ab
  8
Layer_0
  10
22.145958
  20
-169.99963
  0
VERTEX
  5
ac
  8
Layer_0
  10
36.389366
  20
-193.34265
  0
VERTEX
  5
ad
  8
Layer_0
  10
22.078224
  20
-217.27484
  0
VERTEX
  5
ae
  8
Layer_0
  10
22.078224
  20
-219.99963
  0
VERTEX
  5
af
  8
Layer_0
  10
35.853912
  20
-219.99963
  0
VERTEX
  5
b0
  8
Layer_0
  10
35.853912
  20
-217.27484
  0
VERTEX
  5
b1
  8
Layer_0
  10
35.835007
  20
-217.27484
  0
VERTEX
  5
b2
  8
Layer_0
  10
43.779663
  20
-204.36548
  0
VERTEX
  5
b3
  8
Layer_0
  10
51.724297
  20
-217.27484
  0
VERTEX
  5
b4
  8
Layer_0
  10
51.730713
  20
-217.27484
  0
VERTEX
  5
b5
  8
Layer_0
  10
51.730713
  20
-219.99963
  0
VERTEX
  5
b6
  8
Layer_0
  10
65.488907
  20
-219.99963
  0
VERTEX
  5
b7
  8
Layer_0
  10
65.488907
  20
-217.27484
  0
VERTEX
  5
b8
  8
Layer_0
  10
65.481064
  20
-217.27484
  0
SEQEND
  0
POLYLINE
  5
ba
  8
Layer_0
  62
0
  70
1
  66
1
  10
0
  20
0
  30
0
  0
VERTEX
  5
ba
  8
Layer_0
  10
114.59973
  20
-217.27484
  0
VERTEX
  5
bb
  8
Layer_0
  10
100.28864
  20
-193.34265
  0
VERTEX
  5
bc
  8
Layer_0
  10
114.53204
  20
-169.99963
  0
VERTEX
  5
bd
  8
Layer_0
  10
100.46982
  20
-169.99963
  0
VERTEX
  5
be
  8
Layer_0
  10
92.898331
  20
-182.28918
  0
VERTEX
  5
bf
  8
Layer_0
  10
85.326797
  20
-169.99963
  0
VERTEX
  5
c0
  8
Layer_0
  10
71.264618
  20
-169.99963
  0
VERTEX
  5
c1
  8
Layer_0
  10
85.508026
  20
-193.34265
  0
VERTEX
  5
c2
  8
Layer_0
  10
71.196884
  20
-217.27484
  0
VERTEX
  5
c3
  8
Layer_0
  10
71.196884
  20
-219.99963
  0
VERTEX
  5
c4
  8
Layer_0
  10
84.972565
  20
-219.99963
  0
VERTEX
  5
c5
  8
Layer_0
  10
84.972565
  20
-217.27484
  0
VERTEX
  5
c6
  8
Layer_0
  10
84.953659
  20
-217.27484
  0
VERTEX
  5
c7
  8
Layer_0
  10
92.898331
  20
-204.36548
  0
VERTEX
  5
c8
  8
Layer_0
  10
100.84296
  20
-217.27484
  0
VERTEX
  5
c9
  8
Layer_0
  10
100.84937
  20
-217.27484
  0
VERTEX
  5
ca
  8
Layer_0
  10
100.84937
  20
-219.99963
  0
VERTEX
  5
cb
  8
Layer_0
  10
114.60756
  20
-219.99963
  0
VERTEX
  5
cc
  8
Layer_0
  10
114.60756
  20
-217.27484
  0
VERTEX
  5
cd
  8
Layer_0
  10
114.59973
  20
-217.27484
  0
SEQEND
  0
POLYLINE
  5
cf
  8
Layer_0
  62
0
  70
1
  66
1
  10
0
  20
0
  30
0
  0
VERTEX
  5
cf
  8
Layer_0
  10
163.7184
  20
-217.27484
  0
VERTEX
  5
d0
  8
Layer_0
  10
149.4073
  20
-193.34265
  0
VERTEX
  5
d1
  8
Layer_0
  10
163.6507
  20
-169.99963
  0
VERTEX
  5
d2
  8
Layer_0
  10
149.58849
  20
-169.99963
  0
VERTEX
  5
d3
  8
Layer_0
  10
142.01698
  20
-182.28918
  0
VERTEX
  5
d4
  8
Layer_0
  10
134.44547
  20
-169.99963
  0
VERTEX
  5
d5
  8
Layer_0
  10
120.38327
  20
-169.99963
  0
VERTEX
  5
d6
  8
Layer_0
  10
134.62665
  20
-193.34265
  0
VERTEX
  5
d7
  8
Layer_0
  10
120.31555
  20
-217.27484
  0
VERTEX
  5
d8
  8
Layer_0
  10
120.31555
  20
-219.99963
  0
VERTEX
  5
d9
  8
Layer_0
  10
134.0912
  20
-219.99963
  0
VERTEX
  5
da
  8
Layer_0
  10
134.0912
  20
-217.27484
  0
VERTEX
  5
db
  8
Layer_0
  10
134.07231
  20
-217.27484
  0
VERTEX
  5
dc
  8
Layer_0
  10
142.01698
  20
-204.36548
  0
VERTEX
  5
dd
  8
Layer_0
  10
149.96161
  20
-217.27484
  0
VERTEX
  5
de
  8
Layer_0
  10
149.96803
  20
-217.27484
  0
VERTEX
  5
df
  8
Layer_0
  10
149.96803
  20
-219.99963
  0
VERTEX
  5
e0
  8
Layer_0
  10
163.72624
  20
-219.99963
  0
VERTEX
  5
e1
  8
Layer_0
  10
163.72624
  20
-217.27484
  0
VERTEX
  5
e2
  8
Layer_0
  10
163.7184
  20
-217.27484
  0
SEQEND
  0
POLYLINE
  5
e4
  8
Layer_0
  62
0
  70
1
  66
1
  10
0
  20
0
  30
0
  0
VERTEX
  5
e4
  8
Layer_0
  10
212.83705
  20
-217.27484
  0
VERTEX
  5
e5
  8
Layer_0
  10
198.52599
  20
-193.34265
  0
VERTEX
  5
e6
  8
Layer_0
  10
212.76936
  20
-169.99963
  0
VERTEX
  5
e7
  8
Layer_0
  10
198.70714
  20
-169.99963
  0
VERTEX
  5
e8
  8
Layer_0
  10
191.13567
  20
-182.28918
  0
VERTEX
  5
e9
  8
Layer_0
  10
183.56413
  20
-169.99963
  0
VERTEX
  5
ea
  8
Layer_0
  10
169.50194
  20
-169.99963
  0
VERTEX
  5
eb
  8
Layer_0
  10
183.74535
  20
-193.34265
  0
VERTEX
  5
ec
  8
Layer_0
  10
169.4342
  20
-217.27484
  0
VERTEX
  5
ed
  8
Layer_0
  10
169.4342
  20
-219.99963
  0
VERTEX
  5
ee
  8
Layer_0
  10
183.20988
  20
-219.99963
  0
VERTEX
  5
ef
  8
Layer_0
  10
183.20988
  20
-217.27484
  0
VERTEX
  5
f0
  8
Layer_0
  10
183.19098
  20
-217.27484
  0
VERTEX
  5
f1
  8
Layer_0
  10
191.13567
  20
-204.36548
  0
VERTEX
  5
f2
  8
Layer_0
  10
199.08028
  20
-217.27484
  0
VERTEX
  5
f3
  8
Layer_0
  10
199.08672
  20
-217.27484
  0
VERTEX
  5
f4
  8
Layer_0
  10
199.08672
  20
-219.99963
  0
VERTEX
  5
f5
  8
Layer_0
  10
212.84486
  20
-219.99963
  0
VERTEX
  5
f6
  8
Layer_0
  10
212.84486
  20
-217.27484
  0
VERTEX
  5
f7
  8
Layer_0
  10
212.83705
  20
-217.27484
  0
SEQEND
  0
POLYLINE
  5
f9
  8
Layer_0
  62
0
  70
1
  66
1
  10
0
  20
0
  30
0
  0
VERTEX
  5
f9
  8
Layer_0
  10
261.95575
  20
-217.27484
  0
VERTEX
  5
fa
  8
Layer_0
  10
247.64461
  20
-193.34265
  0
VERTEX
  5
fb
  8
Layer_0
  10
261.888
  20
-169.99963
  0
VERTEX
  5
fc
  8
Layer_0
  10
247.82579
  20
-169.99963
  0
VERTEX
  5
fd
  8
Layer_0
  10
240.25432
  20
-182.28918
  0
VERTEX
  5
fe
  8
Layer_0
  10
232.68279
  20
-169.99963
  0
VERTEX
  5
ff
  8
Layer_0
  10
218.62059
  20
-169.99963
  0
VERTEX
  5
100
  8
Layer_0
  10
232.864
  20
-193.34265
  0
VERTEX
  5
101
  8
Layer_0
  10
218.55287
  20
-217.27484
  0
VERTEX
  5
102
  8
Layer_0
  10
218.55287
  20
-219.99963
  0
VERTEX
  5
103
  8
Layer_0
  10
232.32854
  20
-219.99963
  0
VERTEX
  5
104
  8
Layer_0
  10
232.32854
  20
-217.27484
  0
VERTEX
  5
105
  8
Layer_0
  10
232.30965
  20
-217.27484
  0
VERTEX
  5
106
  8
Layer_0
  10
240.25432
  20
-204.36548
  0
VERTEX
  5
107
  8
Layer_0
  10
248.19893
  20
-217.27484
  0
VERTEX
  5
108
  8
Layer_0
  10
248.20537
  20
-217.27484
  0
VERTEX
  5
109
  8
Layer_0
  10
248.20537
  20
-219.99963
  0
VERTEX
  5
10a
  8
Layer_0
  10
261.96356
  20
-219.99963
  0
VERTEX
  5
10b
  8
Layer_0
  10
261.96356
  20
-217.27484
  0
VERTEX
  5
10c
  8
Layer_0
  10
261.95575
  20
-217.27484
  0
SEQEND
  0
POLYLINE
  5
10e
  8
Layer_0
  62
0
  70
1
  66
1
  10
0
  20
0
  30
0
  0
VERTEX
  5
10e
  8
Layer_0
  10
311.07434
  20
-217.27484
  0
VERTEX
  5
10f
  8
Layer_0
  10
296.76324
  20
-193.34265
  0
VERTEX
  5
110
  8
Layer_0
  10
311.00665
  20
-169.99963
  0
VERTEX
  5
111
  8
Layer_0
  10
296.94446
  20
-169.99963
  0
VERTEX
  5
112
  8
Layer_0
  10
289.37299
  20
-182.28918
  0
VERTEX
  5
113
  8
Layer_0
  10
281.80145
  20
-169.99963
  0
VERTEX
  5
114
  8
Layer_0
  10
267.73926
  20
-169.99963
  0
VERTEX
  5
115
  8
Layer_0
  10
281.98267
  20
-193.34265
  0
VERTEX
  5
116
  8
Layer_0
  10
267.67151
  20
-217.27484
  0
VERTEX
  5
117
  8
Layer_0
  10
267.67151
  20
-219.99963
  0
VERTEX
  5
118
  8
Layer_0
  10
281.4472
  20
-219.99963
  0
VERTEX
  5
119
  8
Layer_0
  10
281.4472
  20
-217.27484
  0
VERTEX
  5
11a
  8
Layer_0
  10
281.42828
  20
-217.27484
  0
VERTEX
  5
11b
  8
Layer_0
  10
289.37299
  20
-204.36548
  0
VERTEX
  5
11c
  8
Layer_0
  10
297.31757
  20
-217.27484
  0
VERTEX
  5
11d
  8
Layer_0
  10
297.32404
  20
-217.27484
  0
VERTEX
  5
11e
  8
Layer_0
  10
297.32404
  20
-219.99963
  0
VERTEX
  5
11f
  8
Layer_0
  10
311.08221
  20
-219.99963
  0
VERTEX
  5
120
  8
Layer_0
  10
311.08221
  20
-217.27484
  0
VERTEX
  5
121
  8
Layer_0
  10
311.07434
  20
-217.27484
  0
SEQEND
  0
POLYLINE
  5
123
  8
Layer_0
  62
0
  70
1
  66
1
  10
0
  20
0
  30
0
  0
VERTEX
  5
123
  8
Layer_0
  10
360.19305
  20
-217.27484
  0
VERTEX
  5
124
  8
Layer_0
  10
345.88196
  20
-193.34265
  0
VERTEX
  5
125
  8
Layer_0
  10
360.12537
  20
-169.99963
  0
VERTEX
  5
126
  8
Layer_0
  10
346.06311
  20
-169.99963
  0
VERTEX
  5
127
  8
Layer_0
  10
338.49164
  20
-182.28918
  0
VERTEX
  5
128
  8
Layer_0
  10
330.9201
  20
-169.99963
  0
VERTEX
  5
129
  8
Layer_0
  10
316.85791
  20
-169.99963
  0
VERTEX
  5
12a
  8
Layer_0
  10
331.10132
  20
-193.34265
  0
VERTEX
  5
12b
  8
Layer_0
  10
316.79016
  20
-217.27484
  0
VERTEX
  5
12c
  8
Layer_0
  10
316.79016
  20
-219.99963
  0
VERTEX
  5
12d
  8
Layer_0
  10
330.56586
  20
-219.99963
  0
VERTEX
  5
12e
  8
Layer_0
  10
330.56586
  20
-217.27484
  0
VERTEX
  5
12f
  8
Layer_0
  10
330.54694
  20
-217.27484
  0
VERTEX
  5
130
  8
Layer_0
  10
338.49164
  20
-204.36548
  0
VERTEX
  5
131
  8
Layer_0
  10
346.43628
  20
-217.27484
  0
VERTEX
  5
132
  8
Layer_0
  10
346.44269
  20
-217.27484
  0
VERTEX
  5
133
  8
Layer_0
  10
346.44269
  20
-219.99963
  0
VERTEX
  5
134
  8
Layer_0
  10
360.20087
  20
-219.99963
  0
VERTEX
  5
135
  8
Layer_0
  10
360.20087
  20
-217.27484
  0
VERTEX
  5
136
  8
Layer_0
  10
360.19305
  20
-217.27484
  0
SEQEND
  0
POLYLINE
  5
138
  8
Layer_0
  62
0
  70
1
  66
1
  10
0
  20
0
  30
0
  0
VERTEX
  5
138
  8
Layer_0
  10
202.45584
  20
85.070465
  0
VERTEX
  5
139
  8
Layer_0
  10
72.98111
  20
85.05896
  0
VERTEX
  5
13a
  8
Layer_0
  10
13.68866
  20
-30.244415
  0
VERTEX
  5
13b
  8
Layer_0
  10
-23.876892
  20
31.308136
  0
VERTEX
  5
13c
  8
Layer_0
  10
35.402863
  20
146.45636
  0
VERTEX
  5
13d
  8
Layer_0
  10
164.88965
  20
146.62405
  0
VERTEX
  5
13e
  8
Layer_0
  10
202.45584
  20
85.070465
  0
SEQEND
  0
POLYLINE
  5
140
  8
Layer_4
  62
4
  70
1
  66
1
  10
0
  20
0
  30
0
  0
VERTEX
  5
140
  8
Layer_4
  10
-46.581558
  20
1.1797791
  0
VERTEX
  5
141
  8
Layer_4
  10
-44.874374
  20
2.2216644
  0
VERTEX
  5
142
  8
Layer_4
  10
-46.412216
  20
4.7414551
  0
VERTEX
  5
143
  8
Layer_4
  10
-48.1194
  20
3.6995544
  0
VERTEX
  5
144
  8
Layer_4
  10
-51.72731
  20
9.6093292
  0
VERTEX
  5
145
  8
Layer_4
  10
-17.581223
  20
30.41803
  0
VERTEX
  5
146
  8
Layer_4
  10
-14.871811
  20
26.005585
  0
VERTEX
  5
147
  8
Layer_4
  10
-14.855499
  20
26.024902
  0
VERTEX
  5
148
  8
Layer_4
  10
-12.294724
  20
27.587753
  0
VERTEX
  5
149
  8
Layer_4
  10
-9.6900024
  20
23.319809
  0
VERTEX
  5
14a
  8
Layer_4
  10
-10.962023
  20
22.52475
  0
VERTEX
  5
14b
  8
Layer_4
  10
-12.246597
  20
21.750153
  0
VERTEX
  5
14c
  8
Layer_4
  10
8.6503448
  20
-12.497971
  0
VERTEX
  5
14d
  8
Layer_4
  10
8.6052704
  20
-12.431793
  0
VERTEX
  5
14e
  8
Layer_4
  10
11.166031
  20
-10.868958
  0
VERTEX
  5
14f
  8
Layer_4
  10
13.770767
  20
-15.136902
  0
VERTEX
  5
150
  8
Layer_4
  10
12.48749
  20
-15.921234
  0
VERTEX
  5
151
  8
Layer_4
  10
11.207336
  20
-16.710724
  0
VERTEX
  5
152
  8
Layer_4
  10
12.891342
  20
-19.479706
  0
VERTEX
  5
153
  8
Layer_4
  10
-21.294815
  20
-40.310623
  0
VERTEX
  5
154
  8
Layer_4
  10
-23.063965
  20
-37.354706
  0
VERTEX
  5
155
  8
Layer_4
  10
-21.356781
  20
-36.31282
  0
VERTEX
  5
156
  8
Layer_4
  10
-22.932114
  20
-33.731567
  0
VERTEX
  5
157
  8
Layer_4
  10
-24.659775
  20
-34.785965
  0
VERTEX
  5
158
  8
Layer_4
  10
-46.581558
  20
1.1797791
  0
SEQEND
  0
POLYLINE
  5
15a
  8
Layer_0
  62
0
  70
1
  66
1
  10
0
  20
0
  30
0
  0
VERTEX
  5
15a
  8
Layer_0
  10
6.064621
  20
-14.059174
  0
VERTEX
  5
15b
  8
Layer_0
  10
8.6688519
  20
-18.326309
  0
VERTEX
  5
15c
  8
Layer_0
  10
11.233887
  20
-16.760864
  0
VERTEX
  5
15d
  8
Layer_0
  10
8.6296558
  20
-12.493729
  0
VERTEX
  5
15e
  8
Layer_0
  10
6.064621
  20
-14.059174
  0
SEQEND
  0
POLYLINE
  5
160
  8
Layer_0
  62
0
  70
1
  66
1
  10
0
  20
0
  30
0
  0
VERTEX
  5
160
  8
Layer_0
  10
-17.423973
  20
24.442871
  0
VERTEX
  5
161
  8
Layer_0
  10
-14.819742
  20
20.175735
  0
VERTEX
  5
162
  8
Layer_0
  10
-12.254707
  20
21.74118
  0
VERTEX
  5
163
  8
Layer_0
  10
-14.858938
  20
26.008316
  0
VERTEX
  5
164
  8
Layer_0
  10
-17.423973
  20
24.442871
  0
SEQEND
  0
POLYLINE
  5
166
  8
Layer_2
  62
52
  70
1
  66
1
  10
0
  20
0
  30
0
  0
VERTEX
  5
166
  8
Layer_2
  10
187.29449
  20
96.640472
  0
VERTEX
  5
167
  8
Layer_2
  10
189.00377
  20
97.678955
  0
VERTEX
  5
168
  8
Layer_2
  10
168.1337
  20
131.90601
  0
VERTEX
  5
169
  8
Layer_2
  10
165.57294
  20
130.34317
  0
VERTEX
  5
16a
  8
Layer_2
  10
162.97238
  20
134.60428
  0
VERTEX
  5
16b
  8
Layer_2
  10
165.53314
  20
136.16714
  0
VERTEX
  5
16c
  8
Layer_2
  10
165.56348
  20
136.14816
  0
VERTEX
  5
16d
  8
Layer_2
  10
162.70767
  20
140.80957
  0
VERTEX
  5
16e
  8
Layer_2
  10
196.86935
  20
161.61774
  0
VERTEX
  5
16f
  8
Layer_2
  10
199.81696
  20
156.79062
  0
VERTEX
  5
170
  8
Layer_2
  10
198.10977
  20
155.74875
  0
VERTEX
  5
171
  8
Layer_2
  10
199.68512
  20
153.16748
  0
VERTEX
  5
172
  8
Layer_2
  10
201.41278
  20
154.22189
  0
VERTEX
  5
173
  8
Layer_2
  10
223.33873
  20
118.24936
  0
VERTEX
  5
174
  8
Layer_2
  10
221.63155
  20
117.20746
  0
VERTEX
  5
175
  8
Layer_2
  10
223.16937
  20
114.68765
  0
VERTEX
  5
176
  8
Layer_2
  10
224.87656
  20
115.72952
  0
VERTEX
  5
177
  8
Layer_2
  10
227.48033
  20
111.45364
  0
VERTEX
  5
178
  8
Layer_2
  10
193.3287
  20
90.643066
  0
VERTEX
  5
179
  8
Layer_2
  10
191.6301
  20
93.410126
  0
VERTEX
  5
17a
  8
Layer_2
  10
189.06555
  20
91.84967
  0
VERTEX
  5
17b
  8
Layer_2
  10
186.46082
  20
96.117615
  0
VERTEX
  5
17c
  8
Layer_2
  10
187.29449
  20
96.640472
  0
SEQEND
  0
POLYLINE
  5
17e
  8
Layer_0
  62
0
  70
1
  66
1
  10
0
  20
0
  30
0
  0
VERTEX
  5
17e
  8
Layer_0
  10
188.96942
  20
97.691833
  0
VERTEX
  5
17f
  8
Layer_0
  10
191.57364
  20
93.424706
  0
VERTEX
  5
180
  8
Layer_0
  10
194.13867
  20
94.990143
  0
VERTEX
  5
181
  8
Layer_0
  10
191.53445
  20
99.257271
  0
VERTEX
  5
182
  8
Layer_0
  10
188.96942
  20
97.691833
  0
SEQEND
  0
POLYLINE
  5
184
  8
Layer_0
  62
0
  70
1
  66
1
  10
0
  20
0
  30
0
  0
VERTEX
  5
184
  8
Layer_0
  10
165.4809
  20
136.1796
  0
VERTEX
  5
185
  8
Layer_0
  10
168.08513
  20
131.91248
  0
VERTEX
  5
186
  8
Layer_0
  10
170.65018
  20
133.47791
  0
VERTEX
  5
187
  8
Layer_0
  10
168.04594
  20
137.74504
  0
VERTEX
  5
188
  8
Layer_0
  10
165.4809
  20
136.1796
  0
SEQEND
  0
POLYLINE
  5
18a
  8
Layer_0
  62
0
  70
1
  66
1
  10
0
  20
0
  30
0
  0
VERTEX
  5
18a
  8
Layer_0
  10
-19.066099
  20
36.292053
  0
VERTEX
  5
18b
  8
Layer_0
  10
-21.357475
  20
31.849091
  0
VERTEX
  5
18c
  8
Layer_0
  10
-18.686739
  20
30.47171
  0
VERTEX
  5
18d
  8
Layer_0
  10
-16.395363
  20
34.914673
  0
VERTEX
  5
18e
  8
Layer_0
  10
-19.066099
  20
36.292053
  0
SEQEND
  0
POLYLINE
  5
190
  8
Layer_0
  62
0
  70
1
  66
1
  10
0
  20
0
  30
0
  0
VERTEX
  5
190
  8
Layer_0
  10
8.7132368
  20
90.064407
  0
VERTEX
  5
191
  8
Layer_0
  10
6.4218607
  20
85.621437
  0
VERTEX
  5
192
  8
Layer_0
  10
9.0925951
  20
84.244064
  0
VERTEX
  5
193
  8
Layer_0
  10
11.383971
  20
88.687035
  0
VERTEX
  5
194
  8
Layer_0
  10
8.7132368
  20
90.064407
  0
SEQEND
  0
POLYLINE
  5
196
  8
Layer_0
  62
0
  70
1
  66
1
  10
0
  20
0
  30
0
  0
VERTEX
  5
196
  8
Layer_0
  10
14.110362
  20
-18.198837
  0
VERTEX
  5
197
  8
Layer_0
  10
11.818986
  20
-22.6418
  0
VERTEX
  5
198
  8
Layer_0
  10
14.48972
  20
-24.01918
  0
VERTEX
  5
199
  8
Layer_0
  10
16.781097
  20
-19.576218
  0
VERTEX
  5
19a
  8
Layer_0
  10
14.110362
  20
-18.198837
  0
SEQEND
  0
POLYLINE
  5
19c
  8
Layer_0
  62
0
  70
1
  66
1
  10
0
  20
0
  30
0
  0
VERTEX
  5
19c
  8
Layer_0
  10
41.890263
  20
35.574341
  0
VERTEX
  5
19d
  8
Layer_0
  10
39.598885
  20
31.131378
  0
VERTEX
  5
19e
  8
Layer_0
  10
42.269619
  20
29.753998
  0
VERTEX
  5
19f
  8
Layer_0
  10
44.560997
  20
34.19696
  0
VERTEX
  5
1a0
  8
Layer_0
  10
41.890263
  20
35.574341
  0
SEQEND
  0
POLYLINE
  5
1a2
  8
Layer_0
  62
0
  70
1
  66
1
  10
0
  20
0
  30
0
  0
VERTEX
  5
1a2
  8
Layer_0
  10
67.38781
  20
84.923584
  0
VERTEX
  5
1a3
  8
Layer_0
  10
65.096436
  20
80.480614
  0
VERTEX
  5
1a4
  8
Layer_0
  10
67.767174
  20
79.103241
  0
VERTEX
  5
1a5
  8
Layer_0
  10
70.058548
  20
83.546211
  0
VERTEX
  5
1a6
  8
Layer_0
  10
67.38781
  20
84.923584
  0
SEQEND
  0
POLYLINE
  5
1a8
  8
Layer_0
  62
0
  70
1
  66
1
  10
0
  20
0
  30
0
  0
VERTEX
  5
1a8
  8
Layer_0
  10
163.25623
  20
144.62956
  0
VERTEX
  5
1a9
  8
Layer_0
  10
158.2572
  20
144.61865
  0
VERTEX
  5
1aa
  8
Layer_0
  10
158.26376
  20
141.61366
  0
VERTEX
  5
1ab
  8
Layer_0
  10
163.26279
  20
141.62457
  0
VERTEX
  5
1ac
  8
Layer_0
  10
163.25623
  20
144.62956
  0
SEQEND
  0
POLYLINE
  5
1ae
  8
Layer_0
  62
0
  70
1
  66
1
  10
0
  20
0
  30
0
  0
VERTEX
  5
1ae
  8
Layer_0
  10
82.538383
  20
89.831024
  0
VERTEX
  5
1af
  8
Layer_0
  10
77.53936
  20
89.820114
  0
VERTEX
  5
1b0
  8
Layer_0
  10
77.545921
  20
86.815125
  0
VERTEX
  5
1b1
  8
Layer_0
  10
82.544945
  20
86.826035
  0
VERTEX
  5
1b2
  8
Layer_0
  10
82.538383
  20
89.831024
  0
SEQEND
  0
POLYLINE
  5
1b4
  8
Layer_0
  62
0
  70
1
  66
1
  10
0
  20
0
  30
0
  0
VERTEX
  5
1b4
  8
Layer_0
  10
196.54765
  20
90.211136
  0
VERTEX
  5
1b5
  8
Layer_0
  10
191.54863
  20
90.200226
  0
VERTEX
  5
1b6
  8
Layer_0
  10
191.55519
  20
87.195236
  0
VERTEX
  5
1b7
  8
Layer_0
  10
196.55421
  20
87.206146
  0
VERTEX
  5
1b8
  8
Layer_0
  10
196.54765
  20
90.211136
  0
SEQEND
  0
POLYLINE
  5
1ba
  8
Layer_0
  62
0
  70
1
  66
1
  10
0
  20
0
  30
0
  0
VERTEX
  5
1ba
  8
Layer_0
  10
49.222076
  20
144.42886
  0
VERTEX
  5
1bb
  8
Layer_0
  10
44.223049
  20
144.41795
  0
VERTEX
  5
1bc
  8
Layer_0
  10
44.229607
  20
141.41296
  0
VERTEX
  5
1bd
  8
Layer_0
  10
49.228634
  20
141.42387
  0
VERTEX
  5
1be
  8
Layer_0
  10
49.222076
  20
144.42886
  0
SEQEND
  0
POLYLINE
  5
1c0
  8
Layer_0
  62
0
  70
1
  66
1
  10
0
  20
0
  30
0
  0
VERTEX
  5
1c0
  8
Layer_0
  10
34.187267
  20
139.37628
  0
VERTEX
  5
1c1
  8
Layer_0
  10
31.895889
  20
134.93332
  0
VERTEX
  5
1c2
  8
Layer_0
  10
34.566624
  20
133.55594
  0
VERTEX
  5
1c3
  8
Layer_0
  10
36.858002
  20
137.9989
  0
VERTEX
  5
1c4
  8
Layer_0
  10
34.187267
  20
139.37628
  0
SEQEND
  0
POLYLINE
  5
1c6
  8
Layer_6
  62
1
  70
1
  66
1
  10
0
  20
0
  30
0
  0
VERTEX
  5
1c6
  8
Layer_6
  10
67.02861
  20
80.185791
  0
VERTEX
  5
1c7
  8
Layer_6
  10
69.791161
  20
80.190651
  0
VERTEX
  5
1c8
  8
Layer_6
  10
72.553833
  20
80.183784
  0
VERTEX
  5
1c9
  8
Layer_6
  10
72.635498
  20
60.394318
  0
VERTEX
  5
1ca
  8
Layer_6
  10
69.902893
  20
60.389847
  0
VERTEX
  5
1cb
  8
Layer_6
  10
67.170319
  20
60.378601
  0
VERTEX
  5
1cc
  8
Layer_6
  10
67.170326
  20
55.418617
  0
VERTEX
  5
1cd
  8
Layer_6
  10
68.926834
  20
55.402435
  0
VERTEX
  5
1ce
  8
Layer_6
  10
70.683067
  20
55.408211
  0
VERTEX
  5
1cf
  8
Layer_6
  10
72.672455
  20
55.404442
  0
VERTEX
  5
1d0
  8
Layer_6
  10
72.678398
  20
51.765938
  0
VERTEX
  5
1d1
  8
Layer_6
  10
75.68576
  20
51.776329
  0
VERTEX
  5
1d2
  8
Layer_6
  10
75.691818
  20
49.759506
  0
VERTEX
  5
1d3
  8
Layer_6
  10
132.22833
  20
50.064514
  0
VERTEX
  5
1d4
  8
Layer_6
  10
132.21133
  20
52.078575
  0
VERTEX
  5
1d5
  8
Layer_6
  10
135.21872
  20
52.088959
  0
VERTEX
  5
1d6
  8
Layer_6
  10
135.21788
  20
50.076248
  0
VERTEX
  5
1d7
  8
Layer_6
  10
193.72318
  20
50.389816
  0
VERTEX
  5
1d8
  8
Layer_6
  10
193.70894
  20
52.392899
  0
VERTEX
  5
1d9
  8
Layer_6
  10
196.68752
  20
52.401871
  0
VERTEX
  5
1da
  8
Layer_6
  10
196.49251
  20
90.36866
  0
VERTEX
  5
1db
  8
Layer_6
  10
196.51855
  20
90.38105
  0
VERTEX
  5
1dc
  8
Layer_6
  10
196.49719
  20
93.385674
  0
VERTEX
  5
1dd
  8
Layer_6
  10
191.50046
  20
93.352829
  0
VERTEX
  5
1de
  8
Layer_6
  10
191.52182
  20
90.348206
  0
VERTEX
  5
1df
  8
Layer_6
  10
126.02658
  20
90.080719
  0
VERTEX
  5
1e0
  8
Layer_6
  10
126.02659
  20
93.134102
  0
VERTEX
  5
1e1
  8
Layer_6
  10
121.04735
  20
93.134109
  0
VERTEX
  5
1e2
  8
Layer_6
  10
121.04735
  20
90.080734
  0
VERTEX
  5
1e3
  8
Layer_6
  10
82.400963
  20
89.78479
  0
VERTEX
  5
1e4
  8
Layer_6
  10
82.377075
  20
92.792267
  0
VERTEX
  5
1e5
  8
Layer_6
  10
77.378128
  20
92.760941
  0
VERTEX
  5
1e6
  8
Layer_6
  10
77.396973
  20
89.755997
  0
VERTEX
  5
1e7
  8
Layer_6
  10
72.401489
  20
89.724953
  0
VERTEX
  5
1e8
  8
Layer_6
  10
72.518219
  20
85.191483
  0
VERTEX
  5
1e9
  8
Layer_6
  10
67.02861
  20
85.148811
  0
VERTEX
  5
1ea
  8
Layer_6
  10
67.02861
  20
80.185791
  0
SEQEND
  0
POLYLINE
  5
1ec
  8
Layer_0
  62
0
  70
1
  66
1
  10
0
  20
0
  30
0
  0
VERTEX
  5
1ec
  8
Layer_0
  10
447.96967
  20
-220.02133
  0
VERTEX
  5
1ed
  8
Layer_0
  10
461.74536
  20
-220.02133
  0
VERTEX
  5
1ee
  8
Layer_0
  10
461.74536
  20
-223.02133
  0
VERTEX
  5
1ef
  8
Layer_0
  10
447.96967
  20
-223.02133
  0
VERTEX
  5
1f0
  8
Layer_0
  10
447.96967
  20
-220.02133
  0
SEQEND
  0
POLYLINE
  5
1f2
  8
Layer_0
  62
0
  70
1
  66
1
  10
0
  20
0
  30
0
  0
VERTEX
  5
1f2
  8
Layer_0
  10
418.33472
  20
-220.02133
  0
VERTEX
  5
1f3
  8
Layer_0
  10
432.11035
  20
-220.02133
  0
VERTEX
  5
1f4
  8
Layer_0
  10
432.11035
  20
-223.02133
  0
VERTEX
  5
1f5
  8
Layer_0
  10
418.33472
  20
-223.02133
  0
VERTEX
  5
1f6
  8
Layer_0
  10
418.33472
  20
-220.02133
  0
SEQEND
  0
POLYLINE
  5
1f8
  8
Layer_0
  62
0
  70
1
  66
1
  10
0
  20
0
  30
0
  0
VERTEX
  5
1f8
  8
Layer_0
  10
464.03247
  20
-198.14139
  0
VERTEX
  5
1f9
  8
Layer_0
  10
477.80811
  20
-198.14139
  0
VERTEX
  5
1fa
  8
Layer_0
  10
477.80811
  20
-201.14139
  0
VERTEX
  5
1fb
  8
Layer_0
  10
464.03247
  20
-201.14139
  0
VERTEX
  5
1fc
  8
Layer_0
  10
464.03247
  20
-198.14139
  0
SEQEND
  0
POLYLINE
  5
1fe
  8
Layer_0
  62
0
  70
1
  66
1
  10
0
  20
0
  30
0
  0
VERTEX
  5
1fe
  8
Layer_0
  10
434.39743
  20
-198.14139
  0
VERTEX
  5
1ff
  8
Layer_0
  10
448.17313
  20
-198.14139
  0
VERTEX
  5
200
  8
Layer_0
  10
448.17313
  20
-201.14139
  0
VERTEX
  5
201
  8
Layer_0
  10
434.39743
  20
-201.14139
  0
VERTEX
  5
202
  8
Layer_0
  10
434.39743
  20
-198.14139
  0
SEQEND
  0
POLYLINE
  5
204
  8
Layer_0
  62
0
  70
1
  66
1
  10
0
  20
0
  30
0
  0
VERTEX
  5
204
  8
Layer_0
  10
475.383
  20
-176.26053
  0
VERTEX
  5
205
  8
Layer_0
  10
489.15866
  20
-176.26053
  0
VERTEX
  5
206
  8
Layer_0
  10
489.15866
  20
-179.26053
  0
VERTEX
  5
207
  8
Layer_0
  10
475.383
  20
-179.26053
  0
VERTEX
  5
208
  8
Layer_0
  10
475.383
  20
-176.26053
  0
SEQEND
  0
POLYLINE
  5
20a
  8
Layer_0
  62
0
  70
1
  66
1
  10
0
  20
0
  30
0
  0
VERTEX
  5
20a
  8
Layer_0
  10
445.74799
  20
-176.26053
  0
VERTEX
  5
20b
  8
Layer_0
  10
459.52368
  20
-176.26053
  0
VERTEX
  5
20c
  8
Layer_0
  10
459.52368
  20
-179.26053
  0
VERTEX
  5
20d
  8
Layer_0
  10
445.74799
  20
-179.26053
  0
VERTEX
  5
20e
  8
Layer_0
  10
445.74799
  20
-176.26053
  0
SEQEND
  0
POLYLINE
  5
210
  8
Layer_0
  62
0
  70
1
  66
1
  10
0
  20
0
  30
0
  0
VERTEX
  5
210
  8
Layer_0
  10
491.44577
  20
-154.38049
  0
VERTEX
  5
211
  8
Layer_0
  10
505.22144
  20
-154.38049
  0
VERTEX
  5
212
  8
Layer_0
  10
505.22144
  20
-157.38049
  0
VERTEX
  5
213
  8
Layer_0
  10
491.44577
  20
-157.38049
  0
VERTEX
  5
214
  8
Layer_0
  10
491.44577
  20
-154.38049
  0
SEQEND
  0
POLYLINE
  5
216
  8
Layer_0
  62
0
  70
1
  66
1
  10
0
  20
0
  30
0
  0
VERTEX
  5
216
  8
Layer_0
  10
461.81076
  20
-154.38049
  0
VERTEX
  5
217
  8
Layer_0
  10
475.58643
  20
-154.38049
  0
VERTEX
  5
218
  8
Layer_0
  10
475.58643
  20
-157.38049
  0
VERTEX
  5
219
  8
Layer_0
  10
461.81076
  20
-157.38049
  0
VERTEX
  5
21a
  8
Layer_0
  10
461.81076
  20
-154.38049
  0
SEQEND
  0
POLYLINE
  5
21c
  8
Layer_0
  62
0
  70
1
  66
1
  10
0
  20
0
  30
0
  0
VERTEX
  5
21c
  8
Layer_0
  10
475.58643
  20
-110.61987
  0
VERTEX
  5
21d
  8
Layer_0
  10
461.81076
  20
-110.61987
  0
VERTEX
  5
21e
  8
Layer_0
  10
461.81076
  20
-113.61987
  0
VERTEX
  5
21f
  8
Layer_0
  10
475.58643
  20
-113.61987
  0
VERTEX
  5
220
  8
Layer_0
  10
475.58643
  20
-110.61987
  0
SEQEND
  0
POLYLINE
  5
222
  8
Layer_0
  62
0
  70
1
  66
1
  10
0
  20
0
  30
0
  0
VERTEX
  5
222
  8
Layer_0
  10
505.22144
  20
-110.61987
  0
VERTEX
  5
223
  8
Layer_0
  10
491.44577
  20
-110.61987
  0
VERTEX
  5
224
  8
Layer_0
  10
491.44577
  20
-113.61987
  0
VERTEX
  5
225
  8
Layer_0
  10
505.22144
  20
-113.61987
  0
VERTEX
  5
226
  8
Layer_0
  10
505.22144
  20
-110.61987
  0
SEQEND
  0
POLYLINE
  5
228
  8
Layer_0
  62
0
  70
1
  66
1
  10
0
  20
0
  30
0
  0
VERTEX
  5
228
  8
Layer_0
  10
459.52368
  20
-88.739594
  0
VERTEX
  5
229
  8
Layer_0
  10
445.74799
  20
-88.739594
  0
VERTEX
  5
22a
  8
Layer_0
  10
445.74799
  20
-91.739594
  0
VERTEX
  5
22b
  8
Layer_0
  10
459.52368
  20
-91.739594
  0
VERTEX
  5
22c
  8
Layer_0
  10
459.52368
  20
-88.739594
  0
SEQEND
  0
POLYLINE
  5
22e
  8
Layer_0
  62
0
  70
1
  66
1
  10
0
  20
0
  30
0
  0
VERTEX
  5
22e
  8
Layer_0
  10
489.15866
  20
-88.739594
  0
VERTEX
  5
22f
  8
Layer_0
  10
475.383
  20
-88.739594
  0
VERTEX
  5
230
  8
Layer_0
  10
475.383
  20
-91.739594
  0
VERTEX
  5
231
  8
Layer_0
  10
489.15866
  20
-91.739594
  0
VERTEX
  5
232
  8
Layer_0
  10
489.15866
  20
-88.739594
  0
SEQEND
  0
POLYLINE
  5
234
  8
Layer_0
  62
0
  70
1
  66
1
  10
0
  20
0
  30
0
  0
VERTEX
  5
234
  8
Layer_0
  10
448.17313
  20
-66.859314
  0
VERTEX
  5
235
  8
Layer_0
  10
434.39743
  20
-66.859314
  0
VERTEX
  5
236
  8
Layer_0
  10
434.39743
  20
-69.859314
  0
VERTEX
  5
237
  8
Layer_0
  10
448.17313
  20
-69.859314
  0
VERTEX
  5
238
  8
Layer_0
  10
448.17313
  20
-66.859314
  0
SEQEND
  0
POLYLINE
  5
23a
  8
Layer_0
  62
0
  70
1
  66
1
  10
0
  20
0
  30
0
  0
VERTEX
  5
23a
  8
Layer_0
  10
477.80811
  20
-66.859314
  0
VERTEX
  5
23b
  8
Layer_0
  10
464.03247
  20
-66.859314
  0
VERTEX
  5
23c
  8
Layer_0
  10
464.03247
  20
-69.859314
  0
VERTEX
  5
23d
  8
Layer_0
  10
477.80811
  20
-69.859314
  0
VERTEX
  5
23e
  8
Layer_0
  10
477.80811
  20
-66.859314
  0
SEQEND
  0
POLYLINE
  5
240
  8
Layer_0
  62
0
  70
1
  66
1
  10
0
  20
0
  30
0
  0
VERTEX
  5
240
  8
Layer_0
  10
432.11035
  20
-44.978424
  0
VERTEX
  5
241
  8
Layer_0
  10
418.33472
  20
-44.978424
  0
VERTEX
  5
242
  8
Layer_0
  10
418.33472
  20
-47.978424
  0
VERTEX
  5
243
  8
Layer_0
  10
432.11035
  20
-47.978424
  0
VERTEX
  5
244
  8
Layer_0
  10
432.11035
  20
-44.978424
  0
SEQEND
  0
POLYLINE
  5
246
  8
Layer_0
  62
0
  70
1
  66
1
  10
0
  20
0
  30
0
  0
VERTEX
  5
246
  8
Layer_0
  10
461.74536
  20
-44.978424
  0
VERTEX
  5
247
  8
Layer_0
  10
447.96967
  20
-44.978424
  0
VERTEX
  5
248
  8
Layer_0
  10
447.96967
  20
-47.978424
  0
VERTEX
  5
249
  8
Layer_0
  10
461.74536
  20
-47.978424
  0
VERTEX
  5
24a
  8
Layer_0
  10
461.74536
  20
-44.978424
  0
SEQEND
  0
POLYLINE
  5
24c
  8
Layer_0
  62
0
  70
1
  66
1
  10
0
  20
0
  30
0
  0
VERTEX
  5
24c
  8
Layer_0
  10
527.04004
  20
-134.04932
  0
VERTEX
  5
24d
  8
Layer_0
  10
525.48218
  20
-131.48547
  0
VERTEX
  5
24e
  8
Layer_0
  10
523.84698
  20
-132.47906
  0
VERTEX
  5
24f
  8
Layer_0
  10
493.39896
  20
-82.527328
  0
VERTEX
  5
250
  8
Layer_0
  10
495.10446
  20
-81.491043
  0
VERTEX
  5
251
  8
Layer_0
  10
493.54663
  20
-78.927261
  0
VERTEX
  5
252
  8
Layer_0
  10
491.83755
  20
-79.965744
  0
VERTEX
  5
253
  8
Layer_0
  10
460.40506
  20
-28.398941
  0
VERTEX
  5
254
  8
Layer_0
  10
452.99219
  20
-28.398941
  0
VERTEX
  5
255
  8
Layer_0
  10
452.99219
  20
-26.398941
  0
VERTEX
  5
256
  8
Layer_0
  10
449.99219
  20
-26.398941
  0
VERTEX
  5
257
  8
Layer_0
  10
449.99219
  20
-28.398941
  0
VERTEX
  5
258
  8
Layer_0
  10
407.9035
  20
-28.398941
  0
VERTEX
  5
259
  8
Layer_0
  10
407.9035
  20
-26.398941
  0
VERTEX
  5
25a
  8
Layer_0
  10
404.9035
  20
-26.398941
  0
VERTEX
  5
25b
  8
Layer_0
  10
404.9035
  20
-28.398941
  0
VERTEX
  5
25c
  8
Layer_0
  10
400.11945
  20
-28.398941
  0
VERTEX
  5
25d
  8
Layer_0
  10
400.31296
  20
-28.89357
  0
VERTEX
  5
25e
  8
Layer_0
  10
430.8064
  20
-78.868179
  0
VERTEX
  5
25f
  8
Layer_0
  10
429.10956
  20
-79.899216
  0
VERTEX
  5
260
  8
Layer_0
  10
430.66745
  20
-82.462997
  0
VERTEX
  5
261
  8
Layer_0
  10
432.36902
  20
-81.429092
  0
VERTEX
  5
262
  8
Layer_0
  10
462.92517
  20
-131.50647
  0
VERTEX
  5
263
  8
Layer_0
  10
461.36017
  20
-132.4574
  0
VERTEX
  5
264
  8
Layer_0
  10
462.37341
  20
-134.12494
  0
VERTEX
  5
265
  8
Layer_0
  10
461.36017
  20
-135.79248
  0
VERTEX
  5
266
  8
Layer_0
  10
462.88257
  20
-136.71753
  0
VERTEX
  5
267
  8
Layer_0
  10
432.31625
  20
-186.81171
  0
VERTEX
  5
268
  8
Layer_0
  10
430.62964
  20
-185.78693
  0
VERTEX
  5
269
  8
Layer_0
  10
429.07178
  20
-188.35071
  0
VERTEX
  5
26a
  8
Layer_0
  10
430.7536
  20
-189.37262
  0
VERTEX
  5
26b
  8
Layer_0
  10
400.27042
  20
-239.33044
  0
VERTEX
  5
26c
  8
Layer_0
  10
400.27115
  20
-239.60126
  0
VERTEX
  5
26d
  8
Layer_0
  10
405.8446
  20
-239.60126
  0
VERTEX
  5
26e
  8
Layer_0
  10
405.8446
  20
-241.6012
  0
VERTEX
  5
26f
  8
Layer_0
  10
408.8446
  20
-241.6012
  0
VERTEX
  5
270
  8
Layer_0
  10
408.8446
  20
-239.60126
  0
VERTEX
  5
271
  8
Layer_0
  10
450.93326
  20
-239.60126
  0
VERTEX
  5
272
  8
Layer_0
  10
450.93326
  20
-241.6012
  0
VERTEX
  5
273
  8
Layer_0
  10
453.93329
  20
-241.6012
  0
VERTEX
  5
274
  8
Layer_0
  10
453.93329
  20
-239.60126
  0
VERTEX
  5
275
  8
Layer_0
  10
460.49808
  20
-239.60126
  0
VERTEX
  5
276
  8
Layer_0
  10
491.76965
  20
-188.21228
  0
VERTEX
  5
277
  8
Layer_0
  10
493.47067
  20
-189.24591
  0
VERTEX
  5
278
  8
Layer_0
  10
495.0285
  20
-186.68207
  0
VERTEX
  5
279
  8
Layer_0
  10
493.32916
  20
-185.64954
  0
VERTEX
  5
27a
  8
Layer_0
  10
523.73999
  20
-135.67517
  0
VERTEX
  5
27b
  8
Layer_0
  10
525.40625
  20
-136.68762
  0
VERTEX
  5
27c
  8
Layer_0
  10
526.96411
  20
-134.12378
  0
VERTEX
  5
27d
  8
Layer_0
  10
526.94073
  20
-134.10962
  0
VERTEX
  5
27e
  8
Layer_0
  10
527.04004
  20
-134.04932
  0
SEQEND
  0
POLYLINE
  5
280
  8
Layer_0
  62
0
  70
1
  66
1
  10
0
  20
0
  30
0
  0
VERTEX
  5
280
  8
Layer_0
  10
464.44519
  20
-134.15668
  0
VERTEX
  5
281
  8
Layer_0
  10
464.39307
  20
-134.12494
  0
VERTEX
  5
282
  8
Layer_0
  10
464.48782
  20
-134.06738
  0
VERTEX
  5
283
  8
Layer_0
  10
464.49371
  20
-134.07715
  0
VERTEX
  5
284
  8
Layer_0
  10
464.44519
  20
-134.15668
  0
SEQEND
  0
POLYLINE
  5
286
  8
Layer_0
  62
0
  70
1
  66
1
  10
0
  20
0
  30
0
  0
VERTEX
  5
286
  8
Layer_0
  10
126.00359
  20
90.082108
  0
VERTEX
  5
287
  8
Layer_0
  10
121.02436
  20
90.082108
  0
VERTEX
  5
288
  8
Layer_0
  10
121.02436
  20
87.028732
  0
VERTEX
  5
289
  8
Layer_0
  10
126.00359
  20
87.028732
  0
VERTEX
  5
28a
  8
Layer_0
  10
126.00359
  20
90.082108
  0
SEQEND
  0
POLYLINE
  5
28c
  8
Layer_3
  62
30
  70
1
  66
1
  10
0
  20
0
  30
0
  0
VERTEX
  5
28c
  8
Layer_3
  10
33.814011
  20
150.89108
  0
VERTEX
  5
28d
  8
Layer_3
  10
36.556709
  20
150.90834
  0
VERTEX
  5
28e
  8
Layer_3
  10
39.299431
  20
150.93733
  0
VERTEX
  5
28f
  8
Layer_3
  10
39.213921
  20
170.72679
  0
VERTEX
  5
290
  8
Layer_3
  10
36.480942
  20
170.73686
  0
VERTEX
  5
291
  8
Layer_3
  10
33.747948
  20
170.75369
  0
VERTEX
  5
292
  8
Layer_3
  10
33.747955
  20
175.71671
  0
VERTEX
  5
293
  8
Layer_3
  10
35.483738
  20
175.71744
  0
VERTEX
  5
294
  8
Layer_3
  10
37.219444
  20
175.69623
  0
VERTEX
  5
295
  8
Layer_3
  10
39.208733
  20
175.7168
  0
VERTEX
  5
296
  8
Layer_3
  10
39.183945
  20
179.35522
  0
VERTEX
  5
297
  8
Layer_3
  10
42.191277
  20
179.37024
  0
VERTEX
  5
298
  8
Layer_3
  10
42.180298
  20
181.38704
  0
VERTEX
  5
299
  8
Layer_3
  10
98.717377
  20
181.55963
  0
VERTEX
  5
29a
  8
Layer_3
  10
98.717384
  20
179.5455
  0
VERTEX
  5
29b
  8
Layer_3
  10
101.72476
  20
179.56053
  0
VERTEX
  5
29c
  8
Layer_3
  10
101.70692
  20
181.57315
  0
VERTEX
  5
29d
  8
Layer_3
  10
160.2128
  20
181.75385
  0
VERTEX
  5
29e
  8
Layer_3
  10
160.21548
  20
179.7507
  0
VERTEX
  5
29f
  8
Layer_3
  10
163.19403
  20
179.76691
  0
VERTEX
  5
2a0
  8
Layer_3
  10
163.31976
  20
141.7998
  0
VERTEX
  5
2a1
  8
Layer_3
  10
163.34592
  20
141.78764
  0
VERTEX
  5
2a2
  8
Layer_3
  10
163.34993
  20
138.78294
  0
VERTEX
  5
2a3
  8
Layer_3
  10
158.35309
  20
138.77357
  0
VERTEX
  5
2a4
  8
Layer_3
  10
158.34908
  20
141.77826
  0
VERTEX
  5
2a5
  8
Layer_3
  10
92.923843
  20
141.52939
  0
VERTEX
  5
2a6
  8
Layer_3
  10
92.930405
  20
138.52438
  0
VERTEX
  5
2a7
  8
Layer_3
  10
87.931374
  20
138.51349
  0
VERTEX
  5
2a8
  8
Layer_3
  10
87.933533
  20
141.51682
  0
VERTEX
  5
2a9
  8
Layer_3
  10
49.227318
  20
141.41986
  0
VERTEX
  5
2aa
  8
Layer_3
  10
49.228844
  20
138.41228
  0
VERTEX
  5
2ab
  8
Layer_3
  10
44.229813
  20
138.40137
  0
VERTEX
  5
2ac
  8
Layer_3
  10
44.223267
  20
141.40637
  0
VERTEX
  5
2ad
  8
Layer_3
  10
40.452072
  20
141.39522
  0
VERTEX
  5
2ae
  8
Layer_3
  10
40.452065
  20
145.86391
  0
VERTEX
  5
2af
  8
Layer_3
  10
33.814026
  20
145.92809
  0
VERTEX
  5
2b0
  8
Layer_3
  10
33.814011
  20
150.89108
  0
SEQEND
  0
POLYLINE
  5
2b2
  8
Layer_3
  62
30
  70
1
  66
1
  10
0
  20
0
  30
0
  0
VERTEX
  5
2b2
  8
Layer_3
  10
63.152496
  20
157.84309
  0
VERTEX
  5
2b3
  8
Layer_3
  10
63.145538
  20
157.36308
  0
VERTEX
  5
2b4
  8
Layer_3
  10
62.682556
  20
157.37166
  0
VERTEX
  5
2b5
  8
Layer_3
  10
62.219833
  20
157.36049
  0
VERTEX
  5
2b6
  8
Layer_3
  10
61.758011
  20
157.32961
  0
VERTEX
  5
2b7
  8
Layer_3
  10
61.297714
  20
157.27905
  0
VERTEX
  5
2b8
  8
Layer_3
  10
61.057571
  20
157.20628
  0
VERTEX
  5
2b9
  8
Layer_3
  10
60.831451
  20
157.10045
  0
VERTEX
  5
2ba
  8
Layer_3
  10
60.622734
  20
156.96344
  0
VERTEX
  5
2bb
  8
Layer_3
  10
60.434784
  20
156.79716
  0
VERTEX
  5
2bc
  8
Layer_3
  10
60.308758
  20
156.57153
  0
VERTEX
  5
2bd
  8
Layer_3
  10
60.219582
  20
156.33057
  0
VERTEX
  5
2be
  8
Layer_3
  10
60.168537
  20
156.07875
  0
VERTEX
  5
2bf
  8
Layer_3
  10
60.156906
  20
155.82056
  0
VERTEX
  5
2c0
  8
Layer_3
  10
60.135036
  20
155.49648
  0
VERTEX
  5
2c1
  8
Layer_3
  10
60.175972
  20
155.18369
  0
VERTEX
  5
2c2
  8
Layer_3
  10
60.274651
  20
154.88945
  0
VERTEX
  5
2c3
  8
Layer_3
  10
60.42601
  20
154.62106
  0
VERTEX
  5
2c4
  8
Layer_3
  10
60.624985
  20
154.38577
  0
VERTEX
  5
2c5
  8
Layer_3
  10
60.866512
  20
154.19089
  0
VERTEX
  5
2c6
  8
Layer_3
  10
61.145527
  20
154.04367
  0
VERTEX
  5
2c7
  8
Layer_3
  10
61.45697
  20
153.9514
  0
VERTEX
  5
2c8
  8
Layer_3
  10
61.878723
  20
153.89407
  0
VERTEX
  5
2c9
  8
Layer_3
  10
62.302765
  20
153.86223
  0
VERTEX
  5
2ca
  8
Layer_3
  10
62.727959
  20
153.85588
  0
VERTEX
  5
2cb
  8
Layer_3
  10
63.153152
  20
153.87509
  0
VERTEX
  5
2cc
  8
Layer_3
  10
63.154175
  20
153.40309
  0
VERTEX
  5
2cd
  8
Layer_3
  10
62.665989
  20
153.38162
  0
VERTEX
  5
2ce
  8
Layer_3
  10
62.178047
  20
153.39383
  0
VERTEX
  5
2cf
  8
Layer_3
  10
61.692108
  20
153.43961
  0
VERTEX
  5
2d0
  8
Layer_3
  10
61.20993
  20
153.51884
  0
VERTEX
  5
2d1
  8
Layer_3
  10
60.847221
  20
153.63925
  0
VERTEX
  5
2d2
  8
Layer_3
  10
60.520359
  20
153.81873
  0
VERTEX
  5
2d3
  8
Layer_3
  10
60.234573
  20
154.05003
  0
VERTEX
  5
2d4
  8
Layer_3
  10
59.995094
  20
154.32596
  0
VERTEX
  5
2d5
  8
Layer_3
  10
59.807175
  20
154.63927
  0
VERTEX
  5
2d6
  8
Layer_3
  10
59.676041
  20
154.98276
  0
VERTEX
  5
2d7
  8
Layer_3
  10
59.606941
  20
155.34918
  0
VERTEX
  5
2d8
  8
Layer_3
  10
59.605103
  20
155.73135
  0
VERTEX
  5
2d9
  8
Layer_3
  10
59.622086
  20
156.02461
  0
VERTEX
  5
2da
  8
Layer_3
  10
59.666233
  20
156.31436
  0
VERTEX
  5
2db
  8
Layer_3
  10
59.737186
  20
156.59874
  0
VERTEX
  5
2dc
  8
Layer_3
  10
59.834595
  20
156.87585
  0
VERTEX
  5
2dd
  8
Layer_3
  10
60.063004
  20
157.18294
  0
VERTEX
  5
2de
  8
Layer_3
  10
60.3489
  20
157.43088
  0
VERTEX
  5
2df
  8
Layer_3
  10
60.681183
  20
157.61195
  0
VERTEX
  5
2e0
  8
Layer_3
  10
61.048767
  20
157.71851
  0
VERTEX
  5
2e1
  8
Layer_3
  10
61.584587
  20
157.81537
  0
VERTEX
  5
2e2
  8
Layer_3
  10
62.128494
  20
157.84087
  0
VERTEX
  5
2e3
  8
Layer_3
  10
63.152496
  20
157.84309
  0
SEQEND
  0
POLYLINE
  5
2e5
  8
Layer_3
  62
30
  70
1
  66
1
  10
0
  20
0
  30
0
  0
VERTEX
  5
2e5
  8
Layer_3
  10
64.666122
  20
164.43042
  0
VERTEX
  5
2e6
  8
Layer_3
  10
65.18544
  20
164.4079
  0
VERTEX
  5
2e7
  8
Layer_3
  10
65.69162
  20
164.30466
  0
VERTEX
  5
2e8
  8
Layer_3
  10
66.175369
  20
164.12337
  0
VERTEX
  5
2e9
  8
Layer_3
  10
66.627365
  20
163.8667
  0
VERTEX
  5
2ea
  8
Layer_3
  10
66.87677
  20
163.62148
  0
VERTEX
  5
2eb
  8
Layer_3
  10
67.076523
  20
163.33771
  0
VERTEX
  5
2ec
  8
Layer_3
  10
67.222351
  20
163.0228
  0
VERTEX
  5
2ed
  8
Layer_3
  10
67.309952
  20
162.68419
  0
VERTEX
  5
2ee
  8
Layer_3
  10
67.363564
  20
162.39246
  0
VERTEX
  5
2ef
  8
Layer_3
  10
67.385681
  20
162.09921
  0
VERTEX
  5
2f0
  8
Layer_3
  10
67.37677
  20
161.80684
  0
VERTEX
  5
2f1
  8
Layer_3
  10
67.337288
  20
161.51779
  0
VERTEX
  5
2f2
  8
Layer_3
  10
67.267685
  20
161.23448
  0
VERTEX
  5
2f3
  8
Layer_3
  10
67.168442
  20
160.95934
  0
VERTEX
  5
2f4
  8
Layer_3
  10
67.040001
  20
160.69478
  0
VERTEX
  5
2f5
  8
Layer_3
  10
66.882828
  20
160.44325
  0
VERTEX
  5
2f6
  8
Layer_3
  10
66.681007
  20
160.23494
  0
VERTEX
  5
2f7
  8
Layer_3
  10
66.452881
  20
160.05823
  0
VERTEX
  5
2f8
  8
Layer_3
  10
66.202072
  20
159.9155
  0
VERTEX
  5
2f9
  8
Layer_3
  10
65.93222
  20
159.80917
  0
VERTEX
  5
2fa
  8
Layer_3
  10
66.24968
  20
159.7522
  0
VERTEX
  5
2fb
  8
Layer_3
  10
66.546715
  20
159.6347
  0
VERTEX
  5
2fc
  8
Layer_3
  10
66.814812
  20
159.46104
  0
VERTEX
  5
2fd
  8
Layer_3
  10
67.045471
  20
159.2356
  0
VERTEX
  5
2fe
  8
Layer_3
  10
67.154396
  20
159.03288
  0
VERTEX
  5
2ff
  8
Layer_3
  10
67.220627
  20
158.81909
  0
VERTEX
  5
300
  8
Layer_3
  10
67.245155
  20
158.60017
  0
VERTEX
  5
301
  8
Layer_3
  10
67.228973
  20
158.382
  0
VERTEX
  5
302
  8
Layer_3
  10
67.173073
  20
158.1705
  0
VERTEX
  5
303
  8
Layer_3
  10
67.078445
  20
157.97157
  0
VERTEX
  5
304
  8
Layer_3
  10
66.946075
  20
157.79111
  0
VERTEX
  5
305
  8
Layer_3
  10
66.776962
  20
157.63501
  0
VERTEX
  5
306
  8
Layer_3
  10
66.642715
  20
157.55522
  0
VERTEX
  5
307
  8
Layer_3
  10
66.497253
  20
157.4984
  0
VERTEX
  5
308
  8
Layer_3
  10
66.790123
  20
157.38158
  0
VERTEX
  5
309
  8
Layer_3
  10
67.054115
  20
157.22124
  0
VERTEX
  5
30a
  8
Layer_3
  10
67.285614
  20
157.02245
  0
VERTEX
  5
30b
  8
Layer_3
  10
67.481003
  20
156.7903
  0
VERTEX
  5
30c
  8
Layer_3
  10
67.636688
  20
156.52983
  0
VERTEX
  5
30d
  8
Layer_3
  10
67.749039
  20
156.24614
  0
VERTEX
  5
30e
  8
Layer_3
  10
67.814453
  20
155.94427
  0
VERTEX
  5
30f
  8
Layer_3
  10
67.82933
  20
155.6293
  0
VERTEX
  5
310
  8
Layer_3
  10
67.84671
  20
155.35806
  0
VERTEX
  5
311
  8
Layer_3
  10
67.82605
  20
155.09111
  0
VERTEX
  5
312
  8
Layer_3
  10
67.768944
  20
154.832
  0
VERTEX
  5
313
  8
Layer_3
  10
67.677017
  20
154.58434
  0
VERTEX
  5
314
  8
Layer_3
  10
67.55188
  20
154.35167
  0
VERTEX
  5
315
  8
Layer_3
  10
67.395142
  20
154.13759
  0
VERTEX
  5
316
  8
Layer_3
  10
67.208435
  20
153.94566
  0
VERTEX
  5
317
  8
Layer_3
  10
66.993378
  20
153.77948
  0
VERTEX
  5
318
  8
Layer_3
  10
66.595154
  20
153.60968
  0
VERTEX
  5
319
  8
Layer_3
  10
66.180725
  20
153.49045
  0
VERTEX
  5
31a
  8
Layer_3
  10
65.754814
  20
153.42281
  0
VERTEX
  5
31b
  8
Layer_3
  10
65.322174
  20
153.40782
  0
VERTEX
  5
31c
  8
Layer_3
  10
64.674179
  20
153.40642
  0
VERTEX
  5
31d
  8
Layer_3
  10
64.673172
  20
153.87041
  0
VERTEX
  5
31e
  8
Layer_3
  10
65.141533
  20
153.85646
  0
VERTEX
  5
31f
  8
Layer_3
  10
65.607849
  20
153.88875
  0
VERTEX
  5
320
  8
Layer_3
  10
66.068718
  20
153.96689
  0
VERTEX
  5
321
  8
Layer_3
  10
66.520706
  20
154.09044
  0
VERTEX
  5
322
  8
Layer_3
  10
66.681396
  20
154.17178
  0
VERTEX
  5
323
  8
Layer_3
  10
66.82634
  20
154.2739
  0
VERTEX
  5
324
  8
Layer_3
  10
66.953979
  20
154.39452
  0
VERTEX
  5
325
  8
Layer_3
  10
67.062767
  20
154.5314
  0
VERTEX
  5
326
  8
Layer_3
  10
67.151138
  20
154.68227
  0
VERTEX
  5
327
  8
Layer_3
  10
67.21756
  20
154.84485
  0
VERTEX
  5
328
  8
Layer_3
  10
67.260452
  20
155.01688
  0
VERTEX
  5
329
  8
Layer_3
  10
67.27829
  20
155.19611
  0
VERTEX
  5
32a
  8
Layer_3
  10
67.313072
  20
155.56586
  0
VERTEX
  5
32b
  8
Layer_3
  10
67.283203
  20
155.93332
  0
VERTEX
  5
32c
  8
Layer_3
  10
67.190086
  20
156.29004
  0
VERTEX
  5
32d
  8
Layer_3
  10
67.035156
  20
156.62756
  0
VERTEX
  5
32e
  8
Layer_3
  10
66.801788
  20
156.89172
  0
VERTEX
  5
32f
  8
Layer_3
  10
66.52079
  20
157.09808
  0
VERTEX
  5
330
  8
Layer_3
  10
66.202606
  20
157.24054
  0
VERTEX
  5
331
  8
Layer_3
  10
65.857666
  20
157.313
  0
VERTEX
  5
332
  8
Layer_3
  10
65.266785
  20
157.36644
  0
VERTEX
  5
333
  8
Layer_3
  10
64.673553
  20
157.35841
  0
VERTEX
  5
334
  8
Layer_3
  10
64.672501
  20
157.83841
  0
VERTEX
  5
335
  8
Layer_3
  10
65.832504
  20
157.84094
  0
VERTEX
  5
336
  8
Layer_3
  10
66.026421
  20
157.86502
  0
VERTEX
  5
337
  8
Layer_3
  10
66.212242
  20
157.92101
  0
VERTEX
  5
338
  8
Layer_3
  10
66.386047
  20
158.00734
  0
VERTEX
  5
339
  8
Layer_3
  10
66.5439
  20
158.1225
  0
VERTEX
  5
33a
  8
Layer_3
  10
66.627762
  20
158.25801
  0
VERTEX
  5
33b
  8
Layer_3
  10
66.682724
  20
158.40298
  0
VERTEX
  5
33c
  8
Layer_3
  10
66.709229
  20
158.55333
  0
VERTEX
  5
33d
  8
Layer_3
  10
66.707687
  20
158.70494
  0
VERTEX
  5
33e
  8
Layer_3
  10
66.678513
  20
158.85374
  0
VERTEX
  5
33f
  8
Layer_3
  10
66.622139
  20
158.99564
  0
VERTEX
  5
340
  8
Layer_3
  10
66.538986
  20
159.1265
  0
VERTEX
  5
341
  8
Layer_3
  10
66.429459
  20
159.24225
  0
VERTEX
  5
342
  8
Layer_3
  10
66.208954
  20
159.36198
  0
VERTEX
  5
343
  8
Layer_3
  10
65.976166
  20
159.4528
  0
VERTEX
  5
344
  8
Layer_3
  10
65.733856
  20
159.51382
  0
VERTEX
  5
345
  8
Layer_3
  10
65.484787
  20
159.54419
  0
VERTEX
  5
346
  8
Layer_3
  10
64.668777
  20
159.54242
  0
VERTEX
  5
347
  8
Layer_3
  10
64.675751
  20
160.02243
  0
VERTEX
  5
348
  8
Layer_3
  10
65.0923
  20
160.01379
  0
VERTEX
  5
349
  8
Layer_3
  10
65.500275
  20
160.07983
  0
VERTEX
  5
34a
  8
Layer_3
  10
65.889771
  20
160.21803
  0
VERTEX
  5
34b
  8
Layer_3
  10
66.25087
  20
160.42587
  0
VERTEX
  5
34c
  8
Layer_3
  10
66.468048
  20
160.6521
  0
VERTEX
  5
34d
  8
Layer_3
  10
66.633537
  20
160.91481
  0
VERTEX
  5
34e
  8
Layer_3
  10
66.743103
  20
161.20534
  0
VERTEX
  5
34f
  8
Layer_3
  10
66.792496
  20
161.51506
  0
VERTEX
  5
350
  8
Layer_3
  10
66.82254
  20
161.8678
  0
VERTEX
  5
351
  8
Layer_3
  10
66.814568
  20
162.22073
  0
VERTEX
  5
352
  8
Layer_3
  10
66.768799
  20
162.57076
  0
VERTEX
  5
353
  8
Layer_3
  10
66.68544
  20
162.91483
  0
VERTEX
  5
354
  8
Layer_3
  10
66.588531
  20
163.10825
  0
VERTEX
  5
355
  8
Layer_3
  10
66.468018
  20
163.28432
  0
VERTEX
  5
356
  8
Layer_3
  10
66.326218
  20
163.4413
  0
VERTEX
  5
357
  8
Layer_3
  10
66.165466
  20
163.5775
  0
VERTEX
  5
358
  8
Layer_3
  10
65.988068
  20
163.69118
  0
VERTEX
  5
359
  8
Layer_3
  10
65.796364
  20
163.78062
  0
VERTEX
  5
35a
  8
Layer_3
  10
65.592674
  20
163.84413
  0
VERTEX
  5
35b
  8
Layer_3
  10
65.379318
  20
163.87997
  0
VERTEX
  5
35c
  8
Layer_3
  10
65.024826
  20
163.92769
  0
VERTEX
  5
35d
  8
Layer_3
  10
64.667206
  20
163.93442
  0
VERTEX
  5
35e
  8
Layer_3
  10
64.666122
  20
164.43042
  0
SEQEND
  0
POLYLINE
  5
360
  8
Layer_3
  62
30
  70
1
  66
1
  10
0
  20
0
  30
0
  0
VERTEX
  5
360
  8
Layer_3
  10
146.72206
  20
164.54549
  0
VERTEX
  5
361
  8
Layer_3
  10
147.21928
  20
164.49525
  0
VERTEX
  5
362
  8
Layer_3
  10
147.69553
  20
164.35756
  0
VERTEX
  5
363
  8
Layer_3
  10
148.13942
  20
164.13681
  0
VERTEX
  5
364
  8
Layer_3
  10
148.53961
  20
163.83745
  0
VERTEX
  5
365
  8
Layer_3
  10
148.69597
  20
163.63739
  0
VERTEX
  5
366
  8
Layer_3
  10
148.82788
  20
163.42139
  0
VERTEX
  5
367
  8
Layer_3
  10
148.93414
  20
163.19167
  0
VERTEX
  5
368
  8
Layer_3
  10
149.01355
  20
162.95049
  0
VERTEX
  5
369
  8
Layer_3
  10
149.12756
  20
162.56592
  0
VERTEX
  5
36a
  8
Layer_3
  10
149.20772
  20
162.17368
  0
VERTEX
  5
36b
  8
Layer_3
  10
149.25363
  20
161.77597
  0
VERTEX
  5
36c
  8
Layer_3
  10
149.26498
  20
161.37503
  0
VERTEX
  5
36d
  8
Layer_3
  10
149.29288
  20
160.62912
  0
VERTEX
  5
36e
  8
Layer_3
  10
149.26039
  20
159.88463
  0
VERTEX
  5
36f
  8
Layer_3
  10
149.1678
  20
159.14519
  0
VERTEX
  5
370
  8
Layer_3
  10
149.01544
  20
158.41447
  0
VERTEX
  5
371
  8
Layer_3
  10
148.91571
  20
158.14702
  0
VERTEX
  5
372
  8
Layer_3
  10
148.78175
  20
157.89963
  0
VERTEX
  5
373
  8
Layer_3
  10
148.61655
  20
157.67499
  0
VERTEX
  5
374
  8
Layer_3
  10
148.4231
  20
157.47578
  0
VERTEX
  5
375
  8
Layer_3
  10
148.20438
  20
157.30469
  0
VERTEX
  5
376
  8
Layer_3
  10
147.96339
  20
157.16441
  0
VERTEX
  5
377
  8
Layer_3
  10
147.70313
  20
157.05762
  0
VERTEX
  5
378
  8
Layer_3
  10
147.42654
  20
156.98701
  0
VERTEX
  5
379
  8
Layer_3
  10
147.04912
  20
156.91148
  0
VERTEX
  5
37a
  8
Layer_3
  10
146.66751
  20
156.86565
  0
VERTEX
  5
37b
  8
Layer_3
  10
146.28349
  20
156.84967
  0
VERTEX
  5
37c
  8
Layer_3
  10
145.89882
  20
156.86368
  0
VERTEX
  5
37d
  8
Layer_3
  10
144.75754
  20
156.89249
  0
VERTEX
  5
37e
  8
Layer_3
  10
143.61858
  20
156.9707
  0
VERTEX
  5
37f
  8
Layer_3
  10
143.61777
  20
157.3387
  0
VERTEX
  5
380
  8
Layer_3
  10
144.44792
  20
157.3134
  0
VERTEX
  5
381
  8
Layer_3
  10
145.27829
  20
157.31152
  0
VERTEX
  5
382
  8
Layer_3
  10
146.10838
  20
157.33304
  0
VERTEX
  5
383
  8
Layer_3
  10
146.9377
  20
157.37794
  0
VERTEX
  5
384
  8
Layer_3
  10
147.15717
  20
157.41232
  0
VERTEX
  5
385
  8
Layer_3
  10
147.36882
  20
157.47173
  0
VERTEX
  5
386
  8
Layer_3
  10
147.57077
  20
157.5549
  0
VERTEX
  5
387
  8
Layer_3
  10
147.76108
  20
157.66066
  0
VERTEX
  5
388
  8
Layer_3
  10
147.93787
  20
157.78777
  0
VERTEX
  5
389
  8
Layer_3
  10
148.09917
  20
157.93501
  0
VERTEX
  5
38a
  8
Layer_3
  10
148.2431
  20
158.10118
  0
VERTEX
  5
38b
  8
Layer_3
  10
148.36772
  20
158.28506
  0
VERTEX
  5
38c
  8
Layer_3
  10
148.51544
  20
158.73201
  0
VERTEX
  5
38d
  8
Layer_3
  10
148.62038
  20
159.18979
  0
VERTEX
  5
38e
  8
Layer_3
  10
148.68198
  20
159.6554
  0
VERTEX
  5
38f
  8
Layer_3
  10
148.69971
  20
160.12579
  0
VERTEX
  5
390
  8
Layer_3
  10
148.70705
  20
160.42981
  0
VERTEX
  5
391
  8
Layer_3
  10
146.72305
  20
160.42548
  0
VERTEX
  5
392
  8
Layer_3
  10
146.72208
  20
160.87349
  0
VERTEX
  5
393
  8
Layer_3
  10
148.69809
  20
160.8698
  0
VERTEX
  5
394
  8
Layer_3
  10
148.70528
  20
161.4632
  0
VERTEX
  5
395
  8
Layer_3
  10
148.649
  20
162.05223
  0
VERTEX
  5
396
  8
Layer_3
  10
148.53
  20
162.63185
  0
VERTEX
  5
397
  8
Layer_3
  10
148.349
  20
163.19704
  0
VERTEX
  5
398
  8
Layer_3
  10
148.1548
  20
163.48282
  0
VERTEX
  5
399
  8
Layer_3
  10
147.90376
  20
163.71371
  0
VERTEX
  5
39a
  8
Layer_3
  10
147.60692
  20
163.8817
  0
VERTEX
  5
39b
  8
Layer_3
  10
147.2753
  20
163.9787
  0
VERTEX
  5
39c
  8
Layer_3
  10
147.00146
  20
164.0424
  0
VERTEX
  5
39d
  8
Layer_3
  10
146.72307
  20
164.08148
  0
VERTEX
  5
39e
  8
Layer_3
  10
146.72206
  20
164.54549
  0
SEQEND
  0
POLYLINE
  5
3a0
  8
Layer_3
  62
30
  70
1
  66
1
  10
0
  20
0
  30
0
  0
VERTEX
  5
3a0
  8
Layer_3
  10
116.67405
  20
164.51991
  0
VERTEX
  5
3a1
  8
Layer_3
  10
117.11183
  20
164.48795
  0
VERTEX
  5
3a2
  8
Layer_3
  10
117.5383
  20
164.39394
  0
VERTEX
  5
3a3
  8
Layer_3
  10
117.94691
  20
164.23981
  0
VERTEX
  5
3a4
  8
Layer_3
  10
118.33112
  20
164.02753
  0
VERTEX
  5
3a5
  8
Layer_3
  10
118.57121
  20
163.80904
  0
VERTEX
  5
3a6
  8
Layer_3
  10
118.77012
  20
163.55533
  0
VERTEX
  5
3a7
  8
Layer_3
  10
118.92411
  20
163.27211
  0
VERTEX
  5
3a8
  8
Layer_3
  10
119.02944
  20
162.96504
  0
VERTEX
  5
3a9
  8
Layer_3
  10
119.16064
  20
162.50139
  0
VERTEX
  5
3aa
  8
Layer_3
  10
119.25332
  20
162.02936
  0
VERTEX
  5
3ab
  8
Layer_3
  10
119.30708
  20
161.55133
  0
VERTEX
  5
3ac
  8
Layer_3
  10
119.32158
  20
161.06969
  0
VERTEX
  5
3ad
  8
Layer_3
  10
119.33918
  20
160.35503
  0
VERTEX
  5
3ae
  8
Layer_3
  10
119.29242
  20
159.64314
  0
VERTEX
  5
3af
  8
Layer_3
  10
119.18178
  20
158.93835
  0
VERTEX
  5
3b0
  8
Layer_3
  10
119.00774
  20
158.245
  0
VERTEX
  5
3b1
  8
Layer_3
  10
118.89779
  20
158.00197
  0
VERTEX
  5
3b2
  8
Layer_3
  10
118.75929
  20
157.77782
  0
VERTEX
  5
3b3
  8
Layer_3
  10
118.59471
  20
157.57463
  0
VERTEX
  5
3b4
  8
Layer_3
  10
118.40649
  20
157.39447
  0
VERTEX
  5
3b5
  8
Layer_3
  10
118.19711
  20
157.23943
  0
VERTEX
  5
3b6
  8
Layer_3
  10
117.96902
  20
157.11154
  0
VERTEX
  5
3b7
  8
Layer_3
  10
117.72469
  20
157.01292
  0
VERTEX
  5
3b8
  8
Layer_3
  10
117.46658
  20
156.94563
  0
VERTEX
  5
3b9
  8
Layer_3
  10
117.03064
  20
156.85825
  0
VERTEX
  5
3ba
  8
Layer_3
  10
116.58682
  20
156.83171
  0
VERTEX
  5
3bb
  8
Layer_3
  10
115.85373
  20
156.82733
  0
VERTEX
  5
3bc
  8
Layer_3
  10
115.121
  20
156.84483
  0
VERTEX
  5
3bd
  8
Layer_3
  10
114.38912
  20
156.88416
  0
VERTEX
  5
3be
  8
Layer_3
  10
113.65857
  20
156.94531
  0
VERTEX
  5
3bf
  8
Layer_3
  10
113.65777
  20
157.31331
  0
VERTEX
  5
3c0
  8
Layer_3
  10
115.09776
  20
157.30046
  0
VERTEX
  5
3c1
  8
Layer_3
  10
116.53777
  20
157.3116
  0
VERTEX
  5
3c2
  8
Layer_3
  10
116.88272
  20
157.34155
  0
VERTEX
  5
3c3
  8
Layer_3
  10
117.22104
  20
157.40991
  0
VERTEX
  5
3c4
  8
Layer_3
  10
117.54954
  20
157.51584
  0
VERTEX
  5
3c5
  8
Layer_3
  10
117.86502
  20
157.65851
  0
VERTEX
  5
3c6
  8
Layer_3
  10
118.12998
  20
157.87602
  0
VERTEX
  5
3c7
  8
Layer_3
  10
118.34314
  20
158.14014
  0
VERTEX
  5
3c8
  8
Layer_3
  10
118.49863
  20
158.44183
  0
VERTEX
  5
3c9
  8
Layer_3
  10
118.59059
  20
158.77208
  0
VERTEX
  5
3ca
  8
Layer_3
  10
118.66711
  20
159.17595
  0
VERTEX
  5
3cb
  8
Layer_3
  10
118.71743
  20
159.58347
  0
VERTEX
  5
3cc
  8
Layer_3
  10
118.74144
  20
159.99338
  0
VERTEX
  5
3cd
  8
Layer_3
  10
118.73903
  20
160.40442
  0
VERTEX
  5
3ce
  8
Layer_3
  10
116.67503
  20
160.3999
  0
VERTEX
  5
3cf
  8
Layer_3
  10
116.67407
  20
160.8399
  0
VERTEX
  5
3d0
  8
Layer_3
  10
118.74609
  20
160.83643
  0
VERTEX
  5
3d1
  8
Layer_3
  10
118.73828
  20
161.39325
  0
VERTEX
  5
3d2
  8
Layer_3
  10
118.688
  20
161.94704
  0
VERTEX
  5
3d3
  8
Layer_3
  10
118.59557
  20
162.49536
  0
VERTEX
  5
3d4
  8
Layer_3
  10
118.46128
  20
163.03581
  0
VERTEX
  5
3d5
  8
Layer_3
  10
118.26492
  20
163.37512
  0
VERTEX
  5
3d6
  8
Layer_3
  10
117.995
  20
163.65137
  0
VERTEX
  5
3d7
  8
Layer_3
  10
117.6657
  20
163.85318
  0
VERTEX
  5
3d8
  8
Layer_3
  10
117.29125
  20
163.96925
  0
VERTEX
  5
3d9
  8
Layer_3
  10
116.98489
  20
164.02492
  0
VERTEX
  5
3da
  8
Layer_3
  10
116.67506
  20
164.05591
  0
VERTEX
  5
3db
  8
Layer_3
  10
116.67405
  20
164.51991
  0
SEQEND
  0
POLYLINE
  5
3dd
  8
Layer_3
  62
30
  70
1
  66
1
  10
0
  20
0
  30
0
  0
VERTEX
  5
3dd
  8
Layer_3
  10
103.23404
  20
164.50659
  0
VERTEX
  5
3de
  8
Layer_3
  10
103.72842
  20
164.46986
  0
VERTEX
  5
3df
  8
Layer_3
  10
104.20386
  20
164.3448
  0
VERTEX
  5
3e0
  8
Layer_3
  10
104.64874
  20
164.13562
  0
VERTEX
  5
3e1
  8
Layer_3
  10
105.05149
  20
163.84654
  0
VERTEX
  5
3e2
  8
Layer_3
  10
105.25308
  20
163.61238
  0
VERTEX
  5
3e3
  8
Layer_3
  10
105.41818
  20
163.35306
  0
VERTEX
  5
3e4
  8
Layer_3
  10
105.54453
  20
163.07278
  0
VERTEX
  5
3e5
  8
Layer_3
  10
105.62982
  20
162.7758
  0
VERTEX
  5
3e6
  8
Layer_3
  10
105.73311
  20
162.34468
  0
VERTEX
  5
3e7
  8
Layer_3
  10
105.80698
  20
161.90805
  0
VERTEX
  5
3e8
  8
Layer_3
  10
105.85122
  20
161.46742
  0
VERTEX
  5
3e9
  8
Layer_3
  10
105.86565
  20
161.02432
  0
VERTEX
  5
3ea
  8
Layer_3
  10
105.87227
  20
160.36012
  0
VERTEX
  5
3eb
  8
Layer_3
  10
105.82993
  20
159.69818
  0
VERTEX
  5
3ec
  8
Layer_3
  10
105.73888
  20
159.04115
  0
VERTEX
  5
3ed
  8
Layer_3
  10
105.5994
  20
158.39174
  0
VERTEX
  5
3ee
  8
Layer_3
  10
105.49285
  20
158.1048
  0
VERTEX
  5
3ef
  8
Layer_3
  10
105.348
  20
157.84071
  0
VERTEX
  5
3f0
  8
Layer_3
  10
105.16842
  20
157.60254
  0
VERTEX
  5
3f1
  8
Layer_3
  10
104.95767
  20
157.39334
  0
VERTEX
  5
3f2
  8
Layer_3
  10
104.71935
  20
157.21622
  0
VERTEX
  5
3f3
  8
Layer_3
  10
104.45702
  20
157.07423
  0
VERTEX
  5
3f4
  8
Layer_3
  10
104.17426
  20
156.97046
  0
VERTEX
  5
3f5
  8
Layer_3
  10
103.87463
  20
156.90796
  0
VERTEX
  5
3f6
  8
Layer_3
  10
103.3586
  20
156.84962
  0
VERTEX
  5
3f7
  8
Layer_3
  10
102.84064
  20
156.81741
  0
VERTEX
  5
3f8
  8
Layer_3
  10
102.32171
  20
156.81134
  0
VERTEX
  5
3f9
  8
Layer_3
  10
101.8028
  20
156.83145
  0
VERTEX
  5
3fa
  8
Layer_3
  10
101.00177
  20
156.86176
  0
VERTEX
  5
3fb
  8
Layer_3
  10
100.20258
  20
156.92395
  0
VERTEX
  5
3fc
  8
Layer_3
  10
100.19378
  20
157.29193
  0
VERTEX
  5
3fd
  8
Layer_3
  10
103.18578
  20
157.29846
  0
VERTEX
  5
3fe
  8
Layer_3
  10
103.51857
  20
157.34035
  0
VERTEX
  5
3ff
  8
Layer_3
  10
103.8434
  20
157.41939
  0
VERTEX
  5
400
  8
Layer_3
  10
104.15721
  20
157.53467
  0
VERTEX
  5
401
  8
Layer_3
  10
104.45693
  20
157.68524
  0
VERTEX
  5
402
  8
Layer_3
  10
104.7001
  20
157.90111
  0
VERTEX
  5
403
  8
Layer_3
  10
104.89592
  20
158.157
  0
VERTEX
  5
404
  8
Layer_3
  10
105.03966
  20
158.44539
  0
VERTEX
  5
405
  8
Layer_3
  10
105.12659
  20
158.7587
  0
VERTEX
  5
406
  8
Layer_3
  10
105.20077
  20
159.16089
  0
VERTEX
  5
407
  8
Layer_3
  10
105.25163
  20
159.56638
  0
VERTEX
  5
408
  8
Layer_3
  10
105.27909
  20
159.97409
  0
VERTEX
  5
409
  8
Layer_3
  10
105.28305
  20
160.38304
  0
VERTEX
  5
40a
  8
Layer_3
  10
103.23504
  20
160.38658
  0
VERTEX
  5
40b
  8
Layer_3
  10
103.23408
  20
160.82657
  0
VERTEX
  5
40c
  8
Layer_3
  10
105.28207
  20
160.83104
  0
VERTEX
  5
40d
  8
Layer_3
  10
105.27957
  20
161.38637
  0
VERTEX
  5
40e
  8
Layer_3
  10
105.23103
  20
161.9386
  0
VERTEX
  5
40f
  8
Layer_3
  10
105.13681
  20
162.48491
  0
VERTEX
  5
410
  8
Layer_3
  10
104.99729
  20
163.02243
  0
VERTEX
  5
411
  8
Layer_3
  10
104.80238
  20
163.36197
  0
VERTEX
  5
412
  8
Layer_3
  10
104.53253
  20
163.63719
  0
VERTEX
  5
413
  8
Layer_3
  10
104.20256
  20
163.8364
  0
VERTEX
  5
414
  8
Layer_3
  10
103.82726
  20
163.94788
  0
VERTEX
  5
415
  8
Layer_3
  10
103.53289
  20
164.00299
  0
VERTEX
  5
416
  8
Layer_3
  10
103.23507
  20
164.03459
  0
VERTEX
  5
417
  8
Layer_3
  10
103.23404
  20
164.50659
  0
SEQEND
  0
POLYLINE
  5
419
  8
Layer_3
  62
30
  70
1
  66
1
  10
0
  20
0
  30
0
  0
VERTEX
  5
419
  8
Layer_3
  10
90.294373
  20
164.51054
  0
VERTEX
  5
41a
  8
Layer_3
  10
90.295456
  20
164.01456
  0
VERTEX
  5
41b
  8
Layer_3
  10
89.955528
  20
164.00227
  0
VERTEX
  5
41c
  8
Layer_3
  10
89.622803
  20
163.9408
  0
VERTEX
  5
41d
  8
Layer_3
  10
89.302589
  20
163.83148
  0
VERTEX
  5
41e
  8
Layer_3
  10
89.000191
  20
163.67572
  0
VERTEX
  5
41f
  8
Layer_3
  10
88.755859
  20
163.43953
  0
VERTEX
  5
420
  8
Layer_3
  10
88.551376
  20
163.17059
  0
VERTEX
  5
421
  8
Layer_3
  10
88.389908
  20
162.87383
  0
VERTEX
  5
422
  8
Layer_3
  10
88.274635
  20
162.55414
  0
VERTEX
  5
423
  8
Layer_3
  10
88.164375
  20
162.04333
  0
VERTEX
  5
424
  8
Layer_3
  10
88.091232
  20
161.52794
  0
VERTEX
  5
425
  8
Layer_3
  10
88.05513
  20
161.00993
  0
VERTEX
  5
426
  8
Layer_3
  10
88.055984
  20
160.4913
  0
VERTEX
  5
427
  8
Layer_3
  10
88.093735
  20
159.97404
  0
VERTEX
  5
428
  8
Layer_3
  10
88.168304
  20
159.46016
  0
VERTEX
  5
429
  8
Layer_3
  10
88.279617
  20
158.95163
  0
VERTEX
  5
42a
  8
Layer_3
  10
88.427589
  20
158.45045
  0
VERTEX
  5
42b
  8
Layer_3
  10
88.570702
  20
158.18991
  0
VERTEX
  5
42c
  8
Layer_3
  10
88.748001
  20
157.9575
  0
VERTEX
  5
42d
  8
Layer_3
  10
88.955421
  20
157.75575
  0
VERTEX
  5
42e
  8
Layer_3
  10
89.188904
  20
157.58716
  0
VERTEX
  5
42f
  8
Layer_3
  10
89.444374
  20
157.45424
  0
VERTEX
  5
430
  8
Layer_3
  10
89.717773
  20
157.3595
  0
VERTEX
  5
431
  8
Layer_3
  10
90.005035
  20
157.30544
  0
VERTEX
  5
432
  8
Layer_3
  10
90.302116
  20
157.29456
  0
VERTEX
  5
433
  8
Layer_3
  10
90.303185
  20
156.80655
  0
VERTEX
  5
434
  8
Layer_3
  10
89.891953
  20
156.80319
  0
VERTEX
  5
435
  8
Layer_3
  10
89.495255
  20
156.86911
  0
VERTEX
  5
436
  8
Layer_3
  10
89.120354
  20
156.99948
  0
VERTEX
  5
437
  8
Layer_3
  10
88.774536
  20
157.18948
  0
VERTEX
  5
438
  8
Layer_3
  10
88.465073
  20
157.43428
  0
VERTEX
  5
439
  8
Layer_3
  10
88.199234
  20
157.72903
  0
VERTEX
  5
43a
  8
Layer_3
  10
87.984314
  20
158.06894
  0
VERTEX
  5
43b
  8
Layer_3
  10
87.827591
  20
158.44916
  0
VERTEX
  5
43c
  8
Layer_3
  10
87.646103
  20
159.08597
  0
VERTEX
  5
43d
  8
Layer_3
  10
87.528244
  20
159.73593
  0
VERTEX
  5
43e
  8
Layer_3
  10
87.47464
  20
160.39433
  0
VERTEX
  5
43f
  8
Layer_3
  10
87.485901
  20
161.05641
  0
VERTEX
  5
440
  8
Layer_3
  10
87.527191
  20
161.58151
  0
VERTEX
  5
441
  8
Layer_3
  10
87.604431
  20
162.10191
  0
VERTEX
  5
442
  8
Layer_3
  10
87.717278
  20
162.61577
  0
VERTEX
  5
443
  8
Layer_3
  10
87.865395
  20
163.12125
  0
VERTEX
  5
444
  8
Layer_3
  10
88.037064
  20
163.43503
  0
VERTEX
  5
445
  8
Layer_3
  10
88.249924
  20
163.7151
  0
VERTEX
  5
446
  8
Layer_3
  10
88.499069
  20
163.95845
  0
VERTEX
  5
447
  8
Layer_3
  10
88.779625
  20
164.16203
  0
VERTEX
  5
448
  8
Layer_3
  10
89.086716
  20
164.32283
  0
VERTEX
  5
449
  8
Layer_3
  10
89.415459
  20
164.43779
  0
VERTEX
  5
44a
  8
Layer_3
  10
89.760963
  20
164.50392
  0
VERTEX
  5
44b
  8
Layer_3
  10
90.118355
  20
164.51816
  0
VERTEX
  5
44c
  8
Layer_3
  10
90.294373
  20
164.51054
  0
SEQEND
  0
POLYLINE
  5
44e
  8
Layer_3
  62
30
  70
1
  66
1
  10
0
  20
0
  30
0
  0
VERTEX
  5
44e
  8
Layer_3
  10
153.00305
  20
167.7592
  0
VERTEX
  5
44f
  8
Layer_3
  10
153.00467
  20
163.3512
  0
VERTEX
  5
450
  8
Layer_3
  10
153.00632
  20
158.93518
  0
VERTEX
  5
451
  8
Layer_3
  10
152.97551
  20
158.53371
  0
VERTEX
  5
452
  8
Layer_3
  10
152.88293
  20
158.14433
  0
VERTEX
  5
453
  8
Layer_3
  10
152.73088
  20
157.77412
  0
VERTEX
  5
454
  8
Layer_3
  10
152.52161
  20
157.43013
  0
VERTEX
  5
455
  8
Layer_3
  10
152.30716
  20
157.23354
  0
VERTEX
  5
456
  8
Layer_3
  10
152.05957
  20
157.08636
  0
VERTEX
  5
457
  8
Layer_3
  10
151.78723
  20
156.99252
  0
VERTEX
  5
458
  8
Layer_3
  10
151.49863
  20
156.95589
  0
VERTEX
  5
459
  8
Layer_3
  10
150.92676
  20
156.93861
  0
VERTEX
  5
45a
  8
Layer_3
  10
150.35464
  20
156.9454
  0
VERTEX
  5
45b
  8
Layer_3
  10
150.36179
  20
157.34541
  0
VERTEX
  5
45c
  8
Layer_3
  10
150.7019
  20
157.36826
  0
VERTEX
  5
45d
  8
Layer_3
  10
151.03979
  20
157.41113
  0
VERTEX
  5
45e
  8
Layer_3
  10
151.37457
  20
157.47386
  0
VERTEX
  5
45f
  8
Layer_3
  10
151.70532
  20
157.55635
  0
VERTEX
  5
460
  8
Layer_3
  10
151.88416
  20
157.65015
  0
VERTEX
  5
461
  8
Layer_3
  10
152.03741
  20
157.77823
  0
VERTEX
  5
462
  8
Layer_3
  10
152.16032
  20
157.93567
  0
VERTEX
  5
463
  8
Layer_3
  10
152.24809
  20
158.11752
  0
VERTEX
  5
464
  8
Layer_3
  10
152.33253
  20
158.38216
  0
VERTEX
  5
465
  8
Layer_3
  10
152.39116
  20
158.65302
  0
VERTEX
  5
466
  8
Layer_3
  10
152.42368
  20
158.92822
  0
VERTEX
  5
467
  8
Layer_3
  10
152.42972
  20
159.20593
  0
VERTEX
  5
468
  8
Layer_3
  10
152.42842
  20
163.48221
  0
VERTEX
  5
469
  8
Layer_3
  10
152.41907
  20
167.75792
  0
VERTEX
  5
46a
  8
Layer_3
  10
153.00305
  20
167.7592
  0
SEQEND
  0
POLYLINE
  5
46c
  8
Layer_3
  62
30
  70
1
  66
1
  10
0
  20
0
  30
0
  0
VERTEX
  5
46c
  8
Layer_3
  10
83.674065
  20
164.4799
  0
VERTEX
  5
46d
  8
Layer_3
  10
84.093666
  20
164.42981
  0
VERTEX
  5
46e
  8
Layer_3
  10
84.497375
  20
164.31448
  0
VERTEX
  5
46f
  8
Layer_3
  10
84.877754
  20
164.13672
  0
VERTEX
  5
470
  8
Layer_3
  10
85.227333
  20
163.89929
  0
VERTEX
  5
471
  8
Layer_3
  10
85.445801
  20
163.66107
  0
VERTEX
  5
472
  8
Layer_3
  10
85.626099
  20
163.3949
  0
VERTEX
  5
473
  8
Layer_3
  10
85.76561
  20
163.10527
  0
VERTEX
  5
474
  8
Layer_3
  10
85.861732
  20
162.79668
  0
VERTEX
  5
475
  8
Layer_3
  10
85.955849
  20
162.45926
  0
VERTEX
  5
476
  8
Layer_3
  10
86.027847
  20
162.11682
  0
VERTEX
  5
477
  8
Layer_3
  10
86.077538
  20
161.77043
  0
VERTEX
  5
478
  8
Layer_3
  10
86.104736
  20
161.42119
  0
VERTEX
  5
479
  8
Layer_3
  10
86.114204
  20
160.54858
  0
VERTEX
  5
47a
  8
Layer_3
  10
86.06855
  20
159.67711
  0
VERTEX
  5
47b
  8
Layer_3
  10
85.989937
  20
159.04497
  0
VERTEX
  5
47c
  8
Layer_3
  10
85.863289
  20
158.42067
  0
VERTEX
  5
47d
  8
Layer_3
  10
85.755737
  20
158.11787
  0
VERTEX
  5
47e
  8
Layer_3
  10
85.606476
  20
157.83945
  0
VERTEX
  5
47f
  8
Layer_3
  10
85.419487
  20
157.58884
  0
VERTEX
  5
480
  8
Layer_3
  10
85.198776
  20
157.36943
  0
VERTEX
  5
481
  8
Layer_3
  10
84.948349
  20
157.18471
  0
VERTEX
  5
482
  8
Layer_3
  10
84.672188
  20
157.03806
  0
VERTEX
  5
483
  8
Layer_3
  10
84.374298
  20
156.93292
  0
VERTEX
  5
484
  8
Layer_3
  10
84.058662
  20
156.87273
  0
VERTEX
  5
485
  8
Layer_3
  10
83.154816
  20
156.81754
  0
VERTEX
  5
486
  8
Layer_3
  10
82.24987
  20
156.8045
  0
VERTEX
  5
487
  8
Layer_3
  10
81.345306
  20
156.8336
  0
VERTEX
  5
488
  8
Layer_3
  10
80.442581
  20
156.90483
  0
VERTEX
  5
489
  8
Layer_3
  10
80.44178
  20
157.27283
  0
VERTEX
  5
48a
  8
Layer_3
  10
83.433769
  20
157.27936
  0
VERTEX
  5
48b
  8
Layer_3
  10
83.80764
  20
157.32077
  0
VERTEX
  5
48c
  8
Layer_3
  10
84.169296
  20
157.41644
  0
VERTEX
  5
48d
  8
Layer_3
  10
84.512932
  20
157.56433
  0
VERTEX
  5
48e
  8
Layer_3
  10
84.832718
  20
157.76241
  0
VERTEX
  5
48f
  8
Layer_3
  10
85.000946
  20
157.93832
  0
VERTEX
  5
490
  8
Layer_3
  10
85.141998
  20
158.13521
  0
VERTEX
  5
491
  8
Layer_3
  10
85.253967
  20
158.34998
  0
VERTEX
  5
492
  8
Layer_3
  10
85.334938
  20
158.57951
  0
VERTEX
  5
493
  8
Layer_3
  10
85.42881
  20
159.02194
  0
VERTEX
  5
494
  8
Layer_3
  10
85.492889
  20
159.46918
  0
VERTEX
  5
495
  8
Layer_3
  10
85.527023
  20
159.91968
  0
VERTEX
  5
496
  8
Layer_3
  10
85.531029
  20
160.37195
  0
VERTEX
  5
497
  8
Layer_3
  10
83.459038
  20
160.36743
  0
VERTEX
  5
498
  8
Layer_3
  10
83.466072
  20
160.80743
  0
VERTEX
  5
499
  8
Layer_3
  10
85.530067
  20
160.81194
  0
VERTEX
  5
49a
  8
Layer_3
  10
85.52932
  20
161.36784
  0
VERTEX
  5
49b
  8
Layer_3
  10
85.479988
  20
161.9205
  0
VERTEX
  5
49c
  8
Layer_3
  10
85.3825
  20
162.46671
  0
VERTEX
  5
49d
  8
Layer_3
  10
85.237282
  20
163.00331
  0
VERTEX
  5
49e
  8
Layer_3
  10
85.040916
  20
163.34262
  0
VERTEX
  5
49f
  8
Layer_3
  10
84.770988
  20
163.61885
  0
VERTEX
  5
4a0
  8
Layer_3
  10
84.441696
  20
163.82068
  0
VERTEX
  5
4a1
  8
Layer_3
  10
84.067245
  20
163.93675
  0
VERTEX
  5
4a2
  8
Layer_3
  10
83.760887
  20
163.99242
  0
VERTEX
  5
4a3
  8
Layer_3
  10
83.451057
  20
164.02341
  0
VERTEX
  5
4a4
  8
Layer_3
  10
83.458038
  20
164.48743
  0
VERTEX
  5
4a5
  8
Layer_3
  10
83.674065
  20
164.4799
  0
SEQEND
  0
POLYLINE
  5
4a7
  8
Layer_3
  62
30
  70
1
  66
1
  10
0
  20
0
  30
0
  0
VERTEX
  5
4a7
  8
Layer_3
  10
132.0022
  20
164.46536
  0
VERTEX
  5
4a8
  8
Layer_3
  10
133.20247
  20
164.33998
  0
VERTEX
  5
4a9
  8
Layer_3
  10
133.21127
  20
163.972
  0
VERTEX
  5
4aa
  8
Layer_3
  10
131.98727
  20
163.96933
  0
VERTEX
  5
4ab
  8
Layer_3
  10
132.03763
  20
159.22543
  0
VERTEX
  5
4ac
  8
Layer_3
  10
132.02971
  20
158.83919
  0
VERTEX
  5
4ad
  8
Layer_3
  10
131.97504
  20
158.45816
  0
VERTEX
  5
4ae
  8
Layer_3
  10
131.87448
  20
158.08661
  0
VERTEX
  5
4af
  8
Layer_3
  10
131.72891
  20
157.72876
  0
VERTEX
  5
4b0
  8
Layer_3
  10
131.60832
  20
157.55753
  0
VERTEX
  5
4b1
  8
Layer_3
  10
131.46898
  20
157.40443
  0
VERTEX
  5
4b2
  8
Layer_3
  10
131.31296
  20
157.27069
  0
VERTEX
  5
4b3
  8
Layer_3
  10
131.1423
  20
157.15747
  0
VERTEX
  5
4b4
  8
Layer_3
  10
130.95908
  20
157.06596
  0
VERTEX
  5
4b5
  8
Layer_3
  10
130.76535
  20
156.99739
  0
VERTEX
  5
4b6
  8
Layer_3
  10
130.56317
  20
156.95293
  0
VERTEX
  5
4b7
  8
Layer_3
  10
130.35463
  20
156.93375
  0
VERTEX
  5
4b8
  8
Layer_3
  10
129.77467
  20
156.91649
  0
VERTEX
  5
4b9
  8
Layer_3
  10
129.19464
  20
156.93121
  0
VERTEX
  5
4ba
  8
Layer_3
  10
129.19376
  20
157.33122
  0
VERTEX
  5
4bb
  8
Layer_3
  10
129.85753
  20
157.38065
  0
VERTEX
  5
4bc
  8
Layer_3
  10
130.5134
  20
157.49409
  0
VERTEX
  5
4bd
  8
Layer_3
  10
130.70087
  20
157.56691
  0
VERTEX
  5
4be
  8
Layer_3
  10
130.87134
  20
157.66637
  0
VERTEX
  5
4bf
  8
Layer_3
  10
131.02261
  20
157.78964
  0
VERTEX
  5
4c0
  8
Layer_3
  10
131.15256
  20
157.93391
  0
VERTEX
  5
4c1
  8
Layer_3
  10
131.25891
  20
158.09631
  0
VERTEX
  5
4c2
  8
Layer_3
  10
131.33954
  20
158.27403
  0
VERTEX
  5
4c3
  8
Layer_3
  10
131.39226
  20
158.46423
  0
VERTEX
  5
4c4
  8
Layer_3
  10
131.41486
  20
158.66406
  0
VERTEX
  5
4c5
  8
Layer_3
  10
131.44647
  20
158.94728
  0
VERTEX
  5
4c6
  8
Layer_3
  10
131.45361
  20
159.23216
  0
VERTEX
  5
4c7
  8
Layer_3
  10
131.45129
  20
163.96815
  0
VERTEX
  5
4c8
  8
Layer_3
  10
129.06729
  20
163.96295
  0
VERTEX
  5
4c9
  8
Layer_3
  10
129.07422
  20
164.45897
  0
VERTEX
  5
4ca
  8
Layer_3
  10
131.4502
  20
164.46416
  0
VERTEX
  5
4cb
  8
Layer_3
  10
131.45358
  20
166.57617
  0
VERTEX
  5
4cc
  8
Layer_3
  10
131.87756
  20
166.5851
  0
VERTEX
  5
4cd
  8
Layer_3
  10
132.0022
  20
164.46536
  0
SEQEND
  0
POLYLINE
  5
4cf
  8
Layer_3
  62
30
  70
1
  66
1
  10
0
  20
0
  30
0
  0
VERTEX
  5
4cf
  8
Layer_3
  10
140.82959
  20
166.58864
  0
VERTEX
  5
4d0
  8
Layer_3
  10
140.95419
  20
164.4769
  0
VERTEX
  5
4d1
  8
Layer_3
  10
142.17047
  20
164.35155
  0
VERTEX
  5
4d2
  8
Layer_3
  10
142.1633
  20
163.97554
  0
VERTEX
  5
4d3
  8
Layer_3
  10
140.94728
  20
163.98088
  0
VERTEX
  5
4d4
  8
Layer_3
  10
140.98489
  20
161.4131
  0
VERTEX
  5
4d5
  8
Layer_3
  10
140.99048
  20
158.84497
  0
VERTEX
  5
4d6
  8
Layer_3
  10
140.94669
  20
158.43658
  0
VERTEX
  5
4d7
  8
Layer_3
  10
140.82858
  20
158.04695
  0
VERTEX
  5
4d8
  8
Layer_3
  10
140.64024
  20
157.68597
  0
VERTEX
  5
4d9
  8
Layer_3
  10
140.38571
  20
157.36365
  0
VERTEX
  5
4da
  8
Layer_3
  10
140.1133
  20
157.17395
  0
VERTEX
  5
4db
  8
Layer_3
  10
139.81345
  20
157.03781
  0
VERTEX
  5
4dc
  8
Layer_3
  10
139.49397
  20
156.95792
  0
VERTEX
  5
4dd
  8
Layer_3
  10
139.16264
  20
156.93697
  0
VERTEX
  5
4de
  8
Layer_3
  10
138.14664
  20
156.93475
  0
VERTEX
  5
4df
  8
Layer_3
  10
138.14575
  20
157.34276
  0
VERTEX
  5
4e0
  8
Layer_3
  10
138.70966
  20
157.39963
  0
VERTEX
  5
4e1
  8
Layer_3
  10
139.27351
  20
157.45721
  0
VERTEX
  5
4e2
  8
Layer_3
  10
139.49681
  20
157.50772
  0
VERTEX
  5
4e3
  8
Layer_3
  10
139.70258
  20
157.59497
  0
VERTEX
  5
4e4
  8
Layer_3
  10
139.88734
  20
157.71515
  0
VERTEX
  5
4e5
  8
Layer_3
  10
140.04765
  20
157.86443
  0
VERTEX
  5
4e6
  8
Layer_3
  10
140.18002
  20
158.03894
  0
VERTEX
  5
4e7
  8
Layer_3
  10
140.28099
  20
158.23486
  0
VERTEX
  5
4e8
  8
Layer_3
  10
140.34709
  20
158.44836
  0
VERTEX
  5
4e9
  8
Layer_3
  10
140.37485
  20
158.67563
  0
VERTEX
  5
4ea
  8
Layer_3
  10
140.40639
  20
158.95879
  0
VERTEX
  5
4eb
  8
Layer_3
  10
140.40561
  20
159.2437
  0
VERTEX
  5
4ec
  8
Layer_3
  10
140.40327
  20
163.97969
  0
VERTEX
  5
4ed
  8
Layer_3
  10
138.02728
  20
163.97452
  0
VERTEX
  5
4ee
  8
Layer_3
  10
138.0262
  20
164.4705
  0
VERTEX
  5
4ef
  8
Layer_3
  10
140.40219
  20
164.47569
  0
VERTEX
  5
4f0
  8
Layer_3
  10
140.40558
  20
166.58771
  0
VERTEX
  5
4f1
  8
Layer_3
  10
140.82959
  20
166.58864
  0
SEQEND
  0
POLYLINE
  5
4f3
  8
Layer_3
  62
30
  70
1
  66
1
  10
0
  20
0
  30
0
  0
VERTEX
  5
4f3
  8
Layer_3
  10
127.31506
  20
167.73514
  0
VERTEX
  5
4f4
  8
Layer_3
  10
127.31464
  20
156.92711
  0
VERTEX
  5
4f5
  8
Layer_3
  10
126.73864
  20
156.92586
  0
VERTEX
  5
4f6
  8
Layer_3
  10
126.73293
  20
163.21387
  0
VERTEX
  5
4f7
  8
Layer_3
  10
126.34413
  20
163.44034
  0
VERTEX
  5
4f8
  8
Layer_3
  10
125.9395
  20
163.63126
  0
VERTEX
  5
4f9
  8
Layer_3
  10
125.52147
  20
163.78603
  0
VERTEX
  5
4fa
  8
Layer_3
  10
125.09247
  20
163.90411
  0
VERTEX
  5
4fb
  8
Layer_3
  10
124.65491
  20
163.98494
  0
VERTEX
  5
4fc
  8
Layer_3
  10
124.21123
  20
164.02797
  0
VERTEX
  5
4fd
  8
Layer_3
  10
123.76384
  20
164.03265
  0
VERTEX
  5
4fe
  8
Layer_3
  10
123.3152
  20
163.99841
  0
VERTEX
  5
4ff
  8
Layer_3
  10
123.05408
  20
163.89217
  0
VERTEX
  5
500
  8
Layer_3
  10
122.81602
  20
163.75034
  0
VERTEX
  5
501
  8
Layer_3
  10
122.60385
  20
163.57657
  0
VERTEX
  5
502
  8
Layer_3
  10
122.42043
  20
163.37448
  0
VERTEX
  5
503
  8
Layer_3
  10
122.26857
  20
163.14771
  0
VERTEX
  5
504
  8
Layer_3
  10
122.15112
  20
162.89989
  0
VERTEX
  5
505
  8
Layer_3
  10
122.07091
  20
162.63463
  0
VERTEX
  5
506
  8
Layer_3
  10
122.03078
  20
162.35559
  0
VERTEX
  5
507
  8
Layer_3
  10
122.01536
  20
162.09157
  0
VERTEX
  5
508
  8
Layer_3
  10
122.01865
  20
156.91556
  0
VERTEX
  5
509
  8
Layer_3
  10
121.44263
  20
156.9223
  0
VERTEX
  5
50a
  8
Layer_3
  10
121.42863
  20
159.66226
  0
VERTEX
  5
50b
  8
Layer_3
  10
121.43867
  20
162.40231
  0
VERTEX
  5
50c
  8
Layer_3
  10
121.4783
  20
162.71548
  0
VERTEX
  5
50d
  8
Layer_3
  10
121.55769
  20
163.0168
  0
VERTEX
  5
50e
  8
Layer_3
  10
121.67465
  20
163.3029
  0
VERTEX
  5
50f
  8
Layer_3
  10
121.82699
  20
163.5705
  0
VERTEX
  5
510
  8
Layer_3
  10
122.01251
  20
163.81624
  0
VERTEX
  5
511
  8
Layer_3
  10
122.22903
  20
164.0368
  0
VERTEX
  5
512
  8
Layer_3
  10
122.47438
  20
164.2289
  0
VERTEX
  5
513
  8
Layer_3
  10
122.74635
  20
164.38916
  0
VERTEX
  5
514
  8
Layer_3
  10
123.16533
  20
164.51796
  0
VERTEX
  5
515
  8
Layer_3
  10
123.59638
  20
164.58322
  0
VERTEX
  5
516
  8
Layer_3
  10
124.03235
  20
164.5844
  0
VERTEX
  5
517
  8
Layer_3
  10
124.46606
  20
164.52092
  0
VERTEX
  5
518
  8
Layer_3
  10
125.07048
  20
164.38622
  0
VERTEX
  5
519
  8
Layer_3
  10
125.65448
  20
164.18605
  0
VERTEX
  5
51a
  8
Layer_3
  10
126.21278
  20
163.92255
  0
VERTEX
  5
51b
  8
Layer_3
  10
126.74008
  20
163.59787
  0
VERTEX
  5
51c
  8
Layer_3
  10
126.73106
  20
167.73387
  0
VERTEX
  5
51d
  8
Layer_3
  10
127.31506
  20
167.73514
  0
SEQEND
  0
POLYLINE
  5
51f
  8
Layer_3
  62
30
  70
1
  66
1
  10
0
  20
0
  30
0
  0
VERTEX
  5
51f
  8
Layer_3
  10
107.17819
  20
164.44319
  0
VERTEX
  5
520
  8
Layer_3
  10
107.59833
  20
164.51228
  0
VERTEX
  5
521
  8
Layer_3
  10
108.01865
  20
164.52672
  0
VERTEX
  5
522
  8
Layer_3
  10
108.43423
  20
164.48793
  0
VERTEX
  5
523
  8
Layer_3
  10
108.84013
  20
164.39737
  0
VERTEX
  5
524
  8
Layer_3
  10
109.23141
  20
164.25645
  0
VERTEX
  5
525
  8
Layer_3
  10
109.60313
  20
164.06662
  0
VERTEX
  5
526
  8
Layer_3
  10
109.95036
  20
163.8293
  0
VERTEX
  5
527
  8
Layer_3
  10
110.26816
  20
163.54593
  0
VERTEX
  5
528
  8
Layer_3
  10
110.52487
  20
163.30629
  0
VERTEX
  5
529
  8
Layer_3
  10
110.75726
  20
163.043
  0
VERTEX
  5
52a
  8
Layer_3
  10
110.9222
  20
164.44336
  0
VERTEX
  5
52b
  8
Layer_3
  10
111.34618
  20
164.45229
  0
VERTEX
  5
52c
  8
Layer_3
  10
111.34665
  20
156.90828
  0
VERTEX
  5
52d
  8
Layer_3
  10
110.77065
  20
156.90701
  0
VERTEX
  5
52e
  8
Layer_3
  10
110.76618
  20
162.61902
  0
VERTEX
  5
52f
  8
Layer_3
  10
110.36407
  20
162.9825
  0
VERTEX
  5
530
  8
Layer_3
  10
109.92706
  20
163.30066
  0
VERTEX
  5
531
  8
Layer_3
  10
109.45897
  20
163.57101
  0
VERTEX
  5
532
  8
Layer_3
  10
108.96362
  20
163.79109
  0
VERTEX
  5
533
  8
Layer_3
  10
108.52177
  20
163.89392
  0
VERTEX
  5
534
  8
Layer_3
  10
108.07228
  20
163.94104
  0
VERTEX
  5
535
  8
Layer_3
  10
107.62043
  20
163.93219
  0
VERTEX
  5
536
  8
Layer_3
  10
107.17145
  20
163.86717
  0
VERTEX
  5
537
  8
Layer_3
  10
107.17819
  20
164.44319
  0
SEQEND
  0
POLYLINE
  5
539
  8
Layer_3
  62
30
  70
1
  66
1
  10
0
  20
0
  30
0
  0
VERTEX
  5
539
  8
Layer_3
  10
93.947044
  20
167.70233
  0
VERTEX
  5
53a
  8
Layer_3
  10
93.962631
  20
156.89433
  0
VERTEX
  5
53b
  8
Layer_3
  10
93.522636
  20
156.89337
  0
VERTEX
  5
53c
  8
Layer_3
  10
93.3769
  20
157.68506
  0
VERTEX
  5
53d
  8
Layer_3
  10
92.910126
  20
157.40228
  0
VERTEX
  5
53e
  8
Layer_3
  10
92.417282
  20
157.17146
  0
VERTEX
  5
53f
  8
Layer_3
  10
91.902687
  20
156.99435
  0
VERTEX
  5
540
  8
Layer_3
  10
91.370674
  20
156.87268
  0
VERTEX
  5
541
  8
Layer_3
  10
91.369667
  20
157.33669
  0
VERTEX
  5
542
  8
Layer_3
  10
91.746086
  20
157.41125
  0
VERTEX
  5
543
  8
Layer_3
  10
92.115128
  20
157.51431
  0
VERTEX
  5
544
  8
Layer_3
  10
92.475189
  20
157.64536
  0
VERTEX
  5
545
  8
Layer_3
  10
92.824654
  20
157.80385
  0
VERTEX
  5
546
  8
Layer_3
  10
93.10556
  20
157.91699
  0
VERTEX
  5
547
  8
Layer_3
  10
93.376099
  20
158.05305
  0
VERTEX
  5
548
  8
Layer_3
  10
93.372719
  20
163.26906
  0
VERTEX
  5
549
  8
Layer_3
  10
92.895767
  20
163.51465
  0
VERTEX
  5
54a
  8
Layer_3
  10
92.399857
  20
163.71649
  0
VERTEX
  5
54b
  8
Layer_3
  10
91.887993
  20
163.87354
  0
VERTEX
  5
54c
  8
Layer_3
  10
91.363152
  20
163.98468
  0
VERTEX
  5
54d
  8
Layer_3
  10
91.370163
  20
164.44069
  0
VERTEX
  5
54e
  8
Layer_3
  10
91.892227
  20
164.30203
  0
VERTEX
  5
54f
  8
Layer_3
  10
92.401352
  20
164.12395
  0
VERTEX
  5
550
  8
Layer_3
  10
92.895309
  20
163.90733
  0
VERTEX
  5
551
  8
Layer_3
  10
93.37188
  20
163.65306
  0
VERTEX
  5
552
  8
Layer_3
  10
93.371048
  20
167.70107
  0
VERTEX
  5
553
  8
Layer_3
  10
93.947044
  20
167.70233
  0
SEQEND
  0
POLYLINE
  5
555
  8
Layer_3
  62
30
  70
1
  66
1
  10
0
  20
0
  30
0
  0
VERTEX
  5
555
  8
Layer_3
  10
74.205376
  20
159.28322
  0
VERTEX
  5
556
  8
Layer_3
  10
74.206604
  20
158.86464
  0
VERTEX
  5
557
  8
Layer_3
  10
74.159119
  20
158.4502
  0
VERTEX
  5
558
  8
Layer_3
  10
74.063644
  20
158.0441
  0
VERTEX
  5
559
  8
Layer_3
  10
73.920944
  20
157.6506
  0
VERTEX
  5
55a
  8
Layer_3
  10
73.698463
  20
157.34338
  0
VERTEX
  5
55b
  8
Layer_3
  10
73.410194
  20
157.10599
  0
VERTEX
  5
55c
  8
Layer_3
  10
73.071716
  20
156.94821
  0
VERTEX
  5
55d
  8
Layer_3
  10
72.698616
  20
156.87993
  0
VERTEX
  5
55e
  8
Layer_3
  10
72.126663
  20
156.87067
  0
VERTEX
  5
55f
  8
Layer_3
  10
71.554642
  20
156.86943
  0
VERTEX
  5
560
  8
Layer_3
  10
71.553764
  20
157.26944
  0
VERTEX
  5
561
  8
Layer_3
  10
72.163101
  20
157.33495
  0
VERTEX
  5
562
  8
Layer_3
  10
72.769432
  20
157.42409
  0
VERTEX
  5
563
  8
Layer_3
  10
73.060181
  20
157.55646
  0
VERTEX
  5
564
  8
Layer_3
  10
73.295097
  20
157.76347
  0
VERTEX
  5
565
  8
Layer_3
  10
73.460678
  20
158.02922
  0
VERTEX
  5
566
  8
Layer_3
  10
73.543442
  20
158.33778
  0
VERTEX
  5
567
  8
Layer_3
  10
73.60675
  20
158.82809
  0
VERTEX
  5
568
  8
Layer_3
  10
73.629295
  20
159.32196
  0
VERTEX
  5
569
  8
Layer_3
  10
73.619041
  20
167.68196
  0
VERTEX
  5
56a
  8
Layer_3
  10
74.203026
  20
167.69124
  0
VERTEX
  5
56b
  8
Layer_3
  10
74.205376
  20
159.28322
  0
SEQEND
  0
POLYLINE
  5
56d
  8
Layer_3
  62
30
  70
1
  66
1
  10
0
  20
0
  30
0
  0
VERTEX
  5
56d
  8
Layer_3
  10
70.194183
  20
164.41049
  0
VERTEX
  5
56e
  8
Layer_3
  10
70.194641
  20
156.86647
  0
VERTEX
  5
56f
  8
Layer_3
  10
69.618622
  20
156.87321
  0
VERTEX
  5
570
  8
Layer_3
  10
69.610184
  20
164.40921
  0
VERTEX
  5
571
  8
Layer_3
  10
70.194183
  20
164.41049
  0
SEQEND
  0
POLYLINE
  5
573
  8
Layer_3
  62
30
  70
1
  66
1
  10
0
  20
0
  30
0
  0
VERTEX
  5
573
  8
Layer_3
  10
58.051041
  20
167.672
  0
VERTEX
  5
574
  8
Layer_3
  10
58.05864
  20
156.85599
  0
VERTEX
  5
575
  8
Layer_3
  10
57.482605
  20
156.86273
  0
VERTEX
  5
576
  8
Layer_3
  10
57.476898
  20
163.15073
  0
VERTEX
  5
577
  8
Layer_3
  10
56.897873
  20
163.4566
  0
VERTEX
  5
578
  8
Layer_3
  10
56.291885
  20
163.70013
  0
VERTEX
  5
579
  8
Layer_3
  10
55.66394
  20
163.87964
  0
VERTEX
  5
57a
  8
Layer_3
  10
55.019058
  20
163.99336
  0
VERTEX
  5
57b
  8
Layer_3
  10
54.714943
  20
163.99931
  0
VERTEX
  5
57c
  8
Layer_3
  10
54.412296
  20
163.9767
  0
VERTEX
  5
57d
  8
Layer_3
  10
54.113113
  20
163.92577
  0
VERTEX
  5
57e
  8
Layer_3
  10
53.819382
  20
163.84674
  0
VERTEX
  5
57f
  8
Layer_3
  10
53.576458
  20
163.70003
  0
VERTEX
  5
580
  8
Layer_3
  10
53.360744
  20
163.52252
  0
VERTEX
  5
581
  8
Layer_3
  10
53.174408
  20
163.31799
  0
VERTEX
  5
582
  8
Layer_3
  10
53.019623
  20
163.09015
  0
VERTEX
  5
583
  8
Layer_3
  10
52.898552
  20
162.84273
  0
VERTEX
  5
584
  8
Layer_3
  10
52.813374
  20
162.57948
  0
VERTEX
  5
585
  8
Layer_3
  10
52.766251
  20
162.30414
  0
VERTEX
  5
586
  8
Layer_3
  10
52.759354
  20
162.02043
  0
VERTEX
  5
587
  8
Layer_3
  10
52.754623
  20
156.8524
  0
VERTEX
  5
588
  8
Layer_3
  10
52.178635
  20
156.85115
  0
VERTEX
  5
589
  8
Layer_3
  10
52.180748
  20
159.54732
  0
VERTEX
  5
58a
  8
Layer_3
  10
52.174866
  20
162.24315
  0
VERTEX
  5
58b
  8
Layer_3
  10
52.214436
  20
162.66225
  0
VERTEX
  5
58c
  8
Layer_3
  10
52.326332
  20
163.05746
  0
VERTEX
  5
58d
  8
Layer_3
  10
52.504082
  20
163.42137
  0
VERTEX
  5
58e
  8
Layer_3
  10
52.741203
  20
163.74654
  0
VERTEX
  5
58f
  8
Layer_3
  10
53.031223
  20
164.02556
  0
VERTEX
  5
590
  8
Layer_3
  10
53.367668
  20
164.25101
  0
VERTEX
  5
591
  8
Layer_3
  10
53.744064
  20
164.41545
  0
VERTEX
  5
592
  8
Layer_3
  10
54.153931
  20
164.51147
  0
VERTEX
  5
593
  8
Layer_3
  10
54.596771
  20
164.50983
  0
VERTEX
  5
594
  8
Layer_3
  10
55.035851
  20
164.47255
  0
VERTEX
  5
595
  8
Layer_3
  10
55.469116
  20
164.40025
  0
VERTEX
  5
596
  8
Layer_3
  10
55.894497
  20
164.29353
  0
VERTEX
  5
597
  8
Layer_3
  10
56.309944
  20
164.15303
  0
VERTEX
  5
598
  8
Layer_3
  10
56.71339
  20
163.97932
  0
VERTEX
  5
599
  8
Layer_3
  10
57.102783
  20
163.77301
  0
VERTEX
  5
59a
  8
Layer_3
  10
57.476059
  20
163.53473
  0
VERTEX
  5
59b
  8
Layer_3
  10
57.467041
  20
167.67072
  0
VERTEX
  5
59c
  8
Layer_3
  10
58.051041
  20
167.672
  0
SEQEND
  0
POLYLINE
  5
59e
  8
Layer_3
  62
30
  70
1
  66
1
  10
0
  20
0
  30
0
  0
VERTEX
  5
59e
  8
Layer_3
  10
49.30957
  20
166.50092
  0
VERTEX
  5
59f
  8
Layer_3
  10
49.434174
  20
164.38918
  0
VERTEX
  5
5a0
  8
Layer_3
  10
50.642456
  20
164.26382
  0
VERTEX
  5
5a1
  8
Layer_3
  10
50.635254
  20
163.8958
  0
VERTEX
  5
5a2
  8
Layer_3
  10
49.41925
  20
163.89314
  0
VERTEX
  5
5a3
  8
Layer_3
  10
49.46962
  20
159.14125
  0
VERTEX
  5
5a4
  8
Layer_3
  10
49.484795
  20
158.87772
  0
VERTEX
  5
5a5
  8
Layer_3
  10
49.470139
  20
158.61673
  0
VERTEX
  5
5a6
  8
Layer_3
  10
49.426472
  20
158.36064
  0
VERTEX
  5
5a7
  8
Layer_3
  10
49.354618
  20
158.11179
  0
VERTEX
  5
5a8
  8
Layer_3
  10
49.255398
  20
157.87251
  0
VERTEX
  5
5a9
  8
Layer_3
  10
49.129639
  20
157.6452
  0
VERTEX
  5
5aa
  8
Layer_3
  10
48.978165
  20
157.43217
  0
VERTEX
  5
5ab
  8
Layer_3
  10
48.801788
  20
157.23578
  0
VERTEX
  5
5ac
  8
Layer_3
  10
48.576675
  20
157.07372
  0
VERTEX
  5
5ad
  8
Layer_3
  10
48.328308
  20
156.95512
  0
VERTEX
  5
5ae
  8
Layer_3
  10
48.062881
  20
156.88229
  0
VERTEX
  5
5af
  8
Layer_3
  10
47.786606
  20
156.85756
  0
VERTEX
  5
5b0
  8
Layer_3
  10
47.206734
  20
156.84029
  0
VERTEX
  5
5b1
  8
Layer_3
  10
46.626633
  20
156.84703
  0
VERTEX
  5
5b2
  8
Layer_3
  10
46.625748
  20
157.25504
  0
VERTEX
  5
5b3
  8
Layer_3
  10
47.288841
  20
157.30469
  0
VERTEX
  5
5b4
  8
Layer_3
  10
47.945404
  20
157.40991
  0
VERTEX
  5
5b5
  8
Layer_3
  10
48.264359
  20
157.55409
  0
VERTEX
  5
5b6
  8
Layer_3
  10
48.526051
  20
157.77667
  0
VERTEX
  5
5b7
  8
Layer_3
  10
48.716881
  20
158.06235
  0
VERTEX
  5
5b8
  8
Layer_3
  10
48.823273
  20
158.39583
  0
VERTEX
  5
5b9
  8
Layer_3
  10
48.870728
  20
158.77478
  0
VERTEX
  5
5ba
  8
Layer_3
  10
48.8936
  20
159.15599
  0
VERTEX
  5
5bb
  8
Layer_3
  10
48.883255
  20
163.89198
  0
VERTEX
  5
5bc
  8
Layer_3
  10
46.499268
  20
163.88678
  0
VERTEX
  5
5bd
  8
Layer_3
  10
46.506195
  20
164.3828
  0
VERTEX
  5
5be
  8
Layer_3
  10
48.882187
  20
164.38797
  0
VERTEX
  5
5bf
  8
Layer_3
  10
48.88559
  20
166.49998
  0
VERTEX
  5
5c0
  8
Layer_3
  10
49.30957
  20
166.50092
  0
SEQEND
  0
POLYLINE
  5
5c2
  8
Layer_3
  62
30
  70
1
  66
1
  10
0
  20
0
  30
0
  0
VERTEX
  5
5c2
  8
Layer_3
  10
63.138123
  20
164.42709
  0
VERTEX
  5
5c3
  8
Layer_3
  10
63.139206
  20
163.93109
  0
VERTEX
  5
5c4
  8
Layer_3
  10
62.775291
  20
163.93211
  0
VERTEX
  5
5c5
  8
Layer_3
  10
62.416977
  20
163.88043
  0
VERTEX
  5
5c6
  8
Layer_3
  10
62.069939
  20
163.77731
  0
VERTEX
  5
5c7
  8
Layer_3
  10
61.739868
  20
163.62404
  0
VERTEX
  5
5c8
  8
Layer_3
  10
61.440506
  20
163.34306
  0
VERTEX
  5
5c9
  8
Layer_3
  10
61.213799
  20
163.0067
  0
VERTEX
  5
5ca
  8
Layer_3
  10
61.066895
  20
162.6286
  0
VERTEX
  5
5cb
  8
Layer_3
  10
61.006943
  20
162.22243
  0
VERTEX
  5
5cc
  8
Layer_3
  10
60.977867
  20
161.99152
  0
VERTEX
  5
5cd
  8
Layer_3
  10
60.975616
  20
161.76109
  0
VERTEX
  5
5ce
  8
Layer_3
  10
60.999561
  20
161.53336
  0
VERTEX
  5
5cf
  8
Layer_3
  10
61.049088
  20
161.31049
  0
VERTEX
  5
5d0
  8
Layer_3
  10
61.123573
  20
161.09468
  0
VERTEX
  5
5d1
  8
Layer_3
  10
61.222416
  20
160.88812
  0
VERTEX
  5
5d2
  8
Layer_3
  10
61.344986
  20
160.69299
  0
VERTEX
  5
5d3
  8
Layer_3
  10
61.490662
  20
160.51149
  0
VERTEX
  5
5d4
  8
Layer_3
  10
61.719826
  20
160.33524
  0
VERTEX
  5
5d5
  8
Layer_3
  10
61.973457
  20
160.20061
  0
VERTEX
  5
5d6
  8
Layer_3
  10
62.245934
  20
160.10997
  0
VERTEX
  5
5d7
  8
Layer_3
  10
62.531631
  20
160.06575
  0
VERTEX
  5
5d8
  8
Layer_3
  10
62.83931
  20
160.0341
  0
VERTEX
  5
5d9
  8
Layer_3
  10
63.147766
  20
160.01109
  0
VERTEX
  5
5da
  8
Layer_3
  10
63.148788
  20
159.53909
  0
VERTEX
  5
5db
  8
Layer_3
  10
62.715797
  20
159.54092
  0
VERTEX
  5
5dc
  8
Layer_3
  10
62.288895
  20
159.60037
  0
VERTEX
  5
5dd
  8
Layer_3
  10
61.873745
  20
159.71628
  0
VERTEX
  5
5de
  8
Layer_3
  10
61.476013
  20
159.88745
  0
VERTEX
  5
5df
  8
Layer_3
  10
61.265629
  20
160.03688
  0
VERTEX
  5
5e0
  8
Layer_3
  10
61.075729
  20
160.20781
  0
VERTEX
  5
5e1
  8
Layer_3
  10
60.907635
  20
160.3981
  0
VERTEX
  5
5e2
  8
Layer_3
  10
60.762665
  20
160.60562
  0
VERTEX
  5
5e3
  8
Layer_3
  10
60.642132
  20
160.82822
  0
VERTEX
  5
5e4
  8
Layer_3
  10
60.547359
  20
161.06378
  0
VERTEX
  5
5e5
  8
Layer_3
  10
60.479664
  20
161.31015
  0
VERTEX
  5
5e6
  8
Layer_3
  10
60.440369
  20
161.56519
  0
VERTEX
  5
5e7
  8
Layer_3
  10
60.439011
  20
162.18919
  0
VERTEX
  5
5e8
  8
Layer_3
  10
60.46936
  20
162.47353
  0
VERTEX
  5
5e9
  8
Layer_3
  10
60.537937
  20
162.74684
  0
VERTEX
  5
5ea
  8
Layer_3
  10
60.642506
  20
163.00577
  0
VERTEX
  5
5eb
  8
Layer_3
  10
60.780838
  20
163.24699
  0
VERTEX
  5
5ec
  8
Layer_3
  10
60.950699
  20
163.46715
  0
VERTEX
  5
5ed
  8
Layer_3
  10
61.149853
  20
163.6629
  0
VERTEX
  5
5ee
  8
Layer_3
  10
61.376072
  20
163.8309
  0
VERTEX
  5
5ef
  8
Layer_3
  10
61.627121
  20
163.96779
  0
VERTEX
  5
5f0
  8
Layer_3
  10
59.610916
  20
164.06738
  0
VERTEX
  5
5f1
  8
Layer_3
  10
59.610138
  20
164.41939
  0
VERTEX
  5
5f2
  8
Layer_3
  10
63.138123
  20
164.42709
  0
SEQEND
  0
POLYLINE
  5
5f4
  8
Layer_3
  62
30
  70
1
  66
1
  10
0
  20
0
  30
0
  0
VERTEX
  5
5f4
  8
Layer_3
  10
145.65401
  20
164.56746
  0
VERTEX
  5
5f5
  8
Layer_3
  10
145.65503
  20
164.09546
  0
VERTEX
  5
5f6
  8
Layer_3
  10
145.29382
  20
164.09123
  0
VERTEX
  5
5f7
  8
Layer_3
  10
144.93654
  20
164.04622
  0
VERTEX
  5
5f8
  8
Layer_3
  10
144.58665
  20
163.96106
  0
VERTEX
  5
5f9
  8
Layer_3
  10
144.24759
  20
163.83638
  0
VERTEX
  5
5fa
  8
Layer_3
  10
143.95428
  20
163.61049
  0
VERTEX
  5
5fb
  8
Layer_3
  10
143.72849
  20
163.32401
  0
VERTEX
  5
5fc
  8
Layer_3
  10
143.57889
  20
162.99132
  0
VERTEX
  5
5fd
  8
Layer_3
  10
143.51424
  20
162.62679
  0
VERTEX
  5
5fe
  8
Layer_3
  10
143.48804
  20
162.31494
  0
VERTEX
  5
5ff
  8
Layer_3
  10
143.49997
  20
162.00339
  0
VERTEX
  5
600
  8
Layer_3
  10
143.54973
  20
161.69559
  0
VERTEX
  5
601
  8
Layer_3
  10
143.63693
  20
161.39505
  0
VERTEX
  5
602
  8
Layer_3
  10
143.8002
  20
161.19783
  0
VERTEX
  5
603
  8
Layer_3
  10
144.00223
  20
161.04619
  0
VERTEX
  5
604
  8
Layer_3
  10
144.23389
  20
160.94543
  0
VERTEX
  5
605
  8
Layer_3
  10
144.48601
  20
160.90089
  0
VERTEX
  5
606
  8
Layer_3
  10
145.06516
  20
160.85437
  0
VERTEX
  5
607
  8
Layer_3
  10
145.64609
  20
160.86343
  0
VERTEX
  5
608
  8
Layer_3
  10
145.65504
  20
160.42345
  0
VERTEX
  5
609
  8
Layer_3
  10
145.22804
  20
160.40594
  0
VERTEX
  5
60a
  8
Layer_3
  10
144.80165
  20
160.42226
  0
VERTEX
  5
60b
  8
Layer_3
  10
144.37788
  20
160.47224
  0
VERTEX
  5
60c
  8
Layer_3
  10
143.95876
  20
160.55576
  0
VERTEX
  5
60d
  8
Layer_3
  10
143.72827
  20
160.66449
  0
VERTEX
  5
60e
  8
Layer_3
  10
143.5224
  20
160.80606
  0
VERTEX
  5
60f
  8
Layer_3
  10
143.34366
  20
160.97647
  0
VERTEX
  5
610
  8
Layer_3
  10
143.19464
  20
161.17172
  0
VERTEX
  5
611
  8
Layer_3
  10
143.07793
  20
161.38785
  0
VERTEX
  5
612
  8
Layer_3
  10
142.99609
  20
161.62085
  0
VERTEX
  5
613
  8
Layer_3
  10
142.95169
  20
161.86674
  0
VERTEX
  5
614
  8
Layer_3
  10
142.94733
  20
162.12155
  0
VERTEX
  5
615
  8
Layer_3
  10
142.95999
  20
162.47742
  0
VERTEX
  5
616
  8
Layer_3
  10
143.01079
  20
162.82886
  0
VERTEX
  5
617
  8
Layer_3
  10
143.09911
  20
163.17279
  0
VERTEX
  5
618
  8
Layer_3
  10
143.22432
  20
163.50615
  0
VERTEX
  5
619
  8
Layer_3
  10
143.35184
  20
163.71333
  0
VERTEX
  5
61a
  8
Layer_3
  10
143.50345
  20
163.89957
  0
VERTEX
  5
61b
  8
Layer_3
  10
143.67654
  20
164.06322
  0
VERTEX
  5
61c
  8
Layer_3
  10
143.86856
  20
164.20265
  0
VERTEX
  5
61d
  8
Layer_3
  10
144.0769
  20
164.31624
  0
VERTEX
  5
61e
  8
Layer_3
  10
144.29903
  20
164.40233
  0
VERTEX
  5
61f
  8
Layer_3
  10
144.53232
  20
164.4593
  0
VERTEX
  5
620
  8
Layer_3
  10
144.77419
  20
164.48553
  0
VERTEX
  5
621
  8
Layer_3
  10
145.21182
  20
164.55099
  0
VERTEX
  5
622
  8
Layer_3
  10
145.65401
  20
164.56746
  0
SEQEND
  0
POLYLINE
  5
624
  8
Layer_3
  62
30
  70
1
  66
1
  10
0
  20
0
  30
0
  0
VERTEX
  5
624
  8
Layer_3
  10
115.59804
  20
164.52536
  0
VERTEX
  5
625
  8
Layer_3
  10
115.59905
  20
164.06137
  0
VERTEX
  5
626
  8
Layer_3
  10
115.24884
  20
164.0529
  0
VERTEX
  5
627
  8
Layer_3
  10
114.90319
  20
164.00377
  0
VERTEX
  5
628
  8
Layer_3
  10
114.56562
  20
163.9147
  0
VERTEX
  5
629
  8
Layer_3
  10
114.23965
  20
163.78641
  0
VERTEX
  5
62a
  8
Layer_3
  10
113.96783
  20
163.55692
  0
VERTEX
  5
62b
  8
Layer_3
  10
113.75954
  20
163.27446
  0
VERTEX
  5
62c
  8
Layer_3
  10
113.62195
  20
162.9516
  0
VERTEX
  5
62d
  8
Layer_3
  10
113.56225
  20
162.60092
  0
VERTEX
  5
62e
  8
Layer_3
  10
113.53512
  20
162.28903
  0
VERTEX
  5
62f
  8
Layer_3
  10
113.54675
  20
161.9774
  0
VERTEX
  5
630
  8
Layer_3
  10
113.59681
  20
161.66959
  0
VERTEX
  5
631
  8
Layer_3
  10
113.68493
  20
161.36919
  0
VERTEX
  5
632
  8
Layer_3
  10
113.81554
  20
161.19714
  0
VERTEX
  5
633
  8
Layer_3
  10
113.978
  20
161.05861
  0
VERTEX
  5
634
  8
Layer_3
  10
114.16617
  20
160.95773
  0
VERTEX
  5
635
  8
Layer_3
  10
114.37395
  20
160.89868
  0
VERTEX
  5
636
  8
Layer_3
  10
114.67999
  20
160.85295
  0
VERTEX
  5
637
  8
Layer_3
  10
114.98801
  20
160.82747
  0
VERTEX
  5
638
  8
Layer_3
  10
115.29704
  20
160.82225
  0
VERTEX
  5
639
  8
Layer_3
  10
115.60609
  20
160.83737
  0
VERTEX
  5
63a
  8
Layer_3
  10
115.60705
  20
160.39737
  0
VERTEX
  5
63b
  8
Layer_3
  10
115.19753
  20
160.37894
  0
VERTEX
  5
63c
  8
Layer_3
  10
114.78873
  20
160.39635
  0
VERTEX
  5
63d
  8
Layer_3
  10
114.38301
  20
160.44937
  0
VERTEX
  5
63e
  8
Layer_3
  10
113.98274
  20
160.53784
  0
VERTEX
  5
63f
  8
Layer_3
  10
113.75479
  20
160.64644
  0
VERTEX
  5
640
  8
Layer_3
  10
113.55156
  20
160.78775
  0
VERTEX
  5
641
  8
Layer_3
  10
113.37562
  20
160.95772
  0
VERTEX
  5
642
  8
Layer_3
  10
113.22955
  20
161.1523
  0
VERTEX
  5
643
  8
Layer_3
  10
113.11592
  20
161.36745
  0
VERTEX
  5
644
  8
Layer_3
  10
113.03729
  20
161.59909
  0
VERTEX
  5
645
  8
Layer_3
  10
112.99624
  20
161.84319
  0
VERTEX
  5
646
  8
Layer_3
  10
112.99535
  20
162.09567
  0
VERTEX
  5
647
  8
Layer_3
  10
113.00354
  20
162.47351
  0
VERTEX
  5
648
  8
Layer_3
  10
113.05696
  20
162.84624
  0
VERTEX
  5
649
  8
Layer_3
  10
113.15477
  20
163.20987
  0
VERTEX
  5
64a
  8
Layer_3
  10
113.29615
  20
163.56033
  0
VERTEX
  5
64b
  8
Layer_3
  10
113.42825
  20
163.74535
  0
VERTEX
  5
64c
  8
Layer_3
  10
113.5797
  20
163.91173
  0
VERTEX
  5
64d
  8
Layer_3
  10
113.74845
  20
164.05827
  0
VERTEX
  5
64e
  8
Layer_3
  10
113.93254
  20
164.18378
  0
VERTEX
  5
64f
  8
Layer_3
  10
114.12995
  20
164.28708
  0
VERTEX
  5
650
  8
Layer_3
  10
114.3387
  20
164.36693
  0
VERTEX
  5
651
  8
Layer_3
  10
114.55679
  20
164.42216
  0
VERTEX
  5
652
  8
Layer_3
  10
114.7822
  20
164.45158
  0
VERTEX
  5
653
  8
Layer_3
  10
115.18829
  20
164.50871
  0
VERTEX
  5
654
  8
Layer_3
  10
115.59804
  20
164.52536
  0
SEQEND
  0
POLYLINE
  5
656
  8
Layer_3
  62
30
  70
1
  66
1
  10
0
  20
0
  30
0
  0
VERTEX
  5
656
  8
Layer_3
  10
102.15905
  20
164.05574
  0
VERTEX
  5
657
  8
Layer_3
  10
101.776
  20
164.04506
  0
VERTEX
  5
658
  8
Layer_3
  10
101.39967
  20
163.98282
  0
VERTEX
  5
659
  8
Layer_3
  10
101.03522
  20
163.87024
  0
VERTEX
  5
65a
  8
Layer_3
  10
100.68781
  20
163.70853
  0
VERTEX
  5
65b
  8
Layer_3
  10
100.47853
  20
163.51834
  0
VERTEX
  5
65c
  8
Layer_3
  10
100.31292
  20
163.29254
  0
VERTEX
  5
65d
  8
Layer_3
  10
100.19527
  20
163.03844
  0
VERTEX
  5
65e
  8
Layer_3
  10
100.12987
  20
162.76331
  0
VERTEX
  5
65f
  8
Layer_3
  10
100.07931
  20
162.41554
  0
VERTEX
  5
660
  8
Layer_3
  10
100.07649
  20
162.0657
  0
VERTEX
  5
661
  8
Layer_3
  10
100.12111
  20
161.71872
  0
VERTEX
  5
662
  8
Layer_3
  10
100.21289
  20
161.37949
  0
VERTEX
  5
663
  8
Layer_3
  10
100.35021
  20
161.18488
  0
VERTEX
  5
664
  8
Layer_3
  10
100.52924
  20
161.03345
  0
VERTEX
  5
665
  8
Layer_3
  10
100.74036
  20
160.93144
  0
VERTEX
  5
666
  8
Layer_3
  10
100.97397
  20
160.88515
  0
VERTEX
  5
667
  8
Layer_3
  10
101.19172
  20
160.83734
  0
VERTEX
  5
668
  8
Layer_3
  10
101.41412
  20
160.8221
  0
VERTEX
  5
669
  8
Layer_3
  10
102.16611
  20
160.82375
  0
VERTEX
  5
66a
  8
Layer_3
  10
102.16707
  20
160.38374
  0
VERTEX
  5
66b
  8
Layer_3
  10
101.79133
  20
160.36992
  0
VERTEX
  5
66c
  8
Layer_3
  10
101.41591
  20
160.38081
  0
VERTEX
  5
66d
  8
Layer_3
  10
101.04202
  20
160.41635
  0
VERTEX
  5
66e
  8
Layer_3
  10
100.67086
  20
160.47649
  0
VERTEX
  5
66f
  8
Layer_3
  10
100.44612
  20
160.55345
  0
VERTEX
  5
670
  8
Layer_3
  10
100.23984
  20
160.66237
  0
VERTEX
  5
671
  8
Layer_3
  10
100.0547
  20
160.80008
  0
VERTEX
  5
672
  8
Layer_3
  10
99.893387
  20
160.96344
  0
VERTEX
  5
673
  8
Layer_3
  10
99.758575
  20
161.14928
  0
VERTEX
  5
674
  8
Layer_3
  10
99.652939
  20
161.35442
  0
VERTEX
  5
675
  8
Layer_3
  10
99.57917
  20
161.57571
  0
VERTEX
  5
676
  8
Layer_3
  10
99.539948
  20
161.81001
  0
VERTEX
  5
677
  8
Layer_3
  10
99.539093
  20
162.18205
  0
VERTEX
  5
678
  8
Layer_3
  10
99.546318
  20
162.55403
  0
VERTEX
  5
679
  8
Layer_3
  10
99.60775
  20
162.89874
  0
VERTEX
  5
67a
  8
Layer_3
  10
99.712837
  20
163.23126
  0
VERTEX
  5
67b
  8
Layer_3
  10
99.859962
  20
163.54744
  0
VERTEX
  5
67c
  8
Layer_3
  10
100.04752
  20
163.84312
  0
VERTEX
  5
67d
  8
Layer_3
  10
100.32547
  20
164.07729
  0
VERTEX
  5
67e
  8
Layer_3
  10
100.63762
  20
164.25818
  0
VERTEX
  5
67f
  8
Layer_3
  10
100.97639
  20
164.38225
  0
VERTEX
  5
680
  8
Layer_3
  10
101.3342
  20
164.44594
  0
VERTEX
  5
681
  8
Layer_3
  10
101.74835
  20
164.50269
  0
VERTEX
  5
682
  8
Layer_3
  10
102.16604
  20
164.51976
  0
VERTEX
  5
683
  8
Layer_3
  10
102.15905
  20
164.05574
  0
SEQEND
  0
POLYLINE
  5
685
  8
Layer_3
  62
30
  70
1
  66
1
  10
0
  20
0
  30
0
  0
VERTEX
  5
685
  8
Layer_3
  10
82.389763
  20
164.50079
  0
VERTEX
  5
686
  8
Layer_3
  10
82.390793
  20
164.02879
  0
VERTEX
  5
687
  8
Layer_3
  10
81.973915
  20
164.024
  0
VERTEX
  5
688
  8
Layer_3
  10
81.566742
  20
163.94962
  0
VERTEX
  5
689
  8
Layer_3
  10
81.177826
  20
163.80797
  0
VERTEX
  5
68a
  8
Layer_3
  10
80.81572
  20
163.60136
  0
VERTEX
  5
68b
  8
Layer_3
  10
80.649612
  20
163.41862
  0
VERTEX
  5
68c
  8
Layer_3
  10
80.518219
  20
163.21164
  0
VERTEX
  5
68d
  8
Layer_3
  10
80.424034
  20
162.98526
  0
VERTEX
  5
68e
  8
Layer_3
  10
80.369598
  20
162.74438
  0
VERTEX
  5
68f
  8
Layer_3
  10
80.329102
  20
162.42006
  0
VERTEX
  5
690
  8
Layer_3
  10
80.3228
  20
162.09418
  0
VERTEX
  5
691
  8
Layer_3
  10
80.350601
  20
161.76942
  0
VERTEX
  5
692
  8
Layer_3
  10
80.412422
  20
161.44847
  0
VERTEX
  5
693
  8
Layer_3
  10
80.538208
  20
161.23753
  0
VERTEX
  5
694
  8
Layer_3
  10
80.708702
  20
161.06566
  0
VERTEX
  5
695
  8
Layer_3
  10
80.915375
  20
160.93958
  0
VERTEX
  5
696
  8
Layer_3
  10
81.149696
  20
160.86607
  0
VERTEX
  5
697
  8
Layer_3
  10
81.457718
  20
160.82022
  0
VERTEX
  5
698
  8
Layer_3
  10
81.767746
  20
160.79468
  0
VERTEX
  5
699
  8
Layer_3
  10
82.078781
  20
160.78952
  0
VERTEX
  5
69a
  8
Layer_3
  10
82.389832
  20
160.80479
  0
VERTEX
  5
69b
  8
Layer_3
  10
82.38279
  20
160.36478
  0
VERTEX
  5
69c
  8
Layer_3
  10
81.977234
  20
160.34644
  0
VERTEX
  5
69d
  8
Layer_3
  10
81.572418
  20
160.36388
  0
VERTEX
  5
69e
  8
Layer_3
  10
81.170715
  20
160.41689
  0
VERTEX
  5
69f
  8
Layer_3
  10
80.774483
  20
160.50526
  0
VERTEX
  5
6a0
  8
Layer_3
  10
80.543594
  20
160.61113
  0
VERTEX
  5
6a1
  8
Layer_3
  10
80.337738
  20
160.75084
  0
VERTEX
  5
6a2
  8
Layer_3
  10
80.159584
  20
160.92017
  0
VERTEX
  5
6a3
  8
Layer_3
  10
80.011841
  20
161.1149
  0
VERTEX
  5
6a4
  8
Layer_3
  10
79.897224
  20
161.33078
  0
VERTEX
  5
6a5
  8
Layer_3
  10
79.81842
  20
161.5636
  0
VERTEX
  5
6a6
  8
Layer_3
  10
79.778137
  20
161.80911
  0
VERTEX
  5
6a7
  8
Layer_3
  10
79.779076
  20
162.0631
  0
VERTEX
  5
6a8
  8
Layer_3
  10
79.787415
  20
162.4435
  0
VERTEX
  5
6a9
  8
Layer_3
  10
79.842247
  20
162.81856
  0
VERTEX
  5
6aa
  8
Layer_3
  10
79.942696
  20
163.18407
  0
VERTEX
  5
6ab
  8
Layer_3
  10
80.087868
  20
163.53577
  0
VERTEX
  5
6ac
  8
Layer_3
  10
80.218109
  20
163.72139
  0
VERTEX
  5
6ad
  8
Layer_3
  10
80.368011
  20
163.88828
  0
VERTEX
  5
6ae
  8
Layer_3
  10
80.535538
  20
164.03519
  0
VERTEX
  5
6af
  8
Layer_3
  10
80.718651
  20
164.1609
  0
VERTEX
  5
6b0
  8
Layer_3
  10
80.915291
  20
164.26416
  0
VERTEX
  5
6b1
  8
Layer_3
  10
81.123405
  20
164.34377
  0
VERTEX
  5
6b2
  8
Layer_3
  10
81.340973
  20
164.39845
  0
VERTEX
  5
6b3
  8
Layer_3
  10
81.565918
  20
164.427
  0
VERTEX
  5
6b4
  8
Layer_3
  10
81.976013
  20
164.48428
  0
VERTEX
  5
6b5
  8
Layer_3
  10
82.389763
  20
164.50079
  0
SEQEND
  0
POLYLINE
  5
6b7
  8
Layer_3
  62
30
  70
1
  66
1
  10
0
  20
0
  30
0
  0
VERTEX
  5
6b7
  8
Layer_3
  10
70.076035
  20
167.22623
  0
VERTEX
  5
6b8
  8
Layer_3
  10
70.17775
  20
167.18021
  0
VERTEX
  5
6b9
  8
Layer_3
  10
70.244339
  20
167.09061
  0
VERTEX
  5
6ba
  8
Layer_3
  10
70.246658
  20
166.0266
  0
VERTEX
  5
6bb
  8
Layer_3
  10
70.238739
  20
165.98659
  0
VERTEX
  5
6bc
  8
Layer_3
  10
70.200119
  20
165.93538
  0
VERTEX
  5
6bd
  8
Layer_3
  10
70.142914
  20
165.90637
  0
VERTEX
  5
6be
  8
Layer_3
  10
69.895142
  20
165.88983
  0
VERTEX
  5
6bf
  8
Layer_3
  10
69.646927
  20
165.89729
  0
VERTEX
  5
6c0
  8
Layer_3
  10
69.575203
  20
165.94745
  0
VERTEX
  5
6c1
  8
Layer_3
  10
69.534653
  20
166.02505
  0
VERTEX
  5
6c2
  8
Layer_3
  10
69.532455
  20
167.03305
  0
VERTEX
  5
6c3
  8
Layer_3
  10
69.56279
  20
167.12712
  0
VERTEX
  5
6c4
  8
Layer_3
  10
69.628098
  20
167.20125
  0
VERTEX
  5
6c5
  8
Layer_3
  10
69.851257
  20
167.22824
  0
VERTEX
  5
6c6
  8
Layer_3
  10
70.076035
  20
167.22623
  0
SEQEND
  0
POLYLINE
  5
6c8
  8
Layer_0
  62
0
  70
1
  66
1
  10
0
  20
0
  30
0
  0
VERTEX
  5
6c8
  8
Layer_0
  10
92.908775
  20
144.56552
  0
VERTEX
  5
6c9
  8
Layer_0
  10
87.909744
  20
144.55463
  0
VERTEX
  5
6ca
  8
Layer_0
  10
87.916298
  20
141.54962
  0
VERTEX
  5
6cb
  8
Layer_0
  10
92.915329
  20
141.56055
  0
VERTEX
  5
6cc
  8
Layer_0
  10
92.908775
  20
144.56552
  0
SEQEND
  0
POLYLINE
  5
6ce
  8
Layer_1
  62
3
  70
1
  66
1
  10
0
  20
0
  30
0
  0
VERTEX
  5
6ce
  8
Layer_1
  10
96.284111
  20
75.657394
  0
VERTEX
  5
6cf
  8
Layer_1
  10
100.72362
  20
73.359306
  0
VERTEX
  5
6d0
  8
Layer_1
  10
98.424751
  20
68.922653
  0
VERTEX
  5
6d1
  8
Layer_1
  10
93.985245
  20
71.220741
  0
VERTEX
  5
6d2
  8
Layer_1
  10
96.284111
  20
75.657394
  0
SEQEND
  0
POLYLINE
  5
6d4
  8
Layer_1
  62
3
  70
1
  66
1
  10
0
  20
0
  30
0
  0
VERTEX
  5
6d4
  8
Layer_1
  10
74.267097
  20
87.071922
  0
VERTEX
  5
6d5
  8
Layer_1
  10
78.706604
  20
84.773834
  0
VERTEX
  5
6d6
  8
Layer_1
  10
76.407738
  20
80.337181
  0
VERTEX
  5
6d7
  8
Layer_1
  10
71.968231
  20
82.635269
  0
VERTEX
  5
6d8
  8
Layer_1
  10
74.267097
  20
87.071922
  0
SEQEND
  0
POLYLINE
  5
6da
  8
Layer_1
  62
3
  70
1
  66
1
  10
0
  20
0
  30
0
  0
VERTEX
  5
6da
  8
Layer_1
  10
102.0972
  20
69.278305
  0
VERTEX
  5
6db
  8
Layer_1
  10
104.40543
  20
73.752609
  0
VERTEX
  5
6dc
  8
Layer_1
  10
70.506828
  20
91.322052
  0
VERTEX
  5
6dd
  8
Layer_1
  10
67.316711
  20
85.143219
  0
VERTEX
  5
6de
  8
Layer_1
  10
65.980537
  20
85.830246
  0
VERTEX
  5
6df
  8
Layer_1
  10
64.648438
  20
86.525284
  0
VERTEX
  5
6e0
  8
Layer_1
  10
62.349228
  20
82.08638
  0
VERTEX
  5
6e1
  8
Layer_1
  10
65.050201
  20
80.696915
  0
VERTEX
  5
6e2
  8
Layer_1
  10
41.830288
  20
35.824448
  0
VERTEX
  5
6e3
  8
Layer_1
  10
39.159313
  20
37.207916
  0
VERTEX
  5
6e4
  8
Layer_1
  10
36.859669
  20
32.768127
  0
VERTEX
  5
6e5
  8
Layer_1
  10
39.530643
  20
31.384674
  0
VERTEX
  5
6e6
  8
Layer_1
  10
13.866531
  20
-17.919968
  0
VERTEX
  5
6e7
  8
Layer_1
  10
11.195557
  20
-16.536499
  0
VERTEX
  5
6e8
  8
Layer_1
  10
8.8995972
  20
-20.969177
  0
VERTEX
  5
6e9
  8
Layer_1
  10
11.570572
  20
-22.352646
  0
VERTEX
  5
6ea
  8
Layer_1
  10
11.592651
  20
-22.310028
  0
VERTEX
  5
6eb
  8
Layer_1
  10
12.402473
  20
-22.729492
  0
VERTEX
  5
6ec
  8
Layer_1
  10
12.413506
  20
-22.708176
  0
VERTEX
  5
6ed
  8
Layer_1
  10
45.305805
  20
-39.826248
  0
VERTEX
  5
6ee
  8
Layer_1
  10
46.681656
  20
-37.187363
  0
VERTEX
  5
6ef
  8
Layer_1
  10
48.453888
  20
-38.114319
  0
VERTEX
  5
6f0
  8
Layer_1
  10
75.472023
  20
13.804459
  0
VERTEX
  5
6f1
  8
Layer_1
  10
73.696106
  20
14.724319
  0
VERTEX
  5
6f2
  8
Layer_1
  10
75.082993
  20
17.384506
  0
VERTEX
  5
6f3
  8
Layer_1
  10
76.85891
  20
16.464661
  0
VERTEX
  5
6f4
  8
Layer_1
  10
103.86944
  20
68.351349
  0
VERTEX
  5
6f5
  8
Layer_1
  10
102.0972
  20
69.278305
  0
SEQEND
  0
POLYLINE
  5
6f7
  8
Layer_5
  62
6
  70
1
  66
1
  10
0
  20
0
  30
0
  0
VERTEX
  5
6f7
  8
Layer_5
  10
12.257334
  20
156.02306
  0
VERTEX
  5
6f8
  8
Layer_5
  10
7.8116894
  20
158.30965
  0
VERTEX
  5
6f9
  8
Layer_5
  10
5.5194573
  20
153.92746
  0
VERTEX
  5
6fa
  8
Layer_5
  10
9.9651012
  20
151.64087
  0
VERTEX
  5
6fb
  8
Layer_5
  10
12.257334
  20
156.02306
  0
SEQEND
  0
POLYLINE
  5
6fd
  8
Layer_5
  62
6
  70
1
  66
1
  10
0
  20
0
  30
0
  0
VERTEX
  5
6fd
  8
Layer_5
  10
34.185219
  20
144.44032
  0
VERTEX
  5
6fe
  8
Layer_5
  10
29.739576
  20
146.72693
  0
VERTEX
  5
6ff
  8
Layer_5
  10
27.447344
  20
142.34473
  0
VERTEX
  5
700
  8
Layer_5
  10
31.892988
  20
140.05814
  0
VERTEX
  5
701
  8
Layer_5
  10
34.185219
  20
144.44032
  0
SEQEND
  0
POLYLINE
  5
703
  8
Layer_5
  62
6
  70
1
  66
1
  10
0
  20
0
  30
0
  0
VERTEX
  5
703
  8
Layer_5
  10
3.6941681
  20
157.1019
  0
VERTEX
  5
704
  8
Layer_5
  10
6.023407
  20
161.56531
  0
VERTEX
  5
705
  8
Layer_5
  10
39.906158
  20
143.96532
  0
VERTEX
  5
706
  8
Layer_5
  10
36.691025
  20
137.79945
  0
VERTEX
  5
707
  8
Layer_5
  10
38.022079
  20
137.10254
  0
VERTEX
  5
708
  8
Layer_5
  10
39.357346
  20
136.41357
  0
VERTEX
  5
709
  8
Layer_5
  10
37.051849
  20
131.97794
  0
VERTEX
  5
70a
  8
Layer_5
  10
34.360672
  20
133.38628
  0
VERTEX
  5
70b
  8
Layer_5
  10
11.041656
  20
88.565231
  0
VERTEX
  5
70c
  8
Layer_5
  10
13.710655
  20
87.177979
  0
VERTEX
  5
70d
  8
Layer_5
  10
11.404694
  20
82.74147
  0
VERTEX
  5
70e
  8
Layer_5
  10
8.7356949
  20
84.128723
  0
VERTEX
  5
70f
  8
Layer_5
  10
-16.799828
  20
34.757385
  0
VERTEX
  5
710
  8
Layer_5
  10
-14.130829
  20
33.370117
  0
VERTEX
  5
711
  8
Layer_5
  10
-16.433098
  20
28.940704
  0
VERTEX
  5
712
  8
Layer_5
  10
-19.102097
  20
30.327972
  0
VERTEX
  5
713
  8
Layer_5
  10
-19.079956
  20
30.370575
  0
VERTEX
  5
714
  8
Layer_5
  10
-19.889175
  20
30.791168
  0
VERTEX
  5
715
  8
Layer_5
  10
-19.878113
  20
30.812469
  0
VERTEX
  5
716
  8
Layer_5
  10
-52.812412
  20
47.849586
  0
VERTEX
  5
717
  8
Layer_5
  10
-51.447002
  20
50.493881
  0
VERTEX
  5
718
  8
Layer_5
  10
-53.225292
  20
51.409172
  0
VERTEX
  5
719
  8
Layer_5
  10
-26.332016
  20
103.39274
  0
VERTEX
  5
71a
  8
Layer_5
  10
-24.557419
  20
102.47035
  0
VERTEX
  5
71b
  8
Layer_5
  10
-23.180939
  20
105.13594
  0
VERTEX
  5
71c
  8
Layer_5
  10
-24.955536
  20
106.05833
  0
VERTEX
  5
71d
  8
Layer_5
  10
1.9158783
  20
158.0172
  0
VERTEX
  5
71e
  8
Layer_5
  10
3.6941681
  20
157.1019
  0
SEQEND
  0
ENDSEC
  0
EOF
