  0
SECTION
  2
HEADER
  9
$ACADVER
  1
AC1009
  0
ENDSEC
  0
SECTION
  2
ENTITIES
  0
POLYLINE
  5
90
  8
Layer_0
  62
0
  70
1
  66
1
  10
0
  20
0
  30
0
  0
VERTEX
  5
90
  8
Layer_0
  10
-120.40905
  20
237.0036
  0
VERTEX
  5
91
  8
Layer_0
  10
-10.243042
  20
168.98056
  0
VERTEX
  5
92
  8
Layer_0
  10
100.79073
  20
235.92783
  0
VERTEX
  5
93
  8
Layer_0
  10
100.40938
  20
163.81863
  0
VERTEX
  5
94
  8
Layer_0
  10
-10.532074
  20
96.996674
  0
VERTEX
  5
95
  8
Layer_0
  10
-120.79041
  20
164.89319
  0
VERTEX
  5
96
  8
Layer_0
  10
-120.40905
  20
237.0036
  0
SEQEND
  0
POLYLINE
  5
98
  8
Layer_0
  62
0
  70
1
  66
1
  10
0
  20
0
  30
0
  0
VERTEX
  5
98
  8
Layer_0
  10
-118.08248
  20
229.52518
  0
VERTEX
  5
99
  8
Layer_0
  10
-113.82346
  20
226.90771
  0
VERTEX
  5
9a
  8
Layer_0
  10
-112.25007
  20
229.46786
  0
VERTEX
  5
9b
  8
Layer_0
  10
-116.50909
  20
232.08533
  0
VERTEX
  5
9c
  8
Layer_0
  10
-118.08248
  20
229.52518
  0
SEQEND
  0
POLYLINE
  5
9e
  8
Layer_0
  62
0
  70
1
  66
1
  10
0
  20
0
  30
0
  0
VERTEX
  5
9e
  8
Layer_0
  10
-115.56631
  20
219.17889
  0
VERTEX
  5
9f
  8
Layer_0
  10
-115.53988
  20
224.17786
  0
VERTEX
  5
a0
  8
Layer_0
  10
-118.54483
  20
224.19376
  0
VERTEX
  5
a1
  8
Layer_0
  10
-118.57127
  20
219.19479
  0
VERTEX
  5
a2
  8
Layer_0
  10
-115.56631
  20
219.17889
  0
SEQEND
  0
POLYLINE
  5
a4
  8
Layer_0
  62
0
  70
1
  66
1
  10
0
  20
0
  30
0
  0
VERTEX
  5
a4
  8
Layer_0
  10
-115.806
  20
174.0909
  0
VERTEX
  5
a5
  8
Layer_0
  10
-115.77956
  20
179.08987
  0
VERTEX
  5
a6
  8
Layer_0
  10
-118.78452
  20
179.10576
  0
VERTEX
  5
a7
  8
Layer_0
  10
-118.81095
  20
174.10678
  0
VERTEX
  5
a8
  8
Layer_0
  10
-115.806
  20
174.0909
  0
SEQEND
  0
POLYLINE
  5
aa
  8
Layer_0
  62
0
  70
1
  66
1
  10
0
  20
0
  30
0
  0
VERTEX
  5
aa
  8
Layer_0
  10
-118.35241
  20
165.73213
  0
VERTEX
  5
ab
  8
Layer_0
  10
-114.09339
  20
163.11465
  0
VERTEX
  5
ac
  8
Layer_0
  10
-112.52
  20
165.67482
  0
VERTEX
  5
ad
  8
Layer_0
  10
-116.77901
  20
168.2923
  0
VERTEX
  5
ae
  8
Layer_0
  10
-118.35241
  20
165.73213
  0
SEQEND
  0
POLYLINE
  5
b0
  8
Layer_0
  62
0
  70
1
  66
1
  10
0
  20
0
  30
0
  0
VERTEX
  5
b0
  8
Layer_0
  10
-58.465656
  20
128.82228
  0
VERTEX
  5
b1
  8
Layer_0
  10
-54.206638
  20
126.20481
  0
VERTEX
  5
b2
  8
Layer_0
  10
-52.633236
  20
128.76497
  0
VERTEX
  5
b3
  8
Layer_0
  10
-56.892254
  20
131.38245
  0
VERTEX
  5
b4
  8
Layer_0
  10
-58.465656
  20
128.82228
  0
SEQEND
  0
POLYLINE
  5
b6
  8
Layer_0
  62
0
  70
1
  66
1
  10
0
  20
0
  30
0
  0
VERTEX
  5
b6
  8
Layer_0
  10
-21.22414
  20
105.98335
  0
VERTEX
  5
b7
  8
Layer_0
  10
-16.965122
  20
103.36588
  0
VERTEX
  5
b8
  8
Layer_0
  10
-15.39172
  20
105.92604
  0
VERTEX
  5
b9
  8
Layer_0
  10
-19.650738
  20
108.54351
  0
VERTEX
  5
ba
  8
Layer_0
  10
-21.22414
  20
105.98335
  0
SEQEND
  0
POLYLINE
  5
bc
  8
Layer_0
  62
0
  70
1
  66
1
  10
0
  20
0
  30
0
  0
VERTEX
  5
bc
  8
Layer_0
  10
-5.7773066
  20
102.38203
  0
VERTEX
  5
bd
  8
Layer_0
  10
-1.4931824
  20
104.9582
  0
VERTEX
  5
be
  8
Layer_0
  10
-3.041755
  20
107.53345
  0
VERTEX
  5
bf
  8
Layer_0
  10
-7.3258791
  20
104.95728
  0
VERTEX
  5
c0
  8
Layer_0
  10
-5.7773066
  20
102.38203
  0
SEQEND
  0
POLYLINE
  5
c2
  8
Layer_0
  62
0
  70
1
  66
1
  10
0
  20
0
  30
0
  0
VERTEX
  5
c2
  8
Layer_0
  10
41.807556
  20
130.95236
  0
VERTEX
  5
c3
  8
Layer_0
  10
46.091679
  20
133.52853
  0
VERTEX
  5
c4
  8
Layer_0
  10
44.543106
  20
136.10379
  0
VERTEX
  5
c5
  8
Layer_0
  10
40.258984
  20
133.52762
  0
VERTEX
  5
c6
  8
Layer_0
  10
41.807556
  20
130.95236
  0
SEQEND
  0
POLYLINE
  5
c8
  8
Layer_0
  62
0
  70
1
  66
1
  10
0
  20
0
  30
0
  0
VERTEX
  5
c8
  8
Layer_0
  10
93.697823
  20
162.1066
  0
VERTEX
  5
c9
  8
Layer_0
  10
97.981949
  20
164.68277
  0
VERTEX
  5
ca
  8
Layer_0
  10
96.433372
  20
167.25801
  0
VERTEX
  5
cb
  8
Layer_0
  10
92.149246
  20
164.68184
  0
VERTEX
  5
cc
  8
Layer_0
  10
93.697823
  20
162.1066
  0
SEQEND
  0
POLYLINE
  5
ce
  8
Layer_0
  62
0
  70
1
  66
1
  10
0
  20
0
  30
0
  0
VERTEX
  5
ce
  8
Layer_0
  10
98.526855
  20
173.05109
  0
VERTEX
  5
cf
  8
Layer_0
  10
98.553291
  20
178.05005
  0
VERTEX
  5
d0
  8
Layer_0
  10
95.54834
  20
178.06593
  0
VERTEX
  5
d1
  8
Layer_0
  10
95.521904
  20
173.06697
  0
VERTEX
  5
d2
  8
Layer_0
  10
98.526855
  20
173.05109
  0
SEQEND
  0
POLYLINE
  5
d4
  8
Layer_0
  62
0
  70
1
  66
1
  10
0
  20
0
  30
0
  0
VERTEX
  5
d4
  8
Layer_0
  10
98.773041
  20
218.15114
  0
VERTEX
  5
d5
  8
Layer_0
  10
98.799477
  20
223.15012
  0
VERTEX
  5
d6
  8
Layer_0
  10
95.794525
  20
223.166
  0
VERTEX
  5
d7
  8
Layer_0
  10
95.768089
  20
218.16702
  0
VERTEX
  5
d8
  8
Layer_0
  10
98.773041
  20
218.15114
  0
SEQEND
  0
POLYLINE
  5
da
  8
Layer_0
  62
0
  70
1
  66
1
  10
0
  20
0
  30
0
  0
VERTEX
  5
da
  8
Layer_0
  10
94.10305
  20
225.90143
  0
VERTEX
  5
db
  8
Layer_0
  10
98.387177
  20
228.4776
  0
VERTEX
  5
dc
  8
Layer_0
  10
96.8386
  20
231.05286
  0
VERTEX
  5
dd
  8
Layer_0
  10
92.554474
  20
228.47668
  0
VERTEX
  5
de
  8
Layer_0
  10
94.10305
  20
225.90143
  0
SEQEND
  0
POLYLINE
  5
e0
  8
Layer_0
  62
0
  70
1
  66
1
  10
0
  20
0
  30
0
  0
VERTEX
  5
e0
  8
Layer_0
  10
42.211781
  20
194.74651
  0
VERTEX
  5
e1
  8
Layer_0
  10
46.495903
  20
197.32268
  0
VERTEX
  5
e2
  8
Layer_0
  10
44.94733
  20
199.89793
  0
VERTEX
  5
e3
  8
Layer_0
  10
40.663208
  20
197.32176
  0
VERTEX
  5
e4
  8
Layer_0
  10
42.211781
  20
194.74651
  0
SEQEND
  0
POLYLINE
  5
e6
  8
Layer_0
  62
0
  70
1
  66
1
  10
0
  20
0
  30
0
  0
VERTEX
  5
e6
  8
Layer_0
  10
-5.412816
  20
166.15698
  0
VERTEX
  5
e7
  8
Layer_0
  10
-1.1286919
  20
168.73315
  0
VERTEX
  5
e8
  8
Layer_0
  10
-2.6772645
  20
171.30841
  0
VERTEX
  5
e9
  8
Layer_0
  10
-6.9613886
  20
168.73224
  0
VERTEX
  5
ea
  8
Layer_0
  10
-5.412816
  20
166.15698
  0
SEQEND
  0
POLYLINE
  5
ec
  8
Layer_0
  62
0
  70
1
  66
1
  10
0
  20
0
  30
0
  0
VERTEX
  5
ec
  8
Layer_0
  10
-57.994553
  20
192.56761
  0
VERTEX
  5
ed
  8
Layer_0
  10
-53.75811
  20
189.95126
  0
VERTEX
  5
ee
  8
Layer_0
  10
-52.153702
  20
192.54915
  0
VERTEX
  5
ef
  8
Layer_0
  10
-56.390144
  20
195.1655
  0
VERTEX
  5
f0
  8
Layer_0
  10
-57.994553
  20
192.56761
  0
SEQEND
  0
POLYLINE
  5
f2
  8
Layer_0
  62
0
  70
1
  66
1
  10
0
  20
0
  30
0
  0
VERTEX
  5
f2
  8
Layer_0
  10
-20.881908
  20
169.94258
  0
VERTEX
  5
f3
  8
Layer_0
  10
-16.62289
  20
167.3251
  0
VERTEX
  5
f4
  8
Layer_0
  10
-15.049488
  20
169.88527
  0
VERTEX
  5
f5
  8
Layer_0
  10
-19.308506
  20
172.50275
  0
VERTEX
  5
f6
  8
Layer_0
  10
-20.881908
  20
169.94258
  0
SEQEND
  0
POLYLINE
  5
f8
  8
Layer_0
  62
0
  70
1
  66
1
  10
0
  20
0
  30
0
  0
VERTEX
  5
f8
  8
Layer_0
  10
-96.154724
  20
183.14359
  0
VERTEX
  5
f9
  8
Layer_0
  10
-96.259079
  20
169.36829
  0
VERTEX
  5
fa
  8
Layer_0
  10
-99.258987
  20
169.39102
  0
VERTEX
  5
fb
  8
Layer_0
  10
-99.154633
  20
183.16632
  0
VERTEX
  5
fc
  8
Layer_0
  10
-96.154724
  20
183.14359
  0
SEQEND
  0
POLYLINE
  5
fe
  8
Layer_0
  62
0
  70
1
  66
1
  10
0
  20
0
  30
0
  0
VERTEX
  5
fe
  8
Layer_0
  10
-95.930229
  20
212.77771
  0
VERTEX
  5
ff
  8
Layer_0
  10
-96.034584
  20
199.00247
  0
VERTEX
  5
100
  8
Layer_0
  10
-99.034492
  20
199.02521
  0
VERTEX
  5
101
  8
Layer_0
  10
-98.930138
  20
212.80045
  0
VERTEX
  5
102
  8
Layer_0
  10
-95.930229
  20
212.77771
  0
SEQEND
  0
POLYLINE
  5
104
  8
Layer_0
  62
0
  70
1
  66
1
  10
0
  20
0
  30
0
  0
VERTEX
  5
104
  8
Layer_0
  10
-74.397087
  20
166.91551
  0
VERTEX
  5
105
  8
Layer_0
  10
-74.501442
  20
153.14026
  0
VERTEX
  5
106
  8
Layer_0
  10
-77.501366
  20
153.16299
  0
VERTEX
  5
107
  8
Layer_0
  10
-77.397011
  20
166.93823
  0
VERTEX
  5
108
  8
Layer_0
  10
-74.397087
  20
166.91551
  0
SEQEND
  0
POLYLINE
  5
10a
  8
Layer_0
  62
0
  70
1
  66
1
  10
0
  20
0
  30
0
  0
VERTEX
  5
10a
  8
Layer_0
  10
-74.172592
  20
196.54968
  0
VERTEX
  5
10b
  8
Layer_0
  10
-74.276947
  20
182.7744
  0
VERTEX
  5
10c
  8
Layer_0
  10
-77.276871
  20
182.79712
  0
VERTEX
  5
10d
  8
Layer_0
  10
-77.172516
  20
196.5724
  0
VERTEX
  5
10e
  8
Layer_0
  10
-74.172592
  20
196.54968
  0
SEQEND
  0
POLYLINE
  5
110
  8
Layer_0
  62
0
  70
1
  66
1
  10
0
  20
0
  30
0
  0
VERTEX
  5
110
  8
Layer_0
  10
-52.602844
  20
155.39955
  0
VERTEX
  5
111
  8
Layer_0
  10
-52.707199
  20
141.62428
  0
VERTEX
  5
112
  8
Layer_0
  10
-55.707108
  20
141.64702
  0
VERTEX
  5
113
  8
Layer_0
  10
-55.602753
  20
155.42229
  0
VERTEX
  5
114
  8
Layer_0
  10
-52.602844
  20
155.39955
  0
SEQEND
  0
POLYLINE
  5
116
  8
Layer_0
  62
0
  70
1
  66
1
  10
0
  20
0
  30
0
  0
VERTEX
  5
116
  8
Layer_0
  10
-52.378342
  20
185.03371
  0
VERTEX
  5
117
  8
Layer_0
  10
-52.482712
  20
171.25841
  0
VERTEX
  5
118
  8
Layer_0
  10
-55.48262
  20
171.28114
  0
VERTEX
  5
119
  8
Layer_0
  10
-55.37825
  20
185.05644
  0
VERTEX
  5
11a
  8
Layer_0
  10
-52.378342
  20
185.03371
  0
SEQEND
  0
POLYLINE
  5
11c
  8
Layer_0
  62
0
  70
1
  66
1
  10
0
  20
0
  30
0
  0
VERTEX
  5
11c
  8
Layer_0
  10
-30.845154
  20
139.17151
  0
VERTEX
  5
11d
  8
Layer_0
  10
-30.949509
  20
125.39627
  0
VERTEX
  5
11e
  8
Layer_0
  10
-33.949417
  20
125.41898
  0
VERTEX
  5
11f
  8
Layer_0
  10
-33.845062
  20
139.19421
  0
VERTEX
  5
120
  8
Layer_0
  10
-30.845154
  20
139.17151
  0
SEQEND
  0
POLYLINE
  5
122
  8
Layer_0
  62
0
  70
1
  66
1
  10
0
  20
0
  30
0
  0
VERTEX
  5
122
  8
Layer_0
  10
-30.620651
  20
168.80566
  0
VERTEX
  5
123
  8
Layer_0
  10
-30.725006
  20
155.0304
  0
VERTEX
  5
124
  8
Layer_0
  10
-33.724915
  20
155.0531
  0
VERTEX
  5
125
  8
Layer_0
  10
-33.62056
  20
168.8284
  0
VERTEX
  5
126
  8
Layer_0
  10
-30.620651
  20
168.80566
  0
SEQEND
  0
POLYLINE
  5
128
  8
Layer_0
  62
0
  70
1
  66
1
  10
0
  20
0
  30
0
  0
VERTEX
  5
128
  8
Layer_0
  10
13.034348
  20
154.69888
  0
VERTEX
  5
129
  8
Layer_0
  10
13.138702
  20
168.47417
  0
VERTEX
  5
12a
  8
Layer_0
  10
10.138779
  20
168.49689
  0
VERTEX
  5
12b
  8
Layer_0
  10
10.034424
  20
154.72159
  0
VERTEX
  5
12c
  8
Layer_0
  10
13.034348
  20
154.69888
  0
SEQEND
  0
POLYLINE
  5
12e
  8
Layer_0
  62
0
  70
1
  66
1
  10
0
  20
0
  30
0
  0
VERTEX
  5
12e
  8
Layer_0
  10
12.809845
  20
125.06476
  0
VERTEX
  5
12f
  8
Layer_0
  10
12.9142
  20
138.84
  0
VERTEX
  5
130
  8
Layer_0
  10
9.9142761
  20
138.8627
  0
VERTEX
  5
131
  8
Layer_0
  10
9.8099213
  20
125.08746
  0
VERTEX
  5
132
  8
Layer_0
  10
12.809845
  20
125.06476
  0
SEQEND
  0
POLYLINE
  5
134
  8
Layer_0
  62
0
  70
1
  66
1
  10
0
  20
0
  30
0
  0
VERTEX
  5
134
  8
Layer_0
  10
35.03566
  20
170.59541
  0
VERTEX
  5
135
  8
Layer_0
  10
35.14003
  20
184.37071
  0
VERTEX
  5
136
  8
Layer_0
  10
32.140091
  20
184.39343
  0
VERTEX
  5
137
  8
Layer_0
  10
32.035721
  20
170.61813
  0
VERTEX
  5
138
  8
Layer_0
  10
35.03566
  20
170.59541
  0
SEQEND
  0
POLYLINE
  5
13a
  8
Layer_0
  62
0
  70
1
  66
1
  10
0
  20
0
  30
0
  0
VERTEX
  5
13a
  8
Layer_0
  10
34.811172
  20
140.96129
  0
VERTEX
  5
13b
  8
Layer_0
  10
34.915512
  20
154.73656
  0
VERTEX
  5
13c
  8
Layer_0
  10
31.915573
  20
154.75929
  0
VERTEX
  5
13d
  8
Layer_0
  10
31.811234
  20
140.98402
  0
VERTEX
  5
13e
  8
Layer_0
  10
34.811172
  20
140.96129
  0
SEQEND
  0
POLYLINE
  5
140
  8
Layer_0
  62
0
  70
1
  66
1
  10
0
  20
0
  30
0
  0
VERTEX
  5
140
  8
Layer_0
  10
57.001297
  20
181.77989
  0
VERTEX
  5
141
  8
Layer_0
  10
57.105637
  20
195.55518
  0
VERTEX
  5
142
  8
Layer_0
  10
54.105728
  20
195.5779
  0
VERTEX
  5
143
  8
Layer_0
  10
54.001389
  20
181.80261
  0
VERTEX
  5
144
  8
Layer_0
  10
57.001297
  20
181.77989
  0
SEQEND
  0
POLYLINE
  5
146
  8
Layer_0
  62
0
  70
1
  66
1
  10
0
  20
0
  30
0
  0
VERTEX
  5
146
  8
Layer_0
  10
56.776779
  20
152.14575
  0
VERTEX
  5
147
  8
Layer_0
  10
56.881149
  20
165.92101
  0
VERTEX
  5
148
  8
Layer_0
  10
53.881241
  20
165.94373
  0
VERTEX
  5
149
  8
Layer_0
  10
53.776871
  20
152.16849
  0
VERTEX
  5
14a
  8
Layer_0
  10
56.776779
  20
152.14575
  0
SEQEND
  0
POLYLINE
  5
14c
  8
Layer_0
  62
0
  70
1
  66
1
  10
0
  20
0
  30
0
  0
VERTEX
  5
14c
  8
Layer_0
  10
79.00322
  20
197.67645
  0
VERTEX
  5
14d
  8
Layer_0
  10
79.10759
  20
211.45169
  0
VERTEX
  5
14e
  8
Layer_0
  10
76.107681
  20
211.47441
  0
VERTEX
  5
14f
  8
Layer_0
  10
76.003311
  20
197.69917
  0
VERTEX
  5
150
  8
Layer_0
  10
79.00322
  20
197.67645
  0
SEQEND
  0
POLYLINE
  5
152
  8
Layer_0
  62
0
  70
1
  66
1
  10
0
  20
0
  30
0
  0
VERTEX
  5
152
  8
Layer_0
  10
78.778732
  20
168.04227
  0
VERTEX
  5
153
  8
Layer_0
  10
78.883072
  20
181.81757
  0
VERTEX
  5
154
  8
Layer_0
  10
75.883163
  20
181.84029
  0
VERTEX
  5
155
  8
Layer_0
  10
75.778824
  20
168.06499
  0
VERTEX
  5
156
  8
Layer_0
  10
78.778732
  20
168.04227
  0
SEQEND
  0
POLYLINE
  5
158
  8
Layer_0
  62
0
  70
1
  66
1
  10
0
  20
0
  30
0
  0
VERTEX
  5
158
  8
Layer_0
  10
-10.417358
  20
166.0181
  0
VERTEX
  5
159
  8
Layer_0
  10
-10.385254
  20
166.06996
  0
VERTEX
  5
15a
  8
Layer_0
  10
-10.328415
  20
165.97481
  0
VERTEX
  5
15b
  8
Layer_0
  10
-10.338196
  20
165.96899
  0
VERTEX
  5
15c
  8
Layer_0
  10
-10.417358
  20
166.0181
  0
SEQEND
  0
POLYLINE
  5
15e
  8
Layer_0
  62
0
  70
1
  66
1
  10
0
  20
0
  30
0
  0
VERTEX
  5
15e
  8
Layer_0
  10
33.297302
  20
72.778038
  0
VERTEX
  5
15f
  8
Layer_0
  10
33.422737
  20
73.049721
  0
VERTEX
  5
160
  8
Layer_0
  10
33.58363
  20
73.296455
  0
VERTEX
  5
161
  8
Layer_0
  10
33.776314
  20
73.515526
  0
VERTEX
  5
162
  8
Layer_0
  10
33.99712
  20
73.704216
  0
VERTEX
  5
163
  8
Layer_0
  10
34.242371
  20
73.85981
  0
VERTEX
  5
164
  8
Layer_0
  10
34.508392
  20
73.979599
  0
VERTEX
  5
165
  8
Layer_0
  10
34.791519
  20
74.060867
  0
VERTEX
  5
166
  8
Layer_0
  10
35.088074
  20
74.100899
  0
VERTEX
  5
167
  8
Layer_0
  10
34.547188
  20
74.472084
  0
VERTEX
  5
168
  8
Layer_0
  10
35.031544
  20
75.177872
  0
VERTEX
  5
169
  8
Layer_0
  10
39.173927
  20
72.335114
  0
VERTEX
  5
16a
  8
Layer_0
  10
39.449524
  20
72.130814
  0
VERTEX
  5
16b
  8
Layer_0
  10
39.709007
  20
71.907082
  0
VERTEX
  5
16c
  8
Layer_0
  10
39.951347
  20
71.664894
  0
VERTEX
  5
16d
  8
Layer_0
  10
40.17551
  20
71.405197
  0
VERTEX
  5
16e
  8
Layer_0
  10
40.308502
  20
71.159882
  0
VERTEX
  5
16f
  8
Layer_0
  10
40.406387
  20
70.902557
  0
VERTEX
  5
170
  8
Layer_0
  10
40.46904
  20
70.63681
  0
VERTEX
  5
171
  8
Layer_0
  10
40.49633
  20
70.366226
  0
VERTEX
  5
172
  8
Layer_0
  10
40.488136
  20
70.094391
  0
VERTEX
  5
173
  8
Layer_0
  10
40.444328
  20
69.82489
  0
VERTEX
  5
174
  8
Layer_0
  10
40.364784
  20
69.56131
  0
VERTEX
  5
175
  8
Layer_0
  10
40.249378
  20
69.307251
  0
VERTEX
  5
176
  8
Layer_0
  10
40.026157
  20
68.895584
  0
VERTEX
  5
177
  8
Layer_0
  10
39.747162
  20
68.522507
  0
VERTEX
  5
178
  8
Layer_0
  10
39.417252
  20
68.193588
  0
VERTEX
  5
179
  8
Layer_0
  10
39.041267
  20
67.914421
  0
VERTEX
  5
17a
  8
Layer_0
  10
38.855686
  20
67.813049
  0
VERTEX
  5
17b
  8
Layer_0
  10
38.660561
  20
67.740425
  0
VERTEX
  5
17c
  8
Layer_0
  10
38.459045
  20
67.696548
  0
VERTEX
  5
17d
  8
Layer_0
  10
38.25428
  20
67.681458
  0
VERTEX
  5
17e
  8
Layer_0
  10
38.049419
  20
67.695137
  0
VERTEX
  5
17f
  8
Layer_0
  10
37.847603
  20
67.73761
  0
VERTEX
  5
180
  8
Layer_0
  10
37.651981
  20
67.808884
  0
VERTEX
  5
181
  8
Layer_0
  10
37.465702
  20
67.908974
  0
VERTEX
  5
182
  8
Layer_0
  10
37.283077
  20
68.024597
  0
VERTEX
  5
183
  8
Layer_0
  10
37.906731
  20
68.693008
  0
VERTEX
  5
184
  8
Layer_0
  10
38.179657
  20
68.587608
  0
VERTEX
  5
185
  8
Layer_0
  10
38.464737
  20
68.578125
  0
VERTEX
  5
186
  8
Layer_0
  10
38.737564
  20
68.661324
  0
VERTEX
  5
187
  8
Layer_0
  10
38.973747
  20
68.834
  0
VERTEX
  5
188
  8
Layer_0
  10
39.249336
  20
69.116364
  0
VERTEX
  5
189
  8
Layer_0
  10
39.461693
  20
69.444321
  0
VERTEX
  5
18a
  8
Layer_0
  10
39.605515
  20
69.807594
  0
VERTEX
  5
18b
  8
Layer_0
  10
39.67551
  20
70.195908
  0
VERTEX
  5
18c
  8
Layer_0
  10
39.60936
  20
70.520554
  0
VERTEX
  5
18d
  8
Layer_0
  10
39.473289
  20
70.818047
  0
VERTEX
  5
18e
  8
Layer_0
  10
39.273911
  20
71.077393
  0
VERTEX
  5
18f
  8
Layer_0
  10
39.01783
  20
71.287621
  0
VERTEX
  5
190
  8
Layer_0
  10
38.716797
  20
71.506332
  0
VERTEX
  5
191
  8
Layer_0
  10
38.413441
  20
71.721794
  0
VERTEX
  5
192
  8
Layer_0
  10
38.47007
  20
71.440544
  0
VERTEX
  5
193
  8
Layer_0
  10
38.486221
  20
71.158333
  0
VERTEX
  5
194
  8
Layer_0
  10
38.463097
  20
70.879158
  0
VERTEX
  5
195
  8
Layer_0
  10
38.401886
  20
70.60701
  0
VERTEX
  5
196
  8
Layer_0
  10
38.30378
  20
70.345886
  0
VERTEX
  5
197
  8
Layer_0
  10
38.169971
  20
70.099777
  0
VERTEX
  5
198
  8
Layer_0
  10
38.001652
  20
69.872681
  0
VERTEX
  5
199
  8
Layer_0
  10
37.800018
  20
69.668587
  0
VERTEX
  5
19a
  8
Layer_0
  10
37.611454
  20
69.505959
  0
VERTEX
  5
19b
  8
Layer_0
  10
37.406929
  20
69.368614
  0
VERTEX
  5
19c
  8
Layer_0
  10
37.18898
  20
69.257309
  0
VERTEX
  5
19d
  8
Layer_0
  10
36.960129
  20
69.172806
  0
VERTEX
  5
19e
  8
Layer_0
  10
36.722912
  20
69.115883
  0
VERTEX
  5
19f
  8
Layer_0
  10
36.479858
  20
69.087303
  0
VERTEX
  5
1a0
  8
Layer_0
  10
36.233494
  20
69.08783
  0
VERTEX
  5
1a1
  8
Layer_0
  10
35.986351
  20
69.118248
  0
VERTEX
  5
1a2
  8
Layer_0
  10
35.506294
  20
69.220909
  0
VERTEX
  5
1a3
  8
Layer_0
  10
35.048908
  20
69.391815
  0
VERTEX
  5
1a4
  8
Layer_0
  10
34.621376
  20
69.627663
  0
VERTEX
  5
1a5
  8
Layer_0
  10
34.230873
  20
69.925163
  0
VERTEX
  5
1a6
  8
Layer_0
  10
33.846169
  20
70.280899
  0
VERTEX
  5
1a7
  8
Layer_0
  10
33.533958
  20
70.696411
  0
VERTEX
  5
1a8
  8
Layer_0
  10
33.300896
  20
71.160957
  0
VERTEX
  5
1a9
  8
Layer_0
  10
33.153622
  20
71.663811
  0
VERTEX
  5
1aa
  8
Layer_0
  10
33.131577
  20
71.947815
  0
VERTEX
  5
1ab
  8
Layer_0
  10
33.148514
  20
72.230843
  0
VERTEX
  5
1ac
  8
Layer_0
  10
33.203926
  20
72.508911
  0
VERTEX
  5
1ad
  8
Layer_0
  10
33.297302
  20
72.778038
  0
SEQEND
  0
POLYLINE
  5
1af
  8
Layer_0
  62
0
  70
1
  66
1
  10
0
  20
0
  30
0
  0
VERTEX
  5
1af
  8
Layer_0
  10
39.734772
  20
82.031273
  0
VERTEX
  5
1b0
  8
Layer_0
  10
40.259869
  20
82.796425
  0
VERTEX
  5
1b1
  8
Layer_0
  10
40.853523
  20
82.389023
  0
VERTEX
  5
1b2
  8
Layer_0
  10
40.328426
  20
81.623871
  0
VERTEX
  5
1b3
  8
Layer_0
  10
43.105408
  20
79.71814
  0
VERTEX
  5
1b4
  8
Layer_0
  10
43.208778
  20
79.640549
  0
VERTEX
  5
1b5
  8
Layer_0
  10
43.32592
  20
79.590012
  0
VERTEX
  5
1b6
  8
Layer_0
  10
43.451599
  20
79.568108
  0
VERTEX
  5
1b7
  8
Layer_0
  10
43.580589
  20
79.576385
  0
VERTEX
  5
1b8
  8
Layer_0
  10
43.725029
  20
79.666107
  0
VERTEX
  5
1b9
  8
Layer_0
  10
43.848137
  20
79.780998
  0
VERTEX
  5
1ba
  8
Layer_0
  10
43.946754
  20
79.917488
  0
VERTEX
  5
1bb
  8
Layer_0
  10
44.017738
  20
80.072006
  0
VERTEX
  5
1bc
  8
Layer_0
  10
44.072445
  20
80.18
  0
VERTEX
  5
1bd
  8
Layer_0
  10
44.81768
  20
79.823822
  0
VERTEX
  5
1be
  8
Layer_0
  10
44.686214
  20
79.516457
  0
VERTEX
  5
1bf
  8
Layer_0
  10
44.516262
  20
79.230209
  0
VERTEX
  5
1c0
  8
Layer_0
  10
44.310291
  20
78.968674
  0
VERTEX
  5
1c1
  8
Layer_0
  10
44.070778
  20
78.735451
  0
VERTEX
  5
1c2
  8
Layer_0
  10
43.809017
  20
78.600273
  0
VERTEX
  5
1c3
  8
Layer_0
  10
43.524849
  20
78.552673
  0
VERTEX
  5
1c4
  8
Layer_0
  10
43.239552
  20
78.592941
  0
VERTEX
  5
1c5
  8
Layer_0
  10
42.9744
  20
78.721344
  0
VERTEX
  5
1c6
  8
Layer_0
  10
42.765842
  20
78.848572
  0
VERTEX
  5
1c7
  8
Layer_0
  10
42.558453
  20
78.977684
  0
VERTEX
  5
1c8
  8
Layer_0
  10
39.807858
  20
80.865318
  0
VERTEX
  5
1c9
  8
Layer_0
  10
39.423088
  20
80.304642
  0
VERTEX
  5
1ca
  8
Layer_0
  10
38.829437
  20
80.712044
  0
VERTEX
  5
1cb
  8
Layer_0
  10
39.214203
  20
81.27272
  0
VERTEX
  5
1cc
  8
Layer_0
  10
38.099453
  20
82.037727
  0
VERTEX
  5
1cd
  8
Layer_0
  10
38.16489
  20
83.108627
  0
VERTEX
  5
1ce
  8
Layer_0
  10
39.734772
  20
82.031273
  0
SEQEND
  0
POLYLINE
  5
1d0
  8
Layer_0
  62
0
  70
1
  66
1
  10
0
  20
0
  30
0
  0
VERTEX
  5
1d0
  8
Layer_0
  10
30.419106
  20
68.640564
  0
VERTEX
  5
1d1
  8
Layer_0
  10
30.71781
  20
68.888145
  0
VERTEX
  5
1d2
  8
Layer_0
  10
31.057373
  20
69.07579
  0
VERTEX
  5
1d3
  8
Layer_0
  10
31.582094
  20
68.327583
  0
VERTEX
  5
1d4
  8
Layer_0
  10
31.294621
  20
68.169769
  0
VERTEX
  5
1d5
  8
Layer_0
  10
31.072456
  20
67.938126
  0
VERTEX
  5
1d6
  8
Layer_0
  10
30.928665
  20
67.651169
  0
VERTEX
  5
1d7
  8
Layer_0
  10
30.876318
  20
67.327431
  0
VERTEX
  5
1d8
  8
Layer_0
  10
30.91909
  20
67.110077
  0
VERTEX
  5
1d9
  8
Layer_0
  10
31.001083
  20
66.906448
  0
VERTEX
  5
1da
  8
Layer_0
  10
31.119637
  20
66.721703
  0
VERTEX
  5
1db
  8
Layer_0
  10
31.272093
  20
66.560989
  0
VERTEX
  5
1dc
  8
Layer_0
  10
31.570923
  20
66.272926
  0
VERTEX
  5
1dd
  8
Layer_0
  10
31.901703
  20
66.022186
  0
VERTEX
  5
1de
  8
Layer_0
  10
34.256527
  20
64.406158
  0
VERTEX
  5
1df
  8
Layer_0
  10
33.73143
  20
63.640999
  0
VERTEX
  5
1e0
  8
Layer_0
  10
29.232857
  20
66.728203
  0
VERTEX
  5
1e1
  8
Layer_0
  10
29.703632
  20
67.4142
  0
VERTEX
  5
1e2
  8
Layer_0
  10
30.389633
  20
66.943428
  0
VERTEX
  5
1e3
  8
Layer_0
  10
30.278229
  20
67.161079
  0
VERTEX
  5
1e4
  8
Layer_0
  10
30.190948
  20
67.388748
  0
VERTEX
  5
1e5
  8
Layer_0
  10
30.128448
  20
67.624428
  0
VERTEX
  5
1e6
  8
Layer_0
  10
30.091377
  20
67.866104
  0
VERTEX
  5
1e7
  8
Layer_0
  10
30.112898
  20
68.081711
  0
VERTEX
  5
1e8
  8
Layer_0
  10
30.176407
  20
68.286697
  0
VERTEX
  5
1e9
  8
Layer_0
  10
30.279331
  20
68.475006
  0
VERTEX
  5
1ea
  8
Layer_0
  10
30.419106
  20
68.640564
  0
SEQEND
  0
POLYLINE
  5
1ec
  8
Layer_0
  62
0
  70
1
  66
1
  10
0
  20
0
  30
0
  0
VERTEX
  5
1ec
  8
Layer_0
  10
36.230164
  20
67.282074
  0
VERTEX
  5
1ed
  8
Layer_0
  10
35.705067
  20
66.516922
  0
VERTEX
  5
1ee
  8
Layer_0
  10
31.206493
  20
69.604126
  0
VERTEX
  5
1ef
  8
Layer_0
  10
31.731588
  20
70.369278
  0
VERTEX
  5
1f0
  8
Layer_0
  10
36.230164
  20
67.282074
  0
SEQEND
  0
POLYLINE
  5
1f2
  8
Layer_0
  62
0
  70
1
  66
1
  10
0
  20
0
  30
0
  0
VERTEX
  5
1f2
  8
Layer_0
  10
36.822571
  20
76.684906
  0
VERTEX
  5
1f3
  8
Layer_0
  10
36.768139
  20
76.951859
  0
VERTEX
  5
1f4
  8
Layer_0
  10
36.748322
  20
77.220291
  0
VERTEX
  5
1f5
  8
Layer_0
  10
36.762348
  20
77.487076
  0
VERTEX
  5
1f6
  8
Layer_0
  10
36.809448
  20
77.749069
  0
VERTEX
  5
1f7
  8
Layer_0
  10
36.888855
  20
78.003143
  0
VERTEX
  5
1f8
  8
Layer_0
  10
36.999805
  20
78.246162
  0
VERTEX
  5
1f9
  8
Layer_0
  10
37.141525
  20
78.474991
  0
VERTEX
  5
1fa
  8
Layer_0
  10
37.313251
  20
78.686508
  0
VERTEX
  5
1fb
  8
Layer_0
  10
37.574814
  20
78.957794
  0
VERTEX
  5
1fc
  8
Layer_0
  10
37.884483
  20
79.16507
  0
VERTEX
  5
1fd
  8
Layer_0
  10
38.230911
  20
79.302361
  0
VERTEX
  5
1fe
  8
Layer_0
  10
38.602722
  20
79.363716
  0
VERTEX
  5
1ff
  8
Layer_0
  10
38.919613
  20
79.311584
  0
VERTEX
  5
200
  8
Layer_0
  10
39.225178
  20
79.217651
  0
VERTEX
  5
201
  8
Layer_0
  10
39.515339
  20
79.083496
  0
VERTEX
  5
202
  8
Layer_0
  10
39.786018
  20
78.910667
  0
VERTEX
  5
203
  8
Layer_0
  10
39.948853
  20
78.808624
  0
VERTEX
  5
204
  8
Layer_0
  10
42.798389
  20
76.853096
  0
VERTEX
  5
205
  8
Layer_0
  10
42.273293
  20
76.087936
  0
VERTEX
  5
206
  8
Layer_0
  10
39.285236
  20
78.138527
  0
VERTEX
  5
207
  8
Layer_0
  10
39.061943
  20
78.26358
  0
VERTEX
  5
208
  8
Layer_0
  10
38.82074
  20
78.341423
  0
VERTEX
  5
209
  8
Layer_0
  10
38.568962
  20
78.370445
  0
VERTEX
  5
20a
  8
Layer_0
  10
38.313923
  20
78.349075
  0
VERTEX
  5
20b
  8
Layer_0
  10
38.059517
  20
78.217316
  0
VERTEX
  5
20c
  8
Layer_0
  10
37.842743
  20
78.043137
  0
VERTEX
  5
20d
  8
Layer_0
  10
37.666786
  20
77.833801
  0
VERTEX
  5
20e
  8
Layer_0
  10
37.534824
  20
77.596573
  0
VERTEX
  5
20f
  8
Layer_0
  10
37.450027
  20
77.338699
  0
VERTEX
  5
210
  8
Layer_0
  10
37.415569
  20
77.067421
  0
VERTEX
  5
211
  8
Layer_0
  10
37.434628
  20
76.789993
  0
VERTEX
  5
212
  8
Layer_0
  10
37.510376
  20
76.513672
  0
VERTEX
  5
213
  8
Layer_0
  10
37.673695
  20
76.254219
  0
VERTEX
  5
214
  8
Layer_0
  10
37.869316
  20
76.02005
  0
VERTEX
  5
215
  8
Layer_0
  10
38.094444
  20
75.814087
  0
VERTEX
  5
216
  8
Layer_0
  10
38.346283
  20
75.639244
  0
VERTEX
  5
217
  8
Layer_0
  10
40.806644
  20
73.950783
  0
VERTEX
  5
218
  8
Layer_0
  10
40.281548
  20
73.185631
  0
VERTEX
  5
219
  8
Layer_0
  10
34.07457
  20
77.445244
  0
VERTEX
  5
21a
  8
Layer_0
  10
34.599667
  20
78.210403
  0
VERTEX
  5
21b
  8
Layer_0
  10
36.822571
  20
76.684906
  0
SEQEND
  0
POLYLINE
  5
21d
  8
Layer_0
  62
0
  70
1
  66
1
  10
0
  20
0
  30
0
  0
VERTEX
  5
21d
  8
Layer_0
  10
34.413208
  20
73.089226
  0
VERTEX
  5
21e
  8
Layer_0
  10
34.229263
  20
72.87072
  0
VERTEX
  5
21f
  8
Layer_0
  10
34.096027
  20
72.627533
  0
VERTEX
  5
220
  8
Layer_0
  10
34.013664
  20
72.367508
  0
VERTEX
  5
221
  8
Layer_0
  10
33.982346
  20
72.098541
  0
VERTEX
  5
222
  8
Layer_0
  10
34.002232
  20
71.828491
  0
VERTEX
  5
223
  8
Layer_0
  10
34.073494
  20
71.565216
  0
VERTEX
  5
224
  8
Layer_0
  10
34.196293
  20
71.316589
  0
VERTEX
  5
225
  8
Layer_0
  10
34.370804
  20
71.090477
  0
VERTEX
  5
226
  8
Layer_0
  10
34.725571
  20
70.735657
  0
VERTEX
  5
227
  8
Layer_0
  10
35.124817
  20
70.43605
  0
VERTEX
  5
228
  8
Layer_0
  10
35.56229
  20
70.195663
  0
VERTEX
  5
229
  8
Layer_0
  10
36.031738
  20
70.018555
  0
VERTEX
  5
22a
  8
Layer_0
  10
36.290611
  20
69.970551
  0
VERTEX
  5
22b
  8
Layer_0
  10
36.547134
  20
69.971725
  0
VERTEX
  5
22c
  8
Layer_0
  10
36.795422
  20
70.01915
  0
VERTEX
  5
22d
  8
Layer_0
  10
37.029579
  20
70.109924
  0
VERTEX
  5
22e
  8
Layer_0
  10
37.243721
  20
70.241127
  0
VERTEX
  5
22f
  8
Layer_0
  10
37.431957
  20
70.409836
  0
VERTEX
  5
230
  8
Layer_0
  10
37.588394
  20
70.613144
  0
VERTEX
  5
231
  8
Layer_0
  10
37.707146
  20
70.848129
  0
VERTEX
  5
232
  8
Layer_0
  10
37.767517
  20
71.044739
  0
VERTEX
  5
233
  8
Layer_0
  10
37.799534
  20
71.244858
  0
VERTEX
  5
234
  8
Layer_0
  10
37.803726
  20
71.445671
  0
VERTEX
  5
235
  8
Layer_0
  10
37.780617
  20
71.644333
  0
VERTEX
  5
236
  8
Layer_0
  10
37.730732
  20
71.838013
  0
VERTEX
  5
237
  8
Layer_0
  10
37.654598
  20
72.02388
  0
VERTEX
  5
238
  8
Layer_0
  10
37.552746
  20
72.199097
  0
VERTEX
  5
239
  8
Layer_0
  10
37.425697
  20
72.360832
  0
VERTEX
  5
23a
  8
Layer_0
  10
37.069908
  20
72.711456
  0
VERTEX
  5
23b
  8
Layer_0
  10
36.670765
  20
73.007736
  0
VERTEX
  5
23c
  8
Layer_0
  10
36.234375
  20
73.245758
  0
VERTEX
  5
23d
  8
Layer_0
  10
35.76683
  20
73.421631
  0
VERTEX
  5
23e
  8
Layer_0
  10
35.405674
  20
73.463768
  0
VERTEX
  5
23f
  8
Layer_0
  10
35.049622
  20
73.419937
  0
VERTEX
  5
240
  8
Layer_0
  10
34.713768
  20
73.293854
  0
VERTEX
  5
241
  8
Layer_0
  10
34.413208
  20
73.089226
  0
SEQEND
  0
POLYLINE
  5
243
  8
Layer_0
  62
0
  70
1
  66
1
  10
0
  20
0
  30
0
  0
VERTEX
  5
243
  8
Layer_0
  10
30.900473
  20
70.939644
  0
VERTEX
  5
244
  8
Layer_0
  10
30.375378
  20
70.174484
  0
VERTEX
  5
245
  8
Layer_0
  10
29.498089
  20
70.776535
  0
VERTEX
  5
246
  8
Layer_0
  10
30.023186
  20
71.541687
  0
VERTEX
  5
247
  8
Layer_0
  10
30.900473
  20
70.939644
  0
SEQEND
  0
POLYLINE
  5
249
  8
Layer_0
  62
0
  70
1
  66
1
  10
0
  20
0
  30
0
  0
VERTEX
  5
249
  8
Layer_0
  10
34.601994
  20
-65.286072
  0
VERTEX
  5
24a
  8
Layer_0
  10
34.411621
  20
-64.898376
  0
VERTEX
  5
24b
  8
Layer_0
  10
34.29641
  20
-64.492767
  0
VERTEX
  5
24c
  8
Layer_0
  10
34.254791
  20
-64.079041
  0
VERTEX
  5
24d
  8
Layer_0
  10
34.285187
  20
-63.666901
  0
VERTEX
  5
24e
  8
Layer_0
  10
34.386024
  20
-63.266113
  0
VERTEX
  5
24f
  8
Layer_0
  10
34.555725
  20
-62.88649
  0
VERTEX
  5
250
  8
Layer_0
  10
34.792709
  20
-62.53775
  0
VERTEX
  5
251
  8
Layer_0
  10
35.095413
  20
-62.229645
  0
VERTEX
  5
252
  8
Layer_0
  10
35.325035
  20
-62.036545
  0
VERTEX
  5
253
  8
Layer_0
  10
35.567139
  20
-61.859924
  0
VERTEX
  5
254
  8
Layer_0
  10
35.820824
  20
-61.700378
  0
VERTEX
  5
255
  8
Layer_0
  10
36.08519
  20
-61.558517
  0
VERTEX
  5
256
  8
Layer_0
  10
38.12014
  20
-65.150085
  0
VERTEX
  5
257
  8
Layer_0
  10
38.435432
  20
-64.934998
  0
VERTEX
  5
258
  8
Layer_0
  10
38.705433
  20
-64.669388
  0
VERTEX
  5
259
  8
Layer_0
  10
38.924202
  20
-64.360214
  0
VERTEX
  5
25a
  8
Layer_0
  10
39.085815
  20
-64.014465
  0
VERTEX
  5
25b
  8
Layer_0
  10
39.143051
  20
-63.734512
  0
VERTEX
  5
25c
  8
Layer_0
  10
39.149609
  20
-63.455566
  0
VERTEX
  5
25d
  8
Layer_0
  10
39.108051
  20
-63.183517
  0
VERTEX
  5
25e
  8
Layer_0
  10
39.020931
  20
-62.924271
  0
VERTEX
  5
25f
  8
Layer_0
  10
38.890816
  20
-62.683716
  0
VERTEX
  5
260
  8
Layer_0
  10
38.720268
  20
-62.467743
  0
VERTEX
  5
261
  8
Layer_0
  10
38.511845
  20
-62.282227
  0
VERTEX
  5
262
  8
Layer_0
  10
38.268105
  20
-62.133087
  0
VERTEX
  5
263
  8
Layer_0
  10
38.01561
  20
-62.056168
  0
VERTEX
  5
264
  8
Layer_0
  10
37.755913
  20
-62.017776
  0
VERTEX
  5
265
  8
Layer_0
  10
37.493393
  20
-62.018234
  0
VERTEX
  5
266
  8
Layer_0
  10
37.232433
  20
-62.057846
  0
VERTEX
  5
267
  8
Layer_0
  10
36.855705
  20
-61.149521
  0
VERTEX
  5
268
  8
Layer_0
  10
37.236763
  20
-61.07312
  0
VERTEX
  5
269
  8
Layer_0
  10
37.617252
  20
-61.061325
  0
VERTEX
  5
26a
  8
Layer_0
  10
37.989983
  20
-61.111298
  0
VERTEX
  5
26b
  8
Layer_0
  10
38.347763
  20
-61.220184
  0
VERTEX
  5
26c
  8
Layer_0
  10
38.683392
  20
-61.385162
  0
VERTEX
  5
26d
  8
Layer_0
  10
38.989677
  20
-61.603363
  0
VERTEX
  5
26e
  8
Layer_0
  10
39.259422
  20
-61.871979
  0
VERTEX
  5
26f
  8
Layer_0
  10
39.485435
  20
-62.188141
  0
VERTEX
  5
270
  8
Layer_0
  10
39.725296
  20
-62.587708
  0
VERTEX
  5
271
  8
Layer_0
  10
39.89275
  20
-63.019104
  0
VERTEX
  5
272
  8
Layer_0
  10
39.984932
  20
-63.472595
  0
VERTEX
  5
273
  8
Layer_0
  10
39.998997
  20
-63.938416
  0
VERTEX
  5
274
  8
Layer_0
  10
39.95919
  20
-64.205139
  0
VERTEX
  5
275
  8
Layer_0
  10
39.89164
  20
-64.463837
  0
VERTEX
  5
276
  8
Layer_0
  10
39.797493
  20
-64.712509
  0
VERTEX
  5
277
  8
Layer_0
  10
39.677872
  20
-64.949219
  0
VERTEX
  5
278
  8
Layer_0
  10
39.53392
  20
-65.171967
  0
VERTEX
  5
279
  8
Layer_0
  10
39.366768
  20
-65.378754
  0
VERTEX
  5
27a
  8
Layer_0
  10
39.177544
  20
-65.567627
  0
VERTEX
  5
27b
  8
Layer_0
  10
38.967392
  20
-65.736649
  0
VERTEX
  5
27c
  8
Layer_0
  10
38.51873
  20
-66.049438
  0
VERTEX
  5
27d
  8
Layer_0
  10
38.03384
  20
-66.297058
  0
VERTEX
  5
27e
  8
Layer_0
  10
37.519806
  20
-66.476501
  0
VERTEX
  5
27f
  8
Layer_0
  10
36.983692
  20
-66.584747
  0
VERTEX
  5
280
  8
Layer_0
  10
36.617065
  20
-66.592957
  0
VERTEX
  5
281
  8
Layer_0
  10
36.259521
  20
-66.546661
  0
VERTEX
  5
282
  8
Layer_0
  10
35.916355
  20
-66.448761
  0
VERTEX
  5
283
  8
Layer_0
  10
35.592884
  20
-66.302109
  0
VERTEX
  5
284
  8
Layer_0
  10
35.294407
  20
-66.109619
  0
VERTEX
  5
285
  8
Layer_0
  10
35.026226
  20
-65.874207
  0
VERTEX
  5
286
  8
Layer_0
  10
34.793655
  20
-65.598709
  0
VERTEX
  5
287
  8
Layer_0
  10
34.601994
  20
-65.286072
  0
SEQEND
  0
POLYLINE
  5
289
  8
Layer_0
  62
0
  70
1
  66
1
  10
0
  20
0
  30
0
  0
VERTEX
  5
289
  8
Layer_0
  10
30.81002
  20
-58.350021
  0
VERTEX
  5
28a
  8
Layer_0
  10
30.344664
  20
-57.528702
  0
VERTEX
  5
28b
  8
Layer_0
  10
30.985022
  20
-57.165878
  0
VERTEX
  5
28c
  8
Layer_0
  10
31.450378
  20
-57.987213
  0
VERTEX
  5
28d
  8
Layer_0
  10
34.262383
  20
-56.393951
  0
VERTEX
  5
28e
  8
Layer_0
  10
34.485077
  20
-56.256851
  0
VERTEX
  5
28f
  8
Layer_0
  10
34.691147
  20
-56.095856
  0
VERTEX
  5
290
  8
Layer_0
  10
34.754642
  20
-55.940353
  0
VERTEX
  5
291
  8
Layer_0
  10
34.764153
  20
-55.776672
  0
VERTEX
  5
292
  8
Layer_0
  10
34.721107
  20
-55.618484
  0
VERTEX
  5
293
  8
Layer_0
  10
34.626919
  20
-55.479401
  0
VERTEX
  5
294
  8
Layer_0
  10
34.530216
  20
-55.345428
  0
VERTEX
  5
295
  8
Layer_0
  10
34.430424
  20
-55.213745
  0
VERTEX
  5
296
  8
Layer_0
  10
35.087261
  20
-54.685272
  0
VERTEX
  5
297
  8
Layer_0
  10
35.309578
  20
-54.943268
  0
VERTEX
  5
298
  8
Layer_0
  10
35.494469
  20
-55.227539
  0
VERTEX
  5
299
  8
Layer_0
  10
35.639648
  20
-55.533997
  0
VERTEX
  5
29a
  8
Layer_0
  10
35.742844
  20
-55.858566
  0
VERTEX
  5
29b
  8
Layer_0
  10
35.750099
  20
-56.156067
  0
VERTEX
  5
29c
  8
Layer_0
  10
35.667931
  20
-56.435272
  0
VERTEX
  5
29d
  8
Layer_0
  10
35.505463
  20
-56.676727
  0
VERTEX
  5
29e
  8
Layer_0
  10
35.271816
  20
-56.861038
  0
VERTEX
  5
29f
  8
Layer_0
  10
35.062496
  20
-56.994598
  0
VERTEX
  5
2a0
  8
Layer_0
  10
34.8521
  20
-57.126434
  0
VERTEX
  5
2a1
  8
Layer_0
  10
31.907848
  20
-58.794617
  0
VERTEX
  5
2a2
  8
Layer_0
  10
32.247005
  20
-59.393204
  0
VERTEX
  5
2a3
  8
Layer_0
  10
31.606649
  20
-59.756027
  0
VERTEX
  5
2a4
  8
Layer_0
  10
31.26749
  20
-59.15744
  0
VERTEX
  5
2a5
  8
Layer_0
  10
30.077259
  20
-59.831802
  0
VERTEX
  5
2a6
  8
Layer_0
  10
29.132563
  20
-59.300461
  0
VERTEX
  5
2a7
  8
Layer_0
  10
30.81002
  20
-58.350021
  0
SEQEND
  0
POLYLINE
  5
2a9
  8
Layer_0
  62
0
  70
1
  66
1
  10
0
  20
0
  30
0
  0
VERTEX
  5
2a9
  8
Layer_0
  10
41.348938
  20
-65.720535
  0
VERTEX
  5
2aa
  8
Layer_0
  10
41.810349
  20
-66.534912
  0
VERTEX
  5
2ab
  8
Layer_0
  10
35.163162
  20
-70.301147
  0
VERTEX
  5
2ac
  8
Layer_0
  10
34.701748
  20
-69.486771
  0
VERTEX
  5
2ad
  8
Layer_0
  10
41.348938
  20
-65.720535
  0
SEQEND
  0
POLYLINE
  5
2af
  8
Layer_0
  62
0
  70
1
  66
1
  10
0
  20
0
  30
0
  0
VERTEX
  5
2af
  8
Layer_0
  10
29.979263
  20
-61.395294
  0
VERTEX
  5
2b0
  8
Layer_0
  10
29.836304
  20
-61.088318
  0
VERTEX
  5
2b1
  8
Layer_0
  10
29.717598
  20
-60.771179
  0
VERTEX
  5
2b2
  8
Layer_0
  10
30.501562
  20
-60.483307
  0
VERTEX
  5
2b3
  8
Layer_0
  10
30.578381
  20
-60.702454
  0
VERTEX
  5
2b4
  8
Layer_0
  10
30.679146
  20
-60.910873
  0
VERTEX
  5
2b5
  8
Layer_0
  10
30.802759
  20
-61.106613
  0
VERTEX
  5
2b6
  8
Layer_0
  10
30.948128
  20
-61.287689
  0
VERTEX
  5
2b7
  8
Layer_0
  10
31.062634
  20
-61.378357
  0
VERTEX
  5
2b8
  8
Layer_0
  10
31.195572
  20
-61.431656
  0
VERTEX
  5
2b9
  8
Layer_0
  10
31.338131
  20
-61.44548
  0
VERTEX
  5
2ba
  8
Layer_0
  10
31.481503
  20
-61.417648
  0
VERTEX
  5
2bb
  8
Layer_0
  10
31.90597
  20
-61.227661
  0
VERTEX
  5
2bc
  8
Layer_0
  10
32.308628
  20
-60.99498
  0
VERTEX
  5
2bd
  8
Layer_0
  10
31.776228
  20
-60.055328
  0
VERTEX
  5
2be
  8
Layer_0
  10
32.416584
  20
-59.692505
  0
VERTEX
  5
2bf
  8
Layer_0
  10
32.948986
  20
-60.632156
  0
VERTEX
  5
2c0
  8
Layer_0
  10
37.125229
  20
-58.265945
  0
VERTEX
  5
2c1
  8
Layer_0
  10
37.586643
  20
-59.080307
  0
VERTEX
  5
2c2
  8
Layer_0
  10
33.4104
  20
-61.446533
  0
VERTEX
  5
2c3
  8
Layer_0
  10
33.816601
  20
-62.163452
  0
VERTEX
  5
2c4
  8
Layer_0
  10
33.176243
  20
-62.526276
  0
VERTEX
  5
2c5
  8
Layer_0
  10
32.770042
  20
-61.809357
  0
VERTEX
  5
2c6
  8
Layer_0
  10
32.221443
  20
-62.126129
  0
VERTEX
  5
2c7
  8
Layer_0
  10
31.642691
  20
-62.383728
  0
VERTEX
  5
2c8
  8
Layer_0
  10
31.300671
  20
-62.435333
  0
VERTEX
  5
2c9
  8
Layer_0
  10
30.964523
  20
-62.389008
  0
VERTEX
  5
2ca
  8
Layer_0
  10
30.654722
  20
-62.25058
  0
VERTEX
  5
2cb
  8
Layer_0
  10
30.391735
  20
-62.025909
  0
VERTEX
  5
2cc
  8
Layer_0
  10
30.16328
  20
-61.725128
  0
VERTEX
  5
2cd
  8
Layer_0
  10
29.979263
  20
-61.395294
  0
SEQEND
  0
POLYLINE
  5
2cf
  8
Layer_0
  62
0
  70
1
  66
1
  10
0
  20
0
  30
0
  0
VERTEX
  5
2cf
  8
Layer_0
  10
35.266251
  20
-64.900513
  0
VERTEX
  5
2d0
  8
Layer_0
  10
35.434464
  20
-65.145386
  0
VERTEX
  5
2d1
  8
Layer_0
  10
35.640438
  20
-65.348328
  0
VERTEX
  5
2d2
  8
Layer_0
  10
35.876915
  20
-65.506958
  0
VERTEX
  5
2d3
  8
Layer_0
  10
36.136658
  20
-65.618927
  0
VERTEX
  5
2d4
  8
Layer_0
  10
36.412418
  20
-65.681854
  0
VERTEX
  5
2d5
  8
Layer_0
  10
36.696945
  20
-65.69339
  0
VERTEX
  5
2d6
  8
Layer_0
  10
36.982994
  20
-65.651169
  0
VERTEX
  5
2d7
  8
Layer_0
  10
37.263321
  20
-65.552795
  0
VERTEX
  5
2d8
  8
Layer_0
  10
37.42828
  20
-65.486908
  0
VERTEX
  5
2d9
  8
Layer_0
  10
35.902065
  20
-62.793243
  0
VERTEX
  5
2da
  8
Layer_0
  10
35.671661
  20
-62.955841
  0
VERTEX
  5
2db
  8
Layer_0
  10
35.470215
  20
-63.150909
  0
VERTEX
  5
2dc
  8
Layer_0
  10
35.301109
  20
-63.374603
  0
VERTEX
  5
2dd
  8
Layer_0
  10
35.167721
  20
-63.623077
  0
VERTEX
  5
2de
  8
Layer_0
  10
35.078598
  20
-63.944458
  0
VERTEX
  5
2df
  8
Layer_0
  10
35.065998
  20
-64.273438
  0
VERTEX
  5
2e0
  8
Layer_0
  10
35.128895
  20
-64.596588
  0
VERTEX
  5
2e1
  8
Layer_0
  10
35.266251
  20
-64.900513
  0
SEQEND
  0
POLYLINE
  5
2e3
  8
Layer_0
  62
0
  70
1
  66
1
  10
0
  20
0
  30
0
  0
VERTEX
  5
2e3
  8
Layer_0
  10
101.88834
  20
115.79939
  0
VERTEX
  5
2e4
  8
Layer_0
  10
32.081146
  20
6.7551117
  0
VERTEX
  5
2e5
  8
Layer_0
  10
97.212311
  20
-105.35367
  0
VERTEX
  5
2e6
  8
Layer_0
  10
25.118866
  20
-103.79865
  0
VERTEX
  5
2e7
  8
Layer_0
  10
-39.88855
  20
8.2157898
  0
VERTEX
  5
2e8
  8
Layer_0
  10
29.79364
  20
117.35441
  0
VERTEX
  5
2e9
  8
Layer_0
  10
101.88834
  20
115.79939
  0
SEQEND
  0
POLYLINE
  5
2eb
  8
Layer_0
  62
0
  70
1
  66
1
  10
0
  20
0
  30
0
  0
VERTEX
  5
2eb
  8
Layer_0
  10
94.372986
  20
113.59484
  0
VERTEX
  5
2ec
  8
Layer_0
  10
91.686539
  20
109.37898
  0
VERTEX
  5
2ed
  8
Layer_0
  10
94.220749
  20
107.76412
  0
VERTEX
  5
2ee
  8
Layer_0
  10
96.907196
  20
111.97998
  0
VERTEX
  5
2ef
  8
Layer_0
  10
94.372986
  20
113.59484
  0
SEQEND
  0
POLYLINE
  5
2f1
  8
Layer_0
  62
0
  70
1
  66
1
  10
0
  20
0
  30
0
  0
VERTEX
  5
2f1
  8
Layer_0
  10
83.987114
  20
111.2474
  0
VERTEX
  5
2f2
  8
Layer_0
  10
88.984993
  20
111.1396
  0
VERTEX
  5
2f3
  8
Layer_0
  10
89.049797
  20
114.1439
  0
VERTEX
  5
2f4
  8
Layer_0
  10
84.051918
  20
114.25169
  0
VERTEX
  5
2f5
  8
Layer_0
  10
83.987114
  20
111.2474
  0
SEQEND
  0
POLYLINE
  5
2f7
  8
Layer_0
  62
0
  70
1
  66
1
  10
0
  20
0
  30
0
  0
VERTEX
  5
2f7
  8
Layer_0
  10
38.908985
  20
112.22092
  0
VERTEX
  5
2f8
  8
Layer_0
  10
43.90686
  20
112.11313
  0
VERTEX
  5
2f9
  8
Layer_0
  10
43.971661
  20
115.11742
  0
VERTEX
  5
2fa
  8
Layer_0
  10
38.973785
  20
115.22522
  0
VERTEX
  5
2fb
  8
Layer_0
  10
38.908985
  20
112.22092
  0
SEQEND
  0
POLYLINE
  5
2fd
  8
Layer_0
  62
0
  70
1
  66
1
  10
0
  20
0
  30
0
  0
VERTEX
  5
2fd
  8
Layer_0
  10
30.592775
  20
114.90307
  0
VERTEX
  5
2fe
  8
Layer_0
  10
27.906324
  20
110.68721
  0
VERTEX
  5
2ff
  8
Layer_0
  10
30.440535
  20
109.07235
  0
VERTEX
  5
300
  8
Layer_0
  10
33.126984
  20
113.28821
  0
VERTEX
  5
301
  8
Layer_0
  10
30.592775
  20
114.90307
  0
SEQEND
  0
POLYLINE
  5
303
  8
Layer_0
  62
0
  70
1
  66
1
  10
0
  20
0
  30
0
  0
VERTEX
  5
303
  8
Layer_0
  10
-7.2869554
  20
55.624992
  0
VERTEX
  5
304
  8
Layer_0
  10
-9.9734058
  20
51.409142
  0
VERTEX
  5
305
  8
Layer_0
  10
-7.4391952
  20
49.794273
  0
VERTEX
  5
306
  8
Layer_0
  10
-4.7527452
  20
54.010124
  0
VERTEX
  5
307
  8
Layer_0
  10
-7.2869554
  20
55.624992
  0
SEQEND
  0
POLYLINE
  5
309
  8
Layer_0
  62
0
  70
1
  66
1
  10
0
  20
0
  30
0
  0
VERTEX
  5
309
  8
Layer_0
  10
-30.729036
  20
18.760132
  0
VERTEX
  5
30a
  8
Layer_0
  10
-33.415485
  20
14.544281
  0
VERTEX
  5
30b
  8
Layer_0
  10
-30.881277
  20
12.929413
  0
VERTEX
  5
30c
  8
Layer_0
  10
-28.194826
  20
17.145264
  0
VERTEX
  5
30d
  8
Layer_0
  10
-30.729036
  20
18.760132
  0
SEQEND
  0
POLYLINE
  5
30f
  8
Layer_0
  62
0
  70
1
  66
1
  10
0
  20
0
  30
0
  0
VERTEX
  5
30f
  8
Layer_0
  10
-34.58131
  20
3.3739624
  0
VERTEX
  5
310
  8
Layer_0
  10
-32.075214
  20
-0.95152283
  0
VERTEX
  5
311
  8
Layer_0
  10
-29.4751
  20
0.55493164
  0
VERTEX
  5
312
  8
Layer_0
  10
-31.981197
  20
4.8804169
  0
VERTEX
  5
313
  8
Layer_0
  10
-34.58131
  20
3.3739624
  0
SEQEND
  0
POLYLINE
  5
315
  8
Layer_0
  62
0
  70
1
  66
1
  10
0
  20
0
  30
0
  0
VERTEX
  5
315
  8
Layer_0
  10
-6.7892814
  20
-44.669647
  0
VERTEX
  5
316
  8
Layer_0
  10
-4.283185
  20
-48.995132
  0
VERTEX
  5
317
  8
Layer_0
  10
-1.6830697
  20
-47.488678
  0
VERTEX
  5
318
  8
Layer_0
  10
-4.1891661
  20
-43.163193
  0
VERTEX
  5
319
  8
Layer_0
  10
-6.7892814
  20
-44.669647
  0
SEQEND
  0
POLYLINE
  5
31b
  8
Layer_0
  62
0
  70
1
  66
1
  10
0
  20
0
  30
0
  0
VERTEX
  5
31b
  8
Layer_0
  10
23.516237
  20
-97.06015
  0
VERTEX
  5
31c
  8
Layer_0
  10
26.022335
  20
-101.38565
  0
VERTEX
  5
31d
  8
Layer_0
  10
28.62245
  20
-99.879181
  0
VERTEX
  5
31e
  8
Layer_0
  10
26.116352
  20
-95.55368
  0
VERTEX
  5
31f
  8
Layer_0
  10
23.516237
  20
-97.06015
  0
SEQEND
  0
POLYLINE
  5
321
  8
Layer_0
  62
0
  70
1
  66
1
  10
0
  20
0
  30
0
  0
VERTEX
  5
321
  8
Layer_0
  10
34.380672
  20
-102.06668
  0
VERTEX
  5
322
  8
Layer_0
  10
39.378548
  20
-102.1745
  0
VERTEX
  5
323
  8
Layer_0
  10
39.443348
  20
-99.170197
  0
VERTEX
  5
324
  8
Layer_0
  10
34.445473
  20
-99.062378
  0
VERTEX
  5
325
  8
Layer_0
  10
34.380672
  20
-102.06668
  0
SEQEND
  0
POLYLINE
  5
327
  8
Layer_0
  62
0
  70
1
  66
1
  10
0
  20
0
  30
0
  0
VERTEX
  5
327
  8
Layer_0
  10
79.470772
  20
-103.04691
  0
VERTEX
  5
328
  8
Layer_0
  10
84.468651
  20
-103.15472
  0
VERTEX
  5
329
  8
Layer_0
  10
84.533455
  20
-100.15042
  0
VERTEX
  5
32a
  8
Layer_0
  10
79.535576
  20
-100.0426
  0
VERTEX
  5
32b
  8
Layer_0
  10
79.470772
  20
-103.04691
  0
SEQEND
  0
POLYLINE
  5
32d
  8
Layer_0
  62
0
  70
1
  66
1
  10
0
  20
0
  30
0
  0
VERTEX
  5
32d
  8
Layer_0
  10
87.296051
  20
-98.503693
  0
VERTEX
  5
32e
  8
Layer_0
  10
89.802147
  20
-102.82919
  0
VERTEX
  5
32f
  8
Layer_0
  10
92.402267
  20
-101.32272
  0
VERTEX
  5
330
  8
Layer_0
  10
89.896172
  20
-96.997223
  0
VERTEX
  5
331
  8
Layer_0
  10
87.296051
  20
-98.503693
  0
SEQEND
  0
POLYLINE
  5
333
  8
Layer_0
  62
0
  70
1
  66
1
  10
0
  20
0
  30
0
  0
VERTEX
  5
333
  8
Layer_0
  10
56.989857
  20
-46.112183
  0
VERTEX
  5
334
  8
Layer_0
  10
59.495953
  20
-50.437668
  0
VERTEX
  5
335
  8
Layer_0
  10
62.096066
  20
-48.931213
  0
VERTEX
  5
336
  8
Layer_0
  10
59.58997
  20
-44.605728
  0
VERTEX
  5
337
  8
Layer_0
  10
56.989857
  20
-46.112183
  0
SEQEND
  0
POLYLINE
  5
339
  8
Layer_0
  62
0
  70
1
  66
1
  10
0
  20
0
  30
0
  0
VERTEX
  5
339
  8
Layer_0
  10
29.179293
  20
1.9714661
  0
VERTEX
  5
33a
  8
Layer_0
  10
31.68539
  20
-2.3540192
  0
VERTEX
  5
33b
  8
Layer_0
  10
34.285503
  20
-0.8475647
  0
VERTEX
  5
33c
  8
Layer_0
  10
31.779408
  20
3.4779205
  0
VERTEX
  5
33d
  8
Layer_0
  10
29.179293
  20
1.9714661
  0
SEQEND
  0
POLYLINE
  5
33f
  8
Layer_0
  62
0
  70
1
  66
1
  10
0
  20
0
  30
0
  0
VERTEX
  5
33f
  8
Layer_0
  10
56.442276
  20
54.116379
  0
VERTEX
  5
340
  8
Layer_0
  10
53.757313
  20
49.923088
  0
VERTEX
  5
341
  8
Layer_0
  10
56.328735
  20
48.276611
  0
VERTEX
  5
342
  8
Layer_0
  10
59.013699
  20
52.469902
  0
VERTEX
  5
343
  8
Layer_0
  10
56.442276
  20
54.116379
  0
SEQEND
  0
POLYLINE
  5
345
  8
Layer_0
  62
0
  70
1
  66
1
  10
0
  20
0
  30
0
  0
VERTEX
  5
345
  8
Layer_0
  10
33.216171
  20
17.376907
  0
VERTEX
  5
346
  8
Layer_0
  10
30.529722
  20
13.161057
  0
VERTEX
  5
347
  8
Layer_0
  10
33.063934
  20
11.546188
  0
VERTEX
  5
348
  8
Layer_0
  10
35.750381
  20
15.762039
  0
VERTEX
  5
349
  8
Layer_0
  10
33.216171
  20
17.376907
  0
SEQEND
  0
POLYLINE
  5
34b
  8
Layer_0
  62
0
  70
1
  66
1
  10
0
  20
0
  30
0
  0
VERTEX
  5
34b
  8
Layer_0
  10
-39.530235
  20
-92.545105
  0
VERTEX
  5
34c
  8
Layer_0
  10
-39.501678
  20
-97.546997
  0
VERTEX
  5
34d
  8
Layer_0
  10
-34.556534
  20
-97.548035
  0
VERTEX
  5
34e
  8
Layer_0
  10
-34.585091
  20
-92.546143
  0
VERTEX
  5
34f
  8
Layer_0
  10
-39.530235
  20
-92.545105
  0
SEQEND
  0
POLYLINE
  5
351
  8
Layer_0
  62
0
  70
1
  66
1
  10
0
  20
0
  30
0
  0
VERTEX
  5
351
  8
Layer_0
  10
-39.401058
  20
-67.745682
  0
VERTEX
  5
352
  8
Layer_0
  10
-39.372501
  20
-72.747574
  0
VERTEX
  5
353
  8
Layer_0
  10
-34.427353
  20
-72.748627
  0
VERTEX
  5
354
  8
Layer_0
  10
-34.455914
  20
-67.746735
  0
VERTEX
  5
355
  8
Layer_0
  10
-39.401058
  20
-67.745682
  0
SEQEND
  0
POLYLINE
  5
357
  8
Layer_0
  62
0
  70
1
  66
1
  10
0
  20
0
  30
0
  0
VERTEX
  5
357
  8
Layer_0
  10
-159.87978
  20
-103.0834
  0
VERTEX
  5
358
  8
Layer_0
  10
-159.87305
  20
-106.09943
  0
VERTEX
  5
359
  8
Layer_0
  10
-161.47304
  20
-106.103
  0
VERTEX
  5
35a
  8
Layer_0
  10
-161.37578
  20
-103.08676
  0
VERTEX
  5
35b
  8
Layer_0
  10
-161.32777
  20
-103.08664
  0
VERTEX
  5
35c
  8
Layer_0
  10
-161.32982
  20
-102.17465
  0
VERTEX
  5
35d
  8
Layer_0
  10
-161.30582
  20
-102.17459
  0
VERTEX
  5
35e
  8
Layer_0
  10
-161.4413
  20
-63.00679
  0
VERTEX
  5
35f
  8
Layer_0
  10
-161.54408
  20
-59.96701
  0
VERTEX
  5
360
  8
Layer_0
  10
-159.94409
  20
-59.96344
  0
VERTEX
  5
361
  8
Layer_0
  10
-159.93729
  20
-63.011414
  0
VERTEX
  5
362
  8
Layer_0
  10
-157.9373
  20
-63.006958
  0
VERTEX
  5
363
  8
Layer_0
  10
-157.94411
  20
-59.958969
  0
VERTEX
  5
364
  8
Layer_0
  10
-156.3441
  20
-59.955383
  0
VERTEX
  5
365
  8
Layer_0
  10
-156.44937
  20
-62.971634
  0
VERTEX
  5
366
  8
Layer_0
  10
-100.86508
  20
-63.023499
  0
VERTEX
  5
367
  8
Layer_0
  10
-100.9678
  20
-60.015717
  0
VERTEX
  5
368
  8
Layer_0
  10
-99.367798
  20
-60.012146
  0
VERTEX
  5
369
  8
Layer_0
  10
-99.361038
  20
-63.036133
  0
VERTEX
  5
36a
  8
Layer_0
  10
-97.361053
  20
-63.031677
  0
VERTEX
  5
36b
  8
Layer_0
  10
-97.367813
  20
-60.007675
  0
VERTEX
  5
36c
  8
Layer_0
  10
-95.767807
  20
-60.004089
  0
VERTEX
  5
36d
  8
Layer_0
  10
-95.865051
  20
-63.02832
  0
VERTEX
  5
36e
  8
Layer_0
  10
-45.345097
  20
-62.947479
  0
VERTEX
  5
36f
  8
Layer_0
  10
-45.455883
  20
-59.90773
  0
VERTEX
  5
370
  8
Layer_0
  10
-43.855885
  20
-59.904144
  0
VERTEX
  5
371
  8
Layer_0
  10
-43.849148
  20
-62.920151
  0
VERTEX
  5
372
  8
Layer_0
  10
-41.849155
  20
-62.91568
  0
VERTEX
  5
373
  8
Layer_0
  10
-41.855892
  20
-59.899689
  0
VERTEX
  5
374
  8
Layer_0
  10
-40.255894
  20
-59.896118
  0
VERTEX
  5
375
  8
Layer_0
  10
-40.353153
  20
-62.912354
  0
VERTEX
  5
376
  8
Layer_0
  10
-32.521168
  20
-62.894852
  0
VERTEX
  5
377
  8
Layer_0
  10
-32.455936
  20
-102.84683
  0
VERTEX
  5
378
  8
Layer_0
  10
-36.367947
  20
-102.84756
  0
VERTEX
  5
379
  8
Layer_0
  10
-40.28796
  20
-102.84833
  0
VERTEX
  5
37a
  8
Layer_0
  10
-40.236603
  20
-104.35245
  0
VERTEX
  5
37b
  8
Layer_0
  10
-40.169239
  20
-105.85605
  0
VERTEX
  5
37c
  8
Layer_0
  10
-41.769238
  20
-105.85962
  0
VERTEX
  5
37d
  8
Layer_0
  10
-41.776028
  20
-102.81964
  0
VERTEX
  5
37e
  8
Layer_0
  10
-43.77602
  20
-102.8241
  0
VERTEX
  5
37f
  8
Layer_0
  10
-43.76923
  20
-105.86411
  0
VERTEX
  5
380
  8
Layer_0
  10
-45.369228
  20
-105.86768
  0
VERTEX
  5
381
  8
Layer_0
  10
-45.280018
  20
-102.82745
  0
VERTEX
  5
382
  8
Layer_0
  10
-95.800064
  20
-102.87628
  0
VERTEX
  5
383
  8
Layer_0
  10
-95.689346
  20
-105.88406
  0
VERTEX
  5
384
  8
Layer_0
  10
-97.297348
  20
-105.88766
  0
VERTEX
  5
385
  8
Layer_0
  10
-97.304062
  20
-102.87967
  0
VERTEX
  5
386
  8
Layer_0
  10
-99.304047
  20
-102.88412
  0
VERTEX
  5
387
  8
Layer_0
  10
-99.297333
  20
-105.89212
  0
VERTEX
  5
388
  8
Layer_0
  10
-100.89734
  20
-105.89569
  0
VERTEX
  5
389
  8
Layer_0
  10
-100.80005
  20
-102.88745
  0
VERTEX
  5
38a
  8
Layer_0
  10
-156.38379
  20
-103.07562
  0
VERTEX
  5
38b
  8
Layer_0
  10
-156.27306
  20
-106.09137
  0
VERTEX
  5
38c
  8
Layer_0
  10
-157.87306
  20
-106.09494
  0
VERTEX
  5
38d
  8
Layer_0
  10
-157.87979
  20
-103.07895
  0
VERTEX
  5
38e
  8
Layer_0
  10
-159.87978
  20
-103.0834
  0
SEQEND
  0
POLYLINE
  5
390
  8
Layer_0
  62
0
  70
1
  66
1
  10
0
  20
0
  30
0
  0
VERTEX
  5
390
  8
Layer_0
  10
-55.035831
  20
73.65358
  0
VERTEX
  5
391
  8
Layer_0
  10
-53.036129
  20
73.688034
  0
VERTEX
  5
392
  8
Layer_0
  10
-53.088493
  20
76.72757
  0
VERTEX
  5
393
  8
Layer_0
  10
-51.488728
  20
76.755127
  0
VERTEX
  5
394
  8
Layer_0
  10
-51.548347
  20
73.713669
  0
VERTEX
  5
395
  8
Layer_0
  10
-43.708954
  20
73.816711
  0
VERTEX
  5
396
  8
Layer_0
  10
-43.228737
  20
33.867035
  0
VERTEX
  5
397
  8
Layer_0
  10
-47.145519
  20
33.823578
  0
VERTEX
  5
398
  8
Layer_0
  10
-51.060543
  20
33.788116
  0
VERTEX
  5
399
  8
Layer_0
  10
-50.904743
  20
30.782379
  0
VERTEX
  5
39a
  8
Layer_0
  10
-52.504509
  20
30.754807
  0
VERTEX
  5
39b
  8
Layer_0
  10
-52.557285
  20
33.818344
  0
VERTEX
  5
39c
  8
Layer_0
  10
-54.556988
  20
33.783905
  0
VERTEX
  5
39d
  8
Layer_0
  10
-54.504211
  20
30.720367
  0
VERTEX
  5
39e
  8
Layer_0
  10
-56.103973
  20
30.692795
  0
VERTEX
  5
39f
  8
Layer_0
  10
-56.052769
  20
33.758118
  0
VERTEX
  5
3a0
  8
Layer_0
  10
-106.57026
  20
33.175873
  0
VERTEX
  5
3a1
  8
Layer_0
  10
-106.42245
  20
30.169952
  0
VERTEX
  5
3a2
  8
Layer_0
  10
-108.02222
  20
30.142395
  0
VERTEX
  5
3a3
  8
Layer_0
  10
-108.07444
  20
33.17395
  0
VERTEX
  5
3a4
  8
Layer_0
  10
-110.07415
  20
33.139496
  0
VERTEX
  5
3a5
  8
Layer_0
  10
-110.02193
  20
30.107941
  0
VERTEX
  5
3a6
  8
Layer_0
  10
-111.62169
  20
30.080383
  0
VERTEX
  5
3a7
  8
Layer_0
  10
-111.56993
  20
33.113739
  0
VERTEX
  5
3a8
  8
Layer_0
  10
-167.14888
  20
32.34024
  0
VERTEX
  5
3a9
  8
Layer_0
  10
-166.97707
  20
29.334747
  0
VERTEX
  5
3aa
  8
Layer_0
  10
-168.57684
  20
29.30719
  0
VERTEX
  5
3ab
  8
Layer_0
  10
-168.62907
  20
32.338745
  0
VERTEX
  5
3ac
  8
Layer_0
  10
-170.62877
  20
32.304291
  0
VERTEX
  5
3ad
  8
Layer_0
  10
-170.57654
  20
29.272736
  0
VERTEX
  5
3ae
  8
Layer_0
  10
-172.1763
  20
29.245178
  0
VERTEX
  5
3af
  8
Layer_0
  10
-172.14069
  20
32.286255
  0
VERTEX
  5
3b0
  8
Layer_0
  10
-172.09254
  20
32.279083
  0
VERTEX
  5
3b1
  8
Layer_0
  10
-172.10025
  20
33.191071
  0
VERTEX
  5
3b2
  8
Layer_0
  10
-172.0764
  20
33.199493
  0
VERTEX
  5
3b3
  8
Layer_0
  10
-172.59898
  20
72.356308
  0
VERTEX
  5
3b4
  8
Layer_0
  10
-172.77132
  20
75.393799
  0
VERTEX
  5
3b5
  8
Layer_0
  10
-171.17155
  20
75.421356
  0
VERTEX
  5
3b6
  8
Layer_0
  10
-171.1192
  20
72.381805
  0
VERTEX
  5
3b7
  8
Layer_0
  10
-169.11951
  20
72.41626
  0
VERTEX
  5
3b8
  8
Layer_0
  10
-169.17186
  20
75.455811
  0
VERTEX
  5
3b9
  8
Layer_0
  10
-167.57208
  20
75.483368
  0
VERTEX
  5
3ba
  8
Layer_0
  10
-167.63171
  20
72.441895
  0
VERTEX
  5
3bb
  8
Layer_0
  10
-112.0565
  20
72.967285
  0
VERTEX
  5
3bc
  8
Layer_0
  10
-112.19643
  20
75.981308
  0
VERTEX
  5
3bd
  8
Layer_0
  10
-110.59667
  20
76.008865
  0
VERTEX
  5
3be
  8
Layer_0
  10
-110.54417
  20
72.961304
  0
VERTEX
  5
3bf
  8
Layer_0
  10
-108.54446
  20
72.995758
  0
VERTEX
  5
3c0
  8
Layer_0
  10
-108.59697
  20
76.04332
  0
VERTEX
  5
3c1
  8
Layer_0
  10
-106.9972
  20
76.070877
  0
VERTEX
  5
3c2
  8
Layer_0
  10
-107.04868
  20
73.02153
  0
VERTEX
  5
3c3
  8
Layer_0
  10
-56.539608
  20
73.62767
  0
VERTEX
  5
3c4
  8
Layer_0
  10
-56.687958
  20
76.665558
  0
VERTEX
  5
3c5
  8
Layer_0
  10
-55.088196
  20
76.693115
  0
VERTEX
  5
3c6
  8
Layer_0
  10
-55.035831
  20
73.65358
  0
SEQEND
  0
POLYLINE
  5
3c8
  8
Layer_0
  62
0
  70
1
  66
1
  10
0
  20
0
  30
0
  0
VERTEX
  5
3c8
  8
Layer_0
  10
-50.540688
  20
68.894592
  0
VERTEX
  5
3c9
  8
Layer_0
  10
-50.459881
  20
63.89328
  0
VERTEX
  5
3ca
  8
Layer_0
  10
-45.514999
  20
63.943893
  0
VERTEX
  5
3cb
  8
Layer_0
  10
-45.595806
  20
68.945206
  0
VERTEX
  5
3cc
  8
Layer_0
  10
-50.540688
  20
68.894592
  0
SEQEND
  0
POLYLINE
  5
3ce
  8
Layer_0
  62
0
  70
1
  66
1
  10
0
  20
0
  30
0
  0
VERTEX
  5
3ce
  8
Layer_0
  10
-50.410809
  20
44.0952
  0
VERTEX
  5
3cf
  8
Layer_0
  10
-50.330002
  20
39.093872
  0
VERTEX
  5
3d0
  8
Layer_0
  10
-45.385117
  20
39.144501
  0
VERTEX
  5
3d1
  8
Layer_0
  10
-45.465923
  20
44.145813
  0
VERTEX
  5
3d2
  8
Layer_0
  10
-50.410809
  20
44.0952
  0
SEQEND
  0
POLYLINE
  5
3d4
  8
Layer_0
  62
0
  70
1
  66
1
  10
0
  20
0
  30
0
  0
VERTEX
  5
3d4
  8
Layer_0
  10
8.4983368
  20
-104.65573
  0
VERTEX
  5
3d5
  8
Layer_0
  10
8.5137157
  20
-104.69293
  0
VERTEX
  5
3d6
  8
Layer_0
  10
8.5326996
  20
-104.72842
  0
VERTEX
  5
3d7
  8
Layer_0
  10
8.4983368
  20
-104.65573
  0
SEQEND
  0
POLYLINE
  5
3d9
  8
Layer_0
  62
0
  70
1
  66
1
  10
0
  20
0
  30
0
  0
VERTEX
  5
3d9
  8
Layer_0
  10
-170.2525
  20
94.497391
  0
VERTEX
  5
3da
  8
Layer_0
  10
-173.2605
  20
94.49511
  0
VERTEX
  5
3db
  8
Layer_0
  10
-173.26172
  20
96.095108
  0
VERTEX
  5
3dc
  8
Layer_0
  10
-170.26164
  20
95.993378
  0
VERTEX
  5
3dd
  8
Layer_0
  10
-170.22797
  20
136.03343
  0
VERTEX
  5
3de
  8
Layer_0
  10
-171.72766
  20
135.97617
  0
VERTEX
  5
3df
  8
Layer_0
  10
-173.22791
  20
135.93515
  0
VERTEX
  5
3e0
  8
Layer_0
  10
-173.22911
  20
137.53516
  0
VERTEX
  5
3e1
  8
Layer_0
  10
-170.19711
  20
137.53745
  0
VERTEX
  5
3e2
  8
Layer_0
  10
-170.19862
  20
139.53745
  0
VERTEX
  5
3e3
  8
Layer_0
  10
-173.23062
  20
139.53516
  0
VERTEX
  5
3e4
  8
Layer_0
  10
-173.23184
  20
141.13516
  0
VERTEX
  5
3e5
  8
Layer_0
  10
-170.22377
  20
141.04144
  0
VERTEX
  5
3e6
  8
Layer_0
  10
-170.19975
  20
141.03345
  0
VERTEX
  5
3e7
  8
Layer_0
  10
-170.17969
  20
146.20947
  0
VERTEX
  5
3e8
  8
Layer_0
  10
-130.19565
  20
146.19977
  0
VERTEX
  5
3e9
  8
Layer_0
  10
-130.25566
  20
140.92772
  0
VERTEX
  5
3ea
  8
Layer_0
  10
-127.25574
  20
141.034
  0
VERTEX
  5
3eb
  8
Layer_0
  10
-127.26253
  20
139.43399
  0
VERTEX
  5
3ec
  8
Layer_0
  10
-130.26253
  20
139.4317
  0
VERTEX
  5
3ed
  8
Layer_0
  10
-130.261
  20
137.4317
  0
VERTEX
  5
3ee
  8
Layer_0
  10
-127.261
  20
137.43399
  0
VERTEX
  5
3ef
  8
Layer_0
  10
-127.2598
  20
135.83398
  0
VERTEX
  5
3f0
  8
Layer_0
  10
-130.25986
  20
135.91971
  0
VERTEX
  5
3f1
  8
Layer_0
  10
-130.22946
  20
95.799713
  0
VERTEX
  5
3f2
  8
Layer_0
  10
-127.23759
  20
95.977982
  0
VERTEX
  5
3f3
  8
Layer_0
  10
-127.23639
  20
94.377975
  0
VERTEX
  5
3f4
  8
Layer_0
  10
-130.24438
  20
94.375702
  0
VERTEX
  5
3f5
  8
Layer_0
  10
-130.24287
  20
92.375702
  0
VERTEX
  5
3f6
  8
Layer_0
  10
-127.23487
  20
92.377975
  0
VERTEX
  5
3f7
  8
Layer_0
  10
-127.23366
  20
90.777977
  0
VERTEX
  5
3f8
  8
Layer_0
  10
-130.24173
  20
90.871704
  0
VERTEX
  5
3f9
  8
Layer_0
  10
-130.20735
  20
87.735725
  0
VERTEX
  5
3fa
  8
Layer_0
  10
-170.24738
  20
87.737389
  0
VERTEX
  5
3fb
  8
Layer_0
  10
-170.24985
  20
90.98539
  0
VERTEX
  5
3fc
  8
Layer_0
  10
-171.37848
  20
90.968521
  0
VERTEX
  5
3fd
  8
Layer_0
  10
-172.50578
  20
90.911682
  0
VERTEX
  5
3fe
  8
Layer_0
  10
-173.25778
  20
90.895111
  0
VERTEX
  5
3ff
  8
Layer_0
  10
-173.25899
  20
92.49511
  0
VERTEX
  5
400
  8
Layer_0
  10
-170.25099
  20
92.497391
  0
VERTEX
  5
401
  8
Layer_0
  10
-170.2525
  20
94.497391
  0
SEQEND
  0
POLYLINE
  5
403
  8
Layer_0
  62
0
  70
1
  66
1
  10
0
  20
0
  30
0
  0
VERTEX
  5
403
  8
Layer_0
  10
-85.989532
  20
130.44754
  0
VERTEX
  5
404
  8
Layer_0
  10
-85.988007
  20
128.44754
  0
VERTEX
  5
405
  8
Layer_0
  10
-82.980011
  20
128.44983
  0
VERTEX
  5
406
  8
Layer_0
  10
-82.97879
  20
126.84983
  0
VERTEX
  5
407
  8
Layer_0
  10
-85.986877
  20
126.95155
  0
VERTEX
  5
408
  8
Layer_0
  10
-85.99649
  20
86.863525
  0
VERTEX
  5
409
  8
Layer_0
  10
-83.012573
  20
86.953781
  0
VERTEX
  5
40a
  8
Layer_0
  10
-83.011353
  20
85.353775
  0
VERTEX
  5
40b
  8
Layer_0
  10
-86.011353
  20
85.351509
  0
VERTEX
  5
40c
  8
Layer_0
  10
-86.009827
  20
83.351509
  0
VERTEX
  5
40d
  8
Layer_0
  10
-83.009827
  20
83.353775
  0
VERTEX
  5
40e
  8
Layer_0
  10
-83.008636
  20
81.753784
  0
VERTEX
  5
40f
  8
Layer_0
  10
-86.008698
  20
81.847511
  0
VERTEX
  5
410
  8
Layer_0
  10
-85.966248
  20
78.61554
  0
VERTEX
  5
411
  8
Layer_0
  10
-125.95828
  20
78.617241
  0
VERTEX
  5
412
  8
Layer_0
  10
-125.97672
  20
81.857231
  0
VERTEX
  5
413
  8
Layer_0
  10
-128.97665
  20
81.758957
  0
VERTEX
  5
414
  8
Layer_0
  10
-128.97784
  20
83.358955
  0
VERTEX
  5
415
  8
Layer_0
  10
-125.97784
  20
83.361229
  0
VERTEX
  5
416
  8
Layer_0
  10
-125.97937
  20
85.361229
  0
VERTEX
  5
417
  8
Layer_0
  10
-128.97937
  20
85.358955
  0
VERTEX
  5
418
  8
Layer_0
  10
-128.98059
  20
86.958954
  0
VERTEX
  5
419
  8
Layer_0
  10
-127.48845
  20
86.920181
  0
VERTEX
  5
41a
  8
Layer_0
  10
-125.99652
  20
86.873215
  0
VERTEX
  5
41b
  8
Layer_0
  10
-126.01089
  20
126.96123
  0
VERTEX
  5
41c
  8
Layer_0
  10
-129.0188
  20
126.85495
  0
VERTEX
  5
41d
  8
Layer_0
  10
-129.02002
  20
128.45496
  0
VERTEX
  5
41e
  8
Layer_0
  10
-126.01202
  20
128.45723
  0
VERTEX
  5
41f
  8
Layer_0
  10
-126.01355
  20
130.45723
  0
VERTEX
  5
420
  8
Layer_0
  10
-129.02155
  20
130.45496
  0
VERTEX
  5
421
  8
Layer_0
  10
-129.01474
  20
132.05496
  0
VERTEX
  5
422
  8
Layer_0
  10
-126.01468
  20
131.95323
  0
VERTEX
  5
423
  8
Layer_0
  10
-125.99866
  20
131.92123
  0
VERTEX
  5
424
  8
Layer_0
  10
-126.0108
  20
137.38524
  0
VERTEX
  5
425
  8
Layer_0
  10
-86.010773
  20
137.38354
  0
VERTEX
  5
426
  8
Layer_0
  10
-85.982666
  20
131.94356
  0
VERTEX
  5
427
  8
Layer_0
  10
-82.982727
  20
132.04984
  0
VERTEX
  5
428
  8
Layer_0
  10
-82.981537
  20
130.44983
  0
VERTEX
  5
429
  8
Layer_0
  10
-85.989532
  20
130.44754
  0
SEQEND
  0
POLYLINE
  5
42b
  8
Layer_0
  62
0
  70
1
  66
1
  10
0
  20
0
  30
0
  0
VERTEX
  5
42b
  8
Layer_0
  10
-124.25198
  20
-16.968002
  0
VERTEX
  5
42c
  8
Layer_0
  10
-122.25198
  20
-16.975998
  0
VERTEX
  5
42d
  8
Layer_0
  10
-122.24399
  20
-13.895996
  0
VERTEX
  5
42e
  8
Layer_0
  10
-120.64398
  20
-13.895996
  0
VERTEX
  5
42f
  8
Layer_0
  10
-120.77199
  20
-16.975998
  0
VERTEX
  5
430
  8
Layer_0
  10
-55.275986
  20
-17.112
  0
VERTEX
  5
431
  8
Layer_0
  10
-55.363983
  20
-14.096008
  0
VERTEX
  5
432
  8
Layer_0
  10
-53.763992
  20
-14.104004
  0
VERTEX
  5
433
  8
Layer_0
  10
-53.771988
  20
-17.272003
  0
VERTEX
  5
434
  8
Layer_0
  10
-51.771988
  20
-17.272003
  0
VERTEX
  5
435
  8
Layer_0
  10
-51.763992
  20
-14.104004
  0
VERTEX
  5
436
  8
Layer_0
  10
-50.163986
  20
-14.104004
  0
VERTEX
  5
437
  8
Layer_0
  10
-50.275986
  20
-17.112
  0
VERTEX
  5
438
  8
Layer_0
  10
-50.307983
  20
-17.12001
  0
VERTEX
  5
439
  8
Layer_0
  10
-50.467987
  20
-57.087997
  0
VERTEX
  5
43a
  8
Layer_0
  10
-50.291992
  20
-60.112
  0
VERTEX
  5
43b
  8
Layer_0
  10
-51.891983
  20
-60.112
  0
VERTEX
  5
43c
  8
Layer_0
  10
-51.891983
  20
-57.087997
  0
VERTEX
  5
43d
  8
Layer_0
  10
-53.891983
  20
-57.087997
  0
VERTEX
  5
43e
  8
Layer_0
  10
-53.891983
  20
-60.112
  0
VERTEX
  5
43f
  8
Layer_0
  10
-55.491989
  20
-60.112
  0
VERTEX
  5
440
  8
Layer_0
  10
-55.387985
  20
-57.087997
  0
VERTEX
  5
441
  8
Layer_0
  10
-120.88399
  20
-57.007996
  0
VERTEX
  5
442
  8
Layer_0
  10
-120.76399
  20
-60.056
  0
VERTEX
  5
443
  8
Layer_0
  10
-122.36398
  20
-60.056
  0
VERTEX
  5
444
  8
Layer_0
  10
-122.36398
  20
-57.016006
  0
VERTEX
  5
445
  8
Layer_0
  10
-124.36398
  20
-57.016006
  0
VERTEX
  5
446
  8
Layer_0
  10
-124.36398
  20
-60.056
  0
VERTEX
  5
447
  8
Layer_0
  10
-125.96399
  20
-60.056
  0
VERTEX
  5
448
  8
Layer_0
  10
-125.868
  20
-57.016006
  0
VERTEX
  5
449
  8
Layer_0
  10
-164.508
  20
-56.824005
  0
VERTEX
  5
44a
  8
Layer_0
  10
-164.41998
  20
-59.832001
  0
VERTEX
  5
44b
  8
Layer_0
  10
-166.01999
  20
-59.832001
  0
VERTEX
  5
44c
  8
Layer_0
  10
-166.01999
  20
-56.807999
  0
VERTEX
  5
44d
  8
Layer_0
  10
-168.01999
  20
-56.807999
  0
VERTEX
  5
44e
  8
Layer_0
  10
-168.01999
  20
-59.832001
  0
VERTEX
  5
44f
  8
Layer_0
  10
-169.62
  20
-59.832001
  0
VERTEX
  5
450
  8
Layer_0
  10
-169.51599
  20
-56.807999
  0
VERTEX
  5
451
  8
Layer_0
  10
-174.508
  20
-56.792007
  0
VERTEX
  5
452
  8
Layer_0
  10
-174.34
  20
-51.311996
  0
VERTEX
  5
453
  8
Layer_0
  10
-177.08813
  20
-51.304047
  0
VERTEX
  5
454
  8
Layer_0
  10
-179.836
  20
-51.264008
  0
VERTEX
  5
455
  8
Layer_0
  10
-179.81198
  20
-46.304001
  0
VERTEX
  5
456
  8
Layer_0
  10
-177.08398
  20
-46.311996
  0
VERTEX
  5
457
  8
Layer_0
  10
-174.34799
  20
-46.320007
  0
VERTEX
  5
458
  8
Layer_0
  10
-174.30798
  20
-26.535995
  0
VERTEX
  5
459
  8
Layer_0
  10
-177.06775
  20
-26.512024
  0
VERTEX
  5
45a
  8
Layer_0
  10
-179.82799
  20
-26.496002
  0
VERTEX
  5
45b
  8
Layer_0
  10
-179.79599
  20
-21.535995
  0
VERTEX
  5
45c
  8
Layer_0
  10
-174.30798
  20
-21.528
  0
VERTEX
  5
45d
  8
Layer_0
  10
-174.396
  20
-16.992004
  0
VERTEX
  5
45e
  8
Layer_0
  10
-169.40399
  20
-16.992004
  0
VERTEX
  5
45f
  8
Layer_0
  10
-169.49199
  20
-13.984009
  0
VERTEX
  5
460
  8
Layer_0
  10
-167.892
  20
-13.992004
  0
VERTEX
  5
461
  8
Layer_0
  10
-167.89999
  20
-16.992004
  0
VERTEX
  5
462
  8
Layer_0
  10
-165.89999
  20
-16.992004
  0
VERTEX
  5
463
  8
Layer_0
  10
-165.892
  20
-13.992004
  0
VERTEX
  5
464
  8
Layer_0
  10
-164.29199
  20
-13.992004
  0
VERTEX
  5
465
  8
Layer_0
  10
-164.396
  20
-16.992004
  0
VERTEX
  5
466
  8
Layer_0
  10
-125.74799
  20
-16.944
  0
VERTEX
  5
467
  8
Layer_0
  10
-125.84399
  20
-13.888
  0
VERTEX
  5
468
  8
Layer_0
  10
-124.24399
  20
-13.888
  0
VERTEX
  5
469
  8
Layer_0
  10
-124.25198
  20
-16.968002
  0
SEQEND
  0
POLYLINE
  5
46b
  8
Layer_0
  62
0
  70
1
  66
1
  10
0
  20
0
  30
0
  0
VERTEX
  5
46b
  8
Layer_0
  10
-44.922363
  20
28.61792
  0
VERTEX
  5
46c
  8
Layer_0
  10
-44.949097
  20
31.601791
  0
VERTEX
  5
46d
  8
Layer_0
  10
-43.349152
  20
31.616135
  0
VERTEX
  5
46e
  8
Layer_0
  10
-43.434418
  20
28.631256
  0
VERTEX
  5
46f
  8
Layer_0
  10
-43.202621
  20
-11.52829
  0
VERTEX
  5
470
  8
Layer_0
  10
-43.178558
  20
-11.536072
  0
VERTEX
  5
471
  8
Layer_0
  10
-43.055756
  20
-14.5271
  0
VERTEX
  5
472
  8
Layer_0
  10
-45.159653
  20
-14.545959
  0
VERTEX
  5
473
  8
Layer_0
  10
-45.178467
  20
-11.554001
  0
VERTEX
  5
474
  8
Layer_0
  10
-46.178436
  20
-11.562958
  0
VERTEX
  5
475
  8
Layer_0
  10
-46.159622
  20
-14.554901
  0
VERTEX
  5
476
  8
Layer_0
  10
-48.255615
  20
-14.565689
  0
VERTEX
  5
477
  8
Layer_0
  10
-48.170502
  20
-11.564804
  0
VERTEX
  5
478
  8
Layer_0
  10
-113.59331
  20
-11.990936
  0
VERTEX
  5
479
  8
Layer_0
  10
-113.47044
  20
-14.98996
  0
VERTEX
  5
47a
  8
Layer_0
  10
-115.57436
  20
-15.00882
  0
VERTEX
  5
47b
  8
Layer_0
  10
-115.59338
  20
-11.992859
  0
VERTEX
  5
47c
  8
Layer_0
  10
-116.59334
  20
-12.001816
  0
VERTEX
  5
47d
  8
Layer_0
  10
-116.57431
  20
-15.017761
  0
VERTEX
  5
47e
  8
Layer_0
  10
-118.6703
  20
-15.028549
  0
VERTEX
  5
47f
  8
Layer_0
  10
-118.58532
  20
-12.011673
  0
VERTEX
  5
480
  8
Layer_0
  10
-157.28906
  20
-12.214417
  0
VERTEX
  5
481
  8
Layer_0
  10
-157.17413
  20
-15.221512
  0
VERTEX
  5
482
  8
Layer_0
  10
-159.27805
  20
-15.240356
  0
VERTEX
  5
483
  8
Layer_0
  10
-159.29713
  20
-12.2164
  0
VERTEX
  5
484
  8
Layer_0
  10
-160.29716
  20
-12.217377
  0
VERTEX
  5
485
  8
Layer_0
  10
-160.27808
  20
-15.241318
  0
VERTEX
  5
486
  8
Layer_0
  10
-162.37399
  20
-15.260101
  0
VERTEX
  5
487
  8
Layer_0
  10
-162.29701
  20
-12.243286
  0
VERTEX
  5
488
  8
Layer_0
  10
-166.065
  20
-12.261047
  0
VERTEX
  5
489
  8
Layer_0
  10
-166.08099
  20
-7.7970123
  0
VERTEX
  5
48a
  8
Layer_0
  10
-172.72174
  20
-7.7445068
  0
VERTEX
  5
48b
  8
Layer_0
  10
-172.73418
  20
-2.7844086
  0
VERTEX
  5
48c
  8
Layer_0
  10
-169.99034
  20
-2.7597961
  0
VERTEX
  5
48d
  8
Layer_0
  10
-167.24646
  20
-2.7272491
  0
VERTEX
  5
48e
  8
Layer_0
  10
-167.38379
  20
17.064331
  0
VERTEX
  5
48f
  8
Layer_0
  10
-170.116
  20
17.063797
  0
VERTEX
  5
490
  8
Layer_0
  10
-172.84814
  20
17.079376
  0
VERTEX
  5
491
  8
Layer_0
  10
-172.86057
  20
22.039459
  0
VERTEX
  5
492
  8
Layer_0
  10
-171.12839
  20
22.047012
  0
VERTEX
  5
493
  8
Layer_0
  10
-169.39636
  20
22.030487
  0
VERTEX
  5
494
  8
Layer_0
  10
-167.40451
  20
22.056335
  0
VERTEX
  5
495
  8
Layer_0
  10
-167.42169
  20
24.804428
  0
VERTEX
  5
496
  8
Layer_0
  10
-167.48575
  20
27.551834
  0
VERTEX
  5
497
  8
Layer_0
  10
-165.00571
  20
27.582001
  0
VERTEX
  5
498
  8
Layer_0
  10
-162.52602
  20
27.604263
  0
VERTEX
  5
499
  8
Layer_0
  10
-162.65695
  20
30.611221
  0
VERTEX
  5
49a
  8
Layer_0
  10
-161.05702
  20
30.625549
  0
VERTEX
  5
49b
  8
Layer_0
  10
-161.03008
  20
27.617676
  0
VERTEX
  5
49c
  8
Layer_0
  10
-159.03015
  20
27.63559
  0
VERTEX
  5
49d
  8
Layer_0
  10
-159.0571
  20
30.643463
  0
VERTEX
  5
49e
  8
Layer_0
  10
-157.45717
  20
30.657806
  0
VERTEX
  5
49f
  8
Layer_0
  10
-157.52621
  20
27.649063
  0
VERTEX
  5
4a0
  8
Layer_0
  10
-118.82384
  20
28.003815
  0
VERTEX
  5
4a1
  8
Layer_0
  10
-118.95477
  20
31.010757
  0
VERTEX
  5
4a2
  8
Layer_0
  10
-117.35484
  20
31.025085
  0
VERTEX
  5
4a3
  8
Layer_0
  10
-117.3279
  20
28.017212
  0
VERTEX
  5
4a4
  8
Layer_0
  10
-115.32797
  20
28.035126
  0
VERTEX
  5
4a5
  8
Layer_0
  10
-115.35492
  20
31.043015
  0
VERTEX
  5
4a6
  8
Layer_0
  10
-113.75499
  20
31.057343
  0
VERTEX
  5
4a7
  8
Layer_0
  10
-113.83203
  20
28.048538
  0
VERTEX
  5
4a8
  8
Layer_0
  10
-48.410065
  20
28.570663
  0
VERTEX
  5
4a9
  8
Layer_0
  10
-48.54895
  20
31.56955
  0
VERTEX
  5
4aa
  8
Layer_0
  10
-46.94902
  20
31.583878
  0
VERTEX
  5
4ab
  8
Layer_0
  10
-46.922287
  20
28.600006
  0
VERTEX
  5
4ac
  8
Layer_0
  10
-44.922363
  20
28.61792
  0
SEQEND
  0
POLYLINE
  5
4ae
  8
Layer_0
  62
0
  70
1
  66
1
  10
0
  20
0
  30
0
  0
VERTEX
  5
4ae
  8
Layer_0
  10
-143.4113
  20
4.2460327
  0
VERTEX
  5
4af
  8
Layer_0
  10
-143.41696
  20
3.7659912
  0
VERTEX
  5
4b0
  8
Layer_0
  10
-143.87996
  20
3.7733154
  0
VERTEX
  5
4b1
  8
Layer_0
  10
-144.34265
  20
3.76091
  0
VERTEX
  5
4b2
  8
Layer_0
  10
-144.80438
  20
3.7287903
  0
VERTEX
  5
4b3
  8
Layer_0
  10
-145.26454
  20
3.6769867
  0
VERTEX
  5
4b4
  8
Layer_0
  10
-145.50449
  20
3.6035767
  0
VERTEX
  5
4b5
  8
Layer_0
  10
-145.73033
  20
3.4971313
  0
VERTEX
  5
4b6
  8
Layer_0
  10
-145.93869
  20
3.3595581
  0
VERTEX
  5
4b7
  8
Layer_0
  10
-146.12617
  20
3.1927795
  0
VERTEX
  5
4b8
  8
Layer_0
  10
-146.25159
  20
2.9667969
  0
VERTEX
  5
4b9
  8
Layer_0
  10
-146.34012
  20
2.7255859
  0
VERTEX
  5
4ba
  8
Layer_0
  10
-146.39049
  20
2.4736328
  0
VERTEX
  5
4bb
  8
Layer_0
  10
-146.40141
  20
2.2154236
  0
VERTEX
  5
4bc
  8
Layer_0
  10
-146.42241
  20
1.8912964
  0
VERTEX
  5
4bd
  8
Layer_0
  10
-146.38063
  20
1.578598
  0
VERTEX
  5
4be
  8
Layer_0
  10
-146.28116
  20
1.2846375
  0
VERTEX
  5
4bf
  8
Layer_0
  10
-146.12907
  20
1.0166321
  0
VERTEX
  5
4c0
  8
Layer_0
  10
-145.92947
  20
0.78189087
  0
VERTEX
  5
4c1
  8
Layer_0
  10
-145.68742
  20
0.58766174
  0
VERTEX
  5
4c2
  8
Layer_0
  10
-145.408
  20
0.44120789
  0
VERTEX
  5
4c3
  8
Layer_0
  10
-145.09631
  20
0.34976196
  0
VERTEX
  5
4c4
  8
Layer_0
  10
-144.67441
  20
0.2935791
  0
VERTEX
  5
4c5
  8
Layer_0
  10
-144.25027
  20
0.26287842
  0
VERTEX
  5
4c6
  8
Layer_0
  10
-143.82507
  20
0.25769043
  0
VERTEX
  5
4c7
  8
Layer_0
  10
-143.39995
  20
0.27804565
  0
VERTEX
  5
4c8
  8
Layer_0
  10
-143.39764
  20
-0.19395447
  0
VERTEX
  5
4c9
  8
Layer_0
  10
-143.88577
  20
-0.21673584
  0
VERTEX
  5
4ca
  8
Layer_0
  10
-144.37373
  20
-0.20584106
  0
VERTEX
  5
4cb
  8
Layer_0
  10
-144.8598
  20
-0.16137695
  0
VERTEX
  5
4cc
  8
Layer_0
  10
-145.34221
  20
-0.083435059
  0
VERTEX
  5
4cd
  8
Layer_0
  10
-145.70523
  20
0.036010742
  0
VERTEX
  5
4ce
  8
Layer_0
  10
-146.03258
  20
0.21459961
  0
VERTEX
  5
4cf
  8
Layer_0
  10
-146.31898
  20
0.44511414
  0
VERTEX
  5
4d0
  8
Layer_0
  10
-146.5592
  20
0.72039795
  0
VERTEX
  5
4d1
  8
Layer_0
  10
-146.74799
  20
1.0332031
  0
VERTEX
  5
4d2
  8
Layer_0
  10
-146.88004
  20
1.3763275
  0
VERTEX
  5
4d3
  8
Layer_0
  10
-146.95013
  20
1.7425842
  0
VERTEX
  5
4d4
  8
Layer_0
  10
-146.95299
  20
2.1247253
  0
VERTEX
  5
4d5
  8
Layer_0
  10
-146.9368
  20
2.4180298
  0
VERTEX
  5
4d6
  8
Layer_0
  10
-146.89343
  20
2.7078857
  0
VERTEX
  5
4d7
  8
Layer_0
  10
-146.82324
  20
2.9924622
  0
VERTEX
  5
4d8
  8
Layer_0
  10
-146.72658
  20
3.2698364
  0
VERTEX
  5
4d9
  8
Layer_0
  10
-146.49899
  20
3.5775452
  0
VERTEX
  5
4da
  8
Layer_0
  10
-146.21378
  20
3.8262482
  0
VERTEX
  5
4db
  8
Layer_0
  10
-145.88199
  20
4.0082397
  0
VERTEX
  5
4dc
  8
Layer_0
  10
-145.51469
  20
4.1157684
  0
VERTEX
  5
4dd
  8
Layer_0
  10
-144.97913
  20
4.2140656
  0
VERTEX
  5
4de
  8
Layer_0
  10
-144.43529
  20
4.2410278
  0
VERTEX
  5
4df
  8
Layer_0
  10
-143.4113
  20
4.2460327
  0
SEQEND
  0
POLYLINE
  5
4e1
  8
Layer_0
  62
0
  70
1
  66
1
  10
0
  20
0
  30
0
  0
VERTEX
  5
4e1
  8
Layer_0
  10
-141.91544
  20
10.837402
  0
VERTEX
  5
4e2
  8
Layer_0
  10
-141.39607
  20
10.816284
  0
VERTEX
  5
4e3
  8
Layer_0
  10
-140.88962
  20
10.714417
  0
VERTEX
  5
4e4
  8
Layer_0
  10
-140.4054
  20
10.534424
  0
VERTEX
  5
4e5
  8
Layer_0
  10
-139.9527
  20
10.278976
  0
VERTEX
  5
4e6
  8
Layer_0
  10
-139.70264
  20
10.034454
  0
VERTEX
  5
4e7
  8
Layer_0
  10
-139.50211
  20
9.7512054
  0
VERTEX
  5
4e8
  8
Layer_0
  10
-139.35544
  20
9.4367065
  0
VERTEX
  5
4e9
  8
Layer_0
  10
-139.26692
  20
9.0983124
  0
VERTEX
  5
4ea
  8
Layer_0
  10
-139.21252
  20
8.8067322
  0
VERTEX
  5
4eb
  8
Layer_0
  10
-139.18961
  20
8.5135345
  0
VERTEX
  5
4ec
  8
Layer_0
  10
-139.19772
  20
8.2211456
  0
VERTEX
  5
4ed
  8
Layer_0
  10
-139.23643
  20
7.9319916
  0
VERTEX
  5
4ee
  8
Layer_0
  10
-139.30527
  20
7.6484985
  0
VERTEX
  5
4ef
  8
Layer_0
  10
-139.40378
  20
7.3730927
  0
VERTEX
  5
4f0
  8
Layer_0
  10
-139.53152
  20
7.1081848
  0
VERTEX
  5
4f1
  8
Layer_0
  10
-139.688
  20
6.8562317
  0
VERTEX
  5
4f2
  8
Layer_0
  10
-139.88925
  20
6.6473846
  0
VERTEX
  5
4f3
  8
Layer_0
  10
-140.11691
  20
6.470047
  0
VERTEX
  5
4f4
  8
Layer_0
  10
-140.36732
  20
6.3266602
  0
VERTEX
  5
4f5
  8
Layer_0
  10
-140.6369
  20
6.2195892
  0
VERTEX
  5
4f6
  8
Layer_0
  10
-140.31927
  20
6.1634674
  0
VERTEX
  5
4f7
  8
Layer_0
  10
-140.02194
  20
6.0467834
  0
VERTEX
  5
4f8
  8
Layer_0
  10
-139.75339
  20
5.8738708
  0
VERTEX
  5
4f9
  8
Layer_0
  10
-139.52211
  20
5.6490326
  0
VERTEX
  5
4fa
  8
Layer_0
  10
-139.41263
  20
5.4465942
  0
VERTEX
  5
4fb
  8
Layer_0
  10
-139.34583
  20
5.2330017
  0
VERTEX
  5
4fc
  8
Layer_0
  10
-139.32069
  20
5.0141449
  0
VERTEX
  5
4fd
  8
Layer_0
  10
-139.33629
  20
4.795929
  0
VERTEX
  5
4fe
  8
Layer_0
  10
-139.39163
  20
4.584259
  0
VERTEX
  5
4ff
  8
Layer_0
  10
-139.48572
  20
4.3850708
  0
VERTEX
  5
500
  8
Layer_0
  10
-139.6176
  20
4.2042542
  0
VERTEX
  5
501
  8
Layer_0
  10
-139.7863
  20
4.0477142
  0
VERTEX
  5
502
  8
Layer_0
  10
-139.92032
  20
3.9675598
  0
VERTEX
  5
503
  8
Layer_0
  10
-140.06561
  20
3.9103546
  0
VERTEX
  5
504
  8
Layer_0
  10
-139.77243
  20
3.7943115
  0
VERTEX
  5
505
  8
Layer_0
  10
-139.508
  20
3.6346893
  0
VERTEX
  5
506
  8
Layer_0
  10
-139.27597
  20
3.4365234
  0
VERTEX
  5
507
  8
Layer_0
  10
-139.07996
  20
3.2049103
  0
VERTEX
  5
508
  8
Layer_0
  10
-138.92357
  20
2.94487
  0
VERTEX
  5
509
  8
Layer_0
  10
-138.81046
  20
2.6614685
  0
VERTEX
  5
50a
  8
Layer_0
  10
-138.74423
  20
2.359787
  0
VERTEX
  5
50b
  8
Layer_0
  10
-138.7285
  20
2.0448608
  0
VERTEX
  5
50c
  8
Layer_0
  10
-138.71039
  20
1.7736511
  0
VERTEX
  5
50d
  8
Layer_0
  10
-138.73032
  20
1.5066528
  0
VERTEX
  5
50e
  8
Layer_0
  10
-138.78673
  20
1.247406
  0
VERTEX
  5
50f
  8
Layer_0
  10
-138.87799
  20
0.9994812
  0
VERTEX
  5
510
  8
Layer_0
  10
-139.0025
  20
0.76647949
  0
VERTEX
  5
511
  8
Layer_0
  10
-139.15866
  20
0.55197144
  0
VERTEX
  5
512
  8
Layer_0
  10
-139.34485
  20
0.35955811
  0
VERTEX
  5
513
  8
Layer_0
  10
-139.55948
  20
0.19277954
  0
VERTEX
  5
514
  8
Layer_0
  10
-139.95723
  20
0.02192688
  0
VERTEX
  5
515
  8
Layer_0
  10
-140.37135
  20
-0.098434448
  0
VERTEX
  5
516
  8
Layer_0
  10
-140.79707
  20
-0.16723633
  0
VERTEX
  5
517
  8
Layer_0
  10
-141.22966
  20
-0.18338013
  0
VERTEX
  5
518
  8
Layer_0
  10
-141.87766
  20
-0.1865387
  0
VERTEX
  5
519
  8
Layer_0
  10
-141.87993
  20
0.27746582
  0
VERTEX
  5
51a
  8
Layer_0
  10
-141.41153
  20
0.26478577
  0
VERTEX
  5
51b
  8
Layer_0
  10
-140.94528
  20
0.29830933
  0
VERTEX
  5
51c
  8
Layer_0
  10
-140.48463
  20
0.37768555
  0
VERTEX
  5
51d
  8
Layer_0
  10
-140.03299
  20
0.50247192
  0
VERTEX
  5
51e
  8
Layer_0
  10
-139.87251
  20
0.58424377
  0
VERTEX
  5
51f
  8
Layer_0
  10
-139.72784
  20
0.68673706
  0
VERTEX
  5
520
  8
Layer_0
  10
-139.60052
  20
0.80770874
  0
VERTEX
  5
521
  8
Layer_0
  10
-139.49213
  20
0.94488525
  0
VERTEX
  5
522
  8
Layer_0
  10
-139.40414
  20
1.0959778
  0
VERTEX
  5
523
  8
Layer_0
  10
-139.33817
  20
1.2587433
  0
VERTEX
  5
524
  8
Layer_0
  10
-139.29575
  20
1.4309082
  0
VERTEX
  5
525
  8
Layer_0
  10
-139.2784
  20
1.6101685
  0
VERTEX
  5
526
  8
Layer_0
  10
-139.2446
  20
1.9800262
  0
VERTEX
  5
527
  8
Layer_0
  10
-139.27548
  20
2.3473969
  0
VERTEX
  5
528
  8
Layer_0
  10
-139.36955
  20
2.7038574
  0
VERTEX
  5
529
  8
Layer_0
  10
-139.52539
  20
3.0409851
  0
VERTEX
  5
52a
  8
Layer_0
  10
-139.75946
  20
3.3045044
  0
VERTEX
  5
52b
  8
Layer_0
  10
-140.04102
  20
3.5101013
  0
VERTEX
  5
52c
  8
Layer_0
  10
-140.35959
  20
3.6517029
  0
VERTEX
  5
52d
  8
Layer_0
  10
-140.70473
  20
3.7232361
  0
VERTEX
  5
52e
  8
Layer_0
  10
-141.29575
  20
3.7750702
  0
VERTEX
  5
52f
  8
Layer_0
  10
-141.88895
  20
3.7654572
  0
VERTEX
  5
530
  8
Layer_0
  10
-141.89128
  20
4.2454529
  0
VERTEX
  5
531
  8
Layer_0
  10
-140.73129
  20
4.2510986
  0
VERTEX
  5
532
  8
Layer_0
  10
-140.53745
  20
4.2756958
  0
VERTEX
  5
533
  8
Layer_0
  10
-140.35178
  20
4.3321838
  0
VERTEX
  5
534
  8
Layer_0
  10
-140.17821
  20
4.4190063
  0
VERTEX
  5
535
  8
Layer_0
  10
-140.02066
  20
4.5345764
  0
VERTEX
  5
536
  8
Layer_0
  10
-139.93716
  20
4.6703033
  0
VERTEX
  5
537
  8
Layer_0
  10
-139.8826
  20
4.8154297
  0
VERTEX
  5
538
  8
Layer_0
  10
-139.85651
  20
4.9658508
  0
VERTEX
  5
539
  8
Layer_0
  10
-139.85846
  20
5.1174622
  0
VERTEX
  5
53a
  8
Layer_0
  10
-139.88803
  20
5.2662048
  0
VERTEX
  5
53b
  8
Layer_0
  10
-139.94479
  20
5.4079285
  0
VERTEX
  5
53c
  8
Layer_0
  10
-140.02831
  20
5.538559
  0
VERTEX
  5
53d
  8
Layer_0
  10
-140.13812
  20
5.6540222
  0
VERTEX
  5
53e
  8
Layer_0
  10
-140.35895
  20
5.7731628
  0
VERTEX
  5
53f
  8
Layer_0
  10
-140.59198
  20
5.8633423
  0
VERTEX
  5
540
  8
Layer_0
  10
-140.83446
  20
5.9237213
  0
VERTEX
  5
541
  8
Layer_0
  10
-141.0836
  20
5.9534149
  0
VERTEX
  5
542
  8
Layer_0
  10
-141.8996
  20
5.9494324
  0
VERTEX
  5
543
  8
Layer_0
  10
-141.89394
  20
6.4294586
  0
VERTEX
  5
544
  8
Layer_0
  10
-141.47736
  20
6.4219666
  0
VERTEX
  5
545
  8
Layer_0
  10
-141.06955
  20
6.48909
  0
VERTEX
  5
546
  8
Layer_0
  10
-140.68045
  20
6.6283417
  0
VERTEX
  5
547
  8
Layer_0
  10
-140.31992
  20
6.8371429
  0
VERTEX
  5
548
  8
Layer_0
  10
-140.10335
  20
7.0639496
  0
VERTEX
  5
549
  8
Layer_0
  10
-139.93857
  20
7.3271179
  0
VERTEX
  5
54a
  8
Layer_0
  10
-139.8298
  20
7.6179504
  0
VERTEX
  5
54b
  8
Layer_0
  10
-139.78123
  20
7.9277954
  0
VERTEX
  5
54c
  8
Layer_0
  10
-139.75214
  20
8.2806091
  0
VERTEX
  5
54d
  8
Layer_0
  10
-139.76106
  20
8.6335144
  0
VERTEX
  5
54e
  8
Layer_0
  10
-139.80777
  20
8.983429
  0
VERTEX
  5
54f
  8
Layer_0
  10
-139.89204
  20
9.3272705
  0
VERTEX
  5
550
  8
Layer_0
  10
-139.98947
  20
9.5204468
  0
VERTEX
  5
551
  8
Layer_0
  10
-140.11046
  20
9.696167
  0
VERTEX
  5
552
  8
Layer_0
  10
-140.25269
  20
9.8527527
  0
VERTEX
  5
553
  8
Layer_0
  10
-140.4138
  20
9.9885254
  0
VERTEX
  5
554
  8
Layer_0
  10
-140.59149
  20
10.10173
  0
VERTEX
  5
555
  8
Layer_0
  10
-140.78345
  20
10.190659
  0
VERTEX
  5
556
  8
Layer_0
  10
-140.9873
  20
10.253616
  0
VERTEX
  5
557
  8
Layer_0
  10
-141.20076
  20
10.288879
  0
VERTEX
  5
558
  8
Layer_0
  10
-141.55537
  20
10.335648
  0
VERTEX
  5
559
  8
Layer_0
  10
-141.91302
  20
10.341415
  0
VERTEX
  5
55a
  8
Layer_0
  10
-141.91544
  20
10.837402
  0
SEQEND
  0
POLYLINE
  5
55c
  8
Layer_0
  62
0
  70
1
  66
1
  10
0
  20
0
  30
0
  0
VERTEX
  5
55c
  8
Layer_0
  10
-59.860149
  20
11.173782
  0
VERTEX
  5
55d
  8
Layer_0
  10
-59.362782
  20
11.124908
  0
VERTEX
  5
55e
  8
Layer_0
  10
-58.886177
  20
10.988495
  0
VERTEX
  5
55f
  8
Layer_0
  10
-58.441696
  20
10.768951
  0
VERTEX
  5
560
  8
Layer_0
  10
-58.040703
  20
10.470657
  0
VERTEX
  5
561
  8
Layer_0
  10
-57.883801
  20
10.271027
  0
VERTEX
  5
562
  8
Layer_0
  10
-57.751312
  20
10.055359
  0
VERTEX
  5
563
  8
Layer_0
  10
-57.644432
  20
9.8259277
  0
VERTEX
  5
564
  8
Layer_0
  10
-57.564377
  20
9.5849609
  0
VERTEX
  5
565
  8
Layer_0
  10
-57.449318
  20
9.2007141
  0
VERTEX
  5
566
  8
Layer_0
  10
-57.368107
  20
8.8087006
  0
VERTEX
  5
567
  8
Layer_0
  10
-57.32111
  20
8.4111176
  0
VERTEX
  5
568
  8
Layer_0
  10
-57.308689
  20
8.0101929
  0
VERTEX
  5
569
  8
Layer_0
  10
-57.278778
  20
7.2643738
  0
VERTEX
  5
56a
  8
Layer_0
  10
-57.309265
  20
6.5197754
  0
VERTEX
  5
56b
  8
Layer_0
  10
-57.399853
  20
5.7801208
  0
VERTEX
  5
56c
  8
Layer_0
  10
-57.550243
  20
5.0489807
  0
VERTEX
  5
56d
  8
Layer_0
  10
-57.64925
  20
4.78125
  0
VERTEX
  5
56e
  8
Layer_0
  10
-57.782539
  20
4.5335083
  0
VERTEX
  5
56f
  8
Layer_0
  10
-57.947132
  20
4.3084259
  0
VERTEX
  5
570
  8
Layer_0
  10
-58.140045
  20
4.1087036
  0
VERTEX
  5
571
  8
Layer_0
  10
-58.358299
  20
3.9370422
  0
VERTEX
  5
572
  8
Layer_0
  10
-58.598911
  20
3.7960968
  0
VERTEX
  5
573
  8
Layer_0
  10
-58.858894
  20
3.6885986
  0
VERTEX
  5
574
  8
Layer_0
  10
-59.135277
  20
3.6172485
  0
VERTEX
  5
575
  8
Layer_0
  10
-59.512512
  20
3.5406799
  0
VERTEX
  5
576
  8
Layer_0
  10
-59.893993
  20
3.4938354
  0
VERTEX
  5
577
  8
Layer_0
  10
-60.277962
  20
3.4768066
  0
VERTEX
  5
578
  8
Layer_0
  10
-60.66267
  20
3.4897766
  0
VERTEX
  5
579
  8
Layer_0
  10
-61.804024
  20
3.5155029
  0
VERTEX
  5
57a
  8
Layer_0
  10
-62.943188
  20
3.5906677
  0
VERTEX
  5
57b
  8
Layer_0
  10
-62.944984
  20
3.9586487
  0
VERTEX
  5
57c
  8
Layer_0
  10
-62.114777
  20
3.9356079
  0
VERTEX
  5
57d
  8
Layer_0
  10
-61.284401
  20
3.9359436
  0
VERTEX
  5
57e
  8
Layer_0
  10
-60.454369
  20
3.9597168
  0
VERTEX
  5
57f
  8
Layer_0
  10
-59.625183
  20
4.0068512
  0
VERTEX
  5
580
  8
Layer_0
  10
-59.405823
  20
4.0418243
  0
VERTEX
  5
581
  8
Layer_0
  10
-59.194321
  20
4.1017761
  0
VERTEX
  5
582
  8
Layer_0
  10
-58.992592
  20
4.1855164
  0
VERTEX
  5
583
  8
Layer_0
  10
-58.802559
  20
4.2917786
  0
VERTEX
  5
584
  8
Layer_0
  10
-58.626129
  20
4.4193726
  0
VERTEX
  5
585
  8
Layer_0
  10
-58.465218
  20
4.5670471
  0
VERTEX
  5
586
  8
Layer_0
  10
-58.321739
  20
4.7336121
  0
VERTEX
  5
587
  8
Layer_0
  10
-58.197609
  20
4.9178162
  0
VERTEX
  5
588
  8
Layer_0
  10
-58.051102
  20
5.3651733
  0
VERTEX
  5
589
  8
Layer_0
  10
-57.947403
  20
5.8232422
  0
VERTEX
  5
58a
  8
Layer_0
  10
-57.887054
  20
6.2890167
  0
VERTEX
  5
58b
  8
Layer_0
  10
-57.870594
  20
6.7594452
  0
VERTEX
  5
58c
  8
Layer_0
  10
-57.864079
  20
7.0634766
  0
VERTEX
  5
58d
  8
Layer_0
  10
-59.848049
  20
7.0538025
  0
VERTEX
  5
58e
  8
Layer_0
  10
-59.850235
  20
7.5018005
  0
VERTEX
  5
58f
  8
Layer_0
  10
-57.874222
  20
7.5034332
  0
VERTEX
  5
590
  8
Layer_0
  10
-57.868629
  20
8.0968628
  0
VERTEX
  5
591
  8
Layer_0
  10
-57.926502
  20
8.68573
  0
VERTEX
  5
592
  8
Layer_0
  10
-58.047073
  20
9.2650452
  0
VERTEX
  5
593
  8
Layer_0
  10
-58.229576
  20
9.8297272
  0
VERTEX
  5
594
  8
Layer_0
  10
-58.424538
  20
10.11499
  0
VERTEX
  5
595
  8
Layer_0
  10
-58.676201
  20
10.345215
  0
VERTEX
  5
596
  8
Layer_0
  10
-58.973507
  20
10.51239
  0
VERTEX
  5
597
  8
Layer_0
  10
-59.305389
  20
10.60849
  0
VERTEX
  5
598
  8
Layer_0
  10
-59.57938
  20
10.671463
  0
VERTEX
  5
599
  8
Layer_0
  10
-59.857887
  20
10.709793
  0
VERTEX
  5
59a
  8
Layer_0
  10
-59.860149
  20
11.173782
  0
SEQEND
  0
POLYLINE
  5
59c
  8
Layer_0
  62
0
  70
1
  66
1
  10
0
  20
0
  30
0
  0
VERTEX
  5
59c
  8
Layer_0
  10
-89.907974
  20
11.067169
  0
VERTEX
  5
59d
  8
Layer_0
  10
-89.4701
  20
11.036377
  0
VERTEX
  5
59e
  8
Layer_0
  10
-89.043381
  20
10.943512
  0
VERTEX
  5
59f
  8
Layer_0
  10
-88.634361
  20
10.790497
  0
VERTEX
  5
5a0
  8
Layer_0
  10
-88.249573
  20
10.579254
  0
VERTEX
  5
5a1
  8
Layer_0
  10
-88.008904
  20
10.36142
  0
VERTEX
  5
5a2
  8
Layer_0
  10
-87.809311
  20
10.108246
  0
VERTEX
  5
5a3
  8
Layer_0
  10
-87.654556
  20
9.8254395
  0
VERTEX
  5
5a4
  8
Layer_0
  10
-87.548393
  20
9.5186615
  0
VERTEX
  5
5a5
  8
Layer_0
  10
-87.415939
  20
9.0553589
  0
VERTEX
  5
5a6
  8
Layer_0
  10
-87.321991
  20
8.5835724
  0
VERTEX
  5
5a7
  8
Layer_0
  10
-87.266937
  20
8.1056976
  0
VERTEX
  5
5a8
  8
Layer_0
  10
-87.251144
  20
7.6240845
  0
VERTEX
  5
5a9
  8
Layer_0
  10
-87.231613
  20
6.9094849
  0
VERTEX
  5
5aa
  8
Layer_0
  10
-87.276459
  20
6.1974792
  0
VERTEX
  5
5ab
  8
Layer_0
  10
-87.385193
  20
5.4924011
  0
VERTEX
  5
5ac
  8
Layer_0
  10
-87.557358
  20
4.7985687
  0
VERTEX
  5
5ad
  8
Layer_0
  10
-87.666649
  20
4.5552521
  0
VERTEX
  5
5ae
  8
Layer_0
  10
-87.804543
  20
4.330719
  0
VERTEX
  5
5af
  8
Layer_0
  10
-87.968582
  20
4.1270905
  0
VERTEX
  5
5b0
  8
Layer_0
  10
-88.156311
  20
3.9464417
  0
VERTEX
  5
5b1
  8
Layer_0
  10
-88.36528
  20
3.7908173
  0
VERTEX
  5
5b2
  8
Layer_0
  10
-88.593018
  20
3.662323
  0
VERTEX
  5
5b3
  8
Layer_0
  10
-88.837082
  20
3.5630493
  0
VERTEX
  5
5b4
  8
Layer_0
  10
-89.095016
  20
3.4950562
  0
VERTEX
  5
5b5
  8
Layer_0
  10
-89.530716
  20
3.4064941
  0
VERTEX
  5
5b6
  8
Layer_0
  10
-89.974457
  20
3.3787537
  0
VERTEX
  5
5b7
  8
Layer_0
  10
-90.707535
  20
3.372406
  0
VERTEX
  5
5b8
  8
Layer_0
  10
-91.440308
  20
3.3879242
  0
VERTEX
  5
5b9
  8
Layer_0
  10
-92.172295
  20
3.4252777
  0
VERTEX
  5
5ba
  8
Layer_0
  10
-92.903008
  20
3.4844666
  0
VERTEX
  5
5bb
  8
Layer_0
  10
-92.904808
  20
3.8524628
  0
VERTEX
  5
5bc
  8
Layer_0
  10
-91.464775
  20
3.8435059
  0
VERTEX
  5
5bd
  8
Layer_0
  10
-90.024796
  20
3.8585205
  0
VERTEX
  5
5be
  8
Layer_0
  10
-89.679932
  20
3.889389
  0
VERTEX
  5
5bf
  8
Layer_0
  10
-89.341805
  20
3.9586639
  0
VERTEX
  5
5c0
  8
Layer_0
  10
-89.013596
  20
4.0654755
  0
VERTEX
  5
5c1
  8
Layer_0
  10
-88.698494
  20
4.2089996
  0
VERTEX
  5
5c2
  8
Layer_0
  10
-88.434113
  20
4.4272461
  0
VERTEX
  5
5c3
  8
Layer_0
  10
-88.22168
  20
4.691925
  0
VERTEX
  5
5c4
  8
Layer_0
  10
-88.067009
  20
4.9940338
  0
VERTEX
  5
5c5
  8
Layer_0
  10
-87.975937
  20
5.3245392
  0
VERTEX
  5
5c6
  8
Layer_0
  10
-87.900513
  20
5.7286072
  0
VERTEX
  5
5c7
  8
Layer_0
  10
-87.851288
  20
6.136261
  0
VERTEX
  5
5c8
  8
Layer_0
  10
-87.828384
  20
6.5462341
  0
VERTEX
  5
5c9
  8
Layer_0
  10
-87.831894
  20
6.9572449
  0
VERTEX
  5
5ca
  8
Layer_0
  10
-89.895874
  20
6.9471741
  0
VERTEX
  5
5cb
  8
Layer_0
  10
-89.898026
  20
7.3871765
  0
VERTEX
  5
5cc
  8
Layer_0
  10
-87.826012
  20
7.3892822
  0
VERTEX
  5
5cd
  8
Layer_0
  10
-87.835327
  20
7.9460907
  0
VERTEX
  5
5ce
  8
Layer_0
  10
-87.887093
  20
8.4997406
  0
VERTEX
  5
5cf
  8
Layer_0
  10
-87.98101
  20
9.047821
  0
VERTEX
  5
5d0
  8
Layer_0
  10
-88.116745
  20
9.5878906
  0
VERTEX
  5
5d1
  8
Layer_0
  10
-88.314011
  20
9.9266815
  0
VERTEX
  5
5d2
  8
Layer_0
  10
-88.584686
  20
10.202179
  0
VERTEX
  5
5d3
  8
Layer_0
  10
-88.91452
  20
10.403107
  0
VERTEX
  5
5d4
  8
Layer_0
  10
-89.289291
  20
10.518188
  0
VERTEX
  5
5d5
  8
Layer_0
  10
-89.595795
  20
10.573013
  0
VERTEX
  5
5d6
  8
Layer_0
  10
-89.905716
  20
10.60318
  0
VERTEX
  5
5d7
  8
Layer_0
  10
-89.907974
  20
11.067169
  0
SEQEND
  0
POLYLINE
  5
5d9
  8
Layer_0
  62
0
  70
1
  66
1
  10
0
  20
0
  30
0
  0
VERTEX
  5
5d9
  8
Layer_0
  10
-103.34789
  20
11.017593
  0
VERTEX
  5
5da
  8
Layer_0
  10
-102.8534
  20
10.982193
  0
VERTEX
  5
5db
  8
Layer_0
  10
-102.37764
  20
10.858429
  0
VERTEX
  5
5dc
  8
Layer_0
  10
-101.93219
  20
10.650452
  0
VERTEX
  5
5dd
  8
Layer_0
  10
-101.52867
  20
10.362457
  0
VERTEX
  5
5de
  8
Layer_0
  10
-101.32646
  20
10.128845
  0
VERTEX
  5
5df
  8
Layer_0
  10
-101.16064
  20
9.8699646
  0
VERTEX
  5
5e0
  8
Layer_0
  10
-101.03355
  20
9.5900269
  0
VERTEX
  5
5e1
  8
Layer_0
  10
-100.94745
  20
9.2932739
  0
VERTEX
  5
5e2
  8
Layer_0
  10
-100.84299
  20
8.8624268
  0
VERTEX
  5
5e3
  8
Layer_0
  10
-100.76795
  20
8.4259949
  0
VERTEX
  5
5e4
  8
Layer_0
  10
-100.72252
  20
7.9855042
  0
VERTEX
  5
5e5
  8
Layer_0
  10
-100.7069
  20
7.5424347
  0
VERTEX
  5
5e6
  8
Layer_0
  10
-100.69849
  20
6.8782654
  0
VERTEX
  5
5e7
  8
Layer_0
  10
-100.73904
  20
6.2162018
  0
VERTEX
  5
5e8
  8
Layer_0
  10
-100.82832
  20
5.5589294
  0
VERTEX
  5
5e9
  8
Layer_0
  10
-100.96606
  20
4.9091492
  0
VERTEX
  5
5ea
  8
Layer_0
  10
-101.07183
  20
4.6219177
  0
VERTEX
  5
5eb
  8
Layer_0
  10
-101.21597
  20
4.3574524
  0
VERTEX
  5
5ec
  8
Layer_0
  10
-101.3949
  20
4.1187897
  0
VERTEX
  5
5ed
  8
Layer_0
  10
-101.60507
  20
3.9090271
  0
VERTEX
  5
5ee
  8
Layer_0
  10
-101.84291
  20
3.7312622
  0
VERTEX
  5
5ef
  8
Layer_0
  10
-102.10487
  20
3.588562
  0
VERTEX
  5
5f0
  8
Layer_0
  10
-102.38735
  20
3.4840088
  0
VERTEX
  5
5f1
  8
Layer_0
  10
-102.68681
  20
3.4207306
  0
VERTEX
  5
5f2
  8
Layer_0
  10
-103.20267
  20
3.3610229
  0
VERTEX
  5
5f3
  8
Layer_0
  10
-103.72055
  20
3.3273926
  0
VERTEX
  5
5f4
  8
Layer_0
  10
-104.23946
  20
3.3199158
  0
VERTEX
  5
5f5
  8
Layer_0
  10
-104.75843
  20
3.338623
  0
VERTEX
  5
5f6
  8
Layer_0
  10
-105.55953
  20
3.3667755
  0
VERTEX
  5
5f7
  8
Layer_0
  10
-106.35888
  20
3.4268188
  0
VERTEX
  5
5f8
  8
Layer_0
  10
-106.36868
  20
3.7947693
  0
VERTEX
  5
5f9
  8
Layer_0
  10
-103.37672
  20
3.8093719
  0
VERTEX
  5
5fa
  8
Layer_0
  10
-103.04404
  20
3.8521423
  0
VERTEX
  5
5fb
  8
Layer_0
  10
-102.71941
  20
3.9320679
  0
VERTEX
  5
5fc
  8
Layer_0
  10
-102.40591
  20
4.0481873
  0
VERTEX
  5
5fd
  8
Layer_0
  10
-102.10661
  20
4.1995697
  0
VERTEX
  5
5fe
  8
Layer_0
  10
-101.86402
  20
4.4160919
  0
VERTEX
  5
5ff
  8
Layer_0
  10
-101.6689
  20
4.6725159
  0
VERTEX
  5
600
  8
Layer_0
  10
-101.52594
  20
4.9613037
  0
VERTEX
  5
601
  8
Layer_0
  10
-101.43984
  20
5.2748413
  0
VERTEX
  5
602
  8
Layer_0
  10
-101.36676
  20
5.6772461
  0
VERTEX
  5
603
  8
Layer_0
  10
-101.31699
  20
6.0828552
  0
VERTEX
  5
604
  8
Layer_0
  10
-101.29063
  20
6.4906464
  0
VERTEX
  5
605
  8
Layer_0
  10
-101.28777
  20
6.8995972
  0
VERTEX
  5
606
  8
Layer_0
  10
-103.33578
  20
6.8976135
  0
VERTEX
  5
607
  8
Layer_0
  10
-103.33793
  20
7.3376007
  0
VERTEX
  5
608
  8
Layer_0
  10
-101.28996
  20
7.3475952
  0
VERTEX
  5
609
  8
Layer_0
  10
-101.29395
  20
7.9028931
  0
VERTEX
  5
60a
  8
Layer_0
  10
-101.34399
  20
8.4550171
  0
VERTEX
  5
60b
  8
Layer_0
  10
-101.43968
  20
9.0010681
  0
VERTEX
  5
60c
  8
Layer_0
  10
-101.58065
  20
9.538208
  0
VERTEX
  5
60d
  8
Layer_0
  10
-101.77647
  20
9.8771973
  0
VERTEX
  5
60e
  8
Layer_0
  10
-102.04706
  20
10.151703
  0
VERTEX
  5
60f
  8
Layer_0
  10
-102.37756
  20
10.350021
  0
VERTEX
  5
610
  8
Layer_0
  10
-102.75316
  20
10.46048
  0
VERTEX
  5
611
  8
Layer_0
  10
-103.04768
  20
10.514801
  0
VERTEX
  5
612
  8
Layer_0
  10
-103.34559
  20
10.545593
  0
VERTEX
  5
613
  8
Layer_0
  10
-103.34789
  20
11.017593
  0
SEQEND
  0
POLYLINE
  5
615
  8
Layer_0
  62
0
  70
1
  66
1
  10
0
  20
0
  30
0
  0
VERTEX
  5
615
  8
Layer_0
  10
-116.28751
  20
10.986664
  0
VERTEX
  5
616
  8
Layer_0
  10
-116.2851
  20
10.490662
  0
VERTEX
  5
617
  8
Layer_0
  10
-116.625
  20
10.477478
  0
VERTEX
  5
618
  8
Layer_0
  10
-116.95755
  20
10.4151
  0
VERTEX
  5
619
  8
Layer_0
  10
-117.27747
  20
10.304916
  0
VERTEX
  5
61a
  8
Layer_0
  10
-117.57944
  20
10.148346
  0
VERTEX
  5
61b
  8
Layer_0
  10
-117.82315
  20
9.911499
  0
VERTEX
  5
61c
  8
Layer_0
  10
-118.0269
  20
9.6420135
  0
VERTEX
  5
61d
  8
Layer_0
  10
-118.18756
  20
9.3448181
  0
VERTEX
  5
61e
  8
Layer_0
  10
-118.30197
  20
9.0248108
  0
VERTEX
  5
61f
  8
Layer_0
  10
-118.41085
  20
8.5137024
  0
VERTEX
  5
620
  8
Layer_0
  10
-118.4826
  20
7.9981079
  0
VERTEX
  5
621
  8
Layer_0
  10
-118.51732
  20
7.480011
  0
VERTEX
  5
622
  8
Layer_0
  10
-118.51505
  20
6.9613953
  0
VERTEX
  5
623
  8
Layer_0
  10
-118.47591
  20
6.4442444
  0
VERTEX
  5
624
  8
Layer_0
  10
-118.39995
  20
5.930542
  0
VERTEX
  5
625
  8
Layer_0
  10
-118.28728
  20
5.4223328
  0
VERTEX
  5
626
  8
Layer_0
  10
-118.13795
  20
4.9215546
  0
VERTEX
  5
627
  8
Layer_0
  10
-117.99414
  20
4.661377
  0
VERTEX
  5
628
  8
Layer_0
  10
-117.81622
  20
4.4294586
  0
VERTEX
  5
629
  8
Layer_0
  10
-117.60825
  20
4.2282562
  0
VERTEX
  5
62a
  8
Layer_0
  10
-117.37431
  20
4.0603027
  0
VERTEX
  5
62b
  8
Layer_0
  10
-117.11848
  20
3.9280701
  0
VERTEX
  5
62c
  8
Layer_0
  10
-116.84482
  20
3.8340759
  0
VERTEX
  5
62d
  8
Layer_0
  10
-116.5574
  20
3.7807922
  0
VERTEX
  5
62e
  8
Layer_0
  10
-116.26031
  20
3.7707062
  0
VERTEX
  5
62f
  8
Layer_0
  10
-116.25793
  20
3.2827148
  0
VERTEX
  5
630
  8
Layer_0
  10
-116.66914
  20
3.278244
  0
VERTEX
  5
631
  8
Layer_0
  10
-117.06603
  20
3.3430786
  0
VERTEX
  5
632
  8
Layer_0
  10
-117.44128
  20
3.4724426
  0
VERTEX
  5
633
  8
Layer_0
  10
-117.78761
  20
3.6615295
  0
VERTEX
  5
634
  8
Layer_0
  10
-118.09773
  20
3.9054871
  0
VERTEX
  5
635
  8
Layer_0
  10
-118.36435
  20
4.1995239
  0
VERTEX
  5
636
  8
Layer_0
  10
-118.58018
  20
4.5388489
  0
VERTEX
  5
637
  8
Layer_0
  10
-118.73794
  20
4.9186401
  0
VERTEX
  5
638
  8
Layer_0
  10
-118.92114
  20
5.5549622
  0
VERTEX
  5
639
  8
Layer_0
  10
-119.04076
  20
6.2046204
  0
VERTEX
  5
63a
  8
Layer_0
  10
-119.09615
  20
6.862854
  0
VERTEX
  5
63b
  8
Layer_0
  10
-119.08666
  20
7.5249634
  0
VERTEX
  5
63c
  8
Layer_0
  10
-119.04678
  20
8.0501709
  0
VERTEX
  5
63d
  8
Layer_0
  10
-118.97095
  20
8.5707703
  0
VERTEX
  5
63e
  8
Layer_0
  10
-118.85949
  20
9.0849304
  0
VERTEX
  5
63f
  8
Layer_0
  10
-118.71274
  20
9.5908051
  0
VERTEX
  5
640
  8
Layer_0
  10
-118.54192
  20
9.9050446
  0
VERTEX
  5
641
  8
Layer_0
  10
-118.32982
  20
10.185715
  0
VERTEX
  5
642
  8
Layer_0
  10
-118.08133
  20
10.429718
  0
VERTEX
  5
643
  8
Layer_0
  10
-117.80132
  20
10.634064
  0
VERTEX
  5
644
  8
Layer_0
  10
-117.49466
  20
10.795685
  0
VERTEX
  5
645
  8
Layer_0
  10
-117.16623
  20
10.91153
  0
VERTEX
  5
646
  8
Layer_0
  10
-116.82091
  20
10.978577
  0
VERTEX
  5
647
  8
Layer_0
  10
-116.46355
  20
10.993805
  0
VERTEX
  5
648
  8
Layer_0
  10
-116.28751
  20
10.986664
  0
SEQEND
  0
POLYLINE
  5
64a
  8
Layer_0
  62
0
  70
1
  66
1
  10
0
  20
0
  30
0
  0
VERTEX
  5
64a
  8
Layer_0
  10
-53.587849
  20
14.404419
  0
VERTEX
  5
64b
  8
Layer_0
  10
-53.574337
  20
9.9964447
  0
VERTEX
  5
64c
  8
Layer_0
  10
-53.560791
  20
5.5804596
  0
VERTEX
  5
64d
  8
Layer_0
  10
-53.590508
  20
5.178894
  0
VERTEX
  5
64e
  8
Layer_0
  10
-53.68203
  20
4.7892761
  0
VERTEX
  5
64f
  8
Layer_0
  10
-53.833092
  20
4.4186554
  0
VERTEX
  5
650
  8
Layer_0
  10
-54.041443
  20
4.0740967
  0
VERTEX
  5
651
  8
Layer_0
  10
-54.255352
  20
3.8769073
  0
VERTEX
  5
652
  8
Layer_0
  10
-54.502552
  20
3.7290802
  0
VERTEX
  5
653
  8
Layer_0
  10
-54.774616
  20
3.634491
  0
VERTEX
  5
654
  8
Layer_0
  10
-55.063129
  20
3.5971069
  0
VERTEX
  5
655
  8
Layer_0
  10
-55.63496
  20
3.5782776
  0
VERTEX
  5
656
  8
Layer_0
  10
-56.207077
  20
3.5835266
  0
VERTEX
  5
657
  8
Layer_0
  10
-56.201027
  20
3.983551
  0
VERTEX
  5
658
  8
Layer_0
  10
-55.86097
  20
4.0073242
  0
VERTEX
  5
659
  8
Layer_0
  10
-55.523193
  20
4.0511017
  0
VERTEX
  5
65a
  8
Layer_0
  10
-55.188595
  20
4.1147461
  0
VERTEX
  5
65b
  8
Layer_0
  10
-54.858063
  20
4.1981201
  0
VERTEX
  5
65c
  8
Layer_0
  10
-54.679482
  20
4.2923889
  0
VERTEX
  5
65d
  8
Layer_0
  10
-54.526566
  20
4.4208984
  0
VERTEX
  5
65e
  8
Layer_0
  10
-54.404079
  20
4.5786743
  0
VERTEX
  5
65f
  8
Layer_0
  10
-54.316799
  20
4.7607574
  0
VERTEX
  5
660
  8
Layer_0
  10
-54.233078
  20
5.0256042
  0
VERTEX
  5
661
  8
Layer_0
  10
-54.175182
  20
5.2966309
  0
VERTEX
  5
662
  8
Layer_0
  10
-54.143425
  20
5.5719299
  0
VERTEX
  5
663
  8
Layer_0
  10
-54.138111
  20
5.8496399
  0
VERTEX
  5
664
  8
Layer_0
  10
-54.150948
  20
10.1259
  0
VERTEX
  5
665
  8
Layer_0
  10
-54.171841
  20
14.401581
  0
VERTEX
  5
666
  8
Layer_0
  10
-53.587849
  20
14.404419
  0
SEQEND
  0
POLYLINE
  5
668
  8
Layer_0
  62
0
  70
1
  66
1
  10
0
  20
0
  30
0
  0
VERTEX
  5
668
  8
Layer_0
  10
-122.90772
  20
10.938156
  0
VERTEX
  5
669
  8
Layer_0
  10
-122.48798
  20
10.889191
  0
VERTEX
  5
66a
  8
Layer_0
  10
-122.08395
  20
10.774963
  0
VERTEX
  5
66b
  8
Layer_0
  10
-121.7031
  20
10.598236
  0
VERTEX
  5
66c
  8
Layer_0
  10
-121.35288
  20
10.361725
  0
VERTEX
  5
66d
  8
Layer_0
  10
-121.13377
  20
10.124115
  0
VERTEX
  5
66e
  8
Layer_0
  10
-120.95276
  20
9.858429
  0
VERTEX
  5
66f
  8
Layer_0
  10
-120.81247
  20
9.5691833
  0
VERTEX
  5
670
  8
Layer_0
  10
-120.71551
  20
9.2608337
  0
VERTEX
  5
671
  8
Layer_0
  10
-120.62049
  20
8.9236603
  0
VERTEX
  5
672
  8
Layer_0
  10
-120.54758
  20
8.5814209
  0
VERTEX
  5
673
  8
Layer_0
  10
-120.49695
  20
8.2351685
  0
VERTEX
  5
674
  8
Layer_0
  10
-120.4688
  20
7.8860168
  0
VERTEX
  5
675
  8
Layer_0
  10
-120.45699
  20
7.0134277
  0
VERTEX
  5
676
  8
Layer_0
  10
-120.50029
  20
6.1418457
  0
VERTEX
  5
677
  8
Layer_0
  10
-120.57719
  20
5.509491
  0
VERTEX
  5
678
  8
Layer_0
  10
-120.70216
  20
4.8848419
  0
VERTEX
  5
679
  8
Layer_0
  10
-120.80889
  20
4.5817566
  0
VERTEX
  5
67a
  8
Layer_0
  10
-120.9574
  20
4.302948
  0
VERTEX
  5
67b
  8
Layer_0
  10
-121.14371
  20
4.0518188
  0
VERTEX
  5
67c
  8
Layer_0
  10
-121.36382
  20
3.8318329
  0
VERTEX
  5
67d
  8
Layer_0
  10
-121.61375
  20
3.6464233
  0
VERTEX
  5
67e
  8
Layer_0
  10
-121.88952
  20
3.4990387
  0
VERTEX
  5
67f
  8
Layer_0
  10
-122.18713
  20
3.3930969
  0
VERTEX
  5
680
  8
Layer_0
  10
-122.5026
  20
3.3320465
  0
VERTEX
  5
681
  8
Layer_0
  10
-123.4063
  20
3.2744141
  0
VERTEX
  5
682
  8
Layer_0
  10
-124.3112
  20
3.2589417
  0
VERTEX
  5
683
  8
Layer_0
  10
-125.21584
  20
3.2855988
  0
VERTEX
  5
684
  8
Layer_0
  10
-126.11875
  20
3.3544006
  0
VERTEX
  5
685
  8
Layer_0
  10
-126.12054
  20
3.7223969
  0
VERTEX
  5
686
  8
Layer_0
  10
-123.12859
  20
3.7369995
  0
VERTEX
  5
687
  8
Layer_0
  10
-122.75484
  20
3.7794189
  0
VERTEX
  5
688
  8
Layer_0
  10
-122.39343
  20
3.8760529
  0
VERTEX
  5
689
  8
Layer_0
  10
-122.0502
  20
4.0248718
  0
VERTEX
  5
68a
  8
Layer_0
  10
-121.73095
  20
4.2238159
  0
VERTEX
  5
68b
  8
Layer_0
  10
-121.56319
  20
4.400177
  0
VERTEX
  5
68c
  8
Layer_0
  10
-121.42267
  20
4.5974426
  0
VERTEX
  5
68d
  8
Layer_0
  10
-121.31128
  20
4.8125
  0
VERTEX
  5
68e
  8
Layer_0
  10
-121.23093
  20
5.0422668
  0
VERTEX
  5
68f
  8
Layer_0
  10
-121.13825
  20
5.4849548
  0
VERTEX
  5
690
  8
Layer_0
  10
-121.07538
  20
5.9323425
  0
VERTEX
  5
691
  8
Layer_0
  10
-121.04247
  20
6.3829346
  0
VERTEX
  5
692
  8
Layer_0
  10
-121.03968
  20
6.8352203
  0
VERTEX
  5
693
  8
Layer_0
  10
-123.11165
  20
6.8251038
  0
VERTEX
  5
694
  8
Layer_0
  10
-123.1058
  20
7.2651367
  0
VERTEX
  5
695
  8
Layer_0
  10
-121.04182
  20
7.2752228
  0
VERTEX
  5
696
  8
Layer_0
  10
-121.04408
  20
7.8311157
  0
VERTEX
  5
697
  8
Layer_0
  10
-121.09489
  20
8.3836365
  0
VERTEX
  5
698
  8
Layer_0
  10
-121.19385
  20
8.9295959
  0
VERTEX
  5
699
  8
Layer_0
  10
-121.34052
  20
9.4657898
  0
VERTEX
  5
69a
  8
Layer_0
  10
-121.5378
  20
9.8045654
  0
VERTEX
  5
69b
  8
Layer_0
  10
-121.80847
  20
10.080078
  0
VERTEX
  5
69c
  8
Layer_0
  10
-122.13831
  20
10.281006
  0
VERTEX
  5
69d
  8
Layer_0
  10
-122.51307
  20
10.396072
  0
VERTEX
  5
69e
  8
Layer_0
  10
-122.81958
  20
10.450912
  0
VERTEX
  5
69f
  8
Layer_0
  10
-123.12949
  20
10.481064
  0
VERTEX
  5
6a0
  8
Layer_0
  10
-123.12376
  20
10.945099
  0
VERTEX
  5
6a1
  8
Layer_0
  10
-122.90772
  20
10.938156
  0
SEQEND
  0
POLYLINE
  5
6a3
  8
Layer_0
  62
0
  70
1
  66
1
  10
0
  20
0
  30
0
  0
VERTEX
  5
6a3
  8
Layer_0
  10
-74.579735
  20
11.053955
  0
VERTEX
  5
6a4
  8
Layer_0
  10
-73.379128
  20
10.931824
  0
VERTEX
  5
6a5
  8
Layer_0
  10
-73.369339
  20
10.563858
  0
VERTEX
  5
6a6
  8
Layer_0
  10
-74.593323
  20
10.557892
  0
VERTEX
  5
6a7
  8
Layer_0
  10
-74.530174
  20
5.8141479
  0
VERTEX
  5
6a8
  8
Layer_0
  10
-74.537048
  20
5.427887
  0
VERTEX
  5
6a9
  8
Layer_0
  10
-74.590698
  20
5.0467224
  0
VERTEX
  5
6aa
  8
Layer_0
  10
-74.690262
  20
4.6748962
  0
VERTEX
  5
6ab
  8
Layer_0
  10
-74.834862
  20
4.3166351
  0
VERTEX
  5
6ac
  8
Layer_0
  10
-74.954987
  20
4.1450806
  0
VERTEX
  5
6ad
  8
Layer_0
  10
-75.09391
  20
3.9916229
  0
VERTEX
  5
6ae
  8
Layer_0
  10
-75.249573
  20
3.8574524
  0
VERTEX
  5
6af
  8
Layer_0
  10
-75.419922
  20
3.7437744
  0
VERTEX
  5
6b0
  8
Layer_0
  10
-75.602898
  20
3.6517792
  0
VERTEX
  5
6b1
  8
Layer_0
  10
-75.796432
  20
3.5826721
  0
VERTEX
  5
6b2
  8
Layer_0
  10
-75.998489
  20
3.5376587
  0
VERTEX
  5
6b3
  8
Layer_0
  10
-76.206985
  20
3.5179443
  0
VERTEX
  5
6b4
  8
Layer_0
  10
-76.786896
  20
3.499115
  0
VERTEX
  5
6b5
  8
Layer_0
  10
-77.366974
  20
3.5122681
  0
VERTEX
  5
6b6
  8
Layer_0
  10
-77.368919
  20
3.912262
  0
VERTEX
  5
6b7
  8
Layer_0
  10
-76.705276
  20
3.9634857
  0
VERTEX
  5
6b8
  8
Layer_0
  10
-76.049721
  20
4.0787048
  0
VERTEX
  5
6b9
  8
Layer_0
  10
-75.86245
  20
4.1520081
  0
VERTEX
  5
6ba
  8
Layer_0
  10
-75.692245
  20
4.2519226
  0
VERTEX
  5
6bb
  8
Layer_0
  10
-75.54129
  20
4.3756256
  0
VERTEX
  5
6bc
  8
Layer_0
  10
-75.411774
  20
4.5202332
  0
VERTEX
  5
6bd
  8
Layer_0
  10
-75.30584
  20
4.6829376
  0
VERTEX
  5
6be
  8
Layer_0
  10
-75.225693
  20
4.8608704
  0
VERTEX
  5
6bf
  8
Layer_0
  10
-75.173492
  20
5.0512085
  0
VERTEX
  5
6c0
  8
Layer_0
  10
-75.151436
  20
5.2510986
  0
VERTEX
  5
6c1
  8
Layer_0
  10
-75.120575
  20
5.5343933
  0
VERTEX
  5
6c2
  8
Layer_0
  10
-75.114204
  20
5.8192902
  0
VERTEX
  5
6c3
  8
Layer_0
  10
-75.129311
  20
10.555283
  0
VERTEX
  5
6c4
  8
Layer_0
  10
-77.513283
  20
10.54364
  0
VERTEX
  5
6c5
  8
Layer_0
  10
-77.507698
  20
11.039673
  0
VERTEX
  5
6c6
  8
Layer_0
  10
-75.131729
  20
11.05127
  0
VERTEX
  5
6c7
  8
Layer_0
  10
-75.134041
  20
13.163284
  0
VERTEX
  5
6c8
  8
Layer_0
  10
-74.710075
  20
13.173355
  0
VERTEX
  5
6c9
  8
Layer_0
  10
-74.579735
  20
11.053955
  0
SEQEND
  0
POLYLINE
  5
6cb
  8
Layer_0
  62
0
  70
1
  66
1
  10
0
  20
0
  30
0
  0
VERTEX
  5
6cb
  8
Layer_0
  10
-65.75811
  20
13.201035
  0
VERTEX
  5
6cc
  8
Layer_0
  10
-65.627808
  20
11.089645
  0
VERTEX
  5
6cd
  8
Layer_0
  10
-64.411194
  20
10.967575
  0
VERTEX
  5
6ce
  8
Layer_0
  10
-64.417358
  20
10.591537
  0
VERTEX
  5
6cf
  8
Layer_0
  10
-65.633385
  20
10.593613
  0
VERTEX
  5
6d0
  8
Layer_0
  10
-65.588852
  20
8.0259399
  0
VERTEX
  5
6d1
  8
Layer_0
  10
-65.576324
  20
5.4578247
  0
VERTEX
  5
6d2
  8
Layer_0
  10
-65.619011
  20
5.0493164
  0
VERTEX
  5
6d3
  8
Layer_0
  10
-65.736069
  20
4.6593628
  0
VERTEX
  5
6d4
  8
Layer_0
  10
-65.923447
  20
4.2979126
  0
VERTEX
  5
6d5
  8
Layer_0
  10
-66.177101
  20
3.974884
  0
VERTEX
  5
6d6
  8
Layer_0
  10
-66.449013
  20
3.7844543
  0
VERTEX
  5
6d7
  8
Layer_0
  10
-66.748497
  20
3.647522
  0
VERTEX
  5
6d8
  8
Layer_0
  10
-67.067764
  20
3.5667725
  0
VERTEX
  5
6d9
  8
Layer_0
  10
-67.399017
  20
3.5449219
  0
VERTEX
  5
6da
  8
Layer_0
  10
-68.415001
  20
3.5399628
  0
VERTEX
  5
6db
  8
Layer_0
  10
-68.416992
  20
3.9479523
  0
VERTEX
  5
6dc
  8
Layer_0
  10
-67.853249
  20
4.0063477
  0
VERTEX
  5
6dd
  8
Layer_0
  10
-67.289551
  20
4.0654602
  0
VERTEX
  5
6de
  8
Layer_0
  10
-67.066391
  20
4.1165619
  0
VERTEX
  5
6df
  8
Layer_0
  10
-66.860855
  20
4.2043762
  0
VERTEX
  5
6e0
  8
Layer_0
  10
-66.676407
  20
4.325058
  0
VERTEX
  5
6e1
  8
Layer_0
  10
-66.51651
  20
4.474762
  0
VERTEX
  5
6e2
  8
Layer_0
  10
-66.384613
  20
4.6496277
  0
VERTEX
  5
6e3
  8
Layer_0
  10
-66.284172
  20
4.8458252
  0
VERTEX
  5
6e4
  8
Layer_0
  10
-66.218643
  20
5.0595093
  0
VERTEX
  5
6e5
  8
Layer_0
  10
-66.191498
  20
5.2868347
  0
VERTEX
  5
6e6
  8
Layer_0
  10
-66.160721
  20
5.5700684
  0
VERTEX
  5
6e7
  8
Layer_0
  10
-66.162277
  20
5.8549805
  0
VERTEX
  5
6e8
  8
Layer_0
  10
-66.177376
  20
10.590958
  0
VERTEX
  5
6e9
  8
Layer_0
  10
-68.553352
  20
10.579361
  0
VERTEX
  5
6ea
  8
Layer_0
  10
-68.555771
  20
11.075348
  0
VERTEX
  5
6eb
  8
Layer_0
  10
-66.179802
  20
11.086945
  0
VERTEX
  5
6ec
  8
Layer_0
  10
-66.182106
  20
13.198959
  0
VERTEX
  5
6ed
  8
Layer_0
  10
-65.75811
  20
13.201035
  0
SEQEND
  0
POLYLINE
  5
6ef
  8
Layer_0
  62
0
  70
1
  66
1
  10
0
  20
0
  30
0
  0
VERTEX
  5
6ef
  8
Layer_0
  10
-79.275681
  20
14.311081
  0
VERTEX
  5
6f0
  8
Layer_0
  10
-79.246948
  20
3.5031128
  0
VERTEX
  5
6f1
  8
Layer_0
  10
-79.822945
  20
3.5002899
  0
VERTEX
  5
6f2
  8
Layer_0
  10
-79.845619
  20
9.7882538
  0
VERTEX
  5
6f3
  8
Layer_0
  10
-80.235031
  20
10.013687
  0
VERTEX
  5
6f4
  8
Layer_0
  10
-80.640167
  20
10.203506
  0
VERTEX
  5
6f5
  8
Layer_0
  10
-81.058609
  20
10.357147
  0
VERTEX
  5
6f6
  8
Layer_0
  10
-81.487938
  20
10.474075
  0
VERTEX
  5
6f7
  8
Layer_0
  10
-81.925705
  20
10.553741
  0
VERTEX
  5
6f8
  8
Layer_0
  10
-82.369507
  20
10.595581
  0
VERTEX
  5
6f9
  8
Layer_0
  10
-82.816895
  20
10.59903
  0
VERTEX
  5
6fa
  8
Layer_0
  10
-83.265442
  20
10.563583
  0
VERTEX
  5
6fb
  8
Layer_0
  10
-83.526276
  20
10.456635
  0
VERTEX
  5
6fc
  8
Layer_0
  10
-83.763947
  20
10.314178
  0
VERTEX
  5
6fd
  8
Layer_0
  10
-83.975632
  20
10.139832
  0
VERTEX
  5
6fe
  8
Layer_0
  10
-84.158516
  20
9.9372406
  0
VERTEX
  5
6ff
  8
Layer_0
  10
-84.309761
  20
9.7100525
  0
VERTEX
  5
700
  8
Layer_0
  10
-84.426552
  20
9.4619141
  0
VERTEX
  5
701
  8
Layer_0
  10
-84.50605
  20
9.1964417
  0
VERTEX
  5
702
  8
Layer_0
  10
-84.545425
  20
8.9173126
  0
VERTEX
  5
703
  8
Layer_0
  10
-84.560135
  20
8.653244
  0
VERTEX
  5
704
  8
Layer_0
  10
-84.542877
  20
3.4772644
  0
VERTEX
  5
705
  8
Layer_0
  10
-85.118912
  20
3.4824524
  0
VERTEX
  5
706
  8
Layer_0
  10
-85.140297
  20
6.2223816
  0
VERTEX
  5
707
  8
Layer_0
  10
-85.137642
  20
8.9624329
  0
VERTEX
  5
708
  8
Layer_0
  10
-85.098854
  20
9.2757263
  0
VERTEX
  5
709
  8
Layer_0
  10
-85.020279
  20
9.57724
  0
VERTEX
  5
70a
  8
Layer_0
  10
-84.904099
  20
9.8636475
  0
VERTEX
  5
70b
  8
Layer_0
  10
-84.752487
  20
10.131653
  0
VERTEX
  5
70c
  8
Layer_0
  10
-84.567627
  20
10.377899
  0
VERTEX
  5
70d
  8
Layer_0
  10
-84.3517
  20
10.59906
  0
VERTEX
  5
70e
  8
Layer_0
  10
-84.106888
  20
10.791809
  0
VERTEX
  5
70f
  8
Layer_0
  10
-83.83535
  20
10.952805
  0
VERTEX
  5
710
  8
Layer_0
  10
-83.416718
  20
11.082718
  0
VERTEX
  5
711
  8
Layer_0
  10
-82.98584
  20
11.149139
  0
VERTEX
  5
712
  8
Layer_0
  10
-82.549881
  20
11.151489
  0
VERTEX
  5
713
  8
Layer_0
  10
-82.11599
  20
11.089188
  0
VERTEX
  5
714
  8
Layer_0
  10
-81.511223
  20
10.956116
  0
VERTEX
  5
715
  8
Layer_0
  10
-80.926682
  20
10.757538
  0
VERTEX
  5
716
  8
Layer_0
  10
-80.367676
  20
10.495544
  0
VERTEX
  5
717
  8
Layer_0
  10
-79.8395
  20
10.172287
  0
VERTEX
  5
718
  8
Layer_0
  10
-79.85968
  20
14.308243
  0
VERTEX
  5
719
  8
Layer_0
  10
-79.275681
  20
14.311081
  0
SEQEND
  0
POLYLINE
  5
71b
  8
Layer_0
  62
0
  70
1
  66
1
  10
0
  20
0
  30
0
  0
VERTEX
  5
71b
  8
Layer_0
  10
-99.40358
  20
10.964844
  0
VERTEX
  5
71c
  8
Layer_0
  10
-98.983627
  20
11.035065
  0
VERTEX
  5
71d
  8
Layer_0
  10
-98.563339
  20
11.050629
  0
VERTEX
  5
71e
  8
Layer_0
  10
-98.147652
  20
11.01297
  0
VERTEX
  5
71f
  8
Layer_0
  10
-97.741516
  20
10.923492
  0
VERTEX
  5
720
  8
Layer_0
  10
-97.349854
  20
10.78363
  0
VERTEX
  5
721
  8
Layer_0
  10
-96.977631
  20
10.594803
  0
VERTEX
  5
722
  8
Layer_0
  10
-96.629761
  20
10.358429
  0
VERTEX
  5
723
  8
Layer_0
  10
-96.311203
  20
10.075912
  0
VERTEX
  5
724
  8
Layer_0
  10
-96.053848
  20
9.8369751
  0
VERTEX
  5
725
  8
Layer_0
  10
-95.820755
  20
9.5743103
  0
VERTEX
  5
726
  8
Layer_0
  10
-95.659584
  20
10.975113
  0
VERTEX
  5
727
  8
Layer_0
  10
-95.235634
  20
10.985168
  0
VERTEX
  5
728
  8
Layer_0
  10
-95.214828
  20
3.4411926
  0
VERTEX
  5
729
  8
Layer_0
  10
-95.790817
  20
3.438385
  0
VERTEX
  5
72a
  8
Layer_0
  10
-95.810692
  20
9.1503448
  0
VERTEX
  5
72b
  8
Layer_0
  10
-96.213776
  20
9.5127411
  0
VERTEX
  5
72c
  8
Layer_0
  10
-96.651634
  20
9.8297272
  0
VERTEX
  5
72d
  8
Layer_0
  10
-97.120453
  20
10.098816
  0
VERTEX
  5
72e
  8
Layer_0
  10
-97.616402
  20
10.317551
  0
VERTEX
  5
72f
  8
Layer_0
  10
-98.058533
  20
10.419189
  0
VERTEX
  5
730
  8
Layer_0
  10
-98.508133
  20
10.465088
  0
VERTEX
  5
731
  8
Layer_0
  10
-98.959961
  20
10.455017
  0
VERTEX
  5
732
  8
Layer_0
  10
-99.408768
  20
10.388809
  0
VERTEX
  5
733
  8
Layer_0
  10
-99.40358
  20
10.964844
  0
SEQEND
  0
POLYLINE
  5
735
  8
Layer_0
  62
0
  70
1
  66
1
  10
0
  20
0
  30
0
  0
VERTEX
  5
735
  8
Layer_0
  10
-112.64346
  20
14.188278
  0
VERTEX
  5
736
  8
Layer_0
  10
-112.59872
  20
3.3803711
  0
VERTEX
  5
737
  8
Layer_0
  10
-113.03872
  20
3.3782196
  0
VERTEX
  5
738
  8
Layer_0
  10
-113.18659
  20
4.1695099
  0
VERTEX
  5
739
  8
Layer_0
  10
-113.6526
  20
3.8854675
  0
VERTEX
  5
73a
  8
Layer_0
  10
-114.14482
  20
3.6533203
  0
VERTEX
  5
73b
  8
Layer_0
  10
-114.65894
  20
3.4748077
  0
VERTEX
  5
73c
  8
Layer_0
  10
-115.19061
  20
3.3517151
  0
VERTEX
  5
73d
  8
Layer_0
  10
-115.19288
  20
3.8157196
  0
VERTEX
  5
73e
  8
Layer_0
  10
-114.81667
  20
3.8913116
  0
VERTEX
  5
73f
  8
Layer_0
  10
-114.4479
  20
3.9953613
  0
VERTEX
  5
740
  8
Layer_0
  10
-114.0882
  20
4.1273651
  0
VERTEX
  5
741
  8
Layer_0
  10
-113.73916
  20
4.2868195
  0
VERTEX
  5
742
  8
Layer_0
  10
-113.45856
  20
4.4006958
  0
VERTEX
  5
743
  8
Layer_0
  10
-113.18839
  20
4.5375061
  0
VERTEX
  5
744
  8
Layer_0
  10
-113.20583
  20
9.753479
  0
VERTEX
  5
745
  8
Layer_0
  10
-113.68346
  20
9.9977875
  0
VERTEX
  5
746
  8
Layer_0
  10
-114.1799
  20
10.198303
  0
VERTEX
  5
747
  8
Layer_0
  10
-114.69218
  20
10.353943
  0
VERTEX
  5
748
  8
Layer_0
  10
-115.21732
  20
10.463669
  0
VERTEX
  5
749
  8
Layer_0
  10
-115.21154
  20
10.919708
  0
VERTEX
  5
74a
  8
Layer_0
  10
-114.6891
  20
10.78244
  0
VERTEX
  5
74b
  8
Layer_0
  10
-114.1795
  20
10.605743
  0
VERTEX
  5
74c
  8
Layer_0
  10
-113.68497
  20
10.390472
  0
VERTEX
  5
74d
  8
Layer_0
  10
-113.2077
  20
10.137482
  0
VERTEX
  5
74e
  8
Layer_0
  10
-113.21945
  20
14.185455
  0
VERTEX
  5
74f
  8
Layer_0
  10
-112.64346
  20
14.188278
  0
SEQEND
  0
POLYLINE
  5
751
  8
Layer_0
  62
0
  70
1
  66
1
  10
0
  20
0
  30
0
  0
VERTEX
  5
751
  8
Layer_0
  10
-132.36234
  20
5.7159576
  0
VERTEX
  5
752
  8
Layer_0
  10
-132.35999
  20
5.2973938
  0
VERTEX
  5
753
  8
Layer_0
  10
-132.40636
  20
4.8828125
  0
VERTEX
  5
754
  8
Layer_0
  10
-132.50073
  20
4.4764709
  0
VERTEX
  5
755
  8
Layer_0
  10
-132.64238
  20
4.0825806
  0
VERTEX
  5
756
  8
Layer_0
  10
-132.86403
  20
3.7747498
  0
VERTEX
  5
757
  8
Layer_0
  10
-133.15166
  20
3.5365906
  0
VERTEX
  5
758
  8
Layer_0
  10
-133.4897
  20
3.3778992
  0
VERTEX
  5
759
  8
Layer_0
  10
-133.86263
  20
3.308609
  0
VERTEX
  5
75a
  8
Layer_0
  10
-134.43454
  20
3.2977905
  0
VERTEX
  5
75b
  8
Layer_0
  10
-135.00656
  20
3.2950439
  0
VERTEX
  5
75c
  8
Layer_0
  10
-135.00851
  20
3.6950226
  0
VERTEX
  5
75d
  8
Layer_0
  10
-134.39935
  20
3.7621765
  0
VERTEX
  5
75e
  8
Layer_0
  10
-133.79327
  20
3.8529663
  0
VERTEX
  5
75f
  8
Layer_0
  10
-133.50287
  20
3.9861145
  0
VERTEX
  5
760
  8
Layer_0
  10
-133.26852
  20
4.1937561
  0
VERTEX
  5
761
  8
Layer_0
  10
-133.10367
  20
4.4599609
  0
VERTEX
  5
762
  8
Layer_0
  10
-133.02173
  20
4.7687378
  0
VERTEX
  5
763
  8
Layer_0
  10
-132.95975
  20
5.2592163
  0
VERTEX
  5
764
  8
Layer_0
  10
-132.93852
  20
5.7531433
  0
VERTEX
  5
765
  8
Layer_0
  10
-132.97133
  20
14.113083
  0
VERTEX
  5
766
  8
Layer_0
  10
-132.38737
  20
14.123932
  0
VERTEX
  5
767
  8
Layer_0
  10
-132.36234
  20
5.7159576
  0
SEQEND
  0
POLYLINE
  5
769
  8
Layer_0
  62
0
  70
1
  66
1
  10
0
  20
0
  30
0
  0
VERTEX
  5
769
  8
Layer_0
  10
-136.38734
  20
10.832382
  0
VERTEX
  5
76a
  8
Layer_0
  10
-136.36655
  20
3.2883911
  0
VERTEX
  5
76b
  8
Layer_0
  10
-136.94258
  20
3.2935791
  0
VERTEX
  5
76c
  8
Layer_0
  10
-136.97134
  20
10.829529
  0
VERTEX
  5
76d
  8
Layer_0
  10
-136.38734
  20
10.832382
  0
SEQEND
  0
POLYLINE
  5
76f
  8
Layer_0
  62
0
  70
1
  66
1
  10
0
  20
0
  30
0
  0
VERTEX
  5
76f
  8
Layer_0
  10
-148.53925
  20
14.061127
  0
VERTEX
  5
770
  8
Layer_0
  10
-148.50247
  20
3.2451782
  0
VERTEX
  5
771
  8
Layer_0
  10
-149.07851
  20
3.2503662
  0
VERTEX
  5
772
  8
Layer_0
  10
-149.10118
  20
9.5383301
  0
VERTEX
  5
773
  8
Layer_0
  10
-149.68103
  20
9.8426514
  0
VERTEX
  5
774
  8
Layer_0
  10
-150.28767
  20
10.084549
  0
VERTEX
  5
775
  8
Layer_0
  10
-150.91611
  20
10.262344
  0
VERTEX
  5
776
  8
Layer_0
  10
-151.56129
  20
10.374329
  0
VERTEX
  5
777
  8
Layer_0
  10
-151.86543
  20
10.379456
  0
VERTEX
  5
778
  8
Layer_0
  10
-152.16801
  20
10.356033
  0
VERTEX
  5
779
  8
Layer_0
  10
-152.46707
  20
10.304291
  0
VERTEX
  5
77a
  8
Layer_0
  10
-152.76057
  20
10.224487
  0
VERTEX
  5
77b
  8
Layer_0
  10
-153.0031
  20
10.077103
  0
VERTEX
  5
77c
  8
Layer_0
  10
-153.21832
  20
9.8990173
  0
VERTEX
  5
77d
  8
Layer_0
  10
-153.4041
  20
9.6940002
  0
VERTEX
  5
77e
  8
Layer_0
  10
-153.55827
  20
9.4657288
  0
VERTEX
  5
77f
  8
Layer_0
  10
-153.67867
  20
9.2179871
  0
VERTEX
  5
780
  8
Layer_0
  10
-153.76314
  20
8.9544983
  0
VERTEX
  5
781
  8
Layer_0
  10
-153.80952
  20
8.6790161
  0
VERTEX
  5
782
  8
Layer_0
  10
-153.81566
  20
8.3953094
  0
VERTEX
  5
783
  8
Layer_0
  10
-153.80644
  20
3.2272949
  0
VERTEX
  5
784
  8
Layer_0
  10
-154.38243
  20
3.2244873
  0
VERTEX
  5
785
  8
Layer_0
  10
-154.3876
  20
5.9206543
  0
VERTEX
  5
786
  8
Layer_0
  10
-154.40076
  20
8.6164551
  0
VERTEX
  5
787
  8
Layer_0
  10
-154.36232
  20
9.035675
  0
VERTEX
  5
788
  8
Layer_0
  10
-154.2515
  20
9.4311829
  0
VERTEX
  5
789
  8
Layer_0
  10
-154.07472
  20
9.7955627
  0
VERTEX
  5
78a
  8
Layer_0
  10
-153.83847
  20
10.121368
  0
VERTEX
  5
78b
  8
Layer_0
  10
-153.54921
  20
10.401169
  0
VERTEX
  5
78c
  8
Layer_0
  10
-153.21338
  20
10.627518
  0
VERTEX
  5
78d
  8
Layer_0
  10
-152.83743
  20
10.792969
  0
VERTEX
  5
78e
  8
Layer_0
  10
-152.42783
  20
10.890106
  0
VERTEX
  5
78f
  8
Layer_0
  10
-151.98499
  20
10.889648
  0
VERTEX
  5
790
  8
Layer_0
  10
-151.54578
  20
10.853546
  0
VERTEX
  5
791
  8
Layer_0
  10
-151.11232
  20
10.78244
  0
VERTEX
  5
792
  8
Layer_0
  10
-150.68666
  20
10.67688
  0
VERTEX
  5
793
  8
Layer_0
  10
-150.27084
  20
10.537491
  0
VERTEX
  5
794
  8
Layer_0
  10
-149.86691
  20
10.364868
  0
VERTEX
  5
795
  8
Layer_0
  10
-149.47697
  20
10.159607
  0
VERTEX
  5
796
  8
Layer_0
  10
-149.10306
  20
9.9223328
  0
VERTEX
  5
797
  8
Layer_0
  10
-149.12325
  20
14.058273
  0
VERTEX
  5
798
  8
Layer_0
  10
-148.53925
  20
14.061127
  0
SEQEND
  0
POLYLINE
  5
79a
  8
Layer_0
  62
0
  70
1
  66
1
  10
0
  20
0
  30
0
  0
VERTEX
  5
79a
  8
Layer_0
  10
-157.27751
  20
12.86647
  0
VERTEX
  5
79b
  8
Layer_0
  10
-157.14722
  20
10.755081
  0
VERTEX
  5
79c
  8
Layer_0
  10
-155.9386
  20
10.63298
  0
VERTEX
  5
79d
  8
Layer_0
  10
-155.94479
  20
10.264954
  0
VERTEX
  5
79e
  8
Layer_0
  10
-157.16078
  20
10.259018
  0
VERTEX
  5
79f
  8
Layer_0
  10
-157.09761
  20
5.5072632
  0
VERTEX
  5
7a0
  8
Layer_0
  10
-157.08173
  20
5.2437744
  0
VERTEX
  5
7a1
  8
Layer_0
  10
-157.09567
  20
4.9827576
  0
VERTEX
  5
7a2
  8
Layer_0
  10
-157.13864
  20
4.7265472
  0
VERTEX
  5
7a3
  8
Layer_0
  10
-157.20982
  20
4.4774933
  0
VERTEX
  5
7a4
  8
Layer_0
  10
-157.30841
  20
4.2379608
  0
VERTEX
  5
7a5
  8
Layer_0
  10
-157.43356
  20
4.0102997
  0
VERTEX
  5
7a6
  8
Layer_0
  10
-157.58447
  20
3.7968597
  0
VERTEX
  5
7a7
  8
Layer_0
  10
-157.76031
  20
3.6000061
  0
VERTEX
  5
7a8
  8
Layer_0
  10
-157.985
  20
3.4373474
  0
VERTEX
  5
7a9
  8
Layer_0
  10
-158.23303
  20
3.3180847
  0
VERTEX
  5
7aa
  8
Layer_0
  10
-158.49826
  20
3.2445374
  0
VERTEX
  5
7ab
  8
Layer_0
  10
-158.77448
  20
3.2190552
  0
VERTEX
  5
7ac
  8
Layer_0
  10
-159.35429
  20
3.2002106
  0
VERTEX
  5
7ad
  8
Layer_0
  10
-159.9344
  20
3.2053986
  0
VERTEX
  5
7ae
  8
Layer_0
  10
-159.93639
  20
3.6134033
  0
VERTEX
  5
7af
  8
Layer_0
  10
-159.27344
  20
3.6648407
  0
VERTEX
  5
7b0
  8
Layer_0
  10
-158.61716
  20
3.7718353
  0
VERTEX
  5
7b1
  8
Layer_0
  10
-158.29861
  20
3.9168549
  0
VERTEX
  5
7b2
  8
Layer_0
  10
-158.03752
  20
4.1401367
  0
VERTEX
  5
7b3
  8
Layer_0
  10
-157.84747
  20
4.4263306
  0
VERTEX
  5
7b4
  8
Layer_0
  10
-157.74197
  20
4.7601166
  0
VERTEX
  5
7b5
  8
Layer_0
  10
-157.69553
  20
5.1391907
  0
VERTEX
  5
7b6
  8
Layer_0
  10
-157.67369
  20
5.520462
  0
VERTEX
  5
7b7
  8
Layer_0
  10
-157.69679
  20
10.256393
  0
VERTEX
  5
7b8
  8
Layer_0
  10
-160.08075
  20
10.244766
  0
VERTEX
  5
7b9
  8
Layer_0
  10
-160.07518
  20
10.740799
  0
VERTEX
  5
7ba
  8
Layer_0
  10
-157.69922
  20
10.752396
  0
VERTEX
  5
7bb
  8
Layer_0
  10
-157.70151
  20
12.86441
  0
VERTEX
  5
7bc
  8
Layer_0
  10
-157.27751
  20
12.86647
  0
SEQEND
  0
POLYLINE
  5
7be
  8
Layer_0
  62
0
  70
1
  66
1
  10
0
  20
0
  30
0
  0
VERTEX
  5
7be
  8
Layer_0
  10
-143.44342
  20
10.829956
  0
VERTEX
  5
7bf
  8
Layer_0
  10
-143.44101
  20
10.333954
  0
VERTEX
  5
7c0
  8
Layer_0
  10
-143.80493
  20
10.334
  0
VERTEX
  5
7c1
  8
Layer_0
  10
-144.1631
  20
10.281357
  0
VERTEX
  5
7c2
  8
Layer_0
  10
-144.50986
  20
10.177292
  0
VERTEX
  5
7c3
  8
Layer_0
  10
-144.83951
  20
10.023132
  0
VERTEX
  5
7c4
  8
Layer_0
  10
-145.13811
  20
9.7413635
  0
VERTEX
  5
7c5
  8
Layer_0
  10
-145.36392
  20
9.4043732
  0
VERTEX
  5
7c6
  8
Layer_0
  10
-145.5098
  20
9.0258789
  0
VERTEX
  5
7c7
  8
Layer_0
  10
-145.56866
  20
8.6195526
  0
VERTEX
  5
7c8
  8
Layer_0
  10
-145.59711
  20
8.3885498
  0
VERTEX
  5
7c9
  8
Layer_0
  10
-145.59875
  20
8.1581421
  0
VERTEX
  5
7ca
  8
Layer_0
  10
-145.57419
  20
7.930481
  0
VERTEX
  5
7cb
  8
Layer_0
  10
-145.52405
  20
7.7077332
  0
VERTEX
  5
7cc
  8
Layer_0
  10
-145.44897
  20
7.4921265
  0
VERTEX
  5
7cd
  8
Layer_0
  10
-145.34958
  20
7.2858276
  0
VERTEX
  5
7ce
  8
Layer_0
  10
-145.22647
  20
7.0910339
  0
VERTEX
  5
7cf
  8
Layer_0
  10
-145.08031
  20
6.9099121
  0
VERTEX
  5
7d0
  8
Layer_0
  10
-144.85068
  20
6.7342987
  0
VERTEX
  5
7d1
  8
Layer_0
  10
-144.59668
  20
6.6003571
  0
VERTEX
  5
7d2
  8
Layer_0
  10
-144.32396
  20
6.5104675
  0
VERTEX
  5
7d3
  8
Layer_0
  10
-144.03815
  20
6.4670105
  0
VERTEX
  5
7d4
  8
Layer_0
  10
-143.73038
  20
6.4361725
  0
VERTEX
  5
7d5
  8
Layer_0
  10
-143.42188
  20
6.4140015
  0
VERTEX
  5
7d6
  8
Layer_0
  10
-143.41957
  20
5.9420166
  0
VERTEX
  5
7d7
  8
Layer_0
  10
-143.85257
  20
5.9426575
  0
VERTEX
  5
7d8
  8
Layer_0
  10
-144.27963
  20
6.0009613
  0
VERTEX
  5
7d9
  8
Layer_0
  10
-144.6951
  20
6.1157532
  0
VERTEX
  5
7da
  8
Layer_0
  10
-145.09328
  20
6.2858582
  0
VERTEX
  5
7db
  8
Layer_0
  10
-145.30408
  20
6.4347229
  0
VERTEX
  5
7dc
  8
Layer_0
  10
-145.49443
  20
6.6051331
  0
VERTEX
  5
7dd
  8
Layer_0
  10
-145.66302
  20
6.7949829
  0
VERTEX
  5
7de
  8
Layer_0
  10
-145.80856
  20
7.0021057
  0
VERTEX
  5
7df
  8
Layer_0
  10
-145.9297
  20
7.2243805
  0
VERTEX
  5
7e0
  8
Layer_0
  10
-146.0251
  20
7.459671
  0
VERTEX
  5
7e1
  8
Layer_0
  10
-146.09346
  20
7.7058563
  0
VERTEX
  5
7e2
  8
Layer_0
  10
-146.13345
  20
7.9607849
  0
VERTEX
  5
7e3
  8
Layer_0
  10
-146.13651
  20
8.5847778
  0
VERTEX
  5
7e4
  8
Layer_0
  10
-146.10693
  20
8.8692017
  0
VERTEX
  5
7e5
  8
Layer_0
  10
-146.03909
  20
9.1427002
  0
VERTEX
  5
7e6
  8
Layer_0
  10
-145.93521
  20
9.4019165
  0
VERTEX
  5
7e7
  8
Layer_0
  10
-145.79752
  20
9.6435089
  0
VERTEX
  5
7e8
  8
Layer_0
  10
-145.62827
  20
9.8641052
  0
VERTEX
  5
7e9
  8
Layer_0
  10
-145.42963
  20
10.060394
  0
VERTEX
  5
7ea
  8
Layer_0
  10
-145.20386
  20
10.229004
  0
VERTEX
  5
7eb
  8
Layer_0
  10
-144.95319
  20
10.366577
  0
VERTEX
  5
7ec
  8
Layer_0
  10
-146.96967
  20
10.460739
  0
VERTEX
  5
7ed
  8
Layer_0
  10
-146.97137
  20
10.812744
  0
VERTEX
  5
7ee
  8
Layer_0
  10
-143.44342
  20
10.829956
  0
SEQEND
  0
POLYLINE
  5
7f0
  8
Layer_0
  62
0
  70
1
  66
1
  10
0
  20
0
  30
0
  0
VERTEX
  5
7f0
  8
Layer_0
  10
-60.928253
  20
11.192871
  0
VERTEX
  5
7f1
  8
Layer_0
  10
-60.925949
  20
10.720886
  0
VERTEX
  5
7f2
  8
Layer_0
  10
-61.28717
  20
10.715683
  0
VERTEX
  5
7f3
  8
Layer_0
  10
-61.644321
  20
10.669708
  0
VERTEX
  5
7f4
  8
Layer_0
  10
-61.993969
  20
10.583618
  0
VERTEX
  5
7f5
  8
Layer_0
  10
-62.332687
  20
10.458023
  0
VERTEX
  5
7f6
  8
Layer_0
  10
-62.625393
  20
10.231323
  0
VERTEX
  5
7f7
  8
Layer_0
  10
-62.85043
  20
9.9442444
  0
VERTEX
  5
7f8
  8
Layer_0
  10
-62.999115
  20
9.611145
  0
VERTEX
  5
7f9
  8
Layer_0
  10
-63.062782
  20
9.2464447
  0
VERTEX
  5
7fa
  8
Layer_0
  10
-63.088146
  20
8.9345398
  0
VERTEX
  5
7fb
  8
Layer_0
  10
-63.075359
  20
8.6230164
  0
VERTEX
  5
7fc
  8
Layer_0
  10
-63.02478
  20
8.3153381
  0
VERTEX
  5
7fd
  8
Layer_0
  10
-62.936775
  20
8.0150452
  0
VERTEX
  5
7fe
  8
Layer_0
  10
-62.772991
  20
7.8182678
  0
VERTEX
  5
7ff
  8
Layer_0
  10
-62.570538
  20
7.66716
  0
VERTEX
  5
800
  8
Layer_0
  10
-62.3386
  20
7.5670319
  0
VERTEX
  5
801
  8
Layer_0
  10
-62.086365
  20
7.5231934
  0
VERTEX
  5
802
  8
Layer_0
  10
-61.507095
  20
7.4782104
  0
VERTEX
  5
803
  8
Layer_0
  10
-60.926178
  20
7.4888458
  0
VERTEX
  5
804
  8
Layer_0
  10
-60.916039
  20
7.0488892
  0
VERTEX
  5
805
  8
Layer_0
  10
-61.342991
  20
7.0302429
  0
VERTEX
  5
806
  8
Layer_0
  10
-61.769428
  20
7.0454102
  0
VERTEX
  5
807
  8
Layer_0
  10
-62.193329
  20
7.0942383
  0
VERTEX
  5
808
  8
Layer_0
  10
-62.612679
  20
7.1766205
  0
VERTEX
  5
809
  8
Layer_0
  10
-62.843441
  20
7.284729
  0
VERTEX
  5
80a
  8
Layer_0
  10
-63.049713
  20
7.4257507
  0
VERTEX
  5
80b
  8
Layer_0
  10
-63.228912
  20
7.5956726
  0
VERTEX
  5
80c
  8
Layer_0
  10
-63.378456
  20
7.7905273
  0
VERTEX
  5
80d
  8
Layer_0
  10
-63.49575
  20
8.0063477
  0
VERTEX
  5
80e
  8
Layer_0
  10
-63.57822
  20
8.2391205
  0
VERTEX
  5
80f
  8
Layer_0
  10
-63.623268
  20
8.4848938
  0
VERTEX
  5
810
  8
Layer_0
  10
-63.628319
  20
8.7396698
  0
VERTEX
  5
811
  8
Layer_0
  10
-63.616615
  20
9.0955811
  0
VERTEX
  5
812
  8
Layer_0
  10
-63.566769
  20
9.4471588
  0
VERTEX
  5
813
  8
Layer_0
  10
-63.479385
  20
9.7913361
  0
VERTEX
  5
814
  8
Layer_0
  10
-63.355072
  20
10.125031
  0
VERTEX
  5
815
  8
Layer_0
  10
-63.228119
  20
10.332565
  0
VERTEX
  5
816
  8
Layer_0
  10
-63.077023
  20
10.519196
  0
VERTEX
  5
817
  8
Layer_0
  10
-62.904358
  20
10.683319
  0
VERTEX
  5
818
  8
Layer_0
  10
-62.712708
  20
10.823273
  0
VERTEX
  5
819
  8
Layer_0
  10
-62.504654
  20
10.937408
  0
VERTEX
  5
81a
  8
Layer_0
  10
-62.282772
  20
11.024109
  0
VERTEX
  5
81b
  8
Layer_0
  10
-62.049648
  20
11.081696
  0
VERTEX
  5
81c
  8
Layer_0
  10
-61.807861
  20
11.108582
  0
VERTEX
  5
81d
  8
Layer_0
  10
-61.370407
  20
11.175217
  0
VERTEX
  5
81e
  8
Layer_0
  10
-60.928253
  20
11.192871
  0
SEQEND
  0
POLYLINE
  5
820
  8
Layer_0
  62
0
  70
1
  66
1
  10
0
  20
0
  30
0
  0
VERTEX
  5
820
  8
Layer_0
  10
-90.983994
  20
11.069717
  0
VERTEX
  5
821
  8
Layer_0
  10
-90.981735
  20
10.605728
  0
VERTEX
  5
822
  8
Layer_0
  10
-91.331924
  20
10.596313
  0
VERTEX
  5
823
  8
Layer_0
  10
-91.677437
  20
10.546265
  0
VERTEX
  5
824
  8
Layer_0
  10
-92.014771
  20
10.456268
  0
VERTEX
  5
825
  8
Layer_0
  10
-92.340385
  20
10.327087
  0
VERTEX
  5
826
  8
Layer_0
  10
-92.61158
  20
10.096863
  0
VERTEX
  5
827
  8
Layer_0
  10
-92.819115
  20
9.813858
  0
VERTEX
  5
828
  8
Layer_0
  10
-92.955841
  20
9.4906311
  0
VERTEX
  5
829
  8
Layer_0
  10
-93.014595
  20
9.139801
  0
VERTEX
  5
82a
  8
Layer_0
  10
-93.040886
  20
8.8278351
  0
VERTEX
  5
82b
  8
Layer_0
  10
-93.028412
  20
8.5162354
  0
VERTEX
  5
82c
  8
Layer_0
  10
-92.977524
  20
8.2085571
  0
VERTEX
  5
82d
  8
Layer_0
  10
-92.888596
  20
7.9083862
  0
VERTEX
  5
82e
  8
Layer_0
  10
-92.757515
  20
7.7367096
  0
VERTEX
  5
82f
  8
Layer_0
  10
-92.594688
  20
7.5986023
  0
VERTEX
  5
830
  8
Layer_0
  10
-92.406235
  20
7.4982452
  0
VERTEX
  5
831
  8
Layer_0
  10
-92.198296
  20
7.4397583
  0
VERTEX
  5
832
  8
Layer_0
  10
-91.892151
  20
7.3948517
  0
VERTEX
  5
833
  8
Layer_0
  10
-91.584053
  20
7.3701935
  0
VERTEX
  5
834
  8
Layer_0
  10
-91.275009
  20
7.3658142
  0
VERTEX
  5
835
  8
Layer_0
  10
-90.966003
  20
7.3817749
  0
VERTEX
  5
836
  8
Layer_0
  10
-90.963852
  20
6.9417725
  0
VERTEX
  5
837
  8
Layer_0
  10
-91.373322
  20
6.9222412
  0
VERTEX
  5
838
  8
Layer_0
  10
-91.782166
  20
6.9385376
  0
VERTEX
  5
839
  8
Layer_0
  10
-92.188019
  20
6.9904785
  0
VERTEX
  5
83a
  8
Layer_0
  10
-92.588531
  20
7.0778503
  0
VERTEX
  5
83b
  8
Layer_0
  10
-92.816788
  20
7.1858368
  0
VERTEX
  5
83c
  8
Layer_0
  10
-93.020401
  20
7.3265991
  0
VERTEX
  5
83d
  8
Layer_0
  10
-93.196793
  20
7.496109
  0
VERTEX
  5
83e
  8
Layer_0
  10
-93.343384
  20
7.6902924
  0
VERTEX
  5
83f
  8
Layer_0
  10
-93.457596
  20
7.9051361
  0
VERTEX
  5
840
  8
Layer_0
  10
-93.536842
  20
8.1365509
  0
VERTEX
  5
841
  8
Layer_0
  10
-93.578552
  20
8.3805237
  0
VERTEX
  5
842
  8
Layer_0
  10
-93.580124
  20
8.6330261
  0
VERTEX
  5
843
  8
Layer_0
  10
-93.572952
  20
9.0108643
  0
VERTEX
  5
844
  8
Layer_0
  10
-93.520538
  20
9.3837585
  0
VERTEX
  5
845
  8
Layer_0
  10
-93.423714
  20
9.7476501
  0
VERTEX
  5
846
  8
Layer_0
  10
-93.283272
  20
10.098495
  0
VERTEX
  5
847
  8
Layer_0
  10
-93.151665
  20
10.283859
  0
VERTEX
  5
848
  8
Layer_0
  10
-93.000687
  20
10.450638
  0
VERTEX
  5
849
  8
Layer_0
  10
-92.832321
  20
10.597626
  0
VERTEX
  5
84a
  8
Layer_0
  10
-92.648575
  20
10.723648
  0
VERTEX
  5
84b
  8
Layer_0
  10
-92.451439
  20
10.827469
  0
VERTEX
  5
84c
  8
Layer_0
  10
-92.242897
  20
10.907898
  0
VERTEX
  5
84d
  8
Layer_0
  10
-92.024963
  20
10.963715
  0
VERTEX
  5
84e
  8
Layer_0
  10
-91.799622
  20
10.993744
  0
VERTEX
  5
84f
  8
Layer_0
  10
-91.393692
  20
11.051971
  0
VERTEX
  5
850
  8
Layer_0
  10
-90.983994
  20
11.069717
  0
SEQEND
  0
POLYLINE
  5
852
  8
Layer_0
  62
0
  70
1
  66
1
  10
0
  20
0
  30
0
  0
VERTEX
  5
852
  8
Layer_0
  10
-104.42166
  20
10.563858
  0
VERTEX
  5
853
  8
Layer_0
  10
-104.80469
  20
10.552139
  0
VERTEX
  5
854
  8
Layer_0
  10
-105.18085
  20
10.488892
  0
VERTEX
  5
855
  8
Layer_0
  10
-105.54499
  20
10.37532
  0
VERTEX
  5
856
  8
Layer_0
  10
-105.89196
  20
10.212677
  0
VERTEX
  5
857
  8
Layer_0
  10
-106.10072
  20
10.021927
  0
VERTEX
  5
858
  8
Layer_0
  10
-106.26573
  20
9.7956848
  0
VERTEX
  5
859
  8
Layer_0
  10
-106.3827
  20
9.5412598
  0
VERTEX
  5
85a
  8
Layer_0
  10
-106.44735
  20
9.2659454
  0
VERTEX
  5
85b
  8
Layer_0
  10
-106.49696
  20
8.918045
  0
VERTEX
  5
85c
  8
Layer_0
  10
-106.49884
  20
8.5682068
  0
VERTEX
  5
85d
  8
Layer_0
  10
-106.45329
  20
8.2213287
  0
VERTEX
  5
85e
  8
Layer_0
  10
-106.3606
  20
7.8823547
  0
VERTEX
  5
85f
  8
Layer_0
  10
-106.22276
  20
7.6881256
  0
VERTEX
  5
860
  8
Layer_0
  10
-106.04332
  20
7.5371704
  0
VERTEX
  5
861
  8
Layer_0
  10
-105.83192
  20
7.4357452
  0
VERTEX
  5
862
  8
Layer_0
  10
-105.59819
  20
7.3900757
  0
VERTEX
  5
863
  8
Layer_0
  10
-105.38032
  20
7.342865
  0
VERTEX
  5
864
  8
Layer_0
  10
-105.15788
  20
7.3282166
  0
VERTEX
  5
865
  8
Layer_0
  10
-104.40589
  20
7.3318939
  0
VERTEX
  5
866
  8
Layer_0
  10
-104.40375
  20
6.8918915
  0
VERTEX
  5
867
  8
Layer_0
  10
-104.77945
  20
6.8770447
  0
VERTEX
  5
868
  8
Layer_0
  10
-105.15489
  20
6.8869324
  0
VERTEX
  5
869
  8
Layer_0
  10
-105.52887
  20
6.921463
  0
VERTEX
  5
86a
  8
Layer_0
  10
-105.90019
  20
6.9805908
  0
VERTEX
  5
86b
  8
Layer_0
  10
-106.12514
  20
7.0569458
  0
VERTEX
  5
86c
  8
Layer_0
  10
-106.33173
  20
7.1653137
  0
VERTEX
  5
86d
  8
Layer_0
  10
-106.51723
  20
7.3025208
  0
VERTEX
  5
86e
  8
Layer_0
  10
-106.67899
  20
7.4654541
  0
VERTEX
  5
86f
  8
Layer_0
  10
-106.8143
  20
7.6509247
  0
VERTEX
  5
870
  8
Layer_0
  10
-106.92048
  20
7.8557739
  0
VERTEX
  5
871
  8
Layer_0
  10
-106.99483
  20
8.076889
  0
VERTEX
  5
872
  8
Layer_0
  10
-107.03469
  20
8.3110809
  0
VERTEX
  5
873
  8
Layer_0
  10
-107.03655
  20
8.6831207
  0
VERTEX
  5
874
  8
Layer_0
  10
-107.03033
  20
9.0550995
  0
VERTEX
  5
875
  8
Layer_0
  10
-106.96983
  20
9.3999786
  0
VERTEX
  5
876
  8
Layer_0
  10
-106.86565
  20
9.7327881
  0
VERTEX
  5
877
  8
Layer_0
  10
-106.71938
  20
10.049362
  0
VERTEX
  5
878
  8
Layer_0
  10
-106.53262
  20
10.345551
  0
VERTEX
  5
879
  8
Layer_0
  10
-106.25529
  20
10.580444
  0
VERTEX
  5
87a
  8
Layer_0
  10
-105.94363
  20
10.762177
  0
VERTEX
  5
87b
  8
Layer_0
  10
-105.6052
  20
10.887177
  0
VERTEX
  5
87c
  8
Layer_0
  10
-105.24757
  20
10.951828
  0
VERTEX
  5
87d
  8
Layer_0
  10
-104.83356
  20
11.009674
  0
VERTEX
  5
87e
  8
Layer_0
  10
-104.41593
  20
11.027878
  0
VERTEX
  5
87f
  8
Layer_0
  10
-104.42166
  20
10.563858
  0
SEQEND
  0
POLYLINE
  5
881
  8
Layer_0
  62
0
  70
1
  66
1
  10
0
  20
0
  30
0
  0
VERTEX
  5
881
  8
Layer_0
  10
-124.19207
  20
10.955582
  0
VERTEX
  5
882
  8
Layer_0
  10
-124.18977
  20
10.483597
  0
VERTEX
  5
883
  8
Layer_0
  10
-124.60663
  20
10.477661
  0
VERTEX
  5
884
  8
Layer_0
  10
-125.0136
  20
10.402191
  0
VERTEX
  5
885
  8
Layer_0
  10
-125.40213
  20
10.259491
  0
VERTEX
  5
886
  8
Layer_0
  10
-125.76368
  20
10.05191
  0
VERTEX
  5
887
  8
Layer_0
  10
-125.92929
  20
9.8687286
  0
VERTEX
  5
888
  8
Layer_0
  10
-126.06013
  20
9.661377
  0
VERTEX
  5
889
  8
Layer_0
  10
-126.1537
  20
9.4347534
  0
VERTEX
  5
88a
  8
Layer_0
  10
-126.2075
  20
9.1937256
  0
VERTEX
  5
88b
  8
Layer_0
  10
-126.24712
  20
8.8692932
  0
VERTEX
  5
88c
  8
Layer_0
  10
-126.25253
  20
8.543396
  0
VERTEX
  5
88d
  8
Layer_0
  10
-126.22385
  20
8.2187195
  0
VERTEX
  5
88e
  8
Layer_0
  10
-126.16117
  20
7.8979492
  0
VERTEX
  5
88f
  8
Layer_0
  10
-126.03482
  20
7.6873627
  0
VERTEX
  5
890
  8
Layer_0
  10
-125.86386
  20
7.5159302
  0
VERTEX
  5
891
  8
Layer_0
  10
-125.65685
  20
7.3904114
  0
VERTEX
  5
892
  8
Layer_0
  10
-125.42233
  20
7.3175507
  0
VERTEX
  5
893
  8
Layer_0
  10
-125.11418
  20
7.272522
  0
VERTEX
  5
894
  8
Layer_0
  10
-124.80408
  20
7.2478027
  0
VERTEX
  5
895
  8
Layer_0
  10
-124.49303
  20
7.2434845
  0
VERTEX
  5
896
  8
Layer_0
  10
-124.18203
  20
7.2595978
  0
VERTEX
  5
897
  8
Layer_0
  10
-124.18789
  20
6.8195648
  0
VERTEX
  5
898
  8
Layer_0
  10
-124.59338
  20
6.8001251
  0
VERTEX
  5
899
  8
Layer_0
  10
-124.99825
  20
6.8164825
  0
VERTEX
  5
89a
  8
Layer_0
  10
-125.4001
  20
6.8684082
  0
VERTEX
  5
89b
  8
Layer_0
  10
-125.79657
  20
6.955719
  0
VERTEX
  5
89c
  8
Layer_0
  10
-126.02773
  20
7.0609589
  0
VERTEX
  5
89d
  8
Layer_0
  10
-126.23398
  20
7.200119
  0
VERTEX
  5
89e
  8
Layer_0
  10
-126.41258
  20
7.3689575
  0
VERTEX
  5
89f
  8
Layer_0
  10
-126.56084
  20
7.5632935
  0
VERTEX
  5
8a0
  8
Layer_0
  10
-126.67606
  20
7.7788696
  0
VERTEX
  5
8a1
  8
Layer_0
  10
-126.75549
  20
8.0114594
  0
VERTEX
  5
8a2
  8
Layer_0
  10
-126.79643
  20
8.2568665
  0
VERTEX
  5
8a3
  8
Layer_0
  10
-126.79617
  20
8.5108643
  0
VERTEX
  5
8a4
  8
Layer_0
  10
-126.78886
  20
8.8912659
  0
VERTEX
  5
8a5
  8
Layer_0
  10
-126.73503
  20
9.2664795
  0
VERTEX
  5
8a6
  8
Layer_0
  10
-126.63557
  20
9.6322632
  0
VERTEX
  5
8a7
  8
Layer_0
  10
-126.49136
  20
9.9843597
  0
VERTEX
  5
8a8
  8
Layer_0
  10
-126.36162
  20
10.170334
  0
VERTEX
  5
8a9
  8
Layer_0
  10
-126.21216
  20
10.337631
  0
VERTEX
  5
8aa
  8
Layer_0
  10
-126.04503
  20
10.484985
  0
VERTEX
  5
8ab
  8
Layer_0
  10
-125.86226
  20
10.611191
  0
VERTEX
  5
8ac
  8
Layer_0
  10
-125.66589
  20
10.714996
  0
VERTEX
  5
8ad
  8
Layer_0
  10
-125.45799
  20
10.795135
  0
VERTEX
  5
8ae
  8
Layer_0
  10
-125.24059
  20
10.850418
  0
VERTEX
  5
8af
  8
Layer_0
  10
-125.01571
  20
10.879578
  0
VERTEX
  5
8b0
  8
Layer_0
  10
-124.60577
  20
10.937958
  0
VERTEX
  5
8b1
  8
Layer_0
  10
-124.19207
  20
10.955582
  0
SEQEND
  0
POLYLINE
  5
8b3
  8
Layer_0
  62
0
  70
1
  66
1
  10
0
  20
0
  30
0
  0
VERTEX
  5
8b3
  8
Layer_0
  10
-136.51309
  20
13.647797
  0
VERTEX
  5
8b4
  8
Layer_0
  10
-136.41125
  20
13.602051
  0
VERTEX
  5
8b5
  8
Layer_0
  10
-136.34442
  20
13.512619
  0
VERTEX
  5
8b6
  8
Layer_0
  10
-136.33923
  20
12.448639
  0
VERTEX
  5
8b7
  8
Layer_0
  10
-136.34705
  20
12.4086
  0
VERTEX
  5
8b8
  8
Layer_0
  10
-136.38553
  20
12.3573
  0
VERTEX
  5
8b9
  8
Layer_0
  10
-136.44264
  20
12.328125
  0
VERTEX
  5
8ba
  8
Layer_0
  10
-136.6904
  20
12.310913
  0
VERTEX
  5
8bb
  8
Layer_0
  10
-136.93861
  20
12.317703
  0
VERTEX
  5
8bc
  8
Layer_0
  10
-137.01047
  20
12.367676
  0
VERTEX
  5
8bd
  8
Layer_0
  10
-137.05124
  20
12.44516
  0
VERTEX
  5
8be
  8
Layer_0
  10
-137.05615
  20
13.453156
  0
VERTEX
  5
8bf
  8
Layer_0
  10
-137.02608
  20
13.547302
  0
VERTEX
  5
8c0
  8
Layer_0
  10
-136.96097
  20
13.621613
  0
VERTEX
  5
8c1
  8
Layer_0
  10
-136.73788
  20
13.6492
  0
VERTEX
  5
8c2
  8
Layer_0
  10
-136.51309
  20
13.647797
  0
SEQEND
  0
POLYLINE
  5
8c4
  8
Layer_0
  62
0
  70
1
  66
1
  10
0
  20
0
  30
0
  0
VERTEX
  5
8c4
  8
Layer_0
  10
-154.064
  20
-160.78
  0
VERTEX
  5
8c5
  8
Layer_0
  10
-163.56
  20
-160.78
  0
VERTEX
  5
8c6
  8
Layer_0
  10
-163.56
  20
-164.492
  0
VERTEX
  5
8c7
  8
Layer_0
  10
-165.808
  20
-164.492
  0
VERTEX
  5
8c8
  8
Layer_0
  10
-165.70401
  20
-160.772
  0
VERTEX
  5
8c9
  8
Layer_0
  10
-151.392
  20
-136.84399
  0
VERTEX
  5
8ca
  8
Layer_0
  10
-165.632
  20
-113.5
  0
VERTEX
  5
8cb
  8
Layer_0
  10
-151.56801
  20
-113.5
  0
VERTEX
  5
8cc
  8
Layer_0
  10
-144
  20
-125.78799
  0
VERTEX
  5
8cd
  8
Layer_0
  10
-136.424
  20
-113.5
  0
VERTEX
  5
8ce
  8
Layer_0
  10
-122.368
  20
-113.5
  0
VERTEX
  5
8cf
  8
Layer_0
  10
-136.608
  20
-136.84399
  0
VERTEX
  5
8d0
  8
Layer_0
  10
-122.288
  20
-160.772
  0
VERTEX
  5
8d1
  8
Layer_0
  10
-122.192
  20
-164.5
  0
VERTEX
  5
8d2
  8
Layer_0
  10
-124.424
  20
-164.5
  0
VERTEX
  5
8d3
  8
Layer_0
  10
-124.424
  20
-160.78799
  0
VERTEX
  5
8d4
  8
Layer_0
  10
-133.92
  20
-160.78799
  0
VERTEX
  5
8d5
  8
Layer_0
  10
-133.92
  20
-164.5
  0
VERTEX
  5
8d6
  8
Layer_0
  10
-136.15201
  20
-164.5
  0
VERTEX
  5
8d7
  8
Layer_0
  10
-136.064
  20
-160.772
  0
VERTEX
  5
8d8
  8
Layer_0
  10
-144
  20
-147.86801
  0
VERTEX
  5
8d9
  8
Layer_0
  10
-151.944
  20
-160.772
  0
VERTEX
  5
8da
  8
Layer_0
  10
-151.92801
  20
-160.772
  0
VERTEX
  5
8db
  8
Layer_0
  10
-151.81601
  20
-164.492
  0
VERTEX
  5
8dc
  8
Layer_0
  10
-154.064
  20
-164.492
  0
VERTEX
  5
8dd
  8
Layer_0
  10
-154.064
  20
-160.78
  0
SEQEND
  0
POLYLINE
  5
8df
  8
Layer_0
  62
0
  70
1
  66
1
  10
0
  20
0
  30
0
  0
VERTEX
  5
8df
  8
Layer_0
  10
-110.448
  20
-160.78
  0
VERTEX
  5
8e0
  8
Layer_0
  10
-119.944
  20
-160.78
  0
VERTEX
  5
8e1
  8
Layer_0
  10
-119.944
  20
-164.492
  0
VERTEX
  5
8e2
  8
Layer_0
  10
-122.192
  20
-164.492
  0
VERTEX
  5
8e3
  8
Layer_0
  10
-122.088
  20
-160.772
  0
VERTEX
  5
8e4
  8
Layer_0
  10
-107.776
  20
-136.84399
  0
VERTEX
  5
8e5
  8
Layer_0
  10
-122.016
  20
-113.5
  0
VERTEX
  5
8e6
  8
Layer_0
  10
-107.952
  20
-113.5
  0
VERTEX
  5
8e7
  8
Layer_0
  10
-100.384
  20
-125.78799
  0
VERTEX
  5
8e8
  8
Layer_0
  10
-92.807999
  20
-113.5
  0
VERTEX
  5
8e9
  8
Layer_0
  10
-78.751999
  20
-113.5
  0
VERTEX
  5
8ea
  8
Layer_0
  10
-92.991997
  20
-136.84399
  0
VERTEX
  5
8eb
  8
Layer_0
  10
-78.671997
  20
-160.772
  0
VERTEX
  5
8ec
  8
Layer_0
  10
-78.575996
  20
-164.5
  0
VERTEX
  5
8ed
  8
Layer_0
  10
-80.807999
  20
-164.5
  0
VERTEX
  5
8ee
  8
Layer_0
  10
-80.807999
  20
-160.78799
  0
VERTEX
  5
8ef
  8
Layer_0
  10
-90.303993
  20
-160.78799
  0
VERTEX
  5
8f0
  8
Layer_0
  10
-90.303993
  20
-164.5
  0
VERTEX
  5
8f1
  8
Layer_0
  10
-92.535995
  20
-164.5
  0
VERTEX
  5
8f2
  8
Layer_0
  10
-92.447998
  20
-160.772
  0
VERTEX
  5
8f3
  8
Layer_0
  10
-100.384
  20
-147.86801
  0
VERTEX
  5
8f4
  8
Layer_0
  10
-108.328
  20
-160.772
  0
VERTEX
  5
8f5
  8
Layer_0
  10
-108.312
  20
-160.772
  0
VERTEX
  5
8f6
  8
Layer_0
  10
-108.2
  20
-164.492
  0
VERTEX
  5
8f7
  8
Layer_0
  10
-110.448
  20
-164.492
  0
VERTEX
  5
8f8
  8
Layer_0
  10
-110.448
  20
-160.78
  0
SEQEND
  0
POLYLINE
  5
8fa
  8
Layer_0
  62
0
  70
1
  66
1
  10
0
  20
0
  30
0
  0
VERTEX
  5
8fa
  8
Layer_0
  10
-66.832001
  20
-160.78
  0
VERTEX
  5
8fb
  8
Layer_0
  10
-76.328003
  20
-160.78
  0
VERTEX
  5
8fc
  8
Layer_0
  10
-76.328003
  20
-164.492
  0
VERTEX
  5
8fd
  8
Layer_0
  10
-78.576004
  20
-164.492
  0
VERTEX
  5
8fe
  8
Layer_0
  10
-78.472
  20
-160.772
  0
VERTEX
  5
8ff
  8
Layer_0
  10
-64.160004
  20
-136.84399
  0
VERTEX
  5
900
  8
Layer_0
  10
-78.400002
  20
-113.5
  0
VERTEX
  5
901
  8
Layer_0
  10
-64.335999
  20
-113.5
  0
VERTEX
  5
902
  8
Layer_0
  10
-56.767998
  20
-125.78799
  0
VERTEX
  5
903
  8
Layer_0
  10
-49.192001
  20
-113.5
  0
VERTEX
  5
904
  8
Layer_0
  10
-35.136002
  20
-113.5
  0
VERTEX
  5
905
  8
Layer_0
  10
-49.375999
  20
-136.84399
  0
VERTEX
  5
906
  8
Layer_0
  10
-35.056
  20
-160.772
  0
VERTEX
  5
907
  8
Layer_0
  10
-34.959999
  20
-164.5
  0
VERTEX
  5
908
  8
Layer_0
  10
-37.192001
  20
-164.5
  0
VERTEX
  5
909
  8
Layer_0
  10
-37.192001
  20
-160.78799
  0
VERTEX
  5
90a
  8
Layer_0
  10
-46.688
  20
-160.78799
  0
VERTEX
  5
90b
  8
Layer_0
  10
-46.688
  20
-164.5
  0
VERTEX
  5
90c
  8
Layer_0
  10
-48.919998
  20
-164.5
  0
VERTEX
  5
90d
  8
Layer_0
  10
-48.832001
  20
-160.772
  0
VERTEX
  5
90e
  8
Layer_0
  10
-56.767998
  20
-147.86801
  0
VERTEX
  5
90f
  8
Layer_0
  10
-64.711998
  20
-160.772
  0
VERTEX
  5
910
  8
Layer_0
  10
-64.695999
  20
-160.772
  0
VERTEX
  5
911
  8
Layer_0
  10
-64.584
  20
-164.492
  0
VERTEX
  5
912
  8
Layer_0
  10
-66.832001
  20
-164.492
  0
VERTEX
  5
913
  8
Layer_0
  10
-66.832001
  20
-160.78
  0
SEQEND
  0
POLYLINE
  5
915
  8
Layer_0
  62
0
  70
1
  66
1
  10
0
  20
0
  30
0
  0
VERTEX
  5
915
  8
Layer_0
  10
-23.216009
  20
-160.78
  0
VERTEX
  5
916
  8
Layer_0
  10
-32.712009
  20
-160.78
  0
VERTEX
  5
917
  8
Layer_0
  10
-32.712009
  20
-164.492
  0
VERTEX
  5
918
  8
Layer_0
  10
-34.960011
  20
-164.492
  0
VERTEX
  5
919
  8
Layer_0
  10
-34.85601
  20
-160.772
  0
VERTEX
  5
91a
  8
Layer_0
  10
-20.54401
  20
-136.84399
  0
VERTEX
  5
91b
  8
Layer_0
  10
-34.784012
  20
-113.5
  0
VERTEX
  5
91c
  8
Layer_0
  10
-20.720009
  20
-113.5
  0
VERTEX
  5
91d
  8
Layer_0
  10
-13.15201
  20
-125.78799
  0
VERTEX
  5
91e
  8
Layer_0
  10
-5.5760098
  20
-113.5
  0
VERTEX
  5
91f
  8
Layer_0
  10
8.47999
  20
-113.5
  0
VERTEX
  5
920
  8
Layer_0
  10
-5.7600098
  20
-136.84399
  0
VERTEX
  5
921
  8
Layer_0
  10
8.5599899
  20
-160.772
  0
VERTEX
  5
922
  8
Layer_0
  10
8.6559896
  20
-164.5
  0
VERTEX
  5
923
  8
Layer_0
  10
6.4239902
  20
-164.5
  0
VERTEX
  5
924
  8
Layer_0
  10
6.4239902
  20
-160.78799
  0
VERTEX
  5
925
  8
Layer_0
  10
-3.0720098
  20
-160.78799
  0
VERTEX
  5
926
  8
Layer_0
  10
-3.0720098
  20
-164.5
  0
VERTEX
  5
927
  8
Layer_0
  10
-5.3040099
  20
-164.5
  0
VERTEX
  5
928
  8
Layer_0
  10
-5.2160101
  20
-160.772
  0
VERTEX
  5
929
  8
Layer_0
  10
-13.15201
  20
-147.86801
  0
VERTEX
  5
92a
  8
Layer_0
  10
-21.09601
  20
-160.772
  0
VERTEX
  5
92b
  8
Layer_0
  10
-21.080009
  20
-160.772
  0
VERTEX
  5
92c
  8
Layer_0
  10
-20.96801
  20
-164.492
  0
VERTEX
  5
92d
  8
Layer_0
  10
-23.216009
  20
-164.492
  0
VERTEX
  5
92e
  8
Layer_0
  10
-23.216009
  20
-160.78
  0
SEQEND
  0
POLYLINE
  5
930
  8
Layer_0
  62
0
  70
1
  66
1
  10
0
  20
0
  30
0
  0
VERTEX
  5
930
  8
Layer_0
  10
-154.064
  20
-211.78
  0
VERTEX
  5
931
  8
Layer_0
  10
-163.56
  20
-211.78
  0
VERTEX
  5
932
  8
Layer_0
  10
-163.56
  20
-215.492
  0
VERTEX
  5
933
  8
Layer_0
  10
-165.808
  20
-215.492
  0
VERTEX
  5
934
  8
Layer_0
  10
-165.70401
  20
-211.772
  0
VERTEX
  5
935
  8
Layer_0
  10
-151.392
  20
-187.84399
  0
VERTEX
  5
936
  8
Layer_0
  10
-165.632
  20
-164.5
  0
VERTEX
  5
937
  8
Layer_0
  10
-151.56801
  20
-164.5
  0
VERTEX
  5
938
  8
Layer_0
  10
-144
  20
-176.78799
  0
VERTEX
  5
939
  8
Layer_0
  10
-136.424
  20
-164.5
  0
VERTEX
  5
93a
  8
Layer_0
  10
-122.368
  20
-164.5
  0
VERTEX
  5
93b
  8
Layer_0
  10
-136.608
  20
-187.84399
  0
VERTEX
  5
93c
  8
Layer_0
  10
-122.288
  20
-211.772
  0
VERTEX
  5
93d
  8
Layer_0
  10
-122.192
  20
-215.5
  0
VERTEX
  5
93e
  8
Layer_0
  10
-124.424
  20
-215.5
  0
VERTEX
  5
93f
  8
Layer_0
  10
-124.424
  20
-211.78799
  0
VERTEX
  5
940
  8
Layer_0
  10
-133.92
  20
-211.78799
  0
VERTEX
  5
941
  8
Layer_0
  10
-133.92
  20
-215.5
  0
VERTEX
  5
942
  8
Layer_0
  10
-136.15201
  20
-215.5
  0
VERTEX
  5
943
  8
Layer_0
  10
-136.064
  20
-211.772
  0
VERTEX
  5
944
  8
Layer_0
  10
-144
  20
-198.86801
  0
VERTEX
  5
945
  8
Layer_0
  10
-151.944
  20
-211.772
  0
VERTEX
  5
946
  8
Layer_0
  10
-151.92801
  20
-211.772
  0
VERTEX
  5
947
  8
Layer_0
  10
-151.81601
  20
-215.492
  0
VERTEX
  5
948
  8
Layer_0
  10
-154.064
  20
-215.492
  0
VERTEX
  5
949
  8
Layer_0
  10
-154.064
  20
-211.78
  0
SEQEND
  0
POLYLINE
  5
94b
  8
Layer_0
  62
0
  70
1
  66
1
  10
0
  20
0
  30
0
  0
VERTEX
  5
94b
  8
Layer_0
  10
-110.448
  20
-211.78
  0
VERTEX
  5
94c
  8
Layer_0
  10
-119.944
  20
-211.78
  0
VERTEX
  5
94d
  8
Layer_0
  10
-119.944
  20
-215.492
  0
VERTEX
  5
94e
  8
Layer_0
  10
-122.192
  20
-215.492
  0
VERTEX
  5
94f
  8
Layer_0
  10
-122.088
  20
-211.772
  0
VERTEX
  5
950
  8
Layer_0
  10
-107.776
  20
-187.84399
  0
VERTEX
  5
951
  8
Layer_0
  10
-122.016
  20
-164.5
  0
VERTEX
  5
952
  8
Layer_0
  10
-107.952
  20
-164.5
  0
VERTEX
  5
953
  8
Layer_0
  10
-100.384
  20
-176.78799
  0
VERTEX
  5
954
  8
Layer_0
  10
-92.807999
  20
-164.5
  0
VERTEX
  5
955
  8
Layer_0
  10
-78.751999
  20
-164.5
  0
VERTEX
  5
956
  8
Layer_0
  10
-92.991997
  20
-187.84399
  0
VERTEX
  5
957
  8
Layer_0
  10
-78.671997
  20
-211.772
  0
VERTEX
  5
958
  8
Layer_0
  10
-78.575996
  20
-215.5
  0
VERTEX
  5
959
  8
Layer_0
  10
-80.807999
  20
-215.5
  0
VERTEX
  5
95a
  8
Layer_0
  10
-80.807999
  20
-211.78799
  0
VERTEX
  5
95b
  8
Layer_0
  10
-90.303993
  20
-211.78799
  0
VERTEX
  5
95c
  8
Layer_0
  10
-90.303993
  20
-215.5
  0
VERTEX
  5
95d
  8
Layer_0
  10
-92.535995
  20
-215.5
  0
VERTEX
  5
95e
  8
Layer_0
  10
-92.447998
  20
-211.772
  0
VERTEX
  5
95f
  8
Layer_0
  10
-100.384
  20
-198.86801
  0
VERTEX
  5
960
  8
Layer_0
  10
-108.328
  20
-211.772
  0
VERTEX
  5
961
  8
Layer_0
  10
-108.312
  20
-211.772
  0
VERTEX
  5
962
  8
Layer_0
  10
-108.2
  20
-215.492
  0
VERTEX
  5
963
  8
Layer_0
  10
-110.448
  20
-215.492
  0
VERTEX
  5
964
  8
Layer_0
  10
-110.448
  20
-211.78
  0
SEQEND
  0
POLYLINE
  5
966
  8
Layer_0
  62
0
  70
1
  66
1
  10
0
  20
0
  30
0
  0
VERTEX
  5
966
  8
Layer_0
  10
-66.832001
  20
-211.78
  0
VERTEX
  5
967
  8
Layer_0
  10
-76.328003
  20
-211.78
  0
VERTEX
  5
968
  8
Layer_0
  10
-76.328003
  20
-215.492
  0
VERTEX
  5
969
  8
Layer_0
  10
-78.576004
  20
-215.492
  0
VERTEX
  5
96a
  8
Layer_0
  10
-78.472
  20
-211.772
  0
VERTEX
  5
96b
  8
Layer_0
  10
-64.160004
  20
-187.84399
  0
VERTEX
  5
96c
  8
Layer_0
  10
-78.400002
  20
-164.5
  0
VERTEX
  5
96d
  8
Layer_0
  10
-64.335999
  20
-164.5
  0
VERTEX
  5
96e
  8
Layer_0
  10
-56.767998
  20
-176.78799
  0
VERTEX
  5
96f
  8
Layer_0
  10
-49.192001
  20
-164.5
  0
VERTEX
  5
970
  8
Layer_0
  10
-35.136002
  20
-164.5
  0
VERTEX
  5
971
  8
Layer_0
  10
-49.375999
  20
-187.84399
  0
VERTEX
  5
972
  8
Layer_0
  10
-35.056
  20
-211.772
  0
VERTEX
  5
973
  8
Layer_0
  10
-34.959999
  20
-215.5
  0
VERTEX
  5
974
  8
Layer_0
  10
-37.192001
  20
-215.5
  0
VERTEX
  5
975
  8
Layer_0
  10
-37.192001
  20
-211.78799
  0
VERTEX
  5
976
  8
Layer_0
  10
-46.688
  20
-211.78799
  0
VERTEX
  5
977
  8
Layer_0
  10
-46.688
  20
-215.5
  0
VERTEX
  5
978
  8
Layer_0
  10
-48.919998
  20
-215.5
  0
VERTEX
  5
979
  8
Layer_0
  10
-48.832001
  20
-211.772
  0
VERTEX
  5
97a
  8
Layer_0
  10
-56.767998
  20
-198.86801
  0
VERTEX
  5
97b
  8
Layer_0
  10
-64.711998
  20
-211.772
  0
VERTEX
  5
97c
  8
Layer_0
  10
-64.695999
  20
-211.772
  0
VERTEX
  5
97d
  8
Layer_0
  10
-64.584
  20
-215.492
  0
VERTEX
  5
97e
  8
Layer_0
  10
-66.832001
  20
-215.492
  0
VERTEX
  5
97f
  8
Layer_0
  10
-66.832001
  20
-211.78
  0
SEQEND
  0
POLYLINE
  5
981
  8
Layer_0
  62
0
  70
1
  66
1
  10
0
  20
0
  30
0
  0
VERTEX
  5
981
  8
Layer_0
  10
-23.216009
  20
-211.78
  0
VERTEX
  5
982
  8
Layer_0
  10
-32.712009
  20
-211.78
  0
VERTEX
  5
983
  8
Layer_0
  10
-32.712009
  20
-215.492
  0
VERTEX
  5
984
  8
Layer_0
  10
-34.960011
  20
-215.492
  0
VERTEX
  5
985
  8
Layer_0
  10
-34.85601
  20
-211.772
  0
VERTEX
  5
986
  8
Layer_0
  10
-20.54401
  20
-187.84399
  0
VERTEX
  5
987
  8
Layer_0
  10
-34.784012
  20
-164.5
  0
VERTEX
  5
988
  8
Layer_0
  10
-20.720009
  20
-164.5
  0
VERTEX
  5
989
  8
Layer_0
  10
-13.15201
  20
-176.78799
  0
VERTEX
  5
98a
  8
Layer_0
  10
-5.5760098
  20
-164.5
  0
VERTEX
  5
98b
  8
Layer_0
  10
8.47999
  20
-164.5
  0
VERTEX
  5
98c
  8
Layer_0
  10
-5.7600098
  20
-187.84399
  0
VERTEX
  5
98d
  8
Layer_0
  10
8.5599899
  20
-211.772
  0
VERTEX
  5
98e
  8
Layer_0
  10
8.6559896
  20
-215.5
  0
VERTEX
  5
98f
  8
Layer_0
  10
6.4239902
  20
-215.5
  0
VERTEX
  5
990
  8
Layer_0
  10
6.4239902
  20
-211.78799
  0
VERTEX
  5
991
  8
Layer_0
  10
-3.0720098
  20
-211.78799
  0
VERTEX
  5
992
  8
Layer_0
  10
-3.0720098
  20
-215.5
  0
VERTEX
  5
993
  8
Layer_0
  10
-5.3040099
  20
-215.5
  0
VERTEX
  5
994
  8
Layer_0
  10
-5.2160101
  20
-211.772
  0
VERTEX
  5
995
  8
Layer_0
  10
-13.15201
  20
-198.86801
  0
VERTEX
  5
996
  8
Layer_0
  10
-21.09601
  20
-211.772
  0
VERTEX
  5
997
  8
Layer_0
  10
-21.080009
  20
-211.772
  0
VERTEX
  5
998
  8
Layer_0
  10
-20.96801
  20
-215.492
  0
VERTEX
  5
999
  8
Layer_0
  10
-23.216009
  20
-215.492
  0
VERTEX
  5
99a
  8
Layer_0
  10
-23.216009
  20
-211.78
  0
SEQEND
  0
ENDSEC
  0
EOF
