  0
SECTION
  2
HEADER
  9
$ACADVER
  1
AC1009
  0
ENDSEC
  0
SECTION
  2
ENTITIES
  0
POLYLINE
  5
90
  8
Layer_1
  62
12
  70
1
  66
1
  10
0
  20
0
  30
0
  0
VERTEX
  5
90
  8
Layer_1
  10
76.761368
  20
60.39537
  0
VERTEX
  5
91
  8
Layer_1
  10
76.777252
  20
57.3909
  0
VERTEX
  5
92
  8
Layer_1
  10
81.727722
  20
57.41597
  0
VERTEX
  5
93
  8
Layer_1
  10
81.59565
  20
60.420021
  0
VERTEX
  5
94
  8
Layer_1
  10
91.363937
  20
60.473091
  0
VERTEX
  5
95
  8
Layer_1
  10
91.324455
  20
58.970894
  0
VERTEX
  5
96
  8
Layer_1
  10
91.295807
  20
57.468262
  0
VERTEX
  5
97
  8
Layer_1
  10
96.223572
  20
57.498199
  0
VERTEX
  5
98
  8
Layer_1
  10
96.211586
  20
60.493599
  0
VERTEX
  5
99
  8
Layer_1
  10
96.309402
  20
60.499855
  0
VERTEX
  5
9a
  8
Layer_1
  10
96.32634
  20
57.493858
  0
VERTEX
  5
9b
  8
Layer_1
  10
101.27951
  20
57.51693
  0
VERTEX
  5
9c
  8
Layer_1
  10
101.14798
  20
60.520676
  0
VERTEX
  5
9d
  8
Layer_1
  10
107.76991
  20
60.830971
  0
VERTEX
  5
9e
  8
Layer_1
  10
107.33016
  20
100.51852
  0
VERTEX
  5
9f
  8
Layer_1
  10
100.72504
  20
100.62975
  0
VERTEX
  5
a0
  8
Layer_1
  10
100.80974
  20
103.63521
  0
VERTEX
  5
a1
  8
Layer_1
  10
95.856789
  20
103.58105
  0
VERTEX
  5
a2
  8
Layer_1
  10
95.886703
  20
100.57515
  0
VERTEX
  5
a3
  8
Layer_1
  10
95.788834
  20
100.57988
  0
VERTEX
  5
a4
  8
Layer_1
  10
95.754128
  20
103.5751
  0
VERTEX
  5
a5
  8
Layer_1
  10
90.826492
  20
103.52822
  0
VERTEX
  5
a6
  8
Layer_1
  10
90.941437
  20
100.52481
  0
VERTEX
  5
a7
  8
Layer_1
  10
81.173508
  20
100.42555
  0
VERTEX
  5
a8
  8
Layer_1
  10
81.258713
  20
103.43132
  0
VERTEX
  5
a9
  8
Layer_1
  10
76.308487
  20
103.37921
  0
VERTEX
  5
aa
  8
Layer_1
  10
76.339417
  20
100.37486
  0
VERTEX
  5
ab
  8
Layer_1
  10
76.239426
  20
100.37318
  0
VERTEX
  5
ac
  8
Layer_1
  10
76.209152
  20
103.377
  0
VERTEX
  5
ad
  8
Layer_1
  10
71.275948
  20
103.32576
  0
VERTEX
  5
ae
  8
Layer_1
  10
71.390388
  20
100.32205
  0
VERTEX
  5
af
  8
Layer_1
  10
64.769928
  20
100.14105
  0
VERTEX
  5
b0
  8
Layer_1
  10
65.209671
  20
60.453514
  0
VERTEX
  5
b1
  8
Layer_1
  10
71.812111
  20
60.371025
  0
VERTEX
  5
b2
  8
Layer_1
  10
71.744507
  20
57.365883
  0
VERTEX
  5
b3
  8
Layer_1
  10
76.677872
  20
57.391556
  0
VERTEX
  5
b4
  8
Layer_1
  10
76.661331
  20
60.395462
  0
VERTEX
  5
b5
  8
Layer_1
  10
76.761368
  20
60.39537
  0
SEQEND
  0
POLYLINE
  5
b7
  8
Layer_1
  62
12
  70
1
  66
1
  10
0
  20
0
  30
0
  0
VERTEX
  5
b7
  8
Layer_1
  10
156.76157
  20
62.39537
  0
VERTEX
  5
b8
  8
Layer_1
  10
156.77745
  20
59.3909
  0
VERTEX
  5
b9
  8
Layer_1
  10
161.72792
  20
59.41597
  0
VERTEX
  5
ba
  8
Layer_1
  10
161.59586
  20
62.420021
  0
VERTEX
  5
bb
  8
Layer_1
  10
171.36414
  20
62.473091
  0
VERTEX
  5
bc
  8
Layer_1
  10
171.32465
  20
60.970894
  0
VERTEX
  5
bd
  8
Layer_1
  10
171.29601
  20
59.468262
  0
VERTEX
  5
be
  8
Layer_1
  10
176.22377
  20
59.498199
  0
VERTEX
  5
bf
  8
Layer_1
  10
176.21179
  20
62.493599
  0
VERTEX
  5
c0
  8
Layer_1
  10
176.3096
  20
62.499855
  0
VERTEX
  5
c1
  8
Layer_1
  10
176.32654
  20
59.493858
  0
VERTEX
  5
c2
  8
Layer_1
  10
181.27971
  20
59.51693
  0
VERTEX
  5
c3
  8
Layer_1
  10
181.14818
  20
62.520676
  0
VERTEX
  5
c4
  8
Layer_1
  10
187.77011
  20
62.830971
  0
VERTEX
  5
c5
  8
Layer_1
  10
187.33035
  20
102.51852
  0
VERTEX
  5
c6
  8
Layer_1
  10
180.72523
  20
102.62975
  0
VERTEX
  5
c7
  8
Layer_1
  10
180.80994
  20
105.63521
  0
VERTEX
  5
c8
  8
Layer_1
  10
175.85699
  20
105.58105
  0
VERTEX
  5
c9
  8
Layer_1
  10
175.8869
  20
102.57515
  0
VERTEX
  5
ca
  8
Layer_1
  10
175.78903
  20
102.57988
  0
VERTEX
  5
cb
  8
Layer_1
  10
175.75433
  20
105.5751
  0
VERTEX
  5
cc
  8
Layer_1
  10
170.82669
  20
105.52822
  0
VERTEX
  5
cd
  8
Layer_1
  10
170.94164
  20
102.52481
  0
VERTEX
  5
ce
  8
Layer_1
  10
161.17371
  20
102.42555
  0
VERTEX
  5
cf
  8
Layer_1
  10
161.25891
  20
105.43132
  0
VERTEX
  5
d0
  8
Layer_1
  10
156.30869
  20
105.37921
  0
VERTEX
  5
d1
  8
Layer_1
  10
156.33961
  20
102.37486
  0
VERTEX
  5
d2
  8
Layer_1
  10
156.23962
  20
102.37318
  0
VERTEX
  5
d3
  8
Layer_1
  10
156.20935
  20
105.377
  0
VERTEX
  5
d4
  8
Layer_1
  10
151.27615
  20
105.32576
  0
VERTEX
  5
d5
  8
Layer_1
  10
151.39059
  20
102.32205
  0
VERTEX
  5
d6
  8
Layer_1
  10
144.77013
  20
102.14105
  0
VERTEX
  5
d7
  8
Layer_1
  10
145.20987
  20
62.453514
  0
VERTEX
  5
d8
  8
Layer_1
  10
151.81232
  20
62.371025
  0
VERTEX
  5
d9
  8
Layer_1
  10
151.74471
  20
59.365883
  0
VERTEX
  5
da
  8
Layer_1
  10
156.67807
  20
59.391556
  0
VERTEX
  5
db
  8
Layer_1
  10
156.66153
  20
62.395462
  0
VERTEX
  5
dc
  8
Layer_1
  10
156.76157
  20
62.39537
  0
SEQEND
  0
POLYLINE
  5
de
  8
Layer_1
  62
12
  70
1
  66
1
  10
0
  20
0
  30
0
  0
VERTEX
  5
de
  8
Layer_1
  10
134.77843
  20
100.87413
  0
VERTEX
  5
df
  8
Layer_1
  10
134.76254
  20
103.8786
  0
VERTEX
  5
e0
  8
Layer_1
  10
129.81207
  20
103.85353
  0
VERTEX
  5
e1
  8
Layer_1
  10
129.94414
  20
100.84948
  0
VERTEX
  5
e2
  8
Layer_1
  10
120.17586
  20
100.79641
  0
VERTEX
  5
e3
  8
Layer_1
  10
120.21534
  20
102.29861
  0
VERTEX
  5
e4
  8
Layer_1
  10
120.24399
  20
103.80124
  0
VERTEX
  5
e5
  8
Layer_1
  10
115.31622
  20
103.7713
  0
VERTEX
  5
e6
  8
Layer_1
  10
115.3282
  20
100.7759
  0
VERTEX
  5
e7
  8
Layer_1
  10
115.23039
  20
100.76965
  0
VERTEX
  5
e8
  8
Layer_1
  10
115.21346
  20
103.77564
  0
VERTEX
  5
e9
  8
Layer_1
  10
110.26028
  20
103.75257
  0
VERTEX
  5
ea
  8
Layer_1
  10
110.39182
  20
100.74883
  0
VERTEX
  5
eb
  8
Layer_1
  10
106.23018
  20
100.62833
  0
VERTEX
  5
ec
  8
Layer_1
  10
106.60738
  20
60.636749
  0
VERTEX
  5
ed
  8
Layer_1
  10
110.81475
  20
60.639755
  0
VERTEX
  5
ee
  8
Layer_1
  10
110.73006
  20
57.634293
  0
VERTEX
  5
ef
  8
Layer_1
  10
115.683
  20
57.688446
  0
VERTEX
  5
f0
  8
Layer_1
  10
115.65309
  20
60.694351
  0
VERTEX
  5
f1
  8
Layer_1
  10
115.75096
  20
60.689621
  0
VERTEX
  5
f2
  8
Layer_1
  10
115.78566
  20
57.694405
  0
VERTEX
  5
f3
  8
Layer_1
  10
120.7133
  20
57.74128
  0
VERTEX
  5
f4
  8
Layer_1
  10
120.59835
  20
60.74469
  0
VERTEX
  5
f5
  8
Layer_1
  10
130.36627
  20
60.843948
  0
VERTEX
  5
f6
  8
Layer_1
  10
130.28107
  20
57.838181
  0
VERTEX
  5
f7
  8
Layer_1
  10
135.23131
  20
57.890289
  0
VERTEX
  5
f8
  8
Layer_1
  10
135.20038
  20
60.894638
  0
VERTEX
  5
f9
  8
Layer_1
  10
135.30037
  20
60.896317
  0
VERTEX
  5
fa
  8
Layer_1
  10
135.33064
  20
57.892502
  0
VERTEX
  5
fb
  8
Layer_1
  10
140.26384
  20
57.943741
  0
VERTEX
  5
fc
  8
Layer_1
  10
140.1494
  20
60.947441
  0
VERTEX
  5
fd
  8
Layer_1
  10
144.30957
  20
60.93866
  0
VERTEX
  5
fe
  8
Layer_1
  10
143.92648
  20
100.97681
  0
VERTEX
  5
ff
  8
Layer_1
  10
139.72769
  20
100.89848
  0
VERTEX
  5
100
  8
Layer_1
  10
139.79529
  20
103.90362
  0
VERTEX
  5
101
  8
Layer_1
  10
134.86192
  20
103.87794
  0
VERTEX
  5
102
  8
Layer_1
  10
134.87846
  20
100.87403
  0
VERTEX
  5
103
  8
Layer_1
  10
134.77843
  20
100.87413
  0
SEQEND
  0
POLYLINE
  5
105
  8
Layer_3
  62
31
  70
1
  66
1
  10
0
  20
0
  30
0
  0
VERTEX
  5
105
  8
Layer_3
  10
166.51601
  20
124.0201
  0
VERTEX
  5
106
  8
Layer_3
  10
171.51601
  20
124.0201
  0
VERTEX
  5
107
  8
Layer_3
  10
171.51601
  20
127.0201
  0
VERTEX
  5
108
  8
Layer_3
  10
166.51601
  20
127.0201
  0
VERTEX
  5
109
  8
Layer_3
  10
166.51601
  20
124.0201
  0
SEQEND
  0
POLYLINE
  5
10b
  8
Layer_3
  62
31
  70
1
  66
1
  10
0
  20
0
  30
0
  0
VERTEX
  5
10b
  8
Layer_3
  10
156.564
  20
124.0201
  0
VERTEX
  5
10c
  8
Layer_3
  10
151.564
  20
124.0201
  0
VERTEX
  5
10d
  8
Layer_3
  10
151.564
  20
127.0201
  0
VERTEX
  5
10e
  8
Layer_3
  10
156.564
  20
127.0201
  0
VERTEX
  5
10f
  8
Layer_3
  10
156.564
  20
124.0201
  0
SEQEND
  0
POLYLINE
  5
111
  8
Layer_3
  62
31
  70
1
  66
1
  10
0
  20
0
  30
0
  0
VERTEX
  5
111
  8
Layer_3
  10
147.53999
  20
134.5201
  0
VERTEX
  5
112
  8
Layer_3
  10
144.53999
  20
134.5201
  0
VERTEX
  5
113
  8
Layer_3
  10
144.53999
  20
129.5201
  0
VERTEX
  5
114
  8
Layer_3
  10
147.53999
  20
129.5201
  0
VERTEX
  5
115
  8
Layer_3
  10
147.53999
  20
134.5201
  0
SEQEND
  0
POLYLINE
  5
117
  8
Layer_3
  62
31
  70
1
  66
1
  10
0
  20
0
  30
0
  0
VERTEX
  5
117
  8
Layer_3
  10
166.51601
  20
140.0201
  0
VERTEX
  5
118
  8
Layer_3
  10
171.51601
  20
140.0201
  0
VERTEX
  5
119
  8
Layer_3
  10
171.51601
  20
137.0201
  0
VERTEX
  5
11a
  8
Layer_3
  10
166.51601
  20
137.0201
  0
VERTEX
  5
11b
  8
Layer_3
  10
166.51601
  20
140.0201
  0
SEQEND
  0
POLYLINE
  5
11d
  8
Layer_3
  62
31
  70
1
  66
1
  10
0
  20
0
  30
0
  0
VERTEX
  5
11d
  8
Layer_3
  10
156.564
  20
140.0201
  0
VERTEX
  5
11e
  8
Layer_3
  10
151.564
  20
140.0201
  0
VERTEX
  5
11f
  8
Layer_3
  10
151.564
  20
137.0201
  0
VERTEX
  5
120
  8
Layer_3
  10
156.564
  20
137.0201
  0
VERTEX
  5
121
  8
Layer_3
  10
156.564
  20
140.0201
  0
SEQEND
  0
POLYLINE
  5
123
  8
Layer_3
  62
31
  70
1
  66
1
  10
0
  20
0
  30
0
  0
VERTEX
  5
123
  8
Layer_3
  10
178.53999
  20
134.5201
  0
VERTEX
  5
124
  8
Layer_3
  10
175.53999
  20
134.5201
  0
VERTEX
  5
125
  8
Layer_3
  10
175.53999
  20
129.5201
  0
VERTEX
  5
126
  8
Layer_3
  10
178.53999
  20
129.5201
  0
VERTEX
  5
127
  8
Layer_3
  10
178.53999
  20
134.5201
  0
SEQEND
  0
POLYLINE
  5
129
  8
Layer_3
  62
31
  70
1
  66
1
  10
0
  20
0
  30
0
  0
VERTEX
  5
129
  8
Layer_3
  10
147.53999
  20
127.0201
  0
VERTEX
  5
12a
  8
Layer_3
  10
175.53999
  20
127.0201
  0
VERTEX
  5
12b
  8
Layer_3
  10
175.53999
  20
137.0201
  0
VERTEX
  5
12c
  8
Layer_3
  10
147.53999
  20
137.0201
  0
VERTEX
  5
12d
  8
Layer_3
  10
147.53999
  20
127.0201
  0
SEQEND
  0
POLYLINE
  5
12f
  8
Layer_0
  62
0
  70
1
  66
1
  10
0
  20
0
  30
0
  0
VERTEX
  5
12f
  8
Layer_0
  10
149.54102
  20
134.52499
  0
VERTEX
  5
130
  8
Layer_0
  10
152.54102
  20
134.52499
  0
VERTEX
  5
131
  8
Layer_0
  10
152.54102
  20
129.52499
  0
VERTEX
  5
132
  8
Layer_0
  10
149.54102
  20
129.52499
  0
VERTEX
  5
133
  8
Layer_0
  10
149.54102
  20
127.021
  0
VERTEX
  5
134
  8
Layer_0
  10
147.03702
  20
127.021
  0
VERTEX
  5
135
  8
Layer_0
  10
147.03702
  20
124.021
  0
VERTEX
  5
136
  8
Layer_0
  10
142.03702
  20
124.021
  0
VERTEX
  5
137
  8
Layer_0
  10
142.03702
  20
127.021
  0
VERTEX
  5
138
  8
Layer_0
  10
139.54102
  20
127.021
  0
VERTEX
  5
139
  8
Layer_0
  10
139.54102
  20
137.021
  0
VERTEX
  5
13a
  8
Layer_0
  10
142.03702
  20
137.021
  0
VERTEX
  5
13b
  8
Layer_0
  10
142.03702
  20
140.021
  0
VERTEX
  5
13c
  8
Layer_0
  10
147.03702
  20
140.021
  0
VERTEX
  5
13d
  8
Layer_0
  10
147.03702
  20
137.021
  0
VERTEX
  5
13e
  8
Layer_0
  10
149.54102
  20
137.021
  0
VERTEX
  5
13f
  8
Layer_0
  10
149.54102
  20
134.52499
  0
SEQEND
  0
POLYLINE
  5
141
  8
Layer_0
  62
0
  70
1
  66
1
  10
0
  20
0
  30
0
  0
VERTEX
  5
141
  8
Layer_0
  10
147.53992
  20
117.51999
  0
VERTEX
  5
142
  8
Layer_0
  10
144.53992
  20
117.51999
  0
VERTEX
  5
143
  8
Layer_0
  10
144.53992
  20
112.51999
  0
VERTEX
  5
144
  8
Layer_0
  10
147.53992
  20
112.51999
  0
VERTEX
  5
145
  8
Layer_0
  10
147.53992
  20
117.51999
  0
SEQEND
  0
POLYLINE
  5
147
  8
Layer_0
  62
0
  70
1
  66
1
  10
0
  20
0
  30
0
  0
VERTEX
  5
147
  8
Layer_0
  10
178.54102
  20
117.521
  0
VERTEX
  5
148
  8
Layer_0
  10
175.54102
  20
117.521
  0
VERTEX
  5
149
  8
Layer_0
  10
175.54102
  20
112.521
  0
VERTEX
  5
14a
  8
Layer_0
  10
178.54102
  20
112.521
  0
VERTEX
  5
14b
  8
Layer_0
  10
178.54102
  20
117.521
  0
SEQEND
  0
POLYLINE
  5
14d
  8
Layer_0
  62
0
  70
1
  66
1
  10
0
  20
0
  30
0
  0
VERTEX
  5
14d
  8
Layer_0
  10
181.54102
  20
110.021
  0
VERTEX
  5
14e
  8
Layer_0
  10
147.54102
  20
110.021
  0
VERTEX
  5
14f
  8
Layer_0
  10
147.54102
  20
110.005
  0
VERTEX
  5
150
  8
Layer_0
  10
141.54102
  20
110.005
  0
VERTEX
  5
151
  8
Layer_0
  10
141.54102
  20
120.005
  0
VERTEX
  5
152
  8
Layer_0
  10
147.54102
  20
120.005
  0
VERTEX
  5
153
  8
Layer_0
  10
147.54102
  20
120.021
  0
VERTEX
  5
154
  8
Layer_0
  10
151.56503
  20
120.021
  0
VERTEX
  5
155
  8
Layer_0
  10
151.56503
  20
123.021
  0
VERTEX
  5
156
  8
Layer_0
  10
156.56503
  20
123.021
  0
VERTEX
  5
157
  8
Layer_0
  10
156.56503
  20
120.021
  0
VERTEX
  5
158
  8
Layer_0
  10
166.51703
  20
120.021
  0
VERTEX
  5
159
  8
Layer_0
  10
166.51703
  20
123.021
  0
VERTEX
  5
15a
  8
Layer_0
  10
171.51703
  20
123.021
  0
VERTEX
  5
15b
  8
Layer_0
  10
171.51703
  20
120.021
  0
VERTEX
  5
15c
  8
Layer_0
  10
181.54102
  20
120.021
  0
VERTEX
  5
15d
  8
Layer_0
  10
181.54102
  20
110.021
  0
SEQEND
  0
POLYLINE
  5
15f
  8
Layer_0
  62
0
  70
1
  66
1
  10
0
  20
0
  30
0
  0
VERTEX
  5
15f
  8
Layer_0
  10
175.54095
  20
146.51398
  0
VERTEX
  5
160
  8
Layer_0
  10
178.54095
  20
146.51398
  0
VERTEX
  5
161
  8
Layer_0
  10
178.54095
  20
151.51398
  0
VERTEX
  5
162
  8
Layer_0
  10
175.54095
  20
151.51398
  0
VERTEX
  5
163
  8
Layer_0
  10
175.54095
  20
146.51398
  0
SEQEND
  0
POLYLINE
  5
165
  8
Layer_0
  62
0
  70
1
  66
1
  10
0
  20
0
  30
0
  0
VERTEX
  5
165
  8
Layer_0
  10
144.53986
  20
146.513
  0
VERTEX
  5
166
  8
Layer_0
  10
147.53986
  20
146.513
  0
VERTEX
  5
167
  8
Layer_0
  10
147.53986
  20
151.513
  0
VERTEX
  5
168
  8
Layer_0
  10
144.53986
  20
151.513
  0
VERTEX
  5
169
  8
Layer_0
  10
144.53986
  20
146.513
  0
SEQEND
  0
POLYLINE
  5
16b
  8
Layer_0
  62
0
  70
1
  66
1
  10
0
  20
0
  30
0
  0
VERTEX
  5
16b
  8
Layer_0
  10
141.53986
  20
154.013
  0
VERTEX
  5
16c
  8
Layer_0
  10
175.53986
  20
154.01297
  0
VERTEX
  5
16d
  8
Layer_0
  10
175.53986
  20
154.02896
  0
VERTEX
  5
16e
  8
Layer_0
  10
181.53986
  20
154.02896
  0
VERTEX
  5
16f
  8
Layer_0
  10
181.53986
  20
144.02896
  0
VERTEX
  5
170
  8
Layer_0
  10
175.53986
  20
144.02896
  0
VERTEX
  5
171
  8
Layer_0
  10
175.53986
  20
144.01297
  0
VERTEX
  5
172
  8
Layer_0
  10
171.51585
  20
144.01297
  0
VERTEX
  5
173
  8
Layer_0
  10
171.51584
  20
141.01297
  0
VERTEX
  5
174
  8
Layer_0
  10
166.51584
  20
141.013
  0
VERTEX
  5
175
  8
Layer_0
  10
166.51585
  20
144.013
  0
VERTEX
  5
176
  8
Layer_0
  10
156.56386
  20
144.013
  0
VERTEX
  5
177
  8
Layer_0
  10
156.56384
  20
141.013
  0
VERTEX
  5
178
  8
Layer_0
  10
151.56384
  20
141.013
  0
VERTEX
  5
179
  8
Layer_0
  10
151.56386
  20
144.013
  0
VERTEX
  5
17a
  8
Layer_0
  10
141.53986
  20
144.013
  0
VERTEX
  5
17b
  8
Layer_0
  10
141.53986
  20
154.013
  0
SEQEND
  0
POLYLINE
  5
17d
  8
Layer_0
  62
0
  70
1
  66
1
  10
0
  20
0
  30
0
  0
VERTEX
  5
17d
  8
Layer_0
  10
172.39099
  20
129.92436
  0
VERTEX
  5
17e
  8
Layer_0
  10
169.39099
  20
129.92436
  0
VERTEX
  5
17f
  8
Layer_0
  10
169.39099
  20
134.92436
  0
VERTEX
  5
180
  8
Layer_0
  10
172.39099
  20
134.92436
  0
VERTEX
  5
181
  8
Layer_0
  10
172.39099
  20
137.42836
  0
VERTEX
  5
182
  8
Layer_0
  10
174.89499
  20
137.42836
  0
VERTEX
  5
183
  8
Layer_0
  10
174.89499
  20
140.42836
  0
VERTEX
  5
184
  8
Layer_0
  10
179.89499
  20
140.42836
  0
VERTEX
  5
185
  8
Layer_0
  10
179.89499
  20
137.42836
  0
VERTEX
  5
186
  8
Layer_0
  10
182.39099
  20
137.42836
  0
VERTEX
  5
187
  8
Layer_0
  10
182.39099
  20
127.42836
  0
VERTEX
  5
188
  8
Layer_0
  10
179.89499
  20
127.42836
  0
VERTEX
  5
189
  8
Layer_0
  10
179.89499
  20
124.42836
  0
VERTEX
  5
18a
  8
Layer_0
  10
174.89499
  20
124.42836
  0
VERTEX
  5
18b
  8
Layer_0
  10
174.89499
  20
127.42836
  0
VERTEX
  5
18c
  8
Layer_0
  10
172.39099
  20
127.42836
  0
VERTEX
  5
18d
  8
Layer_0
  10
172.39099
  20
129.92436
  0
SEQEND
  0
POLYLINE
  5
18f
  8
Layer_1
  62
12
  70
1
  66
1
  10
0
  20
0
  30
0
  0
VERTEX
  5
18f
  8
Layer_1
  10
54.778332
  20
99.605133
  0
VERTEX
  5
190
  8
Layer_1
  10
54.762451
  20
102.6096
  0
VERTEX
  5
191
  8
Layer_1
  10
49.811985
  20
102.58453
  0
VERTEX
  5
192
  8
Layer_1
  10
49.94405
  20
99.580482
  0
VERTEX
  5
193
  8
Layer_1
  10
40.175766
  20
99.527412
  0
VERTEX
  5
194
  8
Layer_1
  10
40.215244
  20
101.02962
  0
VERTEX
  5
195
  8
Layer_1
  10
40.243893
  20
102.53224
  0
VERTEX
  5
196
  8
Layer_1
  10
35.316132
  20
102.5023
  0
VERTEX
  5
197
  8
Layer_1
  10
35.328114
  20
99.506905
  0
VERTEX
  5
198
  8
Layer_1
  10
35.230301
  20
99.500648
  0
VERTEX
  5
199
  8
Layer_1
  10
35.21336
  20
102.50665
  0
VERTEX
  5
19a
  8
Layer_1
  10
30.260189
  20
102.48357
  0
VERTEX
  5
19b
  8
Layer_1
  10
30.39172
  20
99.479836
  0
VERTEX
  5
19c
  8
Layer_1
  10
26.230087
  20
99.359337
  0
VERTEX
  5
19d
  8
Layer_1
  10
26.607292
  20
59.367752
  0
VERTEX
  5
19e
  8
Layer_1
  10
30.814659
  20
59.370758
  0
VERTEX
  5
19f
  8
Layer_1
  10
30.729965
  20
56.365295
  0
VERTEX
  5
1a0
  8
Layer_1
  10
35.682907
  20
56.419449
  0
VERTEX
  5
1a1
  8
Layer_1
  10
35.653
  20
59.425354
  0
VERTEX
  5
1a2
  8
Layer_1
  10
35.750866
  20
59.420624
  0
VERTEX
  5
1a3
  8
Layer_1
  10
35.785572
  20
56.425407
  0
VERTEX
  5
1a4
  8
Layer_1
  10
40.713211
  20
56.472282
  0
VERTEX
  5
1a5
  8
Layer_1
  10
40.598259
  20
59.475693
  0
VERTEX
  5
1a6
  8
Layer_1
  10
50.366188
  20
59.574951
  0
VERTEX
  5
1a7
  8
Layer_1
  10
50.280979
  20
56.569183
  0
VERTEX
  5
1a8
  8
Layer_1
  10
55.231213
  20
56.621292
  0
VERTEX
  5
1a9
  8
Layer_1
  10
55.200279
  20
59.625641
  0
VERTEX
  5
1aa
  8
Layer_1
  10
55.300274
  20
59.627319
  0
VERTEX
  5
1ab
  8
Layer_1
  10
55.330551
  20
56.623505
  0
VERTEX
  5
1ac
  8
Layer_1
  10
60.263752
  20
56.674744
  0
VERTEX
  5
1ad
  8
Layer_1
  10
60.149311
  20
59.678444
  0
VERTEX
  5
1ae
  8
Layer_1
  10
64.309479
  20
59.669662
  0
VERTEX
  5
1af
  8
Layer_1
  10
63.926392
  20
99.707809
  0
VERTEX
  5
1b0
  8
Layer_1
  10
59.727592
  20
99.629478
  0
VERTEX
  5
1b1
  8
Layer_1
  10
59.7952
  20
102.63462
  0
VERTEX
  5
1b2
  8
Layer_1
  10
54.861828
  20
102.60895
  0
VERTEX
  5
1b3
  8
Layer_1
  10
54.878368
  20
99.605034
  0
VERTEX
  5
1b4
  8
Layer_1
  10
54.778332
  20
99.605133
  0
SEQEND
  0
POLYLINE
  5
1b6
  8
Layer_0
  62
0
  70
1
  66
1
  10
0
  20
0
  30
0
  0
VERTEX
  5
1b6
  8
Layer_0
  10
52.519798
  20
79.5
  0
VERTEX
  5
1b7
  8
Layer_0
  10
52.482368
  20
80.241264
  0
VERTEX
  5
1b8
  8
Layer_0
  10
52.372501
  20
80.961121
  0
VERTEX
  5
1b9
  8
Layer_0
  10
52.193848
  20
81.655922
  0
VERTEX
  5
1ba
  8
Layer_0
  10
51.950054
  20
82.322029
  0
VERTEX
  5
1bb
  8
Layer_0
  10
51.64476
  20
82.955788
  0
VERTEX
  5
1bc
  8
Layer_0
  10
51.281609
  20
83.553543
  0
VERTEX
  5
1bd
  8
Layer_0
  10
50.86425
  20
84.111671
  0
VERTEX
  5
1be
  8
Layer_0
  10
50.39632
  20
84.626526
  0
VERTEX
  5
1bf
  8
Layer_0
  10
49.88147
  20
85.094452
  0
VERTEX
  5
1c0
  8
Layer_0
  10
49.323341
  20
85.51181
  0
VERTEX
  5
1c1
  8
Layer_0
  10
48.725578
  20
85.874954
  0
VERTEX
  5
1c2
  8
Layer_0
  10
48.091824
  20
86.180252
  0
VERTEX
  5
1c3
  8
Layer_0
  10
47.425724
  20
86.424049
  0
VERTEX
  5
1c4
  8
Layer_0
  10
46.730923
  20
86.602707
  0
VERTEX
  5
1c5
  8
Layer_0
  10
46.011063
  20
86.71257
  0
VERTEX
  5
1c6
  8
Layer_0
  10
45.269798
  20
86.75
  0
VERTEX
  5
1c7
  8
Layer_0
  10
44.528534
  20
86.71257
  0
VERTEX
  5
1c8
  8
Layer_0
  10
43.808674
  20
86.602707
  0
VERTEX
  5
1c9
  8
Layer_0
  10
43.113873
  20
86.424049
  0
VERTEX
  5
1ca
  8
Layer_0
  10
42.447773
  20
86.180252
  0
VERTEX
  5
1cb
  8
Layer_0
  10
41.814018
  20
85.874954
  0
VERTEX
  5
1cc
  8
Layer_0
  10
41.216255
  20
85.51181
  0
VERTEX
  5
1cd
  8
Layer_0
  10
40.658127
  20
85.094452
  0
VERTEX
  5
1ce
  8
Layer_0
  10
40.143276
  20
84.626526
  0
VERTEX
  5
1cf
  8
Layer_0
  10
39.675346
  20
84.111671
  0
VERTEX
  5
1d0
  8
Layer_0
  10
39.257988
  20
83.553543
  0
VERTEX
  5
1d1
  8
Layer_0
  10
38.894836
  20
82.955788
  0
VERTEX
  5
1d2
  8
Layer_0
  10
38.589542
  20
82.322029
  0
VERTEX
  5
1d3
  8
Layer_0
  10
38.345749
  20
81.655922
  0
VERTEX
  5
1d4
  8
Layer_0
  10
38.167095
  20
80.961121
  0
VERTEX
  5
1d5
  8
Layer_0
  10
38.057228
  20
80.241264
  0
VERTEX
  5
1d6
  8
Layer_0
  10
38.019798
  20
79.5
  0
VERTEX
  5
1d7
  8
Layer_0
  10
38.057228
  20
78.758736
  0
VERTEX
  5
1d8
  8
Layer_0
  10
38.167095
  20
78.038879
  0
VERTEX
  5
1d9
  8
Layer_0
  10
38.345749
  20
77.344078
  0
VERTEX
  5
1da
  8
Layer_0
  10
38.589542
  20
76.677971
  0
VERTEX
  5
1db
  8
Layer_0
  10
38.894836
  20
76.044212
  0
VERTEX
  5
1dc
  8
Layer_0
  10
39.257988
  20
75.446457
  0
VERTEX
  5
1dd
  8
Layer_0
  10
39.675346
  20
74.888329
  0
VERTEX
  5
1de
  8
Layer_0
  10
40.143276
  20
74.373474
  0
VERTEX
  5
1df
  8
Layer_0
  10
40.658127
  20
73.905548
  0
VERTEX
  5
1e0
  8
Layer_0
  10
41.216255
  20
73.48819
  0
VERTEX
  5
1e1
  8
Layer_0
  10
41.814018
  20
73.125046
  0
VERTEX
  5
1e2
  8
Layer_0
  10
42.447773
  20
72.819748
  0
VERTEX
  5
1e3
  8
Layer_0
  10
43.113873
  20
72.575951
  0
VERTEX
  5
1e4
  8
Layer_0
  10
43.808674
  20
72.397293
  0
VERTEX
  5
1e5
  8
Layer_0
  10
44.528534
  20
72.28743
  0
VERTEX
  5
1e6
  8
Layer_0
  10
45.269798
  20
72.25
  0
VERTEX
  5
1e7
  8
Layer_0
  10
46.011063
  20
72.28743
  0
VERTEX
  5
1e8
  8
Layer_0
  10
46.730923
  20
72.397293
  0
VERTEX
  5
1e9
  8
Layer_0
  10
47.425724
  20
72.575951
  0
VERTEX
  5
1ea
  8
Layer_0
  10
48.091824
  20
72.819748
  0
VERTEX
  5
1eb
  8
Layer_0
  10
48.725578
  20
73.125046
  0
VERTEX
  5
1ec
  8
Layer_0
  10
49.323341
  20
73.48819
  0
VERTEX
  5
1ed
  8
Layer_0
  10
49.88147
  20
73.905548
  0
VERTEX
  5
1ee
  8
Layer_0
  10
50.39632
  20
74.373474
  0
VERTEX
  5
1ef
  8
Layer_0
  10
50.86425
  20
74.888329
  0
VERTEX
  5
1f0
  8
Layer_0
  10
51.281609
  20
75.446457
  0
VERTEX
  5
1f1
  8
Layer_0
  10
51.64476
  20
76.044212
  0
VERTEX
  5
1f2
  8
Layer_0
  10
51.950054
  20
76.677971
  0
VERTEX
  5
1f3
  8
Layer_0
  10
52.193848
  20
77.344078
  0
VERTEX
  5
1f4
  8
Layer_0
  10
52.372501
  20
78.038879
  0
VERTEX
  5
1f5
  8
Layer_0
  10
52.482368
  20
78.758736
  0
VERTEX
  5
1f6
  8
Layer_0
  10
52.519798
  20
79.5
  0
SEQEND
  0
POLYLINE
  5
1f8
  8
Layer_0
  62
0
  70
1
  66
1
  10
0
  20
0
  30
0
  0
VERTEX
  5
1f8
  8
Layer_0
  10
45.769798
  20
99.610802
  0
VERTEX
  5
1f9
  8
Layer_0
  10
44.769798
  20
99.610802
  0
VERTEX
  5
1fa
  8
Layer_0
  10
44.769798
  20
86.806801
  0
VERTEX
  5
1fb
  8
Layer_0
  10
45.769798
  20
86.806801
  0
VERTEX
  5
1fc
  8
Layer_0
  10
45.769798
  20
99.610802
  0
SEQEND
  0
POLYLINE
  5
1fe
  8
Layer_0
  62
0
  70
1
  66
1
  10
0
  20
0
  30
0
  0
VERTEX
  5
1fe
  8
Layer_0
  10
46.269798
  20
88.802483
  0
VERTEX
  5
1ff
  8
Layer_0
  10
44.269798
  20
88.802483
  0
VERTEX
  5
200
  8
Layer_0
  10
44.269798
  20
86.59272
  0
VERTEX
  5
201
  8
Layer_0
  10
46.269798
  20
86.59272
  0
VERTEX
  5
202
  8
Layer_0
  10
46.269798
  20
88.802483
  0
SEQEND
  0
POLYLINE
  5
204
  8
Layer_0
  62
0
  70
1
  66
1
  10
0
  20
0
  30
0
  0
VERTEX
  5
204
  8
Layer_0
  10
25.299103
  20
147.02777
  0
VERTEX
  5
205
  8
Layer_0
  10
46.306808
  20
106.47919
  0
VERTEX
  5
206
  8
Layer_0
  10
92.700897
  20
106.69177
  0
VERTEX
  5
207
  8
Layer_0
  10
89.799545
  20
118.0282
  0
VERTEX
  5
208
  8
Layer_0
  10
78.250565
  20
161.52087
  0
VERTEX
  5
209
  8
Layer_0
  10
25.299103
  20
147.02777
  0
SEQEND
  0
POLYLINE
  5
20b
  8
Layer_0
  62
0
  70
1
  66
1
  10
0
  20
0
  30
0
  0
VERTEX
  5
20b
  8
Layer_0
  10
74.649048
  20
108.63622
  0
VERTEX
  5
20c
  8
Layer_0
  10
83.927963
  20
108.69492
  0
VERTEX
  5
20d
  8
Layer_0
  10
83.92514
  20
111.69954
  0
VERTEX
  5
20e
  8
Layer_0
  10
74.646225
  20
111.64083
  0
VERTEX
  5
20f
  8
Layer_0
  10
74.649048
  20
108.63622
  0
SEQEND
  0
POLYLINE
  5
211
  8
Layer_0
  62
0
  70
1
  66
1
  10
0
  20
0
  30
0
  0
VERTEX
  5
211
  8
Layer_0
  10
55.096798
  20
108.51893
  0
VERTEX
  5
212
  8
Layer_0
  10
64.375763
  20
108.57622
  0
VERTEX
  5
213
  8
Layer_0
  10
64.373405
  20
111.58083
  0
VERTEX
  5
214
  8
Layer_0
  10
55.094437
  20
111.52354
  0
VERTEX
  5
215
  8
Layer_0
  10
55.096798
  20
108.51893
  0
SEQEND
  0
POLYLINE
  5
217
  8
Layer_0
  62
0
  70
1
  66
1
  10
0
  20
0
  30
0
  0
VERTEX
  5
217
  8
Layer_0
  10
31.044661
  20
140.51288
  0
VERTEX
  5
218
  8
Layer_0
  10
35.326523
  20
132.28076
  0
VERTEX
  5
219
  8
Layer_0
  10
37.999542
  20
133.65286
  0
VERTEX
  5
21a
  8
Layer_0
  10
33.717682
  20
141.88498
  0
VERTEX
  5
21b
  8
Layer_0
  10
31.044661
  20
140.51288
  0
SEQEND
  0
POLYLINE
  5
21d
  8
Layer_0
  62
0
  70
1
  66
1
  10
0
  20
0
  30
0
  0
VERTEX
  5
21d
  8
Layer_0
  10
40.063137
  20
123.16535
  0
VERTEX
  5
21e
  8
Layer_0
  10
44.346249
  20
114.93388
  0
VERTEX
  5
21f
  8
Layer_0
  10
47.019062
  20
116.30639
  0
VERTEX
  5
220
  8
Layer_0
  10
42.73595
  20
124.53786
  0
VERTEX
  5
221
  8
Layer_0
  10
40.063137
  20
123.16535
  0
SEQEND
  0
POLYLINE
  5
223
  8
Layer_0
  62
0
  70
1
  66
1
  10
0
  20
0
  30
0
  0
VERTEX
  5
223
  8
Layer_0
  10
87.206909
  20
119.64862
  0
VERTEX
  5
224
  8
Layer_0
  10
84.764153
  20
128.60045
  0
VERTEX
  5
225
  8
Layer_0
  10
81.861298
  20
127.82512
  0
VERTEX
  5
226
  8
Layer_0
  10
84.304054
  20
118.87329
  0
VERTEX
  5
227
  8
Layer_0
  10
87.206909
  20
119.64862
  0
SEQEND
  0
POLYLINE
  5
229
  8
Layer_0
  62
0
  70
1
  66
1
  10
0
  20
0
  30
0
  0
VERTEX
  5
229
  8
Layer_0
  10
81.961525
  20
138.51305
  0
VERTEX
  5
22a
  8
Layer_0
  10
79.51741
  20
147.46448
  0
VERTEX
  5
22b
  8
Layer_0
  10
76.614677
  20
146.68869
  0
VERTEX
  5
22c
  8
Layer_0
  10
79.058792
  20
137.73727
  0
VERTEX
  5
22d
  8
Layer_0
  10
81.961525
  20
138.51305
  0
SEQEND
  0
POLYLINE
  5
22f
  8
Layer_0
  62
0
  70
1
  66
1
  10
0
  20
0
  30
0
  0
VERTEX
  5
22f
  8
Layer_0
  10
66.183311
  20
156.22954
  0
VERTEX
  5
230
  8
Layer_0
  10
57.249027
  20
153.72351
  0
VERTEX
  5
231
  8
Layer_0
  10
58.044884
  20
150.82622
  0
VERTEX
  5
232
  8
Layer_0
  10
66.979172
  20
153.33223
  0
VERTEX
  5
233
  8
Layer_0
  10
66.183311
  20
156.22954
  0
SEQEND
  0
POLYLINE
  5
235
  8
Layer_0
  62
0
  70
1
  66
1
  10
0
  20
0
  30
0
  0
VERTEX
  5
235
  8
Layer_0
  10
47.356918
  20
150.85013
  0
VERTEX
  5
236
  8
Layer_0
  10
38.422985
  20
148.34279
  0
VERTEX
  5
237
  8
Layer_0
  10
39.219284
  20
145.44562
  0
VERTEX
  5
238
  8
Layer_0
  10
48.153217
  20
147.95296
  0
VERTEX
  5
239
  8
Layer_0
  10
47.356918
  20
150.85013
  0
SEQEND
  0
POLYLINE
  5
23b
  8
Layer_2
  62
91
  70
1
  66
1
  10
0
  20
0
  30
0
  0
VERTEX
  5
23b
  8
Layer_2
  10
46.115688
  20
132.23123
  0
VERTEX
  5
23c
  8
Layer_2
  10
69.918121
  20
117.48521
  0
VERTEX
  5
23d
  8
Layer_2
  10
75.184555
  20
125.98608
  0
VERTEX
  5
23e
  8
Layer_2
  10
51.382118
  20
140.7321
  0
VERTEX
  5
23f
  8
Layer_2
  10
46.115688
  20
132.23123
  0
SEQEND
  0
POLYLINE
  5
241
  8
Layer_2
  62
91
  70
1
  66
1
  10
0
  20
0
  30
0
  0
VERTEX
  5
241
  8
Layer_2
  10
53.148582
  20
134.8147
  0
VERTEX
  5
242
  8
Layer_2
  10
53.253078
  20
135.27646
  0
VERTEX
  5
243
  8
Layer_2
  10
53.386642
  20
135.73065
  0
VERTEX
  5
244
  8
Layer_2
  10
53.043015
  20
135.41818
  0
VERTEX
  5
245
  8
Layer_2
  10
52.687763
  20
135.11902
  0
VERTEX
  5
246
  8
Layer_2
  10
50.78817
  20
133.63258
  0
VERTEX
  5
247
  8
Layer_2
  10
50.223713
  20
133.98227
  0
VERTEX
  5
248
  8
Layer_2
  10
53.563133
  20
136.56238
  0
VERTEX
  5
249
  8
Layer_2
  10
53.815933
  20
136.76688
  0
VERTEX
  5
24a
  8
Layer_2
  10
54.082825
  20
136.95184
  0
VERTEX
  5
24b
  8
Layer_2
  10
54.362667
  20
137.11659
  0
VERTEX
  5
24c
  8
Layer_2
  10
54.654301
  20
137.26038
  0
VERTEX
  5
24d
  8
Layer_2
  10
54.918129
  20
137.31078
  0
VERTEX
  5
24e
  8
Layer_2
  10
55.180927
  20
137.28748
  0
VERTEX
  5
24f
  8
Layer_2
  10
55.42762
  20
137.19394
  0
VERTEX
  5
250
  8
Layer_2
  10
55.643124
  20
137.03362
  0
VERTEX
  5
251
  8
Layer_2
  10
55.799839
  20
136.86124
  0
VERTEX
  5
252
  8
Layer_2
  10
55.536633
  20
136.29968
  0
VERTEX
  5
253
  8
Layer_2
  10
55.422821
  20
136.42227
  0
VERTEX
  5
254
  8
Layer_2
  10
55.291451
  20
136.52423
  0
VERTEX
  5
255
  8
Layer_2
  10
55.145363
  20
136.60367
  0
VERTEX
  5
256
  8
Layer_2
  10
54.987404
  20
136.65875
  0
VERTEX
  5
257
  8
Layer_2
  10
54.845016
  20
136.66585
  0
VERTEX
  5
258
  8
Layer_2
  10
54.706291
  20
136.64175
  0
VERTEX
  5
259
  8
Layer_2
  10
54.576202
  20
136.58789
  0
VERTEX
  5
25a
  8
Layer_2
  10
54.459702
  20
136.50572
  0
VERTEX
  5
25b
  8
Layer_2
  10
54.256615
  20
136.34816
  0
VERTEX
  5
25c
  8
Layer_2
  10
54.050495
  20
136.19458
  0
VERTEX
  5
25d
  8
Layer_2
  10
53.256821
  20
132.10321
  0
VERTEX
  5
25e
  8
Layer_2
  10
52.651558
  20
132.47818
  0
VERTEX
  5
25f
  8
Layer_2
  10
53.148582
  20
134.8147
  0
SEQEND
  0
POLYLINE
  5
261
  8
Layer_2
  62
91
  70
1
  66
1
  10
0
  20
0
  30
0
  0
VERTEX
  5
261
  8
Layer_2
  10
68.996719
  20
122.86026
  0
VERTEX
  5
262
  8
Layer_2
  10
68.733536
  20
122.79796
  0
VERTEX
  5
263
  8
Layer_2
  10
68.470184
  20
122.78535
  0
VERTEX
  5
264
  8
Layer_2
  10
68.212662
  20
122.81992
  0
VERTEX
  5
265
  8
Layer_2
  10
67.966965
  20
122.8991
  0
VERTEX
  5
266
  8
Layer_2
  10
67.73909
  20
123.02038
  0
VERTEX
  5
267
  8
Layer_2
  10
67.535011
  20
123.1812
  0
VERTEX
  5
268
  8
Layer_2
  10
67.360741
  20
123.37904
  0
VERTEX
  5
269
  8
Layer_2
  10
67.222267
  20
123.61137
  0
VERTEX
  5
26a
  8
Layer_2
  10
67.108643
  20
123.94456
  0
VERTEX
  5
26b
  8
Layer_2
  10
67.065605
  20
124.29041
  0
VERTEX
  5
26c
  8
Layer_2
  10
67.093399
  20
124.63783
  0
VERTEX
  5
26d
  8
Layer_2
  10
67.192276
  20
124.97569
  0
VERTEX
  5
26e
  8
Layer_2
  10
67.28437
  20
125.22224
  0
VERTEX
  5
26f
  8
Layer_2
  10
67.399956
  20
125.45644
  0
VERTEX
  5
270
  8
Layer_2
  10
67.537758
  20
125.67679
  0
VERTEX
  5
271
  8
Layer_2
  10
67.69648
  20
125.88177
  0
VERTEX
  5
272
  8
Layer_2
  10
67.874847
  20
126.06992
  0
VERTEX
  5
273
  8
Layer_2
  10
68.071579
  20
126.23973
  0
VERTEX
  5
274
  8
Layer_2
  10
68.285393
  20
126.38971
  0
VERTEX
  5
275
  8
Layer_2
  10
68.515007
  20
126.51836
  0
VERTEX
  5
276
  8
Layer_2
  10
68.776558
  20
126.61205
  0
VERTEX
  5
277
  8
Layer_2
  10
69.04409
  20
126.65599
  0
VERTEX
  5
278
  8
Layer_2
  10
69.311378
  20
126.65195
  0
VERTEX
  5
279
  8
Layer_2
  10
69.572205
  20
126.60169
  0
VERTEX
  5
27a
  8
Layer_2
  10
69.820389
  20
126.50699
  0
VERTEX
  5
27b
  8
Layer_2
  10
70.04969
  20
126.3696
  0
VERTEX
  5
27c
  8
Layer_2
  10
70.253922
  20
126.1913
  0
VERTEX
  5
27d
  8
Layer_2
  10
70.426865
  20
125.97386
  0
VERTEX
  5
27e
  8
Layer_2
  10
70.500839
  20
125.82964
  0
VERTEX
  5
27f
  8
Layer_2
  10
70.554855
  20
125.67755
  0
VERTEX
  5
280
  8
Layer_2
  10
70.588303
  20
125.51966
  0
VERTEX
  5
281
  8
Layer_2
  10
70.600601
  20
125.35805
  0
VERTEX
  5
282
  8
Layer_2
  10
70.857597
  20
125.77289
  0
VERTEX
  5
283
  8
Layer_2
  10
71.374451
  20
125.45268
  0
VERTEX
  5
284
  8
Layer_2
  10
68.547432
  20
120.88942
  0
VERTEX
  5
285
  8
Layer_2
  10
67.989777
  20
121.23489
  0
VERTEX
  5
286
  8
Layer_2
  10
68.996719
  20
122.86026
  0
SEQEND
  0
POLYLINE
  5
288
  8
Layer_2
  62
91
  70
1
  66
1
  10
0
  20
0
  30
0
  0
VERTEX
  5
288
  8
Layer_2
  10
64.109406
  20
125.28575
  0
VERTEX
  5
289
  8
Layer_2
  10
63.906693
  20
125.43858
  0
VERTEX
  5
28a
  8
Layer_2
  10
63.731487
  20
125.62011
  0
VERTEX
  5
28b
  8
Layer_2
  10
63.586754
  20
125.82676
  0
VERTEX
  5
28c
  8
Layer_2
  10
63.475449
  20
126.05492
  0
VERTEX
  5
28d
  8
Layer_2
  10
63.444641
  20
126.26685
  0
VERTEX
  5
28e
  8
Layer_2
  10
63.458359
  20
126.47829
  0
VERTEX
  5
28f
  8
Layer_2
  10
63.51543
  20
126.68234
  0
VERTEX
  5
290
  8
Layer_2
  10
63.614681
  20
126.8721
  0
VERTEX
  5
291
  8
Layer_2
  10
63.696358
  20
127.01913
  0
VERTEX
  5
292
  8
Layer_2
  10
64.488426
  20
128.29767
  0
VERTEX
  5
293
  8
Layer_2
  10
64.736687
  20
128.7272
  0
VERTEX
  5
294
  8
Layer_2
  10
64.918236
  20
129.18892
  0
VERTEX
  5
295
  8
Layer_2
  10
64.936615
  20
129.31108
  0
VERTEX
  5
296
  8
Layer_2
  10
64.947792
  20
129.43411
  0
VERTEX
  5
297
  8
Layer_2
  10
65.532654
  20
129.07178
  0
VERTEX
  5
298
  8
Layer_2
  10
65.484642
  20
128.8268
  0
VERTEX
  5
299
  8
Layer_2
  10
65.38868
  20
128.59633
  0
VERTEX
  5
29a
  8
Layer_2
  10
65.675568
  20
128.63519
  0
VERTEX
  5
29b
  8
Layer_2
  10
65.960915
  20
128.63393
  0
VERTEX
  5
29c
  8
Layer_2
  10
66.240891
  20
128.5939
  0
VERTEX
  5
29d
  8
Layer_2
  10
66.511688
  20
128.51651
  0
VERTEX
  5
29e
  8
Layer_2
  10
66.769501
  20
128.40311
  0
VERTEX
  5
29f
  8
Layer_2
  10
67.010498
  20
128.2551
  0
VERTEX
  5
2a0
  8
Layer_2
  10
67.230865
  20
128.07382
  0
VERTEX
  5
2a1
  8
Layer_2
  10
67.426796
  20
127.86069
  0
VERTEX
  5
2a2
  8
Layer_2
  10
67.532089
  20
127.67347
  0
VERTEX
  5
2a3
  8
Layer_2
  10
67.596375
  20
127.47505
  0
VERTEX
  5
2a4
  8
Layer_2
  10
67.620651
  20
127.2713
  0
VERTEX
  5
2a5
  8
Layer_2
  10
67.605911
  20
127.0681
  0
VERTEX
  5
2a6
  8
Layer_2
  10
67.553139
  20
126.87132
  0
VERTEX
  5
2a7
  8
Layer_2
  10
67.463326
  20
126.68683
  0
VERTEX
  5
2a8
  8
Layer_2
  10
67.337463
  20
126.52051
  0
VERTEX
  5
2a9
  8
Layer_2
  10
67.176559
  20
126.37823
  0
VERTEX
  5
2aa
  8
Layer_2
  10
66.855324
  20
126.224
  0
VERTEX
  5
2ab
  8
Layer_2
  10
66.510841
  20
126.16077
  0
VERTEX
  5
2ac
  8
Layer_2
  10
66.161781
  20
126.18945
  0
VERTEX
  5
2ad
  8
Layer_2
  10
65.826797
  20
126.31099
  0
VERTEX
  5
2ae
  8
Layer_2
  10
65.120132
  20
126.62341
  0
VERTEX
  5
2af
  8
Layer_2
  10
64.391418
  20
126.88026
  0
VERTEX
  5
2b0
  8
Layer_2
  10
64.295349
  20
126.74404
  0
VERTEX
  5
2b1
  8
Layer_2
  10
64.22049
  20
126.59603
  0
VERTEX
  5
2b2
  8
Layer_2
  10
64.167885
  20
126.43873
  0
VERTEX
  5
2b3
  8
Layer_2
  10
64.138565
  20
126.27464
  0
VERTEX
  5
2b4
  8
Layer_2
  10
64.178192
  20
126.10526
  0
VERTEX
  5
2b5
  8
Layer_2
  10
64.25174
  20
125.94978
  0
VERTEX
  5
2b6
  8
Layer_2
  10
64.356186
  20
125.81311
  0
VERTEX
  5
2b7
  8
Layer_2
  10
64.488518
  20
125.70023
  0
VERTEX
  5
2b8
  8
Layer_2
  10
64.676147
  20
125.55191
  0
VERTEX
  5
2b9
  8
Layer_2
  10
64.886238
  20
125.44167
  0
VERTEX
  5
2ba
  8
Layer_2
  10
65.113007
  20
125.37188
  0
VERTEX
  5
2bb
  8
Layer_2
  10
65.350647
  20
125.34492
  0
VERTEX
  5
2bc
  8
Layer_2
  10
65.514832
  20
125.38612
  0
VERTEX
  5
2bd
  8
Layer_2
  10
65.668709
  20
125.45383
  0
VERTEX
  5
2be
  8
Layer_2
  10
65.809097
  20
125.54631
  0
VERTEX
  5
2bf
  8
Layer_2
  10
65.932823
  20
125.66183
  0
VERTEX
  5
2c0
  8
Layer_2
  10
66.430534
  20
125.24998
  0
VERTEX
  5
2c1
  8
Layer_2
  10
66.28537
  20
125.09686
  0
VERTEX
  5
2c2
  8
Layer_2
  10
66.120651
  20
124.9715
  0
VERTEX
  5
2c3
  8
Layer_2
  10
65.940208
  20
124.87489
  0
VERTEX
  5
2c4
  8
Layer_2
  10
65.747879
  20
124.80804
  0
VERTEX
  5
2c5
  8
Layer_2
  10
65.547478
  20
124.77194
  0
VERTEX
  5
2c6
  8
Layer_2
  10
65.342842
  20
124.7676
  0
VERTEX
  5
2c7
  8
Layer_2
  10
65.13781
  20
124.79604
  0
VERTEX
  5
2c8
  8
Layer_2
  10
64.936203
  20
124.85823
  0
VERTEX
  5
2c9
  8
Layer_2
  10
64.717072
  20
124.93984
  0
VERTEX
  5
2ca
  8
Layer_2
  10
64.505562
  20
125.03865
  0
VERTEX
  5
2cb
  8
Layer_2
  10
64.302673
  20
125.15412
  0
VERTEX
  5
2cc
  8
Layer_2
  10
64.109406
  20
125.28575
  0
SEQEND
  0
POLYLINE
  5
2ce
  8
Layer_2
  62
91
  70
1
  66
1
  10
0
  20
0
  30
0
  0
VERTEX
  5
2ce
  8
Layer_2
  10
57.209286
  20
129.55107
  0
VERTEX
  5
2cf
  8
Layer_2
  10
56.941479
  20
129.74655
  0
VERTEX
  5
2d0
  8
Layer_2
  10
56.722176
  20
129.98303
  0
VERTEX
  5
2d1
  8
Layer_2
  10
56.553776
  20
130.2522
  0
VERTEX
  5
2d2
  8
Layer_2
  10
56.438683
  20
130.54578
  0
VERTEX
  5
2d3
  8
Layer_2
  10
56.379295
  20
130.85547
  0
VERTEX
  5
2d4
  8
Layer_2
  10
56.378002
  20
131.17297
  0
VERTEX
  5
2d5
  8
Layer_2
  10
56.43721
  20
131.48999
  0
VERTEX
  5
2d6
  8
Layer_2
  10
56.559311
  20
131.79826
  0
VERTEX
  5
2d7
  8
Layer_2
  10
56.702011
  20
132.0809
  0
VERTEX
  5
2d8
  8
Layer_2
  10
56.864948
  20
132.35237
  0
VERTEX
  5
2d9
  8
Layer_2
  10
59.333599
  20
130.823
  0
VERTEX
  5
2da
  8
Layer_2
  10
59.452141
  20
131.06299
  0
VERTEX
  5
2db
  8
Layer_2
  10
59.527809
  20
131.31781
  0
VERTEX
  5
2dc
  8
Layer_2
  10
59.559418
  20
131.58174
  0
VERTEX
  5
2dd
  8
Layer_2
  10
59.545784
  20
131.84908
  0
VERTEX
  5
2de
  8
Layer_2
  10
59.485619
  20
132.04041
  0
VERTEX
  5
2df
  8
Layer_2
  10
59.394783
  20
132.21382
  0
VERTEX
  5
2e0
  8
Layer_2
  10
59.276817
  20
132.36661
  0
VERTEX
  5
2e1
  8
Layer_2
  10
59.135277
  20
132.49603
  0
VERTEX
  5
2e2
  8
Layer_2
  10
58.973709
  20
132.59937
  0
VERTEX
  5
2e3
  8
Layer_2
  10
58.795662
  20
132.67389
  0
VERTEX
  5
2e4
  8
Layer_2
  10
58.604675
  20
132.71689
  0
VERTEX
  5
2e5
  8
Layer_2
  10
58.404297
  20
132.72565
  0
VERTEX
  5
2e6
  8
Layer_2
  10
58.222511
  20
132.69218
  0
VERTEX
  5
2e7
  8
Layer_2
  10
58.049347
  20
132.63091
  0
VERTEX
  5
2e8
  8
Layer_2
  10
57.887955
  20
132.5432
  0
VERTEX
  5
2e9
  8
Layer_2
  10
57.741474
  20
132.43047
  0
VERTEX
  5
2ea
  8
Layer_2
  10
57.205547
  20
132.85658
  0
VERTEX
  5
2eb
  8
Layer_2
  10
57.363338
  20
133.00008
  0
VERTEX
  5
2ec
  8
Layer_2
  10
57.536674
  20
133.11932
  0
VERTEX
  5
2ed
  8
Layer_2
  10
57.722824
  20
133.21358
  0
VERTEX
  5
2ee
  8
Layer_2
  10
57.919044
  20
133.28207
  0
VERTEX
  5
2ef
  8
Layer_2
  10
58.122589
  20
133.32404
  0
VERTEX
  5
2f0
  8
Layer_2
  10
58.330723
  20
133.33875
  0
VERTEX
  5
2f1
  8
Layer_2
  10
58.540695
  20
133.32541
  0
VERTEX
  5
2f2
  8
Layer_2
  10
58.749775
  20
133.28329
  0
VERTEX
  5
2f3
  8
Layer_2
  10
59.161495
  20
133.12015
  0
VERTEX
  5
2f4
  8
Layer_2
  10
59.528225
  20
132.87991
  0
VERTEX
  5
2f5
  8
Layer_2
  10
59.839428
  20
132.57111
  0
VERTEX
  5
2f6
  8
Layer_2
  10
60.084568
  20
132.20229
  0
VERTEX
  5
2f7
  8
Layer_2
  10
60.155472
  20
131.99689
  0
VERTEX
  5
2f8
  8
Layer_2
  10
60.201157
  20
131.78673
  0
VERTEX
  5
2f9
  8
Layer_2
  10
60.221794
  20
131.57404
  0
VERTEX
  5
2fa
  8
Layer_2
  10
60.21756
  20
131.36105
  0
VERTEX
  5
2fb
  8
Layer_2
  10
60.188629
  20
131.14999
  0
VERTEX
  5
2fc
  8
Layer_2
  10
60.135185
  20
130.94308
  0
VERTEX
  5
2fd
  8
Layer_2
  10
60.057388
  20
130.74258
  0
VERTEX
  5
2fe
  8
Layer_2
  10
59.955414
  20
130.5507
  0
VERTEX
  5
2ff
  8
Layer_2
  10
59.742176
  20
130.18423
  0
VERTEX
  5
300
  8
Layer_2
  10
59.471615
  20
129.86172
  0
VERTEX
  5
301
  8
Layer_2
  10
59.150284
  20
129.58978
  0
VERTEX
  5
302
  8
Layer_2
  10
58.784725
  20
129.37498
  0
VERTEX
  5
303
  8
Layer_2
  10
58.38353
  20
129.27557
  0
VERTEX
  5
304
  8
Layer_2
  10
57.975773
  20
129.27307
  0
VERTEX
  5
305
  8
Layer_2
  10
57.578632
  20
129.36554
  0
VERTEX
  5
306
  8
Layer_2
  10
57.209286
  20
129.55107
  0
SEQEND
  0
POLYLINE
  5
308
  8
Layer_2
  62
91
  70
1
  66
1
  10
0
  20
0
  30
0
  0
VERTEX
  5
308
  8
Layer_2
  10
61.526466
  20
126.98003
  0
VERTEX
  5
309
  8
Layer_2
  10
60.962009
  20
127.32972
  0
VERTEX
  5
30a
  8
Layer_2
  10
61.231651
  20
127.76497
  0
VERTEX
  5
30b
  8
Layer_2
  10
61.796108
  20
127.41527
  0
VERTEX
  5
30c
  8
Layer_2
  10
62.992641
  20
129.34666
  0
VERTEX
  5
30d
  8
Layer_2
  10
63.081615
  20
129.50928
  0
VERTEX
  5
30e
  8
Layer_2
  10
63.152443
  20
129.68057
  0
VERTEX
  5
30f
  8
Layer_2
  10
63.127125
  20
129.81143
  0
VERTEX
  5
310
  8
Layer_2
  10
63.063564
  20
129.9248
  0
VERTEX
  5
311
  8
Layer_2
  10
62.967953
  20
130.01286
  0
VERTEX
  5
312
  8
Layer_2
  10
62.846478
  20
130.06775
  0
VERTEX
  5
313
  8
Layer_2
  10
62.697826
  20
130.13161
  0
VERTEX
  5
314
  8
Layer_2
  10
62.923775
  20
130.67862
  0
VERTEX
  5
315
  8
Layer_2
  10
63.150093
  20
130.59885
  0
VERTEX
  5
316
  8
Layer_2
  10
63.360893
  20
130.4868
  0
VERTEX
  5
317
  8
Layer_2
  10
63.552696
  20
130.34468
  0
VERTEX
  5
318
  8
Layer_2
  10
63.722046
  20
130.17467
  0
VERTEX
  5
319
  8
Layer_2
  10
63.832924
  20
129.96768
  0
VERTEX
  5
31a
  8
Layer_2
  10
63.869888
  20
129.74176
  0
VERTEX
  5
31b
  8
Layer_2
  10
63.832939
  20
129.51584
  0
VERTEX
  5
31c
  8
Layer_2
  10
63.722076
  20
129.30885
  0
VERTEX
  5
31d
  8
Layer_2
  10
63.669891
  20
129.20943
  0
VERTEX
  5
31e
  8
Layer_2
  10
62.346962
  20
127.07401
  0
VERTEX
  5
31f
  8
Layer_2
  10
62.761806
  20
126.817
  0
VERTEX
  5
320
  8
Layer_2
  10
62.492165
  20
126.38176
  0
VERTEX
  5
321
  8
Layer_2
  10
62.077324
  20
126.63876
  0
VERTEX
  5
322
  8
Layer_2
  10
61.571747
  20
125.82268
  0
VERTEX
  5
323
  8
Layer_2
  10
60.81023
  20
125.82391
  0
VERTEX
  5
324
  8
Layer_2
  10
61.526466
  20
126.98003
  0
SEQEND
  0
POLYLINE
  5
326
  8
Layer_2
  62
91
  70
1
  66
1
  10
0
  20
0
  30
0
  0
VERTEX
  5
326
  8
Layer_2
  10
59.737885
  20
128.08809
  0
VERTEX
  5
327
  8
Layer_2
  10
59.173428
  20
128.43777
  0
VERTEX
  5
328
  8
Layer_2
  10
59.443066
  20
128.87302
  0
VERTEX
  5
329
  8
Layer_2
  10
60.007526
  20
128.52333
  0
VERTEX
  5
32a
  8
Layer_2
  10
61.271469
  20
130.56354
  0
VERTEX
  5
32b
  8
Layer_2
  10
61.332245
  20
130.65076
  0
VERTEX
  5
32c
  8
Layer_2
  10
61.364048
  20
130.75006
  0
VERTEX
  5
32d
  8
Layer_2
  10
61.365707
  20
130.85434
  0
VERTEX
  5
32e
  8
Layer_2
  10
61.33606
  20
130.95642
  0
VERTEX
  5
32f
  8
Layer_2
  10
61.247528
  20
131.05235
  0
VERTEX
  5
330
  8
Layer_2
  10
61.145489
  20
131.13245
  0
VERTEX
  5
331
  8
Layer_2
  10
61.032028
  20
131.19536
  0
VERTEX
  5
332
  8
Layer_2
  10
60.909241
  20
131.23965
  0
VERTEX
  5
333
  8
Layer_2
  10
61.135193
  20
131.78667
  0
VERTEX
  5
334
  8
Layer_2
  10
61.327011
  20
131.71254
  0
VERTEX
  5
335
  8
Layer_2
  10
61.510204
  20
131.62027
  0
VERTEX
  5
336
  8
Layer_2
  10
61.683521
  20
131.51056
  0
VERTEX
  5
337
  8
Layer_2
  10
61.845718
  20
131.38412
  0
VERTEX
  5
338
  8
Layer_2
  10
62.002991
  20
131.19699
  0
VERTEX
  5
339
  8
Layer_2
  10
62.080544
  20
130.97275
  0
VERTEX
  5
33a
  8
Layer_2
  10
62.074615
  20
130.73553
  0
VERTEX
  5
33b
  8
Layer_2
  10
61.981461
  20
130.50952
  0
VERTEX
  5
33c
  8
Layer_2
  10
61.901443
  20
130.35229
  0
VERTEX
  5
33d
  8
Layer_2
  10
61.816486
  20
130.19766
  0
VERTEX
  5
33e
  8
Layer_2
  10
60.565182
  20
128.17786
  0
VERTEX
  5
33f
  8
Layer_2
  10
60.973225
  20
127.92506
  0
VERTEX
  5
340
  8
Layer_2
  10
60.703583
  20
127.48982
  0
VERTEX
  5
341
  8
Layer_2
  10
60.29554
  20
127.74261
  0
VERTEX
  5
342
  8
Layer_2
  10
59.789963
  20
126.92653
  0
VERTEX
  5
343
  8
Layer_2
  10
59.021648
  20
126.93197
  0
VERTEX
  5
344
  8
Layer_2
  10
59.737885
  20
128.08809
  0
SEQEND
  0
POLYLINE
  5
346
  8
Layer_2
  62
91
  70
1
  66
1
  10
0
  20
0
  30
0
  0
VERTEX
  5
346
  8
Layer_2
  10
53.647346
  20
131.77658
  0
VERTEX
  5
347
  8
Layer_2
  10
53.462219
  20
131.97906
  0
VERTEX
  5
348
  8
Layer_2
  10
53.313217
  20
132.20944
  0
VERTEX
  5
349
  8
Layer_2
  10
53.83485
  20
132.6109
  0
VERTEX
  5
34a
  8
Layer_2
  10
53.956093
  20
132.41135
  0
VERTEX
  5
34b
  8
Layer_2
  10
54.127575
  20
132.26027
  0
VERTEX
  5
34c
  8
Layer_2
  10
54.335907
  20
132.16629
  0
VERTEX
  5
34d
  8
Layer_2
  10
54.567699
  20
132.13808
  0
VERTEX
  5
34e
  8
Layer_2
  10
54.720493
  20
132.17769
  0
VERTEX
  5
34f
  8
Layer_2
  10
54.862274
  20
132.24403
  0
VERTEX
  5
350
  8
Layer_2
  10
54.989594
  20
132.33508
  0
VERTEX
  5
351
  8
Layer_2
  10
55.099018
  20
132.44885
  0
VERTEX
  5
352
  8
Layer_2
  10
55.29554
  20
132.67314
  0
VERTEX
  5
353
  8
Layer_2
  10
55.465195
  20
132.9184
  0
VERTEX
  5
354
  8
Layer_2
  10
56.535336
  20
134.64577
  0
VERTEX
  5
355
  8
Layer_2
  10
57.092995
  20
134.30029
  0
VERTEX
  5
356
  8
Layer_2
  10
55.045403
  20
130.99515
  0
VERTEX
  5
357
  8
Layer_2
  10
54.542152
  20
131.30693
  0
VERTEX
  5
358
  8
Layer_2
  10
54.853924
  20
131.81018
  0
VERTEX
  5
359
  8
Layer_2
  10
54.681545
  20
131.70413
  0
VERTEX
  5
35a
  8
Layer_2
  10
54.49577
  20
131.62679
  0
VERTEX
  5
35b
  8
Layer_2
  10
54.300209
  20
131.57933
  0
VERTEX
  5
35c
  8
Layer_2
  10
54.09848
  20
131.56297
  0
VERTEX
  5
35d
  8
Layer_2
  10
53.973976
  20
131.58884
  0
VERTEX
  5
35e
  8
Layer_2
  10
53.85585
  20
131.63373
  0
VERTEX
  5
35f
  8
Layer_2
  10
53.74625
  20
131.69666
  0
VERTEX
  5
360
  8
Layer_2
  10
53.647346
  20
131.77658
  0
SEQEND
  0
POLYLINE
  5
362
  8
Layer_2
  62
91
  70
1
  66
1
  10
0
  20
0
  30
0
  0
VERTEX
  5
362
  8
Layer_2
  10
64.869003
  20
127.27139
  0
VERTEX
  5
363
  8
Layer_2
  10
65.515396
  20
127.03148
  0
VERTEX
  5
364
  8
Layer_2
  10
66.16156
  20
126.79059
  0
VERTEX
  5
365
  8
Layer_2
  10
66.357063
  20
126.75896
  0
VERTEX
  5
366
  8
Layer_2
  10
66.547134
  20
126.79256
  0
VERTEX
  5
367
  8
Layer_2
  10
66.716118
  20
126.88584
  0
VERTEX
  5
368
  8
Layer_2
  10
66.848335
  20
127.03329
  0
VERTEX
  5
369
  8
Layer_2
  10
66.926109
  20
127.25847
  0
VERTEX
  5
36a
  8
Layer_2
  10
66.91449
  20
127.48872
  0
VERTEX
  5
36b
  8
Layer_2
  10
66.819572
  20
127.69882
  0
VERTEX
  5
36c
  8
Layer_2
  10
66.647469
  20
127.86354
  0
VERTEX
  5
36d
  8
Layer_2
  10
66.360672
  20
128.0538
  0
VERTEX
  5
36e
  8
Layer_2
  10
66.0392
  20
128.15935
  0
VERTEX
  5
36f
  8
Layer_2
  10
65.701286
  20
128.17679
  0
VERTEX
  5
370
  8
Layer_2
  10
65.365189
  20
128.10269
  0
VERTEX
  5
371
  8
Layer_2
  10
65.191116
  20
127.98834
  0
VERTEX
  5
372
  8
Layer_2
  10
65.035423
  20
127.85164
  0
VERTEX
  5
373
  8
Layer_2
  10
64.900177
  20
127.69466
  0
VERTEX
  5
374
  8
Layer_2
  10
64.78746
  20
127.51953
  0
VERTEX
  5
375
  8
Layer_2
  10
64.661064
  20
127.31551
  0
VERTEX
  5
376
  8
Layer_2
  10
64.869003
  20
127.27139
  0
SEQEND
  0
POLYLINE
  5
378
  8
Layer_2
  62
91
  70
1
  66
1
  10
0
  20
0
  30
0
  0
VERTEX
  5
378
  8
Layer_2
  10
68.341927
  20
123.32239
  0
VERTEX
  5
379
  8
Layer_2
  10
68.633453
  20
123.28506
  0
VERTEX
  5
37a
  8
Layer_2
  10
68.920464
  20
123.32129
  0
VERTEX
  5
37b
  8
Layer_2
  10
69.189514
  20
123.42761
  0
VERTEX
  5
37c
  8
Layer_2
  10
69.427124
  20
123.60058
  0
VERTEX
  5
37d
  8
Layer_2
  10
69.7062
  20
123.9133
  0
VERTEX
  5
37e
  8
Layer_2
  10
69.929817
  20
124.2645
  0
VERTEX
  5
37f
  8
Layer_2
  10
70.094223
  20
124.64702
  0
VERTEX
  5
380
  8
Layer_2
  10
70.195602
  20
125.0537
  0
VERTEX
  5
381
  8
Layer_2
  10
70.18853
  20
125.23986
  0
VERTEX
  5
382
  8
Layer_2
  10
70.147247
  20
125.41634
  0
VERTEX
  5
383
  8
Layer_2
  10
70.074837
  20
125.57943
  0
VERTEX
  5
384
  8
Layer_2
  10
69.97438
  20
125.72543
  0
VERTEX
  5
385
  8
Layer_2
  10
69.848969
  20
125.85065
  0
VERTEX
  5
386
  8
Layer_2
  10
69.701675
  20
125.95139
  0
VERTEX
  5
387
  8
Layer_2
  10
69.535583
  20
126.02393
  0
VERTEX
  5
388
  8
Layer_2
  10
69.353783
  20
126.06459
  0
VERTEX
  5
389
  8
Layer_2
  10
69.032684
  20
126.0307
  0
VERTEX
  5
38a
  8
Layer_2
  10
68.733704
  20
125.9216
  0
VERTEX
  5
38b
  8
Layer_2
  10
68.469711
  20
125.74382
  0
VERTEX
  5
38c
  8
Layer_2
  10
68.253586
  20
125.50395
  0
VERTEX
  5
38d
  8
Layer_2
  10
68.082443
  20
125.27043
  0
VERTEX
  5
38e
  8
Layer_2
  10
67.937828
  20
125.02059
  0
VERTEX
  5
38f
  8
Layer_2
  10
67.820869
  20
124.75667
  0
VERTEX
  5
390
  8
Layer_2
  10
67.732719
  20
124.4809
  0
VERTEX
  5
391
  8
Layer_2
  10
67.704132
  20
124.29895
  0
VERTEX
  5
392
  8
Layer_2
  10
67.709702
  20
124.11958
  0
VERTEX
  5
393
  8
Layer_2
  10
67.747299
  20
123.9468
  0
VERTEX
  5
394
  8
Layer_2
  10
67.814819
  20
123.78464
  0
VERTEX
  5
395
  8
Layer_2
  10
67.910156
  20
123.63709
  0
VERTEX
  5
396
  8
Layer_2
  10
68.031189
  20
123.50819
  0
VERTEX
  5
397
  8
Layer_2
  10
68.175827
  20
123.40195
  0
VERTEX
  5
398
  8
Layer_2
  10
68.341927
  20
123.32239
  0
SEQEND
  0
POLYLINE
  5
39a
  8
Layer_2
  62
91
  70
1
  66
1
  10
0
  20
0
  30
0
  0
VERTEX
  5
39a
  8
Layer_2
  10
57.488979
  20
130.01773
  0
VERTEX
  5
39b
  8
Layer_2
  10
57.65934
  20
129.92764
  0
VERTEX
  5
39c
  8
Layer_2
  10
57.838638
  20
129.87071
  0
VERTEX
  5
39d
  8
Layer_2
  10
58.022545
  20
129.84641
  0
VERTEX
  5
39e
  8
Layer_2
  10
58.206726
  20
129.85414
  0
VERTEX
  5
39f
  8
Layer_2
  10
58.386845
  20
129.89337
  0
VERTEX
  5
3a0
  8
Layer_2
  10
58.558571
  20
129.96355
  0
VERTEX
  5
3a1
  8
Layer_2
  10
58.717567
  20
130.06409
  0
VERTEX
  5
3a2
  8
Layer_2
  10
58.859505
  20
130.19446
  0
VERTEX
  5
3a3
  8
Layer_2
  10
59.013103
  20
130.38162
  0
VERTEX
  5
3a4
  8
Layer_2
  10
57.170113
  20
131.52338
  0
VERTEX
  5
3a5
  8
Layer_2
  10
57.056694
  20
131.29158
  0
VERTEX
  5
3a6
  8
Layer_2
  10
56.997692
  20
131.0434
  0
VERTEX
  5
3a7
  8
Layer_2
  10
56.994293
  20
130.7883
  0
VERTEX
  5
3a8
  8
Layer_2
  10
57.047665
  20
130.53583
  0
VERTEX
  5
3a9
  8
Layer_2
  10
57.122108
  20
130.37842
  0
VERTEX
  5
3aa
  8
Layer_2
  10
57.222252
  20
130.23753
  0
VERTEX
  5
3ab
  8
Layer_2
  10
57.345428
  20
130.11627
  0
VERTEX
  5
3ac
  8
Layer_2
  10
57.488979
  20
130.01773
  0
SEQEND
  0
POLYLINE
  5
3ae
  8
Layer_0
  62
0
  70
1
  66
1
  10
0
  20
0
  30
0
  0
VERTEX
  5
3ae
  8
Layer_0
  10
69.093292
  20
133.28879
  0
VERTEX
  5
3af
  8
Layer_0
  10
73.343727
  20
130.65556
  0
VERTEX
  5
3b0
  8
Layer_0
  10
71.763794
  20
128.1053
  0
VERTEX
  5
3b1
  8
Layer_0
  10
67.513359
  20
130.73853
  0
VERTEX
  5
3b2
  8
Layer_0
  10
69.093292
  20
133.28879
  0
SEQEND
  0
POLYLINE
  5
3b4
  8
Layer_0
  62
0
  70
1
  66
1
  10
0
  20
0
  30
0
  0
VERTEX
  5
3b4
  8
Layer_0
  10
60.633224
  20
138.52994
  0
VERTEX
  5
3b5
  8
Layer_0
  10
56.382793
  20
141.16315
  0
VERTEX
  5
3b6
  8
Layer_0
  10
54.802864
  20
138.61288
  0
VERTEX
  5
3b7
  8
Layer_0
  10
59.053295
  20
135.97968
  0
VERTEX
  5
3b8
  8
Layer_0
  10
60.633224
  20
138.52994
  0
SEQEND
  0
POLYLINE
  5
3ba
  8
Layer_0
  62
0
  70
1
  66
1
  10
0
  20
0
  30
0
  0
VERTEX
  5
3ba
  8
Layer_0
  10
50.06551
  20
138.60687
  0
VERTEX
  5
3bb
  8
Layer_0
  10
47.515255
  20
140.1868
  0
VERTEX
  5
3bc
  8
Layer_0
  10
44.882038
  20
135.93637
  0
VERTEX
  5
3bd
  8
Layer_0
  10
47.432293
  20
134.35645
  0
VERTEX
  5
3be
  8
Layer_0
  10
50.06551
  20
138.60687
  0
SEQEND
  0
POLYLINE
  5
3c0
  8
Layer_0
  62
0
  70
1
  66
1
  10
0
  20
0
  30
0
  0
VERTEX
  5
3c0
  8
Layer_0
  10
60.667007
  20
119.68739
  0
VERTEX
  5
3c1
  8
Layer_0
  10
64.917442
  20
117.05417
  0
VERTEX
  5
3c2
  8
Layer_0
  10
66.497368
  20
119.60443
  0
VERTEX
  5
3c3
  8
Layer_0
  10
62.246937
  20
122.23766
  0
VERTEX
  5
3c4
  8
Layer_0
  10
60.667007
  20
119.68739
  0
SEQEND
  0
POLYLINE
  5
3c6
  8
Layer_0
  62
0
  70
1
  66
1
  10
0
  20
0
  30
0
  0
VERTEX
  5
3c6
  8
Layer_0
  10
52.206936
  20
124.92854
  0
VERTEX
  5
3c7
  8
Layer_0
  10
47.956505
  20
127.56175
  0
VERTEX
  5
3c8
  8
Layer_0
  10
49.536434
  20
130.11201
  0
VERTEX
  5
3c9
  8
Layer_0
  10
53.786865
  20
127.47881
  0
VERTEX
  5
3ca
  8
Layer_0
  10
52.206936
  20
124.92854
  0
SEQEND
  0
POLYLINE
  5
3cc
  8
Layer_0
  62
0
  70
1
  66
1
  10
0
  20
0
  30
0
  0
VERTEX
  5
3cc
  8
Layer_0
  10
76.418198
  20
122.28094
  0
VERTEX
  5
3cd
  8
Layer_0
  10
73.867943
  20
123.86087
  0
VERTEX
  5
3ce
  8
Layer_0
  10
71.234726
  20
119.61044
  0
VERTEX
  5
3cf
  8
Layer_0
  10
73.784981
  20
118.03052
  0
VERTEX
  5
3d0
  8
Layer_0
  10
76.418198
  20
122.28094
  0
SEQEND
  0
POLYLINE
  5
3d2
  8
Layer_0
  62
0
  70
1
  66
1
  10
0
  20
0
  30
0
  0
VERTEX
  5
3d2
  8
Layer_0
  10
120.27124
  20
112.52542
  0
VERTEX
  5
3d3
  8
Layer_0
  10
129.33699
  20
110.54703
  0
VERTEX
  5
3d4
  8
Layer_0
  10
129.99341
  20
113.47906
  0
VERTEX
  5
3d5
  8
Layer_0
  10
120.92766
  20
115.45746
  0
VERTEX
  5
3d6
  8
Layer_0
  10
120.27124
  20
112.52542
  0
SEQEND
  0
POLYLINE
  5
3d8
  8
Layer_0
  62
0
  70
1
  66
1
  10
0
  20
0
  30
0
  0
VERTEX
  5
3d8
  8
Layer_0
  10
101.16969
  20
116.70131
  0
VERTEX
  5
3d9
  8
Layer_0
  10
110.23515
  20
114.72153
  0
VERTEX
  5
3da
  8
Layer_0
  10
110.89202
  20
117.65346
  0
VERTEX
  5
3db
  8
Layer_0
  10
101.82655
  20
119.63324
  0
VERTEX
  5
3dc
  8
Layer_0
  10
101.16969
  20
116.70131
  0
SEQEND
  0
POLYLINE
  5
3de
  8
Layer_0
  62
0
  70
1
  66
1
  10
0
  20
0
  30
0
  0
VERTEX
  5
3de
  8
Layer_0
  10
84.722038
  20
153.19301
  0
VERTEX
  5
3df
  8
Layer_0
  10
87.093559
  20
144.22208
  0
VERTEX
  5
3e0
  8
Layer_0
  10
90.00248
  20
144.97432
  0
VERTEX
  5
3e1
  8
Layer_0
  10
87.630959
  20
153.94525
  0
VERTEX
  5
3e2
  8
Layer_0
  10
84.722038
  20
153.19301
  0
SEQEND
  0
POLYLINE
  5
3e4
  8
Layer_0
  62
0
  70
1
  66
1
  10
0
  20
0
  30
0
  0
VERTEX
  5
3e4
  8
Layer_0
  10
89.714645
  20
134.28876
  0
VERTEX
  5
3e5
  8
Layer_0
  10
92.087532
  20
125.31818
  0
VERTEX
  5
3e6
  8
Layer_0
  10
94.996338
  20
126.07086
  0
VERTEX
  5
3e7
  8
Layer_0
  10
92.623451
  20
135.04144
  0
VERTEX
  5
3e8
  8
Layer_0
  10
89.714645
  20
134.28876
  0
SEQEND
  0
POLYLINE
  5
3ea
  8
Layer_0
  62
0
  70
1
  66
1
  10
0
  20
0
  30
0
  0
VERTEX
  5
3ea
  8
Layer_0
  10
80.544708
  20
160.80853
  0
VERTEX
  5
3eb
  8
Layer_0
  10
92.144806
  20
116.63904
  0
VERTEX
  5
3ec
  8
Layer_0
  10
137.45529
  20
106.66821
  0
VERTEX
  5
3ed
  8
Layer_0
  10
137.11168
  20
118.36493
  0
VERTEX
  5
3ee
  8
Layer_0
  10
135.38579
  20
163.33179
  0
VERTEX
  5
3ef
  8
Layer_0
  10
80.544708
  20
160.80853
  0
SEQEND
  0
POLYLINE
  5
3f1
  8
Layer_0
  62
0
  70
1
  66
1
  10
0
  20
0
  30
0
  0
VERTEX
  5
3f1
  8
Layer_0
  10
134.93732
  20
120.5146
  0
VERTEX
  5
3f2
  8
Layer_0
  10
134.51799
  20
129.78426
  0
VERTEX
  5
3f3
  8
Layer_0
  10
131.51575
  20
129.66466
  0
VERTEX
  5
3f4
  8
Layer_0
  10
131.93507
  20
120.395
  0
VERTEX
  5
3f5
  8
Layer_0
  10
134.93732
  20
120.5146
  0
SEQEND
  0
POLYLINE
  5
3f7
  8
Layer_0
  62
0
  70
1
  66
1
  10
0
  20
0
  30
0
  0
VERTEX
  5
3f7
  8
Layer_0
  10
133.9586
  20
140.07016
  0
VERTEX
  5
3f8
  8
Layer_0
  10
133.53787
  20
149.33971
  0
VERTEX
  5
3f9
  8
Layer_0
  10
130.53566
  20
149.21965
  0
VERTEX
  5
3fa
  8
Layer_0
  10
130.95639
  20
139.9501
  0
VERTEX
  5
3fb
  8
Layer_0
  10
133.9586
  20
140.07016
  0
SEQEND
  0
POLYLINE
  5
3fd
  8
Layer_3
  62
31
  70
1
  66
1
  10
0
  20
0
  30
0
  0
VERTEX
  5
3fd
  8
Layer_3
  10
116.53568
  20
129.69157
  0
VERTEX
  5
3fe
  8
Layer_3
  10
126.03659
  20
120.56267
  0
VERTEX
  5
3ff
  8
Layer_3
  10
128.11551
  20
122.72559
  0
VERTEX
  5
400
  8
Layer_3
  10
118.61459
  20
131.85449
  0
VERTEX
  5
401
  8
Layer_3
  10
116.53568
  20
129.69157
  0
SEQEND
  0
POLYLINE
  5
403
  8
Layer_3
  62
31
  70
1
  66
1
  10
0
  20
0
  30
0
  0
VERTEX
  5
403
  8
Layer_3
  10
95.168549
  20
150.22641
  0
VERTEX
  5
404
  8
Layer_3
  10
104.66943
  20
141.09752
  0
VERTEX
  5
405
  8
Layer_3
  10
106.74835
  20
143.26044
  0
VERTEX
  5
406
  8
Layer_3
  10
97.247437
  20
152.38933
  0
VERTEX
  5
407
  8
Layer_3
  10
95.168549
  20
150.22641
  0
SEQEND
  0
POLYLINE
  5
409
  8
Layer_0
  62
0
  70
1
  66
1
  10
0
  20
0
  30
0
  0
VERTEX
  5
409
  8
Layer_0
  10
122.45341
  20
160.8175
  0
VERTEX
  5
40a
  8
Layer_0
  10
113.18698
  20
160.33261
  0
VERTEX
  5
40b
  8
Layer_0
  10
113.32782
  20
157.3313
  0
VERTEX
  5
40c
  8
Layer_0
  10
122.59425
  20
157.81619
  0
VERTEX
  5
40d
  8
Layer_0
  10
122.45341
  20
160.8175
  0
SEQEND
  0
POLYLINE
  5
40f
  8
Layer_0
  62
0
  70
1
  66
1
  10
0
  20
0
  30
0
  0
VERTEX
  5
40f
  8
Layer_0
  10
102.90523
  20
159.69986
  0
VERTEX
  5
410
  8
Layer_0
  10
93.638855
  20
159.21359
  0
VERTEX
  5
411
  8
Layer_0
  10
93.780151
  20
156.21231
  0
VERTEX
  5
412
  8
Layer_0
  10
103.04652
  20
156.69858
  0
VERTEX
  5
413
  8
Layer_0
  10
102.90523
  20
159.69986
  0
SEQEND
  0
POLYLINE
  5
415
  8
Layer_0
  62
0
  70
1
  66
1
  10
0
  20
0
  30
0
  0
VERTEX
  5
415
  8
Layer_0
  10
112.75005
  20
135.00002
  0
VERTEX
  5
416
  8
Layer_0
  10
112.73068
  20
135.38342
  0
VERTEX
  5
417
  8
Layer_0
  10
112.67386
  20
135.75577
  0
VERTEX
  5
418
  8
Layer_0
  10
112.58145
  20
136.11514
  0
VERTEX
  5
419
  8
Layer_0
  10
112.45535
  20
136.45969
  0
VERTEX
  5
41a
  8
Layer_0
  10
112.29744
  20
136.78748
  0
VERTEX
  5
41b
  8
Layer_0
  10
112.1096
  20
137.09668
  0
VERTEX
  5
41c
  8
Layer_0
  10
111.89373
  20
137.38536
  0
VERTEX
  5
41d
  8
Layer_0
  10
111.6517
  20
137.65167
  0
VERTEX
  5
41e
  8
Layer_0
  10
111.38541
  20
137.89371
  0
VERTEX
  5
41f
  8
Layer_0
  10
111.09671
  20
138.10957
  0
VERTEX
  5
420
  8
Layer_0
  10
110.78752
  20
138.29741
  0
VERTEX
  5
421
  8
Layer_0
  10
110.45972
  20
138.45532
  0
VERTEX
  5
422
  8
Layer_0
  10
110.11519
  20
138.58142
  0
VERTEX
  5
423
  8
Layer_0
  10
109.75581
  20
138.67383
  0
VERTEX
  5
424
  8
Layer_0
  10
109.38346
  20
138.73065
  0
VERTEX
  5
425
  8
Layer_0
  10
109.00005
  20
138.75002
  0
VERTEX
  5
426
  8
Layer_0
  10
108.61663
  20
138.73065
  0
VERTEX
  5
427
  8
Layer_0
  10
108.24429
  20
138.67383
  0
VERTEX
  5
428
  8
Layer_0
  10
107.8849
  20
138.58142
  0
VERTEX
  5
429
  8
Layer_0
  10
107.54037
  20
138.45532
  0
VERTEX
  5
42a
  8
Layer_0
  10
107.21257
  20
138.29741
  0
VERTEX
  5
42b
  8
Layer_0
  10
106.90338
  20
138.10957
  0
VERTEX
  5
42c
  8
Layer_0
  10
106.61469
  20
137.89371
  0
VERTEX
  5
42d
  8
Layer_0
  10
106.34839
  20
137.65167
  0
VERTEX
  5
42e
  8
Layer_0
  10
106.10636
  20
137.38536
  0
VERTEX
  5
42f
  8
Layer_0
  10
105.89049
  20
137.09668
  0
VERTEX
  5
430
  8
Layer_0
  10
105.70265
  20
136.78748
  0
VERTEX
  5
431
  8
Layer_0
  10
105.54474
  20
136.45969
  0
VERTEX
  5
432
  8
Layer_0
  10
105.41864
  20
136.11514
  0
VERTEX
  5
433
  8
Layer_0
  10
105.32623
  20
135.75577
  0
VERTEX
  5
434
  8
Layer_0
  10
105.26941
  20
135.38342
  0
VERTEX
  5
435
  8
Layer_0
  10
105.25005
  20
135.00002
  0
VERTEX
  5
436
  8
Layer_0
  10
105.26941
  20
134.61661
  0
VERTEX
  5
437
  8
Layer_0
  10
105.32623
  20
134.24426
  0
VERTEX
  5
438
  8
Layer_0
  10
105.41864
  20
133.88489
  0
VERTEX
  5
439
  8
Layer_0
  10
105.54474
  20
133.54034
  0
VERTEX
  5
43a
  8
Layer_0
  10
105.70265
  20
133.21255
  0
VERTEX
  5
43b
  8
Layer_0
  10
105.89049
  20
132.90335
  0
VERTEX
  5
43c
  8
Layer_0
  10
106.10636
  20
132.61467
  0
VERTEX
  5
43d
  8
Layer_0
  10
106.34839
  20
132.34836
  0
VERTEX
  5
43e
  8
Layer_0
  10
106.61469
  20
132.10632
  0
VERTEX
  5
43f
  8
Layer_0
  10
106.90338
  20
131.89046
  0
VERTEX
  5
440
  8
Layer_0
  10
107.21257
  20
131.70262
  0
VERTEX
  5
441
  8
Layer_0
  10
107.54037
  20
131.54471
  0
VERTEX
  5
442
  8
Layer_0
  10
107.8849
  20
131.41861
  0
VERTEX
  5
443
  8
Layer_0
  10
108.24429
  20
131.3262
  0
VERTEX
  5
444
  8
Layer_0
  10
108.61663
  20
131.26938
  0
VERTEX
  5
445
  8
Layer_0
  10
109.00005
  20
131.25002
  0
VERTEX
  5
446
  8
Layer_0
  10
109.38346
  20
131.26938
  0
VERTEX
  5
447
  8
Layer_0
  10
109.75581
  20
131.3262
  0
VERTEX
  5
448
  8
Layer_0
  10
110.11519
  20
131.41861
  0
VERTEX
  5
449
  8
Layer_0
  10
110.45972
  20
131.54471
  0
VERTEX
  5
44a
  8
Layer_0
  10
110.78752
  20
131.70262
  0
VERTEX
  5
44b
  8
Layer_0
  10
111.09671
  20
131.89046
  0
VERTEX
  5
44c
  8
Layer_0
  10
111.38541
  20
132.10632
  0
VERTEX
  5
44d
  8
Layer_0
  10
111.6517
  20
132.34836
  0
VERTEX
  5
44e
  8
Layer_0
  10
111.89373
  20
132.61467
  0
VERTEX
  5
44f
  8
Layer_0
  10
112.1096
  20
132.90335
  0
VERTEX
  5
450
  8
Layer_0
  10
112.29744
  20
133.21255
  0
VERTEX
  5
451
  8
Layer_0
  10
112.45535
  20
133.54034
  0
VERTEX
  5
452
  8
Layer_0
  10
112.58145
  20
133.88489
  0
VERTEX
  5
453
  8
Layer_0
  10
112.67386
  20
134.24426
  0
VERTEX
  5
454
  8
Layer_0
  10
112.73068
  20
134.61661
  0
VERTEX
  5
455
  8
Layer_0
  10
112.75005
  20
135.00002
  0
SEQEND
  0
POLYLINE
  5
457
  8
Layer_0
  62
0
  70
1
  66
1
  10
0
  20
0
  30
0
  0
VERTEX
  5
457
  8
Layer_0
  10
107.32323
  20
132.00464
  0
VERTEX
  5
458
  8
Layer_0
  10
106.59081
  20
132.68549
  0
VERTEX
  5
459
  8
Layer_0
  10
91.897858
  20
116.88
  0
VERTEX
  5
45a
  8
Layer_0
  10
92.630272
  20
116.19914
  0
VERTEX
  5
45b
  8
Layer_0
  10
107.32323
  20
132.00464
  0
SEQEND
  0
ENDSEC
  0
EOF
