  0
SECTION
  2
HEADER
  9
$ACADVER
  1
AC1009
  0
ENDSEC
  0
SECTION
  2
ENTITIES
  0
POLYLINE
  5
90
  8
Layer_0
  62
0
  70
1
  66
1
  10
0
  20
0
  30
0
  0
VERTEX
  5
90
  8
Layer_0
  10
-31.126923
  20
448.85663
  0
VERTEX
  5
91
  8
Layer_0
  10
-31.126709
  20
451.86932
  0
VERTEX
  5
92
  8
Layer_0
  10
-26.197998
  20
451.86487
  0
VERTEX
  5
93
  8
Layer_0
  10
-26.284195
  20
448.85992
  0
VERTEX
  5
94
  8
Layer_0
  10
-26.509018
  20
448.86591
  0
VERTEX
  5
95
  8
Layer_0
  10
-26.475266
  20
408.79745
  0
VERTEX
  5
96
  8
Layer_0
  10
-26.263321
  20
408.75052
  0
VERTEX
  5
97
  8
Layer_0
  10
-26.150009
  20
405.74493
  0
VERTEX
  5
98
  8
Layer_0
  10
-31.100174
  20
405.75238
  0
VERTEX
  5
99
  8
Layer_0
  10
-31.080704
  20
408.80664
  0
VERTEX
  5
9a
  8
Layer_0
  10
-31.202576
  20
408.78827
  0
VERTEX
  5
9b
  8
Layer_0
  10
-31.203247
  20
405.75275
  0
VERTEX
  5
9c
  8
Layer_0
  10
-36.126282
  20
405.75815
  0
VERTEX
  5
9d
  8
Layer_0
  10
-36.040085
  20
408.76309
  0
VERTEX
  5
9e
  8
Layer_0
  10
-84.52536
  20
408.91068
  0
VERTEX
  5
9f
  8
Layer_0
  10
-84.412048
  20
405.90509
  0
VERTEX
  5
a0
  8
Layer_0
  10
-89.362305
  20
405.90887
  0
VERTEX
  5
a1
  8
Layer_0
  10
-89.359055
  20
408.93469
  0
VERTEX
  5
a2
  8
Layer_0
  10
-89.453781
  20
408.94177
  0
VERTEX
  5
a3
  8
Layer_0
  10
-89.463867
  20
405.90247
  0
VERTEX
  5
a4
  8
Layer_0
  10
-94.388321
  20
405.91833
  0
VERTEX
  5
a5
  8
Layer_0
  10
-94.302109
  20
408.92328
  0
VERTEX
  5
a6
  8
Layer_0
  10
-140.05942
  20
408.92255
  0
VERTEX
  5
a7
  8
Layer_0
  10
-139.94611
  20
405.91693
  0
VERTEX
  5
a8
  8
Layer_0
  10
-144.88867
  20
405.91409
  0
VERTEX
  5
a9
  8
Layer_0
  10
-144.87888
  20
408.87466
  0
VERTEX
  5
aa
  8
Layer_0
  10
-144.99133
  20
408.86566
  0
VERTEX
  5
ab
  8
Layer_0
  10
-145.01048
  20
405.91449
  0
VERTEX
  5
ac
  8
Layer_0
  10
-149.92236
  20
405.93018
  0
VERTEX
  5
ad
  8
Layer_0
  10
-149.83615
  20
408.93512
  0
VERTEX
  5
ae
  8
Layer_0
  10
-155.34244
  20
408.85071
  0
VERTEX
  5
af
  8
Layer_0
  10
-155.37122
  20
449.00375
  0
VERTEX
  5
b0
  8
Layer_0
  10
-149.85846
  20
449.01456
  0
VERTEX
  5
b1
  8
Layer_0
  10
-149.9071
  20
450.51758
  0
VERTEX
  5
b2
  8
Layer_0
  10
-149.97177
  20
452.02014
  0
VERTEX
  5
b3
  8
Layer_0
  10
-145.01788
  20
451.98096
  0
VERTEX
  5
b4
  8
Layer_0
  10
-145.02847
  20
448.78592
  0
VERTEX
  5
b5
  8
Layer_0
  10
-144.92017
  20
448.78558
  0
VERTEX
  5
b6
  8
Layer_0
  10
-144.92316
  20
451.97388
  0
VERTEX
  5
b7
  8
Layer_0
  10
-139.99551
  20
452.00693
  0
VERTEX
  5
b8
  8
Layer_0
  10
-140.08171
  20
449.00198
  0
VERTEX
  5
b9
  8
Layer_0
  10
-94.311539
  20
449.00854
  0
VERTEX
  5
ba
  8
Layer_0
  10
-94.424866
  20
452.01413
  0
VERTEX
  5
bb
  8
Layer_0
  10
-89.476593
  20
452.00702
  0
VERTEX
  5
bc
  8
Layer_0
  10
-89.486786
  20
448.76639
  0
VERTEX
  5
bd
  8
Layer_0
  10
-89.384064
  20
448.76602
  0
VERTEX
  5
be
  8
Layer_0
  10
-89.3685
  20
452.0108
  0
VERTEX
  5
bf
  8
Layer_0
  10
-84.448593
  20
452.00092
  0
VERTEX
  5
c0
  8
Layer_0
  10
-84.534805
  20
448.99597
  0
VERTEX
  5
c1
  8
Layer_0
  10
-36.060974
  20
448.8725
  0
VERTEX
  5
c2
  8
Layer_0
  10
-36.174301
  20
451.87811
  0
VERTEX
  5
c3
  8
Layer_0
  10
-31.224319
  20
451.86172
  0
VERTEX
  5
c4
  8
Layer_0
  10
-31.238052
  20
448.8584
  0
VERTEX
  5
c5
  8
Layer_0
  10
-31.126923
  20
448.85663
  0
SEQEND
  0
POLYLINE
  5
c7
  8
Layer_0
  62
0
  70
1
  66
1
  10
0
  20
0
  30
0
  0
VERTEX
  5
c7
  8
Layer_0
  10
-148.30557
  20
438.49414
  0
VERTEX
  5
c8
  8
Layer_0
  10
-148.32951
  20
443.49606
  0
VERTEX
  5
c9
  8
Layer_0
  10
-153.27466
  20
443.50165
  0
VERTEX
  5
ca
  8
Layer_0
  10
-153.25072
  20
438.49976
  0
VERTEX
  5
cb
  8
Layer_0
  10
-148.30557
  20
438.49414
  0
SEQEND
  0
POLYLINE
  5
cd
  8
Layer_0
  62
0
  70
1
  66
1
  10
0
  20
0
  30
0
  0
VERTEX
  5
cd
  8
Layer_0
  10
-148.45764
  20
413.69485
  0
VERTEX
  5
ce
  8
Layer_0
  10
-148.48158
  20
418.69678
  0
VERTEX
  5
cf
  8
Layer_0
  10
-153.42673
  20
418.70239
  0
VERTEX
  5
d0
  8
Layer_0
  10
-153.40279
  20
413.70047
  0
VERTEX
  5
d1
  8
Layer_0
  10
-148.45764
  20
413.69485
  0
SEQEND
  0
POLYLINE
  5
d3
  8
Layer_0
  62
0
  70
1
  66
1
  10
0
  20
0
  30
0
  0
VERTEX
  5
d3
  8
Layer_0
  10
112.13107
  20
456.70416
  0
VERTEX
  5
d4
  8
Layer_0
  10
115.17329
  20
456.70648
  0
VERTEX
  5
d5
  8
Layer_0
  10
115.19653
  20
461.64554
  0
VERTEX
  5
d6
  8
Layer_0
  10
112.19141
  20
461.55145
  0
VERTEX
  5
d7
  8
Layer_0
  10
112.21165
  20
496.86035
  0
VERTEX
  5
d8
  8
Layer_0
  10
113.71402
  20
496.79935
  0
VERTEX
  5
d9
  8
Layer_0
  10
115.21693
  20
496.75461
  0
VERTEX
  5
da
  8
Layer_0
  10
115.21681
  20
501.70599
  0
VERTEX
  5
db
  8
Layer_0
  10
112.07809
  20
501.69424
  0
VERTEX
  5
dc
  8
Layer_0
  10
112.06865
  20
501.7973
  0
VERTEX
  5
dd
  8
Layer_0
  10
115.21673
  20
501.81842
  0
VERTEX
  5
de
  8
Layer_0
  10
115.2162
  20
506.74646
  0
VERTEX
  5
df
  8
Layer_0
  10
112.21107
  20
506.65234
  0
VERTEX
  5
e0
  8
Layer_0
  10
112.16449
  20
507.56259
  0
VERTEX
  5
e1
  8
Layer_0
  10
72.171097
  20
507.56259
  0
VERTEX
  5
e2
  8
Layer_0
  10
72.12809
  20
506.6188
  0
VERTEX
  5
e3
  8
Layer_0
  10
69.122803
  20
506.72455
  0
VERTEX
  5
e4
  8
Layer_0
  10
69.110748
  20
501.78122
  0
VERTEX
  5
e5
  8
Layer_0
  10
72.129868
  20
501.76996
  0
VERTEX
  5
e6
  8
Layer_0
  10
72.123169
  20
501.68195
  0
VERTEX
  5
e7
  8
Layer_0
  10
69.104065
  20
501.67969
  0
VERTEX
  5
e8
  8
Layer_0
  10
69.123535
  20
496.73273
  0
VERTEX
  5
e9
  8
Layer_0
  10
72.128662
  20
496.82681
  0
VERTEX
  5
ea
  8
Layer_0
  10
72.108353
  20
461.51788
  0
VERTEX
  5
eb
  8
Layer_0
  10
69.103065
  20
461.62363
  0
VERTEX
  5
ec
  8
Layer_0
  10
69.106789
  20
456.67365
  0
VERTEX
  5
ed
  8
Layer_0
  10
72.106995
  20
456.6925
  0
VERTEX
  5
ee
  8
Layer_0
  10
72.115044
  20
456.57306
  0
VERTEX
  5
ef
  8
Layer_0
  10
69.096733
  20
456.57077
  0
VERTEX
  5
f0
  8
Layer_0
  10
69.10379
  20
451.63181
  0
VERTEX
  5
f1
  8
Layer_0
  10
72.108925
  20
451.72589
  0
VERTEX
  5
f2
  8
Layer_0
  10
72.062302
  20
450.9292
  0
VERTEX
  5
f3
  8
Layer_0
  10
112.10233
  20
450.93735
  0
VERTEX
  5
f4
  8
Layer_0
  10
112.09408
  20
451.75095
  0
VERTEX
  5
f5
  8
Layer_0
  10
115.19727
  20
451.65369
  0
VERTEX
  5
f6
  8
Layer_0
  10
115.1654
  20
456.60294
  0
VERTEX
  5
f7
  8
Layer_0
  10
112.13114
  20
456.60065
  0
VERTEX
  5
f8
  8
Layer_0
  10
112.13107
  20
456.70416
  0
SEQEND
  0
POLYLINE
  5
fa
  8
Layer_0
  62
0
  70
1
  66
1
  10
0
  20
0
  30
0
  0
VERTEX
  5
fa
  8
Layer_0
  10
-216.51288
  20
407.96729
  0
VERTEX
  5
fb
  8
Layer_0
  10
-216.63101
  20
407.96463
  0
VERTEX
  5
fc
  8
Layer_0
  10
-216.61212
  20
404.88055
  0
VERTEX
  5
fd
  8
Layer_0
  10
-221.56081
  20
404.86298
  0
VERTEX
  5
fe
  8
Layer_0
  10
-221.43533
  20
407.9173
  0
VERTEX
  5
ff
  8
Layer_0
  10
-275.22766
  20
407.85855
  0
VERTEX
  5
100
  8
Layer_0
  10
-275.14032
  20
404.85425
  0
VERTEX
  5
101
  8
Layer_0
  10
-280.06805
  20
404.83249
  0
VERTEX
  5
102
  8
Layer_0
  10
-280.07599
  20
407.83884
  0
VERTEX
  5
103
  8
Layer_0
  10
-280.18024
  20
407.83737
  0
VERTEX
  5
104
  8
Layer_0
  10
-280.1705
  20
404.83456
  0
VERTEX
  5
105
  8
Layer_0
  10
-285.11584
  20
404.83545
  0
VERTEX
  5
106
  8
Layer_0
  10
-285.00369
  20
407.84048
  0
VERTEX
  5
107
  8
Layer_0
  10
-289.53491
  20
407.83676
  0
VERTEX
  5
108
  8
Layer_0
  10
-289.53214
  20
447.80505
  0
VERTEX
  5
109
  8
Layer_0
  10
-285.00372
  20
447.91705
  0
VERTEX
  5
10a
  8
Layer_0
  10
-285.09106
  20
450.87216
  0
VERTEX
  5
10b
  8
Layer_0
  10
-280.33508
  20
450.83496
  0
VERTEX
  5
10c
  8
Layer_0
  10
-280.32321
  20
447.81482
  0
VERTEX
  5
10d
  8
Layer_0
  10
-280.22083
  20
447.81522
  0
VERTEX
  5
10e
  8
Layer_0
  10
-280.2327
  20
450.83533
  0
VERTEX
  5
10f
  8
Layer_0
  10
-275.11023
  20
450.87216
  0
VERTEX
  5
110
  8
Layer_0
  10
-275.17764
  20
447.91705
  0
VERTEX
  5
111
  8
Layer_0
  10
-221.43535
  20
447.99078
  0
VERTEX
  5
112
  8
Layer_0
  10
-221.56795
  20
451.06769
  0
VERTEX
  5
113
  8
Layer_0
  10
-216.83023
  20
451.08405
  0
VERTEX
  5
114
  8
Layer_0
  10
-216.81818
  20
448.02216
  0
VERTEX
  5
115
  8
Layer_0
  10
-216.71906
  20
448.01749
  0
VERTEX
  5
116
  8
Layer_0
  10
-216.73108
  20
451.07809
  0
VERTEX
  5
117
  8
Layer_0
  10
-211.599
  20
451.06769
  0
VERTEX
  5
118
  8
Layer_0
  10
-211.71519
  20
447.99081
  0
VERTEX
  5
119
  8
Layer_0
  10
-177.98988
  20
447.97736
  0
VERTEX
  5
11a
  8
Layer_0
  10
-178.12183
  20
450.98776
  0
VERTEX
  5
11b
  8
Layer_0
  10
-173.33813
  20
451.00391
  0
VERTEX
  5
11c
  8
Layer_0
  10
-173.32187
  20
447.98792
  0
VERTEX
  5
11d
  8
Layer_0
  10
-173.20757
  20
447.98254
  0
VERTEX
  5
11e
  8
Layer_0
  10
-173.21729
  20
450.99866
  0
VERTEX
  5
11f
  8
Layer_0
  10
-168.12436
  20
450.98773
  0
VERTEX
  5
120
  8
Layer_0
  10
-168.18654
  20
448.00281
  0
VERTEX
  5
121
  8
Layer_0
  10
-166.92468
  20
448.00162
  0
VERTEX
  5
122
  8
Layer_0
  10
-166.90143
  20
442.28687
  0
VERTEX
  5
123
  8
Layer_0
  10
-163.53186
  20
442.30057
  0
VERTEX
  5
124
  8
Layer_0
  10
-160.16245
  20
442.28223
  0
VERTEX
  5
125
  8
Layer_0
  10
-160.14758
  20
437.78223
  0
VERTEX
  5
126
  8
Layer_0
  10
-166.88354
  20
437.8295
  0
VERTEX
  5
127
  8
Layer_0
  10
-166.82668
  20
417.46603
  0
VERTEX
  5
128
  8
Layer_0
  10
-163.45406
  20
417.48419
  0
VERTEX
  5
129
  8
Layer_0
  10
-160.08099
  20
417.51031
  0
VERTEX
  5
12a
  8
Layer_0
  10
-160.06616
  20
413.01038
  0
VERTEX
  5
12b
  8
Layer_0
  10
-166.79008
  20
413.01248
  0
VERTEX
  5
12c
  8
Layer_0
  10
-166.79327
  20
408.19244
  0
VERTEX
  5
12d
  8
Layer_0
  10
-168.2117
  20
408.17596
  0
VERTEX
  5
12e
  8
Layer_0
  10
-168.12436
  20
405.17169
  0
VERTEX
  5
12f
  8
Layer_0
  10
-173.04677
  20
405.17487
  0
VERTEX
  5
130
  8
Layer_0
  10
-173.05656
  20
408.18085
  0
VERTEX
  5
131
  8
Layer_0
  10
-173.16016
  20
408.18622
  0
VERTEX
  5
132
  8
Layer_0
  10
-173.14993
  20
405.1723
  0
VERTEX
  5
133
  8
Layer_0
  10
-178.09988
  20
405.15286
  0
VERTEX
  5
134
  8
Layer_0
  10
-177.98773
  20
408.1579
  0
VERTEX
  5
135
  8
Layer_0
  10
-211.67276
  20
407.92453
  0
VERTEX
  5
136
  8
Layer_0
  10
-211.59901
  20
404.87097
  0
VERTEX
  5
137
  8
Layer_0
  10
-216.51239
  20
404.87573
  0
VERTEX
  5
138
  8
Layer_0
  10
-216.51288
  20
407.96729
  0
SEQEND
  0
POLYLINE
  5
13a
  8
Layer_0
  62
0
  70
1
  66
1
  10
0
  20
0
  30
0
  0
VERTEX
  5
13a
  8
Layer_0
  10
-170.54034
  20
504.33673
  0
VERTEX
  5
13b
  8
Layer_0
  10
-170.43764
  20
504.34119
  0
VERTEX
  5
13c
  8
Layer_0
  10
-170.41544
  20
507.38568
  0
VERTEX
  5
13d
  8
Layer_0
  10
-165.5022
  20
507.36591
  0
VERTEX
  5
13e
  8
Layer_0
  10
-165.59076
  20
504.36105
  0
VERTEX
  5
13f
  8
Layer_0
  10
-160.08395
  20
504.38153
  0
VERTEX
  5
140
  8
Layer_0
  10
-160.07892
  20
464.42896
  0
VERTEX
  5
141
  8
Layer_0
  10
-162.83774
  20
464.42404
  0
VERTEX
  5
142
  8
Layer_0
  10
-165.59468
  20
464.42712
  0
VERTEX
  5
143
  8
Layer_0
  10
-165.48372
  20
461.42145
  0
VERTEX
  5
144
  8
Layer_0
  10
-170.43176
  20
461.4245
  0
VERTEX
  5
145
  8
Layer_0
  10
-170.41908
  20
464.4455
  0
VERTEX
  5
146
  8
Layer_0
  10
-170.52122
  20
464.4408
  0
VERTEX
  5
147
  8
Layer_0
  10
-170.53391
  20
461.42493
  0
VERTEX
  5
148
  8
Layer_0
  10
-175.45996
  20
461.4425
  0
VERTEX
  5
149
  8
Layer_0
  10
-175.3714
  20
464.44739
  0
VERTEX
  5
14a
  8
Layer_0
  10
-221.09735
  20
464.47266
  0
VERTEX
  5
14b
  8
Layer_0
  10
-220.98639
  20
461.46698
  0
VERTEX
  5
14c
  8
Layer_0
  10
-225.93896
  20
461.474
  0
VERTEX
  5
14d
  8
Layer_0
  10
-225.92178
  20
464.48163
  0
VERTEX
  5
14e
  8
Layer_0
  10
-226.02444
  20
464.48694
  0
VERTEX
  5
14f
  8
Layer_0
  10
-226.03677
  20
461.47931
  0
VERTEX
  5
150
  8
Layer_0
  10
-230.96265
  20
461.48807
  0
VERTEX
  5
151
  8
Layer_0
  10
-230.87405
  20
464.49292
  0
VERTEX
  5
152
  8
Layer_0
  10
-279.43109
  20
464.48315
  0
VERTEX
  5
153
  8
Layer_0
  10
-279.32013
  20
461.47748
  0
VERTEX
  5
154
  8
Layer_0
  10
-284.26944
  20
461.49719
  0
VERTEX
  5
155
  8
Layer_0
  10
-284.26089
  20
464.49866
  0
VERTEX
  5
156
  8
Layer_0
  10
-284.35712
  20
464.49677
  0
VERTEX
  5
157
  8
Layer_0
  10
-284.36847
  20
461.48648
  0
VERTEX
  5
158
  8
Layer_0
  10
-289.29639
  20
461.4986
  0
VERTEX
  5
159
  8
Layer_0
  10
-289.20782
  20
464.50345
  0
VERTEX
  5
15a
  8
Layer_0
  10
-288.92316
  20
464.5166
  0
VERTEX
  5
15b
  8
Layer_0
  10
-288.9494
  20
465.28583
  0
VERTEX
  5
15c
  8
Layer_0
  10
-288.92542
  20
465.29398
  0
VERTEX
  5
15d
  8
Layer_0
  10
-289.06842
  20
504.42328
  0
VERTEX
  5
15e
  8
Layer_0
  10
-289.20386
  20
504.43738
  0
VERTEX
  5
15f
  8
Layer_0
  10
-289.31482
  20
507.44305
  0
VERTEX
  5
160
  8
Layer_0
  10
-284.36566
  20
507.42117
  0
VERTEX
  5
161
  8
Layer_0
  10
-284.3714
  20
504.42761
  0
VERTEX
  5
162
  8
Layer_0
  10
-284.28131
  20
504.42725
  0
VERTEX
  5
163
  8
Layer_0
  10
-284.26892
  20
507.43179
  0
VERTEX
  5
164
  8
Layer_0
  10
-279.33856
  20
507.42194
  0
VERTEX
  5
165
  8
Layer_0
  10
-279.42712
  20
504.41711
  0
VERTEX
  5
166
  8
Layer_0
  10
-230.87013
  20
504.42685
  0
VERTEX
  5
167
  8
Layer_0
  10
-230.98108
  20
507.43256
  0
VERTEX
  5
168
  8
Layer_0
  10
-226.04599
  20
507.39951
  0
VERTEX
  5
169
  8
Layer_0
  10
-226.04416
  20
504.30701
  0
VERTEX
  5
16a
  8
Layer_0
  10
-225.94261
  20
504.31335
  0
VERTEX
  5
16b
  8
Layer_0
  10
-225.92317
  20
507.39993
  0
VERTEX
  5
16c
  8
Layer_0
  10
-221.00481
  20
507.41147
  0
VERTEX
  5
16d
  8
Layer_0
  10
-221.09341
  20
504.40659
  0
VERTEX
  5
16e
  8
Layer_0
  10
-175.36746
  20
504.38132
  0
VERTEX
  5
16f
  8
Layer_0
  10
-175.47842
  20
507.38702
  0
VERTEX
  5
170
  8
Layer_0
  10
-170.52847
  20
507.3667
  0
VERTEX
  5
171
  8
Layer_0
  10
-170.54034
  20
504.33673
  0
SEQEND
  0
POLYLINE
  5
173
  8
Layer_0
  62
0
  70
1
  66
1
  10
0
  20
0
  30
0
  0
VERTEX
  5
173
  8
Layer_0
  10
-166.97383
  20
499.54053
  0
VERTEX
  5
174
  8
Layer_0
  10
-166.95251
  20
494.53857
  0
VERTEX
  5
175
  8
Layer_0
  10
-162.00737
  20
494.5304
  0
VERTEX
  5
176
  8
Layer_0
  10
-162.02869
  20
499.53232
  0
VERTEX
  5
177
  8
Layer_0
  10
-166.97383
  20
499.54053
  0
SEQEND
  0
POLYLINE
  5
179
  8
Layer_0
  62
0
  70
1
  66
1
  10
0
  20
0
  30
0
  0
VERTEX
  5
179
  8
Layer_0
  10
-167.1389
  20
474.7413
  0
VERTEX
  5
17a
  8
Layer_0
  10
-167.11758
  20
469.73938
  0
VERTEX
  5
17b
  8
Layer_0
  10
-162.17245
  20
469.73117
  0
VERTEX
  5
17c
  8
Layer_0
  10
-162.19377
  20
474.73309
  0
VERTEX
  5
17d
  8
Layer_0
  10
-167.1389
  20
474.7413
  0
SEQEND
  0
POLYLINE
  5
17f
  8
Layer_0
  62
0
  70
1
  66
1
  10
0
  20
0
  30
0
  0
VERTEX
  5
17f
  8
Layer_0
  10
112.13107
  20
398.70416
  0
VERTEX
  5
180
  8
Layer_0
  10
115.17329
  20
398.70648
  0
VERTEX
  5
181
  8
Layer_0
  10
115.19653
  20
403.64554
  0
VERTEX
  5
182
  8
Layer_0
  10
112.19141
  20
403.55145
  0
VERTEX
  5
183
  8
Layer_0
  10
112.21165
  20
438.86035
  0
VERTEX
  5
184
  8
Layer_0
  10
113.71402
  20
438.79935
  0
VERTEX
  5
185
  8
Layer_0
  10
115.21693
  20
438.75461
  0
VERTEX
  5
186
  8
Layer_0
  10
115.21681
  20
443.70599
  0
VERTEX
  5
187
  8
Layer_0
  10
112.07809
  20
443.69424
  0
VERTEX
  5
188
  8
Layer_0
  10
112.06865
  20
443.7973
  0
VERTEX
  5
189
  8
Layer_0
  10
115.21673
  20
443.81842
  0
VERTEX
  5
18a
  8
Layer_0
  10
115.2162
  20
448.74646
  0
VERTEX
  5
18b
  8
Layer_0
  10
112.21107
  20
448.65234
  0
VERTEX
  5
18c
  8
Layer_0
  10
112.16449
  20
449.56259
  0
VERTEX
  5
18d
  8
Layer_0
  10
72.171097
  20
449.56259
  0
VERTEX
  5
18e
  8
Layer_0
  10
72.12809
  20
448.6188
  0
VERTEX
  5
18f
  8
Layer_0
  10
69.122803
  20
448.72455
  0
VERTEX
  5
190
  8
Layer_0
  10
69.110748
  20
443.78122
  0
VERTEX
  5
191
  8
Layer_0
  10
72.129868
  20
443.76996
  0
VERTEX
  5
192
  8
Layer_0
  10
72.123169
  20
443.68195
  0
VERTEX
  5
193
  8
Layer_0
  10
69.104065
  20
443.67969
  0
VERTEX
  5
194
  8
Layer_0
  10
69.123535
  20
438.73273
  0
VERTEX
  5
195
  8
Layer_0
  10
72.128662
  20
438.82681
  0
VERTEX
  5
196
  8
Layer_0
  10
72.108353
  20
403.51788
  0
VERTEX
  5
197
  8
Layer_0
  10
69.103065
  20
403.62363
  0
VERTEX
  5
198
  8
Layer_0
  10
69.106789
  20
398.67365
  0
VERTEX
  5
199
  8
Layer_0
  10
72.106995
  20
398.6925
  0
VERTEX
  5
19a
  8
Layer_0
  10
72.115044
  20
398.57306
  0
VERTEX
  5
19b
  8
Layer_0
  10
69.096733
  20
398.5708
  0
VERTEX
  5
19c
  8
Layer_0
  10
69.10379
  20
393.63177
  0
VERTEX
  5
19d
  8
Layer_0
  10
72.108925
  20
393.72589
  0
VERTEX
  5
19e
  8
Layer_0
  10
72.062302
  20
392.9292
  0
VERTEX
  5
19f
  8
Layer_0
  10
112.10233
  20
392.93735
  0
VERTEX
  5
1a0
  8
Layer_0
  10
112.09408
  20
393.75095
  0
VERTEX
  5
1a1
  8
Layer_0
  10
115.19727
  20
393.65369
  0
VERTEX
  5
1a2
  8
Layer_0
  10
115.1654
  20
398.60294
  0
VERTEX
  5
1a3
  8
Layer_0
  10
112.13114
  20
398.60065
  0
VERTEX
  5
1a4
  8
Layer_0
  10
112.13107
  20
398.70416
  0
SEQEND
  0
POLYLINE
  5
1a6
  8
Layer_0
  62
0
  70
1
  66
1
  10
0
  20
0
  30
0
  0
VERTEX
  5
1a6
  8
Layer_0
  10
-129.72495
  20
480.70151
  0
VERTEX
  5
1a7
  8
Layer_0
  10
-129.73242
  20
480.2215
  0
VERTEX
  5
1a8
  8
Layer_0
  10
-130.1954
  20
480.23056
  0
VERTEX
  5
1a9
  8
Layer_0
  10
-130.65813
  20
480.21991
  0
VERTEX
  5
1aa
  8
Layer_0
  10
-131.12
  20
480.18951
  0
VERTEX
  5
1ab
  8
Layer_0
  10
-131.58034
  20
480.13947
  0
VERTEX
  5
1ac
  8
Layer_0
  10
-131.82057
  20
480.06699
  0
VERTEX
  5
1ad
  8
Layer_0
  10
-132.04681
  20
479.96136
  0
VERTEX
  5
1ae
  8
Layer_0
  10
-132.25568
  20
479.82458
  0
VERTEX
  5
1af
  8
Layer_0
  10
-132.4438
  20
479.65854
  0
VERTEX
  5
1b0
  8
Layer_0
  10
-132.57008
  20
479.43304
  0
VERTEX
  5
1b1
  8
Layer_0
  10
-132.65952
  20
479.19214
  0
VERTEX
  5
1b2
  8
Layer_0
  10
-132.71083
  20
478.9404
  0
VERTEX
  5
1b3
  8
Layer_0
  10
-132.72273
  20
478.68222
  0
VERTEX
  5
1b4
  8
Layer_0
  10
-132.74496
  20
478.35815
  0
VERTEX
  5
1b5
  8
Layer_0
  10
-132.70438
  20
478.04532
  0
VERTEX
  5
1b6
  8
Layer_0
  10
-132.606
  20
477.75098
  0
VERTEX
  5
1b7
  8
Layer_0
  10
-132.45494
  20
477.48242
  0
VERTEX
  5
1b8
  8
Layer_0
  10
-132.25621
  20
477.24692
  0
VERTEX
  5
1b9
  8
Layer_0
  10
-132.01489
  20
477.05176
  0
VERTEX
  5
1ba
  8
Layer_0
  10
-131.73604
  20
476.90424
  0
VERTEX
  5
1bb
  8
Layer_0
  10
-131.4247
  20
476.81165
  0
VERTEX
  5
1bc
  8
Layer_0
  10
-131.00299
  20
476.75388
  0
VERTEX
  5
1bd
  8
Layer_0
  10
-130.57899
  20
476.72156
  0
VERTEX
  5
1be
  8
Layer_0
  10
-130.15382
  20
476.71475
  0
VERTEX
  5
1bf
  8
Layer_0
  10
-129.72861
  20
476.73349
  0
VERTEX
  5
1c0
  8
Layer_0
  10
-129.72809
  20
476.26151
  0
VERTEX
  5
1c1
  8
Layer_0
  10
-130.21631
  20
476.24057
  0
VERTEX
  5
1c2
  8
Layer_0
  10
-130.70422
  20
476.2533
  0
VERTEX
  5
1c3
  8
Layer_0
  10
-131.19012
  20
476.29962
  0
VERTEX
  5
1c4
  8
Layer_0
  10
-131.67223
  20
476.37936
  0
VERTEX
  5
1c5
  8
Layer_0
  10
-132.03481
  20
476.50015
  0
VERTEX
  5
1c6
  8
Layer_0
  10
-132.36148
  20
476.67999
  0
VERTEX
  5
1c7
  8
Layer_0
  10
-132.647
  20
476.91162
  0
VERTEX
  5
1c8
  8
Layer_0
  10
-132.88618
  20
477.18777
  0
VERTEX
  5
1c9
  8
Layer_0
  10
-133.07376
  20
477.50128
  0
VERTEX
  5
1ca
  8
Layer_0
  10
-133.20451
  20
477.84494
  0
VERTEX
  5
1cb
  8
Layer_0
  10
-133.27321
  20
478.21146
  0
VERTEX
  5
1cc
  8
Layer_0
  10
-133.27464
  20
478.59363
  0
VERTEX
  5
1cd
  8
Layer_0
  10
-133.25734
  20
478.88687
  0
VERTEX
  5
1ce
  8
Layer_0
  10
-133.21288
  20
479.17657
  0
VERTEX
  5
1cf
  8
Layer_0
  10
-133.14162
  20
479.46085
  0
VERTEX
  5
1d0
  8
Layer_0
  10
-133.0439
  20
479.73785
  0
VERTEX
  5
1d1
  8
Layer_0
  10
-132.81516
  20
480.04468
  0
VERTEX
  5
1d2
  8
Layer_0
  10
-132.52899
  20
480.2923
  0
VERTEX
  5
1d3
  8
Layer_0
  10
-132.19652
  20
480.47302
  0
VERTEX
  5
1d4
  8
Layer_0
  10
-131.82881
  20
480.57919
  0
VERTEX
  5
1d5
  8
Layer_0
  10
-131.29289
  20
480.67548
  0
VERTEX
  5
1d6
  8
Layer_0
  10
-130.74895
  20
480.70038
  0
VERTEX
  5
1d7
  8
Layer_0
  10
-129.72495
  20
480.70151
  0
SEQEND
  0
POLYLINE
  5
1d9
  8
Layer_0
  62
0
  70
1
  66
1
  10
0
  20
0
  30
0
  0
VERTEX
  5
1d9
  8
Layer_0
  10
-128.20415
  20
487.28717
  0
VERTEX
  5
1da
  8
Layer_0
  10
-127.68486
  20
487.26407
  0
VERTEX
  5
1db
  8
Layer_0
  10
-127.17879
  20
487.16028
  0
VERTEX
  5
1dc
  8
Layer_0
  10
-126.69524
  20
486.97845
  0
VERTEX
  5
1dd
  8
Layer_0
  10
-126.24353
  20
486.72131
  0
VERTEX
  5
1de
  8
Layer_0
  10
-125.9944
  20
486.47583
  0
VERTEX
  5
1df
  8
Layer_0
  10
-125.79495
  20
486.19183
  0
VERTEX
  5
1e0
  8
Layer_0
  10
-125.64947
  20
485.87677
  0
VERTEX
  5
1e1
  8
Layer_0
  10
-125.56223
  20
485.53806
  0
VERTEX
  5
1e2
  8
Layer_0
  10
-125.50893
  20
485.24628
  0
VERTEX
  5
1e3
  8
Layer_0
  10
-125.48713
  20
484.953
  0
VERTEX
  5
1e4
  8
Layer_0
  10
-125.49635
  20
484.66064
  0
VERTEX
  5
1e5
  8
Layer_0
  10
-125.53615
  20
484.37164
  0
VERTEX
  5
1e6
  8
Layer_0
  10
-125.60606
  20
484.08838
  0
VERTEX
  5
1e7
  8
Layer_0
  10
-125.7056
  20
483.81335
  0
VERTEX
  5
1e8
  8
Layer_0
  10
-125.83434
  20
483.54895
  0
VERTEX
  5
1e9
  8
Layer_0
  10
-125.99179
  20
483.29758
  0
VERTEX
  5
1ea
  8
Layer_0
  10
-126.19383
  20
483.08948
  0
VERTEX
  5
1eb
  8
Layer_0
  10
-126.42215
  20
482.91302
  0
VERTEX
  5
1ec
  8
Layer_0
  10
-126.67312
  20
482.77057
  0
VERTEX
  5
1ed
  8
Layer_0
  10
-126.94308
  20
482.66455
  0
VERTEX
  5
1ee
  8
Layer_0
  10
-126.62569
  20
482.60724
  0
VERTEX
  5
1ef
  8
Layer_0
  10
-126.32879
  20
482.48941
  0
VERTEX
  5
1f0
  8
Layer_0
  10
-126.06087
  20
482.31546
  0
VERTEX
  5
1f1
  8
Layer_0
  10
-125.83046
  20
482.08975
  0
VERTEX
  5
1f2
  8
Layer_0
  10
-125.72176
  20
481.8869
  0
VERTEX
  5
1f3
  8
Layer_0
  10
-125.65576
  20
481.67307
  0
VERTEX
  5
1f4
  8
Layer_0
  10
-125.63147
  20
481.4541
  0
VERTEX
  5
1f5
  8
Layer_0
  10
-125.64789
  20
481.23596
  0
VERTEX
  5
1f6
  8
Layer_0
  10
-125.70402
  20
481.02451
  0
VERTEX
  5
1f7
  8
Layer_0
  10
-125.79886
  20
480.82568
  0
VERTEX
  5
1f8
  8
Layer_0
  10
-125.93142
  20
480.64539
  0
VERTEX
  5
1f9
  8
Layer_0
  10
-126.10071
  20
480.48947
  0
VERTEX
  5
1fa
  8
Layer_0
  10
-126.23505
  20
480.40982
  0
VERTEX
  5
1fb
  8
Layer_0
  10
-126.38057
  20
480.35315
  0
VERTEX
  5
1fc
  8
Layer_0
  10
-126.08782
  20
480.23602
  0
VERTEX
  5
1fd
  8
Layer_0
  10
-125.82401
  20
480.07541
  0
VERTEX
  5
1fe
  8
Layer_0
  10
-125.59273
  20
479.87637
  0
VERTEX
  5
1ff
  8
Layer_0
  10
-125.39758
  20
479.64398
  0
VERTEX
  5
200
  8
Layer_0
  10
-125.24218
  20
479.38336
  0
VERTEX
  5
201
  8
Layer_0
  10
-125.13013
  20
479.09955
  0
VERTEX
  5
202
  8
Layer_0
  10
-125.06503
  20
478.79758
  0
VERTEX
  5
203
  8
Layer_0
  10
-125.05051
  20
478.4826
  0
VERTEX
  5
204
  8
Layer_0
  10
-125.03342
  20
478.21136
  0
VERTEX
  5
205
  8
Layer_0
  10
-125.05438
  20
477.9444
  0
VERTEX
  5
206
  8
Layer_0
  10
-125.11177
  20
477.68536
  0
VERTEX
  5
207
  8
Layer_0
  10
-125.20397
  20
477.43781
  0
VERTEX
  5
208
  8
Layer_0
  10
-125.32936
  20
477.20526
  0
VERTEX
  5
209
  8
Layer_0
  10
-125.48633
  20
476.99136
  0
VERTEX
  5
20a
  8
Layer_0
  10
-125.67324
  20
476.79965
  0
VERTEX
  5
20b
  8
Layer_0
  10
-125.88849
  20
476.6337
  0
VERTEX
  5
20c
  8
Layer_0
  10
-126.28689
  20
476.46436
  0
VERTEX
  5
20d
  8
Layer_0
  10
-126.70145
  20
476.34555
  0
VERTEX
  5
20e
  8
Layer_0
  10
-127.12743
  20
476.27838
  0
VERTEX
  5
20f
  8
Layer_0
  10
-127.56009
  20
476.26385
  0
VERTEX
  5
210
  8
Layer_0
  10
-128.20808
  20
476.26315
  0
VERTEX
  5
211
  8
Layer_0
  10
-128.2086
  20
476.72717
  0
VERTEX
  5
212
  8
Layer_0
  10
-127.74025
  20
476.71271
  0
VERTEX
  5
213
  8
Layer_0
  10
-127.2739
  20
476.74451
  0
VERTEX
  5
214
  8
Layer_0
  10
-126.81294
  20
476.82211
  0
VERTEX
  5
215
  8
Layer_0
  10
-126.36082
  20
476.94519
  0
VERTEX
  5
216
  8
Layer_0
  10
-126.20004
  20
477.02637
  0
VERTEX
  5
217
  8
Layer_0
  10
-126.05499
  20
477.1283
  0
VERTEX
  5
218
  8
Layer_0
  10
-125.92722
  20
477.24881
  0
VERTEX
  5
219
  8
Layer_0
  10
-125.81828
  20
477.38556
  0
VERTEX
  5
21a
  8
Layer_0
  10
-125.72975
  20
477.53632
  0
VERTEX
  5
21b
  8
Layer_0
  10
-125.66316
  20
477.69882
  0
VERTEX
  5
21c
  8
Layer_0
  10
-125.62007
  20
477.87082
  0
VERTEX
  5
21d
  8
Layer_0
  10
-125.60204
  20
478.05002
  0
VERTEX
  5
21e
  8
Layer_0
  10
-125.56685
  20
478.41974
  0
VERTEX
  5
21f
  8
Layer_0
  10
-125.59633
  20
478.78723
  0
VERTEX
  5
220
  8
Layer_0
  10
-125.68906
  20
479.14404
  0
VERTEX
  5
221
  8
Layer_0
  10
-125.84361
  20
479.48175
  0
VERTEX
  5
222
  8
Layer_0
  10
-126.07669
  20
479.74615
  0
VERTEX
  5
223
  8
Layer_0
  10
-126.35747
  20
479.95282
  0
VERTEX
  5
224
  8
Layer_0
  10
-126.6755
  20
480.09564
  0
VERTEX
  5
225
  8
Layer_0
  10
-127.02036
  20
480.16846
  0
VERTEX
  5
226
  8
Layer_0
  10
-127.61118
  20
480.22253
  0
VERTEX
  5
227
  8
Layer_0
  10
-128.20442
  20
480.21515
  0
VERTEX
  5
228
  8
Layer_0
  10
-128.20494
  20
480.69516
  0
VERTEX
  5
229
  8
Layer_0
  10
-127.04494
  20
480.69644
  0
VERTEX
  5
22a
  8
Layer_0
  10
-126.851
  20
480.72028
  0
VERTEX
  5
22b
  8
Layer_0
  10
-126.66512
  20
480.77606
  0
VERTEX
  5
22c
  8
Layer_0
  10
-126.49123
  20
480.86224
  0
VERTEX
  5
22d
  8
Layer_0
  10
-126.33324
  20
480.9772
  0
VERTEX
  5
22e
  8
Layer_0
  10
-126.24924
  20
481.11261
  0
VERTEX
  5
22f
  8
Layer_0
  10
-126.19411
  20
481.25751
  0
VERTEX
  5
230
  8
Layer_0
  10
-126.16744
  20
481.40784
  0
VERTEX
  5
231
  8
Layer_0
  10
-126.16882
  20
481.55945
  0
VERTEX
  5
232
  8
Layer_0
  10
-126.19784
  20
481.70828
  0
VERTEX
  5
233
  8
Layer_0
  10
-126.25406
  20
481.85022
  0
VERTEX
  5
234
  8
Layer_0
  10
-126.33707
  20
481.9812
  0
VERTEX
  5
235
  8
Layer_0
  10
-126.44647
  20
482.09708
  0
VERTEX
  5
236
  8
Layer_0
  10
-126.66685
  20
482.21707
  0
VERTEX
  5
237
  8
Layer_0
  10
-126.89952
  20
482.30814
  0
VERTEX
  5
238
  8
Layer_0
  10
-127.14175
  20
482.36938
  0
VERTEX
  5
239
  8
Layer_0
  10
-127.39079
  20
482.40005
  0
VERTEX
  5
23a
  8
Layer_0
  10
-128.2068
  20
482.39917
  0
VERTEX
  5
23b
  8
Layer_0
  10
-128.19933
  20
482.87918
  0
VERTEX
  5
23c
  8
Layer_0
  10
-127.78278
  20
482.87009
  0
VERTEX
  5
23d
  8
Layer_0
  10
-127.37473
  20
482.93567
  0
VERTEX
  5
23e
  8
Layer_0
  10
-126.9851
  20
483.07343
  0
VERTEX
  5
23f
  8
Layer_0
  10
-126.62378
  20
483.28088
  0
VERTEX
  5
240
  8
Layer_0
  10
-126.40636
  20
483.5069
  0
VERTEX
  5
241
  8
Layer_0
  10
-126.24057
  20
483.76941
  0
VERTEX
  5
242
  8
Layer_0
  10
-126.13069
  20
484.05984
  0
VERTEX
  5
243
  8
Layer_0
  10
-126.08096
  20
484.36951
  0
VERTEX
  5
244
  8
Layer_0
  10
-126.05053
  20
484.7222
  0
VERTEX
  5
245
  8
Layer_0
  10
-126.05812
  20
485.07513
  0
VERTEX
  5
246
  8
Layer_0
  10
-126.10352
  20
485.42523
  0
VERTEX
  5
247
  8
Layer_0
  10
-126.18649
  20
485.76938
  0
VERTEX
  5
248
  8
Layer_0
  10
-126.28319
  20
485.96292
  0
VERTEX
  5
249
  8
Layer_0
  10
-126.40352
  20
486.1391
  0
VERTEX
  5
24a
  8
Layer_0
  10
-126.54514
  20
486.29623
  0
VERTEX
  5
24b
  8
Layer_0
  10
-126.70574
  20
486.43259
  0
VERTEX
  5
24c
  8
Layer_0
  10
-126.883
  20
486.54645
  0
VERTEX
  5
24d
  8
Layer_0
  10
-127.07462
  20
486.63611
  0
VERTEX
  5
24e
  8
Layer_0
  10
-127.27823
  20
486.69986
  0
VERTEX
  5
24f
  8
Layer_0
  10
-127.49155
  20
486.73596
  0
VERTEX
  5
250
  8
Layer_0
  10
-127.84599
  20
486.78406
  0
VERTEX
  5
251
  8
Layer_0
  10
-128.2036
  20
486.79117
  0
VERTEX
  5
252
  8
Layer_0
  10
-128.20415
  20
487.28717
  0
SEQEND
  0
POLYLINE
  5
254
  8
Layer_0
  62
0
  70
1
  66
1
  10
0
  20
0
  30
0
  0
VERTEX
  5
254
  8
Layer_0
  10
-46.148167
  20
487.31296
  0
VERTEX
  5
255
  8
Layer_0
  10
-45.650986
  20
487.26221
  0
VERTEX
  5
256
  8
Layer_0
  10
-45.174896
  20
487.12396
  0
VERTEX
  5
257
  8
Layer_0
  10
-44.731251
  20
486.90271
  0
VERTEX
  5
258
  8
Layer_0
  10
-44.33139
  20
486.60294
  0
VERTEX
  5
259
  8
Layer_0
  10
-44.175247
  20
486.40274
  0
VERTEX
  5
25a
  8
Layer_0
  10
-44.043571
  20
486.18658
  0
VERTEX
  5
25b
  8
Layer_0
  10
-43.937565
  20
485.95673
  0
VERTEX
  5
25c
  8
Layer_0
  10
-43.858421
  20
485.71545
  0
VERTEX
  5
25d
  8
Layer_0
  10
-43.744812
  20
485.33075
  0
VERTEX
  5
25e
  8
Layer_0
  10
-43.665089
  20
484.93845
  0
VERTEX
  5
25f
  8
Layer_0
  10
-43.619602
  20
484.54068
  0
VERTEX
  5
260
  8
Layer_0
  10
-43.608696
  20
484.13974
  0
VERTEX
  5
261
  8
Layer_0
  10
-43.581604
  20
483.3938
  0
VERTEX
  5
262
  8
Layer_0
  10
-43.614906
  20
482.64935
  0
VERTEX
  5
263
  8
Layer_0
  10
-43.708298
  20
481.91003
  0
VERTEX
  5
264
  8
Layer_0
  10
-43.861458
  20
481.17947
  0
VERTEX
  5
265
  8
Layer_0
  10
-43.961475
  20
480.91211
  0
VERTEX
  5
266
  8
Layer_0
  10
-44.095703
  20
480.66486
  0
VERTEX
  5
267
  8
Layer_0
  10
-44.261147
  20
480.4404
  0
VERTEX
  5
268
  8
Layer_0
  10
-44.454815
  20
480.24142
  0
VERTEX
  5
269
  8
Layer_0
  10
-44.673714
  20
480.07056
  0
VERTEX
  5
26a
  8
Layer_0
  10
-44.914856
  20
479.93054
  0
VERTEX
  5
26b
  8
Layer_0
  10
-45.175247
  20
479.82404
  0
VERTEX
  5
26c
  8
Layer_0
  10
-45.451893
  20
479.75372
  0
VERTEX
  5
26d
  8
Layer_0
  10
-45.829418
  20
479.67859
  0
VERTEX
  5
26e
  8
Layer_0
  10
-46.211075
  20
479.63318
  0
VERTEX
  5
26f
  8
Layer_0
  10
-46.595108
  20
479.61761
  0
VERTEX
  5
270
  8
Layer_0
  10
-46.979763
  20
479.63205
  0
VERTEX
  5
271
  8
Layer_0
  10
-48.12101
  20
479.66211
  0
VERTEX
  5
272
  8
Layer_0
  10
-49.259884
  20
479.74155
  0
VERTEX
  5
273
  8
Layer_0
  10
-49.260284
  20
480.10956
  0
VERTEX
  5
274
  8
Layer_0
  10
-48.430172
  20
480.08337
  0
VERTEX
  5
275
  8
Layer_0
  10
-47.5998
  20
480.08057
  0
VERTEX
  5
276
  8
Layer_0
  10
-46.769684
  20
480.10117
  0
VERTEX
  5
277
  8
Layer_0
  10
-45.940327
  20
480.14517
  0
VERTEX
  5
278
  8
Layer_0
  10
-45.720837
  20
480.17932
  0
VERTEX
  5
279
  8
Layer_0
  10
-45.509109
  20
480.23846
  0
VERTEX
  5
27a
  8
Layer_0
  10
-45.307068
  20
480.32144
  0
VERTEX
  5
27b
  8
Layer_0
  10
-45.116631
  20
480.427
  0
VERTEX
  5
27c
  8
Layer_0
  10
-44.939713
  20
480.55392
  0
VERTEX
  5
27d
  8
Layer_0
  10
-44.778244
  20
480.70099
  0
VERTEX
  5
27e
  8
Layer_0
  10
-44.63414
  20
480.867
  0
VERTEX
  5
27f
  8
Layer_0
  10
-44.509315
  20
481.05075
  0
VERTEX
  5
280
  8
Layer_0
  10
-44.361111
  20
481.49756
  0
VERTEX
  5
281
  8
Layer_0
  10
-44.25568
  20
481.95523
  0
VERTEX
  5
282
  8
Layer_0
  10
-44.193569
  20
482.42075
  0
VERTEX
  5
283
  8
Layer_0
  10
-44.175331
  20
482.89111
  0
VERTEX
  5
284
  8
Layer_0
  10
-44.167664
  20
483.19513
  0
VERTEX
  5
285
  8
Layer_0
  10
-46.151657
  20
483.19296
  0
VERTEX
  5
286
  8
Layer_0
  10
-46.152145
  20
483.64096
  0
VERTEX
  5
287
  8
Layer_0
  10
-44.176144
  20
483.6351
  0
VERTEX
  5
288
  8
Layer_0
  10
-44.168304
  20
484.22852
  0
VERTEX
  5
289
  8
Layer_0
  10
-44.223946
  20
484.81763
  0
VERTEX
  5
28a
  8
Layer_0
  10
-44.342323
  20
485.39737
  0
VERTEX
  5
28b
  8
Layer_0
  10
-44.52269
  20
485.96274
  0
VERTEX
  5
28c
  8
Layer_0
  10
-44.716568
  20
486.24869
  0
VERTEX
  5
28d
  8
Layer_0
  10
-44.967361
  20
486.47989
  0
VERTEX
  5
28e
  8
Layer_0
  10
-45.26403
  20
486.64819
  0
VERTEX
  5
28f
  8
Layer_0
  10
-45.595547
  20
486.74557
  0
VERTEX
  5
290
  8
Layer_0
  10
-45.869293
  20
486.80957
  0
VERTEX
  5
291
  8
Layer_0
  10
-46.147659
  20
486.84897
  0
VERTEX
  5
292
  8
Layer_0
  10
-46.148167
  20
487.31296
  0
SEQEND
  0
POLYLINE
  5
294
  8
Layer_0
  62
0
  70
1
  66
1
  10
0
  20
0
  30
0
  0
VERTEX
  5
294
  8
Layer_0
  10
-76.196182
  20
487.32007
  0
VERTEX
  5
295
  8
Layer_0
  10
-75.758423
  20
487.28763
  0
VERTEX
  5
296
  8
Layer_0
  10
-75.332062
  20
487.19315
  0
VERTEX
  5
297
  8
Layer_0
  10
-74.923615
  20
487.03857
  0
VERTEX
  5
298
  8
Layer_0
  10
-74.539635
  20
486.8259
  0
VERTEX
  5
299
  8
Layer_0
  10
-74.299789
  20
486.60712
  0
VERTEX
  5
29a
  8
Layer_0
  10
-74.101158
  20
486.35321
  0
VERTEX
  5
29b
  8
Layer_0
  10
-73.947479
  20
486.06982
  0
VERTEX
  5
29c
  8
Layer_0
  10
-73.842476
  20
485.76266
  0
VERTEX
  5
29d
  8
Layer_0
  10
-73.711769
  20
485.29889
  0
VERTEX
  5
29e
  8
Layer_0
  10
-73.619614
  20
484.82672
  0
VERTEX
  5
29f
  8
Layer_0
  10
-73.566368
  20
484.34863
  0
VERTEX
  5
2a0
  8
Layer_0
  10
-73.552406
  20
483.86697
  0
VERTEX
  5
2a1
  8
Layer_0
  10
-73.535583
  20
483.15231
  0
VERTEX
  5
2a2
  8
Layer_0
  10
-73.583107
  20
482.44046
  0
VERTEX
  5
2a3
  8
Layer_0
  10
-73.694504
  20
481.73578
  0
VERTEX
  5
2a4
  8
Layer_0
  10
-73.869308
  20
481.04263
  0
VERTEX
  5
2a5
  8
Layer_0
  10
-73.979523
  20
480.79971
  0
VERTEX
  5
2a6
  8
Layer_0
  10
-74.118271
  20
480.57568
  0
VERTEX
  5
2a7
  8
Layer_0
  10
-74.283081
  20
480.37268
  0
VERTEX
  5
2a8
  8
Layer_0
  10
-74.471481
  20
480.19275
  0
VERTEX
  5
2a9
  8
Layer_0
  10
-74.68103
  20
480.0379
  0
VERTEX
  5
2aa
  8
Layer_0
  10
-74.909256
  20
479.91031
  0
VERTEX
  5
2ab
  8
Layer_0
  10
-75.153687
  20
479.81192
  0
VERTEX
  5
2ac
  8
Layer_0
  10
-75.411888
  20
479.74493
  0
VERTEX
  5
2ad
  8
Layer_0
  10
-75.847916
  20
479.65802
  0
VERTEX
  5
2ae
  8
Layer_0
  10
-76.291771
  20
479.63196
  0
VERTEX
  5
2af
  8
Layer_0
  10
-77.024857
  20
479.62842
  0
VERTEX
  5
2b0
  8
Layer_0
  10
-77.757568
  20
479.6467
  0
VERTEX
  5
2b1
  8
Layer_0
  10
-78.48941
  20
479.68683
  0
VERTEX
  5
2b2
  8
Layer_0
  10
-79.219894
  20
479.74878
  0
VERTEX
  5
2b3
  8
Layer_0
  10
-79.220299
  20
480.11676
  0
VERTEX
  5
2b4
  8
Layer_0
  10
-77.780319
  20
480.10236
  0
VERTEX
  5
2b5
  8
Layer_0
  10
-76.340294
  20
480.11191
  0
VERTEX
  5
2b6
  8
Layer_0
  10
-75.995316
  20
480.14148
  0
VERTEX
  5
2b7
  8
Layer_0
  10
-75.656921
  20
480.20947
  0
VERTEX
  5
2b8
  8
Layer_0
  10
-75.328308
  20
480.31503
  0
VERTEX
  5
2b9
  8
Layer_0
  10
-75.012665
  20
480.45737
  0
VERTEX
  5
2ba
  8
Layer_0
  10
-74.747467
  20
480.67462
  0
VERTEX
  5
2bb
  8
Layer_0
  10
-74.534027
  20
480.93848
  0
VERTEX
  5
2bc
  8
Layer_0
  10
-74.378212
  20
481.23999
  0
VERTEX
  5
2bd
  8
Layer_0
  10
-74.285889
  20
481.57016
  0
VERTEX
  5
2be
  8
Layer_0
  10
-74.208931
  20
481.97394
  0
VERTEX
  5
2bf
  8
Layer_0
  10
-74.158165
  20
482.38141
  0
VERTEX
  5
2c0
  8
Layer_0
  10
-74.133713
  20
482.79132
  0
VERTEX
  5
2c1
  8
Layer_0
  10
-74.135674
  20
483.20233
  0
VERTEX
  5
2c2
  8
Layer_0
  10
-76.199677
  20
483.20007
  0
VERTEX
  5
2c3
  8
Layer_0
  10
-76.200157
  20
483.64008
  0
VERTEX
  5
2c4
  8
Layer_0
  10
-74.128151
  20
483.63434
  0
VERTEX
  5
2c5
  8
Layer_0
  10
-74.135345
  20
484.19116
  0
VERTEX
  5
2c6
  8
Layer_0
  10
-74.185028
  20
484.74503
  0
VERTEX
  5
2c7
  8
Layer_0
  10
-74.276871
  20
485.29346
  0
VERTEX
  5
2c8
  8
Layer_0
  10
-74.410553
  20
485.83405
  0
VERTEX
  5
2c9
  8
Layer_0
  10
-74.606544
  20
486.17355
  0
VERTEX
  5
2ca
  8
Layer_0
  10
-74.876175
  20
486.45007
  0
VERTEX
  5
2cb
  8
Layer_0
  10
-75.205246
  20
486.65225
  0
VERTEX
  5
2cc
  8
Layer_0
  10
-75.579575
  20
486.76874
  0
VERTEX
  5
2cd
  8
Layer_0
  10
-75.88588
  20
486.82474
  0
VERTEX
  5
2ce
  8
Layer_0
  10
-76.195671
  20
486.85608
  0
VERTEX
  5
2cf
  8
Layer_0
  10
-76.196182
  20
487.32007
  0
SEQEND
  0
POLYLINE
  5
2d1
  8
Layer_0
  62
0
  70
1
  66
1
  10
0
  20
0
  30
0
  0
VERTEX
  5
2d1
  8
Layer_0
  10
-89.636185
  20
487.32138
  0
VERTEX
  5
2d2
  8
Layer_0
  10
-89.14183
  20
487.28412
  0
VERTEX
  5
2d3
  8
Layer_0
  10
-88.66655
  20
487.15854
  0
VERTEX
  5
2d4
  8
Layer_0
  10
-88.221893
  20
486.94885
  0
VERTEX
  5
2d5
  8
Layer_0
  10
-87.819466
  20
486.65936
  0
VERTEX
  5
2d6
  8
Layer_0
  10
-87.618134
  20
486.42496
  0
VERTEX
  5
2d7
  8
Layer_0
  10
-87.4533
  20
486.16547
  0
VERTEX
  5
2d8
  8
Layer_0
  10
-87.327263
  20
485.88507
  0
VERTEX
  5
2d9
  8
Layer_0
  10
-87.242294
  20
485.58798
  0
VERTEX
  5
2da
  8
Layer_0
  10
-87.139473
  20
485.15674
  0
VERTEX
  5
2db
  8
Layer_0
  10
-87.066086
  20
484.72003
  0
VERTEX
  5
2dc
  8
Layer_0
  10
-87.022324
  20
484.27936
  0
VERTEX
  5
2dd
  8
Layer_0
  10
-87.008377
  20
483.83624
  0
VERTEX
  5
2de
  8
Layer_0
  10
-87.002472
  20
483.17206
  0
VERTEX
  5
2df
  8
Layer_0
  10
-87.045532
  20
482.51016
  0
VERTEX
  5
2e0
  8
Layer_0
  10
-87.137299
  20
481.85324
  0
VERTEX
  5
2e1
  8
Layer_0
  10
-87.277489
  20
481.20395
  0
VERTEX
  5
2e2
  8
Layer_0
  10
-87.384346
  20
480.91711
  0
VERTEX
  5
2e3
  8
Layer_0
  10
-87.52948
  20
480.6532
  0
VERTEX
  5
2e4
  8
Layer_0
  10
-87.70932
  20
480.41522
  0
VERTEX
  5
2e5
  8
Layer_0
  10
-87.920288
  20
480.20624
  0
VERTEX
  5
2e6
  8
Layer_0
  10
-88.158806
  20
480.02936
  0
VERTEX
  5
2e7
  8
Layer_0
  10
-88.421295
  20
479.88766
  0
VERTEX
  5
2e8
  8
Layer_0
  10
-88.704178
  20
479.78418
  0
VERTEX
  5
2e9
  8
Layer_0
  10
-89.003868
  20
479.72205
  0
VERTEX
  5
2ea
  8
Layer_0
  10
-89.519943
  20
479.66425
  0
VERTEX
  5
2eb
  8
Layer_0
  10
-90.037949
  20
479.63263
  0
VERTEX
  5
2ec
  8
Layer_0
  10
-90.556892
  20
479.62711
  0
VERTEX
  5
2ed
  8
Layer_0
  10
-91.07579
  20
479.6478
  0
VERTEX
  5
2ee
  8
Layer_0
  10
-91.876778
  20
479.67899
  0
VERTEX
  5
2ef
  8
Layer_0
  10
-92.675888
  20
479.74203
  0
VERTEX
  5
2f0
  8
Layer_0
  10
-92.684296
  20
480.11005
  0
VERTEX
  5
2f1
  8
Layer_0
  10
-89.692291
  20
480.11331
  0
VERTEX
  5
2f2
  8
Layer_0
  10
-89.359451
  20
480.15485
  0
VERTEX
  5
2f3
  8
Layer_0
  10
-89.034531
  20
480.23352
  0
VERTEX
  5
2f4
  8
Layer_0
  10
-88.720596
  20
480.34845
  0
VERTEX
  5
2f5
  8
Layer_0
  10
-88.420723
  20
480.49869
  0
VERTEX
  5
2f6
  8
Layer_0
  10
-88.177322
  20
480.71429
  0
VERTEX
  5
2f7
  8
Layer_0
  10
-87.981232
  20
480.96997
  0
VERTEX
  5
2f8
  8
Layer_0
  10
-87.837181
  20
481.25818
  0
VERTEX
  5
2f9
  8
Layer_0
  10
-87.749893
  20
481.57144
  0
VERTEX
  5
2fa
  8
Layer_0
  10
-87.675285
  20
481.97357
  0
VERTEX
  5
2fb
  8
Layer_0
  10
-87.623978
  20
482.37897
  0
VERTEX
  5
2fc
  8
Layer_0
  10
-87.596085
  20
482.78665
  0
VERTEX
  5
2fd
  8
Layer_0
  10
-87.591675
  20
483.19562
  0
VERTEX
  5
2fe
  8
Layer_0
  10
-89.639671
  20
483.20135
  0
VERTEX
  5
2ff
  8
Layer_0
  10
-89.640152
  20
483.64136
  0
VERTEX
  5
300
  8
Layer_0
  10
-87.592163
  20
483.64362
  0
VERTEX
  5
301
  8
Layer_0
  10
-87.594055
  20
484.19891
  0
VERTEX
  5
302
  8
Layer_0
  10
-87.641998
  20
484.75122
  0
VERTEX
  5
303
  8
Layer_0
  10
-87.735626
  20
485.29761
  0
VERTEX
  5
304
  8
Layer_0
  10
-87.874557
  20
485.8353
  0
VERTEX
  5
305
  8
Layer_0
  10
-88.069107
  20
486.17505
  0
VERTEX
  5
306
  8
Layer_0
  10
-88.338646
  20
486.45056
  0
VERTEX
  5
307
  8
Layer_0
  10
-88.668396
  20
486.65015
  0
VERTEX
  5
308
  8
Layer_0
  10
-89.043571
  20
486.76202
  0
VERTEX
  5
309
  8
Layer_0
  10
-89.337891
  20
486.81744
  0
VERTEX
  5
30a
  8
Layer_0
  10
-89.635666
  20
486.84937
  0
VERTEX
  5
30b
  8
Layer_0
  10
-89.636185
  20
487.32138
  0
SEQEND
  0
POLYLINE
  5
30d
  8
Layer_0
  62
0
  70
1
  66
1
  10
0
  20
0
  30
0
  0
VERTEX
  5
30d
  8
Layer_0
  10
-102.5762
  20
487.33966
  0
VERTEX
  5
30e
  8
Layer_0
  10
-102.57566
  20
486.84366
  0
VERTEX
  5
30f
  8
Layer_0
  10
-102.91561
  20
486.83176
  0
VERTEX
  5
310
  8
Layer_0
  10
-103.2484
  20
486.77063
  0
VERTEX
  5
311
  8
Layer_0
  10
-103.56873
  20
486.66168
  0
VERTEX
  5
312
  8
Layer_0
  10
-103.8713
  20
486.50626
  0
VERTEX
  5
313
  8
Layer_0
  10
-104.11589
  20
486.27029
  0
VERTEX
  5
314
  8
Layer_0
  10
-104.32066
  20
486.00159
  0
VERTEX
  5
315
  8
Layer_0
  10
-104.48244
  20
485.70502
  0
VERTEX
  5
316
  8
Layer_0
  10
-104.59806
  20
485.38547
  0
VERTEX
  5
317
  8
Layer_0
  10
-104.70888
  20
484.87479
  0
VERTEX
  5
318
  8
Layer_0
  10
-104.78258
  20
484.35947
  0
VERTEX
  5
319
  8
Layer_0
  10
-104.81924
  20
483.84149
  0
VERTEX
  5
31a
  8
Layer_0
  10
-104.81895
  20
483.32285
  0
VERTEX
  5
31b
  8
Layer_0
  10
-104.78177
  20
482.80554
  0
VERTEX
  5
31c
  8
Layer_0
  10
-104.70776
  20
482.29156
  0
VERTEX
  5
31d
  8
Layer_0
  10
-104.597
  20
481.78296
  0
VERTEX
  5
31e
  8
Layer_0
  10
-104.44958
  20
481.28162
  0
VERTEX
  5
31f
  8
Layer_0
  10
-104.30675
  20
481.0209
  0
VERTEX
  5
320
  8
Layer_0
  10
-104.12971
  20
480.7883
  0
VERTEX
  5
321
  8
Layer_0
  10
-103.92251
  20
480.5863
  0
VERTEX
  5
322
  8
Layer_0
  10
-103.68922
  20
480.41748
  0
VERTEX
  5
323
  8
Layer_0
  10
-103.43389
  20
480.28427
  0
VERTEX
  5
324
  8
Layer_0
  10
-103.16058
  20
480.18924
  0
VERTEX
  5
325
  8
Layer_0
  10
-102.87337
  20
480.13489
  0
VERTEX
  5
326
  8
Layer_0
  10
-102.57631
  20
480.12366
  0
VERTEX
  5
327
  8
Layer_0
  10
-102.57578
  20
479.63568
  0
VERTEX
  5
328
  8
Layer_0
  10
-102.98702
  20
479.63275
  0
VERTEX
  5
329
  8
Layer_0
  10
-103.38365
  20
479.69913
  0
VERTEX
  5
32a
  8
Layer_0
  10
-103.75841
  20
479.8299
  0
VERTEX
  5
32b
  8
Layer_0
  10
-104.10402
  20
480.02026
  0
VERTEX
  5
32c
  8
Layer_0
  10
-104.41321
  20
480.26538
  0
VERTEX
  5
32d
  8
Layer_0
  10
-104.67871
  20
480.56042
  0
VERTEX
  5
32e
  8
Layer_0
  10
-104.89326
  20
480.90057
  0
VERTEX
  5
32f
  8
Layer_0
  10
-105.04958
  20
481.28094
  0
VERTEX
  5
330
  8
Layer_0
  10
-105.23037
  20
481.91797
  0
VERTEX
  5
331
  8
Layer_0
  10
-105.34752
  20
482.56805
  0
VERTEX
  5
332
  8
Layer_0
  10
-105.40041
  20
483.2265
  0
VERTEX
  5
333
  8
Layer_0
  10
-105.38843
  20
483.88858
  0
VERTEX
  5
334
  8
Layer_0
  10
-105.34657
  20
484.41364
  0
VERTEX
  5
335
  8
Layer_0
  10
-105.26876
  20
484.93396
  0
VERTEX
  5
336
  8
Layer_0
  10
-105.15536
  20
485.44769
  0
VERTEX
  5
337
  8
Layer_0
  10
-105.00669
  20
485.953
  0
VERTEX
  5
338
  8
Layer_0
  10
-104.83468
  20
486.2666
  0
VERTEX
  5
339
  8
Layer_0
  10
-104.62152
  20
486.54645
  0
VERTEX
  5
33a
  8
Layer_0
  10
-104.37211
  20
486.78952
  0
VERTEX
  5
33b
  8
Layer_0
  10
-104.09133
  20
486.9928
  0
VERTEX
  5
33c
  8
Layer_0
  10
-103.78407
  20
487.15326
  0
VERTEX
  5
33d
  8
Layer_0
  10
-103.4552
  20
487.26785
  0
VERTEX
  5
33e
  8
Layer_0
  10
-103.10962
  20
487.33362
  0
VERTEX
  5
33f
  8
Layer_0
  10
-102.75222
  20
487.34747
  0
VERTEX
  5
340
  8
Layer_0
  10
-102.5762
  20
487.33966
  0
SEQEND
  0
POLYLINE
  5
342
  8
Layer_0
  62
0
  70
1
  66
1
  10
0
  20
0
  30
0
  0
VERTEX
  5
342
  8
Layer_0
  10
-39.863678
  20
490.51984
  0
VERTEX
  5
343
  8
Layer_0
  10
-39.866852
  20
486.11182
  0
VERTEX
  5
344
  8
Layer_0
  10
-39.870018
  20
481.69583
  0
VERTEX
  5
345
  8
Layer_0
  10
-39.901257
  20
481.29437
  0
VERTEX
  5
346
  8
Layer_0
  10
-39.994251
  20
480.90512
  0
VERTEX
  5
347
  8
Layer_0
  10
-40.146713
  20
480.5351
  0
VERTEX
  5
348
  8
Layer_0
  10
-40.356373
  20
480.19128
  0
VERTEX
  5
349
  8
Layer_0
  10
-40.57103
  20
479.99493
  0
VERTEX
  5
34a
  8
Layer_0
  10
-40.818783
  20
479.84802
  0
VERTEX
  5
34b
  8
Layer_0
  10
-41.091206
  20
479.75446
  0
VERTEX
  5
34c
  8
Layer_0
  10
-41.37986
  20
479.71817
  0
VERTEX
  5
34d
  8
Layer_0
  10
-41.951752
  20
479.70154
  0
VERTEX
  5
34e
  8
Layer_0
  10
-42.523846
  20
479.70892
  0
VERTEX
  5
34f
  8
Layer_0
  10
-42.516281
  20
480.10892
  0
VERTEX
  5
350
  8
Layer_0
  10
-42.176136
  20
480.13138
  0
VERTEX
  5
351
  8
Layer_0
  10
-41.838203
  20
480.17389
  0
VERTEX
  5
352
  8
Layer_0
  10
-41.503365
  20
480.23627
  0
VERTEX
  5
353
  8
Layer_0
  10
-41.172516
  20
480.31839
  0
VERTEX
  5
354
  8
Layer_0
  10
-40.993584
  20
480.41199
  0
VERTEX
  5
355
  8
Layer_0
  10
-40.840179
  20
480.53992
  0
VERTEX
  5
356
  8
Layer_0
  10
-40.717098
  20
480.69724
  0
VERTEX
  5
357
  8
Layer_0
  10
-40.629128
  20
480.879
  0
VERTEX
  5
358
  8
Layer_0
  10
-40.544403
  20
481.14352
  0
VERTEX
  5
359
  8
Layer_0
  10
-40.485481
  20
481.41431
  0
VERTEX
  5
35a
  8
Layer_0
  10
-40.452682
  20
481.68948
  0
VERTEX
  5
35b
  8
Layer_0
  10
-40.446316
  20
481.96719
  0
VERTEX
  5
35c
  8
Layer_0
  10
-40.442966
  20
486.24347
  0
VERTEX
  5
35d
  8
Layer_0
  10
-40.447678
  20
490.5192
  0
VERTEX
  5
35e
  8
Layer_0
  10
-39.863678
  20
490.51984
  0
SEQEND
  0
POLYLINE
  5
360
  8
Layer_0
  62
0
  70
1
  66
1
  10
0
  20
0
  30
0
  0
VERTEX
  5
360
  8
Layer_0
  10
-109.19618
  20
487.31598
  0
VERTEX
  5
361
  8
Layer_0
  10
-108.77663
  20
487.26544
  0
VERTEX
  5
362
  8
Layer_0
  10
-108.37303
  20
487.14966
  0
VERTEX
  5
363
  8
Layer_0
  10
-107.99286
  20
486.9715
  0
VERTEX
  5
364
  8
Layer_0
  10
-107.64354
  20
486.73367
  0
VERTEX
  5
365
  8
Layer_0
  10
-107.42532
  20
486.49524
  0
VERTEX
  5
366
  8
Layer_0
  10
-107.24533
  20
486.22885
  0
VERTEX
  5
367
  8
Layer_0
  10
-107.10613
  20
485.93909
  0
VERTEX
  5
368
  8
Layer_0
  10
-107.01034
  20
485.63037
  0
VERTEX
  5
369
  8
Layer_0
  10
-106.9166
  20
485.29285
  0
VERTEX
  5
36a
  8
Layer_0
  10
-106.84497
  20
484.95032
  0
VERTEX
  5
36b
  8
Layer_0
  10
-106.79565
  20
484.60388
  0
VERTEX
  5
36c
  8
Layer_0
  10
-106.76884
  20
484.25461
  0
VERTEX
  5
36d
  8
Layer_0
  10
-106.76031
  20
483.38202
  0
VERTEX
  5
36e
  8
Layer_0
  10
-106.80692
  20
482.51059
  0
VERTEX
  5
36f
  8
Layer_0
  10
-106.88622
  20
481.87854
  0
VERTEX
  5
370
  8
Layer_0
  10
-107.01354
  20
481.25436
  0
VERTEX
  5
371
  8
Layer_0
  10
-107.12142
  20
480.95169
  0
VERTEX
  5
372
  8
Layer_0
  10
-107.271
  20
480.67343
  0
VERTEX
  5
373
  8
Layer_0
  10
-107.45825
  20
480.423
  0
VERTEX
  5
374
  8
Layer_0
  10
-107.67919
  20
480.20386
  0
VERTEX
  5
375
  8
Layer_0
  10
-107.92983
  20
480.01941
  0
VERTEX
  5
376
  8
Layer_0
  10
-108.20615
  20
479.87305
  0
VERTEX
  5
377
  8
Layer_0
  10
-108.50417
  20
479.76825
  0
VERTEX
  5
378
  8
Layer_0
  10
-108.81986
  20
479.70837
  0
VERTEX
  5
379
  8
Layer_0
  10
-109.72377
  20
479.65417
  0
VERTEX
  5
37a
  8
Layer_0
  10
-110.62872
  20
479.64212
  0
VERTEX
  5
37b
  8
Layer_0
  10
-111.53325
  20
479.67221
  0
VERTEX
  5
37c
  8
Layer_0
  10
-112.4359
  20
479.74442
  0
VERTEX
  5
37d
  8
Layer_0
  10
-112.43629
  20
480.11243
  0
VERTEX
  5
37e
  8
Layer_0
  10
-109.44431
  20
480.11569
  0
VERTEX
  5
37f
  8
Layer_0
  10
-109.07039
  20
480.15668
  0
VERTEX
  5
380
  8
Layer_0
  10
-108.70863
  20
480.25195
  0
VERTEX
  5
381
  8
Layer_0
  10
-108.36483
  20
480.39948
  0
VERTEX
  5
382
  8
Layer_0
  10
-108.04483
  20
480.59723
  0
VERTEX
  5
383
  8
Layer_0
  10
-107.87641
  20
480.77295
  0
VERTEX
  5
384
  8
Layer_0
  10
-107.73514
  20
480.9697
  0
VERTEX
  5
385
  8
Layer_0
  10
-107.62294
  20
481.18436
  0
VERTEX
  5
386
  8
Layer_0
  10
-107.54172
  20
481.41379
  0
VERTEX
  5
387
  8
Layer_0
  10
-107.44736
  20
481.85611
  0
VERTEX
  5
388
  8
Layer_0
  10
-107.3828
  20
482.30328
  0
VERTEX
  5
389
  8
Layer_0
  10
-107.34818
  20
482.75375
  0
VERTEX
  5
38a
  8
Layer_0
  10
-107.34368
  20
483.20599
  0
VERTEX
  5
38b
  8
Layer_0
  10
-109.41568
  20
483.20374
  0
VERTEX
  5
38c
  8
Layer_0
  10
-109.40817
  20
483.64374
  0
VERTEX
  5
38d
  8
Layer_0
  10
-107.34417
  20
483.646
  0
VERTEX
  5
38e
  8
Layer_0
  10
-107.34431
  20
484.2019
  0
VERTEX
  5
38f
  8
Layer_0
  10
-107.39304
  20
484.75458
  0
VERTEX
  5
390
  8
Layer_0
  10
-107.48993
  20
485.3009
  0
VERTEX
  5
391
  8
Layer_0
  10
-107.63457
  20
485.83768
  0
VERTEX
  5
392
  8
Layer_0
  10
-107.83056
  20
486.17722
  0
VERTEX
  5
393
  8
Layer_0
  10
-108.10019
  20
486.45374
  0
VERTEX
  5
394
  8
Layer_0
  10
-108.42926
  20
486.65591
  0
VERTEX
  5
395
  8
Layer_0
  10
-108.80359
  20
486.7724
  0
VERTEX
  5
396
  8
Layer_0
  10
-109.10989
  20
486.8284
  0
VERTEX
  5
397
  8
Layer_0
  10
-109.41969
  20
486.85971
  0
VERTEX
  5
398
  8
Layer_0
  10
-109.41219
  20
487.32373
  0
VERTEX
  5
399
  8
Layer_0
  10
-109.19618
  20
487.31598
  0
SEQEND
  0
POLYLINE
  5
39b
  8
Layer_0
  62
0
  70
1
  66
1
  10
0
  20
0
  30
0
  0
VERTEX
  5
39b
  8
Layer_0
  10
-60.868095
  20
487.24884
  0
VERTEX
  5
39c
  8
Layer_0
  10
-59.667961
  20
487.12216
  0
VERTEX
  5
39d
  8
Layer_0
  10
-59.659561
  20
486.75418
  0
VERTEX
  5
39e
  8
Layer_0
  10
-60.88356
  20
486.75284
  0
VERTEX
  5
39f
  8
Layer_0
  10
-60.838364
  20
482.00888
  0
VERTEX
  5
3a0
  8
Layer_0
  10
-60.846703
  20
481.62262
  0
VERTEX
  5
3a1
  8
Layer_0
  10
-60.901794
  20
481.2417
  0
VERTEX
  5
3a2
  8
Layer_0
  10
-61.002766
  20
480.87024
  0
VERTEX
  5
3a3
  8
Layer_0
  10
-61.148727
  20
480.51254
  0
VERTEX
  5
3a4
  8
Layer_0
  10
-61.269493
  20
480.34146
  0
VERTEX
  5
3a5
  8
Layer_0
  10
-61.408997
  20
480.18851
  0
VERTEX
  5
3a6
  8
Layer_0
  10
-61.565166
  20
480.05493
  0
VERTEX
  5
3a7
  8
Layer_0
  10
-61.735947
  20
479.94189
  0
VERTEX
  5
3a8
  8
Layer_0
  10
-61.91927
  20
479.85059
  0
VERTEX
  5
3a9
  8
Layer_0
  10
-62.113068
  20
479.78223
  0
VERTEX
  5
3aa
  8
Layer_0
  10
-62.315285
  20
479.73798
  0
VERTEX
  5
3ab
  8
Layer_0
  10
-62.523857
  20
479.71902
  0
VERTEX
  5
3ac
  8
Layer_0
  10
-63.10384
  20
479.70239
  0
VERTEX
  5
3ad
  8
Layer_0
  10
-63.683861
  20
479.71777
  0
VERTEX
  5
3ae
  8
Layer_0
  10
-63.684303
  20
480.11777
  0
VERTEX
  5
3af
  8
Layer_0
  10
-63.020477
  20
480.16647
  0
VERTEX
  5
3b0
  8
Layer_0
  10
-62.364479
  20
480.27921
  0
VERTEX
  5
3b1
  8
Layer_0
  10
-62.176933
  20
480.35181
  0
VERTEX
  5
3b2
  8
Layer_0
  10
-62.006355
  20
480.45108
  0
VERTEX
  5
3b3
  8
Layer_0
  10
-61.854935
  20
480.57419
  0
VERTEX
  5
3b4
  8
Layer_0
  10
-61.724861
  20
480.71832
  0
VERTEX
  5
3b5
  8
Layer_0
  10
-61.618317
  20
480.88062
  0
VERTEX
  5
3b6
  8
Layer_0
  10
-61.537491
  20
481.05826
  0
VERTEX
  5
3b7
  8
Layer_0
  10
-61.484577
  20
481.24838
  0
VERTEX
  5
3b8
  8
Layer_0
  10
-61.461754
  20
481.44821
  0
VERTEX
  5
3b9
  8
Layer_0
  10
-61.429825
  20
481.73135
  0
VERTEX
  5
3ba
  8
Layer_0
  10
-61.422379
  20
482.01624
  0
VERTEX
  5
3bb
  8
Layer_0
  10
-61.419556
  20
486.75226
  0
VERTEX
  5
3bc
  8
Layer_0
  10
-63.803558
  20
486.74963
  0
VERTEX
  5
3bd
  8
Layer_0
  10
-63.796097
  20
487.24564
  0
VERTEX
  5
3be
  8
Layer_0
  10
-61.420097
  20
487.24826
  0
VERTEX
  5
3bf
  8
Layer_0
  10
-61.414413
  20
489.36026
  0
VERTEX
  5
3c0
  8
Layer_0
  10
-60.990417
  20
489.36871
  0
VERTEX
  5
3c1
  8
Layer_0
  10
-60.868095
  20
487.24884
  0
SEQEND
  0
POLYLINE
  5
3c3
  8
Layer_0
  62
0
  70
1
  66
1
  10
0
  20
0
  30
0
  0
VERTEX
  5
3c3
  8
Layer_0
  10
-52.03841
  20
489.36252
  0
VERTEX
  5
3c4
  8
Layer_0
  10
-51.916103
  20
487.25064
  0
VERTEX
  5
3c5
  8
Layer_0
  10
-50.699963
  20
487.12396
  0
VERTEX
  5
3c6
  8
Layer_0
  10
-50.70755
  20
486.74796
  0
VERTEX
  5
3c7
  8
Layer_0
  10
-51.923557
  20
486.75464
  0
VERTEX
  5
3c8
  8
Layer_0
  10
-51.888741
  20
484.18683
  0
VERTEX
  5
3c9
  8
Layer_0
  10
-51.885937
  20
481.61868
  0
VERTEX
  5
3ca
  8
Layer_0
  10
-51.930176
  20
481.21033
  0
VERTEX
  5
3cb
  8
Layer_0
  10
-52.048698
  20
480.82083
  0
VERTEX
  5
3cc
  8
Layer_0
  10
-52.237442
  20
480.46008
  0
VERTEX
  5
3cd
  8
Layer_0
  10
-52.492321
  20
480.138
  0
VERTEX
  5
3ce
  8
Layer_0
  10
-52.764954
  20
479.94864
  0
VERTEX
  5
3cf
  8
Layer_0
  10
-53.064953
  20
479.81281
  0
VERTEX
  5
3d0
  8
Layer_0
  10
-53.384514
  20
479.73328
  0
VERTEX
  5
3d1
  8
Layer_0
  10
-53.715851
  20
479.71268
  0
VERTEX
  5
3d2
  8
Layer_0
  10
-54.731853
  20
479.71155
  0
VERTEX
  5
3d3
  8
Layer_0
  10
-54.7323
  20
480.11957
  0
VERTEX
  5
3d4
  8
Layer_0
  10
-54.168335
  20
480.17584
  0
VERTEX
  5
3d5
  8
Layer_0
  10
-53.60442
  20
480.23279
  0
VERTEX
  5
3d6
  8
Layer_0
  10
-53.381062
  20
480.28305
  0
VERTEX
  5
3d7
  8
Layer_0
  10
-53.175201
  20
480.37009
  0
VERTEX
  5
3d8
  8
Layer_0
  10
-52.990303
  20
480.49005
  0
VERTEX
  5
3d9
  8
Layer_0
  10
-52.829834
  20
480.63916
  0
VERTEX
  5
3da
  8
Layer_0
  10
-52.697277
  20
480.81354
  0
VERTEX
  5
3db
  8
Layer_0
  10
-52.596092
  20
481.00934
  0
VERTEX
  5
3dc
  8
Layer_0
  10
-52.529762
  20
481.22278
  0
VERTEX
  5
3dd
  8
Layer_0
  10
-52.501755
  20
481.45001
  0
VERTEX
  5
3de
  8
Layer_0
  10
-52.469902
  20
481.73315
  0
VERTEX
  5
3df
  8
Layer_0
  10
-52.470379
  20
482.01804
  0
VERTEX
  5
3e0
  8
Layer_0
  10
-52.467556
  20
486.75403
  0
VERTEX
  5
3e1
  8
Layer_0
  10
-54.843555
  20
486.75143
  0
VERTEX
  5
3e2
  8
Layer_0
  10
-54.844101
  20
487.24744
  0
VERTEX
  5
3e3
  8
Layer_0
  10
-52.468102
  20
487.25003
  0
VERTEX
  5
3e4
  8
Layer_0
  10
-52.46241
  20
489.36206
  0
VERTEX
  5
3e5
  8
Layer_0
  10
-52.03841
  20
489.36252
  0
SEQEND
  0
POLYLINE
  5
3e7
  8
Layer_0
  62
0
  70
1
  66
1
  10
0
  20
0
  30
0
  0
VERTEX
  5
3e7
  8
Layer_0
  10
-65.551682
  20
490.52371
  0
VERTEX
  5
3e8
  8
Layer_0
  10
-65.563858
  20
479.7157
  0
VERTEX
  5
3e9
  8
Layer_0
  10
-66.139854
  20
479.71509
  0
VERTEX
  5
3ea
  8
Layer_0
  10
-66.138733
  20
486.00308
  0
VERTEX
  5
3eb
  8
Layer_0
  10
-66.527283
  20
486.22998
  0
VERTEX
  5
3ec
  8
Layer_0
  10
-66.931702
  20
486.42133
  0
VERTEX
  5
3ed
  8
Layer_0
  10
-67.349571
  20
486.5766
  0
VERTEX
  5
3ee
  8
Layer_0
  10
-67.778442
  20
486.69513
  0
VERTEX
  5
3ef
  8
Layer_0
  10
-68.215912
  20
486.77643
  0
VERTEX
  5
3f0
  8
Layer_0
  10
-68.659546
  20
486.81995
  0
VERTEX
  5
3f1
  8
Layer_0
  10
-69.106918
  20
486.8251
  0
VERTEX
  5
3f2
  8
Layer_0
  10
-69.555603
  20
486.79135
  0
VERTEX
  5
3f3
  8
Layer_0
  10
-69.816833
  20
486.68542
  0
VERTEX
  5
3f4
  8
Layer_0
  10
-70.055046
  20
486.54382
  0
VERTEX
  5
3f5
  8
Layer_0
  10
-70.267395
  20
486.37027
  0
VERTEX
  5
3f6
  8
Layer_0
  10
-70.451042
  20
486.1684
  0
VERTEX
  5
3f7
  8
Layer_0
  10
-70.603149
  20
485.9418
  0
VERTEX
  5
3f8
  8
Layer_0
  10
-70.720871
  20
485.69409
  0
VERTEX
  5
3f9
  8
Layer_0
  10
-70.801369
  20
485.42889
  0
VERTEX
  5
3fa
  8
Layer_0
  10
-70.841805
  20
485.14993
  0
VERTEX
  5
3fb
  8
Layer_0
  10
-70.857521
  20
484.88593
  0
VERTEX
  5
3fc
  8
Layer_0
  10
-70.859848
  20
479.7099
  0
VERTEX
  5
3fd
  8
Layer_0
  10
-71.43586
  20
479.71729
  0
VERTEX
  5
3fe
  8
Layer_0
  10
-71.446877
  20
482.45728
  0
VERTEX
  5
3ff
  8
Layer_0
  10
-71.433853
  20
485.1973
  0
VERTEX
  5
400
  8
Layer_0
  10
-71.393875
  20
485.51044
  0
VERTEX
  5
401
  8
Layer_0
  10
-71.314163
  20
485.81165
  0
VERTEX
  5
402
  8
Layer_0
  10
-71.196899
  20
486.0976
  0
VERTEX
  5
403
  8
Layer_0
  10
-71.044281
  20
486.36505
  0
VERTEX
  5
404
  8
Layer_0
  10
-70.85849
  20
486.6106
  0
VERTEX
  5
405
  8
Layer_0
  10
-70.641724
  20
486.83093
  0
VERTEX
  5
406
  8
Layer_0
  10
-70.396179
  20
487.02274
  0
VERTEX
  5
407
  8
Layer_0
  10
-70.124031
  20
487.18271
  0
VERTEX
  5
408
  8
Layer_0
  10
-69.70491
  20
487.31104
  0
VERTEX
  5
409
  8
Layer_0
  10
-69.273781
  20
487.37585
  0
VERTEX
  5
40a
  8
Layer_0
  10
-68.837814
  20
487.37653
  0
VERTEX
  5
40b
  8
Layer_0
  10
-68.404167
  20
487.31259
  0
VERTEX
  5
40c
  8
Layer_0
  10
-67.799896
  20
487.17725
  0
VERTEX
  5
40d
  8
Layer_0
  10
-67.216118
  20
486.97644
  0
VERTEX
  5
40e
  8
Layer_0
  10
-66.658112
  20
486.71234
  0
VERTEX
  5
40f
  8
Layer_0
  10
-66.131157
  20
486.38708
  0
VERTEX
  5
410
  8
Layer_0
  10
-66.135681
  20
490.52307
  0
VERTEX
  5
411
  8
Layer_0
  10
-65.551682
  20
490.52371
  0
SEQEND
  0
POLYLINE
  5
413
  8
Layer_0
  62
0
  70
1
  66
1
  10
0
  20
0
  30
0
  0
VERTEX
  5
413
  8
Layer_0
  10
-85.692116
  20
487.25369
  0
VERTEX
  5
414
  8
Layer_0
  10
-85.271904
  20
487.32233
  0
VERTEX
  5
415
  8
Layer_0
  10
-84.851555
  20
487.3363
  0
VERTEX
  5
416
  8
Layer_0
  10
-84.436005
  20
487.29706
  0
VERTEX
  5
417
  8
Layer_0
  10
-84.030212
  20
487.20605
  0
VERTEX
  5
418
  8
Layer_0
  10
-83.639084
  20
487.0647
  0
VERTEX
  5
419
  8
Layer_0
  10
-83.26757
  20
486.87448
  0
VERTEX
  5
41a
  8
Layer_0
  10
-82.920601
  20
486.63678
  0
VERTEX
  5
41b
  8
Layer_0
  10
-82.603119
  20
486.35306
  0
VERTEX
  5
41c
  8
Layer_0
  10
-82.346664
  20
486.11313
  0
VERTEX
  5
41d
  8
Layer_0
  10
-82.114571
  20
485.84961
  0
VERTEX
  5
41e
  8
Layer_0
  10
-81.948097
  20
487.24979
  0
VERTEX
  5
41f
  8
Layer_0
  10
-81.524117
  20
487.25824
  0
VERTEX
  5
420
  8
Layer_0
  10
-81.53186
  20
479.71423
  0
VERTEX
  5
421
  8
Layer_0
  10
-82.107857
  20
479.71362
  0
VERTEX
  5
422
  8
Layer_0
  10
-82.10611
  20
485.4256
  0
VERTEX
  5
423
  8
Layer_0
  10
-82.50782
  20
485.78949
  0
VERTEX
  5
424
  8
Layer_0
  10
-82.944473
  20
486.10815
  0
VERTEX
  5
425
  8
Layer_0
  10
-83.41227
  20
486.37903
  0
VERTEX
  5
426
  8
Layer_0
  10
-83.907387
  20
486.59964
  0
VERTEX
  5
427
  8
Layer_0
  10
-84.349136
  20
486.70294
  0
VERTEX
  5
428
  8
Layer_0
  10
-84.798561
  20
486.75055
  0
VERTEX
  5
429
  8
Layer_0
  10
-85.250427
  20
486.74219
  0
VERTEX
  5
42a
  8
Layer_0
  10
-85.699478
  20
486.67767
  0
VERTEX
  5
42b
  8
Layer_0
  10
-85.692116
  20
487.25369
  0
SEQEND
  0
POLYLINE
  5
42d
  8
Layer_0
  62
0
  70
1
  66
1
  10
0
  20
0
  30
0
  0
VERTEX
  5
42d
  8
Layer_0
  10
-98.919693
  20
490.52722
  0
VERTEX
  5
42e
  8
Layer_0
  10
-98.915871
  20
479.71921
  0
VERTEX
  5
42f
  8
Layer_0
  10
-99.355865
  20
479.71872
  0
VERTEX
  5
430
  8
Layer_0
  10
-99.50074
  20
480.51056
  0
VERTEX
  5
431
  8
Layer_0
  10
-99.967819
  20
480.22833
  0
VERTEX
  5
432
  8
Layer_0
  10
-100.46092
  20
479.99805
  0
VERTEX
  5
433
  8
Layer_0
  10
-100.97571
  20
479.82144
  0
VERTEX
  5
434
  8
Layer_0
  10
-101.50785
  20
479.70038
  0
VERTEX
  5
435
  8
Layer_0
  10
-101.50835
  20
480.16437
  0
VERTEX
  5
436
  8
Layer_0
  10
-101.13185
  20
480.23853
  0
VERTEX
  5
437
  8
Layer_0
  10
-100.7627
  20
480.34119
  0
VERTEX
  5
438
  8
Layer_0
  10
-100.4025
  20
480.47186
  0
VERTEX
  5
439
  8
Layer_0
  10
-100.05286
  20
480.62997
  0
VERTEX
  5
43a
  8
Layer_0
  10
-99.771835
  20
480.7428
  0
VERTEX
  5
43b
  8
Layer_0
  10
-99.501137
  20
480.87857
  0
VERTEX
  5
43c
  8
Layer_0
  10
-99.49884
  20
486.09457
  0
VERTEX
  5
43d
  8
Layer_0
  10
-99.975533
  20
486.3407
  0
VERTEX
  5
43e
  8
Layer_0
  10
-100.47123
  20
486.54309
  0
VERTEX
  5
43f
  8
Layer_0
  10
-100.98293
  20
486.70068
  0
VERTEX
  5
440
  8
Layer_0
  10
-101.50764
  20
486.81238
  0
VERTEX
  5
441
  8
Layer_0
  10
-101.50013
  20
487.26837
  0
VERTEX
  5
442
  8
Layer_0
  10
-100.97822
  20
487.12915
  0
VERTEX
  5
443
  8
Layer_0
  10
-100.46929
  20
486.9505
  0
VERTEX
  5
444
  8
Layer_0
  10
-99.975571
  20
486.73337
  0
VERTEX
  5
445
  8
Layer_0
  10
-99.499268
  20
486.47858
  0
VERTEX
  5
446
  8
Layer_0
  10
-99.495689
  20
490.52658
  0
VERTEX
  5
447
  8
Layer_0
  10
-98.919693
  20
490.52722
  0
SEQEND
  0
POLYLINE
  5
449
  8
Layer_0
  62
0
  70
1
  66
1
  10
0
  20
0
  30
0
  0
VERTEX
  5
449
  8
Layer_0
  10
-118.67052
  20
482.12961
  0
VERTEX
  5
44a
  8
Layer_0
  10
-118.66974
  20
481.71103
  0
VERTEX
  5
44b
  8
Layer_0
  10
-118.71768
  20
481.29663
  0
VERTEX
  5
44c
  8
Layer_0
  10
-118.81358
  20
480.89066
  0
VERTEX
  5
44d
  8
Layer_0
  10
-118.95672
  20
480.49728
  0
VERTEX
  5
44e
  8
Layer_0
  10
-119.17953
  20
480.19034
  0
VERTEX
  5
44f
  8
Layer_0
  10
-119.46806
  20
479.95322
  0
VERTEX
  5
450
  8
Layer_0
  10
-119.8067
  20
479.79581
  0
VERTEX
  5
451
  8
Layer_0
  10
-120.17989
  20
479.72794
  0
VERTEX
  5
452
  8
Layer_0
  10
-120.75185
  20
479.7193
  0
VERTEX
  5
453
  8
Layer_0
  10
-121.32387
  20
479.71869
  0
VERTEX
  5
454
  8
Layer_0
  10
-121.32431
  20
480.11868
  0
VERTEX
  5
455
  8
Layer_0
  10
-120.7149
  20
480.18353
  0
VERTEX
  5
456
  8
Layer_0
  10
-120.10847
  20
480.27203
  0
VERTEX
  5
457
  8
Layer_0
  10
-119.81758
  20
480.40405
  0
VERTEX
  5
458
  8
Layer_0
  10
-119.58244
  20
480.61084
  0
VERTEX
  5
459
  8
Layer_0
  10
-119.41656
  20
480.8764
  0
VERTEX
  5
45a
  8
Layer_0
  10
-119.33347
  20
481.18488
  0
VERTEX
  5
45b
  8
Layer_0
  10
-119.26962
  20
481.67514
  0
VERTEX
  5
45c
  8
Layer_0
  10
-119.24655
  20
482.16898
  0
VERTEX
  5
45d
  8
Layer_0
  10
-119.2477
  20
490.52896
  0
VERTEX
  5
45e
  8
Layer_0
  10
-118.66372
  20
490.5376
  0
VERTEX
  5
45f
  8
Layer_0
  10
-118.67052
  20
482.12961
  0
SEQEND
  0
POLYLINE
  5
461
  8
Layer_0
  62
0
  70
1
  66
1
  10
0
  20
0
  30
0
  0
VERTEX
  5
461
  8
Layer_0
  10
-122.67612
  20
487.26123
  0
VERTEX
  5
462
  8
Layer_0
  10
-122.68387
  20
479.71722
  0
VERTEX
  5
463
  8
Layer_0
  10
-123.25987
  20
479.72458
  0
VERTEX
  5
464
  8
Layer_0
  10
-123.26012
  20
487.26059
  0
VERTEX
  5
465
  8
Layer_0
  10
-122.67612
  20
487.26123
  0
SEQEND
  0
POLYLINE
  5
467
  8
Layer_0
  62
0
  70
1
  66
1
  10
0
  20
0
  30
0
  0
VERTEX
  5
467
  8
Layer_0
  10
-134.81572
  20
490.53595
  0
VERTEX
  5
468
  8
Layer_0
  10
-134.81989
  20
479.71991
  0
VERTEX
  5
469
  8
Layer_0
  10
-135.39589
  20
479.72729
  0
VERTEX
  5
46a
  8
Layer_0
  10
-135.39476
  20
486.01529
  0
VERTEX
  5
46b
  8
Layer_0
  10
-135.97346
  20
486.32181
  0
VERTEX
  5
46c
  8
Layer_0
  10
-136.57919
  20
486.56601
  0
VERTEX
  5
46d
  8
Layer_0
  10
-137.20692
  20
486.74619
  0
VERTEX
  5
46e
  8
Layer_0
  10
-137.85168
  20
486.8606
  0
VERTEX
  5
46f
  8
Layer_0
  10
-138.15579
  20
486.86688
  0
VERTEX
  5
470
  8
Layer_0
  10
-138.45847
  20
486.8446
  0
VERTEX
  5
471
  8
Layer_0
  10
-138.75771
  20
486.79401
  0
VERTEX
  5
472
  8
Layer_0
  10
-139.05153
  20
486.7153
  0
VERTEX
  5
473
  8
Layer_0
  10
-139.29462
  20
486.56888
  0
VERTEX
  5
474
  8
Layer_0
  10
-139.51053
  20
486.3916
  0
VERTEX
  5
475
  8
Layer_0
  10
-139.69708
  20
486.18726
  0
VERTEX
  5
476
  8
Layer_0
  10
-139.85211
  20
485.95956
  0
VERTEX
  5
477
  8
Layer_0
  10
-139.97345
  20
485.71228
  0
VERTEX
  5
478
  8
Layer_0
  10
-140.0589
  20
485.44913
  0
VERTEX
  5
479
  8
Layer_0
  10
-140.10632
  20
485.17383
  0
VERTEX
  5
47a
  8
Layer_0
  10
-140.11353
  20
484.89014
  0
VERTEX
  5
47b
  8
Layer_0
  10
-140.12387
  20
479.72211
  0
VERTEX
  5
47c
  8
Layer_0
  10
-140.69986
  20
479.7215
  0
VERTEX
  5
47d
  8
Layer_0
  10
-140.69482
  20
482.41766
  0
VERTEX
  5
47e
  8
Layer_0
  10
-140.69777
  20
485.11349
  0
VERTEX
  5
47f
  8
Layer_0
  10
-140.65775
  20
485.53256
  0
VERTEX
  5
480
  8
Layer_0
  10
-140.54543
  20
485.92764
  0
VERTEX
  5
481
  8
Layer_0
  10
-140.36728
  20
486.29135
  0
VERTEX
  5
482
  8
Layer_0
  10
-140.12981
  20
486.61627
  0
VERTEX
  5
483
  8
Layer_0
  10
-139.83948
  20
486.89496
  0
VERTEX
  5
484
  8
Layer_0
  10
-139.50279
  20
487.12003
  0
VERTEX
  5
485
  8
Layer_0
  10
-139.12622
  20
487.28406
  0
VERTEX
  5
486
  8
Layer_0
  10
-138.71625
  20
487.37967
  0
VERTEX
  5
487
  8
Layer_0
  10
-138.27341
  20
487.37753
  0
VERTEX
  5
488
  8
Layer_0
  10
-137.83437
  20
487.33978
  0
VERTEX
  5
489
  8
Layer_0
  10
-137.40118
  20
487.26703
  0
VERTEX
  5
48a
  8
Layer_0
  10
-136.97592
  20
487.15982
  0
VERTEX
  5
48b
  8
Layer_0
  10
-136.56064
  20
487.01886
  0
VERTEX
  5
48c
  8
Layer_0
  10
-136.15738
  20
486.84473
  0
VERTEX
  5
48d
  8
Layer_0
  10
-135.7682
  20
486.638
  0
VERTEX
  5
48e
  8
Layer_0
  10
-135.39519
  20
486.39929
  0
VERTEX
  5
48f
  8
Layer_0
  10
-135.39972
  20
490.53531
  0
VERTEX
  5
490
  8
Layer_0
  10
-134.81572
  20
490.53595
  0
SEQEND
  0
POLYLINE
  5
492
  8
Layer_0
  62
0
  70
1
  66
1
  10
0
  20
0
  30
0
  0
VERTEX
  5
492
  8
Layer_0
  10
-143.55844
  20
489.37436
  0
VERTEX
  5
493
  8
Layer_0
  10
-143.43613
  20
487.26251
  0
VERTEX
  5
494
  8
Layer_0
  10
-142.22798
  20
487.13583
  0
VERTEX
  5
495
  8
Layer_0
  10
-142.23558
  20
486.76782
  0
VERTEX
  5
496
  8
Layer_0
  10
-143.45158
  20
486.76648
  0
VERTEX
  5
497
  8
Layer_0
  10
-143.40639
  20
482.01453
  0
VERTEX
  5
498
  8
Layer_0
  10
-143.39151
  20
481.75098
  0
VERTEX
  5
499
  8
Layer_0
  10
-143.40645
  20
481.49005
  0
VERTEX
  5
49a
  8
Layer_0
  10
-143.45041
  20
481.23401
  0
VERTEX
  5
49b
  8
Layer_0
  10
-143.52252
  20
480.9852
  0
VERTEX
  5
49c
  8
Layer_0
  10
-143.62198
  20
480.74606
  0
VERTEX
  5
49d
  8
Layer_0
  10
-143.748
  20
480.51889
  0
VERTEX
  5
49e
  8
Layer_0
  10
-143.89972
  20
480.30603
  0
VERTEX
  5
49f
  8
Layer_0
  10
-144.07631
  20
480.1098
  0
VERTEX
  5
4a0
  8
Layer_0
  10
-144.30161
  20
479.948
  0
VERTEX
  5
4a1
  8
Layer_0
  10
-144.55009
  20
479.82965
  0
VERTEX
  5
4a2
  8
Layer_0
  10
-144.81561
  20
479.75711
  0
VERTEX
  5
4a3
  8
Layer_0
  10
-145.0919
  20
479.7327
  0
VERTEX
  5
4a4
  8
Layer_0
  10
-145.67178
  20
479.71603
  0
VERTEX
  5
4a5
  8
Layer_0
  10
-146.25188
  20
479.72342
  0
VERTEX
  5
4a6
  8
Layer_0
  10
-146.25232
  20
480.13141
  0
VERTEX
  5
4a7
  8
Layer_0
  10
-145.58917
  20
480.18036
  0
VERTEX
  5
4a8
  8
Layer_0
  10
-144.9325
  20
480.28485
  0
VERTEX
  5
4a9
  8
Layer_0
  10
-144.61339
  20
480.42871
  0
VERTEX
  5
4aa
  8
Layer_0
  10
-144.35146
  20
480.651
  0
VERTEX
  5
4ab
  8
Layer_0
  10
-144.16031
  20
480.93646
  0
VERTEX
  5
4ac
  8
Layer_0
  10
-144.05357
  20
481.26984
  0
VERTEX
  5
4ad
  8
Layer_0
  10
-144.00571
  20
481.64871
  0
VERTEX
  5
4ae
  8
Layer_0
  10
-143.98241
  20
482.02991
  0
VERTEX
  5
4af
  8
Layer_0
  10
-143.98759
  20
486.7659
  0
VERTEX
  5
4b0
  8
Layer_0
  10
-146.37158
  20
486.76328
  0
VERTEX
  5
4b1
  8
Layer_0
  10
-146.36412
  20
487.25931
  0
VERTEX
  5
4b2
  8
Layer_0
  10
-143.98813
  20
487.2619
  0
VERTEX
  5
4b3
  8
Layer_0
  10
-143.98244
  20
489.3739
  0
VERTEX
  5
4b4
  8
Layer_0
  10
-143.55844
  20
489.37436
  0
SEQEND
  0
POLYLINE
  5
4b6
  8
Layer_0
  62
0
  70
1
  66
1
  10
0
  20
0
  30
0
  0
VERTEX
  5
4b6
  8
Layer_0
  10
-129.73215
  20
487.28549
  0
VERTEX
  5
4b7
  8
Layer_0
  10
-129.7316
  20
486.78949
  0
VERTEX
  5
4b8
  8
Layer_0
  10
-130.09552
  20
486.79089
  0
VERTEX
  5
4b9
  8
Layer_0
  10
-130.45389
  20
486.73962
  0
VERTEX
  5
4ba
  8
Layer_0
  10
-130.80106
  20
486.6369
  0
VERTEX
  5
4bb
  8
Layer_0
  10
-131.13129
  20
486.48398
  0
VERTEX
  5
4bc
  8
Layer_0
  10
-131.43097
  20
486.20334
  0
VERTEX
  5
4bd
  8
Layer_0
  10
-131.65804
  20
485.86719
  0
VERTEX
  5
4be
  8
Layer_0
  10
-131.80534
  20
485.48926
  0
VERTEX
  5
4bf
  8
Layer_0
  10
-131.86574
  20
485.08316
  0
VERTEX
  5
4c0
  8
Layer_0
  10
-131.89507
  20
484.85223
  0
VERTEX
  5
4c1
  8
Layer_0
  10
-131.89757
  20
484.62183
  0
VERTEX
  5
4c2
  8
Layer_0
  10
-131.87387
  20
484.39404
  0
VERTEX
  5
4c3
  8
Layer_0
  10
-131.82458
  20
484.17114
  0
VERTEX
  5
4c4
  8
Layer_0
  10
-131.75032
  20
483.95526
  0
VERTEX
  5
4c5
  8
Layer_0
  10
-131.6517
  20
483.74863
  0
VERTEX
  5
4c6
  8
Layer_0
  10
-131.52936
  20
483.55334
  0
VERTEX
  5
4c7
  8
Layer_0
  10
-131.38387
  20
483.37167
  0
VERTEX
  5
4c8
  8
Layer_0
  10
-131.15488
  20
483.19516
  0
VERTEX
  5
4c9
  8
Layer_0
  10
-130.9014
  20
483.06027
  0
VERTEX
  5
4ca
  8
Layer_0
  10
-130.62903
  20
482.96936
  0
VERTEX
  5
4cb
  8
Layer_0
  10
-130.34338
  20
482.92484
  0
VERTEX
  5
4cc
  8
Layer_0
  10
-130.03574
  20
482.89282
  0
VERTEX
  5
4cd
  8
Layer_0
  10
-129.72731
  20
482.86951
  0
VERTEX
  5
4ce
  8
Layer_0
  10
-129.72679
  20
482.39749
  0
VERTEX
  5
4cf
  8
Layer_0
  10
-130.15979
  20
482.39978
  0
VERTEX
  5
4d0
  8
Layer_0
  10
-130.58664
  20
482.45972
  0
VERTEX
  5
4d1
  8
Layer_0
  10
-131.00166
  20
482.57605
  0
VERTEX
  5
4d2
  8
Layer_0
  10
-131.3992
  20
482.74768
  0
VERTEX
  5
4d3
  8
Layer_0
  10
-131.60944
  20
482.89734
  0
VERTEX
  5
4d4
  8
Layer_0
  10
-131.79913
  20
483.06848
  0
VERTEX
  5
4d5
  8
Layer_0
  10
-131.96704
  20
483.25894
  0
VERTEX
  5
4d6
  8
Layer_0
  10
-132.11179
  20
483.46661
  0
VERTEX
  5
4d7
  8
Layer_0
  10
-132.23209
  20
483.68933
  0
VERTEX
  5
4d8
  8
Layer_0
  10
-132.3266
  20
483.92499
  0
VERTEX
  5
4d9
  8
Layer_0
  10
-132.39401
  20
484.17145
  0
VERTEX
  5
4da
  8
Layer_0
  10
-132.43303
  20
484.42654
  0
VERTEX
  5
4db
  8
Layer_0
  10
-132.43372
  20
485.05054
  0
VERTEX
  5
4dc
  8
Layer_0
  10
-132.40305
  20
485.33484
  0
VERTEX
  5
4dd
  8
Layer_0
  10
-132.33418
  20
485.60809
  0
VERTEX
  5
4de
  8
Layer_0
  10
-132.22934
  20
485.86691
  0
VERTEX
  5
4df
  8
Layer_0
  10
-132.09073
  20
486.10797
  0
VERTEX
  5
4e0
  8
Layer_0
  10
-131.92062
  20
486.32794
  0
VERTEX
  5
4e1
  8
Layer_0
  10
-131.72125
  20
486.52347
  0
VERTEX
  5
4e2
  8
Layer_0
  10
-131.49484
  20
486.69122
  0
VERTEX
  5
4e3
  8
Layer_0
  10
-131.24365
  20
486.82785
  0
VERTEX
  5
4e4
  8
Layer_0
  10
-133.25977
  20
486.92963
  0
VERTEX
  5
4e5
  8
Layer_0
  10
-133.26015
  20
487.28165
  0
VERTEX
  5
4e6
  8
Layer_0
  10
-129.73215
  20
487.28549
  0
SEQEND
  0
POLYLINE
  5
4e8
  8
Layer_0
  62
0
  70
1
  66
1
  10
0
  20
0
  30
0
  0
VERTEX
  5
4e8
  8
Layer_0
  10
-47.216194
  20
487.33624
  0
VERTEX
  5
4e9
  8
Layer_0
  10
-47.215675
  20
486.86426
  0
VERTEX
  5
4ea
  8
Layer_0
  10
-47.576912
  20
486.86041
  0
VERTEX
  5
4eb
  8
Layer_0
  10
-47.934235
  20
486.8158
  0
VERTEX
  5
4ec
  8
Layer_0
  10
-48.284206
  20
486.73102
  0
VERTEX
  5
4ed
  8
Layer_0
  10
-48.623398
  20
486.60672
  0
VERTEX
  5
4ee
  8
Layer_0
  10
-48.916962
  20
486.3811
  0
VERTEX
  5
4ef
  8
Layer_0
  10
-49.143078
  20
486.09488
  0
VERTEX
  5
4f0
  8
Layer_0
  10
-49.293022
  20
485.76236
  0
VERTEX
  5
4f1
  8
Layer_0
  10
-49.358074
  20
485.39789
  0
VERTEX
  5
4f2
  8
Layer_0
  10
-49.384617
  20
485.08609
  0
VERTEX
  5
4f3
  8
Layer_0
  10
-49.373009
  20
484.77454
  0
VERTEX
  5
4f4
  8
Layer_0
  10
-49.323597
  20
484.46667
  0
VERTEX
  5
4f5
  8
Layer_0
  10
-49.236729
  20
484.16605
  0
VERTEX
  5
4f6
  8
Layer_0
  10
-49.073689
  20
483.96866
  0
VERTEX
  5
4f7
  8
Layer_0
  10
-48.871811
  20
483.81677
  0
VERTEX
  5
4f8
  8
Layer_0
  10
-48.640251
  20
483.71576
  0
VERTEX
  5
4f9
  8
Layer_0
  10
-48.388184
  20
483.67096
  0
VERTEX
  5
4fa
  8
Layer_0
  10
-47.80909
  20
483.62378
  0
VERTEX
  5
4fb
  8
Layer_0
  10
-47.228138
  20
483.63223
  0
VERTEX
  5
4fc
  8
Layer_0
  10
-47.219658
  20
483.19223
  0
VERTEX
  5
4fd
  8
Layer_0
  10
-47.646679
  20
483.1752
  0
VERTEX
  5
4fe
  8
Layer_0
  10
-48.073059
  20
483.19199
  0
VERTEX
  5
4ff
  8
Layer_0
  10
-48.496773
  20
483.24243
  0
VERTEX
  5
500
  8
Layer_0
  10
-48.915806
  20
483.32639
  0
VERTEX
  5
501
  8
Layer_0
  10
-49.146156
  20
483.43536
  0
VERTEX
  5
502
  8
Layer_0
  10
-49.351894
  20
483.57715
  0
VERTEX
  5
503
  8
Layer_0
  10
-49.530449
  20
483.74774
  0
VERTEX
  5
504
  8
Layer_0
  10
-49.679253
  20
483.94318
  0
VERTEX
  5
505
  8
Layer_0
  10
-49.795734
  20
484.15942
  0
VERTEX
  5
506
  8
Layer_0
  10
-49.877316
  20
484.39255
  0
VERTEX
  5
507
  8
Layer_0
  10
-49.921432
  20
484.63849
  0
VERTEX
  5
508
  8
Layer_0
  10
-49.925522
  20
484.89328
  0
VERTEX
  5
509
  8
Layer_0
  10
-49.912468
  20
485.24915
  0
VERTEX
  5
50a
  8
Layer_0
  10
-49.861294
  20
485.60052
  0
VERTEX
  5
50b
  8
Layer_0
  10
-49.772614
  20
485.94434
  0
VERTEX
  5
50c
  8
Layer_0
  10
-49.647034
  20
486.27759
  0
VERTEX
  5
50d
  8
Layer_0
  10
-49.519299
  20
486.48462
  0
VERTEX
  5
50e
  8
Layer_0
  10
-49.367493
  20
486.67072
  0
VERTEX
  5
50f
  8
Layer_0
  10
-49.19421
  20
486.83417
  0
VERTEX
  5
510
  8
Layer_0
  10
-49.002033
  20
486.97339
  0
VERTEX
  5
511
  8
Layer_0
  10
-48.793549
  20
487.08673
  0
VERTEX
  5
512
  8
Layer_0
  10
-48.571342
  20
487.17261
  0
VERTEX
  5
513
  8
Layer_0
  10
-48.338001
  20
487.22931
  0
VERTEX
  5
514
  8
Layer_0
  10
-48.096107
  20
487.25528
  0
VERTEX
  5
515
  8
Layer_0
  10
-47.658401
  20
487.32025
  0
VERTEX
  5
516
  8
Layer_0
  10
-47.216194
  20
487.33624
  0
SEQEND
  0
POLYLINE
  5
518
  8
Layer_0
  62
0
  70
1
  66
1
  10
0
  20
0
  30
0
  0
VERTEX
  5
518
  8
Layer_0
  10
-77.272194
  20
487.32657
  0
VERTEX
  5
519
  8
Layer_0
  10
-77.271683
  20
486.86255
  0
VERTEX
  5
51a
  8
Layer_0
  10
-77.621902
  20
486.85449
  0
VERTEX
  5
51b
  8
Layer_0
  10
-77.967606
  20
486.80573
  0
VERTEX
  5
51c
  8
Layer_0
  10
-78.305267
  20
486.71704
  0
VERTEX
  5
51d
  8
Layer_0
  10
-78.631386
  20
486.58908
  0
VERTEX
  5
51e
  8
Layer_0
  10
-78.90345
  20
486.35986
  0
VERTEX
  5
51f
  8
Layer_0
  10
-79.112045
  20
486.07767
  0
VERTEX
  5
520
  8
Layer_0
  10
-79.249992
  20
485.75494
  0
VERTEX
  5
521
  8
Layer_0
  10
-79.310081
  20
485.40433
  0
VERTEX
  5
522
  8
Layer_0
  10
-79.337555
  20
485.09247
  0
VERTEX
  5
523
  8
Layer_0
  10
-79.326256
  20
484.78082
  0
VERTEX
  5
524
  8
Layer_0
  10
-79.276535
  20
484.47296
  0
VERTEX
  5
525
  8
Layer_0
  10
-79.188744
  20
484.17245
  0
VERTEX
  5
526
  8
Layer_0
  10
-79.058319
  20
484.00027
  0
VERTEX
  5
527
  8
Layer_0
  10
-78.896011
  20
483.86157
  0
VERTEX
  5
528
  8
Layer_0
  10
-78.707939
  20
483.7605
  0
VERTEX
  5
529
  8
Layer_0
  10
-78.500221
  20
483.70123
  0
VERTEX
  5
52a
  8
Layer_0
  10
-78.194244
  20
483.65515
  0
VERTEX
  5
52b
  8
Layer_0
  10
-77.886246
  20
483.62933
  0
VERTEX
  5
52c
  8
Layer_0
  10
-77.577225
  20
483.62378
  0
VERTEX
  5
52d
  8
Layer_0
  10
-77.268158
  20
483.63855
  0
VERTEX
  5
52e
  8
Layer_0
  10
-77.267677
  20
483.19858
  0
VERTEX
  5
52f
  8
Layer_0
  10
-77.677216
  20
483.1806
  0
VERTEX
  5
530
  8
Layer_0
  10
-78.085999
  20
483.19843
  0
VERTEX
  5
531
  8
Layer_0
  10
-78.491653
  20
483.25189
  0
VERTEX
  5
532
  8
Layer_0
  10
-78.89183
  20
483.34079
  0
VERTEX
  5
533
  8
Layer_0
  10
-79.119667
  20
483.44962
  0
VERTEX
  5
534
  8
Layer_0
  10
-79.322746
  20
483.59119
  0
VERTEX
  5
535
  8
Layer_0
  10
-79.498497
  20
483.76135
  0
VERTEX
  5
536
  8
Layer_0
  10
-79.644356
  20
483.95609
  0
VERTEX
  5
537
  8
Layer_0
  10
-79.757759
  20
484.17133
  0
VERTEX
  5
538
  8
Layer_0
  10
-79.836128
  20
484.40308
  0
VERTEX
  5
539
  8
Layer_0
  10
-79.876907
  20
484.64722
  0
VERTEX
  5
53a
  8
Layer_0
  10
-79.877533
  20
484.89972
  0
VERTEX
  5
53b
  8
Layer_0
  10
-79.868927
  20
485.27753
  0
VERTEX
  5
53c
  8
Layer_0
  10
-79.815109
  20
485.65021
  0
VERTEX
  5
53d
  8
Layer_0
  10
-79.716888
  20
486.01373
  0
VERTEX
  5
53e
  8
Layer_0
  10
-79.575134
  20
486.36404
  0
VERTEX
  5
53f
  8
Layer_0
  10
-79.442818
  20
486.54889
  0
VERTEX
  5
540
  8
Layer_0
  10
-79.291206
  20
486.71512
  0
VERTEX
  5
541
  8
Layer_0
  10
-79.122292
  20
486.86148
  0
VERTEX
  5
542
  8
Layer_0
  10
-78.938065
  20
486.98682
  0
VERTEX
  5
543
  8
Layer_0
  10
-78.74054
  20
487.0899
  0
VERTEX
  5
544
  8
Layer_0
  10
-78.5317
  20
487.16953
  0
VERTEX
  5
545
  8
Layer_0
  10
-78.31356
  20
487.22449
  0
VERTEX
  5
546
  8
Layer_0
  10
-78.088104
  20
487.25366
  0
VERTEX
  5
547
  8
Layer_0
  10
-77.681961
  20
487.31036
  0
VERTEX
  5
548
  8
Layer_0
  10
-77.272194
  20
487.32657
  0
SEQEND
  0
POLYLINE
  5
54a
  8
Layer_0
  62
0
  70
1
  66
1
  10
0
  20
0
  30
0
  0
VERTEX
  5
54a
  8
Layer_0
  10
-90.711693
  20
486.87186
  0
VERTEX
  5
54b
  8
Layer_0
  10
-91.094765
  20
486.86157
  0
VERTEX
  5
54c
  8
Layer_0
  10
-91.471161
  20
486.79974
  0
VERTEX
  5
54d
  8
Layer_0
  10
-91.835724
  20
486.68756
  0
VERTEX
  5
54e
  8
Layer_0
  10
-92.183311
  20
486.52625
  0
VERTEX
  5
54f
  8
Layer_0
  10
-92.392799
  20
486.33627
  0
VERTEX
  5
550
  8
Layer_0
  10
-92.558655
  20
486.11066
  0
VERTEX
  5
551
  8
Layer_0
  10
-92.67659
  20
485.85669
  0
VERTEX
  5
552
  8
Layer_0
  10
-92.742287
  20
485.58163
  0
VERTEX
  5
553
  8
Layer_0
  10
-92.793221
  20
485.23389
  0
VERTEX
  5
554
  8
Layer_0
  10
-92.796417
  20
484.88409
  0
VERTEX
  5
555
  8
Layer_0
  10
-92.752167
  20
484.53705
  0
VERTEX
  5
556
  8
Layer_0
  10
-92.660767
  20
484.19772
  0
VERTEX
  5
557
  8
Layer_0
  10
-92.523651
  20
484.00299
  0
VERTEX
  5
558
  8
Layer_0
  10
-92.344795
  20
483.85135
  0
VERTEX
  5
559
  8
Layer_0
  10
-92.133789
  20
483.74908
  0
VERTEX
  5
55a
  8
Layer_0
  10
-91.900223
  20
483.70255
  0
VERTEX
  5
55b
  8
Layer_0
  10
-91.682541
  20
483.65454
  0
VERTEX
  5
55c
  8
Layer_0
  10
-91.460152
  20
483.63904
  0
VERTEX
  5
55d
  8
Layer_0
  10
-90.708153
  20
483.63986
  0
VERTEX
  5
55e
  8
Layer_0
  10
-90.707672
  20
483.19986
  0
VERTEX
  5
55f
  8
Layer_0
  10
-91.083435
  20
483.18643
  0
VERTEX
  5
560
  8
Layer_0
  10
-91.458832
  20
483.19775
  0
VERTEX
  5
561
  8
Layer_0
  10
-91.832687
  20
483.2337
  0
VERTEX
  5
562
  8
Layer_0
  10
-92.203781
  20
483.29422
  0
VERTEX
  5
563
  8
Layer_0
  10
-92.428436
  20
483.3714
  0
VERTEX
  5
564
  8
Layer_0
  10
-92.634598
  20
483.48056
  0
VERTEX
  5
565
  8
Layer_0
  10
-92.819588
  20
483.61847
  0
VERTEX
  5
566
  8
Layer_0
  10
-92.980728
  20
483.78204
  0
VERTEX
  5
567
  8
Layer_0
  10
-93.115341
  20
483.96802
  0
VERTEX
  5
568
  8
Layer_0
  10
-93.220749
  20
484.17328
  0
VERTEX
  5
569
  8
Layer_0
  10
-93.294273
  20
484.39465
  0
VERTEX
  5
56a
  8
Layer_0
  10
-93.333237
  20
484.629
  0
VERTEX
  5
56b
  8
Layer_0
  10
-93.333687
  20
485.00104
  0
VERTEX
  5
56c
  8
Layer_0
  10
-93.326057
  20
485.37299
  0
VERTEX
  5
56d
  8
Layer_0
  10
-93.264259
  20
485.71762
  0
VERTEX
  5
56e
  8
Layer_0
  10
-93.158813
  20
486.05005
  0
VERTEX
  5
56f
  8
Layer_0
  10
-93.011337
  20
486.36609
  0
VERTEX
  5
570
  8
Layer_0
  10
-92.823463
  20
486.66156
  0
VERTEX
  5
571
  8
Layer_0
  10
-92.545258
  20
486.89539
  0
VERTEX
  5
572
  8
Layer_0
  10
-92.23291
  20
487.07593
  0
VERTEX
  5
573
  8
Layer_0
  10
-91.893997
  20
487.19965
  0
VERTEX
  5
574
  8
Layer_0
  10
-91.536125
  20
487.26294
  0
VERTEX
  5
575
  8
Layer_0
  10
-91.121902
  20
487.31924
  0
VERTEX
  5
576
  8
Layer_0
  10
-90.704201
  20
487.33588
  0
VERTEX
  5
577
  8
Layer_0
  10
-90.711693
  20
486.87186
  0
SEQEND
  0
POLYLINE
  5
579
  8
Layer_0
  62
0
  70
1
  66
1
  10
0
  20
0
  30
0
  0
VERTEX
  5
579
  8
Layer_0
  10
-110.48022
  20
487.33823
  0
VERTEX
  5
57a
  8
Layer_0
  10
-110.4797
  20
486.86621
  0
VERTEX
  5
57b
  8
Layer_0
  10
-110.89658
  20
486.86188
  0
VERTEX
  5
57c
  8
Layer_0
  10
-111.30383
  20
486.78793
  0
VERTEX
  5
57d
  8
Layer_0
  10
-111.6929
  20
486.64673
  0
VERTEX
  5
57e
  8
Layer_0
  10
-112.05522
  20
486.44049
  0
VERTEX
  5
57f
  8
Layer_0
  10
-112.22152
  20
486.25793
  0
VERTEX
  5
580
  8
Layer_0
  10
-112.35315
  20
486.05109
  0
VERTEX
  5
581
  8
Layer_0
  10
-112.44759
  20
485.82483
  0
VERTEX
  5
582
  8
Layer_0
  10
-112.50228
  20
485.58401
  0
VERTEX
  5
583
  8
Layer_0
  10
-112.54314
  20
485.25977
  0
VERTEX
  5
584
  8
Layer_0
  10
-112.54979
  20
484.93387
  0
VERTEX
  5
585
  8
Layer_0
  10
-112.52233
  20
484.60907
  0
VERTEX
  5
586
  8
Layer_0
  10
-112.46086
  20
484.28806
  0
VERTEX
  5
587
  8
Layer_0
  10
-112.3353
  20
484.077
  0
VERTEX
  5
588
  8
Layer_0
  10
-112.165
  20
483.90491
  0
VERTEX
  5
589
  8
Layer_0
  10
-111.95847
  20
483.77859
  0
VERTEX
  5
58a
  8
Layer_0
  10
-111.72423
  20
483.70486
  0
VERTEX
  5
58b
  8
Layer_0
  10
-111.41626
  20
483.65866
  0
VERTEX
  5
58c
  8
Layer_0
  10
-111.10626
  20
483.63278
  0
VERTEX
  5
58d
  8
Layer_0
  10
-110.79523
  20
483.62729
  0
VERTEX
  5
58e
  8
Layer_0
  10
-110.48417
  20
483.64221
  0
VERTEX
  5
58f
  8
Layer_0
  10
-110.49168
  20
483.20221
  0
VERTEX
  5
590
  8
Layer_0
  10
-110.89725
  20
483.18433
  0
VERTEX
  5
591
  8
Layer_0
  10
-111.30206
  20
483.20218
  0
VERTEX
  5
592
  8
Layer_0
  10
-111.70371
  20
483.25565
  0
VERTEX
  5
593
  8
Layer_0
  10
-112.09983
  20
483.34445
  0
VERTEX
  5
594
  8
Layer_0
  10
-112.33059
  20
483.45053
  0
VERTEX
  5
595
  8
Layer_0
  10
-112.53631
  20
483.59045
  0
VERTEX
  5
596
  8
Layer_0
  10
-112.71428
  20
483.76001
  0
VERTEX
  5
597
  8
Layer_0
  10
-112.86181
  20
483.9549
  0
VERTEX
  5
598
  8
Layer_0
  10
-112.9762
  20
484.1709
  0
VERTEX
  5
599
  8
Layer_0
  10
-113.05475
  20
484.40381
  0
VERTEX
  5
59a
  8
Layer_0
  10
-113.09476
  20
484.64938
  0
VERTEX
  5
59b
  8
Layer_0
  10
-113.09354
  20
484.90338
  0
VERTEX
  5
59c
  8
Layer_0
  10
-113.08479
  20
485.28375
  0
VERTEX
  5
59d
  8
Layer_0
  10
-113.02956
  20
485.65875
  0
VERTEX
  5
59e
  8
Layer_0
  10
-112.92871
  20
486.02417
  0
VERTEX
  5
59f
  8
Layer_0
  10
-112.78315
  20
486.3757
  0
VERTEX
  5
5a0
  8
Layer_0
  10
-112.6527
  20
486.56122
  0
VERTEX
  5
5a1
  8
Layer_0
  10
-112.50261
  20
486.72791
  0
VERTEX
  5
5a2
  8
Layer_0
  10
-112.33493
  20
486.87463
  0
VERTEX
  5
5a3
  8
Layer_0
  10
-112.15169
  20
487.00012
  0
VERTEX
  5
5a4
  8
Layer_0
  10
-111.95494
  20
487.10318
  0
VERTEX
  5
5a5
  8
Layer_0
  10
-111.74673
  20
487.18256
  0
VERTEX
  5
5a6
  8
Layer_0
  10
-111.52911
  20
487.237
  0
VERTEX
  5
5a7
  8
Layer_0
  10
-111.30413
  20
487.26532
  0
VERTEX
  5
5a8
  8
Layer_0
  10
-110.89398
  20
487.32214
  0
VERTEX
  5
5a9
  8
Layer_0
  10
-110.48022
  20
487.33823
  0
SEQEND
  0
POLYLINE
  5
5ab
  8
Layer_0
  62
0
  70
1
  66
1
  10
0
  20
0
  30
0
  0
VERTEX
  5
5ab
  8
Layer_0
  10
-122.7912
  20
490.07709
  0
VERTEX
  5
5ac
  8
Layer_0
  10
-122.68954
  20
490.03094
  0
VERTEX
  5
5ad
  8
Layer_0
  10
-122.62305
  20
489.94128
  0
VERTEX
  5
5ae
  8
Layer_0
  10
-122.62189
  20
488.87729
  0
VERTEX
  5
5af
  8
Layer_0
  10
-122.62985
  20
488.83728
  0
VERTEX
  5
5b0
  8
Layer_0
  10
-122.66852
  20
488.78613
  0
VERTEX
  5
5b1
  8
Layer_0
  10
-122.72575
  20
488.75717
  0
VERTEX
  5
5b2
  8
Layer_0
  10
-122.97354
  20
488.74088
  0
VERTEX
  5
5b3
  8
Layer_0
  10
-123.22174
  20
488.74863
  0
VERTEX
  5
5b4
  8
Layer_0
  10
-123.29341
  20
488.79883
  0
VERTEX
  5
5b5
  8
Layer_0
  10
-123.33389
  20
488.8765
  0
VERTEX
  5
5b6
  8
Layer_0
  10
-123.33499
  20
489.88449
  0
VERTEX
  5
5b7
  8
Layer_0
  10
-123.30455
  20
489.97852
  0
VERTEX
  5
5b8
  8
Layer_0
  10
-123.23917
  20
490.05261
  0
VERTEX
  5
5b9
  8
Layer_0
  10
-123.01598
  20
490.07935
  0
VERTEX
  5
5ba
  8
Layer_0
  10
-122.7912
  20
490.07709
  0
SEQEND
  0
POLYLINE
  5
5bc
  8
Layer_0
  62
0
  70
1
  66
1
  10
0
  20
0
  30
0
  0
VERTEX
  5
5bc
  8
Layer_0
  10
-129.72495
  20
480.70151
  0
VERTEX
  5
5bd
  8
Layer_0
  10
-129.73242
  20
480.2215
  0
VERTEX
  5
5be
  8
Layer_0
  10
-130.1954
  20
480.23056
  0
VERTEX
  5
5bf
  8
Layer_0
  10
-130.65813
  20
480.21991
  0
VERTEX
  5
5c0
  8
Layer_0
  10
-131.12
  20
480.18951
  0
VERTEX
  5
5c1
  8
Layer_0
  10
-131.58034
  20
480.13947
  0
VERTEX
  5
5c2
  8
Layer_0
  10
-131.82057
  20
480.06699
  0
VERTEX
  5
5c3
  8
Layer_0
  10
-132.04681
  20
479.96136
  0
VERTEX
  5
5c4
  8
Layer_0
  10
-132.25568
  20
479.82458
  0
VERTEX
  5
5c5
  8
Layer_0
  10
-132.4438
  20
479.65854
  0
VERTEX
  5
5c6
  8
Layer_0
  10
-132.57008
  20
479.43304
  0
VERTEX
  5
5c7
  8
Layer_0
  10
-132.65952
  20
479.19214
  0
VERTEX
  5
5c8
  8
Layer_0
  10
-132.71083
  20
478.9404
  0
VERTEX
  5
5c9
  8
Layer_0
  10
-132.72273
  20
478.68222
  0
VERTEX
  5
5ca
  8
Layer_0
  10
-132.74496
  20
478.35815
  0
VERTEX
  5
5cb
  8
Layer_0
  10
-132.70438
  20
478.04532
  0
VERTEX
  5
5cc
  8
Layer_0
  10
-132.606
  20
477.75098
  0
VERTEX
  5
5cd
  8
Layer_0
  10
-132.45494
  20
477.48242
  0
VERTEX
  5
5ce
  8
Layer_0
  10
-132.25621
  20
477.24692
  0
VERTEX
  5
5cf
  8
Layer_0
  10
-132.01489
  20
477.05176
  0
VERTEX
  5
5d0
  8
Layer_0
  10
-131.73604
  20
476.90424
  0
VERTEX
  5
5d1
  8
Layer_0
  10
-131.4247
  20
476.81165
  0
VERTEX
  5
5d2
  8
Layer_0
  10
-131.00299
  20
476.75388
  0
VERTEX
  5
5d3
  8
Layer_0
  10
-130.57899
  20
476.72156
  0
VERTEX
  5
5d4
  8
Layer_0
  10
-130.15382
  20
476.71475
  0
VERTEX
  5
5d5
  8
Layer_0
  10
-129.72861
  20
476.73349
  0
VERTEX
  5
5d6
  8
Layer_0
  10
-129.72809
  20
476.26151
  0
VERTEX
  5
5d7
  8
Layer_0
  10
-130.21631
  20
476.24057
  0
VERTEX
  5
5d8
  8
Layer_0
  10
-130.70422
  20
476.2533
  0
VERTEX
  5
5d9
  8
Layer_0
  10
-131.19012
  20
476.29962
  0
VERTEX
  5
5da
  8
Layer_0
  10
-131.67223
  20
476.37936
  0
VERTEX
  5
5db
  8
Layer_0
  10
-132.03481
  20
476.50015
  0
VERTEX
  5
5dc
  8
Layer_0
  10
-132.36148
  20
476.67999
  0
VERTEX
  5
5dd
  8
Layer_0
  10
-132.647
  20
476.91162
  0
VERTEX
  5
5de
  8
Layer_0
  10
-132.88618
  20
477.18777
  0
VERTEX
  5
5df
  8
Layer_0
  10
-133.07376
  20
477.50128
  0
VERTEX
  5
5e0
  8
Layer_0
  10
-133.20451
  20
477.84494
  0
VERTEX
  5
5e1
  8
Layer_0
  10
-133.27321
  20
478.21146
  0
VERTEX
  5
5e2
  8
Layer_0
  10
-133.27464
  20
478.59363
  0
VERTEX
  5
5e3
  8
Layer_0
  10
-133.25734
  20
478.88687
  0
VERTEX
  5
5e4
  8
Layer_0
  10
-133.21288
  20
479.17657
  0
VERTEX
  5
5e5
  8
Layer_0
  10
-133.14162
  20
479.46085
  0
VERTEX
  5
5e6
  8
Layer_0
  10
-133.0439
  20
479.73785
  0
VERTEX
  5
5e7
  8
Layer_0
  10
-132.81516
  20
480.04468
  0
VERTEX
  5
5e8
  8
Layer_0
  10
-132.52899
  20
480.2923
  0
VERTEX
  5
5e9
  8
Layer_0
  10
-132.19652
  20
480.47302
  0
VERTEX
  5
5ea
  8
Layer_0
  10
-131.82881
  20
480.57919
  0
VERTEX
  5
5eb
  8
Layer_0
  10
-131.29289
  20
480.67548
  0
VERTEX
  5
5ec
  8
Layer_0
  10
-130.74895
  20
480.70038
  0
VERTEX
  5
5ed
  8
Layer_0
  10
-129.72495
  20
480.70151
  0
SEQEND
  0
POLYLINE
  5
5ef
  8
Layer_0
  62
0
  70
1
  66
1
  10
0
  20
0
  30
0
  0
VERTEX
  5
5ef
  8
Layer_0
  10
-128.20415
  20
487.28717
  0
VERTEX
  5
5f0
  8
Layer_0
  10
-127.68486
  20
487.26407
  0
VERTEX
  5
5f1
  8
Layer_0
  10
-127.17879
  20
487.16028
  0
VERTEX
  5
5f2
  8
Layer_0
  10
-126.69524
  20
486.97845
  0
VERTEX
  5
5f3
  8
Layer_0
  10
-126.24353
  20
486.72131
  0
VERTEX
  5
5f4
  8
Layer_0
  10
-125.9944
  20
486.47583
  0
VERTEX
  5
5f5
  8
Layer_0
  10
-125.79495
  20
486.19183
  0
VERTEX
  5
5f6
  8
Layer_0
  10
-125.64947
  20
485.87677
  0
VERTEX
  5
5f7
  8
Layer_0
  10
-125.56223
  20
485.53806
  0
VERTEX
  5
5f8
  8
Layer_0
  10
-125.50893
  20
485.24628
  0
VERTEX
  5
5f9
  8
Layer_0
  10
-125.48713
  20
484.953
  0
VERTEX
  5
5fa
  8
Layer_0
  10
-125.49635
  20
484.66064
  0
VERTEX
  5
5fb
  8
Layer_0
  10
-125.53615
  20
484.37164
  0
VERTEX
  5
5fc
  8
Layer_0
  10
-125.60606
  20
484.08838
  0
VERTEX
  5
5fd
  8
Layer_0
  10
-125.7056
  20
483.81335
  0
VERTEX
  5
5fe
  8
Layer_0
  10
-125.83434
  20
483.54895
  0
VERTEX
  5
5ff
  8
Layer_0
  10
-125.99179
  20
483.29758
  0
VERTEX
  5
600
  8
Layer_0
  10
-126.19383
  20
483.08948
  0
VERTEX
  5
601
  8
Layer_0
  10
-126.42215
  20
482.91302
  0
VERTEX
  5
602
  8
Layer_0
  10
-126.67312
  20
482.77057
  0
VERTEX
  5
603
  8
Layer_0
  10
-126.94308
  20
482.66455
  0
VERTEX
  5
604
  8
Layer_0
  10
-126.62569
  20
482.60724
  0
VERTEX
  5
605
  8
Layer_0
  10
-126.32879
  20
482.48941
  0
VERTEX
  5
606
  8
Layer_0
  10
-126.06087
  20
482.31546
  0
VERTEX
  5
607
  8
Layer_0
  10
-125.83046
  20
482.08975
  0
VERTEX
  5
608
  8
Layer_0
  10
-125.72176
  20
481.8869
  0
VERTEX
  5
609
  8
Layer_0
  10
-125.65576
  20
481.67307
  0
VERTEX
  5
60a
  8
Layer_0
  10
-125.63147
  20
481.4541
  0
VERTEX
  5
60b
  8
Layer_0
  10
-125.64789
  20
481.23596
  0
VERTEX
  5
60c
  8
Layer_0
  10
-125.70402
  20
481.02451
  0
VERTEX
  5
60d
  8
Layer_0
  10
-125.79886
  20
480.82568
  0
VERTEX
  5
60e
  8
Layer_0
  10
-125.93142
  20
480.64539
  0
VERTEX
  5
60f
  8
Layer_0
  10
-126.10071
  20
480.48947
  0
VERTEX
  5
610
  8
Layer_0
  10
-126.23505
  20
480.40982
  0
VERTEX
  5
611
  8
Layer_0
  10
-126.38057
  20
480.35315
  0
VERTEX
  5
612
  8
Layer_0
  10
-126.08782
  20
480.23602
  0
VERTEX
  5
613
  8
Layer_0
  10
-125.82401
  20
480.07541
  0
VERTEX
  5
614
  8
Layer_0
  10
-125.59273
  20
479.87637
  0
VERTEX
  5
615
  8
Layer_0
  10
-125.39758
  20
479.64398
  0
VERTEX
  5
616
  8
Layer_0
  10
-125.24218
  20
479.38336
  0
VERTEX
  5
617
  8
Layer_0
  10
-125.13013
  20
479.09955
  0
VERTEX
  5
618
  8
Layer_0
  10
-125.06503
  20
478.79758
  0
VERTEX
  5
619
  8
Layer_0
  10
-125.05051
  20
478.4826
  0
VERTEX
  5
61a
  8
Layer_0
  10
-125.03342
  20
478.21136
  0
VERTEX
  5
61b
  8
Layer_0
  10
-125.05438
  20
477.9444
  0
VERTEX
  5
61c
  8
Layer_0
  10
-125.11177
  20
477.68536
  0
VERTEX
  5
61d
  8
Layer_0
  10
-125.20397
  20
477.43781
  0
VERTEX
  5
61e
  8
Layer_0
  10
-125.32936
  20
477.20526
  0
VERTEX
  5
61f
  8
Layer_0
  10
-125.48633
  20
476.99136
  0
VERTEX
  5
620
  8
Layer_0
  10
-125.67324
  20
476.79965
  0
VERTEX
  5
621
  8
Layer_0
  10
-125.88849
  20
476.6337
  0
VERTEX
  5
622
  8
Layer_0
  10
-126.28689
  20
476.46436
  0
VERTEX
  5
623
  8
Layer_0
  10
-126.70145
  20
476.34555
  0
VERTEX
  5
624
  8
Layer_0
  10
-127.12743
  20
476.27838
  0
VERTEX
  5
625
  8
Layer_0
  10
-127.56009
  20
476.26385
  0
VERTEX
  5
626
  8
Layer_0
  10
-128.20808
  20
476.26315
  0
VERTEX
  5
627
  8
Layer_0
  10
-128.2086
  20
476.72717
  0
VERTEX
  5
628
  8
Layer_0
  10
-127.74025
  20
476.71271
  0
VERTEX
  5
629
  8
Layer_0
  10
-127.2739
  20
476.74451
  0
VERTEX
  5
62a
  8
Layer_0
  10
-126.81294
  20
476.82211
  0
VERTEX
  5
62b
  8
Layer_0
  10
-126.36082
  20
476.94519
  0
VERTEX
  5
62c
  8
Layer_0
  10
-126.20004
  20
477.02637
  0
VERTEX
  5
62d
  8
Layer_0
  10
-126.05499
  20
477.1283
  0
VERTEX
  5
62e
  8
Layer_0
  10
-125.92722
  20
477.24881
  0
VERTEX
  5
62f
  8
Layer_0
  10
-125.81828
  20
477.38556
  0
VERTEX
  5
630
  8
Layer_0
  10
-125.72975
  20
477.53632
  0
VERTEX
  5
631
  8
Layer_0
  10
-125.66316
  20
477.69882
  0
VERTEX
  5
632
  8
Layer_0
  10
-125.62007
  20
477.87082
  0
VERTEX
  5
633
  8
Layer_0
  10
-125.60204
  20
478.05002
  0
VERTEX
  5
634
  8
Layer_0
  10
-125.56685
  20
478.41974
  0
VERTEX
  5
635
  8
Layer_0
  10
-125.59633
  20
478.78723
  0
VERTEX
  5
636
  8
Layer_0
  10
-125.68906
  20
479.14404
  0
VERTEX
  5
637
  8
Layer_0
  10
-125.84361
  20
479.48175
  0
VERTEX
  5
638
  8
Layer_0
  10
-126.07669
  20
479.74615
  0
VERTEX
  5
639
  8
Layer_0
  10
-126.35747
  20
479.95282
  0
VERTEX
  5
63a
  8
Layer_0
  10
-126.6755
  20
480.09564
  0
VERTEX
  5
63b
  8
Layer_0
  10
-127.02036
  20
480.16846
  0
VERTEX
  5
63c
  8
Layer_0
  10
-127.61118
  20
480.22253
  0
VERTEX
  5
63d
  8
Layer_0
  10
-128.20442
  20
480.21515
  0
VERTEX
  5
63e
  8
Layer_0
  10
-128.20494
  20
480.69516
  0
VERTEX
  5
63f
  8
Layer_0
  10
-127.04494
  20
480.69644
  0
VERTEX
  5
640
  8
Layer_0
  10
-126.851
  20
480.72028
  0
VERTEX
  5
641
  8
Layer_0
  10
-126.66512
  20
480.77606
  0
VERTEX
  5
642
  8
Layer_0
  10
-126.49123
  20
480.86224
  0
VERTEX
  5
643
  8
Layer_0
  10
-126.33324
  20
480.9772
  0
VERTEX
  5
644
  8
Layer_0
  10
-126.24924
  20
481.11261
  0
VERTEX
  5
645
  8
Layer_0
  10
-126.19411
  20
481.25751
  0
VERTEX
  5
646
  8
Layer_0
  10
-126.16744
  20
481.40784
  0
VERTEX
  5
647
  8
Layer_0
  10
-126.16882
  20
481.55945
  0
VERTEX
  5
648
  8
Layer_0
  10
-126.19784
  20
481.70828
  0
VERTEX
  5
649
  8
Layer_0
  10
-126.25406
  20
481.85022
  0
VERTEX
  5
64a
  8
Layer_0
  10
-126.33707
  20
481.9812
  0
VERTEX
  5
64b
  8
Layer_0
  10
-126.44647
  20
482.09708
  0
VERTEX
  5
64c
  8
Layer_0
  10
-126.66685
  20
482.21707
  0
VERTEX
  5
64d
  8
Layer_0
  10
-126.89952
  20
482.30814
  0
VERTEX
  5
64e
  8
Layer_0
  10
-127.14175
  20
482.36938
  0
VERTEX
  5
64f
  8
Layer_0
  10
-127.39079
  20
482.40005
  0
VERTEX
  5
650
  8
Layer_0
  10
-128.2068
  20
482.39917
  0
VERTEX
  5
651
  8
Layer_0
  10
-128.19933
  20
482.87918
  0
VERTEX
  5
652
  8
Layer_0
  10
-127.78278
  20
482.87009
  0
VERTEX
  5
653
  8
Layer_0
  10
-127.37473
  20
482.93567
  0
VERTEX
  5
654
  8
Layer_0
  10
-126.9851
  20
483.07343
  0
VERTEX
  5
655
  8
Layer_0
  10
-126.62378
  20
483.28088
  0
VERTEX
  5
656
  8
Layer_0
  10
-126.40636
  20
483.5069
  0
VERTEX
  5
657
  8
Layer_0
  10
-126.24057
  20
483.76941
  0
VERTEX
  5
658
  8
Layer_0
  10
-126.13069
  20
484.05984
  0
VERTEX
  5
659
  8
Layer_0
  10
-126.08096
  20
484.36951
  0
VERTEX
  5
65a
  8
Layer_0
  10
-126.05053
  20
484.7222
  0
VERTEX
  5
65b
  8
Layer_0
  10
-126.05812
  20
485.07513
  0
VERTEX
  5
65c
  8
Layer_0
  10
-126.10352
  20
485.42523
  0
VERTEX
  5
65d
  8
Layer_0
  10
-126.18649
  20
485.76938
  0
VERTEX
  5
65e
  8
Layer_0
  10
-126.28319
  20
485.96292
  0
VERTEX
  5
65f
  8
Layer_0
  10
-126.40352
  20
486.1391
  0
VERTEX
  5
660
  8
Layer_0
  10
-126.54514
  20
486.29623
  0
VERTEX
  5
661
  8
Layer_0
  10
-126.70574
  20
486.43259
  0
VERTEX
  5
662
  8
Layer_0
  10
-126.883
  20
486.54645
  0
VERTEX
  5
663
  8
Layer_0
  10
-127.07462
  20
486.63611
  0
VERTEX
  5
664
  8
Layer_0
  10
-127.27823
  20
486.69986
  0
VERTEX
  5
665
  8
Layer_0
  10
-127.49155
  20
486.73596
  0
VERTEX
  5
666
  8
Layer_0
  10
-127.84599
  20
486.78406
  0
VERTEX
  5
667
  8
Layer_0
  10
-128.2036
  20
486.79117
  0
VERTEX
  5
668
  8
Layer_0
  10
-128.20415
  20
487.28717
  0
SEQEND
  0
POLYLINE
  5
66a
  8
Layer_0
  62
0
  70
1
  66
1
  10
0
  20
0
  30
0
  0
VERTEX
  5
66a
  8
Layer_0
  10
-46.148167
  20
487.31296
  0
VERTEX
  5
66b
  8
Layer_0
  10
-45.650986
  20
487.26221
  0
VERTEX
  5
66c
  8
Layer_0
  10
-45.174896
  20
487.12396
  0
VERTEX
  5
66d
  8
Layer_0
  10
-44.731251
  20
486.90271
  0
VERTEX
  5
66e
  8
Layer_0
  10
-44.33139
  20
486.60294
  0
VERTEX
  5
66f
  8
Layer_0
  10
-44.175247
  20
486.40274
  0
VERTEX
  5
670
  8
Layer_0
  10
-44.043571
  20
486.18658
  0
VERTEX
  5
671
  8
Layer_0
  10
-43.937565
  20
485.95673
  0
VERTEX
  5
672
  8
Layer_0
  10
-43.858421
  20
485.71545
  0
VERTEX
  5
673
  8
Layer_0
  10
-43.744812
  20
485.33075
  0
VERTEX
  5
674
  8
Layer_0
  10
-43.665089
  20
484.93845
  0
VERTEX
  5
675
  8
Layer_0
  10
-43.619602
  20
484.54068
  0
VERTEX
  5
676
  8
Layer_0
  10
-43.608696
  20
484.13974
  0
VERTEX
  5
677
  8
Layer_0
  10
-43.581604
  20
483.3938
  0
VERTEX
  5
678
  8
Layer_0
  10
-43.614906
  20
482.64935
  0
VERTEX
  5
679
  8
Layer_0
  10
-43.708298
  20
481.91003
  0
VERTEX
  5
67a
  8
Layer_0
  10
-43.861458
  20
481.17947
  0
VERTEX
  5
67b
  8
Layer_0
  10
-43.961475
  20
480.91211
  0
VERTEX
  5
67c
  8
Layer_0
  10
-44.095703
  20
480.66486
  0
VERTEX
  5
67d
  8
Layer_0
  10
-44.261147
  20
480.4404
  0
VERTEX
  5
67e
  8
Layer_0
  10
-44.454815
  20
480.24142
  0
VERTEX
  5
67f
  8
Layer_0
  10
-44.673714
  20
480.07056
  0
VERTEX
  5
680
  8
Layer_0
  10
-44.914856
  20
479.93054
  0
VERTEX
  5
681
  8
Layer_0
  10
-45.175247
  20
479.82404
  0
VERTEX
  5
682
  8
Layer_0
  10
-45.451893
  20
479.75372
  0
VERTEX
  5
683
  8
Layer_0
  10
-45.829418
  20
479.67859
  0
VERTEX
  5
684
  8
Layer_0
  10
-46.211075
  20
479.63318
  0
VERTEX
  5
685
  8
Layer_0
  10
-46.595108
  20
479.61761
  0
VERTEX
  5
686
  8
Layer_0
  10
-46.979763
  20
479.63205
  0
VERTEX
  5
687
  8
Layer_0
  10
-48.12101
  20
479.66211
  0
VERTEX
  5
688
  8
Layer_0
  10
-49.259884
  20
479.74155
  0
VERTEX
  5
689
  8
Layer_0
  10
-49.260284
  20
480.10956
  0
VERTEX
  5
68a
  8
Layer_0
  10
-48.430172
  20
480.08337
  0
VERTEX
  5
68b
  8
Layer_0
  10
-47.5998
  20
480.08057
  0
VERTEX
  5
68c
  8
Layer_0
  10
-46.769684
  20
480.10117
  0
VERTEX
  5
68d
  8
Layer_0
  10
-45.940327
  20
480.14517
  0
VERTEX
  5
68e
  8
Layer_0
  10
-45.720837
  20
480.17932
  0
VERTEX
  5
68f
  8
Layer_0
  10
-45.509109
  20
480.23846
  0
VERTEX
  5
690
  8
Layer_0
  10
-45.307068
  20
480.32144
  0
VERTEX
  5
691
  8
Layer_0
  10
-45.116631
  20
480.427
  0
VERTEX
  5
692
  8
Layer_0
  10
-44.939713
  20
480.55392
  0
VERTEX
  5
693
  8
Layer_0
  10
-44.778244
  20
480.70099
  0
VERTEX
  5
694
  8
Layer_0
  10
-44.63414
  20
480.867
  0
VERTEX
  5
695
  8
Layer_0
  10
-44.509315
  20
481.05075
  0
VERTEX
  5
696
  8
Layer_0
  10
-44.361111
  20
481.49756
  0
VERTEX
  5
697
  8
Layer_0
  10
-44.25568
  20
481.95523
  0
VERTEX
  5
698
  8
Layer_0
  10
-44.193569
  20
482.42075
  0
VERTEX
  5
699
  8
Layer_0
  10
-44.175331
  20
482.89111
  0
VERTEX
  5
69a
  8
Layer_0
  10
-44.167664
  20
483.19513
  0
VERTEX
  5
69b
  8
Layer_0
  10
-46.151657
  20
483.19296
  0
VERTEX
  5
69c
  8
Layer_0
  10
-46.152145
  20
483.64096
  0
VERTEX
  5
69d
  8
Layer_0
  10
-44.176144
  20
483.6351
  0
VERTEX
  5
69e
  8
Layer_0
  10
-44.168304
  20
484.22852
  0
VERTEX
  5
69f
  8
Layer_0
  10
-44.223946
  20
484.81763
  0
VERTEX
  5
6a0
  8
Layer_0
  10
-44.342323
  20
485.39737
  0
VERTEX
  5
6a1
  8
Layer_0
  10
-44.52269
  20
485.96274
  0
VERTEX
  5
6a2
  8
Layer_0
  10
-44.716568
  20
486.24869
  0
VERTEX
  5
6a3
  8
Layer_0
  10
-44.967361
  20
486.47989
  0
VERTEX
  5
6a4
  8
Layer_0
  10
-45.26403
  20
486.64819
  0
VERTEX
  5
6a5
  8
Layer_0
  10
-45.595547
  20
486.74557
  0
VERTEX
  5
6a6
  8
Layer_0
  10
-45.869293
  20
486.80957
  0
VERTEX
  5
6a7
  8
Layer_0
  10
-46.147659
  20
486.84897
  0
VERTEX
  5
6a8
  8
Layer_0
  10
-46.148167
  20
487.31296
  0
SEQEND
  0
POLYLINE
  5
6aa
  8
Layer_0
  62
0
  70
1
  66
1
  10
0
  20
0
  30
0
  0
VERTEX
  5
6aa
  8
Layer_0
  10
-76.196182
  20
487.32007
  0
VERTEX
  5
6ab
  8
Layer_0
  10
-75.758423
  20
487.28763
  0
VERTEX
  5
6ac
  8
Layer_0
  10
-75.332062
  20
487.19315
  0
VERTEX
  5
6ad
  8
Layer_0
  10
-74.923615
  20
487.03857
  0
VERTEX
  5
6ae
  8
Layer_0
  10
-74.539635
  20
486.8259
  0
VERTEX
  5
6af
  8
Layer_0
  10
-74.299789
  20
486.60712
  0
VERTEX
  5
6b0
  8
Layer_0
  10
-74.101158
  20
486.35321
  0
VERTEX
  5
6b1
  8
Layer_0
  10
-73.947479
  20
486.06982
  0
VERTEX
  5
6b2
  8
Layer_0
  10
-73.842476
  20
485.76266
  0
VERTEX
  5
6b3
  8
Layer_0
  10
-73.711769
  20
485.29889
  0
VERTEX
  5
6b4
  8
Layer_0
  10
-73.619614
  20
484.82672
  0
VERTEX
  5
6b5
  8
Layer_0
  10
-73.566368
  20
484.34863
  0
VERTEX
  5
6b6
  8
Layer_0
  10
-73.552406
  20
483.86697
  0
VERTEX
  5
6b7
  8
Layer_0
  10
-73.535583
  20
483.15231
  0
VERTEX
  5
6b8
  8
Layer_0
  10
-73.583107
  20
482.44046
  0
VERTEX
  5
6b9
  8
Layer_0
  10
-73.694504
  20
481.73578
  0
VERTEX
  5
6ba
  8
Layer_0
  10
-73.869308
  20
481.04263
  0
VERTEX
  5
6bb
  8
Layer_0
  10
-73.979523
  20
480.79971
  0
VERTEX
  5
6bc
  8
Layer_0
  10
-74.118271
  20
480.57568
  0
VERTEX
  5
6bd
  8
Layer_0
  10
-74.283081
  20
480.37268
  0
VERTEX
  5
6be
  8
Layer_0
  10
-74.471481
  20
480.19275
  0
VERTEX
  5
6bf
  8
Layer_0
  10
-74.68103
  20
480.0379
  0
VERTEX
  5
6c0
  8
Layer_0
  10
-74.909256
  20
479.91031
  0
VERTEX
  5
6c1
  8
Layer_0
  10
-75.153687
  20
479.81192
  0
VERTEX
  5
6c2
  8
Layer_0
  10
-75.411888
  20
479.74493
  0
VERTEX
  5
6c3
  8
Layer_0
  10
-75.847916
  20
479.65802
  0
VERTEX
  5
6c4
  8
Layer_0
  10
-76.291771
  20
479.63196
  0
VERTEX
  5
6c5
  8
Layer_0
  10
-77.024857
  20
479.62842
  0
VERTEX
  5
6c6
  8
Layer_0
  10
-77.757568
  20
479.6467
  0
VERTEX
  5
6c7
  8
Layer_0
  10
-78.48941
  20
479.68683
  0
VERTEX
  5
6c8
  8
Layer_0
  10
-79.219894
  20
479.74878
  0
VERTEX
  5
6c9
  8
Layer_0
  10
-79.220299
  20
480.11676
  0
VERTEX
  5
6ca
  8
Layer_0
  10
-77.780319
  20
480.10236
  0
VERTEX
  5
6cb
  8
Layer_0
  10
-76.340294
  20
480.11191
  0
VERTEX
  5
6cc
  8
Layer_0
  10
-75.995316
  20
480.14148
  0
VERTEX
  5
6cd
  8
Layer_0
  10
-75.656921
  20
480.20947
  0
VERTEX
  5
6ce
  8
Layer_0
  10
-75.328308
  20
480.31503
  0
VERTEX
  5
6cf
  8
Layer_0
  10
-75.012665
  20
480.45737
  0
VERTEX
  5
6d0
  8
Layer_0
  10
-74.747467
  20
480.67462
  0
VERTEX
  5
6d1
  8
Layer_0
  10
-74.534027
  20
480.93848
  0
VERTEX
  5
6d2
  8
Layer_0
  10
-74.378212
  20
481.23999
  0
VERTEX
  5
6d3
  8
Layer_0
  10
-74.285889
  20
481.57016
  0
VERTEX
  5
6d4
  8
Layer_0
  10
-74.208931
  20
481.97394
  0
VERTEX
  5
6d5
  8
Layer_0
  10
-74.158165
  20
482.38141
  0
VERTEX
  5
6d6
  8
Layer_0
  10
-74.133713
  20
482.79132
  0
VERTEX
  5
6d7
  8
Layer_0
  10
-74.135674
  20
483.20233
  0
VERTEX
  5
6d8
  8
Layer_0
  10
-76.199677
  20
483.20007
  0
VERTEX
  5
6d9
  8
Layer_0
  10
-76.200157
  20
483.64008
  0
VERTEX
  5
6da
  8
Layer_0
  10
-74.128151
  20
483.63434
  0
VERTEX
  5
6db
  8
Layer_0
  10
-74.135345
  20
484.19116
  0
VERTEX
  5
6dc
  8
Layer_0
  10
-74.185028
  20
484.74503
  0
VERTEX
  5
6dd
  8
Layer_0
  10
-74.276871
  20
485.29346
  0
VERTEX
  5
6de
  8
Layer_0
  10
-74.410553
  20
485.83405
  0
VERTEX
  5
6df
  8
Layer_0
  10
-74.606544
  20
486.17355
  0
VERTEX
  5
6e0
  8
Layer_0
  10
-74.876175
  20
486.45007
  0
VERTEX
  5
6e1
  8
Layer_0
  10
-75.205246
  20
486.65225
  0
VERTEX
  5
6e2
  8
Layer_0
  10
-75.579575
  20
486.76874
  0
VERTEX
  5
6e3
  8
Layer_0
  10
-75.88588
  20
486.82474
  0
VERTEX
  5
6e4
  8
Layer_0
  10
-76.195671
  20
486.85608
  0
VERTEX
  5
6e5
  8
Layer_0
  10
-76.196182
  20
487.32007
  0
SEQEND
  0
POLYLINE
  5
6e7
  8
Layer_0
  62
0
  70
1
  66
1
  10
0
  20
0
  30
0
  0
VERTEX
  5
6e7
  8
Layer_0
  10
-89.636185
  20
487.32138
  0
VERTEX
  5
6e8
  8
Layer_0
  10
-89.14183
  20
487.28412
  0
VERTEX
  5
6e9
  8
Layer_0
  10
-88.66655
  20
487.15854
  0
VERTEX
  5
6ea
  8
Layer_0
  10
-88.221893
  20
486.94885
  0
VERTEX
  5
6eb
  8
Layer_0
  10
-87.819466
  20
486.65936
  0
VERTEX
  5
6ec
  8
Layer_0
  10
-87.618134
  20
486.42496
  0
VERTEX
  5
6ed
  8
Layer_0
  10
-87.4533
  20
486.16547
  0
VERTEX
  5
6ee
  8
Layer_0
  10
-87.327263
  20
485.88507
  0
VERTEX
  5
6ef
  8
Layer_0
  10
-87.242294
  20
485.58798
  0
VERTEX
  5
6f0
  8
Layer_0
  10
-87.139473
  20
485.15674
  0
VERTEX
  5
6f1
  8
Layer_0
  10
-87.066086
  20
484.72003
  0
VERTEX
  5
6f2
  8
Layer_0
  10
-87.022324
  20
484.27936
  0
VERTEX
  5
6f3
  8
Layer_0
  10
-87.008377
  20
483.83624
  0
VERTEX
  5
6f4
  8
Layer_0
  10
-87.002472
  20
483.17206
  0
VERTEX
  5
6f5
  8
Layer_0
  10
-87.045532
  20
482.51016
  0
VERTEX
  5
6f6
  8
Layer_0
  10
-87.137299
  20
481.85324
  0
VERTEX
  5
6f7
  8
Layer_0
  10
-87.277489
  20
481.20395
  0
VERTEX
  5
6f8
  8
Layer_0
  10
-87.384346
  20
480.91711
  0
VERTEX
  5
6f9
  8
Layer_0
  10
-87.52948
  20
480.6532
  0
VERTEX
  5
6fa
  8
Layer_0
  10
-87.70932
  20
480.41522
  0
VERTEX
  5
6fb
  8
Layer_0
  10
-87.920288
  20
480.20624
  0
VERTEX
  5
6fc
  8
Layer_0
  10
-88.158806
  20
480.02936
  0
VERTEX
  5
6fd
  8
Layer_0
  10
-88.421295
  20
479.88766
  0
VERTEX
  5
6fe
  8
Layer_0
  10
-88.704178
  20
479.78418
  0
VERTEX
  5
6ff
  8
Layer_0
  10
-89.003868
  20
479.72205
  0
VERTEX
  5
700
  8
Layer_0
  10
-89.519943
  20
479.66425
  0
VERTEX
  5
701
  8
Layer_0
  10
-90.037949
  20
479.63263
  0
VERTEX
  5
702
  8
Layer_0
  10
-90.556892
  20
479.62711
  0
VERTEX
  5
703
  8
Layer_0
  10
-91.07579
  20
479.6478
  0
VERTEX
  5
704
  8
Layer_0
  10
-91.876778
  20
479.67899
  0
VERTEX
  5
705
  8
Layer_0
  10
-92.675888
  20
479.74203
  0
VERTEX
  5
706
  8
Layer_0
  10
-92.684296
  20
480.11005
  0
VERTEX
  5
707
  8
Layer_0
  10
-89.692291
  20
480.11331
  0
VERTEX
  5
708
  8
Layer_0
  10
-89.359451
  20
480.15485
  0
VERTEX
  5
709
  8
Layer_0
  10
-89.034531
  20
480.23352
  0
VERTEX
  5
70a
  8
Layer_0
  10
-88.720596
  20
480.34845
  0
VERTEX
  5
70b
  8
Layer_0
  10
-88.420723
  20
480.49869
  0
VERTEX
  5
70c
  8
Layer_0
  10
-88.177322
  20
480.71429
  0
VERTEX
  5
70d
  8
Layer_0
  10
-87.981232
  20
480.96997
  0
VERTEX
  5
70e
  8
Layer_0
  10
-87.837181
  20
481.25818
  0
VERTEX
  5
70f
  8
Layer_0
  10
-87.749893
  20
481.57144
  0
VERTEX
  5
710
  8
Layer_0
  10
-87.675285
  20
481.97357
  0
VERTEX
  5
711
  8
Layer_0
  10
-87.623978
  20
482.37897
  0
VERTEX
  5
712
  8
Layer_0
  10
-87.596085
  20
482.78665
  0
VERTEX
  5
713
  8
Layer_0
  10
-87.591675
  20
483.19562
  0
VERTEX
  5
714
  8
Layer_0
  10
-89.639671
  20
483.20135
  0
VERTEX
  5
715
  8
Layer_0
  10
-89.640152
  20
483.64136
  0
VERTEX
  5
716
  8
Layer_0
  10
-87.592163
  20
483.64362
  0
VERTEX
  5
717
  8
Layer_0
  10
-87.594055
  20
484.19891
  0
VERTEX
  5
718
  8
Layer_0
  10
-87.641998
  20
484.75122
  0
VERTEX
  5
719
  8
Layer_0
  10
-87.735626
  20
485.29761
  0
VERTEX
  5
71a
  8
Layer_0
  10
-87.874557
  20
485.8353
  0
VERTEX
  5
71b
  8
Layer_0
  10
-88.069107
  20
486.17505
  0
VERTEX
  5
71c
  8
Layer_0
  10
-88.338646
  20
486.45056
  0
VERTEX
  5
71d
  8
Layer_0
  10
-88.668396
  20
486.65015
  0
VERTEX
  5
71e
  8
Layer_0
  10
-89.043571
  20
486.76202
  0
VERTEX
  5
71f
  8
Layer_0
  10
-89.337891
  20
486.81744
  0
VERTEX
  5
720
  8
Layer_0
  10
-89.635666
  20
486.84937
  0
VERTEX
  5
721
  8
Layer_0
  10
-89.636185
  20
487.32138
  0
SEQEND
  0
POLYLINE
  5
723
  8
Layer_0
  62
0
  70
1
  66
1
  10
0
  20
0
  30
0
  0
VERTEX
  5
723
  8
Layer_0
  10
-102.5762
  20
487.33966
  0
VERTEX
  5
724
  8
Layer_0
  10
-102.57566
  20
486.84366
  0
VERTEX
  5
725
  8
Layer_0
  10
-102.91561
  20
486.83176
  0
VERTEX
  5
726
  8
Layer_0
  10
-103.2484
  20
486.77063
  0
VERTEX
  5
727
  8
Layer_0
  10
-103.56873
  20
486.66168
  0
VERTEX
  5
728
  8
Layer_0
  10
-103.8713
  20
486.50626
  0
VERTEX
  5
729
  8
Layer_0
  10
-104.11589
  20
486.27029
  0
VERTEX
  5
72a
  8
Layer_0
  10
-104.32066
  20
486.00159
  0
VERTEX
  5
72b
  8
Layer_0
  10
-104.48244
  20
485.70502
  0
VERTEX
  5
72c
  8
Layer_0
  10
-104.59806
  20
485.38547
  0
VERTEX
  5
72d
  8
Layer_0
  10
-104.70888
  20
484.87479
  0
VERTEX
  5
72e
  8
Layer_0
  10
-104.78258
  20
484.35947
  0
VERTEX
  5
72f
  8
Layer_0
  10
-104.81924
  20
483.84149
  0
VERTEX
  5
730
  8
Layer_0
  10
-104.81895
  20
483.32285
  0
VERTEX
  5
731
  8
Layer_0
  10
-104.78177
  20
482.80554
  0
VERTEX
  5
732
  8
Layer_0
  10
-104.70776
  20
482.29156
  0
VERTEX
  5
733
  8
Layer_0
  10
-104.597
  20
481.78296
  0
VERTEX
  5
734
  8
Layer_0
  10
-104.44958
  20
481.28162
  0
VERTEX
  5
735
  8
Layer_0
  10
-104.30675
  20
481.0209
  0
VERTEX
  5
736
  8
Layer_0
  10
-104.12971
  20
480.7883
  0
VERTEX
  5
737
  8
Layer_0
  10
-103.92251
  20
480.5863
  0
VERTEX
  5
738
  8
Layer_0
  10
-103.68922
  20
480.41748
  0
VERTEX
  5
739
  8
Layer_0
  10
-103.43389
  20
480.28427
  0
VERTEX
  5
73a
  8
Layer_0
  10
-103.16058
  20
480.18924
  0
VERTEX
  5
73b
  8
Layer_0
  10
-102.87337
  20
480.13489
  0
VERTEX
  5
73c
  8
Layer_0
  10
-102.57631
  20
480.12366
  0
VERTEX
  5
73d
  8
Layer_0
  10
-102.57578
  20
479.63568
  0
VERTEX
  5
73e
  8
Layer_0
  10
-102.98702
  20
479.63275
  0
VERTEX
  5
73f
  8
Layer_0
  10
-103.38365
  20
479.69913
  0
VERTEX
  5
740
  8
Layer_0
  10
-103.75841
  20
479.8299
  0
VERTEX
  5
741
  8
Layer_0
  10
-104.10402
  20
480.02026
  0
VERTEX
  5
742
  8
Layer_0
  10
-104.41321
  20
480.26538
  0
VERTEX
  5
743
  8
Layer_0
  10
-104.67871
  20
480.56042
  0
VERTEX
  5
744
  8
Layer_0
  10
-104.89326
  20
480.90057
  0
VERTEX
  5
745
  8
Layer_0
  10
-105.04958
  20
481.28094
  0
VERTEX
  5
746
  8
Layer_0
  10
-105.23037
  20
481.91797
  0
VERTEX
  5
747
  8
Layer_0
  10
-105.34752
  20
482.56805
  0
VERTEX
  5
748
  8
Layer_0
  10
-105.40041
  20
483.2265
  0
VERTEX
  5
749
  8
Layer_0
  10
-105.38843
  20
483.88858
  0
VERTEX
  5
74a
  8
Layer_0
  10
-105.34657
  20
484.41364
  0
VERTEX
  5
74b
  8
Layer_0
  10
-105.26876
  20
484.93396
  0
VERTEX
  5
74c
  8
Layer_0
  10
-105.15536
  20
485.44769
  0
VERTEX
  5
74d
  8
Layer_0
  10
-105.00669
  20
485.953
  0
VERTEX
  5
74e
  8
Layer_0
  10
-104.83468
  20
486.2666
  0
VERTEX
  5
74f
  8
Layer_0
  10
-104.62152
  20
486.54645
  0
VERTEX
  5
750
  8
Layer_0
  10
-104.37211
  20
486.78952
  0
VERTEX
  5
751
  8
Layer_0
  10
-104.09133
  20
486.9928
  0
VERTEX
  5
752
  8
Layer_0
  10
-103.78407
  20
487.15326
  0
VERTEX
  5
753
  8
Layer_0
  10
-103.4552
  20
487.26785
  0
VERTEX
  5
754
  8
Layer_0
  10
-103.10962
  20
487.33362
  0
VERTEX
  5
755
  8
Layer_0
  10
-102.75222
  20
487.34747
  0
VERTEX
  5
756
  8
Layer_0
  10
-102.5762
  20
487.33966
  0
SEQEND
  0
POLYLINE
  5
758
  8
Layer_0
  62
0
  70
1
  66
1
  10
0
  20
0
  30
0
  0
VERTEX
  5
758
  8
Layer_0
  10
-39.863678
  20
490.51984
  0
VERTEX
  5
759
  8
Layer_0
  10
-39.866852
  20
486.11182
  0
VERTEX
  5
75a
  8
Layer_0
  10
-39.870018
  20
481.69583
  0
VERTEX
  5
75b
  8
Layer_0
  10
-39.901257
  20
481.29437
  0
VERTEX
  5
75c
  8
Layer_0
  10
-39.994251
  20
480.90512
  0
VERTEX
  5
75d
  8
Layer_0
  10
-40.146713
  20
480.5351
  0
VERTEX
  5
75e
  8
Layer_0
  10
-40.356373
  20
480.19128
  0
VERTEX
  5
75f
  8
Layer_0
  10
-40.57103
  20
479.99493
  0
VERTEX
  5
760
  8
Layer_0
  10
-40.818783
  20
479.84802
  0
VERTEX
  5
761
  8
Layer_0
  10
-41.091206
  20
479.75446
  0
VERTEX
  5
762
  8
Layer_0
  10
-41.37986
  20
479.71817
  0
VERTEX
  5
763
  8
Layer_0
  10
-41.951752
  20
479.70154
  0
VERTEX
  5
764
  8
Layer_0
  10
-42.523846
  20
479.70892
  0
VERTEX
  5
765
  8
Layer_0
  10
-42.516281
  20
480.10892
  0
VERTEX
  5
766
  8
Layer_0
  10
-42.176136
  20
480.13138
  0
VERTEX
  5
767
  8
Layer_0
  10
-41.838203
  20
480.17389
  0
VERTEX
  5
768
  8
Layer_0
  10
-41.503365
  20
480.23627
  0
VERTEX
  5
769
  8
Layer_0
  10
-41.172516
  20
480.31839
  0
VERTEX
  5
76a
  8
Layer_0
  10
-40.993584
  20
480.41199
  0
VERTEX
  5
76b
  8
Layer_0
  10
-40.840179
  20
480.53992
  0
VERTEX
  5
76c
  8
Layer_0
  10
-40.717098
  20
480.69724
  0
VERTEX
  5
76d
  8
Layer_0
  10
-40.629128
  20
480.879
  0
VERTEX
  5
76e
  8
Layer_0
  10
-40.544403
  20
481.14352
  0
VERTEX
  5
76f
  8
Layer_0
  10
-40.485481
  20
481.41431
  0
VERTEX
  5
770
  8
Layer_0
  10
-40.452682
  20
481.68948
  0
VERTEX
  5
771
  8
Layer_0
  10
-40.446316
  20
481.96719
  0
VERTEX
  5
772
  8
Layer_0
  10
-40.442966
  20
486.24347
  0
VERTEX
  5
773
  8
Layer_0
  10
-40.447678
  20
490.5192
  0
VERTEX
  5
774
  8
Layer_0
  10
-39.863678
  20
490.51984
  0
SEQEND
  0
POLYLINE
  5
776
  8
Layer_0
  62
0
  70
1
  66
1
  10
0
  20
0
  30
0
  0
VERTEX
  5
776
  8
Layer_0
  10
-109.19618
  20
487.31598
  0
VERTEX
  5
777
  8
Layer_0
  10
-108.77663
  20
487.26544
  0
VERTEX
  5
778
  8
Layer_0
  10
-108.37303
  20
487.14966
  0
VERTEX
  5
779
  8
Layer_0
  10
-107.99286
  20
486.9715
  0
VERTEX
  5
77a
  8
Layer_0
  10
-107.64354
  20
486.73367
  0
VERTEX
  5
77b
  8
Layer_0
  10
-107.42532
  20
486.49524
  0
VERTEX
  5
77c
  8
Layer_0
  10
-107.24533
  20
486.22885
  0
VERTEX
  5
77d
  8
Layer_0
  10
-107.10613
  20
485.93909
  0
VERTEX
  5
77e
  8
Layer_0
  10
-107.01034
  20
485.63037
  0
VERTEX
  5
77f
  8
Layer_0
  10
-106.9166
  20
485.29285
  0
VERTEX
  5
780
  8
Layer_0
  10
-106.84497
  20
484.95032
  0
VERTEX
  5
781
  8
Layer_0
  10
-106.79565
  20
484.60388
  0
VERTEX
  5
782
  8
Layer_0
  10
-106.76884
  20
484.25461
  0
VERTEX
  5
783
  8
Layer_0
  10
-106.76031
  20
483.38202
  0
VERTEX
  5
784
  8
Layer_0
  10
-106.80692
  20
482.51059
  0
VERTEX
  5
785
  8
Layer_0
  10
-106.88622
  20
481.87854
  0
VERTEX
  5
786
  8
Layer_0
  10
-107.01354
  20
481.25436
  0
VERTEX
  5
787
  8
Layer_0
  10
-107.12142
  20
480.95169
  0
VERTEX
  5
788
  8
Layer_0
  10
-107.271
  20
480.67343
  0
VERTEX
  5
789
  8
Layer_0
  10
-107.45825
  20
480.423
  0
VERTEX
  5
78a
  8
Layer_0
  10
-107.67919
  20
480.20386
  0
VERTEX
  5
78b
  8
Layer_0
  10
-107.92983
  20
480.01941
  0
VERTEX
  5
78c
  8
Layer_0
  10
-108.20615
  20
479.87305
  0
VERTEX
  5
78d
  8
Layer_0
  10
-108.50417
  20
479.76825
  0
VERTEX
  5
78e
  8
Layer_0
  10
-108.81986
  20
479.70837
  0
VERTEX
  5
78f
  8
Layer_0
  10
-109.72377
  20
479.65417
  0
VERTEX
  5
790
  8
Layer_0
  10
-110.62872
  20
479.64212
  0
VERTEX
  5
791
  8
Layer_0
  10
-111.53325
  20
479.67221
  0
VERTEX
  5
792
  8
Layer_0
  10
-112.4359
  20
479.74442
  0
VERTEX
  5
793
  8
Layer_0
  10
-112.43629
  20
480.11243
  0
VERTEX
  5
794
  8
Layer_0
  10
-109.44431
  20
480.11569
  0
VERTEX
  5
795
  8
Layer_0
  10
-109.07039
  20
480.15668
  0
VERTEX
  5
796
  8
Layer_0
  10
-108.70863
  20
480.25195
  0
VERTEX
  5
797
  8
Layer_0
  10
-108.36483
  20
480.39948
  0
VERTEX
  5
798
  8
Layer_0
  10
-108.04483
  20
480.59723
  0
VERTEX
  5
799
  8
Layer_0
  10
-107.87641
  20
480.77295
  0
VERTEX
  5
79a
  8
Layer_0
  10
-107.73514
  20
480.9697
  0
VERTEX
  5
79b
  8
Layer_0
  10
-107.62294
  20
481.18436
  0
VERTEX
  5
79c
  8
Layer_0
  10
-107.54172
  20
481.41379
  0
VERTEX
  5
79d
  8
Layer_0
  10
-107.44736
  20
481.85611
  0
VERTEX
  5
79e
  8
Layer_0
  10
-107.3828
  20
482.30328
  0
VERTEX
  5
79f
  8
Layer_0
  10
-107.34818
  20
482.75375
  0
VERTEX
  5
7a0
  8
Layer_0
  10
-107.34368
  20
483.20599
  0
VERTEX
  5
7a1
  8
Layer_0
  10
-109.41568
  20
483.20374
  0
VERTEX
  5
7a2
  8
Layer_0
  10
-109.40817
  20
483.64374
  0
VERTEX
  5
7a3
  8
Layer_0
  10
-107.34417
  20
483.646
  0
VERTEX
  5
7a4
  8
Layer_0
  10
-107.34431
  20
484.2019
  0
VERTEX
  5
7a5
  8
Layer_0
  10
-107.39304
  20
484.75458
  0
VERTEX
  5
7a6
  8
Layer_0
  10
-107.48993
  20
485.3009
  0
VERTEX
  5
7a7
  8
Layer_0
  10
-107.63457
  20
485.83768
  0
VERTEX
  5
7a8
  8
Layer_0
  10
-107.83056
  20
486.17722
  0
VERTEX
  5
7a9
  8
Layer_0
  10
-108.10019
  20
486.45374
  0
VERTEX
  5
7aa
  8
Layer_0
  10
-108.42926
  20
486.65591
  0
VERTEX
  5
7ab
  8
Layer_0
  10
-108.80359
  20
486.7724
  0
VERTEX
  5
7ac
  8
Layer_0
  10
-109.10989
  20
486.8284
  0
VERTEX
  5
7ad
  8
Layer_0
  10
-109.41969
  20
486.85971
  0
VERTEX
  5
7ae
  8
Layer_0
  10
-109.41219
  20
487.32373
  0
VERTEX
  5
7af
  8
Layer_0
  10
-109.19618
  20
487.31598
  0
SEQEND
  0
POLYLINE
  5
7b1
  8
Layer_0
  62
0
  70
1
  66
1
  10
0
  20
0
  30
0
  0
VERTEX
  5
7b1
  8
Layer_0
  10
-60.868095
  20
487.24884
  0
VERTEX
  5
7b2
  8
Layer_0
  10
-59.667961
  20
487.12216
  0
VERTEX
  5
7b3
  8
Layer_0
  10
-59.659561
  20
486.75418
  0
VERTEX
  5
7b4
  8
Layer_0
  10
-60.88356
  20
486.75284
  0
VERTEX
  5
7b5
  8
Layer_0
  10
-60.838364
  20
482.00888
  0
VERTEX
  5
7b6
  8
Layer_0
  10
-60.846703
  20
481.62262
  0
VERTEX
  5
7b7
  8
Layer_0
  10
-60.901794
  20
481.2417
  0
VERTEX
  5
7b8
  8
Layer_0
  10
-61.002766
  20
480.87024
  0
VERTEX
  5
7b9
  8
Layer_0
  10
-61.148727
  20
480.51254
  0
VERTEX
  5
7ba
  8
Layer_0
  10
-61.269493
  20
480.34146
  0
VERTEX
  5
7bb
  8
Layer_0
  10
-61.408997
  20
480.18851
  0
VERTEX
  5
7bc
  8
Layer_0
  10
-61.565166
  20
480.05493
  0
VERTEX
  5
7bd
  8
Layer_0
  10
-61.735947
  20
479.94189
  0
VERTEX
  5
7be
  8
Layer_0
  10
-61.91927
  20
479.85059
  0
VERTEX
  5
7bf
  8
Layer_0
  10
-62.113068
  20
479.78223
  0
VERTEX
  5
7c0
  8
Layer_0
  10
-62.315285
  20
479.73798
  0
VERTEX
  5
7c1
  8
Layer_0
  10
-62.523857
  20
479.71902
  0
VERTEX
  5
7c2
  8
Layer_0
  10
-63.10384
  20
479.70239
  0
VERTEX
  5
7c3
  8
Layer_0
  10
-63.683861
  20
479.71777
  0
VERTEX
  5
7c4
  8
Layer_0
  10
-63.684303
  20
480.11777
  0
VERTEX
  5
7c5
  8
Layer_0
  10
-63.020477
  20
480.16647
  0
VERTEX
  5
7c6
  8
Layer_0
  10
-62.364479
  20
480.27921
  0
VERTEX
  5
7c7
  8
Layer_0
  10
-62.176933
  20
480.35181
  0
VERTEX
  5
7c8
  8
Layer_0
  10
-62.006355
  20
480.45108
  0
VERTEX
  5
7c9
  8
Layer_0
  10
-61.854935
  20
480.57419
  0
VERTEX
  5
7ca
  8
Layer_0
  10
-61.724861
  20
480.71832
  0
VERTEX
  5
7cb
  8
Layer_0
  10
-61.618317
  20
480.88062
  0
VERTEX
  5
7cc
  8
Layer_0
  10
-61.537491
  20
481.05826
  0
VERTEX
  5
7cd
  8
Layer_0
  10
-61.484577
  20
481.24838
  0
VERTEX
  5
7ce
  8
Layer_0
  10
-61.461754
  20
481.44821
  0
VERTEX
  5
7cf
  8
Layer_0
  10
-61.429825
  20
481.73135
  0
VERTEX
  5
7d0
  8
Layer_0
  10
-61.422379
  20
482.01624
  0
VERTEX
  5
7d1
  8
Layer_0
  10
-61.419556
  20
486.75226
  0
VERTEX
  5
7d2
  8
Layer_0
  10
-63.803558
  20
486.74963
  0
VERTEX
  5
7d3
  8
Layer_0
  10
-63.796097
  20
487.24564
  0
VERTEX
  5
7d4
  8
Layer_0
  10
-61.420097
  20
487.24826
  0
VERTEX
  5
7d5
  8
Layer_0
  10
-61.414413
  20
489.36026
  0
VERTEX
  5
7d6
  8
Layer_0
  10
-60.990417
  20
489.36871
  0
VERTEX
  5
7d7
  8
Layer_0
  10
-60.868095
  20
487.24884
  0
SEQEND
  0
POLYLINE
  5
7d9
  8
Layer_0
  62
0
  70
1
  66
1
  10
0
  20
0
  30
0
  0
VERTEX
  5
7d9
  8
Layer_0
  10
-52.03841
  20
489.36252
  0
VERTEX
  5
7da
  8
Layer_0
  10
-51.916103
  20
487.25064
  0
VERTEX
  5
7db
  8
Layer_0
  10
-50.699963
  20
487.12396
  0
VERTEX
  5
7dc
  8
Layer_0
  10
-50.70755
  20
486.74796
  0
VERTEX
  5
7dd
  8
Layer_0
  10
-51.923557
  20
486.75464
  0
VERTEX
  5
7de
  8
Layer_0
  10
-51.888741
  20
484.18683
  0
VERTEX
  5
7df
  8
Layer_0
  10
-51.885937
  20
481.61868
  0
VERTEX
  5
7e0
  8
Layer_0
  10
-51.930176
  20
481.21033
  0
VERTEX
  5
7e1
  8
Layer_0
  10
-52.048698
  20
480.82083
  0
VERTEX
  5
7e2
  8
Layer_0
  10
-52.237442
  20
480.46008
  0
VERTEX
  5
7e3
  8
Layer_0
  10
-52.492321
  20
480.138
  0
VERTEX
  5
7e4
  8
Layer_0
  10
-52.764954
  20
479.94864
  0
VERTEX
  5
7e5
  8
Layer_0
  10
-53.064953
  20
479.81281
  0
VERTEX
  5
7e6
  8
Layer_0
  10
-53.384514
  20
479.73328
  0
VERTEX
  5
7e7
  8
Layer_0
  10
-53.715851
  20
479.71268
  0
VERTEX
  5
7e8
  8
Layer_0
  10
-54.731853
  20
479.71155
  0
VERTEX
  5
7e9
  8
Layer_0
  10
-54.7323
  20
480.11957
  0
VERTEX
  5
7ea
  8
Layer_0
  10
-54.168335
  20
480.17584
  0
VERTEX
  5
7eb
  8
Layer_0
  10
-53.60442
  20
480.23279
  0
VERTEX
  5
7ec
  8
Layer_0
  10
-53.381062
  20
480.28305
  0
VERTEX
  5
7ed
  8
Layer_0
  10
-53.175201
  20
480.37009
  0
VERTEX
  5
7ee
  8
Layer_0
  10
-52.990303
  20
480.49005
  0
VERTEX
  5
7ef
  8
Layer_0
  10
-52.829834
  20
480.63916
  0
VERTEX
  5
7f0
  8
Layer_0
  10
-52.697277
  20
480.81354
  0
VERTEX
  5
7f1
  8
Layer_0
  10
-52.596092
  20
481.00934
  0
VERTEX
  5
7f2
  8
Layer_0
  10
-52.529762
  20
481.22278
  0
VERTEX
  5
7f3
  8
Layer_0
  10
-52.501755
  20
481.45001
  0
VERTEX
  5
7f4
  8
Layer_0
  10
-52.469902
  20
481.73315
  0
VERTEX
  5
7f5
  8
Layer_0
  10
-52.470379
  20
482.01804
  0
VERTEX
  5
7f6
  8
Layer_0
  10
-52.467556
  20
486.75403
  0
VERTEX
  5
7f7
  8
Layer_0
  10
-54.843555
  20
486.75143
  0
VERTEX
  5
7f8
  8
Layer_0
  10
-54.844101
  20
487.24744
  0
VERTEX
  5
7f9
  8
Layer_0
  10
-52.468102
  20
487.25003
  0
VERTEX
  5
7fa
  8
Layer_0
  10
-52.46241
  20
489.36206
  0
VERTEX
  5
7fb
  8
Layer_0
  10
-52.03841
  20
489.36252
  0
SEQEND
  0
POLYLINE
  5
7fd
  8
Layer_0
  62
0
  70
1
  66
1
  10
0
  20
0
  30
0
  0
VERTEX
  5
7fd
  8
Layer_0
  10
-65.551682
  20
490.52371
  0
VERTEX
  5
7fe
  8
Layer_0
  10
-65.563858
  20
479.7157
  0
VERTEX
  5
7ff
  8
Layer_0
  10
-66.139854
  20
479.71509
  0
VERTEX
  5
800
  8
Layer_0
  10
-66.138733
  20
486.00308
  0
VERTEX
  5
801
  8
Layer_0
  10
-66.527283
  20
486.22998
  0
VERTEX
  5
802
  8
Layer_0
  10
-66.931702
  20
486.42133
  0
VERTEX
  5
803
  8
Layer_0
  10
-67.349571
  20
486.5766
  0
VERTEX
  5
804
  8
Layer_0
  10
-67.778442
  20
486.69513
  0
VERTEX
  5
805
  8
Layer_0
  10
-68.215912
  20
486.77643
  0
VERTEX
  5
806
  8
Layer_0
  10
-68.659546
  20
486.81995
  0
VERTEX
  5
807
  8
Layer_0
  10
-69.106918
  20
486.8251
  0
VERTEX
  5
808
  8
Layer_0
  10
-69.555603
  20
486.79135
  0
VERTEX
  5
809
  8
Layer_0
  10
-69.816833
  20
486.68542
  0
VERTEX
  5
80a
  8
Layer_0
  10
-70.055046
  20
486.54382
  0
VERTEX
  5
80b
  8
Layer_0
  10
-70.267395
  20
486.37027
  0
VERTEX
  5
80c
  8
Layer_0
  10
-70.451042
  20
486.1684
  0
VERTEX
  5
80d
  8
Layer_0
  10
-70.603149
  20
485.9418
  0
VERTEX
  5
80e
  8
Layer_0
  10
-70.720871
  20
485.69409
  0
VERTEX
  5
80f
  8
Layer_0
  10
-70.801369
  20
485.42889
  0
VERTEX
  5
810
  8
Layer_0
  10
-70.841805
  20
485.14993
  0
VERTEX
  5
811
  8
Layer_0
  10
-70.857521
  20
484.88593
  0
VERTEX
  5
812
  8
Layer_0
  10
-70.859848
  20
479.7099
  0
VERTEX
  5
813
  8
Layer_0
  10
-71.43586
  20
479.71729
  0
VERTEX
  5
814
  8
Layer_0
  10
-71.446877
  20
482.45728
  0
VERTEX
  5
815
  8
Layer_0
  10
-71.433853
  20
485.1973
  0
VERTEX
  5
816
  8
Layer_0
  10
-71.393875
  20
485.51044
  0
VERTEX
  5
817
  8
Layer_0
  10
-71.314163
  20
485.81165
  0
VERTEX
  5
818
  8
Layer_0
  10
-71.196899
  20
486.0976
  0
VERTEX
  5
819
  8
Layer_0
  10
-71.044281
  20
486.36505
  0
VERTEX
  5
81a
  8
Layer_0
  10
-70.85849
  20
486.6106
  0
VERTEX
  5
81b
  8
Layer_0
  10
-70.641724
  20
486.83093
  0
VERTEX
  5
81c
  8
Layer_0
  10
-70.396179
  20
487.02274
  0
VERTEX
  5
81d
  8
Layer_0
  10
-70.124031
  20
487.18271
  0
VERTEX
  5
81e
  8
Layer_0
  10
-69.70491
  20
487.31104
  0
VERTEX
  5
81f
  8
Layer_0
  10
-69.273781
  20
487.37585
  0
VERTEX
  5
820
  8
Layer_0
  10
-68.837814
  20
487.37653
  0
VERTEX
  5
821
  8
Layer_0
  10
-68.404167
  20
487.31259
  0
VERTEX
  5
822
  8
Layer_0
  10
-67.799896
  20
487.17725
  0
VERTEX
  5
823
  8
Layer_0
  10
-67.216118
  20
486.97644
  0
VERTEX
  5
824
  8
Layer_0
  10
-66.658112
  20
486.71234
  0
VERTEX
  5
825
  8
Layer_0
  10
-66.131157
  20
486.38708
  0
VERTEX
  5
826
  8
Layer_0
  10
-66.135681
  20
490.52307
  0
VERTEX
  5
827
  8
Layer_0
  10
-65.551682
  20
490.52371
  0
SEQEND
  0
POLYLINE
  5
829
  8
Layer_0
  62
0
  70
1
  66
1
  10
0
  20
0
  30
0
  0
VERTEX
  5
829
  8
Layer_0
  10
-85.692116
  20
487.25369
  0
VERTEX
  5
82a
  8
Layer_0
  10
-85.271904
  20
487.32233
  0
VERTEX
  5
82b
  8
Layer_0
  10
-84.851555
  20
487.3363
  0
VERTEX
  5
82c
  8
Layer_0
  10
-84.436005
  20
487.29706
  0
VERTEX
  5
82d
  8
Layer_0
  10
-84.030212
  20
487.20605
  0
VERTEX
  5
82e
  8
Layer_0
  10
-83.639084
  20
487.0647
  0
VERTEX
  5
82f
  8
Layer_0
  10
-83.26757
  20
486.87448
  0
VERTEX
  5
830
  8
Layer_0
  10
-82.920601
  20
486.63678
  0
VERTEX
  5
831
  8
Layer_0
  10
-82.603119
  20
486.35306
  0
VERTEX
  5
832
  8
Layer_0
  10
-82.346664
  20
486.11313
  0
VERTEX
  5
833
  8
Layer_0
  10
-82.114571
  20
485.84961
  0
VERTEX
  5
834
  8
Layer_0
  10
-81.948097
  20
487.24979
  0
VERTEX
  5
835
  8
Layer_0
  10
-81.524117
  20
487.25824
  0
VERTEX
  5
836
  8
Layer_0
  10
-81.53186
  20
479.71423
  0
VERTEX
  5
837
  8
Layer_0
  10
-82.107857
  20
479.71362
  0
VERTEX
  5
838
  8
Layer_0
  10
-82.10611
  20
485.4256
  0
VERTEX
  5
839
  8
Layer_0
  10
-82.50782
  20
485.78949
  0
VERTEX
  5
83a
  8
Layer_0
  10
-82.944473
  20
486.10815
  0
VERTEX
  5
83b
  8
Layer_0
  10
-83.41227
  20
486.37903
  0
VERTEX
  5
83c
  8
Layer_0
  10
-83.907387
  20
486.59964
  0
VERTEX
  5
83d
  8
Layer_0
  10
-84.349136
  20
486.70294
  0
VERTEX
  5
83e
  8
Layer_0
  10
-84.798561
  20
486.75055
  0
VERTEX
  5
83f
  8
Layer_0
  10
-85.250427
  20
486.74219
  0
VERTEX
  5
840
  8
Layer_0
  10
-85.699478
  20
486.67767
  0
VERTEX
  5
841
  8
Layer_0
  10
-85.692116
  20
487.25369
  0
SEQEND
  0
POLYLINE
  5
843
  8
Layer_0
  62
0
  70
1
  66
1
  10
0
  20
0
  30
0
  0
VERTEX
  5
843
  8
Layer_0
  10
-98.919693
  20
490.52722
  0
VERTEX
  5
844
  8
Layer_0
  10
-98.915871
  20
479.71921
  0
VERTEX
  5
845
  8
Layer_0
  10
-99.355865
  20
479.71872
  0
VERTEX
  5
846
  8
Layer_0
  10
-99.50074
  20
480.51056
  0
VERTEX
  5
847
  8
Layer_0
  10
-99.967819
  20
480.22833
  0
VERTEX
  5
848
  8
Layer_0
  10
-100.46092
  20
479.99805
  0
VERTEX
  5
849
  8
Layer_0
  10
-100.97571
  20
479.82144
  0
VERTEX
  5
84a
  8
Layer_0
  10
-101.50785
  20
479.70038
  0
VERTEX
  5
84b
  8
Layer_0
  10
-101.50835
  20
480.16437
  0
VERTEX
  5
84c
  8
Layer_0
  10
-101.13185
  20
480.23853
  0
VERTEX
  5
84d
  8
Layer_0
  10
-100.7627
  20
480.34119
  0
VERTEX
  5
84e
  8
Layer_0
  10
-100.4025
  20
480.47186
  0
VERTEX
  5
84f
  8
Layer_0
  10
-100.05286
  20
480.62997
  0
VERTEX
  5
850
  8
Layer_0
  10
-99.771835
  20
480.7428
  0
VERTEX
  5
851
  8
Layer_0
  10
-99.501137
  20
480.87857
  0
VERTEX
  5
852
  8
Layer_0
  10
-99.49884
  20
486.09457
  0
VERTEX
  5
853
  8
Layer_0
  10
-99.975533
  20
486.3407
  0
VERTEX
  5
854
  8
Layer_0
  10
-100.47123
  20
486.54309
  0
VERTEX
  5
855
  8
Layer_0
  10
-100.98293
  20
486.70068
  0
VERTEX
  5
856
  8
Layer_0
  10
-101.50764
  20
486.81238
  0
VERTEX
  5
857
  8
Layer_0
  10
-101.50013
  20
487.26837
  0
VERTEX
  5
858
  8
Layer_0
  10
-100.97822
  20
487.12915
  0
VERTEX
  5
859
  8
Layer_0
  10
-100.46929
  20
486.9505
  0
VERTEX
  5
85a
  8
Layer_0
  10
-99.975571
  20
486.73337
  0
VERTEX
  5
85b
  8
Layer_0
  10
-99.499268
  20
486.47858
  0
VERTEX
  5
85c
  8
Layer_0
  10
-99.495689
  20
490.52658
  0
VERTEX
  5
85d
  8
Layer_0
  10
-98.919693
  20
490.52722
  0
SEQEND
  0
POLYLINE
  5
85f
  8
Layer_0
  62
0
  70
1
  66
1
  10
0
  20
0
  30
0
  0
VERTEX
  5
85f
  8
Layer_0
  10
-118.67052
  20
482.12961
  0
VERTEX
  5
860
  8
Layer_0
  10
-118.66974
  20
481.71103
  0
VERTEX
  5
861
  8
Layer_0
  10
-118.71768
  20
481.29663
  0
VERTEX
  5
862
  8
Layer_0
  10
-118.81358
  20
480.89066
  0
VERTEX
  5
863
  8
Layer_0
  10
-118.95672
  20
480.49728
  0
VERTEX
  5
864
  8
Layer_0
  10
-119.17953
  20
480.19034
  0
VERTEX
  5
865
  8
Layer_0
  10
-119.46806
  20
479.95322
  0
VERTEX
  5
866
  8
Layer_0
  10
-119.8067
  20
479.79581
  0
VERTEX
  5
867
  8
Layer_0
  10
-120.17989
  20
479.72794
  0
VERTEX
  5
868
  8
Layer_0
  10
-120.75185
  20
479.7193
  0
VERTEX
  5
869
  8
Layer_0
  10
-121.32387
  20
479.71869
  0
VERTEX
  5
86a
  8
Layer_0
  10
-121.32431
  20
480.11868
  0
VERTEX
  5
86b
  8
Layer_0
  10
-120.7149
  20
480.18353
  0
VERTEX
  5
86c
  8
Layer_0
  10
-120.10847
  20
480.27203
  0
VERTEX
  5
86d
  8
Layer_0
  10
-119.81758
  20
480.40405
  0
VERTEX
  5
86e
  8
Layer_0
  10
-119.58244
  20
480.61084
  0
VERTEX
  5
86f
  8
Layer_0
  10
-119.41656
  20
480.8764
  0
VERTEX
  5
870
  8
Layer_0
  10
-119.33347
  20
481.18488
  0
VERTEX
  5
871
  8
Layer_0
  10
-119.26962
  20
481.67514
  0
VERTEX
  5
872
  8
Layer_0
  10
-119.24655
  20
482.16898
  0
VERTEX
  5
873
  8
Layer_0
  10
-119.2477
  20
490.52896
  0
VERTEX
  5
874
  8
Layer_0
  10
-118.66372
  20
490.5376
  0
VERTEX
  5
875
  8
Layer_0
  10
-118.67052
  20
482.12961
  0
SEQEND
  0
POLYLINE
  5
877
  8
Layer_0
  62
0
  70
1
  66
1
  10
0
  20
0
  30
0
  0
VERTEX
  5
877
  8
Layer_0
  10
-122.67612
  20
487.26123
  0
VERTEX
  5
878
  8
Layer_0
  10
-122.68387
  20
479.71722
  0
VERTEX
  5
879
  8
Layer_0
  10
-123.25987
  20
479.72458
  0
VERTEX
  5
87a
  8
Layer_0
  10
-123.26012
  20
487.26059
  0
VERTEX
  5
87b
  8
Layer_0
  10
-122.67612
  20
487.26123
  0
SEQEND
  0
POLYLINE
  5
87d
  8
Layer_0
  62
0
  70
1
  66
1
  10
0
  20
0
  30
0
  0
VERTEX
  5
87d
  8
Layer_0
  10
-134.81572
  20
490.53595
  0
VERTEX
  5
87e
  8
Layer_0
  10
-134.81989
  20
479.71991
  0
VERTEX
  5
87f
  8
Layer_0
  10
-135.39589
  20
479.72729
  0
VERTEX
  5
880
  8
Layer_0
  10
-135.39476
  20
486.01529
  0
VERTEX
  5
881
  8
Layer_0
  10
-135.97346
  20
486.32181
  0
VERTEX
  5
882
  8
Layer_0
  10
-136.57919
  20
486.56601
  0
VERTEX
  5
883
  8
Layer_0
  10
-137.20692
  20
486.74619
  0
VERTEX
  5
884
  8
Layer_0
  10
-137.85168
  20
486.8606
  0
VERTEX
  5
885
  8
Layer_0
  10
-138.15579
  20
486.86688
  0
VERTEX
  5
886
  8
Layer_0
  10
-138.45847
  20
486.8446
  0
VERTEX
  5
887
  8
Layer_0
  10
-138.75771
  20
486.79401
  0
VERTEX
  5
888
  8
Layer_0
  10
-139.05153
  20
486.7153
  0
VERTEX
  5
889
  8
Layer_0
  10
-139.29462
  20
486.56888
  0
VERTEX
  5
88a
  8
Layer_0
  10
-139.51053
  20
486.3916
  0
VERTEX
  5
88b
  8
Layer_0
  10
-139.69708
  20
486.18726
  0
VERTEX
  5
88c
  8
Layer_0
  10
-139.85211
  20
485.95956
  0
VERTEX
  5
88d
  8
Layer_0
  10
-139.97345
  20
485.71228
  0
VERTEX
  5
88e
  8
Layer_0
  10
-140.0589
  20
485.44913
  0
VERTEX
  5
88f
  8
Layer_0
  10
-140.10632
  20
485.17383
  0
VERTEX
  5
890
  8
Layer_0
  10
-140.11353
  20
484.89014
  0
VERTEX
  5
891
  8
Layer_0
  10
-140.12387
  20
479.72211
  0
VERTEX
  5
892
  8
Layer_0
  10
-140.69986
  20
479.7215
  0
VERTEX
  5
893
  8
Layer_0
  10
-140.69482
  20
482.41766
  0
VERTEX
  5
894
  8
Layer_0
  10
-140.69777
  20
485.11349
  0
VERTEX
  5
895
  8
Layer_0
  10
-140.65775
  20
485.53256
  0
VERTEX
  5
896
  8
Layer_0
  10
-140.54543
  20
485.92764
  0
VERTEX
  5
897
  8
Layer_0
  10
-140.36728
  20
486.29135
  0
VERTEX
  5
898
  8
Layer_0
  10
-140.12981
  20
486.61627
  0
VERTEX
  5
899
  8
Layer_0
  10
-139.83948
  20
486.89496
  0
VERTEX
  5
89a
  8
Layer_0
  10
-139.50279
  20
487.12003
  0
VERTEX
  5
89b
  8
Layer_0
  10
-139.12622
  20
487.28406
  0
VERTEX
  5
89c
  8
Layer_0
  10
-138.71625
  20
487.37967
  0
VERTEX
  5
89d
  8
Layer_0
  10
-138.27341
  20
487.37753
  0
VERTEX
  5
89e
  8
Layer_0
  10
-137.83437
  20
487.33978
  0
VERTEX
  5
89f
  8
Layer_0
  10
-137.40118
  20
487.26703
  0
VERTEX
  5
8a0
  8
Layer_0
  10
-136.97592
  20
487.15982
  0
VERTEX
  5
8a1
  8
Layer_0
  10
-136.56064
  20
487.01886
  0
VERTEX
  5
8a2
  8
Layer_0
  10
-136.15738
  20
486.84473
  0
VERTEX
  5
8a3
  8
Layer_0
  10
-135.7682
  20
486.638
  0
VERTEX
  5
8a4
  8
Layer_0
  10
-135.39519
  20
486.39929
  0
VERTEX
  5
8a5
  8
Layer_0
  10
-135.39972
  20
490.53531
  0
VERTEX
  5
8a6
  8
Layer_0
  10
-134.81572
  20
490.53595
  0
SEQEND
  0
POLYLINE
  5
8a8
  8
Layer_0
  62
0
  70
1
  66
1
  10
0
  20
0
  30
0
  0
VERTEX
  5
8a8
  8
Layer_0
  10
-143.55844
  20
489.37436
  0
VERTEX
  5
8a9
  8
Layer_0
  10
-143.43613
  20
487.26251
  0
VERTEX
  5
8aa
  8
Layer_0
  10
-142.22798
  20
487.13583
  0
VERTEX
  5
8ab
  8
Layer_0
  10
-142.23558
  20
486.76782
  0
VERTEX
  5
8ac
  8
Layer_0
  10
-143.45158
  20
486.76648
  0
VERTEX
  5
8ad
  8
Layer_0
  10
-143.40639
  20
482.01453
  0
VERTEX
  5
8ae
  8
Layer_0
  10
-143.39151
  20
481.75098
  0
VERTEX
  5
8af
  8
Layer_0
  10
-143.40645
  20
481.49005
  0
VERTEX
  5
8b0
  8
Layer_0
  10
-143.45041
  20
481.23401
  0
VERTEX
  5
8b1
  8
Layer_0
  10
-143.52252
  20
480.9852
  0
VERTEX
  5
8b2
  8
Layer_0
  10
-143.62198
  20
480.74606
  0
VERTEX
  5
8b3
  8
Layer_0
  10
-143.748
  20
480.51889
  0
VERTEX
  5
8b4
  8
Layer_0
  10
-143.89972
  20
480.30603
  0
VERTEX
  5
8b5
  8
Layer_0
  10
-144.07631
  20
480.1098
  0
VERTEX
  5
8b6
  8
Layer_0
  10
-144.30161
  20
479.948
  0
VERTEX
  5
8b7
  8
Layer_0
  10
-144.55009
  20
479.82965
  0
VERTEX
  5
8b8
  8
Layer_0
  10
-144.81561
  20
479.75711
  0
VERTEX
  5
8b9
  8
Layer_0
  10
-145.0919
  20
479.7327
  0
VERTEX
  5
8ba
  8
Layer_0
  10
-145.67178
  20
479.71603
  0
VERTEX
  5
8bb
  8
Layer_0
  10
-146.25188
  20
479.72342
  0
VERTEX
  5
8bc
  8
Layer_0
  10
-146.25232
  20
480.13141
  0
VERTEX
  5
8bd
  8
Layer_0
  10
-145.58917
  20
480.18036
  0
VERTEX
  5
8be
  8
Layer_0
  10
-144.9325
  20
480.28485
  0
VERTEX
  5
8bf
  8
Layer_0
  10
-144.61339
  20
480.42871
  0
VERTEX
  5
8c0
  8
Layer_0
  10
-144.35146
  20
480.651
  0
VERTEX
  5
8c1
  8
Layer_0
  10
-144.16031
  20
480.93646
  0
VERTEX
  5
8c2
  8
Layer_0
  10
-144.05357
  20
481.26984
  0
VERTEX
  5
8c3
  8
Layer_0
  10
-144.00571
  20
481.64871
  0
VERTEX
  5
8c4
  8
Layer_0
  10
-143.98241
  20
482.02991
  0
VERTEX
  5
8c5
  8
Layer_0
  10
-143.98759
  20
486.7659
  0
VERTEX
  5
8c6
  8
Layer_0
  10
-146.37158
  20
486.76328
  0
VERTEX
  5
8c7
  8
Layer_0
  10
-146.36412
  20
487.25931
  0
VERTEX
  5
8c8
  8
Layer_0
  10
-143.98813
  20
487.2619
  0
VERTEX
  5
8c9
  8
Layer_0
  10
-143.98244
  20
489.3739
  0
VERTEX
  5
8ca
  8
Layer_0
  10
-143.55844
  20
489.37436
  0
SEQEND
  0
POLYLINE
  5
8cc
  8
Layer_0
  62
0
  70
1
  66
1
  10
0
  20
0
  30
0
  0
VERTEX
  5
8cc
  8
Layer_0
  10
-129.73215
  20
487.28549
  0
VERTEX
  5
8cd
  8
Layer_0
  10
-129.7316
  20
486.78949
  0
VERTEX
  5
8ce
  8
Layer_0
  10
-130.09552
  20
486.79089
  0
VERTEX
  5
8cf
  8
Layer_0
  10
-130.45389
  20
486.73962
  0
VERTEX
  5
8d0
  8
Layer_0
  10
-130.80106
  20
486.6369
  0
VERTEX
  5
8d1
  8
Layer_0
  10
-131.13129
  20
486.48398
  0
VERTEX
  5
8d2
  8
Layer_0
  10
-131.43097
  20
486.20334
  0
VERTEX
  5
8d3
  8
Layer_0
  10
-131.65804
  20
485.86719
  0
VERTEX
  5
8d4
  8
Layer_0
  10
-131.80534
  20
485.48926
  0
VERTEX
  5
8d5
  8
Layer_0
  10
-131.86574
  20
485.08316
  0
VERTEX
  5
8d6
  8
Layer_0
  10
-131.89507
  20
484.85223
  0
VERTEX
  5
8d7
  8
Layer_0
  10
-131.89757
  20
484.62183
  0
VERTEX
  5
8d8
  8
Layer_0
  10
-131.87387
  20
484.39404
  0
VERTEX
  5
8d9
  8
Layer_0
  10
-131.82458
  20
484.17114
  0
VERTEX
  5
8da
  8
Layer_0
  10
-131.75032
  20
483.95526
  0
VERTEX
  5
8db
  8
Layer_0
  10
-131.6517
  20
483.74863
  0
VERTEX
  5
8dc
  8
Layer_0
  10
-131.52936
  20
483.55334
  0
VERTEX
  5
8dd
  8
Layer_0
  10
-131.38387
  20
483.37167
  0
VERTEX
  5
8de
  8
Layer_0
  10
-131.15488
  20
483.19516
  0
VERTEX
  5
8df
  8
Layer_0
  10
-130.9014
  20
483.06027
  0
VERTEX
  5
8e0
  8
Layer_0
  10
-130.62903
  20
482.96936
  0
VERTEX
  5
8e1
  8
Layer_0
  10
-130.34338
  20
482.92484
  0
VERTEX
  5
8e2
  8
Layer_0
  10
-130.03574
  20
482.89282
  0
VERTEX
  5
8e3
  8
Layer_0
  10
-129.72731
  20
482.86951
  0
VERTEX
  5
8e4
  8
Layer_0
  10
-129.72679
  20
482.39749
  0
VERTEX
  5
8e5
  8
Layer_0
  10
-130.15979
  20
482.39978
  0
VERTEX
  5
8e6
  8
Layer_0
  10
-130.58664
  20
482.45972
  0
VERTEX
  5
8e7
  8
Layer_0
  10
-131.00166
  20
482.57605
  0
VERTEX
  5
8e8
  8
Layer_0
  10
-131.3992
  20
482.74768
  0
VERTEX
  5
8e9
  8
Layer_0
  10
-131.60944
  20
482.89734
  0
VERTEX
  5
8ea
  8
Layer_0
  10
-131.79913
  20
483.06848
  0
VERTEX
  5
8eb
  8
Layer_0
  10
-131.96704
  20
483.25894
  0
VERTEX
  5
8ec
  8
Layer_0
  10
-132.11179
  20
483.46661
  0
VERTEX
  5
8ed
  8
Layer_0
  10
-132.23209
  20
483.68933
  0
VERTEX
  5
8ee
  8
Layer_0
  10
-132.3266
  20
483.92499
  0
VERTEX
  5
8ef
  8
Layer_0
  10
-132.39401
  20
484.17145
  0
VERTEX
  5
8f0
  8
Layer_0
  10
-132.43303
  20
484.42654
  0
VERTEX
  5
8f1
  8
Layer_0
  10
-132.43372
  20
485.05054
  0
VERTEX
  5
8f2
  8
Layer_0
  10
-132.40305
  20
485.33484
  0
VERTEX
  5
8f3
  8
Layer_0
  10
-132.33418
  20
485.60809
  0
VERTEX
  5
8f4
  8
Layer_0
  10
-132.22934
  20
485.86691
  0
VERTEX
  5
8f5
  8
Layer_0
  10
-132.09073
  20
486.10797
  0
VERTEX
  5
8f6
  8
Layer_0
  10
-131.92062
  20
486.32794
  0
VERTEX
  5
8f7
  8
Layer_0
  10
-131.72125
  20
486.52347
  0
VERTEX
  5
8f8
  8
Layer_0
  10
-131.49484
  20
486.69122
  0
VERTEX
  5
8f9
  8
Layer_0
  10
-131.24365
  20
486.82785
  0
VERTEX
  5
8fa
  8
Layer_0
  10
-133.25977
  20
486.92963
  0
VERTEX
  5
8fb
  8
Layer_0
  10
-133.26015
  20
487.28165
  0
VERTEX
  5
8fc
  8
Layer_0
  10
-129.73215
  20
487.28549
  0
SEQEND
  0
POLYLINE
  5
8fe
  8
Layer_0
  62
0
  70
1
  66
1
  10
0
  20
0
  30
0
  0
VERTEX
  5
8fe
  8
Layer_0
  10
-47.216194
  20
487.33624
  0
VERTEX
  5
8ff
  8
Layer_0
  10
-47.215675
  20
486.86426
  0
VERTEX
  5
900
  8
Layer_0
  10
-47.576912
  20
486.86041
  0
VERTEX
  5
901
  8
Layer_0
  10
-47.934235
  20
486.8158
  0
VERTEX
  5
902
  8
Layer_0
  10
-48.284206
  20
486.73102
  0
VERTEX
  5
903
  8
Layer_0
  10
-48.623398
  20
486.60672
  0
VERTEX
  5
904
  8
Layer_0
  10
-48.916962
  20
486.3811
  0
VERTEX
  5
905
  8
Layer_0
  10
-49.143078
  20
486.09488
  0
VERTEX
  5
906
  8
Layer_0
  10
-49.293022
  20
485.76236
  0
VERTEX
  5
907
  8
Layer_0
  10
-49.358074
  20
485.39789
  0
VERTEX
  5
908
  8
Layer_0
  10
-49.384617
  20
485.08609
  0
VERTEX
  5
909
  8
Layer_0
  10
-49.373009
  20
484.77454
  0
VERTEX
  5
90a
  8
Layer_0
  10
-49.323597
  20
484.46667
  0
VERTEX
  5
90b
  8
Layer_0
  10
-49.236729
  20
484.16605
  0
VERTEX
  5
90c
  8
Layer_0
  10
-49.073689
  20
483.96866
  0
VERTEX
  5
90d
  8
Layer_0
  10
-48.871811
  20
483.81677
  0
VERTEX
  5
90e
  8
Layer_0
  10
-48.640251
  20
483.71576
  0
VERTEX
  5
90f
  8
Layer_0
  10
-48.388184
  20
483.67096
  0
VERTEX
  5
910
  8
Layer_0
  10
-47.80909
  20
483.62378
  0
VERTEX
  5
911
  8
Layer_0
  10
-47.228138
  20
483.63223
  0
VERTEX
  5
912
  8
Layer_0
  10
-47.219658
  20
483.19223
  0
VERTEX
  5
913
  8
Layer_0
  10
-47.646679
  20
483.1752
  0
VERTEX
  5
914
  8
Layer_0
  10
-48.073059
  20
483.19199
  0
VERTEX
  5
915
  8
Layer_0
  10
-48.496773
  20
483.24243
  0
VERTEX
  5
916
  8
Layer_0
  10
-48.915806
  20
483.32639
  0
VERTEX
  5
917
  8
Layer_0
  10
-49.146156
  20
483.43536
  0
VERTEX
  5
918
  8
Layer_0
  10
-49.351894
  20
483.57715
  0
VERTEX
  5
919
  8
Layer_0
  10
-49.530449
  20
483.74774
  0
VERTEX
  5
91a
  8
Layer_0
  10
-49.679253
  20
483.94318
  0
VERTEX
  5
91b
  8
Layer_0
  10
-49.795734
  20
484.15942
  0
VERTEX
  5
91c
  8
Layer_0
  10
-49.877316
  20
484.39255
  0
VERTEX
  5
91d
  8
Layer_0
  10
-49.921432
  20
484.63849
  0
VERTEX
  5
91e
  8
Layer_0
  10
-49.925522
  20
484.89328
  0
VERTEX
  5
91f
  8
Layer_0
  10
-49.912468
  20
485.24915
  0
VERTEX
  5
920
  8
Layer_0
  10
-49.861294
  20
485.60052
  0
VERTEX
  5
921
  8
Layer_0
  10
-49.772614
  20
485.94434
  0
VERTEX
  5
922
  8
Layer_0
  10
-49.647034
  20
486.27759
  0
VERTEX
  5
923
  8
Layer_0
  10
-49.519299
  20
486.48462
  0
VERTEX
  5
924
  8
Layer_0
  10
-49.367493
  20
486.67072
  0
VERTEX
  5
925
  8
Layer_0
  10
-49.19421
  20
486.83417
  0
VERTEX
  5
926
  8
Layer_0
  10
-49.002033
  20
486.97339
  0
VERTEX
  5
927
  8
Layer_0
  10
-48.793549
  20
487.08673
  0
VERTEX
  5
928
  8
Layer_0
  10
-48.571342
  20
487.17261
  0
VERTEX
  5
929
  8
Layer_0
  10
-48.338001
  20
487.22931
  0
VERTEX
  5
92a
  8
Layer_0
  10
-48.096107
  20
487.25528
  0
VERTEX
  5
92b
  8
Layer_0
  10
-47.658401
  20
487.32025
  0
VERTEX
  5
92c
  8
Layer_0
  10
-47.216194
  20
487.33624
  0
SEQEND
  0
POLYLINE
  5
92e
  8
Layer_0
  62
0
  70
1
  66
1
  10
0
  20
0
  30
0
  0
VERTEX
  5
92e
  8
Layer_0
  10
-77.272194
  20
487.32657
  0
VERTEX
  5
92f
  8
Layer_0
  10
-77.271683
  20
486.86255
  0
VERTEX
  5
930
  8
Layer_0
  10
-77.621902
  20
486.85449
  0
VERTEX
  5
931
  8
Layer_0
  10
-77.967606
  20
486.80573
  0
VERTEX
  5
932
  8
Layer_0
  10
-78.305267
  20
486.71704
  0
VERTEX
  5
933
  8
Layer_0
  10
-78.631386
  20
486.58908
  0
VERTEX
  5
934
  8
Layer_0
  10
-78.90345
  20
486.35986
  0
VERTEX
  5
935
  8
Layer_0
  10
-79.112045
  20
486.07767
  0
VERTEX
  5
936
  8
Layer_0
  10
-79.249992
  20
485.75494
  0
VERTEX
  5
937
  8
Layer_0
  10
-79.310081
  20
485.40433
  0
VERTEX
  5
938
  8
Layer_0
  10
-79.337555
  20
485.09247
  0
VERTEX
  5
939
  8
Layer_0
  10
-79.326256
  20
484.78082
  0
VERTEX
  5
93a
  8
Layer_0
  10
-79.276535
  20
484.47296
  0
VERTEX
  5
93b
  8
Layer_0
  10
-79.188744
  20
484.17245
  0
VERTEX
  5
93c
  8
Layer_0
  10
-79.058319
  20
484.00027
  0
VERTEX
  5
93d
  8
Layer_0
  10
-78.896011
  20
483.86157
  0
VERTEX
  5
93e
  8
Layer_0
  10
-78.707939
  20
483.7605
  0
VERTEX
  5
93f
  8
Layer_0
  10
-78.500221
  20
483.70123
  0
VERTEX
  5
940
  8
Layer_0
  10
-78.194244
  20
483.65515
  0
VERTEX
  5
941
  8
Layer_0
  10
-77.886246
  20
483.62933
  0
VERTEX
  5
942
  8
Layer_0
  10
-77.577225
  20
483.62378
  0
VERTEX
  5
943
  8
Layer_0
  10
-77.268158
  20
483.63855
  0
VERTEX
  5
944
  8
Layer_0
  10
-77.267677
  20
483.19858
  0
VERTEX
  5
945
  8
Layer_0
  10
-77.677216
  20
483.1806
  0
VERTEX
  5
946
  8
Layer_0
  10
-78.085999
  20
483.19843
  0
VERTEX
  5
947
  8
Layer_0
  10
-78.491653
  20
483.25189
  0
VERTEX
  5
948
  8
Layer_0
  10
-78.89183
  20
483.34079
  0
VERTEX
  5
949
  8
Layer_0
  10
-79.119667
  20
483.44962
  0
VERTEX
  5
94a
  8
Layer_0
  10
-79.322746
  20
483.59119
  0
VERTEX
  5
94b
  8
Layer_0
  10
-79.498497
  20
483.76135
  0
VERTEX
  5
94c
  8
Layer_0
  10
-79.644356
  20
483.95609
  0
VERTEX
  5
94d
  8
Layer_0
  10
-79.757759
  20
484.17133
  0
VERTEX
  5
94e
  8
Layer_0
  10
-79.836128
  20
484.40308
  0
VERTEX
  5
94f
  8
Layer_0
  10
-79.876907
  20
484.64722
  0
VERTEX
  5
950
  8
Layer_0
  10
-79.877533
  20
484.89972
  0
VERTEX
  5
951
  8
Layer_0
  10
-79.868927
  20
485.27753
  0
VERTEX
  5
952
  8
Layer_0
  10
-79.815109
  20
485.65021
  0
VERTEX
  5
953
  8
Layer_0
  10
-79.716888
  20
486.01373
  0
VERTEX
  5
954
  8
Layer_0
  10
-79.575134
  20
486.36404
  0
VERTEX
  5
955
  8
Layer_0
  10
-79.442818
  20
486.54889
  0
VERTEX
  5
956
  8
Layer_0
  10
-79.291206
  20
486.71512
  0
VERTEX
  5
957
  8
Layer_0
  10
-79.122292
  20
486.86148
  0
VERTEX
  5
958
  8
Layer_0
  10
-78.938065
  20
486.98682
  0
VERTEX
  5
959
  8
Layer_0
  10
-78.74054
  20
487.0899
  0
VERTEX
  5
95a
  8
Layer_0
  10
-78.5317
  20
487.16953
  0
VERTEX
  5
95b
  8
Layer_0
  10
-78.31356
  20
487.22449
  0
VERTEX
  5
95c
  8
Layer_0
  10
-78.088104
  20
487.25366
  0
VERTEX
  5
95d
  8
Layer_0
  10
-77.681961
  20
487.31036
  0
VERTEX
  5
95e
  8
Layer_0
  10
-77.272194
  20
487.32657
  0
SEQEND
  0
POLYLINE
  5
960
  8
Layer_0
  62
0
  70
1
  66
1
  10
0
  20
0
  30
0
  0
VERTEX
  5
960
  8
Layer_0
  10
-90.711693
  20
486.87186
  0
VERTEX
  5
961
  8
Layer_0
  10
-91.094765
  20
486.86157
  0
VERTEX
  5
962
  8
Layer_0
  10
-91.471161
  20
486.79974
  0
VERTEX
  5
963
  8
Layer_0
  10
-91.835724
  20
486.68756
  0
VERTEX
  5
964
  8
Layer_0
  10
-92.183311
  20
486.52625
  0
VERTEX
  5
965
  8
Layer_0
  10
-92.392799
  20
486.33627
  0
VERTEX
  5
966
  8
Layer_0
  10
-92.558655
  20
486.11066
  0
VERTEX
  5
967
  8
Layer_0
  10
-92.67659
  20
485.85669
  0
VERTEX
  5
968
  8
Layer_0
  10
-92.742287
  20
485.58163
  0
VERTEX
  5
969
  8
Layer_0
  10
-92.793221
  20
485.23389
  0
VERTEX
  5
96a
  8
Layer_0
  10
-92.796417
  20
484.88409
  0
VERTEX
  5
96b
  8
Layer_0
  10
-92.752167
  20
484.53705
  0
VERTEX
  5
96c
  8
Layer_0
  10
-92.660767
  20
484.19772
  0
VERTEX
  5
96d
  8
Layer_0
  10
-92.523651
  20
484.00299
  0
VERTEX
  5
96e
  8
Layer_0
  10
-92.344795
  20
483.85135
  0
VERTEX
  5
96f
  8
Layer_0
  10
-92.133789
  20
483.74908
  0
VERTEX
  5
970
  8
Layer_0
  10
-91.900223
  20
483.70255
  0
VERTEX
  5
971
  8
Layer_0
  10
-91.682541
  20
483.65454
  0
VERTEX
  5
972
  8
Layer_0
  10
-91.460152
  20
483.63904
  0
VERTEX
  5
973
  8
Layer_0
  10
-90.708153
  20
483.63986
  0
VERTEX
  5
974
  8
Layer_0
  10
-90.707672
  20
483.19986
  0
VERTEX
  5
975
  8
Layer_0
  10
-91.083435
  20
483.18643
  0
VERTEX
  5
976
  8
Layer_0
  10
-91.458832
  20
483.19775
  0
VERTEX
  5
977
  8
Layer_0
  10
-91.832687
  20
483.2337
  0
VERTEX
  5
978
  8
Layer_0
  10
-92.203781
  20
483.29422
  0
VERTEX
  5
979
  8
Layer_0
  10
-92.428436
  20
483.3714
  0
VERTEX
  5
97a
  8
Layer_0
  10
-92.634598
  20
483.48056
  0
VERTEX
  5
97b
  8
Layer_0
  10
-92.819588
  20
483.61847
  0
VERTEX
  5
97c
  8
Layer_0
  10
-92.980728
  20
483.78204
  0
VERTEX
  5
97d
  8
Layer_0
  10
-93.115341
  20
483.96802
  0
VERTEX
  5
97e
  8
Layer_0
  10
-93.220749
  20
484.17328
  0
VERTEX
  5
97f
  8
Layer_0
  10
-93.294273
  20
484.39465
  0
VERTEX
  5
980
  8
Layer_0
  10
-93.333237
  20
484.629
  0
VERTEX
  5
981
  8
Layer_0
  10
-93.333687
  20
485.00104
  0
VERTEX
  5
982
  8
Layer_0
  10
-93.326057
  20
485.37299
  0
VERTEX
  5
983
  8
Layer_0
  10
-93.264259
  20
485.71762
  0
VERTEX
  5
984
  8
Layer_0
  10
-93.158813
  20
486.05005
  0
VERTEX
  5
985
  8
Layer_0
  10
-93.011337
  20
486.36609
  0
VERTEX
  5
986
  8
Layer_0
  10
-92.823463
  20
486.66156
  0
VERTEX
  5
987
  8
Layer_0
  10
-92.545258
  20
486.89539
  0
VERTEX
  5
988
  8
Layer_0
  10
-92.23291
  20
487.07593
  0
VERTEX
  5
989
  8
Layer_0
  10
-91.893997
  20
487.19965
  0
VERTEX
  5
98a
  8
Layer_0
  10
-91.536125
  20
487.26294
  0
VERTEX
  5
98b
  8
Layer_0
  10
-91.121902
  20
487.31924
  0
VERTEX
  5
98c
  8
Layer_0
  10
-90.704201
  20
487.33588
  0
VERTEX
  5
98d
  8
Layer_0
  10
-90.711693
  20
486.87186
  0
SEQEND
  0
POLYLINE
  5
98f
  8
Layer_0
  62
0
  70
1
  66
1
  10
0
  20
0
  30
0
  0
VERTEX
  5
98f
  8
Layer_0
  10
-110.48022
  20
487.33823
  0
VERTEX
  5
990
  8
Layer_0
  10
-110.4797
  20
486.86621
  0
VERTEX
  5
991
  8
Layer_0
  10
-110.89658
  20
486.86188
  0
VERTEX
  5
992
  8
Layer_0
  10
-111.30383
  20
486.78793
  0
VERTEX
  5
993
  8
Layer_0
  10
-111.6929
  20
486.64673
  0
VERTEX
  5
994
  8
Layer_0
  10
-112.05522
  20
486.44049
  0
VERTEX
  5
995
  8
Layer_0
  10
-112.22152
  20
486.25793
  0
VERTEX
  5
996
  8
Layer_0
  10
-112.35315
  20
486.05109
  0
VERTEX
  5
997
  8
Layer_0
  10
-112.44759
  20
485.82483
  0
VERTEX
  5
998
  8
Layer_0
  10
-112.50228
  20
485.58401
  0
VERTEX
  5
999
  8
Layer_0
  10
-112.54314
  20
485.25977
  0
VERTEX
  5
99a
  8
Layer_0
  10
-112.54979
  20
484.93387
  0
VERTEX
  5
99b
  8
Layer_0
  10
-112.52233
  20
484.60907
  0
VERTEX
  5
99c
  8
Layer_0
  10
-112.46086
  20
484.28806
  0
VERTEX
  5
99d
  8
Layer_0
  10
-112.3353
  20
484.077
  0
VERTEX
  5
99e
  8
Layer_0
  10
-112.165
  20
483.90491
  0
VERTEX
  5
99f
  8
Layer_0
  10
-111.95847
  20
483.77859
  0
VERTEX
  5
9a0
  8
Layer_0
  10
-111.72423
  20
483.70486
  0
VERTEX
  5
9a1
  8
Layer_0
  10
-111.41626
  20
483.65866
  0
VERTEX
  5
9a2
  8
Layer_0
  10
-111.10626
  20
483.63278
  0
VERTEX
  5
9a3
  8
Layer_0
  10
-110.79523
  20
483.62729
  0
VERTEX
  5
9a4
  8
Layer_0
  10
-110.48417
  20
483.64221
  0
VERTEX
  5
9a5
  8
Layer_0
  10
-110.49168
  20
483.20221
  0
VERTEX
  5
9a6
  8
Layer_0
  10
-110.89725
  20
483.18433
  0
VERTEX
  5
9a7
  8
Layer_0
  10
-111.30206
  20
483.20218
  0
VERTEX
  5
9a8
  8
Layer_0
  10
-111.70371
  20
483.25565
  0
VERTEX
  5
9a9
  8
Layer_0
  10
-112.09983
  20
483.34445
  0
VERTEX
  5
9aa
  8
Layer_0
  10
-112.33059
  20
483.45053
  0
VERTEX
  5
9ab
  8
Layer_0
  10
-112.53631
  20
483.59045
  0
VERTEX
  5
9ac
  8
Layer_0
  10
-112.71428
  20
483.76001
  0
VERTEX
  5
9ad
  8
Layer_0
  10
-112.86181
  20
483.9549
  0
VERTEX
  5
9ae
  8
Layer_0
  10
-112.9762
  20
484.1709
  0
VERTEX
  5
9af
  8
Layer_0
  10
-113.05475
  20
484.40381
  0
VERTEX
  5
9b0
  8
Layer_0
  10
-113.09476
  20
484.64938
  0
VERTEX
  5
9b1
  8
Layer_0
  10
-113.09354
  20
484.90338
  0
VERTEX
  5
9b2
  8
Layer_0
  10
-113.08479
  20
485.28375
  0
VERTEX
  5
9b3
  8
Layer_0
  10
-113.02956
  20
485.65875
  0
VERTEX
  5
9b4
  8
Layer_0
  10
-112.92871
  20
486.02417
  0
VERTEX
  5
9b5
  8
Layer_0
  10
-112.78315
  20
486.3757
  0
VERTEX
  5
9b6
  8
Layer_0
  10
-112.6527
  20
486.56122
  0
VERTEX
  5
9b7
  8
Layer_0
  10
-112.50261
  20
486.72791
  0
VERTEX
  5
9b8
  8
Layer_0
  10
-112.33493
  20
486.87463
  0
VERTEX
  5
9b9
  8
Layer_0
  10
-112.15169
  20
487.00012
  0
VERTEX
  5
9ba
  8
Layer_0
  10
-111.95494
  20
487.10318
  0
VERTEX
  5
9bb
  8
Layer_0
  10
-111.74673
  20
487.18256
  0
VERTEX
  5
9bc
  8
Layer_0
  10
-111.52911
  20
487.237
  0
VERTEX
  5
9bd
  8
Layer_0
  10
-111.30413
  20
487.26532
  0
VERTEX
  5
9be
  8
Layer_0
  10
-110.89398
  20
487.32214
  0
VERTEX
  5
9bf
  8
Layer_0
  10
-110.48022
  20
487.33823
  0
SEQEND
  0
POLYLINE
  5
9c1
  8
Layer_0
  62
0
  70
1
  66
1
  10
0
  20
0
  30
0
  0
VERTEX
  5
9c1
  8
Layer_0
  10
-122.7912
  20
490.07709
  0
VERTEX
  5
9c2
  8
Layer_0
  10
-122.68954
  20
490.03094
  0
VERTEX
  5
9c3
  8
Layer_0
  10
-122.62305
  20
489.94128
  0
VERTEX
  5
9c4
  8
Layer_0
  10
-122.62189
  20
488.87729
  0
VERTEX
  5
9c5
  8
Layer_0
  10
-122.62985
  20
488.83728
  0
VERTEX
  5
9c6
  8
Layer_0
  10
-122.66852
  20
488.78613
  0
VERTEX
  5
9c7
  8
Layer_0
  10
-122.72575
  20
488.75717
  0
VERTEX
  5
9c8
  8
Layer_0
  10
-122.97354
  20
488.74088
  0
VERTEX
  5
9c9
  8
Layer_0
  10
-123.22174
  20
488.74863
  0
VERTEX
  5
9ca
  8
Layer_0
  10
-123.29341
  20
488.79883
  0
VERTEX
  5
9cb
  8
Layer_0
  10
-123.33389
  20
488.8765
  0
VERTEX
  5
9cc
  8
Layer_0
  10
-123.33499
  20
489.88449
  0
VERTEX
  5
9cd
  8
Layer_0
  10
-123.30455
  20
489.97852
  0
VERTEX
  5
9ce
  8
Layer_0
  10
-123.23917
  20
490.05261
  0
VERTEX
  5
9cf
  8
Layer_0
  10
-123.01598
  20
490.07935
  0
VERTEX
  5
9d0
  8
Layer_0
  10
-122.7912
  20
490.07709
  0
SEQEND
  0
POLYLINE
  5
9d2
  8
Layer_0
  62
0
  70
1
  66
1
  10
0
  20
0
  30
0
  0
VERTEX
  5
9d2
  8
Layer_0
  10
-34.588699
  20
504.64212
  0
VERTEX
  5
9d3
  8
Layer_0
  10
-34.603607
  20
507.64642
  0
VERTEX
  5
9d4
  8
Layer_0
  10
-29.691376
  20
507.659
  0
VERTEX
  5
9d5
  8
Layer_0
  10
-29.783493
  20
504.65903
  0
VERTEX
  5
9d6
  8
Layer_0
  10
-29.65921
  20
504.66193
  0
VERTEX
  5
9d7
  8
Layer_0
  10
-29.588013
  20
464.46786
  0
VERTEX
  5
9d8
  8
Layer_0
  10
-29.732437
  20
464.46619
  0
VERTEX
  5
9d9
  8
Layer_0
  10
-29.641388
  20
461.46204
  0
VERTEX
  5
9da
  8
Layer_0
  10
-34.552109
  20
461.4245
  0
VERTEX
  5
9db
  8
Layer_0
  10
-34.556656
  20
464.43332
  0
VERTEX
  5
9dc
  8
Layer_0
  10
-34.688858
  20
464.42163
  0
VERTEX
  5
9dd
  8
Layer_0
  10
-34.662308
  20
461.42392
  0
VERTEX
  5
9de
  8
Layer_0
  10
-39.616867
  20
461.43079
  0
VERTEX
  5
9df
  8
Layer_0
  10
-39.508453
  20
464.436
  0
VERTEX
  5
9e0
  8
Layer_0
  10
-97.845459
  20
464.48688
  0
VERTEX
  5
9e1
  8
Layer_0
  10
-97.754379
  20
461.4827
  0
VERTEX
  5
9e2
  8
Layer_0
  10
-102.69966
  20
461.46225
  0
VERTEX
  5
9e3
  8
Layer_0
  10
-102.71539
  20
464.50125
  0
VERTEX
  5
9e4
  8
Layer_0
  10
-102.82364
  20
464.49393
  0
VERTEX
  5
9e5
  8
Layer_0
  10
-102.81472
  20
461.46167
  0
VERTEX
  5
9e6
  8
Layer_0
  10
-107.72989
  20
461.45148
  0
VERTEX
  5
9e7
  8
Layer_0
  10
-107.62147
  20
464.45667
  0
VERTEX
  5
9e8
  8
Layer_0
  10
-139.29283
  20
464.40158
  0
VERTEX
  5
9e9
  8
Layer_0
  10
-139.20175
  20
461.3974
  0
VERTEX
  5
9ea
  8
Layer_0
  10
-144.15042
  20
461.37888
  0
VERTEX
  5
9eb
  8
Layer_0
  10
-144.16603
  20
464.39536
  0
VERTEX
  5
9ec
  8
Layer_0
  10
-144.27844
  20
464.39478
  0
VERTEX
  5
9ed
  8
Layer_0
  10
-144.24402
  20
461.35965
  0
VERTEX
  5
9ee
  8
Layer_0
  10
-149.17725
  20
461.36618
  0
VERTEX
  5
9ef
  8
Layer_0
  10
-149.06882
  20
464.3714
  0
VERTEX
  5
9f0
  8
Layer_0
  10
-152.44212
  20
464.28046
  0
VERTEX
  5
9f1
  8
Layer_0
  10
-152.44266
  20
469.06036
  0
VERTEX
  5
9f2
  8
Layer_0
  10
-159.05402
  20
469.03033
  0
VERTEX
  5
9f3
  8
Layer_0
  10
-159.07445
  20
473.53027
  0
VERTEX
  5
9f4
  8
Layer_0
  10
-156.31851
  20
473.53885
  0
VERTEX
  5
9f5
  8
Layer_0
  10
-153.5625
  20
473.5553
  0
VERTEX
  5
9f6
  8
Layer_0
  10
-153.65109
  20
493.87085
  0
VERTEX
  5
9f7
  8
Layer_0
  10
-156.3687
  20
493.85046
  0
VERTEX
  5
9f8
  8
Layer_0
  10
-159.08621
  20
493.84616
  0
VERTEX
  5
9f9
  8
Layer_0
  10
-159.10664
  20
498.34613
  0
VERTEX
  5
9fa
  8
Layer_0
  10
-153.67152
  20
498.37079
  0
VERTEX
  5
9fb
  8
Layer_0
  10
-153.66843
  20
501.23486
  0
VERTEX
  5
9fc
  8
Layer_0
  10
-153.71217
  20
504.09839
  0
VERTEX
  5
9fd
  8
Layer_0
  10
-151.39032
  20
504.09082
  0
VERTEX
  5
9fe
  8
Layer_0
  10
-149.06883
  20
504.07538
  0
VERTEX
  5
9ff
  8
Layer_0
  10
-149.17932
  20
507.20422
  0
VERTEX
  5
a00
  8
Layer_0
  10
-143.91486
  20
507.15134
  0
VERTEX
  5
a01
  8
Layer_0
  10
-143.89511
  20
504.13513
  0
VERTEX
  5
a02
  8
Layer_0
  10
-143.79164
  20
504.14365
  0
VERTEX
  5
a03
  8
Layer_0
  10
-143.81271
  20
507.14676
  0
VERTEX
  5
a04
  8
Layer_0
  10
-139.20175
  20
507.20422
  0
VERTEX
  5
a05
  8
Layer_0
  10
-139.34377
  20
504.07541
  0
VERTEX
  5
a06
  8
Layer_0
  10
-107.61137
  20
504.31427
  0
VERTEX
  5
a07
  8
Layer_0
  10
-107.72594
  20
507.32816
  0
VERTEX
  5
a08
  8
Layer_0
  10
-103.00919
  20
507.3548
  0
VERTEX
  5
a09
  8
Layer_0
  10
-102.98969
  20
504.3382
  0
VERTEX
  5
a0a
  8
Layer_0
  10
-102.88956
  20
504.33679
  0
VERTEX
  5
a0b
  8
Layer_0
  10
-102.90407
  20
507.35236
  0
VERTEX
  5
a0c
  8
Layer_0
  10
-97.754379
  20
507.32816
  0
VERTEX
  5
a0d
  8
Layer_0
  10
-97.847122
  20
504.32724
  0
VERTEX
  5
a0e
  8
Layer_0
  10
-39.559494
  20
504.62885
  0
VERTEX
  5
a0f
  8
Layer_0
  10
-39.650574
  20
507.63303
  0
VERTEX
  5
a10
  8
Layer_0
  10
-34.708755
  20
507.64774
  0
VERTEX
  5
a11
  8
Layer_0
  10
-34.690598
  20
504.6416
  0
VERTEX
  5
a12
  8
Layer_0
  10
-34.588699
  20
504.64212
  0
SEQEND
  0
POLYLINE
  5
a14
  8
Layer_0
  62
0
  70
1
  66
1
  10
0
  20
0
  30
0
  0
VERTEX
  5
a14
  8
Layer_0
  10
51.500355
  20
456.29977
  0
VERTEX
  5
a15
  8
Layer_0
  10
51.500114
  20
459.30429
  0
VERTEX
  5
a16
  8
Layer_0
  10
46.549583
  20
459.30499
  0
VERTEX
  5
a17
  8
Layer_0
  10
46.666008
  20
456.30029
  0
VERTEX
  5
a18
  8
Layer_0
  10
36.897568
  20
456.29807
  0
VERTEX
  5
a19
  8
Layer_0
  10
36.944874
  20
457.80005
  0
VERTEX
  5
a1a
  8
Layer_0
  10
36.981339
  20
459.30252
  0
VERTEX
  5
a1b
  8
Layer_0
  10
32.053486
  20
459.29822
  0
VERTEX
  5
a1c
  8
Layer_0
  10
32.049877
  20
456.3028
  0
VERTEX
  5
a1d
  8
Layer_0
  10
31.952034
  20
456.29706
  0
VERTEX
  5
a1e
  8
Layer_0
  10
31.950741
  20
459.3031
  0
VERTEX
  5
a1f
  8
Layer_0
  10
26.997513
  20
459.30582
  0
VERTEX
  5
a20
  8
Layer_0
  10
27.113403
  20
456.30142
  0
VERTEX
  5
a21
  8
Layer_0
  10
22.951202
  20
456.20261
  0
VERTEX
  5
a22
  8
Layer_0
  10
23.120209
  20
416.20963
  0
VERTEX
  5
a23
  8
Layer_0
  10
27.327538
  20
416.19073
  0
VERTEX
  5
a24
  8
Layer_0
  10
27.2272
  20
413.18573
  0
VERTEX
  5
a25
  8
Layer_0
  10
32.180359
  20
413.21411
  0
VERTEX
  5
a26
  8
Layer_0
  10
32.166096
  20
416.22012
  0
VERTEX
  5
a27
  8
Layer_0
  10
32.263939
  20
416.21487
  0
VERTEX
  5
a28
  8
Layer_0
  10
32.283051
  20
413.21954
  0
VERTEX
  5
a29
  8
Layer_0
  10
37.210873
  20
413.24075
  0
VERTEX
  5
a2a
  8
Layer_0
  10
37.111553
  20
416.24472
  0
VERTEX
  5
a2b
  8
Layer_0
  10
46.879875
  20
416.29312
  0
VERTEX
  5
a2c
  8
Layer_0
  10
46.779018
  20
413.28784
  0
VERTEX
  5
a2d
  8
Layer_0
  10
51.729462
  20
413.31418
  0
VERTEX
  5
a2e
  8
Layer_0
  10
51.714165
  20
416.31866
  0
VERTEX
  5
a2f
  8
Layer_0
  10
51.814171
  20
416.31982
  0
VERTEX
  5
a30
  8
Layer_0
  10
51.828812
  20
413.31586
  0
VERTEX
  5
a31
  8
Layer_0
  10
56.762215
  20
413.34143
  0
VERTEX
  5
a32
  8
Layer_0
  10
56.663406
  20
416.3457
  0
VERTEX
  5
a33
  8
Layer_0
  10
60.823479
  20
416.31525
  0
VERTEX
  5
a34
  8
Layer_0
  10
60.648827
  20
456.35483
  0
VERTEX
  5
a35
  8
Layer_0
  10
56.449677
  20
456.29837
  0
VERTEX
  5
a36
  8
Layer_0
  10
56.532928
  20
459.3031
  0
VERTEX
  5
a37
  8
Layer_0
  10
51.599487
  20
459.30313
  0
VERTEX
  5
a38
  8
Layer_0
  10
51.600388
  20
456.29916
  0
VERTEX
  5
a39
  8
Layer_0
  10
51.500355
  20
456.29977
  0
SEQEND
  0
POLYLINE
  5
a3b
  8
Layer_0
  62
0
  70
1
  66
1
  10
0
  20
0
  30
0
  0
VERTEX
  5
a3b
  8
Layer_0
  10
51.395706
  20
503.35117
  0
VERTEX
  5
a3c
  8
Layer_0
  10
51.379826
  20
506.35562
  0
VERTEX
  5
a3d
  8
Layer_0
  10
46.429359
  20
506.33057
  0
VERTEX
  5
a3e
  8
Layer_0
  10
46.561424
  20
503.32651
  0
VERTEX
  5
a3f
  8
Layer_0
  10
36.79314
  20
503.27344
  0
VERTEX
  5
a40
  8
Layer_0
  10
36.832623
  20
504.77563
  0
VERTEX
  5
a41
  8
Layer_0
  10
36.861267
  20
506.27826
  0
VERTEX
  5
a42
  8
Layer_0
  10
31.933502
  20
506.24832
  0
VERTEX
  5
a43
  8
Layer_0
  10
31.945488
  20
503.25293
  0
VERTEX
  5
a44
  8
Layer_0
  10
31.847675
  20
503.24667
  0
VERTEX
  5
a45
  8
Layer_0
  10
31.83073
  20
506.25266
  0
VERTEX
  5
a46
  8
Layer_0
  10
26.877563
  20
506.22958
  0
VERTEX
  5
a47
  8
Layer_0
  10
27.009094
  20
503.22586
  0
VERTEX
  5
a48
  8
Layer_0
  10
22.847458
  20
503.10535
  0
VERTEX
  5
a49
  8
Layer_0
  10
23.224678
  20
463.11377
  0
VERTEX
  5
a4a
  8
Layer_0
  10
27.432045
  20
463.11676
  0
VERTEX
  5
a4b
  8
Layer_0
  10
27.347355
  20
460.11133
  0
VERTEX
  5
a4c
  8
Layer_0
  10
32.300297
  20
460.16547
  0
VERTEX
  5
a4d
  8
Layer_0
  10
32.27039
  20
463.17139
  0
VERTEX
  5
a4e
  8
Layer_0
  10
32.368252
  20
463.16663
  0
VERTEX
  5
a4f
  8
Layer_0
  10
32.402958
  20
460.17142
  0
VERTEX
  5
a50
  8
Layer_0
  10
37.330601
  20
460.21829
  0
VERTEX
  5
a51
  8
Layer_0
  10
37.215645
  20
463.22171
  0
VERTEX
  5
a52
  8
Layer_0
  10
46.983578
  20
463.32098
  0
VERTEX
  5
a53
  8
Layer_0
  10
46.898369
  20
460.31522
  0
VERTEX
  5
a54
  8
Layer_0
  10
51.848602
  20
460.36731
  0
VERTEX
  5
a55
  8
Layer_0
  10
51.817665
  20
463.37167
  0
VERTEX
  5
a56
  8
Layer_0
  10
51.917664
  20
463.37335
  0
VERTEX
  5
a57
  8
Layer_0
  10
51.947941
  20
460.36954
  0
VERTEX
  5
a58
  8
Layer_0
  10
56.881142
  20
460.42078
  0
VERTEX
  5
a59
  8
Layer_0
  10
56.766697
  20
463.42447
  0
VERTEX
  5
a5a
  8
Layer_0
  10
60.926865
  20
463.41568
  0
VERTEX
  5
a5b
  8
Layer_0
  10
60.543766
  20
503.45383
  0
VERTEX
  5
a5c
  8
Layer_0
  10
56.344967
  20
503.37549
  0
VERTEX
  5
a5d
  8
Layer_0
  10
56.412575
  20
506.38065
  0
VERTEX
  5
a5e
  8
Layer_0
  10
51.479198
  20
506.35498
  0
VERTEX
  5
a5f
  8
Layer_0
  10
51.495743
  20
503.35107
  0
VERTEX
  5
a60
  8
Layer_0
  10
51.395706
  20
503.35117
  0
SEQEND
  0
POLYLINE
  5
a62
  8
Layer_0
  62
0
  70
1
  66
1
  10
0
  20
0
  30
0
  0
VERTEX
  5
a62
  8
Layer_0
  10
-10.683712
  20
397.34448
  0
VERTEX
  5
a63
  8
Layer_0
  10
-19.749466
  20
399.32288
  0
VERTEX
  5
a64
  8
Layer_0
  10
-20.405888
  20
396.39081
  0
VERTEX
  5
a65
  8
Layer_0
  10
-11.340133
  20
394.41241
  0
VERTEX
  5
a66
  8
Layer_0
  10
-10.683712
  20
397.34448
  0
SEQEND
  0
POLYLINE
  5
a68
  8
Layer_0
  62
0
  70
1
  66
1
  10
0
  20
0
  30
0
  0
VERTEX
  5
a68
  8
Layer_0
  10
8.4178362
  20
393.16858
  0
VERTEX
  5
a69
  8
Layer_0
  10
-0.64762497
  20
395.14838
  0
VERTEX
  5
a6a
  8
Layer_0
  10
-1.3044939
  20
392.21643
  0
VERTEX
  5
a6b
  8
Layer_0
  10
7.7609673
  20
390.23663
  0
VERTEX
  5
a6c
  8
Layer_0
  10
8.4178362
  20
393.16858
  0
SEQEND
  0
POLYLINE
  5
a6e
  8
Layer_0
  62
0
  70
1
  66
1
  10
0
  20
0
  30
0
  0
VERTEX
  5
a6e
  8
Layer_0
  10
24.865492
  20
356.67737
  0
VERTEX
  5
a6f
  8
Layer_0
  10
22.493969
  20
365.64832
  0
VERTEX
  5
a70
  8
Layer_0
  10
19.585047
  20
364.89606
  0
VERTEX
  5
a71
  8
Layer_0
  10
21.95657
  20
355.92511
  0
VERTEX
  5
a72
  8
Layer_0
  10
24.865492
  20
356.67737
  0
SEQEND
  0
POLYLINE
  5
a74
  8
Layer_0
  62
0
  70
1
  66
1
  10
0
  20
0
  30
0
  0
VERTEX
  5
a74
  8
Layer_0
  10
19.872877
  20
375.5816
  0
VERTEX
  5
a75
  8
Layer_0
  10
17.49999
  20
384.55219
  0
VERTEX
  5
a76
  8
Layer_0
  10
14.591185
  20
383.7995
  0
VERTEX
  5
a77
  8
Layer_0
  10
16.964071
  20
374.82892
  0
VERTEX
  5
a78
  8
Layer_0
  10
19.872877
  20
375.5816
  0
SEQEND
  0
POLYLINE
  5
a7a
  8
Layer_0
  62
0
  70
1
  66
1
  10
0
  20
0
  30
0
  0
VERTEX
  5
a7a
  8
Layer_0
  10
29.042709
  20
349.06177
  0
VERTEX
  5
a7b
  8
Layer_0
  10
17.442612
  20
393.23126
  0
VERTEX
  5
a7c
  8
Layer_0
  10
-27.867874
  20
403.20209
  0
VERTEX
  5
a7d
  8
Layer_0
  10
-27.524261
  20
391.50537
  0
VERTEX
  5
a7e
  8
Layer_0
  10
-25.79837
  20
346.53851
  0
VERTEX
  5
a7f
  8
Layer_0
  10
29.042709
  20
349.06177
  0
SEQEND
  0
POLYLINE
  5
a81
  8
Layer_0
  62
0
  70
1
  66
1
  10
0
  20
0
  30
0
  0
VERTEX
  5
a81
  8
Layer_0
  10
10.395706
  20
502.35117
  0
VERTEX
  5
a82
  8
Layer_0
  10
10.379826
  20
505.35562
  0
VERTEX
  5
a83
  8
Layer_0
  10
5.4293594
  20
505.33057
  0
VERTEX
  5
a84
  8
Layer_0
  10
5.5614243
  20
502.32651
  0
VERTEX
  5
a85
  8
Layer_0
  10
-4.2068596
  20
502.27344
  0
VERTEX
  5
a86
  8
Layer_0
  10
-4.1673803
  20
503.77563
  0
VERTEX
  5
a87
  8
Layer_0
  10
-4.1387329
  20
505.27826
  0
VERTEX
  5
a88
  8
Layer_0
  10
-9.0664978
  20
505.24832
  0
VERTEX
  5
a89
  8
Layer_0
  10
-9.054512
  20
502.25293
  0
VERTEX
  5
a8a
  8
Layer_0
  10
-9.1523247
  20
502.24667
  0
VERTEX
  5
a8b
  8
Layer_0
  10
-9.1692696
  20
505.25266
  0
VERTEX
  5
a8c
  8
Layer_0
  10
-14.122437
  20
505.22958
  0
VERTEX
  5
a8d
  8
Layer_0
  10
-13.990906
  20
502.22586
  0
VERTEX
  5
a8e
  8
Layer_0
  10
-20.612831
  20
501.91556
  0
VERTEX
  5
a8f
  8
Layer_0
  10
-20.17308
  20
462.228
  0
VERTEX
  5
a90
  8
Layer_0
  10
-13.567955
  20
462.11676
  0
VERTEX
  5
a91
  8
Layer_0
  10
-13.652645
  20
459.11133
  0
VERTEX
  5
a92
  8
Layer_0
  10
-8.6997032
  20
459.16547
  0
VERTEX
  5
a93
  8
Layer_0
  10
-8.7296104
  20
462.17139
  0
VERTEX
  5
a94
  8
Layer_0
  10
-8.6317482
  20
462.16663
  0
VERTEX
  5
a95
  8
Layer_0
  10
-8.5970421
  20
459.17142
  0
VERTEX
  5
a96
  8
Layer_0
  10
-3.6693993
  20
459.21829
  0
VERTEX
  5
a97
  8
Layer_0
  10
-3.7843552
  20
462.22171
  0
VERTEX
  5
a98
  8
Layer_0
  10
5.9835777
  20
462.32098
  0
VERTEX
  5
a99
  8
Layer_0
  10
5.8983688
  20
459.31522
  0
VERTEX
  5
a9a
  8
Layer_0
  10
10.848602
  20
459.36731
  0
VERTEX
  5
a9b
  8
Layer_0
  10
10.817665
  20
462.37167
  0
VERTEX
  5
a9c
  8
Layer_0
  10
10.917664
  20
462.37335
  0
VERTEX
  5
a9d
  8
Layer_0
  10
10.947941
  20
459.36954
  0
VERTEX
  5
a9e
  8
Layer_0
  10
15.881142
  20
459.42078
  0
VERTEX
  5
a9f
  8
Layer_0
  10
15.766697
  20
462.42447
  0
VERTEX
  5
aa0
  8
Layer_0
  10
22.387163
  20
462.60547
  0
VERTEX
  5
aa1
  8
Layer_0
  10
21.947407
  20
502.29303
  0
VERTEX
  5
aa2
  8
Layer_0
  10
15.344967
  20
502.37549
  0
VERTEX
  5
aa3
  8
Layer_0
  10
15.412575
  20
505.38065
  0
VERTEX
  5
aa4
  8
Layer_0
  10
10.479198
  20
505.35498
  0
VERTEX
  5
aa5
  8
Layer_0
  10
10.495743
  20
502.35107
  0
VERTEX
  5
aa6
  8
Layer_0
  10
10.395706
  20
502.35117
  0
SEQEND
  0
POLYLINE
  5
aa8
  8
Layer_0
  62
0
  70
1
  66
1
  10
0
  20
0
  30
0
  0
VERTEX
  5
aa8
  8
Layer_0
  10
-25.350048
  20
389.35541
  0
VERTEX
  5
aa9
  8
Layer_0
  10
-24.930719
  20
380.08575
  0
VERTEX
  5
aaa
  8
Layer_0
  10
-21.928486
  20
380.20535
  0
VERTEX
  5
aab
  8
Layer_0
  10
-22.347815
  20
389.47501
  0
VERTEX
  5
aac
  8
Layer_0
  10
-25.350048
  20
389.35541
  0
SEQEND
  0
POLYLINE
  5
aae
  8
Layer_0
  62
0
  70
1
  66
1
  10
0
  20
0
  30
0
  0
VERTEX
  5
aae
  8
Layer_0
  10
-24.371342
  20
369.79984
  0
VERTEX
  5
aaf
  8
Layer_0
  10
-23.950603
  20
360.53027
  0
VERTEX
  5
ab0
  8
Layer_0
  10
-20.948391
  20
360.65036
  0
VERTEX
  5
ab1
  8
Layer_0
  10
-21.369129
  20
369.91992
  0
VERTEX
  5
ab2
  8
Layer_0
  10
-24.371342
  20
369.79984
  0
SEQEND
  0
POLYLINE
  5
ab4
  8
Layer_0
  62
0
  70
1
  66
1
  10
0
  20
0
  30
0
  0
VERTEX
  5
ab4
  8
Layer_0
  10
10.395706
  20
455.35117
  0
VERTEX
  5
ab5
  8
Layer_0
  10
10.379826
  20
458.35562
  0
VERTEX
  5
ab6
  8
Layer_0
  10
5.4293594
  20
458.33057
  0
VERTEX
  5
ab7
  8
Layer_0
  10
5.5614243
  20
455.32651
  0
VERTEX
  5
ab8
  8
Layer_0
  10
-4.2068596
  20
455.27344
  0
VERTEX
  5
ab9
  8
Layer_0
  10
-4.1673803
  20
456.77563
  0
VERTEX
  5
aba
  8
Layer_0
  10
-4.1387329
  20
458.27826
  0
VERTEX
  5
abb
  8
Layer_0
  10
-9.0664978
  20
458.24832
  0
VERTEX
  5
abc
  8
Layer_0
  10
-9.054512
  20
455.25293
  0
VERTEX
  5
abd
  8
Layer_0
  10
-9.1523247
  20
455.24667
  0
VERTEX
  5
abe
  8
Layer_0
  10
-9.1692696
  20
458.25266
  0
VERTEX
  5
abf
  8
Layer_0
  10
-14.122437
  20
458.22958
  0
VERTEX
  5
ac0
  8
Layer_0
  10
-13.990906
  20
455.22586
  0
VERTEX
  5
ac1
  8
Layer_0
  10
-20.612831
  20
454.91556
  0
VERTEX
  5
ac2
  8
Layer_0
  10
-20.17308
  20
415.228
  0
VERTEX
  5
ac3
  8
Layer_0
  10
-13.567955
  20
415.11676
  0
VERTEX
  5
ac4
  8
Layer_0
  10
-13.652645
  20
412.11133
  0
VERTEX
  5
ac5
  8
Layer_0
  10
-8.6997032
  20
412.16547
  0
VERTEX
  5
ac6
  8
Layer_0
  10
-8.7296104
  20
415.17139
  0
VERTEX
  5
ac7
  8
Layer_0
  10
-8.6317482
  20
415.16663
  0
VERTEX
  5
ac8
  8
Layer_0
  10
-8.5970421
  20
412.17142
  0
VERTEX
  5
ac9
  8
Layer_0
  10
-3.6693993
  20
412.21832
  0
VERTEX
  5
aca
  8
Layer_0
  10
-3.7843552
  20
415.22171
  0
VERTEX
  5
acb
  8
Layer_0
  10
5.9835777
  20
415.32098
  0
VERTEX
  5
acc
  8
Layer_0
  10
5.8983688
  20
412.31519
  0
VERTEX
  5
acd
  8
Layer_0
  10
10.848602
  20
412.36731
  0
VERTEX
  5
ace
  8
Layer_0
  10
10.817665
  20
415.37167
  0
VERTEX
  5
acf
  8
Layer_0
  10
10.917664
  20
415.37335
  0
VERTEX
  5
ad0
  8
Layer_0
  10
10.947941
  20
412.36954
  0
VERTEX
  5
ad1
  8
Layer_0
  10
15.881142
  20
412.42078
  0
VERTEX
  5
ad2
  8
Layer_0
  10
15.766697
  20
415.42447
  0
VERTEX
  5
ad3
  8
Layer_0
  10
22.387163
  20
415.60547
  0
VERTEX
  5
ad4
  8
Layer_0
  10
21.947407
  20
455.29303
  0
VERTEX
  5
ad5
  8
Layer_0
  10
15.344967
  20
455.37549
  0
VERTEX
  5
ad6
  8
Layer_0
  10
15.412575
  20
458.38065
  0
VERTEX
  5
ad7
  8
Layer_0
  10
10.479198
  20
458.35498
  0
VERTEX
  5
ad8
  8
Layer_0
  10
10.495743
  20
455.35107
  0
VERTEX
  5
ad9
  8
Layer_0
  10
10.395706
  20
455.35117
  0
SEQEND
  0
POLYLINE
  5
adb
  8
Layer_0
  62
0
  70
1
  66
1
  10
0
  20
0
  30
0
  0
VERTEX
  5
adb
  8
Layer_0
  10
-6.9478149
  20
380.17828
  0
VERTEX
  5
adc
  8
Layer_0
  10
-16.44873
  20
389.30719
  0
VERTEX
  5
add
  8
Layer_0
  10
-18.527649
  20
387.14429
  0
VERTEX
  5
ade
  8
Layer_0
  10
-9.0267334
  20
378.01538
  0
VERTEX
  5
adf
  8
Layer_0
  10
-6.9478149
  20
380.17828
  0
SEQEND
  0
POLYLINE
  5
ae1
  8
Layer_0
  62
0
  70
1
  66
1
  10
0
  20
0
  30
0
  0
VERTEX
  5
ae1
  8
Layer_0
  10
14.419281
  20
359.64343
  0
VERTEX
  5
ae2
  8
Layer_0
  10
4.918396
  20
368.77234
  0
VERTEX
  5
ae3
  8
Layer_0
  10
2.8394775
  20
366.60944
  0
VERTEX
  5
ae4
  8
Layer_0
  10
12.340393
  20
357.48053
  0
VERTEX
  5
ae5
  8
Layer_0
  10
14.419281
  20
359.64343
  0
SEQEND
  0
POLYLINE
  5
ae7
  8
Layer_0
  62
0
  70
1
  66
1
  10
0
  20
0
  30
0
  0
VERTEX
  5
ae7
  8
Layer_0
  10
-12.865767
  20
349.05289
  0
VERTEX
  5
ae8
  8
Layer_0
  10
-3.5993309
  20
349.53778
  0
VERTEX
  5
ae9
  8
Layer_0
  10
-3.7401724
  20
352.53909
  0
VERTEX
  5
aea
  8
Layer_0
  10
-13.006609
  20
352.0542
  0
VERTEX
  5
aeb
  8
Layer_0
  10
-12.865767
  20
349.05289
  0
SEQEND
  0
POLYLINE
  5
aed
  8
Layer_0
  62
0
  70
1
  66
1
  10
0
  20
0
  30
0
  0
VERTEX
  5
aed
  8
Layer_0
  10
6.6824207
  20
350.17053
  0
VERTEX
  5
aee
  8
Layer_0
  10
15.948799
  20
350.6568
  0
VERTEX
  5
aef
  8
Layer_0
  10
15.807501
  20
353.65808
  0
VERTEX
  5
af0
  8
Layer_0
  10
6.5411224
  20
353.17181
  0
VERTEX
  5
af1
  8
Layer_0
  10
6.6824207
  20
350.17053
  0
SEQEND
  0
POLYLINE
  5
af3
  8
Layer_0
  62
0
  70
1
  66
1
  10
0
  20
0
  30
0
  0
VERTEX
  5
af3
  8
Layer_0
  10
34.831718
  20
398.17297
  0
VERTEX
  5
af4
  8
Layer_0
  10
25.55279
  20
398.11426
  0
VERTEX
  5
af5
  8
Layer_0
  10
25.555609
  20
395.10962
  0
VERTEX
  5
af6
  8
Layer_0
  10
34.834541
  20
395.16833
  0
VERTEX
  5
af7
  8
Layer_0
  10
34.831718
  20
398.17297
  0
SEQEND
  0
POLYLINE
  5
af9
  8
Layer_0
  62
0
  70
1
  66
1
  10
0
  20
0
  30
0
  0
VERTEX
  5
af9
  8
Layer_0
  10
54.384022
  20
398.28943
  0
VERTEX
  5
afa
  8
Layer_0
  10
45.105072
  20
398.23215
  0
VERTEX
  5
afb
  8
Layer_0
  10
45.107433
  20
395.22754
  0
VERTEX
  5
afc
  8
Layer_0
  10
54.386383
  20
395.28482
  0
VERTEX
  5
afd
  8
Layer_0
  10
54.384022
  20
398.28943
  0
SEQEND
  0
POLYLINE
  5
aff
  8
Layer_0
  62
0
  70
1
  66
1
  10
0
  20
0
  30
0
  0
VERTEX
  5
aff
  8
Layer_0
  10
78.436638
  20
366.29541
  0
VERTEX
  5
b00
  8
Layer_0
  10
74.154778
  20
374.52753
  0
VERTEX
  5
b01
  8
Layer_0
  10
71.481758
  20
373.1554
  0
VERTEX
  5
b02
  8
Layer_0
  10
75.763618
  20
364.92328
  0
VERTEX
  5
b03
  8
Layer_0
  10
78.436638
  20
366.29541
  0
SEQEND
  0
POLYLINE
  5
b05
  8
Layer_0
  62
0
  70
1
  66
1
  10
0
  20
0
  30
0
  0
VERTEX
  5
b05
  8
Layer_0
  10
69.418297
  20
383.6438
  0
VERTEX
  5
b06
  8
Layer_0
  10
65.135193
  20
391.87524
  0
VERTEX
  5
b07
  8
Layer_0
  10
62.462379
  20
390.50275
  0
VERTEX
  5
b08
  8
Layer_0
  10
66.745483
  20
382.2713
  0
VERTEX
  5
b09
  8
Layer_0
  10
69.418297
  20
383.6438
  0
SEQEND
  0
POLYLINE
  5
b0b
  8
Layer_0
  62
0
  70
1
  66
1
  10
0
  20
0
  30
0
  0
VERTEX
  5
b0b
  8
Layer_0
  10
84.182129
  20
359.78217
  0
VERTEX
  5
b0c
  8
Layer_0
  10
63.174423
  20
400.33075
  0
VERTEX
  5
b0d
  8
Layer_0
  10
16.780304
  20
400.11804
  0
VERTEX
  5
b0e
  8
Layer_0
  10
19.681656
  20
388.78174
  0
VERTEX
  5
b0f
  8
Layer_0
  10
31.230667
  20
345.28894
  0
VERTEX
  5
b10
  8
Layer_0
  10
84.182129
  20
359.78217
  0
SEQEND
  0
POLYLINE
  5
b12
  8
Layer_0
  62
0
  70
1
  66
1
  10
0
  20
0
  30
0
  0
VERTEX
  5
b12
  8
Layer_0
  10
22.274645
  20
387.1604
  0
VERTEX
  5
b13
  8
Layer_0
  10
24.7174
  20
378.20856
  0
VERTEX
  5
b14
  8
Layer_0
  10
27.620253
  20
378.98389
  0
VERTEX
  5
b15
  8
Layer_0
  10
25.177498
  20
387.93573
  0
VERTEX
  5
b16
  8
Layer_0
  10
22.274645
  20
387.1604
  0
SEQEND
  0
POLYLINE
  5
b18
  8
Layer_0
  62
0
  70
1
  66
1
  10
0
  20
0
  30
0
  0
VERTEX
  5
b18
  8
Layer_0
  10
27.519754
  20
368.29596
  0
VERTEX
  5
b19
  8
Layer_0
  10
29.963863
  20
359.34454
  0
VERTEX
  5
b1a
  8
Layer_0
  10
32.866596
  20
360.1203
  0
VERTEX
  5
b1b
  8
Layer_0
  10
30.422489
  20
369.07172
  0
VERTEX
  5
b1c
  8
Layer_0
  10
27.519754
  20
368.29596
  0
SEQEND
  0
POLYLINE
  5
b1e
  8
Layer_0
  62
0
  70
1
  66
1
  10
0
  20
0
  30
0
  0
VERTEX
  5
b1e
  8
Layer_0
  10
43.297607
  20
350.57932
  0
VERTEX
  5
b1f
  8
Layer_0
  10
52.231907
  20
353.08533
  0
VERTEX
  5
b20
  8
Layer_0
  10
51.43605
  20
355.98264
  0
VERTEX
  5
b21
  8
Layer_0
  10
42.501751
  20
353.47662
  0
VERTEX
  5
b22
  8
Layer_0
  10
43.297607
  20
350.57932
  0
SEQEND
  0
POLYLINE
  5
b24
  8
Layer_0
  62
0
  70
1
  66
1
  10
0
  20
0
  30
0
  0
VERTEX
  5
b24
  8
Layer_0
  10
62.124355
  20
355.95831
  0
VERTEX
  5
b25
  8
Layer_0
  10
71.058296
  20
358.46567
  0
VERTEX
  5
b26
  8
Layer_0
  10
70.262001
  20
361.36285
  0
VERTEX
  5
b27
  8
Layer_0
  10
61.328056
  20
358.8555
  0
VERTEX
  5
b28
  8
Layer_0
  10
62.124355
  20
355.95831
  0
SEQEND
  0
ENDSEC
  0
EOF
